<svg xmlns="http://www.w3.org/2000/svg" width="16" height="16" viewBox="0 0 16 16">
  <g fill="none" fill-rule="evenodd">
    <rect width="16" height="16" fill="#86868B" rx="4"/>
    <g fill="#FFF">
      <path
        d="M8.375 0c.29 0 .526.236.526.526v.527h1.157c.697 0 1.264.567 1.264 1.264v8.419c0 .697-.567 1.264-1.264 1.264H1.64c-.697 0-1.264-.567-1.264-1.264v-8.42c0-.696.567-1.263 1.264-1.263h1.157V.526c0-.29.236-.526.526-.526.291 0 .527.236.527.526v.527h1.473V.526c0-.29.236-.526.527-.526.29 0 .526.236.526.526v.527h1.474V.526c0-.29.235-.526.526-.526zM2.796 1.895H1.64c-.233 0-.422.189-.422.422v8.419c0 .232.19.422.422.422h8.42c.232 0 .421-.19.421-.422v-8.42c0-.232-.189-.421-.422-.421H8.901v.526c0 .29-.235.526-.526.526-.29 0-.526-.235-.526-.526v-.526H6.375v.526c0 .29-.236.526-.526.526-.291 0-.527-.235-.527-.526v-.526H3.85v.526c0 .29-.236.526-.527.526-.29 0-.526-.235-.526-.526v-.526zm5.44 2.544c.163-.164.43-.164.595 0 .164.165.164.431 0 .595l-3.58 3.58c-.081.082-.19.123-.297.123-.108 0-.216-.041-.298-.124l-1.79-1.789c-.164-.164-.164-.431 0-.595.165-.165.432-.165.596 0L4.954 7.72z"
        transform="translate(2 2)"
      />
    </g>
  </g>
</svg>
