<svg xmlns="http://www.w3.org/2000/svg" width="16" height="16" viewBox="0 0 16 16">
    <g fill="none" fill-rule="evenodd">
        <g>
            <g>
                <g>
                    <g transform="translate(-32 -192) translate(16 88) translate(8 16) translate(8 88)">
                        <rect width="16" height="16" fill="#86868B" rx="4"/>
                        <g fill="#FFF">
                            <path d="M3.083 0c.369 0 .667.298.667.667V1.5h4.5V.667c0-.369.298-.667.667-.667h.166c.369 0 .667.298.667.667V1.5h.917c.736 0 1.333.597 1.333 1.333v7.834c0 .736-.597 1.333-1.333 1.333H1.333C.597 12 0 11.403 0 10.667V2.833C0 2.097.597 1.5 1.333 1.5h.917V.667c0-.369.298-.667.667-.667h.166zM3 7.5c-.414 0-.75.336-.75.75S2.586 9 3 9s.75-.336.75-.75S3.414 7.5 3 7.5zm3 0c-.414 0-.75.336-.75.75S5.586 9 6 9s.75-.336.75-.75S6.414 7.5 6 7.5zm-3-3c-.414 0-.75.336-.75.75S2.586 6 3 6s.75-.336.75-.75S3.414 4.5 3 4.5zm3 0c-.414 0-.75.336-.75.75S5.586 6 6 6s.75-.336.75-.75S6.414 4.5 6 4.5zm3 0c-.414 0-.75.336-.75.75S8.586 6 9 6s.75-.336.75-.75S9.414 4.5 9 4.5z" transform="translate(2 2)"/>
                        </g>
                    </g>
                </g>
            </g>
        </g>
    </g>
</svg>
