<svg width="20" height="20" xmlns="http://www.w3.org/2000/svg">
  <defs>
    <linearGradient id="bckgrnd" x1="1" y2="1">
      <stop offset="0" stop-color="#ededf4"/>
      <stop offset="1" stop-color="#aeb0b7"/>
    </linearGradient>
  </defs>
  <rect width="20" height="20" fill="url(#bckgrnd)" rx="4"/>
  <g
    fill="#000"
    fill-rule="evenodd"
    opacity="0.1"
  >
    <path d="M3 16.984s0-1.739.85-2.495c.852-.755 1.47-.831 2.167-1.133.696-.303 1.624-.152 2.01-.605.387-.454.31-1.587.31-1.587s-.464-.303-.464-.907c-.077-.53-.155-.983-.232-1.059-.077-.075-.31-.226-.31-.453S7.1 7.989 7.1 7.838c0-.152-.077-.454 0-.605.078-.076.232-.076.232-.076-.077-.226-.154-.831-.232-1.209 0-.378-.077-.832 0-1.058.078-.303.232-.756.387-.907.155.075.387 0 .387 0l.464-.454c.155-.151.696-.302.928-.302.232 0 .464-.227.928-.227.387 0 .851.151 1.16.302.31.152.62.227.929.303.232.15.387.378.541.529 0 .151.155.302.232.605.078.302.078.907 0 1.436-.077.529-.232 1.134-.232 1.134l.155-.076s.155.227.155.53c-.078.301-.232.83-.232.906 0 .076 0 .378-.155.454-.077.075-.232.075-.31.226-.077.152-.154 1.059-.232 1.21-.077.151-.232.453-.464.68 0 .378 0 1.436.387 1.663.387.227.928.302 1.702.378.773.151 1.315.454 1.47.53.154.075.85.377 1.16.906.309.53.541.832.541 2.268-.445.036-2.333 0-7 0H3z"/>
  </g>
</svg>
