<svg xmlns="http://www.w3.org/2000/svg" width="16" height="16" viewBox="0 0 16 16">
  <defs>
    <linearGradient id="fc2vv2uuua" x1="51.517%" x2="51.517%" y1="94.293%" y2=".139%">
      <stop offset="0%" stop-color="#FFFEF9"/>
      <stop offset="100%" stop-color="#FFF"/>
    </linearGradient>
  </defs>
  <g fill="none" fill-rule="evenodd">
      <rect width="16" height="16" fill="#86868B" rx="4"/>
      <path
        fill="url(#fc2vv2uuua)"
        d="M.767 4.273l3.1 1.82c.713.367 1.56.367 2.273 0l3.1-1.82c1.02-.6 1.02-1.58 0-2.18L6.14.273c-.713-.366-1.56-.366-2.273 0l-3.1 1.82c-1.02.6-1.02 1.56 0 2.18z"
        transform="translate(2 2) translate(1.125)"
      />
      <path
        fill="#FFF"
        d="M8.907 5.887c.232-.136.52-.136.753 0 .19.066.317.245.317.446s-.127.38-.317.447l-3.9 2.207c-.477.246-1.043.246-1.52 0L.34 6.78c-.19-.067-.317-.246-.317-.447 0-.2.127-.38.317-.446.233-.136.52-.136.753 0L4.24 7.653c.477.247 1.043.247 1.52 0l3.147-1.766z"
        opacity=".5"
        transform="translate(2 2) translate(1.125)"
      />
      <path
        fill="#FFF"
        d="M8.907 8.553c.232-.136.52-.136.753 0 .19.067.317.246.317.447s-.127.38-.317.447l-3.9 2.206c-.477.247-1.043.247-1.52 0L.34 9.447C.15 9.38.023 9.2.023 9s.127-.38.317-.447c.233-.136.52-.136.753 0L4.24 10.32c.477.247 1.043.247 1.52 0l3.147-1.767z"
        opacity=".3"
        transform="translate(2 2) translate(1.125)"
      />
  </g>
</svg>
