<svg xmlns="http://www.w3.org/2000/svg" width="20" height="20" viewBox="0 0 20 20">
  <rect width="20" height="20" fill="#86868B" rx="5"/>
  <path
    fill="#FFF"
    d="M15.68 10.035c-.022-.088-.154-.395-.154-.395s-.131-.175-.218-.22c-.088-.043-.154-.153-.308-.24-.153-.088-.218-.132-.35-.132-.132 0-.262-.175-.416-.263-.154-.087-.176-.044-.176-.044s.176.263.176.329c0 .065.197.175.394.13 0 0 .132.242.198.308.065.065-.022.131-.153.219-.132.087-.11.065-.177.131-.065.066-.284.176-.35.22-.066.043-.329.174-.46.043-.064-.064-.044-.197-.087-.285-.044-.088-.504-.767-.723-1.073-.038-.054-.131-.22-.197-.263-.065-.044.154-.044.154-.044s0-.154-.022-.263c-.022-.11.022-.263.022-.263s-.219.131-.286.175c-.065.044-.131-.087-.218-.197-.087-.109-.175-.241-.197-.35-.022-.11.11-.154.11-.154l.196-.109s.242-.044.396-.022c.153.022.394.044.394.044s.066-.154-.023-.22c-.086-.065-.285-.174-.372-.152-.087.021.044-.11.153-.198l-.243-.044s-.22.11-.287.132c-.065.022-.179.066-.267.175-.088.11.035.263-.053.307-.087.044-.147.066-.212.087-.066.022-.274 0-.274 0-.227 0-.082.207-.023.28l-.175-.214-.13-.307s-.187-.131-.274-.175c-.089-.043-.358-.197-.358-.197l.019.197.253.257.023.006.155.175-.268.022v-.173c-.45-.066-.227-.135-.257-.156l-.23-.153s-.264.044-.33.066c-.065.022-.086.087-.217.13-.132.045-.194.11-.237.176-.043.066-.187.263-.274.35-.087.089-.252.066-.318.066s-.383-.088-.383-.088v-.371s.044-.208.022-.274l.192-.032.32-.066.095-.066.135-.176s-.151-.11-.042-.262c.053-.074.241-.088.33-.154.086-.065.218-.11.218-.11s.154-.13.308-.284c0 0 .109-.066.24-.11 0 0 .373.329.439.329s.308-.153.308-.153.065-.197.044-.263c-.022-.066-.132-.285-.132-.285s-.066.11-.13.197c-.067.088-.112.197-.112.197s-.306-.02-.328-.086c-.023-.066-.066-.174-.088-.24-.02-.066-.196-.063-.327-.02-.133.045.021-.236.021-.236s.132-.165.219-.165.285-.112.372-.134c.088-.022.351-.19.46-.19.11 0 .24-.02.307-.02h.329l.459.03s.395.18.262.268c0 0 .155.112.22.178.062.062.22-.049.312-.1 1.639 1.03 2.736 2.854 2.736 4.928 0 .112-.01.223-.016.333-.043-.104-.105-.237-.12-.294zm-1.6.831c-.044.066-.175.24-.241.328-.065.088-.152.22-.284.329-.132.11-.133.218-.198.307-.065.088-.153.285-.153.285s.044.438.066.526c.022.088-.153.328-.153.328l-.198.197-.264.351.02.328-.308.241c-.108.088-.091.153-.179.241-.087.087-.32.24-.407.263-.087.022-.46.087-.46.087v-.197l-.121-.219s-.121-.262-.188-.35c-.065-.088-.064-.22-.174-.33-.11-.108-.164-.195-.185-.262-.023-.066.016-.262.016-.262s.084-.242.129-.329c.044-.087-.002-.219-.047-.307-.043-.088-.065-.307-.065-.373 0-.064-.177-.175-.242-.24-.066-.067-.044-.155-.044-.241 0-.088-.066-.286-.045-.439.022-.153-.197-.044-.327 0-.132.044-.22-.044-.22-.176 0-.13-.24-.02-.394.065-.154.088-.329.088-.505.154-.174.066-.262-.066-.262-.066s-.154-.131-.262-.197c-.11-.065-.22-.196-.308-.306-.087-.11-.306-.439-.328-.57-.022-.132 0-.22 0-.373s0-.24.022-.35c.022-.11.087-.242.153-.351.066-.11.307-.24.373-.285.065-.043.218-.175.218-.263 0-.087.089-.13.131-.219.045-.087.199-.306.396-.219 0 0 .174-.021.24-.043.065-.022.24-.087.327-.131.088-.044.306-.065.306-.065s.172.069.238.069.28-.039.28-.039.099.318.099.384.066.131.176.175c.109.044.613.153.832-.022.051-.04.219.066.219.066s.547.11.635.175c.088.066.242.11.285.176.045.066.197.263.219.328.022.066.132.308.154.395.022.087.087.307.153.416.066.11.439.591.57.811l.395-.066c-.001.003-.046.2-.09.265zm-.065 2.06c-.023.087-.066.24-.088.328-.022.088-.131.264-.197.307-.065.044-.175.176-.24.198-.066.022-.11-.154-.088-.241.022-.089.131-.33.131-.33s.022-.13.044-.218c.022-.087.285-.197.285-.197l.176-.329s.022.088.022.154c-.001.065-.023.24-.045.328zM7.333 5.061c-.285.306-.22.218-.285.306-.066.088-.044.11-.198.22-.153.108-.219.24-.219.24l-.241.088-.197-.088s-.176.066-.154-.022c.006-.023.015-.047.026-.073.536-.495 1.164-.889 1.856-1.155-.068.087-.15.177-.15.177s-.154 0-.438.307zm-.877 8.457l-.088.327.088.264s-.132.11-.218.11c-.082 0-.11.05-.197.027-.836-.78-1.442-1.801-1.705-2.954.028.007.068.028.125.078.083.072.132.11.242.153.11.045.153.11.284.175.132.067.089.023.263.22.176.197.154.197.198.306.043.11.109.22.153.286.045.066.176.11.241.153.066.044.175.088.24.088.067 0 .264.197.373.219.11.022.11.241.11.241l-.11.307zm-2.263-3.66c.03-1.232.445-2.367 1.129-3.295.023.003.039.009.039.009 0 .087-.12.109 0 .329.153.284.022.416.022.416s-.373.263-.439.307c-.065.043-.24.285-.131.219.109-.066.24-.132.131.044-.11.175-.306.46-.35.57-.044.11-.263.372-.263.504 0 .131-.087.394-.066.504.015.076-.033.301-.072.393zm4.583-3.943l.298.084v-.391l.115-.11.125.241.236.286-.096.13-.38.088v-.231l-.298.231-.086-.131.086-.197zM10 3.636C6.49 3.636 3.636 6.491 3.636 10S6.491 16.364 10 16.364 16.364 13.51 16.364 10 13.509 3.636 10 3.636z"
  />
</svg>
