<svg xmlns="http://www.w3.org/2000/svg" width="13" height="13" viewBox="0 0 13 13">
  <rect width="16" height="16" fill="#86868B"/>
  <path
    fill="#FFF"
    fill-rule="evenodd"
    d="M7.733 4.8c-.442 0-.8-.357-.8-.8 0-.443.358-.8.8-.8.443 0 .8.357.8.8 0 .443-.357.8-.8.8M6.155 2.822c-.442 0-.8-.357-.8-.8 0-.443.358-.8.8-.8.443 0 .8.357.8.8 0 .443-.357.8-.8.8m-2.577.023c-.443 0-.8-.358-.8-.8 0-.443.357-.8.8-.8.443 0 .8.357.8.8 0 .442-.357.8-.8.8M1.867 4.8c-.443 0-.8-.357-.8-.8 0-.443.357-.8.8-.8.442 0 .8.357.8.8 0 .443-.358.8-.8.8M4.8 0C2.15 0 0 2.15 0 4.8s2.15 4.8 4.8 4.8c.443 0 .8-.357.8-.8 0-.208-.077-.395-.208-.536-.125-.141-.2-.325-.2-.53 0-.443.357-.8.8-.8h.941c1.472 0 2.667-1.195 2.667-2.667C9.6 1.909 7.45 0 4.8 0"
    transform="translate(1.7, 1.7)"
  />
</svg>
