<svg width="24" height="20" viewBox="0 0 24 20">
  <g fill="none" fill-rule="evenodd" opacity=".1">
    <g fill="#FFF" fill-rule="nonzero">
      <path
        d="M506.143 922c1.574 0 2.85 1.287 2.857 2.88v14.228c0 1.597-1.279 2.892-2.857 2.892h-18.286c-1.578 0-2.857-1.295-2.857-2.892v-14.216c0-1.598 1.28-2.892 2.857-2.892zm0 .578h-18.286c-1.258 0-2.28 1.029-2.286 2.302v13.939l7.286-7.316c.53-.534 1.377-.53 1.897 0l4 4.048c.53.533 1.377.53 1.897 0l1.498-1.51.008-.008c.522-.524 1.365-.52 1.883.009l4.389 4.442v-13.592c0-1.278-1.024-2.314-2.286-2.314zm-6.538 2.568c1.134 0 2.052.93 2.052 2.077 0 1.147-.918 2.076-2.052 2.076-1.132 0-2.05-.93-2.05-2.076 0-1.147.918-2.077 2.05-2.077z"
        transform="translate(-485 -922)" />
    </g>
  </g>
</svg>
