<svg width="20" height="20" xmlns="http://www.w3.org/2000/svg" xmlns:xlink="http://www.w3.org/1999/xlink">
    <defs>
        <path id="a" d="M0 0h11.86v15.476H0z"/>
    </defs>
    <g fill="none" fill-rule="evenodd">
        <rect fill="#86868B" width="20" height="20" rx="5"/>
        <g transform="translate(4.286 2.143)">
            <mask id="b" fill="#fff">
                <use xlink:href="#a"/>
            </mask>
            <path d="M9.965 14.76H1.891a1.18 1.18 0 0 1-1.175-1.178V1.894A1.18 1.18 0 0 1 1.891.716h5.17V2.46c0 1.153.938 2.091 2.091 2.091h1.991v9.03a1.18 1.18 0 0 1-1.178 1.179zM11.11 3.792c.003.01.005.03.008.043H9.152A1.376 1.376 0 0 1 7.777 2.46V.73c.05.006.083.013.1.019l3.232 3.043zm.516-.497L8.36.22C8.177.037 7.877 0 7.453 0H1.89A1.897 1.897 0 0 0 0 1.894v11.688c0 1.042.848 1.891 1.89 1.894h8.075c1.045 0 1.894-.85 1.894-1.894V4.3c0-.437-.016-.788-.234-1.005z" fill="#FFF" mask="url(#b)"/>
        </g>
        <path d="M7.783 11.785c.333 0 .602-.088.806-.264.204-.175.317-.416.339-.723h-.586c-.013.174-.064.302-.154.384-.089.083-.224.124-.405.124-.2 0-.347-.07-.44-.213-.094-.142-.14-.366-.14-.674v-.214c.002-.295.052-.512.15-.652.096-.14.242-.21.438-.21.18 0 .313.041.401.124.088.083.14.216.154.4h.586c-.031-.318-.147-.565-.348-.741-.2-.176-.465-.264-.793-.264-.237 0-.445.056-.624.167-.18.112-.317.272-.414.48-.096.208-.144.45-.144.723v.174c0 .428.104.765.313 1.01.21.246.496.37.861.37zm2.561 0c.316 0 .566-.07.753-.21a.685.685 0 0 0 .279-.58.743.743 0 0 0-.229-.554c-.152-.149-.395-.273-.728-.373a1.578 1.578 0 0 1-.412-.176c-.093-.063-.14-.14-.14-.233 0-.099.04-.178.12-.239a.54.54 0 0 1 .334-.09c.148 0 .264.035.346.108a.384.384 0 0 1 .123.303h.586a.815.815 0 0 0-.132-.457.865.865 0 0 0-.37-.311 1.278 1.278 0 0 0-.543-.11c-.202 0-.384.033-.546.1a.847.847 0 0 0-.374.283.687.687 0 0 0-.13.411c0 .296.162.531.485.706.119.064.28.128.483.194.203.066.343.128.422.188a.3.3 0 0 1 .117.255c0 .101-.04.18-.117.237a.547.547 0 0 1-.327.085c-.375 0-.562-.157-.562-.47h-.588c0 .183.047.344.141.484.095.14.232.249.412.329.18.08.379.12.597.12zm2.786-.039.991-2.845h-.653l-.644 2.14-.641-2.14h-.65l.986 2.845h.611z" fill="#FFF" fill-rule="nonzero"/>
    </g>
</svg>
