<svg width="20" height="20" xmlns="http://www.w3.org/2000/svg">
    <g fill="none" fill-rule="evenodd">
        <rect fill="#86868B" width="20" height="20" rx="5"/>
        <g fill="#FFF">
            <path d="M14.25 16.903H6.178a1.18 1.18 0 0 1-1.175-1.178V4.037A1.18 1.18 0 0 1 6.176 2.86h5.17v1.744c0 1.153.94 2.091 2.092 2.091h1.99v9.03a1.18 1.18 0 0 1-1.177 1.179zm1.144-10.968c.004.01.006.03.009.043h-1.965a1.376 1.376 0 0 1-1.375-1.375v-1.73c.05.006.083.013.1.019l3.231 3.043zm.517-.497-3.265-3.076c-.183-.183-.483-.22-.908-.22H6.175a1.897 1.897 0 0 0-1.89 1.895v11.688c0 1.042.849 1.891 1.891 1.894h8.075c1.044 0 1.894-.85 1.894-1.894V6.443c0-.437-.017-.788-.234-1.005z"/>
            <path d="m6.933 11.844.52-.946.52.946h.647l-.807-1.361.786-1.34h-.64l-.506.931-.507-.931h-.64l.787 1.34-.807 1.361h.647zm2.524 0v-.738L9.4 9.833l.727 2.011h.383l.729-2.013-.056 1.275v.738h.559V9.143h-.731l-.69 1.96-.695-1.96H8.9v2.701h.557zm4.51 0v-.447h-1.182V9.143h-.556v2.701h1.738z" fill-rule="nonzero"/>
        </g>
    </g>
</svg>
