<svg width="20" height="20" xmlns="http://www.w3.org/2000/svg">
    <g fill="none" fill-rule="evenodd">
        <rect fill="#86868B" width="20" height="20" rx="5"/>
        <g fill="#FFF" fill-rule="nonzero">
            <path d="M4.686 4c-.889 0-1.614.7-1.68 1.588L3 5.716v6.445c0 .907.688 1.654 1.566 1.717l.12.004h.373v-.824h-.373c-.442 0-.81-.347-.857-.799l-.005-.098V5.718a.885.885 0 0 1 .769-.89l.093-.004h8.157c.442 0 .81.348.858.8l.005.098v.336h.823v-.336c0-.908-.688-1.654-1.565-1.718L12.844 4H4.685z"/>
            <path d="M7.157 6.47c-.89 0-1.614.701-1.681 1.589l-.005.128v6.444c0 .907.688 1.654 1.565 1.718l.12.004h8.158c.893 0 1.62-.708 1.682-1.599l.004-.123V8.192c0-.907-.688-1.654-1.566-1.717l-.12-.004H7.157zm0 .824h8.157c.442 0 .81.348.857.8l.005.098v6.44a.886.886 0 0 1-.769.892l-.093.005H7.157c-.443 0-.81-.348-.858-.8l-.005-.098V8.19a.885.885 0 0 1 .77-.89l.093-.005z"/>
        </g>
    </g>
</svg>
