<svg xmlns="http://www.w3.org/2000/svg" width="80" height="80" viewBox="0 0 80 80">
    <defs>
        <linearGradient id="ccm0bjszna" x1="50%" x2="50%" y1="0%" y2="100%">
            <stop offset="0%" stop-color="#A3A9B8"/>
            <stop offset="100%" stop-color="#898994"/>
        </linearGradient>
        <linearGradient id="4r5gztaxeb" x1="50.522%" x2="50.522%" y1="105.31%" y2="-6.354%">
            <stop offset="0%" stop-color="#838895"/>
            <stop offset="100%" stop-color="#A3AAB8"/>
        </linearGradient>
    </defs>
    <g fill="none" fill-rule="evenodd">
        <g fill-rule="nonzero">
            <g>
                <g transform="translate(-643.000000, -173.000000) translate(477.000000, 149.000000) translate(166.000000, 24.000000)">
                    <circle cx="39.955" cy="39.955" r="38.846" stroke="url(#ccm0bjszna)" stroke-width="2.22"/>
                    <path fill="url(#4r5gztaxeb)" d="M42.13 79.853c-.72.038-1.445.058-2.175.058-.65 0-1.298-.016-1.941-.047l1.212-.004 2.047-.006zM39.955 0c22.067 0 39.956 17.889 39.956 39.955 0 9.961-3.645 19.07-9.673 26.067-1.502-1.17-3.102-1.876-3.598-2.119-.78-.38-3.506-1.905-7.402-2.668-3.895-.38-6.622-.762-8.57-1.905-1.836-1.078-1.941-5.883-1.947-8.026v-.36c1.168-1.143 1.947-2.667 2.337-3.43.18-.351.36-1.515.54-2.741l.089-.615c.18-1.226.36-2.39.54-2.742.389-.762 1.168-.762 1.558-1.143.779-.381.779-1.906.779-2.287 0-.38.779-3.049 1.168-4.573 0-1.525-.779-2.668-.779-2.668l-.779.38s.78-3.048 1.169-5.716c.39-2.668.39-5.717 0-7.242-.39-1.524-1.169-2.286-1.169-3.049-.779-.762-1.558-1.905-2.727-2.668-1.558-.38-3.116-.762-4.674-1.524-1.559-.762-3.896-1.525-5.844-1.525-2.337 0-3.506 1.144-4.674 1.144-1.169 0-3.896.762-4.675 1.524l-2.337 2.287s-1.169.381-1.948 0c-.78.762-1.558 3.05-1.948 4.574-.39 1.143 0 3.43 0 5.335.39 1.906.78 4.955 1.169 6.099 0 0-.78 0-1.169.38-.39.763 0 2.287 0 3.05 0 .762 1.169 3.43 1.169 4.573 0 1.144 1.168 1.906 1.558 2.287.39.381.78 2.668 1.169 5.336 0 3.05 2.337 4.574 2.337 4.574s.026.389.031 1.004v.326c-.01 1.832-.234 5.083-1.59 6.673-1.947 2.287-6.622 1.525-10.128 3.05-3.211 1.396-6.096 1.833-9.85 4.826C3.792 59.393 0 50.117 0 39.955 0 17.89 17.889 0 39.955 0z"/>
                </g>
            </g>
        </g>
    </g>
</svg>
