<svg xmlns="http://www.w3.org/2000/svg" width="10" height="10" viewBox="0 0 10 10">
    <g fill="none" fill-rule="evenodd">
        <g fill="#FFF" fill-rule="nonzero">
            <g>
                <g>
                    <g>
                        <g>
                            <g>
                                <path d="M0 9.6s0-1.194.583-1.712c.584-.52 1.008-.571 1.486-.779.477-.207 1.113-.104 1.379-.415.265-.311.212-1.09.212-1.09s-.319-.207-.319-.622c-.053-.364-.106-.675-.159-.727-.053-.052-.212-.156-.212-.311 0-.156-.159-.52-.159-.623 0-.104-.053-.311 0-.415.053-.052.16-.052.16-.052-.054-.156-.107-.57-.16-.83 0-.26-.053-.571 0-.727.053-.207.16-.519.265-.622.106.051.265 0 .265 0L3.66.363c.106-.104.477-.207.636-.207.16 0 .318-.156.637-.156.265 0 .583.104.795.208.212.103.424.155.637.207.159.104.265.26.37.363 0 .104.107.208.16.416.053.207.053.622 0 .985-.053.364-.16.779-.16.779l.107-.052s.106.156.106.363c-.053.208-.159.571-.159.623 0 .052 0 .26-.106.311-.053.052-.16.052-.212.156-.053.104-.106.726-.16.83-.052.104-.159.312-.318.467 0 .26 0 .986.266 1.142.265.156.636.207 1.166.26.53.103.902.31 1.008.363.106.051.584.259.796.622.212.363.371.52.371 1.505C8.964 9.6 0 9.6 0 9.6z" transform="translate(-35.000000, -355.000000) translate(16.000000, 56.000000) translate(8.000000, 16.000000) translate(0.000000, 272.000000) translate(8.000000, 8.000000) translate(3.200000, 3.200000)"/>
                            </g>
                        </g>
                    </g>
                </g>
            </g>
        </g>
    </g>
</svg>
