<svg xmlns="http://www.w3.org/2000/svg" width="10" height="10" viewBox="0 0 10 10">
    <g fill="none" fill-rule="evenodd">
        <g fill="#FFF" fill-rule="nonzero">
            <g>
                <g>
                    <g>
                        <g>
                            <g>
                                <path d="M.229 5.174l.377.057c1.108.187 2.229.3 3.353.336.098.003.18.072.196.166.015.15.091.29.212.386.121.096.277.14.433.125.32.023.602-.204.635-.513.016-.091.095-.16.19-.164 1.127-.035 2.25-.148 3.36-.336l.386-.049c.058-.006.116.01.16.048.044.037.069.09.069.147V8.03c-.004.372-.317.671-.702.67H.702c-.186 0-.365-.07-.497-.198S0 8.202 0 8.022V5.367c0-.056.025-.11.07-.147.043-.037.1-.054.159-.047zm8.87-2.713c.269 0 .49.205.501.464v1.238c.004.33-.244.613-.58.664l-.097.015c-2.734.415-5.519.415-8.253 0l-.09-.007c-.336-.05-.584-.333-.58-.663V2.934c.006-.263.229-.473.5-.473zM6.091.9c.449 0 .813.351.814.785v.303c0 .089-.075.161-.167.161H6.53c-.044 0-.086-.017-.118-.047-.031-.03-.049-.071-.049-.114v-.303c0-.07-.028-.136-.08-.185-.05-.05-.12-.077-.192-.076H3.51c-.072 0-.142.027-.193.076-.05.049-.08.115-.08.185v.303c0 .088-.073.16-.164.161h-.21c-.092 0-.167-.072-.167-.161v-.303C2.696 1.25 3.06.9 3.509.9H6.09z" transform="translate(-35.000000, -291.000000) translate(16.000000, 56.000000) translate(8.000000, 16.000000) translate(0.000000, 208.000000) translate(8.000000, 8.000000) translate(3.200000, 3.200000)"/>
                            </g>
                        </g>
                    </g>
                </g>
            </g>
        </g>
    </g>
</svg>
