<svg xmlns="http://www.w3.org/2000/svg" width="12" height="12" viewBox="0 0 12 12">
    <g fill="none" fill-rule="evenodd">
        <g fill="#FFF">
            <g>
                <g>
                    <g>
                        <g>
                            <g>
                                <path d="M4.918 7.975c.335.222.112.564-.055.795-.168.23-.252.33-.452.33s-.367-.22-.367-.22c-.093-.175.1-.458.236-.658.136-.2.304-.469.638-.247zM2.686 3.07s.53.324 1.135.342l.043.003-.018.027c-.409.65-.523.82-.583.896-.09.116-.142.383 0 .567.1.13.315.248.765.06.426-.177.661-.442.834-.635.095-.107.177-.2.249-.227.144-.056.286-.062.443-.016.79.408 1.688.952 2.396 1.487 1.396 1.053 1.275.979 1.2 1.32-.074.342-.474.213-.772.047-.297-.167-1.404-.84-1.534-.887-.13-.046-.26.102-.103.203.158.102 1.47.887 1.572.96.103.075.112.269.019.389s-.298.277-.558.157c-.26-.12-1.321-.74-1.414-.785-.093-.047-.27.101-.102.203.167.101 1.227.73 1.32.785.093.055.075.23-.027.351-.103.12-.363.185-.577.11-.078-.026-.24-.1-.418-.184l-.272-.13c-.223-.107-.421-.204-.463-.22-.093-.038-.233.138-.047.23s.846.397.949.453c.102.055.065.157-.065.258-.13.102-.326.222-.782.139-.125-.023-.381-.09-.727-.227.099-.156.197-.364.157-.579-.019-.104-.08-.255-.264-.376-.12-.08-.241-.12-.358-.12-.03 0-.056.003-.082.008.098-.3-.043-.517-.194-.653-.12-.11-.25-.165-.387-.165l-.053.003-.052.009c.086-.312-.085-.514-.18-.597-.12-.105-.268-.163-.416-.163-.153 0-.298.061-.41.172-.045.045-.097.105-.153.174l-.003-.015c-.03-.12-.113-.29-.332-.409-.082-.044-.167-.067-.254-.067-.192 0-.343.106-.456.223-.16-.184-.319-.379-.477-.587L2.686 3.07zm1.572 4.12c.205.185.177.37.075.545-.103.176-.427.591-.511.702-.085.11-.252.286-.54.102-.217-.139-.233-.425 0-.693.232-.268.4-.564.502-.656.102-.092.27-.185.474 0zm-.67-.748c.159.138.186.332 0 .6-.186.268-.539.776-.641.878-.103.101-.289.221-.54 0-.196-.174-.158-.395.047-.678.204-.283.465-.652.614-.8.148-.148.362-.139.52 0zm-1.274-.213c.288.157.27.444.168.6-.103.158-.391.647-.782.278-.166-.158-.102-.407 0-.545.103-.139.326-.49.614-.333zm3.283-3.353c.8-.064 1.554.065 1.981.18.428.115.624.042.707.014.084-.027.158-.018.251.056.044.035.252.413.48.833l.173.318c.2.369.39.712.473.826.091.126.325.406.111.614-.214.207-.418.402-.583.392-.164-.009-.71-.47-1.444-.97-.735-.498-1.46-.923-1.795-1.117-.335-.194-.623-.24-.92-.126-.299.115-.447.597-1.09.865-.64.268-.567-.203-.501-.287.065-.083.176-.249.595-.914.418-.665.762-.619 1.562-.684zm3.767-.763c.149.052.28.255.41.477.057.099.317.536.594 1.007l.209.355c.274.468.52.892.554.966.077.166.14.397-.102.554-.242.157-.353.231-.474.259-.121.027-.27-.056-.465-.407C9.894 4.974 9 3.44 9 3.44c-.26-.453-.334-.527-.4-.684-.065-.157.01-.305.2-.443.191-.139.414-.252.563-.2zm-7.19.052c.242.12.373.213.41.314.037.102.102.194-.14.591-.241.398-1.32 2.3-1.441 2.457-.121.157-.41.228-.66.04C.09 5.38.04 5.36.007 5.25c-.076-.257.437-.886.567-1.145.13-.259.995-1.746 1.079-1.847.084-.102.279-.213.52-.093z" transform="translate(-34.000000, -322.000000) translate(16.000000, 56.000000) translate(8.000000, 16.000000) translate(0.000000, 240.000000) translate(8.000000, 8.000000) translate(2.400000, 2.400000)"/>
                            </g>
                        </g>
                    </g>
                </g>
            </g>
        </g>
    </g>
</svg>
