<svg xmlns="http://www.w3.org/2000/svg" width="16" height="16" viewBox="0 0 16 16">
    <g fill="none" fill-rule="evenodd">
        <g>
            <g>
                <g>
                    <g transform="translate(-32.000000, -446.000000) translate(16.000000, 56.000000) translate(8.000000, 16.000000) translate(8.000000, 374.000000)">
                        <rect width="16" height="16" fill="#86868B" fill-rule="nonzero" rx="2.794"/>
                        <g fill="#FFF">
                            <g>
                                <path fill-opacity=".3" d="M4.416 3.506c.33-.23.88-.223 1.22.012l3.872 2.68c.341.235.35.615.019.844L5.354 9.929c-.331.229-.88.223-1.221-.012L.26 7.237c-.34-.235-.349-.615-.018-.844l.418-.29c1.247-.84 1.901-1.253 3.337-2.308l.418-.29z" transform="translate(2.887835, 2.887835) translate(0.324881, 0.000000)"/>
                                <path fill-opacity=".6" d="M4.416 1.837c.33-.229.88-.223 1.22.013l3.872 2.678c.341.236.35.616.019.845L5.354 8.26c-.331.23-.88.223-1.221-.012L.26 5.568c-.34-.235-.349-.615-.018-.844l.418-.289c1.194-.636 2.393-2.828 3.337-2.309l.418-.29z" transform="translate(2.887835, 2.887835) translate(0.324881, 0.000000)"/>
                                <path d="M4.416.168c.33-.229.88-.223 1.22.013l3.872 2.678c.341.236.35.616.019.845L5.354 6.592c-.331.228-.88.223-1.221-.013L.26 3.9c-.34-.236-.349-.616-.018-.845l.418-.289c-.75-.653-.698-1.6.163-2.196.862-.596 2.23-.632 3.174-.113l.418-.29zM1.203.832C.548 1.285.494 2 1.037 2.506L3.621.718C2.89.342 1.858.378 1.203.832z" transform="translate(2.887835, 2.887835) translate(0.324881, 0.000000)"/>
                            </g>
                        </g>
                    </g>
                </g>
            </g>
        </g>
    </g>
</svg>
