<svg xmlns="http://www.w3.org/2000/svg" style="display:none;" data-id="icons-data-grid-filters" class="sprite">
  <symbol id="icon-filter-retail_b2b" viewBox="0 0 22 22" preserveaspectratio="xMidYMin slice" width="100%">
    <g fill="none" fill-rule="evenodd">
      <rect width="22" height="22" fill="#86868B" rx="5.5"/>
      <path fill="currentColor" d="M13.45 6.118V5.64c0-.228-.188-.412-.422-.412H8.975c-.233-.002-.424.18-.426.408v.482c0 .14-.114.253-.258.255h-.33c-.144 0-.261-.114-.261-.255V5.64c.002-.685.573-1.24 1.276-1.24h4.049c.702 0 1.273.555 1.275 1.24v.478c0 .14-.117.255-.261.255h-.327c-.144 0-.261-.114-.261-.255M4.374 10.626c4.387.655 8.854.655 13.24 0l.155-.024c.54-.08.937-.526.931-1.048V7.6c-.018-.41-.372-.734-.803-.734H4.103c-.436 0-.793.332-.803.748v1.955c-.006.521.39.968.931 1.048l.143.01z"/>
      <path fill="currentColor" d="M17.714 11.241c-1.781.298-3.583.475-5.39.53-.153.007-.28.115-.304.26-.055.487-.506.846-1.02.81-.515.052-.978-.304-1.033-.795v-.012c-.027-.148-.16-.258-.316-.262-1.804-.058-3.601-.235-5.38-.53l-.604-.092c-.179-.021-.342.1-.365.27l-.002.038v4.19c-.002.59.499 1.07 1.118 1.072H17.574c.617.002 1.12-.47 1.126-1.058v-4.19c0-.172-.147-.31-.328-.31-.012 0-.026 0-.039.002l-.62.077z"/>
    </g>
  </symbol>
  <symbol id="icon-filter-retail_b2c" viewBox="0 0 22 22" preserveaspectratio="xMidYMin slice" width="100%">
    <g fill="none" fill-rule="evenodd">
      <rect width="22" height="22" fill="#86868B" rx="5.5"/>
      <path fill="currentColor" d="M16.23 9.384c-.633 0-1.147-.538-1.147-1.198 0-.03.002-.061.004-.092h2.285c.002.03.005.061.005.092 0 .66-.515 1.198-1.148 1.198zm-.195 6.999H13.19v-4.727H8.81v4.727H5.895c-.03 0-.054-.026-.054-.057v-5.944c.695-.025 1.307-.402 1.673-.967.378.585 1.019.969 1.742.969.725 0 1.365-.384 1.744-.97.379.586 1.019.97 1.744.97.723 0 1.364-.384 1.742-.97.354.547.937.918 1.603.964v5.948c0 .03-.025.057-.054.057zm-6.236 0h2.403V12.69H9.799v3.693zm-5.17-8.29h2.284c.002.032.004.062.004.093 0 .66-.514 1.198-1.146 1.198-.633 0-1.148-.538-1.148-1.198 0-.03.003-.061.005-.092zm5.775.093c0 .66-.515 1.198-1.148 1.198-.632 0-1.146-.538-1.146-1.198 0-.03.001-.061.004-.092h2.285c.003.03.005.061.005.092zm3.486 0c0 .66-.514 1.198-1.146 1.198-.633 0-1.148-.538-1.148-1.198 0-.03.002-.061.005-.092h2.285c.003.03.004.061.004.092zM4.623 5.66c0-.042.034-.077.074-.077h12.606c.04 0 .074.035.074.077v1.435H4.623V5.66zm13.71 2.526c0-.03 0-.061-.002-.092h.002V5.66c0-.593-.462-1.077-1.03-1.077H4.697c-.568 0-1.03.484-1.03 1.077v2.434h.002c-.002.03-.002.061-.002.092 0 .868.484 1.62 1.184 1.976v6.164c0 .601.469 1.09 1.044 1.09h10.14c.575 0 1.043-.489 1.043-1.09v-6.13c.738-.34 1.255-1.114 1.255-2.01z"/>
    </g>
  </symbol>
  <symbol id="icon-filter-digitalgoods" viewBox="0 0 22 22" preserveaspectratio="xMidYMin slice" width="100%">
    <g fill="none" fill-rule="evenodd">
      <rect width="22" height="22" fill="#86868B" rx="5.5"/>
      <path fill="currentColor" fill-rule="nonzero" d="M18.333 14.925c0 1.039-.875 1.88-1.955 1.88H5.622c-1.08 0-1.955-.841-1.955-1.88V6.464c0-1.039.875-1.88 1.955-1.88h10.756c1.08 0 1.955.841 1.955 1.88v8.461zm-.978-6.676H4.644v6.676c0 .482.378.88.864.934l.114.006h10.756c.501 0 .914-.363.971-.83l.007-.11-.001-6.676zM13.2 5.806c-.54 0-.978.42-.978.94 0 .519.438.94.978.94s.978-.421.978-.94c0-.52-.438-.94-.978-.94zm2.75 0c-.54 0-.978.42-.978.94 0 .519.438.94.978.94s.978-.421.978-.94c0-.52-.438-.94-.978-.94z"/>
    </g>
  </symbol>
  <symbol id="icon-filter-drinks" viewBox="0 0 22 22" preserveaspectratio="xMidYMin slice" width="100%">
    <g fill="none" fill-rule="evenodd">
      <rect width="22" height="22" fill="#86868B" rx="5.5"/>
      <g>
        <path fill="currentColor" d="M13.405 0c.506 0 .78.55.453.908l-6.405 7.04c-.237.26-.669.26-.906 0L.142.908C-.185.55.089 0 .595 0h12.81zM7.773 1.906c-.643 0-1.164.485-1.164 1.083s.521 1.083 1.164 1.083c.644 0 1.165-.485 1.165-1.083s-.521-1.083-1.165-1.083z" transform="translate(4 4)"/>
        <path stroke="currentColor" stroke-linecap="round" stroke-linejoin="round" stroke-width=".917" d="M7 14.293L7 8.159M3 14.289L11 14.289" transform="translate(4 4)"/>
      </g>
    </g>
  </symbol>
  <symbol id="icon-filter-food" viewBox="0 0 22 22" preserveaspectratio="xMidYMin slice" width="100%">
    <g fill="none" fill-rule="evenodd">
      <rect width="22" height="22" fill="#86868B" rx="5.5"/>
      <path fill="currentColor" d="M9.298 4c.378.52.968.844 1.611.875-.008.082-.013.165-.013.247 0 1.343 1.079 2.436 2.404 2.436.111 0 .223-.008.334-.024.173 1.193 1.201 2.1 2.433 2.079-.017.105-.025.21-.025.317 0 1.103.875 2.003 1.958 2.025-.445 3.124-2.908 5.587-5.954 6.045-.096-.913-.86-1.626-1.786-1.626-.794 0-1.468.521-1.704 1.252C6.069 16.68 4.245 14.353 4 11.57c.116.027.235.046.357.046.881 0 1.598-.726 1.598-1.62 0-.863-.67-1.569-1.51-1.616.81-2.127 2.598-3.805 4.853-4.38zm2.286 6.357c-.732 0-1.327.604-1.327 1.346 0 .742.595 1.345 1.327 1.345s1.327-.603 1.327-1.345-.595-1.346-1.327-1.346z"/>
    </g>
  </symbol>
  <symbol id="icon-filter-meals" viewBox="0 0 22 22" preserveaspectratio="xMidYMin slice" width="100%">
    <g fill="none" fill-rule="evenodd">
      <rect width="22" height="22" fill="#86868B" rx="5.5"/>
      <path stroke="currentColor" stroke-width=".917" d="M7.117 14.103c-.167.163-.963.98-1.172 1.072-.226.1-.674-.278-1.055-.196-.521.112-.9.6-.872 1.134.012.234.102.46.252.64.2.241.684.041.867.268.151.189-.103.47-.002.664.114.217.305.398.53.497.43.191.938.08 1.255-.263.157-.17.259-.389.284-.619.018-.16-.13-.524-.095-.627.064-.185 1.04-.903 1.19-1.039"/>
      <path fill="currentColor" d="M8.272 15.615c.865.644 1.403.085 2.08-.385.954-.662 1.916-1.17 3.058-1.452.574-.142 1.172-.178 1.74-.336.766-.214 1.472-.62 2.044-1.17.976-.94 1.512-2.282 1.461-3.634-.104-2.816-2.752-5.022-5.543-4.582-1.318.208-2.608 1.034-3.3 2.181-.466.773-.74 1.636-.747 2.542-.008.823.08 1.53-.275 2.31-.452.992-.836.984-1.488 1.801-.723.906.198 2.15.97 2.725z"/>
    </g>
  </symbol>
  <symbol id="icon-filter-others" viewBox="0 0 22 22" preserveaspectratio="xMidYMin slice" width="100%">
    <g fill="none" fill-rule="evenodd">
      <rect width="22" height="22" fill="#86868B" rx="5.5"/>
      <path fill="currentColor" d="M17.248 11.038c-.024-.097-.169-.434-.169-.434s-.145-.193-.24-.241c-.096-.049-.17-.17-.339-.265-.169-.097-.24-.145-.384-.145-.146 0-.29-.193-.459-.29-.169-.095-.193-.047-.193-.047s.193.289.193.36c0 .073.217.193.434.145 0 0 .145.265.217.337.072.073-.024.145-.168.242-.145.095-.12.072-.194.144-.072.072-.313.194-.385.241-.073.048-.362.193-.506.048-.07-.07-.049-.217-.096-.313-.048-.097-.554-.844-.795-1.18-.042-.06-.145-.243-.217-.29-.072-.049.17-.049.17-.049s0-.169-.025-.289c-.024-.12.024-.289.024-.289s-.24.144-.314.193c-.071.048-.145-.096-.24-.217-.096-.12-.193-.265-.216-.386-.025-.12.12-.168.12-.168l.216-.12s.265-.048.435-.025c.169.024.433.049.433.049s.073-.17-.024-.241c-.095-.073-.314-.193-.41-.169-.095.024.048-.12.168-.217l-.266-.048s-.243.12-.317.145c-.071.023-.196.072-.294.192-.095.12.039.29-.058.338-.095.048-.16.072-.233.096-.073.024-.301 0-.301 0-.25 0-.09.227-.025.307l-.193-.235-.143-.338s-.205-.144-.302-.192c-.097-.048-.393-.217-.393-.217l.02.217.28.283.024.006.171.193-.295.024v-.19c-.494-.073-.25-.148-.283-.172l-.252-.169s-.29.049-.363.073c-.072.024-.095.096-.24.144-.144.049-.212.12-.26.193-.047.072-.206.289-.3.385-.097.097-.279.072-.35.072-.073 0-.423-.096-.423-.096v-.409s.05-.229.025-.3l.212-.036.352-.073.104-.073.148-.192s-.166-.121-.047-.29c.059-.08.266-.096.363-.168.096-.072.241-.12.241-.12s.17-.145.338-.314c0 0 .12-.072.265-.12 0 0 .41.36.482.36.073 0 .339-.168.339-.168s.071-.216.048-.289c-.024-.072-.145-.313-.145-.313s-.072.12-.144.217c-.072.096-.122.217-.122.217s-.337-.023-.36-.096c-.025-.072-.073-.191-.097-.263-.023-.073-.217-.07-.36-.022-.146.049.023-.26.023-.26s.145-.181.24-.181c.096 0 .314-.124.41-.148.096-.024.387-.21.506-.21.12 0 .265-.022.338-.022h.361l.505.034s.434.198.289.295c0 0 .17.123.242.195.068.069.242-.053.343-.109 1.803 1.133 3.01 3.139 3.01 5.421 0 .123-.012.245-.019.366-.046-.115-.114-.26-.13-.324zm-1.76.915c-.048.072-.193.264-.265.36-.072.097-.168.242-.313.362-.144.121-.145.24-.217.338-.072.096-.169.313-.169.313s.049.482.073.58c.024.096-.169.36-.169.36l-.217.217-.29.386.023.36s-.22.17-.34.266c-.12.096-.1.168-.197.265-.096.096-.351.265-.448.29-.096.023-.505.095-.505.095v-.217l-.134-.24s-.133-.289-.207-.386c-.071-.096-.07-.241-.191-.362-.12-.12-.18-.216-.204-.29-.025-.071.018-.288.018-.288s.092-.265.141-.36c.049-.097-.001-.242-.05-.34-.049-.096-.072-.337-.072-.409 0-.071-.195-.193-.267-.265-.072-.072-.049-.17-.049-.265 0-.096-.071-.314-.048-.482.024-.168-.217-.049-.36 0-.145.048-.241-.049-.241-.193 0-.144-.265-.024-.435.071-.169.097-.361.097-.555.17-.192.071-.288-.073-.288-.073s-.17-.145-.289-.217c-.12-.072-.241-.216-.338-.337-.096-.121-.337-.483-.361-.626-.024-.146 0-.243 0-.411 0-.169 0-.265.024-.385.024-.121.096-.266.169-.386.072-.12.337-.265.41-.314.07-.048.24-.192.24-.289 0-.096.097-.144.144-.24.049-.097.218-.338.435-.241 0 0 .192-.024.264-.048.072-.025.265-.096.36-.145.097-.048.337-.07.337-.07s.19.075.261.075c.072 0 .308-.042.308-.042s.109.35.109.422c0 .072.072.144.194.193.12.047.674.168.915-.025.056-.044.24.072.24.072s.603.121.7.193c.097.073.265.121.313.194.05.072.217.289.24.361.025.072.146.338.17.434.024.096.096.337.168.458.073.12.483.65.628.892l.434-.072c-.002.002-.05.219-.099.291zm-.072 2.266c-.025.095-.072.264-.096.36-.024.097-.145.29-.217.338-.071.049-.193.193-.265.218-.071.024-.12-.17-.096-.266.025-.097.145-.362.145-.362s.024-.144.048-.24.313-.217.313-.217l.194-.362s.024.097.024.17c-.001.071-.025.264-.05.36zm-7.35-8.652c-.313.337-.241.24-.313.337-.073.096-.049.12-.218.24-.169.121-.24.266-.24.266l-.266.096-.217-.096s-.193.072-.169-.024c.007-.026.017-.052.028-.08.59-.545 1.28-.978 2.043-1.272-.075.097-.166.195-.166.195s-.17 0-.482.338zM7.1 14.87l-.096.36.096.29s-.145.12-.24.12c-.09 0-.12.056-.216.03-.92-.858-1.586-1.98-1.875-3.248.03.007.075.03.138.086.09.079.144.12.265.168.12.049.168.12.313.192.145.073.098.025.29.241.192.217.169.217.217.338.047.12.12.24.169.314.048.072.192.12.264.169.073.047.193.096.265.096.072 0 .29.217.41.24.12.025.12.266.12.266l-.12.338zm-2.489-4.026c.033-1.355.49-2.604 1.242-3.625.026.004.043.01.043.01 0 .096-.131.12 0 .362.168.313.024.458.024.458s-.41.289-.482.337c-.072.048-.266.313-.145.24.12-.071.264-.143.145.05-.121.192-.338.505-.386.626-.048.121-.29.41-.29.555 0 .144-.095.434-.071.555.017.083-.037.33-.08.432zm5.042-4.338l.327.093v-.43l.127-.12.137.264.26.314-.105.144-.42.097v-.255l-.327.255-.095-.145.096-.217zM11 4c-3.86 0-7 3.14-7 7s3.14 7 7 7 7-3.14 7-7-3.14-7-7-7z"/>
    </g>
  </symbol>
  <symbol id="icon-filter-overnight_stay" viewBox="0 0 22 22" preserveaspectratio="xMidYMin slice" width="100%">
    <g fill="none" fill-rule="evenodd">
      <rect width="22" height="22" fill="#86868B" rx="5.5"/>
      <path fill="currentColor" d="M9.29 12.914v4.646c0 .243-.19.44-.425.44H6.297c-.235 0-.426-.197-.426-.44v-6.194c0-.243-.19-.44-.426-.44H4.427c-.392 0-.576-.5-.283-.77l6.573-6.045c.162-.148.404-.148.566 0l6.573 6.045c.293.27.109.77-.283.77h-1.018c-.236 0-.426.197-.426.44v6.194c0 .243-.19.44-.426.44h-2.568c-.235 0-.425-.197-.425-.44v-4.646c0-.244-.191-.44-.426-.44H9.716c-.235 0-.426.196-.426.44z"/>
    </g>
  </symbol>
  <symbol id="icon-filter-season" viewBox="0 0 22 22" preserveaspectratio="xMidYMin slice" width="100%">
    <g fill="none" fill-rule="evenodd">
      <rect width="22" height="22" fill="#86868B" rx="5.5"/>
      <path fill="currentColor" d="M13.497 10.844c0 1.465-1.188 2.653-2.653 2.653-1.464 0-2.652-1.188-2.652-2.653 0-1.464 1.188-2.652 2.652-2.652 1.465 0 2.653 1.188 2.653 2.652M10.844 6.909c.175 0 .346.012.514.034v-2.43c0-.283-.23-.513-.514-.513-.283 0-.513.23-.513.513v2.43c.168-.022.34-.034.513-.034M6.909 10.844c0-.174.012-.345.034-.513h-2.43c-.283 0-.513.23-.513.513 0 .284.23.514.513.514h2.43c-.022-.168-.034-.34-.034-.514M13.966 8.449l1.718-1.718c.2-.2.2-.526 0-.726-.2-.2-.525-.2-.726 0L13.24 7.723c.272.21.517.453.726.726M7.723 8.449c.21-.273.453-.517.726-.726L6.73 6.005c-.2-.2-.526-.2-.726 0-.2.2-.2.525 0 .726l1.718 1.718zM13.966 13.24c-.21.272-.454.517-.726.726l1.718 1.718c.1.1.232.15.363.15.132 0 .263-.05.363-.15.2-.2.2-.525 0-.726l-1.718-1.718zM17.176 10.331h-2.43c.022.168.034.34.034.513 0 .175-.012.346-.034.514h2.43c.283 0 .513-.23.513-.514 0-.283-.23-.513-.513-.513M10.844 14.78c-.174 0-.345-.012-.513-.034v2.43c0 .283.23.513.513.513.284 0 .514-.23.514-.513v-2.43c-.168.022-.34.034-.514.034M7.723 13.24l-1.718 1.718c-.2.2-.2.526 0 .726.1.1.231.15.363.15.131 0 .262-.05.363-.15l1.718-1.718c-.273-.21-.517-.454-.726-.726"/>
    </g>
  </symbol>
  <symbol id="icon-filter-services" viewBox="0 0 22 22" preserveaspectratio="xMidYMin slice" width="100%">
    <g fill="none" fill-rule="evenodd">
      <rect width="22" height="22" fill="#86868B" rx="5.5"/>
      <path fill="currentColor" d="M11.488 8.293c-.13.123-.306.185-.484.173-.181.013-.359-.05-.492-.173-.12-.127-.184-.298-.173-.473-.012-.179.051-.354.173-.484.133-.122.308-.185.488-.173.33-.035.626.204.66.534.005.04.005.082 0 .123.012.175-.051.346-.172.473zm-1.078 6.545h1.177V9.29H10.41v5.548zM11 4c-3.866 0-7 3.134-7 7s3.134 7 7 7 7-3.134 7-7-3.134-7-7-7z"/>
    </g>
  </symbol>
  <symbol id="icon-filter-style" viewBox="0 0 22 22" preserveaspectratio="xMidYMin slice" width="100%">
    <g fill="none" fill-rule="evenodd">
      <rect width="22" height="22" fill="#86868B" rx="5.5"/>
      <path fill="currentColor" d="M16.036 6.119S14.692 5 12.832 5c0 1.204-1.108 1.814-1.832 1.83-.724-.016-1.832-.626-1.832-1.83-1.86 0-3.204 1.119-3.204 1.119S4.414 8.254 4 9.475c.413.305 1.964 1.22 1.964 1.22l1.24-1.526s.414 1.22.31 2.441c-.103 1.22-.31 4.678-.31 4.678s1.55.712 3.767.712c2.435 0 3.825-.712 3.825-.712s-.207-3.457-.31-4.678c-.104-1.22.31-2.44.31-2.44l1.24 1.525s1.55-.915 1.964-1.22c-.413-1.22-1.964-3.356-1.964-3.356"/>
    </g>
  </symbol>
</svg>
