<svg xmlns="http://www.w3.org/2000/svg" width="22" height="22" viewBox="0 0 22 22">
  <g fill="none" fill-rule="evenodd">
    <g>
      <g transform="translate(-24 -374) translate(24 374)">
        <rect width="22" height="22" fill="#86868B" rx="5.5"/>
        <g fill="#FFF" fill-rule="nonzero">
          <path d="M10.942 8.224L5.87 3.244c-.203-.2-.485-.32-.795-.32H1.128C.508 2.923 0 3.42 0 4.03v3.873c0 .304.124.581.333.786l5.073 4.98c.203.199.485.32.795.32.31 0 .592-.121.795-.326l3.946-3.873c.21-.2.333-.476.333-.78 0-.305-.13-.587-.333-.786zM1.973 5.69c-.468 0-.845-.371-.845-.83 0-.46.377-.83.845-.83.468 0 .846.37.846.83 0 .459-.378.83-.846.83z" transform="matrix(-1 0 0 1 18 4)"/>
          <path fill-opacity=".6" d="M6.397 1.462c.306 0 .585.12.786.32l5.016 4.963c.2.199.329.48.329.784 0 .303-.123.579-.329.777l-.046.047c-.05-.227-.165-.432-.323-.588L6.5 2.491c-.213-.211-.51-.34-.835-.34H1.52l-.058.002c.166-.404.567-.691 1.034-.691z" transform="matrix(-1 0 0 1 18 4)"/>
          <path fill-opacity=".4" d="M7.44 0c.307 0 .586.121.787.32l5.016 4.964c.2.198.329.48.329.783 0 .303-.123.58-.329.778l-.046.046c-.05-.227-.165-.431-.323-.588L7.544 1.03C7.331.82 7.034.69 6.71.69H2.563l-.058.003C2.67.287 3.072 0 3.539 0z" transform="matrix(-1 0 0 1 18 4)"/>
        </g>
      </g>
    </g>
  </g>
</svg>
