<svg xmlns="http://www.w3.org/2000/svg" width="23" height="12" viewBox="0 0 23 12">
  <g fill="#FFF">
    <g>
      <path d="M14-.5c.552 0 1 .448 1 1 0 .513-.386.936-.883.993L14 1.5H0c-.552 0-1-.448-1-1 0-.513.386-.936.883-.993L0-.5h14zM2 8.5c.552 0 1 .448 1 1 0 .513-.386.936-.883.993L2 10.5H0c-.552 0-1-.448-1-1 0-.513.386-.936.883-.993L0 8.5h2zM8 4c.552 0 1 .448 1 1 0 .513-.386.936-.883.993L8 6H0c-.552 0-1-.448-1-1 0-.513.386-.936.883-.993L0 4h8z" transform="translate(8 1)"/>
    </g>
    <path d="M1.707.191c.233-.255.594-.255.827 0l1.569 1.722c.083.092.13.212.13.337 0 .276-.224.5-.5.5H3.03v6.5h.702c.276 0 .5.224.5.5 0 .125-.047.245-.13.337l-1.569 1.722c-.233.255-.594.255-.827 0L.13 10.088c-.186-.204-.172-.52.031-.707.093-.084.213-.131.338-.131h.697v-6.5H.5c-.094 0-.185-.026-.264-.075l-.074-.056c-.203-.187-.217-.503-.03-.707z"/>
  </g>
</svg>
