<svg xmlns="http://www.w3.org/2000/svg" xmlns:xlink="http://www.w3.org/1999/xlink" width="20" height="14" viewBox="0 0 20 14">
  <defs>
    <path id="j04jmtx1za" d="M0 13.684L19.901 13.684 19.901 0 0 0z"/>
  </defs>
  <g fill="none" fill-rule="evenodd">
    <g>
      <g>
        <g>
          <g transform="translate(-1289 -142) translate(1132 83) translate(157 59)">
            <path stroke="#FFF" d="M18.122 13.317H1.779c-.78 0-1.411-.633-1.411-1.412V1.78C.368.999.999.367 1.779.367h16.343c.78 0 1.412.633 1.412 1.412v10.126c0 .78-.632 1.412-1.412 1.412z"/>
          </g>
          <path fill="#FFF" fill-rule="nonzero" d="M3 10s0-.87.425-1.249c.426-.378.735-.416 1.083-.567.348-.152.812-.076 1.006-.303.193-.227.155-.795.155-.795s-.233-.15-.233-.454c-.038-.264-.077-.491-.116-.53-.038-.037-.154-.113-.154-.226 0-.114-.116-.379-.116-.454 0-.076-.039-.227 0-.303.038-.038.116-.038.116-.038-.039-.113-.078-.416-.116-.605 0-.19-.039-.417 0-.53.038-.151.116-.378.193-.454.077.038.193 0 .193 0l.233-.227c.077-.076.348-.151.464-.151.116 0 .232-.114.464-.114.193 0 .425.076.58.151.154.076.31.114.464.152.116.075.193.189.27.265 0 .075.078.15.117.302.038.152.038.454 0 .72-.039.264-.116.567-.116.567l.077-.038s.077.113.077.265c-.038.151-.116.416-.116.454 0 .038 0 .189-.077.227-.039.038-.116.038-.155.113-.038.076-.077.53-.116.606-.038.075-.116.227-.232.34 0 .19 0 .72.194.833.193.113.464.151.85.189.387.076.658.227.735.265.078.038.426.189.58.454.155.265.271.378.271 1.097C9.536 10 3 10 3 10z" transform="translate(-1289 -142) translate(1132 83) translate(157 59)"/>
          <path stroke="#FFF" stroke-linecap="round" d="M11.5 4.5L16.5 4.5M11.5 7.5L14.5 7.5" transform="translate(-1289 -142) translate(1132 83) translate(157 59)"/>
        </g>
      </g>
    </g>
  </g>
</svg>
