<svg xmlns="http://www.w3.org/2000/svg" width="58" height="59" viewBox="0 0 58 59">
    <defs>
        <linearGradient id="zly1mk685a" x1="50%" x2="48.333%" y1="0%" y2="107.889%">
            <stop offset="0%" stop-color="#007DFE"/>
            <stop offset="100%" stop-color="#005CBB"/>
        </linearGradient>
    </defs>
    <g fill="none" fill-rule="evenodd">
        <g fill="url(#zly1mk685a)" fill-rule="nonzero" transform="translate(-521 -187)">
            <path d="M152.778 87.278h-22.556V64.722c0-1.78-1.442-3.222-3.222-3.222s-3.222 1.443-3.222 3.222v22.556h-22.556C99.442 87.278 98 88.72 98 90.5s1.443 3.222 3.222 3.222h22.556v22.556c0 1.78 1.442 3.222 3.222 3.222s3.222-1.443 3.222-3.222V93.722h22.556c1.78 0 3.222-1.442 3.222-3.222s-1.443-3.222-3.222-3.222z" transform="translate(423 126)"/>
        </g>
    </g>
</svg>
