<svg xmlns="http://www.w3.org/2000/svg" width="16" height="16" viewBox="0 0 16 16"><g fill="none" fill-rule="evenodd"><rect width="16" height="16" fill="#86868B" rx="4"/><path fill="#FFF" fill-rule="nonzero" d="M12.4 3c.884 0 1.6.689 1.6 1.538v6.924c0 .85-.716 1.538-1.6 1.538H3.6c-.884 0-1.6-.689-1.6-1.538V4.538C2 3.688 2.716 3 3.6 3h8.8zm.8 4.653H2.799l.001 3.809c0 .394.309.72.707.764l.093.005h8.8a.79.79 0 00.795-.68l.005-.09V7.654zm-.8-3.884H3.6a.79.79 0 00-.795.68l-.005.09-.001 2.307H13.2V4.538a.781.781 0 00-.707-.764L12.4 3.77zm-8 .77c.442 0 .8.344.8.769 0 .425-.358.769-.8.769-.442 0-.8-.344-.8-.77 0-.424.358-.769.8-.769z"/></g></svg>
