<svg xmlns="http://www.w3.org/2000/svg" width="24" height="24" viewBox="0 0 24 24"><g fill="none" fill-rule="evenodd"><rect width="24" height="24" fill="#86868B" rx="6"/><path fill="#FFF" fill-rule="nonzero" d="M18.6 4.5c1.325 0 2.4 1.033 2.4 2.308v10.384c0 1.275-1.075 2.308-2.4 2.308H5.4c-1.325 0-2.4-1.033-2.4-2.308V6.808C3 5.533 4.075 4.5 5.4 4.5h13.2zm1.2 6.98H4.2v5.712c0 .592.463 1.08 1.06 1.146l.14.008h13.2c.615 0 1.123-.445 1.192-1.02l.008-.134V11.48zm-1.2-5.826H5.4c-.615 0-1.123.445-1.192 1.02l-.008.134v3.461h15.6V6.808c0-.592-.463-1.08-1.06-1.146l-.14-.008zm-12 1.154c.663 0 1.2.516 1.2 1.154 0 .637-.537 1.153-1.2 1.153-.663 0-1.2-.516-1.2-1.153 0-.638.537-1.154 1.2-1.154z"/></g></svg>
