<svg xmlns="http://www.w3.org/2000/svg" width="14" height="14" viewBox="0 0 14 14">
  <g fill="none" fill-rule="evenodd">
    <g fill="#FFF">
      <path d="M1185.557 133.955c.27 0 .488.219.488.488v3.256c0 .27-.219.488-.488.488-.27 0-.488-.219-.488-.488v-2.079l-3.236 3.237c-.19.19-.5.19-.69 0-.19-.19-.19-.499 0-.69l3.237-3.237h-2.079c-.27 0-.487-.218-.487-.487 0-.27.218-.488.487-.488zm8.142 0c.27 0 .488.218.488.488 0 .269-.219.487-.488.487h-2.079l3.237 3.237c.19.19.19.5 0 .69-.19.19-.499.19-.69 0l-3.236-3.237v2.079c0 .269-.219.487-.488.487-.27 0-.488-.218-.488-.487v-3.256c0-.27.219-.488.488-.488zM1181.488 125c.124 0 .25.048.344.143l3.14 3.14v-2.08c0-.269.22-.487.488-.487.27 0 .488.218.488.487v3.257c0 .269-.219.487-.488.487h-3.256c-.27 0-.488-.218-.488-.487 0-.27.219-.488.488-.488h2.08l-3.141-3.14c-.19-.19-.19-.499 0-.69.095-.094.22-.142.345-.142zm13.024 0c.125 0 .25.048.345.143.19.19.19.499 0 .69l-3.14 3.14h2.08c.268 0 .487.218.487.487 0 .27-.219.488-.488.488h-3.256c-.27 0-.488-.219-.488-.488v-3.256c0-.27.219-.488.488-.488.27 0 .488.219.488.488v2.079l3.14-3.14c.095-.095.22-.143.344-.143z" transform="translate(-1181 -125)"/>
    </g>
  </g>
</svg>
