<svg xmlns="http://www.w3.org/2000/svg" width="18" height="18" viewBox="0 0 18 18">
    <path fill="#797979" fill-rule="evenodd" d="M6 11c.552 0 1 .448 1 1v1c0 .552-.448 1-1 1H5c-.552 0-1-.448-1-1v-1c0-.552.448-1 1-1h1zm4 0c.552 0 1 .448 1 1v1c0 .552-.448 1-1 1H9c-.552 0-1-.448-1-1v-1c0-.552.448-1 1-1h1zm4 0c.552 0 1 .448 1 1v1c0 .552-.448 1-1 1h-1c-.552 0-1-.448-1-1v-1c0-.552.448-1 1-1h1zM6 7c.552 0 1 .448 1 1v1c0 .552-.448 1-1 1H5c-.552 0-1-.448-1-1V8c0-.552.448-1 1-1h1zm4 0c.552 0 1 .448 1 1v1c0 .552-.448 1-1 1H9c-.552 0-1-.448-1-1V8c0-.552.448-1 1-1h1zm4 0c.552 0 1 .448 1 1v1c0 .552-.448 1-1 1h-1c-.552 0-1-.448-1-1V8c0-.552.448-1 1-1h1zM6 3c.552 0 1 .448 1 1v1c0 .552-.448 1-1 1H5c-.552 0-1-.448-1-1V4c0-.552.448-1 1-1h1zm4 0c.552 0 1 .448 1 1v1c0 .552-.448 1-1 1H9c-.552 0-1-.448-1-1V4c0-.552.448-1 1-1h1zm4 0c.552 0 1 .448 1 1v1c0 .552-.448 1-1 1h-1c-.552 0-1-.448-1-1V4c0-.552.448-1 1-1h1z"/>
</svg>
