<svg xmlns="http://www.w3.org/2000/svg" width="12" height="18" style="padding: 6px 4px 6px 3px;" viewBox="0 0 18 18">
  <path d="M17,6 C17.5522847,6 18,6.44771525 18,7 L18,11 C18,11.5522847 17.5522847,12 17,12 L1,12 C0.44771525,12 6.76353751e-17,11.5522847 0,11 L0,7 C-6.76353751e-17,6.44771525 0.44771525,6 1,6 L17,6 Z M5.5,8 L2.5,8 C2.22385763,8 2,8.22385763 2,8.5 L2,8.5 L2,9.5 C2,9.77614237 2.22385763,10 2.5,10 L2.5,10 L5.5,10 C5.77614237,10 6,9.77614237 6,9.5 L6,9.5 L6,8.5 C6,8.22385763 5.77614237,8 5.5,8 L5.5,8 Z M10.5,8 L7.5,8 C7.22385763,8 7,8.22385763 7,8.5 L7,8.5 L7,9.5 C7,9.77614237 7.22385763,10 7.5,10 L7.5,10 L10.5,10 C10.7761424,10 11,9.77614237 11,9.5 L11,9.5 L11,8.5 C11,8.22385763 10.7761424,8 10.5,8 L10.5,8 Z M15.5,8 L12.5,8 C12.2238576,8 12,8.22385763 12,8.5 L12,8.5 L12,9.5 C12,9.77614237 12.2238576,10 12.5,10 L12.5,10 L15.5,10 C15.7761424,10 16,9.77614237 16,9.5 L16,9.5 L16,8.5 C16,8.22385763 15.7761424,8 15.5,8 L15.5,8 Z" id="Combined-Shape" fill="#797979"></path>
</svg>
