<svg xmlns="http://www.w3.org/2000/svg" width="14" height="14" viewBox="0 0 14 14">
  <g fill="none" fill-rule="evenodd">
    <g fill="#FFF">
      <path d="M1185.212 134.098c.19-.19.5-.19.69 0 .19.19.19.5 0 .69l-3.237 3.237h2.079c.27 0 .487.218.487.487 0 .27-.218.488-.487.488h-3.256c-.27 0-.488-.218-.488-.488v-3.256c0-.27.219-.487.488-.487.27 0 .487.218.487.487v2.079zm4.886 0c.19-.19.5-.19.69 0l3.237 3.237v-2.079c0-.27.218-.487.487-.487.27 0 .488.218.488.487v3.256c0 .27-.218.488-.488.488h-3.256c-.269 0-.487-.218-.487-.488s.218-.487.487-.487h2.08l-3.238-3.237c-.19-.19-.19-.5 0-.69zm-5.354-9.098c.27 0 .487.218.487.488 0 .269-.218.487-.487.487h-2.08l3.141 3.14c.19.19.19.499 0 .69-.095.095-.22.142-.345.142-.124 0-.25-.047-.344-.143l-3.14-3.14v2.08c0 .27-.22.487-.488.487-.27 0-.488-.218-.488-.487v-3.256c0-.27.218-.488.488-.488zm9.768 0c.27 0 .488.218.488.488v3.256c0 .27-.218.487-.488.487-.269 0-.487-.218-.487-.487v-2.08l-3.14 3.14c-.095.096-.22.144-.345.144-.125 0-.25-.048-.345-.143-.19-.19-.19-.5 0-.69l3.14-3.14h-2.079c-.269 0-.487-.218-.487-.487 0-.27.218-.488.487-.488z" transform="translate(-1181 -125)"/>
    </g>
  </g>
</svg>
