<svg width="16px" height="16px" viewBox="0 0 16 16" version="1.1" xmlns="http://www.w3.org/2000/svg" xmlns:xlink="http://www.w3.org/1999/xlink">
    <g stroke="none" stroke-width="1" fill="none" fill-rule="evenodd">
        <g transform="translate(-915.000000, -136.000000)" fill="#78787D">
            <g transform="translate(145.000000, 16.000000)">
                <g transform="translate(12.000000, 48.000000)">
                    <path d="M766,72 C770.418545,72 774,75.5818182 774,80 C774,84.4185455 770.418545,88 766,88 C761.581818,88 758,84.4185455 758,80 C758,75.5814545 761.581818,72 766,72 Z M766,72.7803636 C762.019273,72.7803636 758.780727,76.0192727 758.780727,80 C758.780727,83.9807273 762.019273,87.2196364 766,87.2196364 C769.981091,87.2196364 773.219636,83.9807273 773.219636,80 C773.219636,76.0192727 769.981091,72.7803636 766,72.7803636 Z M766.454545,76.0909091 L766.454545,79.7272727 L770.090909,79.7272727 L770.090909,80.4545455 L766.454545,80.4545455 L766.454545,84.0909091 L765.727273,84.0909091 L765.727273,80.4545455 L762.090909,80.4545455 L762.090909,79.7272727 L765.727273,79.7272727 L765.727273,76.0909091 L766.454545,76.0909091 Z" id="plus-copy"></path>
                </g>
            </g>
        </g>
    </g>
</svg>
