<svg xmlns="http://www.w3.org/2000/svg" width="26" height="26" viewBox="0 0 26 26">
    <g fill="none" fill-rule="evenodd">
        <g>
            <g transform="translate(-1324 -15) translate(1324 15)">
                <circle cx="12.75" cy="12.75" r="12.75" fill="#FFF" fill-opacity=".3"/>
                <path fill="#FFF" fill-rule="nonzero" d="M16.82 7.008c.468-.347 1.132-.309 1.556.116.467.466.467 1.223 0 1.69l-3.936 3.935 3.936 3.937c.467.467.467 1.224 0 1.69-.424.425-1.088.463-1.556.116l-.134-.116-3.937-3.936-3.935 3.936-.134.116c-.468.347-1.132.309-1.556-.116-.467-.466-.467-1.223 0-1.69l3.935-3.937-3.935-3.935c-.467-.467-.467-1.224 0-1.69.424-.425 1.088-.463 1.556-.116l.134.116 3.935 3.935 3.937-3.935z"/>
            </g>
        </g>
    </g>
</svg>
