<svg xmlns="http://www.w3.org/2000/svg" width="20" height="20" viewBox="0 0 20 20">
    <g fill="none" fill-rule="evenodd">
        <g>
            <g>
                <g transform="translate(-210 -204) translate(194 116) translate(16 88)">
                    <rect width="20" height="20" fill="#86868B" rx="5"/>
                    <g fill="#FFF">
                        <path d="M8.4 0c.884 0 1.6.716 1.6 1.6v8.8c0 .884-.716 1.6-1.6 1.6H1.6C.716 12 0 11.284 0 10.4V1.6C0 .716.716 0 1.6 0h6.8zM6.523 9.6H3.477c-.221 0-.4.18-.4.4 0 .22.179.4.4.4h3.046c.221 0 .4-.18.4-.4 0-.22-.179-.4-.4-.4z" transform="translate(5 4)"/>
                    </g>
                </g>
            </g>
        </g>
    </g>
</svg>
