<svg xmlns="http://www.w3.org/2000/svg" viewBox="-5.5 -4.5 20 20">
  <g fill="currentColor">
    <path
      d="M1149.429 605c.315 0 .571.256.571.571 0 .316-.256.572-.571.572l-2.946-.001 3.278 3.331c.221.225.221.584 0 .809-.216.22-.57.222-.789.006l-.006-.006-2.904-2.951v9.106c0 .311-.251.563-.562.563-.31 0-.563-.252-.563-.563v-9.105l-2.903 2.95-.003.003c-.223.219-.576.216-.792-.003-.221-.225-.221-.584 0-.809l3.277-3.331h-2.945c-.315 0-.571-.255-.571-.57 0-.316.256-.572.571-.572h7.858z"
      transform="translate(-1141 -605)"/>
  </g>
</svg>
