<svg width="20px" height="20px" viewBox="0 0 20 20" version="1.1" xmlns="http://www.w3.org/2000/svg" xmlns:xlink="http://www.w3.org/1999/xlink">
  <title>F7D803E4-AEF6-42C7-A134-B3C1FF32DB94</title>
  <g id="Page-1" stroke="none" stroke-width="1" fill="none" fill-rule="evenodd">
    <g id="0-Builder---Publish-5" transform="translate(-125.000000, -413.000000)">
      <g id="Group-10-Copy-9" transform="translate(109.000000, 52.000000)">
        <g id="view" transform="translate(16.000000, 361.000000)">
          <rect id="bg-icon-copy-3" fill="#86868B" x="0" y="0" width="20" height="20" rx="5"></rect>
          <path d="M3.60201773,8.26881836 C7.66738029,3.24372721 12.3139203,3.24372721 16.3792829,8.26881836 L16.3792829,8.26881836 L16.3979823,8.29193221 C17.2093158,9.29480093 17.2093158,10.7283129 16.3979823,11.7311816 C12.3326197,16.7562728 7.68607969,16.7562728 3.62071714,11.7311816 L3.62071714,11.7311816 L3.60201773,11.7080678 C2.79068421,10.7051991 2.79068421,9.27168707 3.60201773,8.26881836 Z M10,6.33333333 C8.07810668,6.33333333 6.5145442,7.97818634 6.5145442,10 C6.5145442,12.0218137 8.07810668,13.6666667 10,13.6666667 C11.9218933,13.6666667 13.4854558,12.0218137 13.4854558,10 C13.4854558,7.97818634 11.9218933,6.33333333 10,6.33333333 Z M10,8.16666667 C10.9609505,8.16666667 11.7427279,8.98908911 11.7427279,10 C11.7427279,11.0109109 10.9609505,11.8333333 10,11.8333333 C9.03904948,11.8333333 8.2572721,11.0109109 8.2572721,10 C8.2572721,8.98908911 9.03904948,8.16666667 10,8.16666667 Z" fill="#FFFFFF"></path>
        </g>
      </g>
    </g>
  </g>
</svg>
