<svg xmlns="http://www.w3.org/2000/svg" width="80" height="80" viewBox="0 0 80 80">
    <g fill="none" fill-rule="evenodd" opacity=".1">
        <g fill="#000" fill-rule="nonzero">
            <g>
                <g>
                    <g>
                        <path fill-opacity=".6" d="M25.712 52.272s0-6.499 3.108-9.324c3.108-2.826 5.369-3.108 7.912-4.238 2.543-1.13 5.933-.565 7.346-2.26 1.413-1.696 1.13-5.934 1.13-5.934s-1.695-1.13-1.695-3.391c-.283-1.978-.565-3.673-.848-3.956-.282-.282-1.13-.282-1.13-1.412s-.847-2.826-.847-3.391-.283-1.695 0-2.26c.282-.283.847-.283.847-.283-.282-.848-.565-3.108-.847-4.52 0-1.414-.283-3.109 0-3.957.282-.847.847-2.825 1.412-3.39.565 0 1.413-.283 1.413-.283l1.695-1.695c.565-.565 2.543-1.13 3.391-1.13.848 0 1.695-.848 3.39-.848 1.696 0 3.109.565 4.239 1.13s2.26.848 3.39 1.13c1.13.283 1.413 1.413 1.978 1.978.283.848.848 1.13 1.13 2.26.283 1.13.283 3.391 0 5.37-.282 1.977-.847 4.237-.847 4.237l.565-.282s.565.848.565 1.978c-.282 1.13-.848 3.108-.848 3.39 0 .283 0 1.413-.565 1.696-.565.282-.847.282-1.13.847-.282.565-.565 3.956-.848 4.521-.282.565-.847 1.696-1.695 2.543 0 1.413 0 5.369 1.413 6.216 1.413.848 3.39 1.13 6.216 1.413 2.826.565 4.803 1.695 5.369 1.978.847.282 3.108 1.413 4.238 3.39 1.13 1.978 1.978 2.826 1.978 8.195-3.39.282-51.425.282-51.425.282z" transform="translate(-643 -176) translate(556 108) translate(87 68) translate(2.5 12.5)"/>
                        <path d="M0 52.272s0-6.499 3.108-9.324c3.108-2.826 5.369-3.108 7.912-4.238 2.543-1.13 5.933-.565 7.346-2.26 1.413-1.696 1.13-5.934 1.13-5.934s-1.695-1.13-1.695-3.391c-.283-1.978-.565-3.673-.848-3.956-.282-.282-1.13-.847-1.13-1.695 0-.848-.848-2.826-.848-3.39 0-.566-.282-1.696 0-2.261.283-.283.848-.283.848-.283-.283-.847-.565-3.108-.848-4.52 0-1.413-.282-3.109 0-3.956.283-1.13.848-2.826 1.413-3.39.565.282 1.413 0 1.413 0l1.695-1.696c.565-.565 2.543-1.13 3.39-1.13.848 0 1.696-.848 3.391-.848 1.413 0 3.108.565 4.239 1.13 1.13.565 2.26.848 3.39 1.13.848.566 1.413 1.413 1.978 1.978 0 .565.565 1.13.848 2.26.282 1.13.282 3.391 0 5.37-.283 1.977-.848 4.237-.848 4.237l.565-.282s.565.848.565 1.978c-.282 1.13-.847 3.108-.847 3.39 0 .283 0 1.413-.565 1.696-.283.282-.848.282-1.13.847-.283.565-.566 3.956-.848 4.521-.283.565-.848 1.696-1.696 2.543 0 1.413 0 5.369 1.413 6.216 1.413.848 3.39 1.13 6.216 1.413 2.826.565 4.804 1.695 5.369 1.978.565.282 3.108 1.413 4.238 3.39 1.13 1.978 1.978 2.826 1.978 8.195-3.39.282-51.142.282-51.142.282z" transform="translate(-643 -176) translate(556 108) translate(87 68) translate(2.5 12.5)"/>
                    </g>
                </g>
            </g>
        </g>
    </g>
</svg>
