<svg xmlns="http://www.w3.org/2000/svg" xmlns:xlink="http://www.w3.org/1999/xlink" width="20" height="20" viewBox="0 0 20 20">
    <defs>
        <path id="oct1pq6vfa" d="M0 0L11.859 0 11.859 15.476 0 15.476z"/>
    </defs>
    <g fill="none" fill-rule="evenodd">
        <g>
            <g>
                <g transform="translate(-993 -205) translate(977 102) translate(16 103)">
                    <rect width="20" height="20" fill="#86868B" rx="5"/>
                    <g>
                        <g transform="translate(4.286 2.143)">
                            <mask id="v80j9aqv6b" fill="#fff">
                                <use xlink:href="#oct1pq6vfa"/>
                            </mask>
                            <path fill="#FFF" d="M9.965 14.76H1.891c-.648-.002-1.175-.53-1.175-1.178V1.894c0-.648.528-1.176 1.175-1.178h5.17V2.46c0 1.153.938 2.091 2.091 2.091h1.991v9.03c0 .65-.528 1.179-1.178 1.179zM11.11 3.792c.003.01.005.03.008.043H9.152c-.758 0-1.375-.617-1.375-1.375V.73c.05.006.083.013.1.019l3.232 3.043zm.516-.497L8.36.22C8.177.037 7.877 0 7.453 0H1.89C.848.003 0 .852 0 1.894v11.688c0 1.042.848 1.891 1.89 1.894h8.075c1.045 0 1.894-.85 1.894-1.894V4.3c0-.437-.016-.788-.234-1.005z" mask="url(#v80j9aqv6b)"/>
                        </g>
                        <path fill="#FFF" fill-rule="nonzero" d="M3.497 9.642c.334 0 .602-.088.806-.264.204-.175.317-.416.34-.722h-.587c-.013.173-.064.3-.153.384-.09.082-.225.124-.406.124-.2 0-.347-.071-.44-.213-.093-.142-.14-.367-.14-.674v-.215c.003-.295.052-.512.15-.652.096-.14.243-.21.438-.21.18 0 .314.041.402.124.087.083.139.216.153.4h.586c-.031-.318-.147-.565-.348-.74-.2-.177-.465-.265-.793-.265-.237 0-.445.056-.624.167-.18.112-.317.272-.413.48-.097.209-.145.45-.145.723v.174c0 .428.105.765.314 1.011.209.245.496.368.86.368zm2.562 0c.315 0 .566-.07.752-.21.186-.14.28-.333.28-.58 0-.22-.077-.405-.23-.554-.152-.148-.395-.273-.728-.373-.181-.055-.318-.113-.411-.176-.094-.062-.14-.14-.14-.232 0-.1.04-.18.12-.24.079-.06.19-.09.333-.09.149 0 .264.036.346.108.082.072.123.173.123.304h.586c0-.171-.044-.323-.132-.458-.088-.134-.211-.238-.37-.311-.159-.074-.34-.11-.543-.11-.202 0-.384.033-.546.101-.162.068-.287.162-.373.282-.087.12-.13.258-.13.412 0 .295.161.53.484.705.119.064.28.129.483.194.203.066.344.129.422.188.078.06.117.144.117.255 0 .101-.039.18-.117.237-.078.057-.187.085-.326.085-.375 0-.563-.157-.563-.47h-.588c0 .183.047.345.142.484.094.14.231.249.41.33.18.08.38.12.599.12zm2.786-.039l.99-2.845h-.652l-.645 2.14-.64-2.14h-.651l.986 2.845h.612z" transform="translate(4.286 2.143)"/>
                    </g>
                </g>
            </g>
        </g>
    </g>
</svg>
