<svg xmlns="http://www.w3.org/2000/svg" width="20" height="20" viewBox="0 0 20 20">
    <g fill="none" fill-rule="evenodd">
        <g>
            <g>
                <g transform="translate(-993 -164) translate(977 102) translate(16 62)">
                    <rect width="20" height="20" fill="#86868B" rx="5"/>
                    <g fill="#FFF" fill-rule="nonzero">
                        <path d="M8.552 0c.349 0 .757.117 1.072.25l.149.069c.325.159.65.238.976.318.244.16.407.398.57.557 0 .16.163.319.244.638.082.318.082.955 0 1.513l-.042.26c-.085.478-.202.934-.202.934l.163-.08.042.074c.048.095.12.272.12.484l-.206.774c-.023.09-.038.158-.038.181 0 .08 0 .399-.162.478-.082.08-.245.08-.326.24-.081.158-.163 1.114-.244 1.273l-.09.17c-.091.165-.224.376-.398.547v.21c.008.489.058 1.337.407 1.542.406.239.976.318 1.79.398.564.11 1.01.297 1.286.428l.474.234c.29.15.763.433 1.008.851l.237.403c.2.369.332.792.332 1.907l-.233.01c-.912.031-3.852.048-6.848.057.25-.6.388-1.26.388-1.952 0-1.965-1.113-3.67-2.742-4.52-.093-.15-.17-.352-.17-.603l-.066-.432c-.059-.357-.118-.625-.177-.683l-.1-.088c-.101-.09-.226-.22-.226-.39 0-.239-.244-.796-.244-.955 0-.16-.081-.478 0-.638.081-.08.244-.08.244-.08-.081-.238-.163-.875-.244-1.273 0-.398-.081-.876 0-1.115.081-.319.244-.797.407-.956.163.08.407 0 .407 0l.488-.478c.163-.159.733-.318.977-.318S8.063 0 8.552 0z" transform="translate(2.143 2.143)"/>
                        <path d="M3.929 8.84c2.17 0 3.928 1.758 3.928 3.928s-1.759 3.928-3.928 3.928C1.759 16.696 0 14.938 0 12.768s1.759-3.929 3.929-3.929zm.654 1.309h-1.31v1.964H1.31v1.31l1.964-.001v1.965h1.31l-.001-1.965h1.965v-1.309H4.583v-1.964z" transform="translate(2.143 2.143)"/>
                    </g>
                </g>
            </g>
        </g>
    </g>
</svg>
