<svg xmlns="http://www.w3.org/2000/svg" width="22" height="22" viewBox="0 0 22 22">
    <g fill="none" fill-rule="evenodd">
        <g>
            <g transform="translate(-23 -314) translate(23 314)">
                <rect width="22" height="22" fill="#86868B" rx="5.5"/>
                <g fill="#FFF" fill-rule="nonzero">
                    <path d="M8 0C3.6 0 0 3.6 0 8s3.6 8 8 8 8-3.6 8-8-3.6-8-8-8zm3.91 11.525L7.76 9.068c-.304-.177-.487-.49-.487-.833V3.643c.01-.401.356-.734.773-.734.417 0 .763.333.763.734V8l3.905 2.262c.366.216.488.676.265 1.028-.224.343-.702.45-1.068.235z" transform="translate(3 3)"/>
                </g>
            </g>
        </g>
    </g>
</svg>
