<svg xmlns="http://www.w3.org/2000/svg" width="16" height="16" viewBox="0 0 16 16">
  <g fill="#FFF">
    <path d="M4 2.986C4 3.546 3.546 4 2.986 4H1.013C.454 4 0 3.546 0 2.986V1.013C0 .454.454 0 1.014 0h1.972C3.546 0 4 .454 4 1.014v1.972zM4 8.986C4 9.546 3.546 10 2.986 10H1.013C.454 10 0 9.546 0 8.986V7.013C0 6.454.454 6 1.014 6h1.972C3.546 6 4 6.454 4 7.013v1.973zM4 14.986C4 15.546 3.546 16 2.986 16H1.013C.454 16 0 15.546 0 14.986v-1.973C0 12.454.454 12 1.014 12h1.972C3.546 12 4 12.454 4 13.014v1.973zM10 2.986C10 3.546 9.546 4 8.986 4H7.013C6.454 4 6 3.546 6 2.986V1.013C6 .454 6.454 0 7.013 0h1.973C9.546 0 10 .454 10 1.014v1.972zM10 8.986C10 9.546 9.546 10 8.986 10H7.013C6.454 10 6 9.546 6 8.986V7.013C6 6.454 6.454 6 7.013 6h1.973C9.546 6 10 6.454 10 7.013v1.973zM10 14.986C10 15.546 9.546 16 8.986 16H7.013C6.454 16 6 15.546 6 14.986v-1.973C6 12.454 6.454 12 7.013 12h1.973c.56 0 1.014.454 1.014 1.014v1.973zM16 2.986C16 3.546 15.546 4 14.986 4h-1.972C12.454 4 12 3.546 12 2.986V1.013C12 .454 12.454 0 13.014 0h1.972C15.546 0 16 .454 16 1.014v1.972zM16 8.986c0 .56-.454 1.014-1.014 1.014h-1.972C12.454 10 12 9.546 12 8.986V7.013C12 6.454 12.454 6 13.014 6h1.972C15.546 6 16 6.454 16 7.013v1.973zM16 14.986c0 .56-.454 1.014-1.014 1.014h-1.972c-.56 0-1.014-.454-1.014-1.014v-1.973c0-.56.454-1.013 1.014-1.013h1.972c.56 0 1.014.454 1.014 1.014v1.973z"/>
  </g>
</svg>
