<svg xmlns="http://www.w3.org/2000/svg" width="18" height="18" viewBox="0 0 18 18">
  <path fill="#FFF" fill-rule="evenodd" d="M0 17.98s0-2.236 1.094-3.208 1.89-1.069 2.784-1.458c.895-.388 2.089-.194 2.586-.777.497-.583.398-2.041.398-2.041s-.597-.389-.597-1.166c-.1-.68-.199-1.264-.298-1.36-.1-.098-.398-.292-.398-.584 0-.291-.298-.972-.298-1.166 0-.195-.1-.583 0-.778.1-.097.298-.097.298-.097-.1-.291-.199-1.069-.298-1.555 0-.486-.1-1.069 0-1.36.1-.39.298-.972.497-1.167.199.098.497 0 .497 0L6.862.68C7.06.486 7.757.292 8.055.292 8.354.292 8.652 0 9.25 0c.497 0 1.094.194 1.491.389.398.194.796.291 1.194.388.298.195.497.486.696.68 0 .195.199.39.298.778.1.389.1 1.166 0 1.847-.1.68-.298 1.458-.298 1.458l.199-.098s.199.292.199.68c-.1.39-.299 1.07-.299 1.167 0 .097 0 .486-.199.583-.1.097-.298.097-.397.292-.1.194-.2 1.36-.299 1.555-.1.194-.298.583-.596.874 0 .486 0 1.847.497 2.138.497.292 1.193.389 2.188.486.994.195 1.69.583 1.89.68.198.098 1.093.486 1.49 1.167.399.68.697 1.069.697 2.915-.572.047-3 0-9 0H0z"/>
</svg>
