<svg xmlns="http://www.w3.org/2000/svg" width="18" height="12" viewBox="0 0 18 12">
  <g fill="none" fill-rule="evenodd">
    <g fill="#FFF" fill-rule="nonzero">
      <g>
        <g>
          <g>
            <path d="M10 .5c.552 0 1 .448 1 1 0 .513-.386.936-.883.993L10 2.5H1c-.552 0-1-.448-1-1C0 .987.386.564.883.507L1 .5h9zM3 9.5c.552 0 1 .448 1 1 0 .513-.386.936-.883.993L3 11.5H1c-.552 0-1-.448-1-1 0-.513.386-.936.883-.993L1 9.5h2zM6 5c.552 0 1 .448 1 1 0 .513-.386.936-.883.993L6 7H1c-.552 0-1-.448-1-1 0-.513.386-.936.883-.993L1 5h5z" transform="translate(-1290 -230) translate(1132 83) matrix(1 0 0 -1 158 159) matrix(1 0 0 -1 7 12)"/>
          </g>
          <path d="M1.707.191c.233-.255.594-.255.827 0l1.569 1.722c.083.092.13.212.13.337 0 .276-.224.5-.5.5h-.715c.009.054.013.11.013.167v8c0 .55-.412 1-.916 1-.505 0-.917-.45-.917-1v-8c0-.057.004-.113.013-.167H.5c-.125 0-.245-.047-.338-.131-.203-.187-.217-.503-.03-.707z" transform="translate(-1290 -230) translate(1132 83) matrix(1 0 0 -1 158 159)"/>
        </g>
      </g>
    </g>
  </g>
</svg>
