<svg xmlns="http://www.w3.org/2000/svg" width="13" height="13" viewBox="0 0 13 13">
  <g fill="none" fill-rule="evenodd">
    <rect width="16" height="16" fill="#86868B"/>
    <path
      fill="#FFF"
      fill-rule="evenodd"
      d="M8.914 8.229c.379 0 .686.307.686.685 0 .379-.307.686-.686.686H.686C.307 9.6 0 9.293 0 8.914c0-.378.307-.685.686-.685h8.228zM1.672 5.143L3.429 6.9l-1.397.374c-.101.027-.208.027-.31 0-.32-.086-.51-.415-.424-.735l.374-1.396zM8.567.328c.43.419.487 1.212.02 1.667L4.112 6.17 2.4 4.504 6.875.328c.467-.455 1.262-.42 1.692 0z"
      transform="translate(1.700000, 1.700000)"
    />
  </g>
</svg>
