<svg width="20" height="20" xmlns="http://www.w3.org/2000/svg">
  <defs>
    <linearGradient id="bckgrnd" x1="1" y2="1">
      <stop offset="0" stop-color="#ededf4"/>
      <stop offset="1" stop-color="#aeb0b7"/>
    </linearGradient>
  </defs>
  <rect width="20" height="20" fill="url(#bckgrnd)" rx="4"/>
  <g
    fill="#000"
    fill-rule="nonzero"
    opacity="0.1"
  >
    <path
      d="M11.859 4c.299 0 .65.1.919.215l.127.058c.28.137.559.205.838.273.21.137.349.342.488.478 0 .137.14.273.21.546.07.274.07.82 0 1.298l-.037.223c-.073.41-.173.8-.173.8l.14-.067.036.063c.042.08.104.232.104.415l-.178.663c-.02.078-.032.135-.032.156 0 .068 0 .341-.14.41-.07.068-.209.068-.278.204-.07.137-.14.956-.21 1.093l-.077.146a2.058 2.058 0 0 1-.342.468l.001.18c.007.42.05 1.147.348 1.323.35.204.838.273 1.536.34.483.095.866.255 1.102.368l.407.2c.248.129.654.372.863.73l.204.346c.171.316.285.678.285 1.634l-.2.01c-.399.013-1.248.023-2.326.031v-.04c0-.975-.103-1.5-.378-2.019l-.129-.225-.097-.161a2.467 2.467 0 0 0-.703-.749 3.812 3.812 0 0 0-.45-.278l-.474-.236a5.376 5.376 0 0 0-1.31-.437l-.165-.017a6.88 6.88 0 0 1-.851-.128l-.125-.037-.011-.048a2.169 2.169 0 0 1-.027-.173l-.018-.22-.004-.092.025-.032c.089-.124.154-.23.224-.36l.074-.14c.072-.142.095-.205.137-.469l.076-.515.103-.072c.211-.172.316-.403.37-.662a1.6 1.6 0 0 0 .031-.25l.002-.108.004.029.18-.655.026-.103v-.105l-.006-.141a1.753 1.753 0 0 0-.126-.52l-.046-.102.04-.2.031-.169.029-.18c.084-.58.084-1.23-.018-1.628a2.094 2.094 0 0 0-.14-.384l-.044-.09.001-.218-.253-.248-.187-.207-.053-.053c.16-.06.351-.162.647-.162z"
      fill-opacity=".5"
    />
    <path d="M8.49 4c.3 0 .65.1.92.215l.127.058c.28.137.558.205.838.273.209.137.348.342.488.478 0 .137.14.273.21.546.07.274.07.82 0 1.298l-.037.223c-.073.41-.173.8-.173.8l.14-.067.036.063c.041.08.103.232.103.415l-.177.663c-.02.078-.032.135-.032.156 0 .068 0 .341-.14.41-.07.068-.21.068-.279.204-.07.137-.14.956-.21 1.093l-.076.146a2.058 2.058 0 0 1-.342.468l.001.18c.006.42.049 1.147.348 1.323.349.204.837.273 1.535.34.483.095.866.255 1.102.368l.407.2c.25.129.655.372.864.73l.203.346c.172.316.286.678.286 1.634l-.2.01c-1.77.059-12.432.059-12.432.059l.01-.216c.03-.455.165-1.51.758-2.038.767-.682 1.326-.75 1.954-1.024.628-.273 1.465-.136 1.814-.546.35-.41.28-1.434.28-1.434l-.032-.023a1.021 1.021 0 0 1-.387-.796l-.057-.37c-.051-.306-.102-.536-.153-.586l-.086-.075c-.086-.077-.193-.188-.193-.335 0-.205-.21-.683-.21-.82 0-.136-.069-.409 0-.545.07-.069.21-.069.21-.069-.07-.205-.14-.75-.21-1.092 0-.342-.069-.751 0-.956.07-.273.21-.683.35-.82.14.069.349 0 .349 0l.418-.409c.14-.137.628-.273.838-.273.21 0 .419-.205.837-.205z"/>
  </g>
</svg>
