<svg xmlns="http://www.w3.org/2000/svg" width="16" height="16" viewBox="0 0 16 16">
  <rect width="16" height="15.966" fill="#86868B" rx="4"/>
  <path
    fill="#FFF"
    fill-rule="nonzero"
    d="M9.607 2.241c.071 0 .142.034.188.1l2.165 3.224c.103.152-.005.358-.187.358h-.942l.003.077c0 2.688-2.163 4.875-4.823 4.875-1.014 0-1.954-.32-2.732-.861l1.25-1.86c.421.296.931.471 1.482.471 1.432 0 2.597-1.178 2.597-2.625 0-.026-.003-.051-.004-.077h-.957c-.178 0-.286-.196-.193-.349l1.96-3.223c.044-.073.118-.11.193-.11zM6.011 1.125c.932 0 1.8.273 2.538.738L7.385 3.777c-.4-.253-.87-.402-1.374-.402-1.432 0-2.597 1.178-2.597 2.625h.936c.183 0 .291.207.188.36L2.375 9.58c-.045.067-.117.1-.189.1-.075 0-.15-.036-.194-.11L.034 6.353C-.059 6.198.05 6 .23 6h.958c0-2.688 2.164-4.875 4.824-4.875z"
    transform="translate(2.000000, 2.000000)"
  />
</svg>
