<svg xmlns="http://www.w3.org/2000/svg" width="20" height="20" viewBox="0 0 20 20">
  <rect width="20" height="20" fill="#86868B" rx="5"/>
  <path
    fill="#FFF"
    d="M8.182 5.455c0-.503-.407-.91-.91-.91-.501 0-.908.407-.908.91 0 .502.407.909.909.909s.909-.407.909-.91M4.732 9.101c-.164 0-.329-.056-.46-.171-.982-.858-1.545-2.08-1.545-3.354 0-1.295.58-2.53 1.589-3.391.282-.241.715-.217.966.055.25.271.225.686-.057.927-.718.611-1.129 1.49-1.129 2.41 0 .904.4 1.772 1.097 2.381.28.245.3.66.046.928-.135.143-.32.215-.507.215M9.813 9.101c-.186 0-.371-.072-.506-.215-.255-.268-.234-.683.045-.928.697-.609 1.097-1.477 1.097-2.382 0-.92-.41-1.798-1.128-2.409-.283-.24-.308-.656-.057-.927.25-.272.683-.296.966-.055 1.01.86 1.588 2.096 1.588 3.391 0 1.274-.563 2.496-1.545 3.354-.13.115-.296.171-.46.171"
    transform="translate(2.727 4.545)"
  />
  <path
    fill="#FFF"
    d="M2.986 11.088c-.14 0-.283-.046-.403-.142C.942 9.629 0 7.66 0 5.544S.942 1.459 2.583.142c.282-.225.69-.177.913.107.223.284.175.697-.106.923C2.061 2.237 1.3 3.832 1.3 5.544c0 1.713.762 3.307 2.091 4.372.281.226.329.639.106.923-.128.164-.318.25-.51.25M11.559 11.088c-.192 0-.381-.085-.51-.249-.222-.284-.175-.697.106-.923 1.33-1.065 2.092-2.66 2.092-4.372 0-1.713-.763-3.307-2.092-4.372-.281-.226-.328-.639-.105-.923.222-.284.631-.332.912-.107 1.642 1.317 2.583 3.285 2.583 5.402s-.941 4.085-2.583 5.402c-.12.096-.262.142-.403.142"
    transform="translate(2.727 4.545)"
  />
</svg>
