<svg width="28" height="28" viewBox="0 0 28 28">
  <g fill="none" fill-rule="evenodd">
    <g fill="#636363" fill-rule="nonzero">
      <g>
          <path d="M299 56c3.866 0 7 3.134 7 7v14c0 3.866-3.134 7-7 7h-14c-3.866 0-7-3.134-7-7V63c0-3.866 3.134-7 7-7h14zm-1.24 17.345c-.285-.119-.613-.1-.884.06l-4.196 2.355c-.636.329-1.391.329-2.027 0l-4.195-2.356c-.31-.18-.694-.18-1.005 0l-.09.04c-.202.11-.332.321-.332.556 0 .268.17.507.422.596l5.2 2.942.162.075c.599.251 1.282.226 1.865-.075l5.2-2.942.09-.04c.203-.11.332-.321.332-.556 0-.268-.17-.507-.422-.596zm0-3.556c-.285-.119-.613-.099-.884.06l-4.196 2.355c-.636.33-1.391.33-2.027 0l-4.195-2.355c-.31-.181-.694-.181-1.005 0l-.09.04c-.202.109-.332.32-.332.555 0 .268.17.507.422.596l5.2 2.942.162.076c.599.25 1.282.226 1.865-.076l5.2-2.942.09-.04c.203-.109.332-.321.332-.556 0-.268-.17-.506-.422-.595zm-7.604-7.425l-4.134 2.427c-1.36.8-1.36 2.08 0 2.907l4.134 2.426c.95.49 2.08.49 3.03 0l4.134-2.426c1.36-.8 1.36-2.107 0-2.907l-4.133-2.427c-.952-.488-2.08-.488-3.031 0z" transform="translate(-1300 -285) translate(1022 229)"/>
      </g>
    </g>
  </g>
</svg>
