<svg xmlns="http://www.w3.org/2000/svg" width="24" height="24" viewBox="0 0 24 24">
  <g fill="none" fill-rule="evenodd">
    <g>
      <g>
        <g>
          <path fill="#37363B" d="M12 0C5.373 0 0 5.372 0 12s5.373 12 12 12c6.628 0 12-5.372 12-12 0-6.627-5.372-12-12-12z" transform="translate(-1248 -680) translate(556 672) translate(692 8)"/>
          <path fill="#86868B" fill-rule="nonzero" d="M12.682 5.761c.177 0 .326.124.365.29l.01.085-.001 5.08h5.08c.178 0 .327.123.365.289l.01.086v1.09c0 .178-.123.327-.289.366l-.086.01-5.08-.001v5.08c0 .178-.123.327-.288.365l-.086.01H11.59c-.178 0-.326-.123-.365-.289l-.01-.086v-5.08h-5.08c-.177 0-.326-.123-.365-.288l-.01-.086V11.59c0-.178.124-.326.29-.365l.085-.01h5.08v-5.08c0-.177.123-.326.289-.365l.086-.01h1.09z" transform="translate(-1248 -680) translate(556 672) translate(692 8)"/>
        </g>
      </g>
    </g>
  </g>
</svg>
