<svg xmlns="http://www.w3.org/2000/svg" width="28" height="28" viewBox="0 0 28 28">
  <g fill="none" fill-rule="evenodd">
    <g fill="#636363" fill-rule="nonzero">
      <g>
        <path d="M299 56c3.866 0 7 3.134 7 7v14c0 3.866-3.134 7-7 7h-14c-3.866 0-7-3.134-7-7V63c0-3.866 3.134-7 7-7h14zm-1.117 6.02h-5.603c-.18-.003-.354.07-.48.201-1.115 1.157-6.758 7.01-7.32 7.547-.287.257-.46.622-.478 1.01-.019.388.118.768.379 1.053.114.103.464.448.937.92l.376.376c1.517 1.52 3.815 3.855 4.206 4.305.622.668 1.637.758 2.364.21l7.536-7.698c.124-.127.193-.3.19-.478v-5.258c0-.704.107-1.174-.372-1.76-.48-.588-1-.428-1.735-.428zm-.48 1.467c.562 0 1.017.462 1.017 1.032 0 .57-.455 1.031-1.017 1.031-.561 0-1.016-.462-1.016-1.031 0-.57.455-1.032 1.016-1.032z" transform="translate(-1300 -346) translate(1022 290)"/>
      </g>
    </g>
  </g>
</svg>
