<svg xmlns="http://www.w3.org/2000/svg" width="55" height="42" viewBox="0 0 55 42">
  <g fill="none" fill-rule="evenodd">
    <g fill="#636363">
      <g>
        <path d="M163.5 92.04c5.154 0 9.347 4.15 9.347 9.25s-4.193 9.25-9.347 9.25-9.347-4.15-9.347-9.25 4.193-9.25 9.347-9.25zm22.76-4.377c1.02 0 1.851.821 1.851 1.831s-.83 1.832-1.85 1.832c-1.021 0-1.852-.822-1.852-1.832 0-1.01.83-1.831 1.851-1.831zm.289-2.86h-8.968l-5.3-5.243c-1.009-1-2.377-1.56-3.804-1.56h-9.954c-1.427 0-2.795.56-3.804 1.56l-5.3 5.244h-8.968c-2.458 0-4.451 1.972-4.451 4.405v26.386c0 2.433 1.993 4.405 4.451 4.405h46.098c2.458 0 4.451-1.972 4.451-4.405V89.209c0-2.433-1.993-4.405-4.451-4.405" transform="translate(-1158 -368) translate(1022 290)"/>
      </g>
    </g>
  </g>
</svg>
