<svg xmlns="http://www.w3.org/2000/svg" width="24" height="24" viewBox="0 0 24 24">
  <g fill="none" fill-rule="evenodd">
    <rect width="24" height="24" fill="#37363B" rx="12"/>
    <path fill="#86868B" fill-rule="nonzero" stroke="#86868B" d="M17.6784402,14.0570641 C17.7849957,13.8794715 18.0153433,13.8218846 18.1929359,13.9284402 C18.3705285,14.0349957 18.4281154,14.2653433 18.3215598,14.4429359 C16.7567011,17.0510338 14.6383552,18.375 12,18.375 C9.36164477,18.375 7.24329891,17.0510338 5.67844015,14.4429359 C5.57188459,14.2653433 5.62947149,14.0349957 5.80706409,13.9284402 C5.98465669,13.8218846 6.21500429,13.8794715 6.32155985,14.0570641 C7.75670109,16.4489662 9.63835523,17.625 12,17.625 C14.3616448,17.625 16.2432989,16.4489662 17.6784402,14.0570641 Z"/>
    <circle cx="7.5" cy="9.5" r="1.5" fill="#86868B"/>
    <circle cx="16.5" cy="9.5" r="1.5" fill="#86868B"/>
  </g>
</svg>
