<svg width="20px" height="20px" viewBox="0 0 20 20" version="1.1" xmlns="http://www.w3.org/2000/svg" xmlns:xlink="http://www.w3.org/1999/xlink">
  <g stroke="none" stroke-width="1" fill="none" fill-rule="evenodd">
      <g transform="translate(-172.000000, -472.000000)">
          <g transform="translate(156.000000, 384.000000)">
              <g transform="translate(16.000000, 88.000000)">
                  <rect fill="#86868B" x="0" y="0" width="20" height="20" rx="5"></rect>
                  <g transform="translate(2.500000, 2.500000)" fill="#FFFFFF" fill-rule="nonzero">
                      <path d="M7.5,2.84212757e-14 C7.58858696,2.84212757e-14 7.67380356,1.65406428e-05 7.75584114,5.11629819e-05 L8.59994418,0.00143317991 C9.67394455,0.00510396975 9.9659058,0.0166304348 10.5916667,0.045 C11.3904167,0.08125 11.9358333,0.208333333 12.4129167,0.39375 C12.9132859,0.582141028 13.3665832,0.877324553 13.74125,1.25875 C14.1227379,1.63336572 14.417931,2.08667762 14.60625,2.58708333 C14.7916667,3.06416667 14.9183333,3.60958333 14.955,4.40791667 C14.962971,4.58182971 14.969603,4.72998661 14.9751015,4.8762951 L14.9811687,5.05250815 C14.9922676,5.40928016 14.9973108,5.81048875 14.9991387,6.58663448 L14.9991074,8.41336552 C14.9961248,9.64226292 14.9849457,9.93121377 14.955,10.5920833 C14.91875,11.3904167 14.7916667,11.9358333 14.60625,12.4129167 C14.4145833,12.9058333 14.1579167,13.3245833 13.74125,13.74125 C13.3666343,14.1227379 12.9133224,14.417931 12.4129167,14.60625 C11.9358333,14.7916667 11.3904167,14.9183333 10.5920833,14.955 C10.4181703,14.962971 10.2700134,14.969603 10.1237049,14.9751015 L9.94749185,14.9811687 C9.59071984,14.9922676 9.18951125,14.9973108 8.41336552,14.9991387 L6.58663448,14.9991074 C5.35773708,14.9961248 5.06878623,14.9849457 4.40791667,14.955 C3.60958333,14.91875 3.06416667,14.7916667 2.58708333,14.60625 C2.09416667,14.4145833 1.67541667,14.1579167 1.25875,13.74125 C0.877251703,13.3666428 0.582057041,12.9133285 0.39375,12.4129167 C0.208333333,11.9358333 0.0816666667,11.3904167 0.045,10.5920833 C0.0370289855,10.4181703 0.0303969754,10.2700331 0.0248984959,10.1237511 L0.0188312649,9.9475724 C0.00865729706,9.62059731 0.00357181995,9.25629144 0.0013869483,8.59994846 L4.89027698e-05,7.75584118 L4.89027698e-05,7.75584118 L0,7.5 C0,7.41141304 1.65406427e-05,7.32619644 5.11629818e-05,7.24415886 L0.00143317991,6.40005582 C0.00510396975,5.32605545 0.0166304348,5.0340942 0.045,4.40833333 C0.08125,3.60958333 0.208333333,3.06416667 0.39375,2.58708333 C0.582141028,2.08671406 0.877324553,1.63341681 1.25875,1.25875 C1.6333572,0.877251703 2.08667154,0.582057041 2.58708333,0.39375 C3.06416667,0.208333333 3.60958333,0.0816666667 4.40791667,0.045 C4.58182971,0.0370289855 4.72998661,0.0303969754 4.8762951,0.0248984959 L5.05250815,0.0188312649 C5.37954916,0.00865729706 5.74392924,0.00357181995 6.40021797,0.0013869483 L7.24420855,4.89027698e-05 L7.24420855,4.89027698e-05 Z M8.19864654,1.35169845 L6.80135346,1.35169845 C5.90745788,1.35305807 5.48082292,1.35778023 5.10282622,1.36947635 L4.93029547,1.3753829 C4.78685728,1.3807396 4.64108696,1.38721014 4.46916667,1.395 C3.73791667,1.42833333 3.34083333,1.55041667 3.07666667,1.65333333 C2.72666667,1.78916667 2.47666667,1.95166667 2.21416667,2.21416667 C1.95208333,2.47666667 1.78916667,2.72666667 1.65333333,3.07666667 C1.55041667,3.34083333 1.42833333,3.73791667 1.395,4.46916667 C1.38721014,4.64108696 1.3807396,4.78685728 1.3753829,4.93029547 L1.36947635,5.10282622 C1.35778023,5.48082292 1.35305807,5.90745788 1.35169845,6.80135346 L1.35169845,8.19864654 C1.35305807,9.09254212 1.35778023,9.51917708 1.36947635,9.89717378 L1.3753829,10.0697045 C1.3807396,10.2131427 1.38721014,10.358913 1.395,10.5308333 C1.42833333,11.2620833 1.55041667,11.6591667 1.65333333,11.9233333 C1.77348711,12.2491254 1.96512781,12.5438477 2.21416667,12.7858333 C2.45614325,13.0348832 2.75086824,13.2265256 3.07666667,13.3466667 C3.34083333,13.4495833 3.73791667,13.5716667 4.46916667,13.605 C4.64108696,13.6127899 4.78683759,13.6192604 4.93024924,13.6246171 L5.10274568,13.6305237 C5.48066447,13.6422198 5.90720994,13.6469419 6.80123017,13.6483016 L8.19876983,13.6483016 C9.09279006,13.6469419 9.51933553,13.6422198 9.89725432,13.6305237 L10.0697508,13.6246171 C10.2131624,13.6192604 10.358913,13.6127899 10.5308333,13.605 C11.2620833,13.5716667 11.6591667,13.4495833 11.9233333,13.3466667 C12.2733333,13.2108333 12.5233333,13.0483333 12.7858333,12.7858333 C13.0348832,12.5438568 13.2265256,12.2491318 13.3466667,11.9233333 C13.4495833,11.6591667 13.5716667,11.2620833 13.605,10.5308333 C13.6127899,10.358913 13.6192604,10.2131427 13.6246171,10.0697045 L13.6305237,9.89717378 C13.6422198,9.51917708 13.6469419,9.09254212 13.6483016,8.19864654 L13.6483016,6.80135346 C13.6469419,5.90745788 13.6422198,5.48082292 13.6305237,5.10282622 L13.6246171,4.93029547 C13.6192604,4.78685728 13.6127899,4.64108696 13.605,4.46916667 C13.5716667,3.73791667 13.4495833,3.34083333 13.3466667,3.07666667 C13.2108333,2.72666667 13.0483333,2.47666667 12.7858333,2.21416667 C12.5233333,1.95208333 12.2733333,1.78916667 11.9233333,1.65333333 C11.6591667,1.55041667 11.2620833,1.42833333 10.5308333,1.395 C10.358913,1.38721014 10.2131427,1.3807396 10.0697045,1.3753829 L9.89717378,1.36947635 C9.51917708,1.35778023 9.09254212,1.35305807 8.19864654,1.35169845 Z M7.5,3.645 C9.62905771,3.645 11.355,5.37094229 11.355,7.5 C11.355,9.62905771 9.62905771,11.355 7.5,11.355 C5.37094229,11.355 3.645,9.62905771 3.645,7.5 C3.645,5.37094229 5.37094229,3.645 7.5,3.645 Z M7.5,4.9975 C6.60594285,4.9975 5.77979997,5.47447379 5.3327714,6.24874999 C4.88574282,7.02302619 4.88574282,7.97697381 5.3327714,8.75125001 C5.77979997,9.52552621 6.60594285,10.0025 7.5,10.0025 C8.88209257,10.0025 10.0025,8.88209257 10.0025,7.5 C10.0025,6.11790743 8.88209257,4.9975 7.5,4.9975 Z M11.5654167,2.66375 C12.0686861,2.66375 12.4766667,3.07173052 12.4766667,3.575 C12.4766667,4.07826948 12.0686861,4.48625 11.5654167,4.48625 C11.0621472,4.48625 10.6541667,4.07826948 10.6541667,3.575 C10.6541667,3.07173052 11.0621472,2.66375 11.5654167,2.66375 Z" id="Combined-Shape"></path>
                  </g>
              </g>
          </g>
      </g>
  </g>
</svg>
