<svg width="20px" height="20px" viewBox="0 0 20 20" version="1.1" xmlns="http://www.w3.org/2000/svg" xmlns:xlink="http://www.w3.org/1999/xlink">
    <g stroke="none" stroke-width="1" fill="none" fill-rule="evenodd">
        <g transform="translate(-172.000000, -544.000000)">
            <g transform="translate(156.000000, 384.000000)">
                <g transform="translate(16.000000, 160.000000)">
                    <rect fill="#86868B" x="0" y="0" width="20" height="20" rx="5"></rect>
                    <path d="M3.96242701,9.16592184 C7.72051569,7.47244493 10.2264968,6.35600131 11.4803702,5.81659096 C15.0604337,4.27646481 15.8043402,4.00892841 16.2892081,4 C16.3958503,3.99815121 16.6342942,4.02548649 16.7887481,4.15511219 C16.919166,4.26456561 16.9550492,4.4124216 16.9722205,4.51619544 C16.9893917,4.61996928 17.010774,4.85636875 16.9937767,5.04108443 C16.7997718,7.14939963 15.9603158,12.2657246 15.5332482,14.6270738 C15.3525398,15.6262491 14.9967195,15.9612675 14.6522443,15.9940535 C13.9036198,16.065305 13.3351485,15.4823476 12.6100691,14.990753 C11.475463,14.2215044 10.8344827,13.7426448 9.73315108,12.9920003 C8.46037178,12.1245008 9.28546163,11.6477079 10.0108149,10.868495 C10.2006432,10.6645713 13.4990997,7.56150611 13.5629414,7.28000947 C13.5709259,7.2448036 13.5783359,7.11357283 13.5029583,7.04427816 C13.4275808,6.9749835 13.31633,6.99867958 13.2360484,7.01752528 C13.1222516,7.04423848 11.3097037,8.28334064 7.79840468,10.7348317 C7.28391899,11.1002299 6.81791383,11.2782642 6.4003892,11.2689346 C5.94010179,11.2586494 5.05469347,10.9997581 4.39648339,10.7784642 C3.58916194,10.5070383 2.94751892,10.3635334 3.00339163,9.90256824 C3.03249358,9.66246904 3.35217203,9.41692024 3.96242701,9.16592184 Z" id="telegram" fill="#FFFFFF" fill-rule="nonzero"></path>
                </g>
            </g>
        </g>
    </g>
</svg>
