<svg xmlns="http://www.w3.org/2000/svg" width="80" height="80" viewBox="0 0 80 80">
      <g fill="none" fill-rule="evenodd" opacity=".1">
        <g fill="#000" fill-rule="nonzero">
          <path d="M1.903 49.154c2.355 2.138 24.79 24.779 27.6 28.007 3.106 3.34 8.184 3.79 11.815 1.048l37.68-38.49c.622-.633.965-1.495.95-2.389V11.042c0-3.522.538-5.87-1.859-8.805C75.693-.698 73.09.099 69.413.099H41.401c-.901-.015-1.769.349-2.396 1.006C33.427 6.89 5.208 36.156 2.399 38.839.964 40.127.102 41.95.009 43.89c-.094 1.942.59 3.84 1.894 5.264zm60.032-36.561c0-2.848 2.275-5.157 5.082-5.157 2.806 0 5.082 2.309 5.082 5.157s-2.276 5.157-5.082 5.157c-2.807 0-5.082-2.309-5.082-5.157z" transform="translate(-373 -173) translate(286 105) translate(87 68)"/>
        </g>
      </g>
    </svg>