<svg xmlns="http://www.w3.org/2000/svg" width="20" height="20" viewBox="0 0 20 20">
    <g fill="none" fill-rule="evenodd">
        <g>
            <g transform="translate(-522 -208) translate(522 208)">
                <rect width="20" height="20" fill="#86868B" rx="5"/>
                <g fill="#FFF" fill-rule="nonzero">
                    <path d="M4.326 7.622c-.11 0-.12-.074-.093-.13.022-.046.17-.344.2-.4.034-.071.024-.145-.146-.145h-.958l-.721 1.456h1.9c.52 0 .897-.185 1.155-.706.013-.024.025-.05.037-.075H4.326zm1.593 0l-.386.781h1.179l.389-.781H5.919zm1.66 0l-.387.781h1.18l.388-.781H7.58zm1.218-.076l.72-1.454h-1.18l-.39.79h-.482l.392-.79H6.675L5.96 7.546h2.838zm1.02-1.454h1.181l-.721 1.454h-1.18l.72-1.454zm-.756 1.53h2.641l-.386.781H9.368c-.406 0-.536-.307-.391-.605.012-.035.084-.176.084-.176zm-6.251 0l-.113.23H.84v-.23h1.97zm-.136.273l-.115.232H.84v-.232h1.834zm-.137.279l-.116.23H.84v-.23h1.696zm10.908-.323h-1.693l.113-.23h1.58v.23zm0 .276h-1.831l.113-.232h1.718v.232zm0 .047v.23h-1.97l.117-.23h1.853zM5.394 6.092c.69 0 .896.557.697.956l-.247.498h-.942c-.111 0-.094-.088-.06-.159.03-.058.133-.269.183-.369.049-.102-.01-.137-.175-.137H2.737l.392-.789z" transform="translate(2.857 2.857)"/>
                </g>
            </g>
        </g>
    </g>
</svg>
