<svg xmlns="http://www.w3.org/2000/svg" width="20" height="20" viewBox="0 0 20 20">
    <g fill="none" fill-rule="evenodd">
        <g>
            <g transform="translate(-522 -167) translate(522 167)">
                <rect width="20" height="20" fill="#86868B" rx="5"/>
                <g>
                    <path fill="#FFF" d="M12.794 9.375l-.59-.672-.588.672H10.38l1.207-1.376-1.207-1.375h1.275l.598.671.577-.671h1.228l-1.203 1.372 1.22 1.379h-1.281zm-4.785 0V5.042h2.371v.968H9.013v.614h1.367v.931H9.013v.852h1.367v.968H8.01z" transform="translate(2.857 2.857)"/>
                    <path fill="#FDFDFE" d="M7.083 5.042v1.712h-.01c-.205-.251-.463-.335-.761-.335-.616 0-1.076.446-1.231 1.035-.182-.645-.655-1.046-1.367-1.046-.575 0-1.025.28-1.26.726v-.562H1.266v-.596h1.29v-.934H.21v4.183h1.056v-1.76h1.059c-.034.129-.053.265-.053.415 0 .871.632 1.485 1.439 1.485.678 0 1.128-.335 1.363-.949h-.903c-.122.185-.215.237-.46.237-.285 0-.53-.261-.53-.568h1.847c.08.694.589 1.29 1.29 1.29.305 0 .583-.157.752-.422h.01v.272h.93V5.042h-.927zM3.21 7.479c.06-.265.255-.44.5-.44.268 0 .453.168.503.44H3.211zM6.517 8.59c-.344 0-.556-.338-.556-.687 0-.377.185-.736.556-.736.384 0 .536.363.536.736.003.356-.159.687-.536.687z" transform="translate(2.857 2.857)"/>
                </g>
            </g>
        </g>
    </g>
</svg>
