<svg xmlns="http://www.w3.org/2000/svg" width="80" height="80" viewBox="0 0 80 80">
    <g fill="none" fill-rule="evenodd" opacity=".1">
        <g fill="#000" fill-rule="nonzero">
            <g>
                <g>
                    <path d="M4.433 26.809c1.195-.674 2.662-.661 3.845.033L32.662 41.13c2.724 1.596 4.389 4.503 4.374 7.638V76.22c-.004 1.35-.733 2.597-1.914 3.272-1.18.675-2.635.677-3.817.005L6.958 65.584c-2.76-1.576-4.46-4.492-4.458-7.647V30.1c0-1.362.739-2.618 1.933-3.292zm67.29.08c1.182-.694 2.649-.707 3.844-.033 1.194.673 1.932 1.93 1.933 3.292v27.789c-.002 3.152-1.702 6.064-4.458 7.638L48.686 79.497c-1.182.668-2.633.663-3.81-.012-1.178-.674-1.906-1.917-1.912-3.265V48.814c0-3.117 1.659-6.002 4.364-7.592zM35.583 1.182c2.756-1.576 6.151-1.576 8.907 0L68.904 15.19c1.17.68 1.887 1.924 1.887 3.268 0 1.344-.718 2.587-1.887 3.268L44.586 36.012c-2.804 1.649-6.293 1.649-9.096 0L11.18 21.697c-1.17-.68-1.887-1.924-1.887-3.268 0-1.344.718-2.587 1.887-3.268z" transform="translate(-373 -173) translate(286 105) translate(87 68)"/>
                </g>
            </g>
        </g>
    </g>
</svg>
