<svg xmlns="http://www.w3.org/2000/svg" width="20" height="20" viewBox="0 0 20 20">
    <g fill="none" fill-rule="evenodd">
        <g>
            <g transform="translate(-522 -127) translate(522 127)">
                <rect width="20" height="20" fill="#86868B" rx="5"/>
                <g fill="#FFF">
                    <path d="M11.41 13.03h-.077v.272h.04c.154 0 .193-.077.193-.155 0-.039-.039-.116-.155-.116m.039-.426c.386 0 .735.348.735.735 0 .426-.349.736-.735.736-.426 0-.736-.349-.736-.736 0-.425.349-.735.736-.735m.345 1.195c.14-.108.235-.277.235-.46 0-.31-.232-.58-.58-.58-.31 0-.58.27-.58.58 0 .31.27.581.58.581.124 0 .242-.044.339-.117h-.185l-.232-.348h-.039v.348h-.154v-.89h.232c.232 0 .31.155.31.271 0 .117-.078.194-.194.233.036.036.24.341.268.382M1.554 8.383c0 1.298.503 2.36 1.478 3.097.882.679 3.492 1.77 4.216 2.065.723-.295 3.366-1.416 4.215-2.065.975-.737 1.479-1.829 1.479-3.097V1.599c-3.65-.324-7.99-.148-11.388 2.802v3.982zM7.241.213c.007 0 3.467-.119 6.204 1.268v6.872c0 1.387-.535 2.596-1.667 3.481-1.07.826-4.53 2.242-4.53 2.242s-3.46-1.416-4.53-2.213C1.586 10.98 1.05 9.77 1.05 8.383V1.481C3.713.131 7.062.207 7.24.212zm.037 4.23c-.579 0-1.035.112-1.431.337v6.354h1.035V9.082c.092.028.244.056.488.056 1.187 0 1.858-.984 1.858-2.39 0-1.434-.7-2.306-1.95-2.306zm-4.111.056H2.1v3.064c0 1.041.548 1.575 1.583 1.575.64 0 1.188-.14 1.584-.393V4.499H4.202v3.683c-.122.085-.274.113-.487.113-.488 0-.548-.422-.548-.675V4.499zm7.675-.084c-.7.027-1.432.477-1.432 1.264.031.535.213.928 1.066 1.378.457.253.64.422.67.731 0 .338-.244.534-.64.534-.335 0-.73-.168-1.004-.393v.9c.334.169.73.309 1.157.309 1.035 0 1.523-.674 1.523-1.293.03-.563-.153-1.013-1.036-1.49-.396-.226-.7-.366-.7-.703 0-.338.335-.479.609-.479.365 0 .73.197.944.394v-.843c-.183-.141-.579-.338-1.157-.31zm-3.594.758c.609 0 .852.45.852 1.547 0 1.068-.304 1.575-.913 1.575-.152 0-.274-.028-.335-.057v-2.98h.03c.092-.028.244-.085.366-.085z" transform="translate(2.857 2.857)"/>
                </g>
            </g>
        </g>
    </g>
</svg>
