<svg viewBox="0 0 16 16" xmlns="http://www.w3.org/2000/svg">
  <g transform="translate(-1291.000000, -350.000000)" fill="currentColor">
    <path
      d="M1307,365 C1307,365.552285 1306.55228,366 1306,366 L1292,366 C1291.44772,366 1291,365.552285 1291,365 L1291,351 C1291,350.447715 1291.44772,350 1292,350 L1306,350 C1306.55228,350 1307,350.447715 1307,351 L1307,365 Z M1298.5,358.5 L1292,358.5 L1292,365 L1298.5,365 L1298.5,358.5 Z M1306,358.5 L1299.5,358.5 L1299.5,365 L1306,365 L1306,358.5 Z M1298.5,351 L1292,351 L1292,357.5 L1298.5,357.5 L1298.5,351 Z M1306,351 L1299.5,351 L1299.5,357.5 L1306,357.5 L1306,351 Z"></path>
  </g>
</svg>
