<svg xmlns="http://www.w3.org/2000/svg" width="17" height="16" viewBox="0 0 17 16">
    <g fill="none" fill-rule="evenodd">
        <g fill="#FFF">
            <g>
                <path d="M21.556 8.248c.377.204.687.514.891.891l6.286 11.589c.583 1.076.184 2.42-.892 3.004-.324.176-.687.268-1.056.268h-12.57c-1.224 0-2.216-.992-2.216-2.216 0-.369.092-.732.268-1.056l6.285-11.589c.583-1.076 1.928-1.475 3.004-.891zm-1.06 11.794c-.33 0-.578.092-.746.277-.167.185-.251.413-.251.686 0 .273.084.498.251.677.168.178.416.268.745.268.33 0 .579-.09.75-.268.17-.179.256-.404.256-.677s-.086-.501-.256-.686c-.171-.185-.42-.277-.75-.277zm.84-7.318h-1.773l.119 6.417h1.526l.128-6.417z" transform="translate(-489 -332) translate(477 324)"/>
            </g>
        </g>
    </g>
</svg>
