<svg xmlns="http://www.w3.org/2000/svg" xmlns:xlink="http://www.w3.org/1999/xlink" width="20px" height="20px" viewBox="0 0 20 20">
  <g id="Page-1" stroke="none" stroke-width="1" fill="none" fill-rule="evenodd">
    <rect fill="#86868B" x="0" y="0" width="20" height="20" rx="5">
    </rect>
    <path
      d="M10,13.8422852 L6.8587322,15.2324252 C6.54679554,15.37047 6.18201351,15.2295027 6.04396872,14.9175661 C6.00047351,14.8192809 5.98337845,14.711347 5.99437308,14.6044315 L6.34576966,11.1873314 L6.34576966,11.1873314 L4.05296281,8.62938509 C3.82528069,8.37537388 3.84662463,7.98488428 4.10063584,7.75720216 C4.18066981,7.68546398 4.27803842,7.63585219 4.38311862,7.61327 L7.74156145,6.89152601 L7.74156145,6.89152601 L9.46579668,3.92048823 C9.63701806,3.62545588 10.0149914,3.52508726 10.3100237,3.69630863 C10.4029826,3.75025714 10.4802548,3.82752931 10.5342033,3.92048823 L12.2584385,6.89152601 L12.2584385,6.89152601 L15.6168814,7.61327 C15.9503841,7.68494119 16.1626405,8.01339957 16.0909694,8.34690232 C16.0683872,8.45198251 16.0187754,8.54935113 15.9470372,8.62938509 L13.6542303,11.1873314 L13.6542303,11.1873314 L14.0056269,14.6044315 C14.0405216,14.9437591 13.7937299,15.2471262 13.4544024,15.2820208 C13.3474869,15.2930154 13.2395529,15.2759204 13.1412678,15.2324252 L10,13.8422852 L10,13.8422852 Z"
    ></path>
  </g>
</svg>
