<svg xmlns="http://www.w3.org/2000/svg" width="16" height="16" viewBox="0 0 16 16">
    <g fill="none" fill-rule="evenodd">
        <g>
            <g>
                <g>
                    <g transform="translate(-32 -288) translate(16 56) translate(8 16) translate(8 216)">
                        <rect width="16" height="16" fill="#86868B" rx="4"/>
                        <g fill="#FFF" fill-rule="nonzero">
                            <path d="M7.039 2.737H8.85c-.016-.033-.037-.064-.062-.09L6.193.201C6.16.17 6.12.148 6.079.133v1.644c.002.53.43.959.96.96z" transform="translate(3.333 2)"/>
                            <path d="M7.022 3.152c-.365 0-.714-.145-.972-.403s-.403-.607-.403-.972V.111H1.263C.592.112.048.657.048 1.329v9.268c0 .671.544 1.216 1.215 1.218h6.403c.673 0 1.218-.546 1.218-1.218V3.152H7.022zm-2.91 4.747H1.714c-.115 0-.207-.093-.207-.207 0-.115.092-.207.207-.207H4.11c.115 0 .208.092.208.207 0 .114-.093.207-.208.207zm3.106-1.476H1.715c-.08.01-.16-.028-.202-.097-.043-.068-.043-.156 0-.224s.122-.106.202-.097h5.503c.08-.01.159.029.202.097.043.068.043.156 0 .224-.043.069-.122.106-.202.097zm0-1.477H1.715c-.08.01-.16-.028-.202-.096-.043-.069-.043-.156 0-.224.043-.069.122-.107.202-.097h5.503c.08-.01.159.028.202.097.043.068.043.155 0 .224-.043.068-.122.106-.202.096z" transform="translate(3.333 2)"/>
                        </g>
                    </g>
                </g>
            </g>
        </g>
    </g>
</svg>
