<svg xmlns="http://www.w3.org/2000/svg" width="16" height="16" viewBox="0 0 16 16">
    <g fill="none" fill-rule="evenodd">
        <g>
            <g>
                <g>
                    <g transform="translate(-32 -160) translate(16 56) translate(8 16) translate(8 88)">
                        <rect width="16" height="16" fill="#86868B" rx="4"/>
                        <g fill="#FFF" fill-rule="nonzero">
                            <path d="M.591 3.575c.16-.09.355-.089.513.004l3.25 1.905c.364.213.586.6.584 1.018v3.66c0 .18-.098.347-.255.437-.157.09-.351.09-.509 0L.928 8.746c-.368-.21-.595-.6-.595-1.02V4.013c0-.181.099-.349.258-.438zm8.972.01c.158-.092.353-.094.513-.004.159.09.257.257.257.439v3.705c0 .42-.227.808-.594 1.018L6.49 10.6c-.157.089-.35.088-.508-.002-.157-.09-.254-.256-.254-.435V6.509c0-.416.22-.8.581-1.013zM4.745.158c.367-.21.82-.21 1.187 0l3.255 1.867c.156.091.252.257.252.436 0 .18-.096.345-.252.436L5.945 4.802c-.374.22-.84.22-1.213 0l-3.241-1.91c-.156-.09-.252-.256-.252-.435s.096-.345.252-.436z" transform="translate(2.667 2.667)"/>
                        </g>
                    </g>
                </g>
            </g>
        </g>
    </g>
</svg>
