<svg xmlns="http://www.w3.org/2000/svg" width="20" height="20" viewBox="0 0 20 20">
  <g fill="none" fill-rule="evenodd">
    <rect width="20" height="20"/>
    <path
      fill="#FFF"
      fill-rule="nonzero"
      d="M10.478 2.999h.212l.538.002c.525.002.83.008 1.116.017l.172.007.37.016c.745.034 1.254.152 1.7.325.46.179.85.418 1.24.808.389.389.628.78.807 1.24.173.445.291.954.325 1.699.007.136.012.255.016.37l.007.172c.012.372.018.775.019 1.654v1.381c-.001.88-.007 1.282-.02 1.654l-.006.172-.016.37c-.034.745-.152 1.254-.325 1.7-.179.46-.418.85-.808 1.24-.389.389-.78.628-1.24.807-.445.173-.954.291-1.699.325-.136.007-.255.012-.37.016l-.172.007c-.372.012-.775.018-1.654.019H9.31c-.88-.001-1.282-.007-1.654-.02l-.172-.006-.37-.016c-.745-.034-1.254-.152-1.7-.325-.46-.179-.85-.418-1.24-.808-.389-.389-.628-.78-.807-1.24-.173-.445-.291-.954-.325-1.699-.007-.136-.012-.255-.016-.37l-.007-.172c-.01-.286-.015-.59-.017-1.116l-.002-.538V9.521v-.212l.002-.538c.002-.525.008-.83.017-1.116l.007-.172.016-.37c.034-.745.152-1.254.325-1.7.179-.46.418-.85.808-1.24.389-.389.78-.628 1.24-.807.445-.173.954-.291 1.699-.325.136-.007.255-.012.37-.016l.172-.007c.286-.01.59-.015 1.116-.017l.538-.002h.212zM10 4.26h-.87c-1.097.003-1.355.013-1.96.04-.682.032-1.053.146-1.3.242-.326.127-.56.279-.804.524-.245.245-.397.478-.524.805-.096.246-.21.617-.241 1.3-.028.604-.038.862-.04 1.96l-.001.624V10.869c.003 1.097.013 1.356.04 1.96.032.682.146 1.053.242 1.3.127.326.279.56.524.804.245.245.478.397.805.524.246.096.617.21 1.3.241.603.028.861.038 1.96.04h.398l.47.001h.87c1.098-.003 1.356-.013 1.96-.04.682-.032 1.053-.146 1.3-.242.326-.127.56-.279.804-.524.245-.245.397-.478.524-.805.096-.246.21-.617.241-1.3.028-.603.038-.862.04-1.96l.001-.624V10v-.87c-.003-1.097-.013-1.355-.04-1.96-.032-.682-.146-1.053-.242-1.3-.127-.326-.279-.56-.524-.804-.245-.245-.478-.397-.805-.524-.246-.096-.617-.21-1.3-.241-.604-.028-.862-.038-1.96-.04l-.624-.001zm0 2.144c1.985 0 3.595 1.61 3.595 3.596 0 1.985-1.61 3.595-3.595 3.595-1.986 0-3.596-1.61-3.596-3.595 0-1.986 1.61-3.596 3.596-3.596zm0 1.262C8.71 7.666 7.666 8.71 7.666 10c0 1.288 1.045 2.333 2.334 2.333 1.288 0 2.333-1.045 2.333-2.333 0-1.29-1.045-2.334-2.333-2.334zm3.737-2.244c.464 0 .84.376.84.84 0 .464-.376.84-.84.84-.464 0-.84-.376-.84-.84 0-.464.376-.84.84-.84z"
    />
  </g>
</svg>
