<svg xmlns="http://www.w3.org/2000/svg" width="20" height="20" viewBox="0 0 20 20">
  <g fill="none" fill-rule="evenodd">
    <rect width="20" height="20"/>
  </g>
  <path
    fill="#FFF"
    fill-rule="nonzero"
    d="M14.927 14.93h-2.073v-3.248c0-.775-.015-1.772-1.08-1.772-1.081 0-1.246.843-1.246 1.715v3.305H8.455V8.25h1.991v.91h.027c.278-.524.955-1.079 1.966-1.079 2.1 0 2.489 1.383 2.489 3.183v3.666zM6.113 7.336c-.667 0-1.203-.54-1.203-1.205 0-.663.537-1.203 1.203-1.203.665 0 1.204.54 1.204 1.203 0 .665-.54 1.205-1.204 1.205zm1.04 7.594h-2.08V8.25h2.08v6.68zM15.965 3H4.033C3.462 3 3 3.451 3 4.009V15.99C3 16.55 3.462 17 4.033 17h11.93c.57 0 1.037-.45 1.037-1.009V4.01C17 3.45 16.533 3 15.963 3h.002z"
  />
</svg>
