<svg xmlns="http://www.w3.org/2000/svg" width="20" height="20" viewBox="0 0 20 20">
  <g fill="none" fill-rule="evenodd">
    <rect width="20" height="20"/>
    <g fill="#FFF" fill-rule="nonzero">
      <path
        d="M0 7c0 2.988 1.873 5.54 4.51 6.544-.065-.547-.133-1.448.014-2.08C4.65 10.92 5.34 8 5.34 8s-.208-.417-.208-1.035c0-.968.56-1.692 1.26-1.692.595 0 .882.447.882.982 0 .597-.38 1.491-.577 2.32-.164.694.348 1.26 1.032 1.26 1.238 0 2.19-1.307 2.19-3.192 0-1.669-1.199-2.835-2.91-2.835-1.983 0-3.147 1.487-3.147 3.024 0 .6.23 1.24.519 1.59.05.054.068.13.048.2l-.193.79c-.031.128-.101.155-.234.093-.87-.404-1.414-1.677-1.414-2.699 0-2.198 1.597-4.217 4.604-4.217 2.417 0 4.296 1.723 4.296 4.025 0 2.401-1.513 4.335-3.616 4.335-.706 0-1.37-.368-1.597-.801 0 0-.35 1.33-.434 1.656-.164.633-.62 1.433-.903 1.887C5.59 13.892 6.282 14 7 14c3.866 0 7-3.134 7-7s-3.134-7-7-7-7 3.134-7 7"
        transform="translate(3.000000, 3.000000)"
      />
    </g>
  </g>
</svg>
