<svg xmlns="http://www.w3.org/2000/svg" height="70" width="70" viewBox="0 0 70 70">
  <rect height="70" width="70" fill="#86868B" rx="17"/>
  <g
    fill="#fff"
    fill-rule="evenodd"
    width="56" height="56"
    transform="translate(8.750000, 7.000000)"
  >
    <path d="M10.053 54.551H2.16C.967 54.551 0 53.585 0 52.391V31.065c0-1.193.967-2.16 2.16-2.16h7.893c1.193 0 2.16.967 2.16 2.16v21.328c0 1.193-.967 2.16-2.16 2.16"/>
    <path d="M13.841 30.94v21.983s6.514.407 11.4 2.036c4.884 1.628 14.248 1.22 18.726-.408s5.7-2.85 5.292-4.478c-.407-1.628-.407-2.85.407-3.664.814-.814 1.629-2.035 1.629-3.256 0-1.222-.815-2.85-.815-3.257 0-.407 2.443-2.443 2.443-4.071 0-1.629-1.628-3.257-1.628-4.071 0-.814 1.628-2.85 1.628-4.885 0-2.036-2.866-4.278-4.071-4.478-2.443-.408-7.723-.575-12.213-.815-4.146-.221-4.071-2.035-2.036-4.885 0 0 3.257-4.478 3.257-7.328 0-2.85-.814-9.363-4.885-9.363-2.443 0-2.443 5.292-2.85 7.735-.407 2.443-2.035 4.885-3.664 6.106-1.628 1.222-5.292 4.479-5.699 7.735-.407 3.257-4.071 8.957-6.92 9.364"/>
  </g>
</svg>
