<svg xmlns="http://www.w3.org/2000/svg" width="20" height="20" viewBox="0 0 20 20">
  <g fill="none" fill-rule="evenodd">
    <rect width="20" height="20" fill="#86868B" rx="5"/>
    <g fill="#FFF" fill-rule="nonzero">
      <path
        d="M11.325 3.058h-.68C10.371 1.291 8.872 0 7.034 0c-1.84 0-3.339 1.36-3.611 3.058h-.681c-.75 0-1.43.612-1.43 1.427v8.088c0 .747.613 1.427 1.43 1.427h8.514c.75 0 1.43-.612 1.43-1.427V4.417c0-.747-.613-1.359-1.362-1.359zM7.035.748c1.361 0 2.52 1.019 2.792 2.31H4.24C4.514 1.7 5.671.748 7.034.748z"
        transform="translate(3.000000, 3.000000)"
      />
    </g>
  </g>
</svg>
