<svg xmlns="http://www.w3.org/2000/svg" width="20" height="20" viewBox="0 0 20 20">
  <g fill="none" fill-rule="evenodd">
    <rect width="20" height="20" fill="#86868B" rx="5"/>
    <g fill="#FFF">
      <path
        d="M9.01 12.92c.54-.645.982-1.548 1.28-2.624 1.083-.3 1.99-.744 2.637-1.29-.625 1.835-2.081 3.29-3.918 3.914M1.073 9.006c.646.546 1.554.99 2.637 1.29.298 1.076.74 1.979 1.28 2.624-1.836-.624-3.292-2.079-3.917-3.914m3.948-7.944c-.555.647-1.008 1.563-1.311 2.658-1.09.302-2.002.75-2.648 1.3.621-1.861 2.096-3.336 3.96-3.958m7.916 3.958c-.646-.55-1.558-.998-2.648-1.3-.303-1.095-.756-2.011-1.311-2.658 1.863.622 3.338 2.097 3.96 3.958m-2.452-.46c1.657.54 2.767 1.446 2.767 2.448 0 1.003-1.11 1.908-2.767 2.448.146-.758.225-1.582.225-2.448 0-.865-.08-1.689-.225-2.448M7 .758c1.003 0 1.909 1.11 2.45 2.766-.76-.146-1.584-.226-2.45-.226-.866 0-1.69.08-2.45.226C5.091 1.868 5.997.758 7 .758M3.513 9.456C1.856 8.916.745 8.011.745 7.008c0-1.002 1.111-1.907 2.768-2.448-.146.759-.225 1.583-.225 2.448 0 .866.08 1.69.225 2.448M7 9.977c-.95 0-1.859-.106-2.675-.296-.19-.815-.296-1.723-.296-2.673s.107-1.857.296-2.673C5.141 4.146 6.05 4.04 7 4.04c.95 0 1.859.107 2.675.296.189.816.296 1.724.296 2.673 0 .95-.107 1.858-.296 2.673-.816.19-1.725.296-2.675.296m.17 3.27c-.056.002-.113.003-.17.003-.057 0-.114 0-.17-.002-.935-.117-1.77-1.194-2.28-2.755.76.146 1.584.225 2.45.225.866 0 1.69-.08 2.45-.225-.51 1.562-1.345 2.638-2.28 2.755M14 6.996C14 3.138 10.86 0 7 0S0 3.138 0 6.996c0 3.781 3.018 6.871 6.773 6.991.075.008.15.013.227.013.076 0 .152-.005.227-.013 3.755-.12 6.773-3.21 6.773-6.991"
        transform="translate(3.000000, 3.000000)"
      />
    </g>
  </g>
</svg>
