<svg xmlns="http://www.w3.org/2000/svg" width="20" height="20" viewBox="0 0 20 20">
  <g fill="none" fill-rule="evenodd">
    <rect width="20" height="20"/>
    <path
      fill="#FFF"
      fill-rule="nonzero"
      d="M17.97 5.429c-.552.24-1.143.402-1.765.477.634-.376 1.121-.968 1.352-1.675-.594.341-1.253.59-1.954.728-.56-.59-1.358-.959-2.245-.959-1.698 0-3.075 1.355-3.075 3.025 0 .24.029.47.08.691C7.807 7.597 5.54 6.39 4.025 4.563c-.267.444-.416.96-.416 1.522 0 1.052.543 1.977 1.367 2.52-.504-.016-.979-.152-1.392-.379v.038c0 1.467 1.058 2.69 2.466 2.97-.258.067-.53.104-.81.104-.196 0-.384-.018-.573-.053.395 1.202 1.528 2.078 2.878 2.102-1.05.812-2.38 1.295-3.814 1.295-.244 0-.487-.014-.731-.04C4.368 15.498 5.98 16 7.723 16c5.658 0 8.749-4.611 8.749-8.604 0-.128 0-.258-.01-.387.601-.424 1.126-.96 1.538-1.568l-.03-.012z"
    />
  </g>
</svg>
