<svg width="20px" height="20px" viewBox="0 0 20 20" version="1.1" xmlns="http://www.w3.org/2000/svg" xmlns:xlink="http://www.w3.org/1999/xlink">
	<g stroke="none" stroke-width="1" fill="none" fill-rule="evenodd">
		<rect id="bg-icon" fill="#86868B" x="0" y="0" width="20" height="20" rx="4"></rect>
		<g id="Group" transform="translate(4.000000, 4.000000)" fill="#FFFFFF" fill-rule="nonzero">
			<g id="Icon">
				<path d="M6,3.97700719e-16 C8.89676471,1.10720344e-15 11.25,2.286 11.25,5.1 C11.25,7.8 9.31058824,10.596 6.30882353,12 L6.30882353,12 L6.30882353,10.2 L6,10.2 C3.10323529,10.2 0.75,7.914 0.75,5.1 C0.75,2.286 3.10323529,-3.11802006e-16 6,3.97700719e-16 Z M7.88289474,6 L4.11710526,6 C3.78355434,6 3.51315789,6.27039645 3.51315789,6.60394737 C3.51315789,6.93749829 3.78355434,7.20789474 4.11710526,7.20789474 L4.11710526,7.20789474 L7.88289474,7.20789474 C8.21644566,7.20789474 8.48684211,6.93749829 8.48684211,6.60394737 C8.48684211,6.27039645 8.21644566,6 7.88289474,6 L7.88289474,6 Z M7.88289474,3.58421053 L4.11710526,3.58421053 C3.78355434,3.58421053 3.51315789,3.85460697 3.51315789,4.18815789 C3.51315789,4.52170882 3.78355434,4.79210526 4.11710526,4.79210526 L4.11710526,4.79210526 L7.88289474,4.79210526 C8.21644566,4.79210526 8.48684211,4.52170882 8.48684211,4.18815789 C8.48684211,3.85460697 8.21644566,3.58421053 7.88289474,3.58421053 L7.88289474,3.58421053 Z" id="bubble"></path>
			</g>
		</g>
	</g>
</svg>
