<svg xmlns="http://www.w3.org/2000/svg" width="16" height="16" viewBox="0 0 16 16">
    <g fill="none" fill-rule="evenodd">
        <g>
            <g transform="translate(-32 -426) translate(32 426)">
                <rect width="16" height="16" fill="#86868B" rx="4"/>
                <g fill="#FFF" fill-rule="nonzero">
                    <path d="M10.313 0c.698 0 1.267.55 1.32 1.247l.003.1v5.06c0 .711-.54 1.298-1.229 1.347l-.094.004-.293-.001v-.646h.293c.347 0 .636-.273.673-.628l.004-.077V1.35c-.002-.365-.267-.66-.604-.698l-.073-.005H3.91c-.348 0-.637.274-.674.628l-.004.077v.265h-.646v-.265c0-.712.54-1.298 1.229-1.348L3.91 0h6.403z" transform="translate(2.182 2.91)"/>
                    <path d="M9.02 1.293c.698 0 1.267.55 1.32 1.247l.003.1V7.7c0 .711-.54 1.297-1.228 1.347l-.095.004-.293-.001v-.646h.293c.347 0 .636-.273.673-.628l.004-.077V2.642c-.001-.365-.267-.66-.604-.699L9.02 1.94H2.617c-.348 0-.637.274-.674.628l-.004.077v.265h-.646v-.265c0-.712.54-1.298 1.229-1.348l.095-.003H9.02z" transform="translate(2.182 2.91)"/>
                    <path d="M7.727 2.586c.698 0 1.267.55 1.32 1.247l.004.1v5.059c0 .712-.54 1.298-1.23 1.348l-.094.003H1.324c-.701 0-1.272-.555-1.32-1.255L0 8.992V3.937C0 3.225.54 2.64 1.229 2.59l.095-.003h6.403zm0 .646H1.324c-.348 0-.637.274-.674.628l-.004.077v5.055c0 .365.266.663.604.7l.074.005h6.403c.347 0 .636-.273.673-.628l.004-.077V3.934c-.001-.364-.267-.66-.604-.698l-.073-.004z" transform="translate(2.182 2.91)"/>
                </g>
            </g>
        </g>
    </g>
</svg>
