<svg xmlns="http://www.w3.org/2000/svg" width="16" height="16" viewBox="0 0 16 16">
  <path
    fill="#FFF"
    d="M8 .076C3.624.076.076 3.624.076 8S3.624 15.924 8 15.924 15.924 12.376 15.924 8c0-2.102-.835-4.117-2.32-5.603C12.116.91 10.101.076 8 .076zm.664 12.268H7.332v-6.28h1.332v6.28zm-.112-7.408c-.147.139-.346.21-.548.196-.204.014-.406-.057-.556-.196-.137-.144-.208-.338-.196-.536-.014-.202.057-.4.196-.548.15-.138.349-.209.552-.196.203-.021.406.05.55.194.146.144.218.346.198.55.012.198-.059.392-.196.536z"
  />
</svg>
