<svg xmlns="http://www.w3.org/2000/svg" width="19" height="16" viewBox="0 0 19 16">
  <g fill="none">
    <path
      fill="#FFF"
      d="M15.71 0c1.215 0 2.206.958 2.298 2.172l.007.175v8.81c0 1.24-.941 2.262-2.14 2.348l-.166.006H4.557c-1.22 0-2.215-.967-2.3-2.186l-.005-.168V2.354c0-1.24.941-2.262 2.14-2.348L4.557 0H15.71zm0 1.126H4.556c-.604 0-1.108.476-1.172 1.093l-.007.135v8.803c0 .636.463 1.155 1.051 1.221l.128.007H15.71c.605 0 1.109-.476 1.173-1.093l.007-.135V2.35c-.003-.635-.465-1.15-1.052-1.216l-.128-.007z"
    />
    <path
      fill="#FFF"
      d="M13.457 2.252c1.216 0 2.207.958 2.299 2.171l.007.175v8.811c0 1.24-.941 2.262-2.14 2.348l-.166.006H2.305c-1.22 0-2.215-.967-2.3-2.186L0 13.409V4.606c0-1.24.941-2.262 2.14-2.348l.165-.006h11.152z"
    />
    <path
      fill="#141414"
      d="M11.086 7L11.805 7.694 7.903 11.741 4 7.694 4.72 7 7.902 10.3z"
      transform="matrix(0 1 1 0 -1.468 1.468)"
    />
  </g>
</svg>
