<svg width="24" height="24" viewBox="0 0 24 24" fill="none" xmlns="http://www.w3.org/2000/svg">
  <path
    d="M4.89592 6.41521H19.089C19.4732 6.41521 19.7821 6.09881 19.7821 5.72213C19.7821 5.33039 19.4732 5.02905 19.089 5.02905H4.89592C4.51171 5.02905 4.21037 5.33793 4.21037 5.72213C4.21037 6.09881 4.51171 6.41521 4.89592 6.41521ZM4.89592 10.3628H19.089C19.4732 10.3628 19.7821 10.0464 19.7821 9.66968C19.7821 9.27794 19.4732 8.9766 19.089 8.9766H4.89592C4.51171 8.9766 4.21037 9.28547 4.21037 9.66968C4.21037 10.0464 4.51171 10.3628 4.89592 10.3628ZM4.89592 14.3103H19.089C19.4732 14.3103 19.7821 13.9939 19.7821 13.6172C19.7821 13.233 19.4732 12.9241 19.089 12.9241H4.89592C4.51171 12.9241 4.21037 13.233 4.21037 13.6172C4.21037 13.9939 4.51171 14.3103 4.89592 14.3103ZM4.89592 18.2578H19.089C19.4732 18.2578 19.7821 17.9414 19.7821 17.5648C19.7821 17.1806 19.4732 16.8717 19.089 16.8717H4.89592C4.51171 16.8717 4.21037 17.1806 4.21037 17.5648C4.21037 17.9414 4.51171 18.2578 4.89592 18.2578Z"
    fill="currentColor" />
</svg>
