<svg width="24" height="24" viewBox="0 0 24 24" fill="none" xmlns="http://www.w3.org/2000/svg">
  <path
    d="M13.1451 20.1262C13.7327 20.1262 14.1395 19.6516 14.4182 18.9283L19.3903 5.92555C19.5184 5.58655 19.5937 5.29274 19.5937 5.0366C19.5937 4.50173 19.2547 4.16272 18.7123 4.16272C18.4637 4.16272 18.1624 4.23052 17.8309 4.35859L4.76785 9.36082C4.11997 9.60943 3.63029 10.0162 3.63029 10.6038C3.63029 11.3271 4.16517 11.5983 4.90345 11.8167L10.3426 13.4138L11.9247 18.7927C12.1507 19.5612 12.4219 20.1262 13.1451 20.1262ZM10.7796 12.0277L6.10128 10.5963C5.98827 10.5662 5.95814 10.5285 5.95814 10.4833C5.95814 10.4306 5.98827 10.3854 6.08621 10.3552L15.0285 6.93504C15.6688 6.68644 16.2941 6.3851 16.9796 6.06869C16.4372 6.50563 15.7743 7.04051 15.3223 7.49252L10.7796 12.0277ZM13.2807 17.8059C13.228 17.8059 13.1903 17.7607 13.1601 17.6552L11.7288 12.9769L16.2639 8.4342C16.7009 7.98973 17.2584 7.30418 17.6953 6.75424C17.3789 7.44732 17.07 8.08013 16.8214 8.72801L13.4012 17.6703C13.3636 17.7682 13.3334 17.8059 13.2807 17.8059Z"
    fill="currentColor" />
</svg>
