<svg viewBox="0 0 32 32" width="32" xmlns="http://www.w3.org/2000/svg">
    <path class="path1" fill="currentColor" d="M27.748,23.16c0,0-2.164-3.221-2.164-7.36v-4.6c0-5.06-4.328-9.2-9.62-9.2 c-5.291,0-9.62,4.14-9.62,9.2v4.6c0,4.14-2.165,7.36-2.165,7.36c-0.24,0.345-0.24,0.805,0,1.15C4.301,24.77,4.661,25,5.143,25 h21.645c0.48,0,0.842-0.23,1.082-0.575C28.109,23.965,27.989,23.62,27.748,23.16z"></path>
    <path class="path2" fill="currentColor" d="M12,27c0.824,1.8,2.353,3,4,3c1.646,0,3.176-1.2,4-3H12z"></path>
</svg>