<svg width="24" height="24" viewBox="0 0 24 24" fill="none" xmlns="http://www.w3.org/2000/svg">
  <path
    d="M10.7419 16.3141C11.9397 16.3141 13.0622 15.9525 13.9964 15.3348L17.296 18.642C17.5145 18.8529 17.7933 18.9584 18.0946 18.9584C18.7199 18.9584 19.1794 18.4687 19.1794 17.851C19.1794 17.5647 19.0815 17.2859 18.8705 17.075L15.5935 13.7829C16.2715 12.8186 16.6708 11.6509 16.6708 10.3853C16.6708 7.12327 14.0039 4.45642 10.7419 4.45642C7.48745 4.45642 4.81306 7.12327 4.81306 10.3853C4.81306 13.6473 7.47992 16.3141 10.7419 16.3141ZM10.7419 14.7321C8.3538 14.7321 6.3951 12.7734 6.3951 10.3853C6.3951 7.99716 8.3538 6.03845 10.7419 6.03845C13.13 6.03845 15.0887 7.99716 15.0887 10.3853C15.0887 12.7734 13.13 14.7321 10.7419 14.7321Z"
    fill="currentColor" />
</svg>
