<svg xmlns="http://www.w3.org/2000/svg" xmlns:xlink="http://www.w3.org/1999/xlink" width="323" height="183" viewBox="0 0 323 183">
    <defs>
        <path id="gz3xfcab2a" d="M12 0h299c6.627 0 12 5.373 12 12v171H0V12C0 5.373 5.373 0 12 0z"/>
    </defs>
    <g fill="none" fill-rule="evenodd">
        <mask id="yd4xfbop7b" fill="#fff">
            <use xlink:href="#gz3xfcab2a"/>
        </mask>
        <path fill="#FFF" fill-rule="nonzero" d="M117 144.258s0-11.222 5.367-16.1c5.366-4.88 9.27-5.367 13.66-7.319 4.391-1.951 10.246-.975 12.685-3.903 2.44-2.927 1.952-10.245 1.952-10.245s-2.928-1.952-2.928-5.855c-.488-3.415-.975-6.342-1.463-6.83-.488-.488-1.952-1.464-1.952-2.927 0-1.464-1.463-4.879-1.463-5.855 0-.976-.488-2.927 0-3.903.487-.488 1.463-.488 1.463-.488-.488-1.463-.976-5.366-1.463-7.806 0-2.44-.488-5.366 0-6.83.487-1.952 1.463-4.879 2.439-5.855.976.488 2.44 0 2.44 0l2.927-2.927c.975-.976 4.39-1.951 5.854-1.951 1.464 0 2.927-1.464 5.855-1.464 2.44 0 5.366.976 7.318 1.952 1.951.975 3.903 1.463 5.854 1.951 1.464.976 2.44 2.44 3.416 3.415 0 .976.975 1.952 1.463 3.903.488 1.952.488 5.855 0 9.27-.488 3.415-1.463 7.318-1.463 7.318l.975-.488s.976 1.464.976 3.415c-.488 1.952-1.464 5.367-1.464 5.855 0 .488 0 2.44-.975 2.927-.488.488-1.464.488-1.952 1.464s-.976 6.83-1.463 7.806c-.488.976-1.464 2.927-2.928 4.39 0 2.44 0 9.27 2.44 10.734 2.44 1.464 5.854 1.952 10.733 2.44 4.879.975 8.294 2.927 9.27 3.415.975.488 5.366 2.44 7.318 5.854 1.951 3.415 3.415 4.879 3.415 14.149-5.854.488-88.306.488-88.306.488z" mask="url(#yd4xfbop7b)" opacity=".1"/>
    </g>
</svg>
