<svg xmlns="http://www.w3.org/2000/svg" width="28" height="27" viewBox="0 0 28 27">
    <g fill="none" fill-rule="evenodd">
        <g fill="#FFF">
            <path d="M572 240.869l-6.643 2.879c-.901.39-1.948-.024-2.338-.925-.12-.275-.167-.576-.139-.875l.685-7.207-4.79-5.429c-.65-.736-.58-1.86.156-2.51.225-.198.497-.336.79-.401l7.066-1.576 3.682-6.234c.5-.845 1.59-1.126 2.435-.626.259.152.474.368.627.626l3.682 6.234 7.067 1.576c.958.213 1.562 1.163 1.348 2.122-.065.293-.204.564-.402.79l-4.791 5.428.685 7.207c.093.978-.624 1.845-1.602 1.938-.298.029-.6-.019-.875-.138L572 240.869z" transform="translate(-558.000000, -217.000000)"/>
        </g>
    </g>
</svg>
