<svg xmlns="http://www.w3.org/2000/svg" width="28" height="28" viewBox="0 0 28 28">
    <g fill="none" fill-rule="evenodd">
        <g fill="#FFF" fill-rule="nonzero">
            <g>
                <path d="M27.547 26.067l-6.498-6.498c4.096-4.888 3.617-12.134-1.086-16.441C15.26-1.18 7.999-1.02 3.49 3.49-1.02 8-1.179 15.26 3.128 19.963c4.307 4.703 11.553 5.182 16.44 1.086l6.484 6.483c.241.356.672.532 1.092.447.421-.085.75-.414.835-.835.085-.42-.091-.851-.447-1.092l.015.015zm-15.69-4.322c-5.355 0-9.696-4.341-9.696-9.696 0-5.354 4.341-9.695 9.696-9.695 5.354 0 9.695 4.34 9.695 9.695-.008 5.352-4.344 9.688-9.695 9.696z" transform="translate(-786.000000, -218.000000) translate(786.000000, 218.000000)"/>
            </g>
        </g>
    </g>
</svg>
