<svg xmlns="http://www.w3.org/2000/svg" width="16" height="16" viewBox="0 0 16 16">
  <g fill="none" fill-rule="evenodd">
    <rect width="16" height="16" fill="#86868B" rx="4"/>
    <g fill-rule="nonzero" transform="translate(2.182 2.91)">
      <path fill="#9D9DA1" d="M10.3126503,0 C11.0105093,0 11.5795714,0.550021406 11.6323742,1.24683168 L11.6363636,1.34733103 L11.6363636,6.40613188 C11.6363636,7.11817452 11.0960197,7.70453036 10.4074308,7.75417181 L10.3126503,7.75757576 L3.90957191,7.75757576 C3.20845148,7.75757576 2.63749481,7.20212216 2.58917177,6.50240363 L2.58585859,6.40613188 L2.58585859,1.35144388 C2.58585859,0.639321882 3.12627795,0.0530384928 3.81480122,0.00340349487 L3.90957191,0 L10.3126503,0 Z"/>
      <path fill="#C6C6C7" d="M9.01972102,1.29292929 C9.71757998,1.29292929 10.2866422,1.8429507 10.3394449,2.53976098 L10.3434343,2.64026032 L10.3434343,7.69906117 C10.3434343,8.41110381 9.80309043,8.99745966 9.11450155,9.04710111 L9.01972102,9.05050505 L2.61664262,9.05050505 C1.91552219,9.05050505 1.34456551,8.49505145 1.29624247,7.79533292 L1.29292929,7.69906117 L1.29292929,2.64437317 C1.29292929,1.93225118 1.83334866,1.34596779 2.52187192,1.29633279 L2.61664262,1.29292929 L9.01972102,1.29292929 Z"/>
      <path fill="#FFF" d="M7.72679173,2.58585859 C8.42465068,2.58585859 8.99371286,3.13587999 9.04651561,3.83269027 L9.05050505,3.93318962 L9.05050505,8.99199047 C9.05050505,9.7040331 8.51016113,10.2903889 7.82157226,10.3400304 L7.72679173,10.3434343 L1.32371332,10.3434343 C0.622592899,10.3434343 0.0516362193,9.78798075 0.00331318183,9.08826222 L0,8.99199047 L0,3.93730246 C0,3.22518047 0.540419363,2.63889708 1.22894263,2.58926208 L1.32371332,2.58585859 L7.72679173,2.58585859 Z"/>
    </g>
  </g>
</svg>
