<svg xmlns="http://www.w3.org/2000/svg" width="22" height="22" viewBox="0 0 22 22">
    <g fill="none" fill-rule="evenodd">
        <rect width="22" height="22" fill="#86868B" rx="5.5"/>
        <g fill-rule="nonzero" transform="translate(3 3)">
            <circle cx="8" cy="8" r="7.75" stroke="#FFF" stroke-width=".5"/>
            <path fill="#FFF" d="M8 0c4.418 0 8 3.582 8 8 0 1.995-.73 3.819-1.937 5.22-.3-.235-.62-.377-.72-.425-.156-.076-.702-.382-1.482-.534-.78-.077-1.326-.153-1.716-.382-.39-.229-.39-1.297-.39-1.679.234-.229.39-.534.468-.686.078-.153.156-1.069.234-1.221.078-.153.234-.153.312-.23.156-.076.156-.381.156-.457 0-.077.156-.61.234-.916 0-.305-.156-.534-.156-.534l-.156.076s.156-.61.234-1.145c.078-.534.078-1.144 0-1.45-.078-.305-.234-.457-.234-.61-.156-.153-.312-.382-.546-.534-.312-.076-.624-.153-.936-.305-.312-.153-.78-.306-1.17-.306-.468 0-.702.23-.936.23-.234 0-.78.152-.936.305l-.468.457s-.234.077-.39 0c-.156.153-.312.61-.39.916-.078.23 0 .687 0 1.069.078.381.156.992.234 1.22 0 0-.156 0-.234.077-.078.152 0 .458 0 .61 0 .153.234.687.234.916 0 .229.234.382.312.458.078.076.156.534.234 1.068 0 .61.468.916.468.916s.078 1.145-.312 1.603c-.39.457-1.326.305-2.028.61-.643.28-1.22.367-1.971.966C.76 11.893 0 10.035 0 8c0-4.418 3.582-8 8-8z"/>
        </g>
    </g>
</svg>
