<svg xmlns="http://www.w3.org/2000/svg" width="22" height="22" viewBox="0 0 22 22">
    <g fill="none" fill-rule="evenodd">
        <rect width="22" height="22" fill="#86868B" rx="5.5"/>
        <path fill="#FFF" d="M7.536 9.453c.294.881 1.373 4.014 5.1 4.992.588-.782 1.048-1.228 2.55-.978 1.765.294 3.139.88 2.747 2.349-.296 1.107-.785 1.272-1.57 1.958-.467.407-2.354.196-3.433-.099-1.079-.293-4.61-1.467-6.866-4.698-2.255-3.23-2.06-5.97-2.06-6.656 0-.685.687-1.175.883-1.37.197-.196.7-1.225 1.962-.881 1.08.294 1.471 1.566 1.57 1.958.097.39.294.978.294 1.37 0 .391 0 .979-.393 1.37-.392.392-.784.685-.784.685"/>
    </g>
</svg>
