<svg xmlns="http://www.w3.org/2000/svg" width="16" height="16" viewBox="0 0 16 16">
    <g fill="none" fill-rule="evenodd">
        <rect width="16" height="16" fill="#86868B" rx="4"/>
        <g fill="#FFF" transform="translate(3 3.313)">
            <path fill-opacity=".6" d="M1.84971098,3.06815029 C1.84971098,2.1717341 2.57635838,1.44508671 3.47277457,1.44508671 L7.15034682,1.44508671 L7.15034682,0.932312139 C7.15034682,0.417398844 6.73289017,3.49720253e-14 6.21803468,3.49720253e-14 L0.932312139,3.49720253e-14 C0.417398844,3.49720253e-14 -1.34892097e-13,0.417398844 -1.34892097e-13,0.932312139 L-1.34892097e-13,4.56797688 C-1.34892097e-13,5.08283237 0.417398844,5.50023121 0.932312139,5.50023121 L1.2100578,5.50023121 L1.2100578,6.63196532 C1.2100578,6.78433526 1.38867052,6.86676301 1.50462428,6.76786127 L1.84971098,6.4733526 L1.84971098,3.06815029 Z"/>
            <path d="M8.15028902,5.26010983 C7.95878613,5.26010983 7.80346821,5.10479191 7.80346821,4.91328902 C7.80346821,4.72178613 7.95878613,4.56646821 8.15028902,4.56646821 C8.34179191,4.56646821 8.49710983,4.72178613 8.49710983,4.91328902 C8.49710983,5.10479191 8.34179191,5.26010983 8.15028902,5.26010983 M6.24277457,5.26010983 C6.05127168,5.26010983 5.89595376,5.10479191 5.89595376,4.91328902 C5.89595376,4.72178613 6.05127168,4.56646821 6.24277457,4.56646821 C6.43427746,4.56646821 6.58959538,4.72178613 6.58959538,4.91328902 C6.58959538,5.10479191 6.43427746,5.26010983 6.24277457,5.26010983 M4.33526012,5.26010983 C4.14375723,5.26010983 3.98843931,5.10479191 3.98843931,4.91328902 C3.98843931,4.72178613 4.14375723,4.56646821 4.33526012,4.56646821 C4.52676301,4.56646821 4.68208092,4.72178613 4.68208092,4.91328902 C4.68208092,5.10479191 4.52676301,5.26010983 4.33526012,5.26010983 M9.02023121,2.08091908 L3.46531792,2.08091908 C2.92421965,2.08091908 2.48554913,2.5195896 2.48554913,3.06068786 L2.48554913,6.88149711 C2.48554913,7.42259538 2.92421965,7.8612659 3.46531792,7.8612659 L6.85751445,7.8612659 L8.41878613,9.19340462 C8.54063584,9.29733526 8.7283237,9.21080347 8.7283237,9.05057225 L8.7283237,7.8612659 L9.02023121,7.8612659 C9.56132948,7.8612659 10,7.42259538 10,6.88149711 L10,3.06068786 C10,2.5195896 9.56132948,2.08091908 9.02023121,2.08091908"/>
        </g>
    </g>
</svg>
