<svg xmlns="http://www.w3.org/2000/svg" width="22" height="22" viewBox="0 0 22 22">
    <g fill="none" fill-rule="evenodd">
        <g>
            <g transform="translate(-24 -270) translate(24 270)">
                <rect width="22" height="22" fill="#86868B" rx="5.5"/>
                <g fill="#FFF" fill-rule="nonzero">
                    <path d="M.887 5.362c.239-.135.532-.132.769.006l4.876 2.858c.545.319.878.9.875 1.527v5.491c0 .27-.146.52-.383.654-.236.135-.527.136-.763.001l-4.87-2.782C.84 12.802.5 12.218.5 11.587V6.02c0-.272.148-.523.387-.658zm13.457.016c.237-.14.53-.142.77-.007.238.135.386.386.386.659v5.557c0 .63-.34 1.213-.892 1.528l-4.87 2.784c-.237.134-.527.133-.763-.002-.235-.135-.381-.383-.382-.653V9.763c0-.624.332-1.2.873-1.519zM7.117.236c.551-.315 1.23-.315 1.781 0l4.883 2.802c.234.136.377.385.377.653 0 .27-.143.518-.377.654L8.917 7.202c-.56.33-1.258.33-1.819 0L2.236 4.34c-.234-.136-.377-.384-.377-.653s.143-.518.377-.654z" transform="translate(3 3)"/>
                </g>
            </g>
        </g>
    </g>
</svg>
