<svg xmlns="http://www.w3.org/2000/svg" width="16" height="16" viewBox="0 0 16 16">
  <g fill="none" fill-rule="evenodd">
    <rect width="16" height="16" fill="#86868B" rx="4"/>
    <path fill="#FFF" d="M1.7878733 9.70135747L.384 9.70135747C.171945701 9.70135747 2.29395466e-14 9.52941176 2.29395466e-14 9.31728507L2.29395466e-14 5.52434389C2.29395466e-14 5.31221719.171945701 5.14027149.384 5.14027149L1.7878733 5.14027149C2 5.14027149 2.1719457 5.31221719 2.1719457 5.52434389L2.1719457 9.31728507C2.1719457 9.52941176 2 9.70135747 1.7878733 9.70135747M2.46151674 5.50226244L2.46151674 9.41176471C2.46151674 9.41176471 3.61988778 9.4841629 4.48866606 9.77375566 5.35744434 10.0633484 7.02260271 9.99095023 7.81898281 9.70135747 8.6153629 9.41176471 8.83255747 9.19457014 8.76015928 8.90497738 8.68776109 8.61538462 8.68776109 8.39819005 8.83255747 8.25339367 8.97735385 8.10859729 9.12215023 7.89140271 9.12215023 7.67420814 9.12215023 7.45701357 8.97735385 7.16742081 8.97735385 7.09502262 8.97735385 7.02262443 9.41174299 6.66063348 9.41174299 6.37104072 9.41174299 6.08144796 9.12215023 5.7918552 9.12215023 5.64705882 9.12215023 5.50226244 9.41174299 5.14027149 9.41174299 4.77828054 9.41174299 4.41628959 8.90198733 4.01759276 8.68776109 3.98190045 8.25337195 3.90950226 7.31429502 3.87974661 6.51581538 3.83710407 5.77851222 3.79771946 5.79183348 3.47511312 6.15382443 2.96832579 6.15382443 2.96832579 6.73300995 2.1719457 6.73300995 1.66515837 6.73300995 1.15837104 6.58821357-7.77611749e-16 5.86423167-7.77611749e-16 5.42984253-7.77611749e-16 5.42984253.941176471 5.35744434 1.37556561 5.28504615 1.80995475 4.99545339 2.24434389 4.70586063 2.46153846 4.41626787 2.67873303 3.76468416 3.25791855 3.69228597 3.83710407 3.61988778 4.41628959 2.96830407 5.42986425 2.46151674 5.50226244" transform="translate(3.313 3)"/>
  </g>
</svg>
