<svg xmlns="http://www.w3.org/2000/svg" width="24" height="24" viewBox="0 0 24 24">
    <g fill="none" fill-rule="evenodd">
        <g fill-rule="nonzero">
            <g>
                <g>
                    <g transform="translate(-1322 -60) translate(286 56) translate(980 4) translate(56)">
                        <circle cx="12" cy="12" r="12" fill="#585858"/>
                        <path fill="#FFF" d="M6.667 10.667C7.403 10.667 8 11.264 8 12s-.597 1.333-1.333 1.333c-.737 0-1.334-.597-1.334-1.333s.597-1.333 1.334-1.333zm5.333 0c.736 0 1.333.597 1.333 1.333s-.597 1.333-1.333 1.333-1.333-.597-1.333-1.333.597-1.333 1.333-1.333zm5.333 0c.737 0 1.334.597 1.334 1.333s-.597 1.333-1.334 1.333C16.597 13.333 16 12.736 16 12s.597-1.333 1.333-1.333z"/>
                    </g>
                </g>
            </g>
        </g>
    </g>
</svg>
