<svg xmlns="http://www.w3.org/2000/svg" viewBox="0 0 20 20">
  <rect width="20" height="20" fill="#86868B" rx="5"/>
  <path
    fill="currentColor"
    d="M3.868 8.355c.175-.175.459-.175.634 0s.175.459 0 .634l-2.973 2.973h1.91c.247 0 .447.2.447.447 0 .248-.2.448-.448.448H.448c-.247 0-.448-.2-.448-.448V9.42c0-.247.2-.448.448-.448s.448.2.448.448v1.909zm4.488 0c.174-.175.458-.175.633 0l2.973 2.973v-1.91c0-.246.2-.447.447-.447.248 0 .448.2.448.448v2.99c0 .248-.2.448-.448.448H9.42c-.247 0-.448-.2-.448-.448 0-.247.2-.448.448-.448h1.91L8.355 8.99c-.175-.175-.175-.459 0-.634zM3.438 0c.248 0 .448.2.448.448 0 .247-.2.448-.448.448h-1.91l2.885 2.883c.175.175.175.458 0 .633-.088.088-.202.131-.317.131-.114 0-.229-.043-.316-.13L.896 1.528v1.91c0 .246-.201.447-.448.447S0 3.686 0 3.438V.448C0 .2.2 0 .448 0zm8.971 0c.248 0 .448.2.448.448v2.99c0 .247-.2.448-.448.448-.247 0-.447-.2-.447-.448v-1.91L9.078 4.414c-.088.087-.202.13-.317.13-.114 0-.229-.043-.316-.13-.175-.175-.175-.459 0-.634L11.328.896H9.42c-.247 0-.448-.201-.448-.448S9.171 0 9.42 0z"
    transform="translate(3.571 3.571)"/>
</svg>
