<svg xmlns="http://www.w3.org/2000/svg" width="18" height="18" viewBox="0 0 18 18">
  <path fill="#FFF" fill-rule="evenodd" d="M16.6012803,8.15550151 L13.2222103,11.5332389 C11.3571108,13.3994436 8.33159606,13.3994436 6.4664965,11.5332389 C6.17252031,11.2405713 5.94288203,10.9104863 5.7409571,10.5699039 L7.31100739,8.99981921 C7.38556285,8.9245645 7.47775408,8.88154848 7.56579298,8.8306944 C7.67422032,9.20174257 7.86378154,9.55277569 8.15537831,9.84437019 C9.08685501,10.7762129 10.6025983,10.7750932 11.5333285,9.84437019 L14.9111388,6.46644622 C15.8431287,5.53460352 15.8431287,4.0193852 14.9111388,3.08810236 C13.9803619,2.15667956 12.4651785,2.15667956 11.5333285,3.08810236 L10.3319499,4.29059141 C9.35745681,3.9109587 8.30700863,3.80892396 7.28478701,3.95873355 L9.84426011,1.39923369 C11.7104794,-0.46641123 14.735061,-0.46641123 16.6012803,1.39923369 C18.4662399,3.26487861 18.4662399,6.28980994 16.6012803,8.15550151 Z M7.66838838,13.7097935 L6.4664965,14.9122825 C5.53520642,15.8430055 4.01941646,15.8430055 3.08812637,14.9122825 C2.15669633,13.9804398 2.15669633,12.4652682 3.08812637,11.5332389 L6.4664965,8.15550151 C7.39848642,7.22347219 8.91297003,7.22347219 9.84444673,8.15550151 C10.135297,8.44653615 10.3248582,8.79752261 10.4345453,9.16787095 C10.5233307,9.11664363 10.6142622,9.07456071 10.6888177,9.00000583 L12.2588679,7.43052761 C12.0582027,7.08877886 11.8273047,6.75986027 11.5333285,6.46658619 C9.66822898,4.60094127 6.64271426,4.60094127 4.77705483,6.46658619 L1.39924457,9.84437019 C-0.466414857,11.710575 -0.466414857,14.7349464 1.39924457,16.6011512 C3.26476403,18.4662829 6.28985885,18.4662829 8.15556493,16.6011512 L10.7157845,14.0409515 C9.69281642,14.1915076 8.64232158,14.0888663 7.66838838,13.7097935 Z"/>
</svg>
