<svg viewBox="0 0 32 32" preserveAspectRatio="xMidYMin slice" width="100%">
  <path class="path1" fill="currentColor"
      d="M 16.4375,8.9375 A 0.50004997,0.50004997 0 0 0 16,9.46875 l 0,9.0625 a 0.50004997,0.50004997 0 1 0 1,0 l 0,-9.0625 A 0.50004997,0.50004997 0 0 0 16.4375,8.9375 z M 16.40625,21.96875 A 0.50004997,0.50004997 0 0 0 16,22.46875 l 0,2.0625 a 0.50004997,0.50004997 0 1 0 1,0 l 0,-2.0625 a 0.50004997,0.50004997 0 0 0 -0.59375,-0.5 z M 16.28125,1 C 10.23711,1.0028226 4.1883239,4.9571917 1.9375,11.15625 c -0.0032,0.0088 0.00318,0.02244 0,0.03125 -1.91467831,5.068533 -0.8160106,11.147407 2.59375,15.15625 0.00954,0.01171 0.021685,0.01957 0.03125,0.03125 4.6836257,5.718966 12.894649,7.217219 19.15625,3.84375 C 28.534615,27.766142 32.065946,22.367976 32,16.5 32.002158,14.550956 31.646085,12.603899 30.9375,10.8125 28.539406,4.6501384 22.380054,0.84857293 16.3125,1 16.3022,1.0002571 16.29155,0.99972006 16.28125,1 z M 16.3125,2 C 21.952225,1.8467454 27.757446,5.424829 30,11.1875 c 0.661163,1.671507 1.002018,3.490658 1,5.3125 0.06132,5.456566 -3.290247,10.572502 -7.75,12.84375 C 17.406626,32.491897 9.6810461,31.085699 5.3125,25.71875 2.1415731,22.005468 1.0831027,16.243228 2.875,11.53125 A 0.50005,0.50005 0 0 0 2.875,11.5 C 4.9724416,5.6896825 10.688037,1.9901682 16.3125,2 z"></path>
</svg>
