<svg xmlns="http://www.w3.org/2000/svg" width="20" height="20" viewBox="0 0 20 20">
  <g fill="currentColor" fill-rule="evenodd">
    <path d="M5.52356355,16.8277987 L5.82597449,17.0062491 C7.09653698,17.756794 8.55316289,18.1538624 10.0386276,18.1545867 L10.0418687,18.1545867 C14.6037628,18.1545867 18.3166971,14.4591507 18.3186157,9.91729388 C18.3192767,7.71616523 17.459337,5.64653668 15.8966159,4.08960708 C14.3337625,2.53274333 12.255911,1.674799 10.0449775,1.67394296 C5.47951156,1.67394296 1.76670957,5.36885219 1.76492293,9.9105773 C1.76426223,11.4669143 2.20167333,12.9826883 3.03026078,14.2942652 L3.22730412,14.6058619 L2.39091167,17.6454436 L5.52356355,16.8277987 Z M0,20 L1.41277236,14.8645819 C0.541389659,13.3616483 0.0830108763,11.6566247 0.0836061734,9.90991881 C0.0858550736,4.44558582 4.55283238,0 10.0418687,0 C12.7056249,0.00118527884 15.2057405,1.03329975 17.0860195,2.90643541 C18.9659678,4.77970276 20.0008588,7.2697102 20,9.91795236 C19.9976839,15.3819561 15.5300451,19.8283321 10.0418687,19.8283321 C10.0414718,19.8283321 10.0421333,19.8283321 10.0418687,19.8283321 L10.0376355,19.8283321 C8.37106811,19.8277395 6.73347188,19.4115749 5.27902872,18.6219158 L0,20 Z"></path>
    <path d="M7.55301081,5.76703344 C7.36661666,5.35449056 7.17036705,5.34625946 6.99310079,5.33901609 C6.84804673,5.3328263 6.68202498,5.33321633 6.5162678,5.33321633 C6.35037834,5.33321633 6.08077488,5.39525098 5.85277609,5.64317181 C5.62471115,5.89102678 4.98179025,6.49025108 4.98179025,7.70891527 C4.98179025,8.92777701 5.87354534,10.1054174 5.99783015,10.2708296 C6.12224725,10.4359785 7.71916485,13.0168573 10.2482516,14.0097259 C12.3500473,14.8349433 12.7778013,14.6707822 13.2340635,14.629495 C13.6902595,14.5882078 14.7061672,14.0304024 14.9134628,13.4519863 C15.1208908,12.8736361 15.1208908,12.3779262 15.0587153,12.2742801 C14.9964737,12.1710292 14.8305181,12.1091313 14.5817501,11.9852696 C14.3328497,11.861408 13.1096464,11.262052 12.8815153,11.1794776 C12.6533842,11.0969031 12.4874948,11.0556159 12.3216053,11.3036026 C12.1557159,11.5513259 11.6791474,12.1091313 11.5339611,12.2742801 C11.3887747,12.4398241 11.2436545,12.4605006 10.9947542,12.3366389 C10.74592,12.2123822 9.94451777,11.9510941 8.99389442,11.1072414 C8.25420467,10.4507286 7.75481653,9.6398662 7.60963018,9.39187952 C7.46450997,9.14415625 7.59408631,9.00995634 7.71890027,8.8864898 C7.8306177,8.77553453 7.96780061,8.59728176 8.09215157,8.45267774 C8.21637023,8.30800788 8.2578426,8.20482277 8.34078733,8.03967392 C8.42373206,7.87419582 8.3822597,7.7295918 8.32001808,7.60573016 C8.2578426,7.48186853 7.7742629,6.256817 7.55301081,5.76703344"></path>
  </g>
</svg>
