<svg xmlns="http://www.w3.org/2000/svg" width="20" height="20" viewBox="0 0 20 20">
  <path fill="currentColor" fill-rule="evenodd" d="M10,0 C15.6333,0 20,4.1264 20,9.700025 C20,15.273625 15.6333,19.400025 10,19.400025 C8.988175,19.400025 8.0174,19.266425 7.1053,19.015625 C7.1041,19.0153 7.1029,19.014975 7.1017,19.01465 L6.99810625,18.9938938 L6.99810625,18.9938938 L6.89325,18.986975 C6.893175,18.986975 6.8931,18.986975 6.893,18.986975 C6.786275,18.987 6.679975,19.008425 6.580475,19.0508 C6.577375,19.052125 6.5743,19.053475 6.5712,19.054825 L4.586325,19.931025 L4.584675,19.93175 C4.478475,19.97835 4.369425,20 4.26315,20 L4.2628,20 C3.8525,20 3.48195,19.678075 3.46395,19.2317 L3.46365,19.223625 L3.409175,17.444825 C3.4025,17.225625 3.3039,17.020825 3.14055,16.874625 C1.1948,15.1346 -1.77635684e-15,12.615375 -1.77635684e-15,9.700025 C-1.77635684e-15,4.1264 4.3667,0 10,0 Z M15.60215,6.7309 C15.50735,6.7309 15.408525,6.761375 15.315925,6.831625 L12.1606,9.22635 C12.053375,9.3077 11.925625,9.348425 11.79785,9.348425 C11.6712,9.348425 11.54455,9.308425 11.43785,9.2284 L9.1015,7.476125 C8.8307,7.27305 8.515325,7.175975 8.203175,7.175975 C7.7071,7.175975 7.219325,7.421275 6.932525,7.876325 L3.995025,12.53675 C3.775125,12.88565 4.061375,13.269125 4.397825,13.269125 C4.49265,13.269125 4.59145,13.238675 4.68405,13.1684 L7.8394,10.7737 C7.9466,10.692325 8.074375,10.6516 8.202175,10.6516 C8.3288,10.6516 8.455475,10.6916 8.56215,10.7716 L10.89855,12.5239 C11.1693,12.727 11.484675,12.824125 11.79685,12.8241 C12.2929,12.824075 12.780675,12.578775 13.067475,12.123725 L16.005,7.4633 C16.224875,7.11435 15.93865,6.7309 15.60215,6.7309 Z"></path>
</svg>
