<svg viewBox="0 0 24 24" preserveAspectRatio="xMidYMin slice">
  <path class="path1" fill="currentColor"
        d="M12,0C5.373,0,0,5.373,0,12c0,6.628,5.373,12,12,12c6.627,0,12-5.372,12-12C24,5.373,18.627,0,12,0z M19.754,9.561 l-8.607,8.607c-0.176,0.177-0.462,0.177-0.637,0l-1.272-1.285c-0.175-0.176-0.462-0.464-0.636-0.642l-2.96-3.112 c-0.087-0.087-0.133-0.21-0.133-0.327c0-0.115,0.046-0.227,0.133-0.314l1.297-1.169c0.088-0.09,0.205-0.134,0.321-0.134    c0.114,0.001,0.228,0.046,0.315,0.134l2.936,2.995c0.175,0.178,0.461,0.178,0.637,0l6.699-6.681c0.176-0.177,0.461-0.177,0.636,0 l1.272,1.285C19.93,9.094,19.93,9.384,19.754,9.561z"></path>
</svg>
