<svg viewBox="0 0 16 16" preserveAspectRatio="xMidYMin slice" width="100%">
  <path class="path1" fill="currentColor"
        d="M1.99734 1.02288l10.0588 0 -0.992175 1.00044 -9.06541 0c-0.550421,0 -1.00044,0.450022 -1.00044,1.00044l0 10.999c0,0.550421 0.450022,1.00044 1.00044,1.00044l11.0001 0c0.550421,0 1.00044,-0.450022 1.00044,-1.00044l0 -9.11029 0.999262 -0.996899 0 10.1107c0,1.09966 -0.897682,1.99734 -1.99734,1.99734l-11.0037 0c-1.09966,0 -1.99734,-0.897682 -1.99734,-1.99734l0 -11.0061c0,-1.09966 0.897682,-1.99734 1.99734,-1.99734zm3.00133 8.52325l9.47409 -9.54614 1.52606 1.52488 -9.5237 9.49889 -1.47645 0 0 -1.47763z"></path>
</svg>
