<svg preserveAspectRatio="xMidYMin slice" width="100%" viewBox="0 0 14 16">
  <g fill="none" fill-rule="evenodd">
    <g fill="currentColor" fill-rule="nonzero">
      <path d="M17.635 5.297c1.334 1.388 1.16 3.73-.822 5.792L12.6 15.486c-1.138 1.185-2.554 1.207-3.479.245-.881-.917-.947-2.367 0-3.353l3.765-3.918c.178-.185.47-.187.65-.005.181.182.184.48.006.665l-3.765 3.917c-.582.606-.543 1.47 0 2.035.56.582 1.385.57 2.168-.246l4.212-4.396c1.65-1.717 1.781-3.476.823-4.473-1.174-1.221-2.761-1.46-4.144-.02l-5.883 6.121c-1.622 1.688-1.21 3.96.47 5.706 1.495 1.556 3.815 1.81 5.736.21.448-.373 1.014-.918 1.67-1.602l.222-.233c.164-.174.333-.354.506-.541.454-.493.918-1.013 1.378-1.539l.905-1.05.35-.416c.165-.197.455-.221.648-.053.194.168.217.465.052.663l-.499.59-.308.36c-.614.712-1.244 1.424-1.858 2.09l-.26.28-.254.27c-.774.818-1.44 1.468-1.972 1.91-2.306 1.92-5.157 1.608-6.97-.28-1.992-2.07-2.508-4.906-.472-7.024l5.883-6.122c1.792-1.865 3.956-1.539 5.455.02z" transform="translate(-585 -676) translate(580 672)"/>
    </g>
  </g>
</svg>
