<svg viewBox="0 0 24 24" preserveAspectRatio="xMidYMin slice" width="100%">
  <path class="path1" fill="currentColor"
        d="M20.9,11.8C21,12.2,21,12.6,21,13c0,1.4-0.3,2.9-1,4.1c-0.4-0.5-1.1-0.7-1.7-0.6c-1.2,0.3-2.4-0.1-3.2-1.1c-0.6-0.6-1.3-1.3-2.3-0.9c-1.5,0.7-2.5,2.1-2.7,3.7c-0.2,1.2,0,2.5,0.4,3.6c-1.5-0.2-2.9-0.8-4.1-1.8C6.7,20,6.9,19.7,7,19.5c0.9-1.3,0.9-2.9,0-4.2c-0.2-0.3-0.5-0.7-0.8-1c-0.5-0.4-0.8-0.9-1-1.5c0.4-0.5,0.8-0.8,1.4-1c0.8-0.3,1.6-0.8,2.2-1.4c1-1.3-0.1-3.5-0.5-4.2C8,5.9,7.8,5.6,7.4,5.2C8.8,4.5,10.3,4,11.8,4c0.2-0.4,0.4-0.7,0.7-1H12c-1.9,0-3.8,0.5-5.4,1.6L6.3,4.8l0,0c-4.5,3.1-5.7,9.4-2.5,13.9c1.7,2.5,4.5,4.1,7.5,4.3c0.2,0,0.5,0,0.7,0c3.1,0,6.1-1.5,8-3.9c1.3-1.8,2-3.9,2-6.1c0-0.8-0.1-1.6-0.3-2.4C21.4,11,21.2,11.4,20.9,11.8z"></path>
  <path class="path2" fill="currentColor"
        d="M17,2c-2.8,0-5,2.2-5,5c0,2.8,5,8,5,8s5-5.2,5-8C22,4.2,19.8,2,17,2z M17,8c-0.6,0-1-0.4-1-1s0.4-1,1-1s1,0.4,1,1S17.6,8,17,8z"></path>
</svg>
