<svg viewBox="0 0 16 16" preserveAspectRatio="xMidYMin slice" width="100%">
  <path class="path1" fill="currentColor" d="M8 0c-4.41807,0 -8,3.58193 -8,8 0,4.41807 3.58193,8 8,8 4.41807,0 8,-3.58193 8,-8 0,-4.41807 -3.58193,-8 -8,-8zm0 14.9926c-3.86182,0 -6.99262,-3.13198 -6.99262,-6.99262 0,-3.86182 3.13079,-6.99262 6.99262,-6.99262 3.86301,0 6.99262,3.13079 6.99262,6.99262 0,3.86064 -3.12961,6.99262 -6.99262,6.99262zm1.0003 -9.24004c-0.315323,0.139356 -1.41482,0.248007 -1.95217,0.248007l-0.872749 0 0.0188958 0.993209 0.824328 0 -0.0188958 5.02037 -0.805433 0 -0.0177148 0.984942 3.5654 0 0 -0.999114 -0.741659 0 0 -6.24742 0 0zm-1.08415 -0.638913c0.614113,0 1.11249,-0.497195 1.11249,-1.11367 0,-0.615294 -0.498376,-1.11367 -1.11249,-1.11367 -0.617656,0 -1.11485,0.498376 -1.11485,1.11367 0,0.616475 0.497195,1.11367 1.11485,1.11367z"></path>
</svg>
