<svg viewBox="0 0 100 80" fill="none" preserveAspectRatio="xMidYMin slice" width="100%">
<path d="M90.7407 12.3077H75L71.25 2.32967C70.9909 1.6469 70.5161 1.05672 69.8905 0.639754C69.2649 0.222784 68.519 -0.00064024 67.7546 1.37805e-06H32.2454C30.6829 1.37805e-06 29.2824 0.934067 28.7616 2.32967L25 12.3077H9.25926C4.14352 12.3077 0 16.2418 0 21.0989V71.2088C0 76.0659 4.14352 80 9.25926 80H90.7407C95.8565 80 100 76.0659 100 71.2088V21.0989C100 16.2418 95.8565 12.3077 90.7407 12.3077ZM50 62.4176C39.7685 62.4176 31.4815 54.5495 31.4815 44.8352C31.4815 35.1209 39.7685 27.2527 50 27.2527C60.2315 27.2527 68.5185 35.1209 68.5185 44.8352C68.5185 54.5495 60.2315 62.4176 50 62.4176ZM38.8889 44.8352C38.8889 47.6331 40.0595 50.3163 42.1433 52.2948C44.227 54.2732 47.0531 55.3846 50 55.3846C52.9468 55.3846 55.773 54.2732 57.8567 52.2948C59.9405 50.3163 61.1111 47.6331 61.1111 44.8352C61.1111 42.0373 59.9405 39.354 57.8567 37.3756C55.773 35.3972 52.9468 34.2857 50 34.2857C47.0531 34.2857 44.227 35.3972 42.1433 37.3756C40.0595 39.354 38.8889 42.0373 38.8889 44.8352Z" fill="white"></path>
</svg>
