<svg viewBox="0 0 140 27" preserveAspectRatio="xMidYMin slice" width="100%">
    <g id="Logos-_x2F_-Regular-_x2F_-White112x24" transform="translate(0.000000, 0.000000)">
      <path id="Payever" fill="currentColor" class="st0" d="M42.3,5.8c-2.2,0-4.2,1.2-5.5,3.1v-2c0-0.6-0.5-1.2-1.2-1.2c-0.6,0-1.2,0.5-1.2,1.2v18.4
      c0,0.6,0.5,1.2,1.2,1.2c0.6,0,1.2-0.5,1.2-1.2V18c1.2,1.9,3.2,3.1,5.5,3.1c3.7,0,6.8-3.4,6.8-7.7S46.1,5.8,42.3,5.8z M69.2,5.8
      l0.1,0c0.4,0,0.8,0.3,0.9,0.7l0,0L75,16.8l4.7-10.4c0.3-0.6,0.9-0.8,1.5-0.6c0.3,0.1,0.5,0.4,0.6,0.6s0.1,0.6,0,0.9l0,0l-8.2,18.2
      c-0.1,0.3-0.4,0.5-0.6,0.6c-0.3,0.1-0.6,0.1-0.9,0l0,0l-0.1-0.1c-0.2-0.1-0.4-0.3-0.5-0.6c-0.1-0.3-0.1-0.6,0-0.9l0,0l2.3-5.1
      L68.2,7.4C68,7,68.1,6.6,68.3,6.2c0.2-0.3,0.6-0.5,1.1-0.5L69.2,5.8z M64.7,5.8l0.1,0c0.3,0,0.5,0.1,0.7,0.3
      c0.2,0.2,0.3,0.5,0.3,0.8l0,0v13c0,0.3-0.1,0.6-0.3,0.8C65.3,20.9,65,21,64.7,21l0,0l-0.1,0c-0.6-0.1-1-0.6-1-1.1l0,0V18
      c-1.2,1.9-3.2,3.1-5.5,3.1c-3.7,0-6.8-3.4-6.8-7.7s3-7.7,6.8-7.7c2.2,0,4.2,1.2,5.5,3.1l0,0v-2C63.6,6.3,64.1,5.8,64.7,5.8
      L64.7,5.8z M131.9,5.8c0.3,0,0.5,0.1,0.7,0.3c0.2,0.2,0.3,0.4,0.3,0.7l0,0v2.6c1.1-2.1,3.1-3.6,5.5-3.6l0,0h0.2c0.6,0,1,0.5,1,1
      c0,0.5-0.5,1-1,1c-0.2,0-0.4,0-0.6,0c-2.7,0-5,2.4-5,5.5l0,0v6.7c0,0.3-0.1,0.5-0.3,0.7c-0.2,0.2-0.4,0.3-0.7,0.3l0,0h-0.3
      c-0.5,0-1-0.4-1-1l0,0V6.7c0-0.5,0.4-1,1-1l0,0H131.9z M90.2,5.7c4,0,7.3,3.4,7.3,7.7l0,0v0.1l0,0l0,0l0,0
      c-0.1,0.5-0.4,0.8-0.9,0.8l0,0H85.5c0.4,2.6,2.5,4.5,5.1,4.5c1.4,0,3.2-0.5,4.1-1.5c0.3-0.3,0.8-0.4,1.1-0.1l0,0l0.1,0.1
      c0.2,0.2,0.3,0.4,0.4,0.7c0,0.3-0.1,0.5-0.3,0.7c-1.3,1.4-3.7,2.2-5.8,2.2c-4,0-7.3-3.4-7.3-7.7S86.1,5.7,90.2,5.7z M120.5,5.7
      c4,0,7.3,3.4,7.3,7.7l0,0v0.2c-0.1,0.5-0.4,0.8-0.9,0.8l0,0h-11.1c0.4,2.6,2.5,4.5,5.1,4.5c1.4,0,3.2-0.5,4.1-1.5
      c0.3-0.3,0.8-0.4,1.1-0.1l0,0l0.1,0.1c0.2,0.2,0.3,0.4,0.4,0.7c0,0.3-0.1,0.5-0.3,0.7c-1.3,1.4-3.7,2.2-5.8,2.2
      c-4,0-7.3-3.4-7.3-7.7S116.5,5.7,120.5,5.7z M99.4,5.8c0.2-0.1,0.5-0.1,0.8,0c0.3,0.1,0.5,0.3,0.6,0.6l0,0l4.7,10.4l4.7-10.4
      c0.1-0.3,0.4-0.5,0.6-0.6c0.3-0.1,0.6-0.1,0.9,0l0,0l0.1,0.1c0.5,0.3,0.7,0.9,0.5,1.5l0,0L106.6,20c-0.2,0.4-0.6,0.7-1.1,0.7
      s-0.9-0.3-1.1-0.7l0,0L98.7,7.4c-0.1-0.3-0.1-0.6,0-0.9S99,6,99.3,5.9l0,0L99.4,5.8z M58.6,7.7c-2.8,0-5.1,2.6-5.1,5.8
      s2.3,5.8,5.1,5.8c2.8,0,5.1-2.6,5.1-5.8S61.4,7.7,58.6,7.7z M41.8,7.7c2.8,0,5.1,2.6,5.1,5.8s-2.3,5.8-5.1,5.8
      c-2.8,0-5.1-2.6-5.1-5.8S39,7.7,41.8,7.7z M90.5,7.8c-2.6,0-4.7,2.1-5.1,4.7l0,0h10C95.1,9.8,93.1,7.8,90.5,7.8z M120.8,7.8
      c-2.6,0-4.7,2.1-5.1,4.7l0,0h10C125.4,9.8,123.4,7.8,120.8,7.8z"></path>
      <path id="Glyph" fill="currentColor" class="st0" d="M13.5,0.5c7.1,0.1,12.8,5.8,12.8,13c0,7.1-5.7,12.9-12.8,12.9l0,0h0c-4.7,0-9-2.4-11.3-6.5
      s-2.3-9,0-13S8.9,0.5,13.5,0.5z M13.5,2l-0.3,0C7,2.2,2,7.3,2,13.5C2,19.9,7.2,25,13.5,25c4.1,0,7.9-2.2,10-5.8s2-7.9,0-11.5
      S17.6,2,13.5,2L13.5,2z M13.6,5.6c4.5,0,8.1,3.6,8.1,8.1s-3.6,8.1-8.1,8.1s-8.1-3.6-8.1-8.1S9.1,5.6,13.6,5.6z"></path>
    </g>
  </svg>
