<svg viewBox="0 0 396.33 53.13" preserveAspectRatio="xMidYMin slice" width="100%">
  <defs>
    <style>
      .cls-1 {
      fill: #010101;
      }

      .cls-2 {
      fill: none;
      }

      .cls-3 {
      font-size: 40.46px;
      font-family: Avenir-Book, Avenir;
      }
    </style>
  </defs>
  <g id="Layer_2" data-name="Layer 2">
    <g id="Layer_1-2" data-name="Layer 1">
      <path class="cls-1"
            d="M24.57,1.64,26,1.82A22.77,22.77,0,0,1,39,8a22.14,22.14,0,0,1,6.62,11.73,22.47,22.47,0,0,1-4.28,19.06A21.9,21.9,0,0,1,27.9,47.24,22.58,22.58,0,0,1,6.82,41.05,21.71,21.71,0,0,1,.28,28.27,22.53,22.53,0,0,1,6.34,8.83,22.56,22.56,0,0,1,19.51,1.91c.62-.1,1.25-.14,1.88-.21l.23-.06ZM2.77,24.77a20.51,20.51,0,0,0,41,.51v-.36a20.5,20.5,0,0,0-41-.54C2.78,24.51,2.77,24.64,2.77,24.77Z">
      </path>
      <path class="cls-1"
            d="M37.83,25A14.39,14.39,0,0,1,23.45,39.39h-.11A14.37,14.37,0,0,1,9,25v-.09a14.4,14.4,0,0,1,28.8.14Z"></path>
      <rect class="cls-2" x="11.77" y="7.37" width="185.15" height="34.67"></rect>
      <rect class="cls-2" x="56.18" y="7.37" width="140.74" height="34.67"></rect>
      <g
        aria-label="Checkout"
        transform="translate(204.41,34.55)"
        style="font-size:40.45999908px;font-family:Avenir-Book, Avenir"
        id="text827">
        <path
          d="m 26.057978,-27.223574 v 4.207998 q -2.015098,-1.876806 -4.306777,-2.805332 -2.271924,-0.928525 -4.840186,-0.928525 -5.0575,0 -7.7442965,3.10167 -2.6867968,3.081914 -2.6867968,8.929648 0,5.8279785 2.6867968,8.9296483 2.6867965,3.081914 7.7442965,3.081914 2.568262,0 4.840186,-0.9285253 2.291679,-0.9285254 4.306777,-2.805332 v 4.1684862 q -2.094121,1.42242187 -4.445068,2.13363279 -2.331192,0.71121092 -4.938965,0.71121092 -6.6972362,0 -10.5496287,-4.08946281 -3.8523925,-4.1092186 -3.8523925,-11.2015721 0,-7.112109 3.8523925,-11.201572 3.8523925,-4.109219 10.5496287,-4.109219 2.647285,0 4.978476,0.711211 2.350948,0.691455 4.405557,2.094121 z"
          style="font-size:40.45999908px;font-family:Avenir-Book, Avenir"
          id="path4583"></path>
        <path
          d="M 50.456463,-13.354961 V 0 h -3.635078 v -13.236425 q 0,-3.141182 -1.224863,-4.701895 -1.224864,-1.560713 -3.67459,-1.560713 -2.943623,0 -4.642627,1.876807 -1.699004,1.876806 -1.699004,5.116767 V 0 h -3.654834 v -30.740116 h 3.654834 v 12.051073 q 1.303887,-1.995341 3.062158,-2.983134 1.778027,-0.987793 4.089463,-0.987793 3.812881,0 5.768711,2.370703 1.95583,2.350947 1.95583,6.934306 z"
          style="font-size:40.45999908px;font-family:Avenir-Book, Avenir"
          id="path4585"></path>
        <path
          d="m 76.632976,-11.972051 v 1.778028 H 59.919519 q 0.23707,3.753613 2.252168,5.7291989 2.034853,1.95583 5.650175,1.95583 2.094122,0 4.049952,-0.5136523 1.975585,-0.5136523 3.91166,-1.540957 v 3.4375194 q -1.95583,0.82974612 -4.01044,1.26437501 -2.054609,0.4346289 -4.168486,0.4346289 -5.29457,0 -8.39624,-3.08191401 -3.081914,-3.081914 -3.081914,-8.3369729 0,-5.432861 2.923867,-8.613554 2.943623,-3.200449 7.9221,-3.200449 4.464824,0 7.052841,2.884355 2.607774,2.8646 2.607774,7.803564 z m -3.635078,-1.066816 q -0.03951,-2.983135 -1.679248,-4.761162 -1.619981,-1.778027 -4.306778,-1.778027 -3.042402,0 -4.879697,1.71876 -1.817539,1.718759 -2.094121,4.840185 z"
          style="font-size:40.45999908px;font-family:Avenir-Book, Avenir"
          id="path4587"></path>
        <path
          d="m 98.522465,-21.27706 v 3.398008 q -1.540957,-0.849502 -3.10167,-1.264375 -1.540957,-0.434629 -3.121426,-0.434629 -3.536299,0 -5.492129,2.252168 -1.95583,2.232412 -1.95583,6.282363 0,4.0499509 1.95583,6.3021189 1.95583,2.232412 5.492129,2.232412 1.580469,0 3.121426,-0.414873 1.560713,-0.4346289 3.10167,-1.2841309 v 3.35849607 q -1.521201,0.71121092 -3.160938,1.06681638 -1.61998,0.35560546 -3.457275,0.35560546 -4.998232,0 -7.941855,-3.14118161 -2.943623,-3.1411815 -2.943623,-8.4752633 0,-5.413105 2.963379,-8.514775 2.983134,-3.10167 8.159169,-3.10167 1.679248,0 3.279473,0.355605 1.600224,0.33585 3.10167,1.027305 z"
          style="font-size:40.45999908px;font-family:Avenir-Book, Avenir"
          id="path4589"></path>
        <path
          d="m 104.70605,-30.740116 h 3.65484 v 18.155634 l 10.84596,-9.54208 h 4.64263 L 112.1145,-11.774492 124.34338,0 h -4.74141 L 108.36089,-10.806455 V 0 h -3.65484 z"
          style="font-size:40.45999908px;font-family:Avenir-Book, Avenir"
          id="path4591"></path>
        <path
          d="m 135.40665,-19.578056 q -2.92386,0 -4.62287,2.291679 -1.699,2.271924 -1.699,6.242852 0,3.9709275 1.67925,6.2626071 1.699,2.2719238 4.64262,2.2719238 2.90411,0 4.60312,-2.2916796 1.699,-2.2916797 1.699,-6.2428513 0,-3.931416 -1.699,-6.223096 -1.69901,-2.311435 -4.60312,-2.311435 z m 0,-3.081914 q 4.74141,0 7.44796,3.081914 2.70655,3.081914 2.70655,8.534531 0,5.4328611 -2.70655,8.5345309 -2.70655,3.08191401 -7.44796,3.08191401 -4.76116,0 -7.46771,-3.08191401 -2.6868,-3.1016698 -2.6868,-8.5345309 0,-5.452617 2.6868,-8.534531 2.70655,-3.081914 7.46771,-3.081914 z"
          style="font-size:40.45999908px;font-family:Avenir-Book, Avenir"
          id="path4593"></path>
        <path
          d="M 151.21134,-8.7320896 V -22.126562 h 3.63508 v 13.2561813 q 0,3.1411816 1.22486,4.7216503 1.22486,1.5607129 3.67459,1.5607129 2.94362,0 4.64263,-1.8768066 1.71876,-1.8768066 1.71876,-5.1167675 V -22.126562 h 3.63507 V 0 h -3.63507 v -3.3980077 q -1.32365,2.0150976 -3.08192,3.00289052 -1.73851,0.96803709 -4.04995,0.96803709 -3.81288,0 -5.78847,-2.37070311 -1.97558,-2.370703 -1.97558,-6.9343064 z M 160.3583,-22.65997 Z"
          style="font-size:40.45999908px;font-family:Avenir-Book, Avenir"
          id="path4595"></path>
        <path
          d="m 180.82538,-28.408925 v 6.282363 h 7.48747 v 2.825088 h -7.48747 v 12.0115621 q 0,2.7065526 0.73097,3.4770311 0.75072,0.7704785 3.02264,0.7704785 h 3.73386 V 0 h -3.73386 q -4.208,0 -5.80822,-1.5607129 -1.60023,-1.5804687 -1.60023,-5.729199 V -19.301474 h -2.66704 v -2.825088 h 2.66704 v -6.282363 z"
          style="font-size:40.45999908px;font-family:Avenir-Book, Avenir"
          id="path4597"></path>
      </g>
      <path class="cls-1"
            d="M196.92,16a4.15,4.15,0,0,1-.44.68,1.64,1.64,0,0,1-1.36.38,6.37,6.37,0,0,0-5.7,2.82A7.33,7.33,0,0,0,188,24.2c0,3,0,6.07,0,9.1a1.34,1.34,0,0,1-1.46,1.47,1.41,1.41,0,0,1-1.35-.55,1.45,1.45,0,0,1-.26-.78q0-8.92,0-17.83a1.31,1.31,0,0,1,1.27-1.32h.54A1.3,1.3,0,0,1,188,15.62h0c0,1,0,2.06,0,3.09,0,.07,0,.15,0,.29l.18-.28a8.78,8.78,0,0,1,4-3.74,7.24,7.24,0,0,1,3.37-.64,1.35,1.35,0,0,1,1.22.87l.09.21Z"></path>
      <path class="cls-1"
            d="M59.35,18.4a11.91,11.91,0,0,1,2.17-2.26,8.32,8.32,0,0,1,11.06.65,10.59,10.59,0,0,1,3.14,6.85,10.76,10.76,0,0,1-2.39,7.94,8.44,8.44,0,0,1-5.22,3.14A8.15,8.15,0,0,1,61.47,33a11,11,0,0,1-1.12-1c-.34-.37-.64-.78-1-1.2,0,.1,0,.19,0,.27v9.34A1.54,1.54,0,0,1,58.12,42a1.52,1.52,0,0,1-1.83-1.16,1.12,1.12,0,0,1,0-.32V15.81a1.54,1.54,0,0,1,3.08-.15c0,.83,0,1.66,0,2.5Zm13.4,6.15a8.17,8.17,0,0,0-2.42-5.85,6.1,6.1,0,0,0-8.06-.54,7.71,7.71,0,0,0-3,6,8,8,0,0,0,2.14,6.07,6.15,6.15,0,0,0,9.18,0A8.18,8.18,0,0,0,72.75,24.55Z"></path>
      <path class="cls-1"
            d="M165.08,25.8a7.1,7.1,0,0,0,.69,2.1,6.8,6.8,0,0,0,4.72,3.77,8.25,8.25,0,0,0,4.48-.38,5.65,5.65,0,0,0,2.36-1.41,1.11,1.11,0,0,1,1.29-.32,1.35,1.35,0,0,1,.8,1.72,1.29,1.29,0,0,1-.33.5,9.05,9.05,0,0,1-3.91,2.28,11.67,11.67,0,0,1-5.15.47,9.22,9.22,0,0,1-5.1-2.45,10,10,0,0,1-3.31-8,9.91,9.91,0,0,1,4.94-8.53,9.47,9.47,0,0,1,11.59,1.42,10.36,10.36,0,0,1,3.1,7.65,1.24,1.24,0,0,1-1.22,1.2H165.08Zm13.36-2.52a8,8,0,0,0-1.17-3.23,6.34,6.34,0,0,0-7.17-2.82,6.9,6.9,0,0,0-4.71,4.6c-.17.46-.26,1-.39,1.45Z"></path>
      <path class="cls-1"
            d="M124.45,25.8a7.2,7.2,0,0,0,5.41,5.88,8.34,8.34,0,0,0,4-.24,6.52,6.52,0,0,0,2.68-1.4l.15-.14a1.08,1.08,0,0,1,1.21-.37,1.34,1.34,0,0,1,.9,1.68,1.33,1.33,0,0,1-.36.6A8.83,8.83,0,0,1,134.76,34a11.13,11.13,0,0,1-5.83.47,9.59,9.59,0,0,1-6.73-5.08,10.44,10.44,0,0,1,1.21-11.72,9.23,9.23,0,0,1,7.67-3.47,9.43,9.43,0,0,1,8,4.74,10.07,10.07,0,0,1,1.52,5.47,1.21,1.21,0,0,1-.85,1.33,1.43,1.43,0,0,1-.51.07H124.45Zm0-2.52H137.8v-.13a7.75,7.75,0,0,0-1.51-3.59,6.16,6.16,0,0,0-6-2.51,7.1,7.1,0,0,0-5.92,6.23Z"></path>
      <path class="cls-1"
            d="M95.14,18.41V15.88a1.55,1.55,0,1,1,3.1-.08V33.17a1.55,1.55,0,1,1-3.1,0V30.82l0,0-.2.27a8.76,8.76,0,0,1-4.83,3.49,8.1,8.1,0,0,1-7.91-1.92,10.16,10.16,0,0,1-3.26-6,11.18,11.18,0,0,1,1-7.1,9.07,9.07,0,0,1,5-4.65,8.07,8.07,0,0,1,8.28,1.52A9.19,9.19,0,0,1,95,18.3l.09.12Zm.14,6.18a8.21,8.21,0,0,0-2.38-5.83,6.13,6.13,0,0,0-8.6-.19,7.85,7.85,0,0,0-2.51,5.16,8.19,8.19,0,0,0,2,6.42,6.15,6.15,0,0,0,9.15.29,8.21,8.21,0,0,0,2.34-5.85Z"></path>
      <path class="cls-1"
            d="M110.41,29l.76-1.67,5.43-12.06a1.57,1.57,0,0,1,2.11-.87,1.55,1.55,0,0,1,.77,2v0c-.74,1.65-1.49,3.31-2.24,5L108.58,40.7a1.65,1.65,0,0,1-1.14,1,1.55,1.55,0,0,1-1.78-2.15c.59-1.33,1.2-2.66,1.8-4,.38-.86.76-1.71,1.15-2.56a.49.49,0,0,0,0-.44l-7.23-16A1.55,1.55,0,0,1,104,14.9a1.86,1.86,0,0,1,.19.34c.72,1.57,1.43,3.16,2.14,4.74q2,4.41,4,8.82C110.32,28.86,110.36,28.93,110.41,29Z"></path>
      <path class="cls-1"
            d="M151.29,29l1.15-2.55q2.53-5.62,5.06-11.23a1.55,1.55,0,0,1,2-.86,1.52,1.52,0,0,1,.92,1,1.5,1.5,0,0,1-.11,1.08l-5.76,12.79c-.58,1.3-1.17,2.59-1.75,3.89a1.57,1.57,0,0,1-1.53,1,1.59,1.59,0,0,1-1.54-1Q146,24.91,142.27,16.6a1.56,1.56,0,1,1,2.8-1.35l2.46,5.45c1.22,2.7,2.43,5.41,3.65,8.11Z"></path>
    </g>
  </g>
</svg>
