<svg viewBox="0 0 118.3 20" preserveAspectRatio="xMidYMin slice" width="100%">
  <path fill="#F35B1C" d="M0.4,7.8c0,1.9,1.3,2.6,3.2,3.1c1.8,0.4,2.2,1,2.2,1.7c0,0.8-0.7,1.3-1.7,1.3C3,13.9,2,13.5,1,12.6l-1,1.2
	c1.1,1,2.5,1.6,4,1.6c2.1,0,3.4-1.2,3.4-3c0-1.6-1-2.5-3.1-3C2.4,8.8,2,8.3,2,7.6C2,7,2.6,6.3,3.6,6.3c0.9,0,1.7,0.3,2.6,1l1-1.3
	C6.2,5.2,5,4.8,3.7,4.8C1.7,4.8,0.4,6.1,0.4,7.8L0.4,7.8z M12.6,7.5L11,12.7L9.5,7.5H7.9c0,0.1,2.3,7.4,2.4,7.4h1.4l1.7-5.1l1.6,5.1
	h1.5l2.4-7.4h-1.6l-1.5,5.2L14,7.5H12.6L12.6,7.5z"></path>
  <path fill="#F35B1C" d="M19.7,11.4L19.7,11.4c0,2.3,1.6,4,3.7,4c1,0,1.9-0.2,2.7-0.8l-0.4-1.3C25,13.8,24.3,14,23.5,14
	c-1.2,0-2-0.7-2.1-1.9l0,0h5.4v-0.4c0-2-1.1-4.1-3.5-4.1C21.2,7.4,19.7,9.1,19.7,11.4L19.7,11.4z M21.3,10.8c0.2-1.2,0.9-2,1.9-2
	s1.8,0.8,1.9,2l0,0H21.3L21.3,10.8z M33.5,4.8v3.6l0,0c-0.6-0.5-1.4-0.8-2.2-0.8C29.6,7.6,28,9,28,11.5l0,0c0,2.5,1.7,3.8,3.4,3.8
	c1.2,0,2.4-0.1,3.6-0.3V4.8H33.5z M29.6,11.5L29.6,11.5c0-1.4,0.9-2.4,2.1-2.4c1.1,0,1.8,0.8,1.8,1.1v3.7l0,0
	C32.9,14,32.3,14,31.7,14C30.5,13.9,29.6,12.9,29.6,11.5z M37.7,4.8V15c1.2,0.2,2.4,0.3,3.6,0.3c1.7,0,3.4-1.3,3.4-3.8l0,0
	c0-2.5-1.6-3.8-3.2-3.8c-0.8,0-1.6,0.2-2.2,0.8l0,0V4.8H37.7L37.7,4.8z M39.2,13.8L39.2,13.8v-3.7C39.2,9.8,39.9,9,41,9
	c1.2,0,2.1,1,2.1,2.4l0,0c0,1.4-0.9,2.4-2.1,2.4C40.4,13.9,39.8,13.9,39.2,13.8L39.2,13.8z M46.6,8.1c0,0,0.4,1.3,0.4,1.4
	C47.7,9.1,48.4,9,49.2,9c1.2,0,1.8,0.6,1.8,1.7v0.2l0,0c-0.6-0.2-1.3-0.3-2-0.3c-1.8,0-2.9,0.9-2.9,2.5l0,0c0,1.6,1.3,2.3,2.6,2.3
	s2.7-0.1,4-0.4v-4.3c0-2.1-1.1-3.2-3.2-3.2C48.4,7.4,47.5,7.7,46.6,8.1z M47.6,12.9L47.6,12.9c0-0.8,0.6-1.2,1.7-1.2
	c0.6,0,1.1,0.1,1.7,0.3l0,0v2l0,0c-0.6,0.1-1.3,0.2-1.9,0.1C48.2,14.1,47.6,13.6,47.6,12.9z"></path>
  <path fill="#F35B1C" d="M54.3,7.8v7.1h1.6V9l0,0c0.6-0.1,1.1-0.1,1.7-0.1c1,0,1.6,0.7,1.6,1.9V15h1.6v-4.6c0-1.7-1-2.8-2.6-2.8
	C57,7.5,55.6,7.6,54.3,7.8z M62.6,4.4v10.5h1.7v-2.2l1.1-1.1l2.3,3.3h1.9l-3.1-4.5c0,0,2.9-3,3-3h-2l-3.2,3.4V4.4H62.6L62.6,4.4z"></path>
  <g>
    <path fill="#F35B1C" d="M82.3,0c-5.5,0-10,4.5-10,10s4.5,10,10,10s10-4.5,10-10S87.8,0,82.3,0z M82.3,19.1c-3.7,0-7-2.2-8.4-5.6
		s-0.6-7.3,2-9.9s6.5-3.4,9.9-2s5.6,4.8,5.6,8.4C91.4,15,87.3,19.1,82.3,19.1L82.3,19.1L82.3,19.1z"></path>
    <path fill="#F35B1C" d="M83.8,4.1H84c0.1,0,0.1,0.1,0.2,0.1s0.1,0,0.2,0l0.1-0.1C84.5,4,84.6,4,84.7,4s0.2,0,0.2,0.1L85,4.2
		c0,0.1-0.1,0.1-0.1,0.2s0,0.2,0.1,0.2s0.1,0,0.1,0s0.1,0,0.2,0c0.1,0.1,0.1,0.2,0.1,0.3c0,0.1,0.1,0.3,0.1,0.3
		c0.1,0,0.1-0.1,0.1-0.2s0-0.1,0-0.2s0-0.1-0.1-0.2c0-0.1-0.1-0.1-0.2-0.2c-0.1,0-0.1-0.1-0.1-0.1c-0.1-0.1-0.1-0.2-0.1-0.3
		c0-0.1-0.1-0.2-0.2-0.2s-0.1,0-0.2,0s-0.1,0.1-0.2,0.1S84.4,4,84.4,4c0,0.1-0.1,0.1-0.2,0.1S84.1,4,84,4l-0.1-0.1c0,0-0.1,0-0.2,0
		S83.6,4,83.6,4c0,0.1,0,0.2,0,0.3C83.7,4,83.7,4.1,83.8,4.1z M84.2,5.1L84.2,5.1l0.1-0.2c0-0.1-0.1-0.2-0.2-0.3H84
		c-0.1,0-0.3,0.1-0.2,0.2c0,0.1,0.1,0.1,0.2,0.1L84.1,5C84.1,5.1,84.2,5.1,84.2,5.1C84.1,5.2,84.1,5.1,84.2,5.1z M82.7,7.5
		C82.7,7.6,82.8,7.6,82.7,7.5c0.2,0.1,0.3,0,0.3,0c0.1-0.1,0.1-0.2,0.2-0.3c0-0.1,0.1-0.1,0.1-0.2s0.1-0.3,0-0.3s-0.1,0.1-0.2,0.1
		C83.1,6.9,83,7,83,7c-0.1,0-0.1-0.1-0.1-0.1c-0.1-0.1-0.1-0.1-0.1-0.1c0-0.1-0.1-0.3-0.2-0.2c-0.1,0-0.1,0.2-0.1,0.2
		c0,0.1,0,0.1,0.1,0.2c0,0,0,0.1,0.1,0.1c0,0,0.1,0.1,0.1,0.2s0,0.1,0,0.2C82.6,7.4,82.6,7.4,82.7,7.5z M83.3,5.2L83.3,5.2
		c-0.2,0-0.2-0.1-0.3-0.2c0,0,0,0-0.1,0c-0.1-0.1-0.2-0.1-0.2-0.1c-0.1,0-0.2,0.1-0.2,0.2s0.1,0.1,0.1,0.1c0.1,0,0.3,0.1,0.3,0.2
		c0,0,0,0.1,0.1,0.1l0.1,0.1c0.1,0.1,0.2,0,0.2,0.1v0.1c0,0.1,0.1,0.1,0.1,0.2v0.1c0,0,0,0.1,0.1,0.1s0.1-0.3,0.1-0.4
		s-0.1-0.3-0.2-0.4C83.4,5.2,83.4,5.2,83.3,5.2C83.4,5.2,83.3,5.2,83.3,5.2z M83,3.2c0.1,0,0.2,0.1,0.2,0c0.1,0,0.1-0.1,0.1-0.2
		c0-0.1-0.1-0.1-0.1-0.1c-0.1,0-0.2,0-0.2,0c-0.1,0-0.1,0-0.1,0.1S82.9,3.1,83,3.2C83,3.1,83,3.2,83,3.2L83,3.2z M84.1,6.8L84.1,6.8
		l0.2-0.1c0-0.1,0-0.2,0.1-0.3c0,0,0.1-0.1,0.1-0.2l0.1-0.1L84.7,6l0.1-0.1c0-0.1-0.1-0.1-0.1-0.2s0-0.1,0-0.2s-0.2-0.1-0.3,0
		c0,0.1,0,0.2,0,0.2c0,0.1,0,0.1,0,0.2c-0.1,0.1-0.2,0.2-0.3,0.3v0.1v0.1C84,6.7,84,6.8,84.1,6.8L84.1,6.8z M85.1,4.9
		c-0.1-0.1-0.3-0.1-0.4-0.1S84.6,4.9,84.6,5l0.1,0.1l0.1,0.1C85,5.3,85,5.4,85.1,5.5l0.2,0.1c0.1,0,0-0.1,0-0.1l-0.1-0.1V5.3
		C85.2,5.1,85.2,5,85.1,4.9C85.2,4.9,85.1,4.9,85.1,4.9z M84.9,8.1L84.9,8.1L85,7.9c0,0,0-0.1,0.1-0.1c0-0.1,0.1-0.1,0.1-0.1
		c0-0.1,0-0.1-0.1-0.1l0,0c-0.1,0-0.1,0.1-0.2,0.1l-0.1,0.1c0,0.1,0,0.1-0.1,0.2C84.6,8.1,84.8,8.1,84.9,8.1L84.9,8.1z M81.1,6.6
		C81.1,6.7,81.2,6.7,81.1,6.6c0.2,0.1,0.3,0.1,0.3,0V6.5c0-0.1-0.1-0.2-0.2-0.2c-0.1-0.1-0.1-0.2-0.2-0.2s-0.1,0.2,0,0.3
		C81,6.6,81.1,6.6,81.1,6.6z M80.6,4.6L80.6,4.6l0.2-0.1c0.2,0,0.2,0,0.2-0.1s-0.1-0.1-0.1-0.1s-0.1,0.1-0.2,0.1S80.6,4.5,80.6,4.6
		C80.6,4.6,80.6,4.6,80.6,4.6L80.6,4.6z M83.2,4.3c0.1,0,0.2,0,0.2-0.1s-0.1-0.1-0.1-0.1C83.2,4,83.1,4,83,4s-0.1,0.1-0.1,0.2l0,0
		C82.9,4.3,83,4.3,83.2,4.3L83.2,4.3L83.2,4.3z M80.2,6.3c0.1,0,0.2,0,0.2-0.1c0,0,0-0.1-0.1-0.1c0-0.1,0-0.1-0.1-0.1
		C80.1,6,80,5.9,80,5.9c-0.1,0-0.1,0-0.1,0.1L80,6.1v0.1C80.1,6.2,80.2,6.3,80.2,6.3L80.2,6.3z M81.9,4.8L81.9,4.8
		c0.1-0.2-0.1-0.2-0.2-0.2c0,0-0.1,0-0.1,0.1c-0.1,0-0.1,0.2-0.1,0.2V5c0,0.1,0,0.1,0,0.1s0,0.1,0,0.2s0.1,0.2,0.1,0.2
		c0.1,0,0.1-0.1,0.1-0.1c0.1-0.1,0-0.2,0.1-0.3c0,0,0,0,0-0.1L81.9,4.8C81.8,4.9,81.8,4.9,81.9,4.8L81.9,4.8L81.9,4.8z M79.8,6.8
		c-0.1,0-0.1,0-0.2-0.1c-0.1,0-0.2,0-0.2,0.1c-0.1,0-0.1,0.1-0.1,0.2s0.1,0.2,0.2,0.2s0.2,0.1,0.3,0.1c0,0,0.1,0,0.1,0.1
		c0.1,0,0.3,0.1,0.3,0s-0.1-0.1-0.1-0.2C80,6.9,79.9,6.8,79.8,6.8L79.8,6.8z M81.3,4.2C81.4,4.2,81.4,4.1,81.3,4.2
		C81.4,4,81.5,4,81.5,4c0.1,0,0.2,0,0.3,0c0.1,0,0.1-0.2,0.2-0.2c0,0,0.1,0,0.1,0.1c0,0,0,0.1,0.1,0.1c0.2,0,0.3,0,0.4-0.1
		c0.1,0,0.1-0.1,0.2-0.1c0.1-0.1,0.1-0.2,0-0.3c-0.1,0-0.2,0.1-0.2,0.1c-0.1,0-0.2,0-0.3-0.1c-0.1-0.1-0.1-0.1-0.1-0.1
		c-0.1,0-0.1,0-0.2,0.1s-0.1,0.1-0.2,0.1s-0.1-0.1-0.1-0.1l-0.1-0.1V3.3l-0.1-0.1c-0.1,0-0.2,0.2-0.3,0.2v0.1l0.1,0.1
		c0,0,0,0.1-0.1,0.1l-0.1,0.1C81,3.8,81,3.9,81,3.9V4C81.2,4.1,81.2,4.2,81.3,4.2L81.3,4.2L81.3,4.2z M88,10.1
		c0,0.1,0.1,0.1,0.1,0.1h0.1c0.1-0.1,0.1-0.1,0-0.2c0,0,0-0.1-0.1-0.1c0-0.1-0.2-0.1-0.2-0.1C87.8,10,87.9,10,88,10.1
		C87.9,10.1,87.9,10.1,88,10.1C87.9,10.1,88,10.1,88,10.1z M89,9.4c0.1,0,0.2,0,0.2-0.1s-0.1-0.1-0.1-0.1C89,9.1,89,9.1,89,9.1
		c-0.1,0-0.1,0-0.1,0.1v0.1C89,9.4,89,9.4,89,9.4L89,9.4z M88.4,9.2c0.1,0.1,0.1,0.2,0.1,0.3s-0.1,0.1,0,0.2c0.1,0,0.1-0.1,0.1-0.1
		c0.1-0.1,0.1-0.1,0.1-0.2c0-0.2-0.1-0.4-0.2-0.5s-0.3-0.2-0.3-0.3s0-0.1-0.1-0.1l0,0c0,0-0.1,0.1-0.1,0.2c0,0.1-0.1,0.1-0.1,0.2
		L88,9C88.1,9,88.3,9.1,88.4,9.2L88.4,9.2L88.4,9.2z M85.9,7.4c0,0.1-0.1,0.2-0.1,0.3c0,0.1,0.1,0.1,0.1,0.1L86,7.7
		c0,0,0-0.1,0.1-0.1c0,0,0-0.1,0.1-0.1c0,0,0.1-0.2,0-0.2c0-0.1-0.1-0.1-0.2-0.1C86,7.2,85.9,7.3,85.9,7.4z M85.5,16.2
		c0-0.1-0.1-0.1-0.3-0.1c-0.1,0-0.2,0.1-0.1,0.2c0,0.1,0.2,0.1,0.2,0.1l0,0C85.5,16.4,85.5,16.3,85.5,16.2z M85.5,16.7
		c-0.1,0.1-0.2,0.2-0.1,0.3c0,0.1,0.2,0.1,0.3,0.1c0.1-0.1,0.2-0.2,0.2-0.2C85.7,16.6,85.6,16.6,85.5,16.7L85.5,16.7z M87.6,14.3
		c-0.1,0.1-0.2,0.3,0.1,0.5c0.1,0.2,0.4,0.2,0.6,0.1l0,0c0.1-0.1,0.1-0.3-0.1-0.5C87.9,14.2,87.6,14.3,87.6,14.3L87.6,14.3
		L87.6,14.3z M75.5,10.3c-0.1,0-0.2,0-0.2,0.1c-0.1,0-0.1,0-0.2,0.1s-0.1,0.2,0,0.3s0.2,0.1,0.2,0l0.1-0.1c0,0,0.1,0,0.1-0.1
		s0.1-0.1,0.1-0.2C75.7,10.4,75.6,10.3,75.5,10.3z M85.8,6.2c0,0,0.2-0.1,0.2-0.2h0.1l0.1-0.1c0-0.1,0-0.1-0.1-0.1H86
		c-0.1,0-0.1,0-0.2,0.1C85.8,6,85.7,6,85.7,6S85.7,6.2,85.8,6.2L85.8,6.2z M86.4,8.8c0.1,0,0.1-0.1,0.1-0.1s0.1-0.1,0.2-0.1h0.1
		c0.1,0,0.1-0.1,0.1-0.2c0-0.1,0.1-0.1,0.1-0.2c0,0-0.1-0.1-0.2-0.1h-0.1c-0.1,0-0.1,0-0.1,0.1l-0.1,0.1c-0.1,0.1-0.1,0.2-0.2,0.3
		c0,0.1-0.1,0.1-0.1,0.2C86.3,8.9,86.4,8.9,86.4,8.8L86.4,8.8L86.4,8.8z M85.4,6.6C85.4,6.6,85.4,6.7,85.4,6.6
		c-0.2,0-0.1-0.2-0.1-0.3l-0.1-0.1c-0.1,0.1-0.1,0.2-0.1,0.2c0,0.1-0.1,0.1-0.2,0.2l-0.1,0.1l-0.1,0.1c0,0.1,0,0.1,0,0.2
		s0,0.1,0,0.2c0.1,0.1,0.2,0,0.2-0.1c0.2,0,0.2-0.1,0.3-0.1s0.2,0.1,0.3,0.1c0.1,0,0.1-0.1,0.2-0.1s0.1-0.1,0.1-0.1h0.1
		c0.1-0.1,0.2-0.1,0.3-0.1c0.1,0,0.2,0,0.2-0.1l-0.1-0.1c-0.1,0-0.1,0-0.2,0s-0.2,0-0.3,0c-0.1,0-0.1,0-0.2,0.1
		C85.5,6.6,85.4,6.6,85.4,6.6z M87.8,8c0-0.1-0.1-0.2-0.2-0.2S87.5,7.9,87.5,8c0,0.1-0.1,0.1-0.1,0.2l0.1,0.1c0.1,0,0.2,0.1,0.3,0.1
		c0,0,0.1,0,0.1-0.1S87.8,8.1,87.8,8C87.8,8.1,87.8,8.1,87.8,8z M86.7,6.5L86.7,6.5c0.1,0,0.2,0,0.2,0c0.1,0,0.2,0,0.2,0.1
		c0.1,0.1,0.1,0.1,0.2,0.2c0,0,0,0.1,0.1,0.1c0,0,0,0.1,0.1,0.1c0.1,0.1,0.1,0.3,0.1,0.4s0.1,0.1,0.1,0.1s0.1,0.1,0.2,0
		c0.1,0,0.1-0.1,0-0.2c0-0.1-0.1-0.1-0.1-0.2s0.1-0.1,0.1-0.2s-0.1-0.1-0.1-0.2c0,0,0-0.1-0.1-0.1s0-0.1-0.1-0.1l-0.1-0.1
		c0,0-0.1,0-0.1-0.1c-0.1-0.1-0.2-0.1-0.2-0.1c-0.2,0-0.3,0-0.5,0C86.5,6.4,86.6,6.5,86.7,6.5z M86.7,7.5
		C86.7,7.5,86.6,7.6,86.7,7.5C86.6,7.7,86.7,7.6,86.7,7.5l0.2,0.1c0.1,0,0.1,0,0.1,0c0.1,0,0.1-0.1,0.1-0.2V7.3c0-0.1,0-0.2-0.1-0.3
		c-0.1-0.1-0.1-0.2-0.2-0.1c0,0.1,0.1,0.2,0,0.3C86.8,7.4,86.8,7.4,86.7,7.5L86.7,7.5L86.7,7.5z M80.4,5.2L80.4,5.2
		c0,0.3,0.1,0.5,0.2,0.5s0.1-0.1,0.1-0.2s-0.1-0.1-0.1-0.2s0.1-0.1,0.1-0.2S80.5,4.9,80.5,5C80.4,5,80.4,5.1,80.4,5.2L80.4,5.2
		L80.4,5.2z M85.2,10.8C85.1,10.8,85,11,85,11c0,0.1,0.1,0.1,0.2,0.1s0.2-0.1,0.2-0.2c0-0.1,0.1-0.1,0.1-0.1
		C85.4,10.8,85.3,10.7,85.2,10.8L85.2,10.8L85.2,10.8z M85,10.2c0-0.1-0.1-0.1-0.1-0.2c-0.1-0.1-0.1-0.1-0.2-0.1S84.6,10,84.6,10
		v0.1c0,0.1,0.1,0.1,0.2,0.2c0.1,0.1,0.1,0.1,0.2,0.1s0.1-0.1,0.1-0.1C85,10.2,85,10.2,85,10.2L85,10.2L85,10.2z M85.4,8.8l-0.1-0.1
		l-0.1-0.1c-0.1,0-0.2,0-0.3,0c-0.1,0-0.1,0-0.2,0s-0.2,0-0.2,0.1c-0.1,0.1-0.1,0.1-0.1,0.2L84.3,9C84,9,84,9,84,9.1
		c0,0,0,0.1-0.1,0.1c0,0.1-0.1,0.1-0.1,0.1c-0.1,0-0.1,0.1-0.1,0.1c-0.1,0.1-0.1,0.1-0.1,0.2c-0.1,0-0.2,0.1-0.2,0.2
		c0,0,0,0.1,0.1,0.1h0.1c0.1,0,0.1,0,0.2-0.1h0.3l0.1-0.1c0-0.1,0-0.1,0-0.2c0-0.1,0.1-0.1,0.1-0.2c0.1,0,0.1,0,0.2-0.1h0.1
		c0.1,0,0.1-0.1,0.1-0.2c0-0.1,0.1-0.1,0.1-0.1s0.1,0,0.1,0.1C85,9,85,9.2,85.1,9.2s0.1,0,0.2,0s0.2-0.1,0.2-0.2
		C85.5,9,85.5,8.9,85.4,8.8C85.5,8.8,85.4,8.8,85.4,8.8L85.4,8.8L85.4,8.8z M83.1,12.2c0-0.1,0-0.2-0.1-0.3V11
		c0-0.1,0.1-0.2,0.1-0.3c-0.1-0.1-0.2,0-0.2,0c-0.3,0-0.5,0-0.8-0.1H82c-0.1,0-0.2,0-0.2,0.1s0.2,0.1,0.3,0.2c0.1,0,0.6,0.2,0.6,0.2
		l0.1,0.1c0,0,0.1,0.9,0.1,1s0,0.2,0.1,0.4c0,0.2,0.1,0.3,0.2,0.4c0.1,0.1,0.1,0.2,0.2,0.1c0.1,0,0-0.1,0-0.1
		C83.3,12.8,83.1,12.2,83.1,12.2z M82.3,12.1v-0.2c0-0.1,0-0.3,0-0.4s0-0.1-0.1-0.1c-0.1,0.1-0.1,0.2-0.1,0.3v0.1V12
		c0,0.1,0,0.5,0,0.6s0,0.2,0.1,0.2c0,0.1,0.1,0.2,0.2,0.1l0,0l0,0c0-0.1,0-0.1,0-0.1C82.4,12.4,82.3,12.3,82.3,12.1L82.3,12.1
		L82.3,12.1z M81.9,9.2c0-0.1,0-0.1,0.1-0.2V8.6c0-0.1,0.1-0.2,0.2-0.4c0-0.1,0.1-0.1,0.1-0.2c0-0.1,0-0.1,0-0.2c0,0,0-0.1-0.1-0.1
		c-0.1-0.1-0.1-0.2-0.1-0.3V7.3V7.2c0-0.1,0-0.1-0.1-0.1h-0.1c-0.1,0-0.1,0.1-0.2,0.1c-0.1,0.1-0.1,0.3-0.2,0.3s-0.1,0-0.2,0
		s-0.1,0.2-0.1,0.2c0,0.1,0.1,0.1,0.1,0.1s0.1,0,0.2,0.1L81.6,8c0,0.1,0,0.1,0,0.2c0,0.1,0,0.1-0.1,0.2c0,0.1,0.1,0.1,0.1,0.2
		c0,0.1-0.1,0.2-0.2,0.2h-0.2c-0.1,0-0.3-0.3-0.4-0.3l-0.1-0.1l-0.2-0.1C80.6,8,80.5,8,80.4,8s0,0-0.1,0C80.2,8.1,80,8,80,8.2
		c0,0.1,0.1,0.1,0.2,0.1s0.2,0,0.2,0.1c0,0,0.3,0.2,0.3,0.3c0.1,0,0.2,0.1,0.3,0.1c0.1,0,0.1,0.1,0.1,0.1c0.1,0.1,0.3,0.2,0.4,0.3
		s0.1,0.2,0.2,0.2C81.9,9.3,81.9,9.3,81.9,9.2L81.9,9.2z M83.6,8.2c0-0.1,0.1-0.2,0.2-0.3c0-0.1,0.1-0.1,0.1-0.1v0
		c0-0.1,0.1-0.2,0-0.3c0,0,0,0-0.1,0s-0.1,0.1-0.2,0.1s-0.1,0-0.2,0.1c0,0.1,0,0.1,0,0.2s0,0.1-0.1,0.2c-0.1,0-0.1,0.1-0.2,0.1
		S83,8.3,82.9,8.3v0.2c0,0.1-0.1,0.1-0.1,0.2l-0.2,0.1c0,0,0,0.3,0,0.4c0,0.1,0,0.3,0.1,0.3C82.9,9.4,83,9.2,83.1,9
		c0,0,0-0.1,0.1-0.1l0.1-0.1c0-0.1,0-0.2,0.1-0.3C83.4,8.4,83.5,8.4,83.6,8.2C83.6,8.3,83.6,8.3,83.6,8.2L83.6,8.2z M86,8.4
		c0-0.1,0.1-0.1,0.1-0.2c0,0,0,0-0.1,0s-0.1,0-0.2,0.1c-0.1,0-0.2,0.1-0.3,0.1c-0.1,0-0.1,0.1-0.1,0.1s0.1,0.1,0.2,0.1
		c0,0,0.1,0.1,0.2,0.1C85.8,8.6,85.9,8.5,86,8.4L86,8.4z M89.5,10.9c-0.1,0-0.1,0-0.2,0s-0.1,0-0.1,0.1s0.1,0.2,0.1,0.2h0.1
		c0.1,0,0.1,0,0.1-0.1C89.6,11,89.6,10.9,89.5,10.9C89.6,10.9,89.5,10.9,89.5,10.9z M88.4,10.7c-0.1,0-0.2,0.1-0.3,0.1L88,10.9
		c-0.1,0-0.2,0-0.2-0.1h-0.1c-0.1,0-0.1,0-0.1,0s0,0-0.1,0s-0.2,0.1-0.1,0.2c0,0.1,0.1,0,0.2,0h0.1c0.1,0.1,0.3,0.1,0.4,0.1
		s0.2,0,0.2-0.1c0.1-0.1,0.1-0.1,0.2-0.2c0.1,0,0.1,0,0.1-0.1C88.7,10.7,88.5,10.7,88.4,10.7L88.4,10.7z M86.2,10.1
		c0,0,0-0.1-0.1-0.1l0,0c0,0-0.1,0-0.1,0.1c-0.1,0-0.1,0.1-0.2,0.1c-0.1,0.1-0.1,0.1-0.1,0.2c0,0.2,0.3,0,0.3,0
		C86.1,10.3,86.2,10.2,86.2,10.1L86.2,10.1z M79.6,4.9C79.6,5,79.7,5,79.6,4.9c0.1,0.1,0.1,0.2,0.2,0.3c0,0,0.1,0,0.2,0l0,0
		c0-0.1-0.1-0.2-0.1-0.3c0-0.1,0.1-0.1,0.1-0.1c0-0.1-0.1-0.2,0-0.3c0-0.1,0.1-0.1,0.2-0.1s0.2-0.1,0.3-0.2c0.1,0,0.1-0.1,0.1-0.1
		V3.9l-0.1-0.1c-0.1,0-0.1,0.1-0.1,0.1C80.3,4,80.2,4.2,80,4.2c-0.1,0-0.1,0-0.1,0c-0.1,0-0.1,0.1-0.1,0.2c0,0,0,0.1-0.1,0.1v0.1
		c0,0.1,0,0.1,0.1,0.2C79.6,4.7,79.6,4.8,79.6,4.9z M86.6,10.7c-0.1,0-0.2,0.1-0.3,0.1h-0.2c0,0-0.1,0-0.1,0.1s0.1,0.1,0.1,0.1h0.2
		h0.1h0.1c0.1,0,0.1,0.2,0.2,0.1l0.1-0.1v-0.1v-0.1C86.9,10.7,86.7,10.7,86.6,10.7L86.6,10.7z M87.4,10.1c-0.1-0.1-0.1-0.2-0.2-0.3
		c0,0-0.1-0.1-0.2-0.1s-0.1,0-0.2,0c0,0-0.1,0-0.1,0.1c0,0,0,0.1,0.1,0.1l0.1,0.1l0.1,0.1c0,0.1,0.1,0.2,0.1,0.2
		c0,0.1,0.1,0.2,0.2,0.2s0.1-0.1,0.1-0.2C87.4,10.2,87.4,10.1,87.4,10.1L87.4,10.1z M76.7,15.2c-0.2,0.2-0.4,0.2-0.7-0.1
		c-0.1-0.2-0.2-0.4-0.2-0.6h0.3c0,0.1,0.1,0.3,0.1,0.4c0.1,0.1,0.2,0.2,0.3,0.1c0-0.1,0-0.2-0.1-0.3c-0.1-0.2-0.1-0.4,0-0.6
		c0.2-0.2,0.5-0.1,0.6,0l0,0c0.1,0.2,0.2,0.3,0.2,0.5h-0.3c0-0.1,0-0.2-0.1-0.3s-0.2-0.1-0.3-0.1s0,0.2,0.1,0.4
		C76.9,14.9,76.9,15.1,76.7,15.2z M76.9,16l0.9-1.1l0.2,0.2l-0.9,1.1C77.1,16.2,76.9,16,76.9,16z M78.8,17.2L78.5,17c0,0,0-1,0-1.2
		c-0.1,0.2-0.2,0.3-0.3,0.6L78,16.8l-0.3-0.1l0.7-1.2l0.3,0.2c0,0,0,0.9,0,1.1c0.1-0.2,0.2-0.3,0.3-0.5l0.2-0.4l0.3,0.1L78.8,17.2
		L78.8,17.2z M80.8,16.9c-0.1-0.2-0.2-0.2-0.4-0.2c-0.2,0-0.4,0.2-0.4,0.4l0,0c0,0.2,0.1,0.5,0.4,0.5c0,0,0,0,0.1,0s0.2,0,0.3-0.1
		l0.1,0.2c-0.1,0.1-0.3,0.1-0.4,0.1c-0.4,0-0.7-0.4-0.7-0.8s0.4-0.7,0.8-0.7l0,0c0.2,0,0.4,0.2,0.6,0.4C81,16.7,80.8,16.9,80.8,16.9
		z M82.4,17.2v0.2h-0.7v0.3h0.8v0.2h-1.1l0.1-1.4h1v0.2h-0.8V17C81.8,17.2,82.4,17.2,82.4,17.2z M84.3,17.7l-0.3-1l-0.2,0.1
		l-0.1-0.2l0.3-0.2l0.2-0.1l0.4,1.3L84.3,17.7z M85.7,17.2c-0.3,0.1-0.6,0-0.6-0.1c-0.1-0.1,0-0.3,0.1-0.4c-0.1,0-0.3-0.1-0.3-0.2
		c-0.1-0.2,0-0.4,0.3-0.5c0.2-0.1,0.4-0.1,0.6,0.1l0,0c0,0.1,0,0.2-0.1,0.3c0.2,0,0.3,0.1,0.4,0.2C86.1,16.9,86,17.1,85.7,17.2
		L85.7,17.2z M86.7,16.6l-0.1-0.2l0.1-0.2c0.1-0.4,0.2-0.6,0.1-0.8c-0.1-0.1-0.2-0.1-0.3,0l0,0c-0.1,0.1-0.1,0.2-0.1,0.3H86
		c0-0.2,0.1-0.4,0.2-0.5c0.2-0.2,0.4-0.2,0.6,0l0,0c0.2,0.2,0.1,0.5,0.1,0.8v0.2l0.4-0.3l0.2,0.2L86.7,16.6L86.7,16.6z M88.3,15.2
		c-0.2,0.2-0.6,0.2-0.9-0.1c-0.3-0.2-0.3-0.6-0.1-0.9l0,0c0.3-0.2,0.7-0.2,0.9,0.1l0,0C88.6,14.6,88.6,14.9,88.3,15.2L88.3,15.2z
		 M90.2,11.2c-0.1,0-0.1,0-0.2,0s-0.1,0.1-0.1,0.1c0,0.1-0.1,0.1-0.1,0.1c-0.1,0-0.2,0-0.3,0.1h-0.1c-0.1-0.1-0.1-0.2-0.3-0.2
		c-0.1,0-0.1,0.1-0.2,0.1s-0.1,0-0.2,0.1c0,0.1,0,0.1,0.1,0.1l0.1,0.1c0,0-0.1,0.1-0.2,0.1s-0.3,0-0.3,0c-0.1,0-0.2,0-0.3-0.1
		c-0.1-0.1-0.1-0.2-0.2-0.2c-0.1-0.1-0.2-0.1-0.3-0.1c-0.1,0-0.2,0-0.3,0.1c-0.1,0.1-0.1,0.2-0.2,0.2c0,0-0.1,0.1-0.2,0.1h-0.1
		c-0.1,0-0.1-0.1-0.2-0.2c0-0.1-0.1-0.2-0.2-0.2s-0.1,0.1-0.2,0.1c-0.1,0.1-0.1,0.1-0.2,0.1s-0.1,0-0.2-0.1c0-0.1-0.1-0.1-0.1-0.2
		c-0.1,0-0.2,0-0.3,0c-0.1,0-0.4,0.1-0.4,0.1s-0.2,0-0.2-0.1c-0.1,0-0.1-0.1-0.1-0.1c0-0.1-0.1-0.1-0.1-0.2
		c-0.1-0.1-0.1-0.2-0.1-0.4c0-0.1-0.1-0.1-0.1-0.1c-0.1-0.1-0.2-0.1-0.3-0.2c-0.1,0-0.1-0.1-0.2-0.1s-0.2,0.1-0.2,0.2
		c0,0.2-0.1,0.3-0.1,0.5c0,0.1,0,0.3,0.1,0.4c0,0.1,0,0.3,0.1,0.4c0,0.1,0,0.2,0.1,0.4c0,0.2,0.1,0.4,0.2,0.6
		c0.1,0.1,0.3,0.2,0.5,0.2c0.1,0.1,0.6,0.3,0.7,0.3l0.1,0.1c0,0-0.2,0-0.3,0c-0.4-0.1-0.8-0.2-1.2-0.1c-0.1,0-0.2,0-0.2,0.1
		c0,0,0,0.1,0.1,0.1c0.1,0.1,0.1,0.2,0.1,0.3s0,0.1,0,0.2c0,0-0.1,0-0.2-0.1c-0.1,0-0.7-0.4-1.3-0.4c-0.4,0-0.9,0.2-1.3,0.4
		c-0.1,0-0.1,0.1-0.2,0.1s0-0.1,0-0.1c0-0.1,0.1-0.2,0.1-0.3c0,0,0-0.1,0.1-0.1c0-0.1-0.2-0.1-0.3-0.1c-0.2,0-0.4,0-0.7,0
		c-0.1,0-0.5,0.1-0.5,0.1c-0.1,0-0.2,0.1-0.2,0l0.1-0.1c0.1-0.1,0.2-0.1,0.2-0.1c0.1,0,0.3-0.1,0.3-0.1c0.1,0,0.1-0.1,0.2-0.1
		c0.2,0,0.3-0.1,0.4-0.2c0-0.1,0.1-0.1,0.1-0.2c0-0.1,0.1-0.2,0.1-0.2c0-0.1,0.1-0.2,0.1-0.2s0-0.2,0.1-0.3c0-0.2,0.1-0.4,0.1-0.6
		c0-0.1,0-0.2,0.1-0.3c0-0.1,0-0.2,0-0.3s0-0.1-0.1-0.1c0-0.1,0-0.1-0.1-0.1c0-0.1-0.1-0.1-0.2-0.1s-0.1,0-0.2,0.1
		c-0.1,0-0.1,0.1-0.2,0.1h-0.1c-0.1,0-0.2,0-0.3,0.1c-0.1,0.1-0.2,0.2-0.1,0.3c0,0.1,0.1,0.1,0.1,0.1l0.1,0.1c0,0-0.2,0.1-0.2,0.2
		c-0.1,0-0.2,0-0.2,0.1c-0.1,0-0.2,0-0.3,0c-0.1,0-0.3-0.1-0.4,0s-0.1,0.1-0.1,0.2c0,0.1-0.1,0.2-0.2,0.2s-0.2-0.1-0.3-0.1
		c-0.1,0-0.2,0-0.2,0.1c-0.1,0-0.1,0.1-0.2,0.1s-0.2-0.1-0.3-0.2l-0.1-0.1l-0.1-0.1c-0.1,0-0.2,0.1-0.2,0.1c-0.1,0-0.2,0.1-0.2,0.1
		c-0.1,0-0.1-0.1-0.2-0.1s-0.1,0.1-0.2,0.1s-0.2-0.2-0.3-0.2c-0.1,0-0.1,0-0.2,0c-0.1-0.1,0-0.3,0-0.4c0,0,0.1-0.1,0-0.1
		C76.2,11,76,11,76,11h-0.1c-0.1,0-0.1,0.1-0.2,0.1s-0.2,0.1-0.3,0.2c-0.1,0.1-0.2,0.1-0.3,0.1c-0.1,0-0.2-0.1-0.3-0.1
		c-0.1,0-0.1,0.2-0.2,0.2s-0.2,0-0.3-0.1c-0.2-0.1,0.1-0.2,0.1-0.3s-0.1-0.2-0.1-0.3s0.1-0.2,0.2-0.2l0.1-0.2c0-0.1,0.1-0.1,0.1-0.1
		s0.1,0,0.2,0s0.2-0.1,0.2-0.2c0-0.1-0.1-0.1-0.2-0.1s-0.2-0.1-0.2-0.1c0-0.1,0-0.1,0.1-0.2c0-0.1,0-0.1,0.1-0.2
		c0-0.1,0.1-0.1,0.1-0.1c0.1,0,0.1-0.1,0.2-0.1s0.1,0.1,0.2,0.1c0.1,0.1,0.1,0.2,0.2,0.1l0.1-0.1c0-0.1,0-0.2,0-0.2
		c0.1-0.1,0.2-0.1,0.3-0.1h0.1c0.1,0,0.1,0.1,0.1,0.2s0.1,0.2,0.1,0.2l0.1-0.1c0-0.1,0.1-0.2,0.2-0.2c0,0,0.1,0,0.1-0.1
		s0-0.1,0.1-0.2c0-0.1-0.2-0.1-0.3-0.2c-0.1,0-0.1,0-0.2-0.1c-0.1,0-0.2,0-0.2-0.1s0-0.1,0-0.2C76,8.1,76,8,76.1,8c0,0,0.1,0,0.2,0
		s0.1,0,0.1-0.1s0-0.1,0-0.2c0,0-0.1-0.1-0.1-0.2s0-0.1,0-0.2s-0.2-0.2-0.1-0.4c0-0.1,0.1-0.1,0.2-0.1s0.1,0,0.2,0
		c0.1-0.1,0.1-0.2,0.1-0.3s-0.1-0.2,0-0.3c0-0.1,0.1-0.1,0.2-0.1C76.9,6.2,77,6,77.1,6c0,0,0.1,0,0.2,0s0.1-0.1,0.2-0.1
		s0.1,0.2,0.1,0.2c0,0.1,0.1,0.2,0.1,0.2c0.1,0,0.2-0.1,0.2-0.1c0-0.1,0-0.1,0-0.2V5.9V5.8c0-0.1,0.1-0.2,0.1-0.2
		c0.1,0,0.1-0.1,0.1-0.1l0.1-0.1c0,0,0.1-0.1,0.1-0.2c0.1-0.1,0.1-0.1,0.2-0.1s0.1,0.1,0.1,0.2s0.1,0.2,0.2,0.2s0.1-0.1,0.1-0.2
		C78.9,5.1,79,5,79,4.8c0-0.1,0-0.1-0.1-0.2c0-0.1-0.1-0.2-0.1-0.3c0-0.1,0.1-0.1,0.1-0.1C79,4.2,79,4.1,79,4.1
		c0.1-0.1,0.1-0.3,0.2-0.3c0.1-0.1,0.3,0.1,0.4,0c0.1,0,0.1-0.1,0.1-0.2c0-0.1,0.1-0.2,0.1-0.2l0.1-0.1c0.1,0,0.1,0,0.2-0.1
		c0,0,0,0,0.1,0c0.1-0.1,0.1-0.1,0.1-0.1c0.1,0,0.1,0,0.2,0h0.1h0.1C81,3,81.1,3,81.2,2.9s0.2-0.1,0.3-0.1h0.1c0,0,0.1,0,0.2,0
		S82,2.6,82,2.6c0.1,0,0.2,0,0.3,0.1c0.1,0,0.1,0.1,0.2,0.1s0.1-0.1,0.2-0.2c0.1-0.1,0.1-0.2,0.2-0.2H83c0.1,0,0.2,0,0.2,0.1h0.1
		c0.1,0,0.1-0.1,0.2-0.1s0.1,0,0.1,0c0.1,0.1,0.2,0.2,0.3,0.4C83.9,2.9,84,2.9,84,3c0,0,0.1,0.1,0.1,0.2l0.1,0.1h0.1h0.1h0.1
		c0.1,0,0.1,0.1,0.2,0.1s0.1,0,0.2-0.1S85,3.1,85,3.1h0.1c0.2,0.1,0.3,0.2,0.5,0.3c0.1,0.1,0.1,0.1,0.2,0.2c0,0.1,0,0.2,0,0.3
		s0,0.2,0.1,0.3c0,0.1,0.1,0.2,0.1,0.3c0,0.1,0.1,0.1,0.2,0.2l0.1,0.1c0,0,0.1,0.1,0.1,0.2s0,0.2,0.1,0.3c0,0.1,0.2,0.1,0.3,0.1
		c0.1,0,0.2,0.1,0.2,0.1v0.1c0,0.1-0.1,0.2-0.1,0.3c0,0.1,0,0.1,0,0.1c0,0.1,0.2,0,0.3,0c-0.2,0-0.1,0-0.1,0s0.1,0,0.2,0
		s0.2,0.1,0.2,0.2l0.1,0.1c0.1,0.1,0.3,0.2,0.4,0.2s0.2,0.1,0.3,0.1c0.1,0.1,0.2,0.1,0.2,0.2s0,0.2,0,0.3c0,0.1-0.1,0.2-0.1,0.2
		c-0.1,0.1-0.2,0.1-0.2,0.2s0.2,0.2,0.3,0.2c0.1,0,0.1,0.1,0.2,0.1s0.1,0.1,0.1,0.1c0,0.1,0,0.2-0.1,0.2c0,0.1-0.1,0.1-0.1,0.2
		c0,0.1,0,0.1,0,0.2c0.1,0.1,0.2,0,0.3-0.1L89,8.3l0.1-0.1c0.1,0,0.1,0.1,0.1,0.2c0,0.1,0.1,0.2,0.1,0.3c0.1,0,0.1,0.1,0.2,0.1
		s0.2,0.1,0.2,0.2c0,0.1,0,0.1,0,0.2v0.2c0,0.1-0.1,0.1-0.1,0.1s-0.1,0-0.1,0.1c-0.1,0.1-0.3,0.1-0.4,0.1s-0.2,0-0.3,0.1
		c-0.1,0-0.2,0.1-0.2,0.2c0,0.1,0.2,0.1,0.3,0.1c0.1,0,0.1,0.2,0.2,0.2h0.2l0.1-0.1c0,0,0.1-0.1,0.2-0.1s0.1,0,0.2,0.1
		c0,0,0.1,0,0.2,0s0.1,0.2,0.2,0.2c0.1,0.1,0.2,0.1,0.3,0.3c0,0,0.1,0.2,0.1,0.3C90.4,11.2,90.3,11.2,90.2,11.2L90.2,11.2z
		 M76.6,9.9c0.1,0,0.1-0.1,0.1-0.1s0-0.1,0.1-0.2c0-0.1,0.1-0.1,0.2-0.2c-0.1-0.1,0-0.2,0-0.3V9c0-0.1,0-0.2-0.1-0.2
		S76.8,8.9,76.8,9c0,0.1-0.1,0.2-0.1,0.4l-0.2,0.2c-0.1,0.1-0.2,0.1-0.1,0.3C76.4,9.8,76.5,9.9,76.6,9.9L76.6,9.9L76.6,9.9z
		 M78,10.3v0.1c0,0.1,0,0.3,0.1,0.3s0.1,0,0.1-0.1v-0.1v-0.1c0-0.1,0-0.1,0-0.2v-0.1L78.1,10C78,10.2,78,10.2,78,10.3L78,10.3z
		 M77.5,8.3c-0.1-0.1-0.1-0.1-0.1-0.1s-0.1,0-0.1,0.1s0,0.1,0.1,0.2c0,0,0.1,0.1,0.2,0.1s0.1-0.1,0.1-0.2
		C77.6,8.3,77.6,8.3,77.5,8.3L77.5,8.3z M81.6,12.2c-0.1,0-0.2,0.4-0.2,0.4c0,0.1-0.1,0.1,0,0.2c0,0,0.1,0.1,0.1,0l0,0
		c0.1,0,0.1-0.1,0.1-0.2C81.6,12.5,81.7,12.4,81.6,12.2C81.7,12.3,81.7,12.2,81.6,12.2L81.6,12.2z M77.9,6.9
		C77.9,6.9,78,6.9,77.9,6.9c0.2-0.2,0.3-0.2,0.3-0.2c0.1-0.1,0.2-0.1,0.3-0.2c0.1,0,0.2,0,0.2-0.1s-0.1-0.2-0.1-0.2S78.5,6.1,78.5,6
		s0.1-0.1,0.1-0.1s0.1,0,0.1-0.1l0.4-0.1c0.1,0,0.1-0.2,0.2-0.2s0.2,0,0.2-0.1V5.3c0,0-0.1-0.1-0.2-0.1s-0.4,0.3-0.4,0.3
		s0.1,0.2,0,0.2s-0.3,0-0.4,0.1l-0.1,0.1c0,0,0,0.1,0,0.2c0,0,0.1,0.1,0,0.2c0,0.1-0.3,0.2-0.3,0.2h-0.2c-0.1,0.1-0.2,0.2-0.1,0.3
		C77.8,6.9,77.9,6.9,77.9,6.9L77.9,6.9z M76.9,8.1c0.2,0,0.2-0.2,0.3-0.3c0,0,0.1-0.1,0.2-0.1c0.2,0,0.3,0.1,0.4,0.1s0.1,0,0.2-0.1
		c0.1,0,0.1-0.1,0.2-0.2s0.2-0.1,0.3-0.2c0.1,0,0.1,0,0.2,0c0,0,0.1,0,0.1-0.1C79,7.1,78.9,7,78.7,7c-0.1,0-0.1,0-0.2-0.1h-0.2
		c-0.1,0-0.1,0.1-0.2,0.2s-0.2,0.2-0.4,0.2h-0.2h-0.1c-0.1,0-0.1,0-0.2,0.1C77.1,7.6,77,7.6,77,7.6c-0.1,0.1-0.1,0.1-0.1,0.2
		C76.8,8,76.8,8.1,76.9,8.1L76.9,8.1z M77,6.8L77,6.8c0.2,0.1,0.3,0.2,0.4,0.1c0-0.1,0-0.1-0.1-0.2c0-0.1-0.1-0.1-0.1-0.1
		c-0.1,0-0.1-0.1-0.2-0.1s-0.1,0.1-0.1,0.1C76.8,6.7,76.9,6.8,77,6.8C76.9,6.8,77,6.8,77,6.8z M77.7,9.8c0.1-0.1,0.1-0.2,0-0.2
		l-0.1-0.1l-0.1-0.1c0-0.1-0.1-0.1-0.1-0.1c-0.1,0-0.1,0.1-0.1,0.1s0,0.1-0.1,0.1c0,0.1,0,0.1,0,0.2c0,0.1,0.1,0.1,0.1,0.2
		c0.1,0.1,0.2,0.1,0.2,0.1C77.6,9.9,77.7,9.9,77.7,9.8L77.7,9.8z M79,8.7c0.1,0,0.1-0.1,0.2-0.2c0,0,0-0.1-0.1-0.1L79,8.3h-0.1
		c-0.1,0-0.1,0-0.1,0.1v0.1c0,0.1-0.1,0.1-0.2,0.2h-0.2h-0.1h-0.1c-0.1,0-0.1,0.1-0.1,0.1l0.1,0.1c0.1,0,0.2,0,0.3,0
		c0.1,0,0.1,0,0.2,0h0.1C78.8,8.8,78.9,8.8,79,8.7L79,8.7L79,8.7z M78.2,11.1c0,0-0.1,0-0.2,0s-0.1,0-0.2,0s-0.2,0-0.2,0.1
		s0.1,0.1,0.1,0.2c0.1,0,0.1,0.1,0.2,0.1h0.3c0.1,0,0.2-0.1,0.2-0.2C78.4,11.1,78.3,11.1,78.2,11.1L78.2,11.1z M80.9,9.6
		c-0.1-0.1-0.2-0.2-0.4-0.3c-0.1,0-0.2-0.1-0.4-0.1c-0.1,0-0.2-0.1-0.2,0c-0.1,0,0,0.1-0.1,0.2c0,0.1-0.1,0.1-0.1,0.1
		c-0.1,0-0.1-0.1-0.2,0c-0.1,0-0.1,0.2-0.2,0.2S79.1,9.6,79,9.6h-0.3l-0.1,0.1c0,0.1,0.1,0.1,0.2,0.1S79,9.9,79.2,10
		c0,0.1,0.1,0.1,0.2,0.1s0.2,0,0.3,0c0.1,0,0.1-0.1,0.1-0.1c0.1-0.1,0.2-0.1,0.3-0.2c0.1,0,0.1-0.1,0.2-0.1s0.2,0,0.2,0h0.2
		c0.1,0,0.1,0.1,0.2,0.1s0.1,0,0.2-0.1C81.2,9.7,81,9.6,80.9,9.6L80.9,9.6z M77.1,10.2c-0.1,0-0.2,0.1-0.2,0.2l0.1,0.1l0.1,0.1
		c0.1,0.1,0.2,0.2,0.3,0.1c0-0.1,0-0.1,0-0.2c0-0.1,0-0.2-0.1-0.2C77.2,10.2,77.1,10.1,77.1,10.2L77.1,10.2L77.1,10.2z M79.2,10.5
		L79.2,10.5c-0.2-0.1-0.2,0-0.2,0.1v0.1c0,0.1-0.1,0.1-0.1,0.2S79,11,79,11h0.2c0.1,0,0.1-0.1,0.1-0.2
		C79.2,10.8,79.2,10.7,79.2,10.5C79.2,10.6,79.2,10.6,79.2,10.5L79.2,10.5z M76.9,11C76.8,11,76.8,11,76.9,11
		c-0.2-0.1-0.2-0.2-0.2-0.3s-0.1-0.1-0.1-0.2c0-0.1-0.1-0.1-0.1-0.1s-0.1-0.1-0.2-0.1s-0.1,0.1-0.1,0.2s0.1,0.1,0.1,0.1
		c0.1,0,0.1,0,0.2,0.1s0,0.3,0.1,0.4c0,0.1,0.1,0.1,0.2,0.1c0,0,0.1,0,0.2,0s0.2,0,0.2-0.1C77,11,77,11,76.9,11z"></path>
  </g>
  <path d="M418-35c0-1.9-2.7-11-1.3-11.7c0.3-0.2,0.6-0.3,0.9-0.4c1.2-0.6,2.4-1.1,3.6-1.7c2.2-1.1,4.3-2.4,5.9-4.4
	c1.6-1.9,2.8-4.1,4.1-6.1c0.1-0.2,0.5-0.6,0.5-0.8c0-0.2-0.3-0.9-0.4-1.1c-0.2-0.6-0.5-1.2-0.7-1.9c-0.6-1.5-1.1-3-1.7-4.4
	c-1.1-2.8-2.1-5.6-3.2-8.4c-2.2-5.7-4.4-11.4-6.5-17.1c-2.4-6.3-4.8-12.6-7.2-19c3.1,0,6.2,0,9.3,0c0.7,0,1.5,0,2.2,0
	c0.5,0,1.8-0.2,2.2,0c0.6,0.4,1,2.6,1.2,3.2c1.2,3.2,2.4,6.3,3.5,9.5c0.7,1.8,1.3,3.6,2,5.4c0.5,1.4,1.9,3.5,1.9,5
	c1,2.8,2.1,5.6,3.1,8.4c0.5,1.4,1.4,1,1.8-0.2c1.3-3.9,2.7-7.8,4-11.6c2.1-6,4.1-12,6.2-18c0.1-0.3,0.2-0.8,0.4-1.1
	c0-1.5,13.4,0.5,13.7-0.4c-4.4,12.4-8.9,24.8-13.3,37.3c-2.3,6.3-4.4,12.7-7,18.8c-2.1,4.9-4.6,9.5-8.6,13.2c-2.4,2.2-5.3,4-8.3,5.4
	C425.7-37,418.2-33.6,418-35z"></path>
  <path d="M307.5-128.8c0.5-0.2,0.9-0.5,1.4-0.6c0.4-0.1,0.9,0,1.4,0c1.3,0,2.6,0,3.9,0c2.5,0,5,0,7.5,0c5,0,10,0.1,14.9,0.3
	c6.1,0.4,12.3,2.4,16.6,7c5,5.4,6.5,13.2,5.7,20.3c-0.7,6.6-3.6,13-9.1,16.9c-8.1,5.8-18.7,4.8-28.1,4.8c0,6.8,0,13.6,0,20.5
	c0,0.2,0.1,1,0,1.2c-0.1,0.1-1.2,0-1.4,0c-0.9,0-1.8,0-2.7,0c-1.6,0-3.2,0-4.9,0c-0.8,0-1.6,0-2.4,0c-0.8,0-1.9,0.2-2.6,0
	c-0.4-0.1-0.2,0.1-0.4-0.2c-0.1-0.1,0-0.5,0-0.6c0-0.4,0-0.8,0-1.2c0-0.9,0-1.9,0-2.8c0-14,0-28,0-42
	C307.5-113,307.5-120.9,307.5-128.8z M322-91.9c0,0,8.2,0.1,8.9,0.1c9.3-0.1,13.3-6,13.1-14.8c-0.1-6.2-3.4-9.8-9.5-10.9
	c-3.7-0.7-7.7-0.5-11.4-0.1c-0.2,0-1,0-1.2,0.1c-0.1,0.1,0,0.9,0,1.1c0,0.8,0,1.6,0,2.5C322-106.5,322-99.2,322-91.9z"></path>
  <path d="M395.6-58.8c-0.3-0.2-0.6-0.5-0.9-0.8c-0.6-0.7-1.1-4.3-2.6-3.8c-2.3,0.8-4.3,3.5-6.6,4.6c-3.1,1.6-6.7,2.1-10.1,1.7
	c-6.8-0.8-13-5.5-14.7-12.3c-0.9-3.7-0.6-7.7,1.3-11.1c2.1-3.7,5.7-6,9.6-7.4c3.6-1.3,7.5-1.8,11.3-2c1.5-0.1,8.5,0.8,9-0.4
	c0.1-0.3,0.1-0.7,0.1-1c0.1-1.6,0.1-3.3-0.3-4.9c-2.6-9.7-15.6-4.8-22.2-3.6c-0.4-2.7-0.9-5.5-1.3-8.2c-0.2-1.5-0.3-1.4,1.2-2.1
	c1.2-0.6,2.6-1,3.9-1.4c7.2-2,17.3-2.7,24,1.4c4.5,2.8,7.5,7.6,8.2,12.9c1.3,11.1,0.4,22.4,0.3,33.5c0,1,0.5,4.4-0.1,5.1
	c-0.6,0.7-2.9,0.3-3.9,0.3C400.1-58.4,397.4-57.8,395.6-58.8z M392.2-81.4c-2.5,0.2-5.1,0.2-7.6,0.3c-2.1,0.1-4.4,0.3-6.4,1.1
	c-2.9,1.3-5.1,4.5-3.9,7.7c2.3,5.9,11.7,6,15.4,1.4C392-73.7,392.4-77.8,392.2-81.4z"></path>
  <g>
    <path d="M96.1,4.9c0.7-0.1,1.6-0.2,2.9-0.2c1.4,0,2.4,0.3,3,0.8c0.6,0.5,1,1.3,1,2.3c0,1-0.3,1.8-0.9,2.3c-0.8,0.8-1.9,1.1-3.3,1.1
		c-0.4,0-0.7,0-0.9-0.1v3.9h-1.9V4.9z M98,9.8c0.2,0.1,0.5,0.1,0.9,0.1c1.4,0,2.3-0.7,2.3-1.9c0-1.1-0.8-1.8-2.1-1.8
		c-0.5,0-0.9,0-1.1,0.1V9.8z"></path>
    <path d="M109.6,13.4c0,0.7,0,1.3,0.1,1.8H108l-0.1-0.8h0c-0.4,0.6-1.2,1-2.2,1c-1.5,0-2.4-1.1-2.4-2.2c0-1.9,1.7-2.8,4.4-2.8v-0.1
		c0-0.5-0.2-1.3-1.5-1.3c-0.7,0-1.5,0.2-2,0.6l-0.4-1.2c0.6-0.3,1.5-0.7,2.7-0.7c2.4,0,3.1,1.5,3.1,3.2V13.4z M107.8,11.5
		c-1.3,0-2.6,0.3-2.6,1.4c0,0.7,0.5,1.1,1.1,1.1c0.8,0,1.3-0.5,1.5-1c0-0.1,0-0.3,0-0.4V11.5z"></path>
    <path d="M112.1,7.7l1.3,4c0.2,0.5,0.3,1,0.4,1.4h0c0.1-0.4,0.2-1,0.4-1.5l1.2-4h2l-1.9,5.1c-1,2.8-1.7,4-2.6,4.8
		c-0.8,0.6-1.5,0.9-2,1l-0.4-1.6c0.3-0.1,0.7-0.2,1.1-0.5c0.4-0.2,0.8-0.7,1-1.2c0.1-0.1,0.1-0.2,0.1-0.3c0-0.1,0-0.2-0.1-0.4
		L110,7.7H112.1z"></path>
  </g>
</svg>
