<svg xmlns="http://www.w3.org/2000/svg"
     viewBox="0 0 36 19" preserveAspectRatio="xMidYMin slice" width="100%">
  <g fill="none">
    <path fill="#FFF" d="M26.4255319,0 L9.57446809,0 C4.30851064,0 0,4.275 0,9.5 L0,9.5 C0,14.725 4.30851064,19 9.57446809,19 L26.4255319,19 C31.6914894,19 36,14.725 36,9.5 L36,9.5 C36,4.275 31.6914894,0 26.4255319,0 Z"></path>
    <path fill="#3C4043" d="M26.4255319,0.7695 C27.6079787,0.7695 28.7569149,1.00225 29.8388298,1.45825 C30.887234,1.9 31.8255319,2.53175 32.6393617,3.3345 C33.4484043,4.13725 34.0851064,5.073 34.5303191,6.11325 C34.9898936,7.18675 35.2244681,8.32675 35.2244681,9.5 C35.2244681,10.67325 34.9898936,11.81325 34.5303191,12.88675 C34.0851064,13.927 33.4484043,14.858 32.6393617,15.6655 C31.8303191,16.46825 30.887234,17.1 29.8388298,17.54175 C28.7569149,17.99775 27.6079787,18.2305 26.4255319,18.2305 L9.57446809,18.2305 C8.39202128,18.2305 7.24308511,17.99775 6.16117021,17.54175 C5.11276596,17.1 4.17446809,16.46825 3.3606383,15.6655 C2.55159574,14.86275 1.91489362,13.927 1.46968085,12.88675 C1.01010638,11.81325 0.775531915,10.67325 0.775531915,9.5 C0.775531915,8.32675 1.01010638,7.18675 1.46968085,6.11325 C1.91489362,5.073 2.55159574,4.142 3.3606383,3.3345 C4.16968085,2.53175 5.11276596,1.9 6.16117021,1.45825 C7.24308511,1.00225 8.39202128,0.7695 9.57446809,0.7695 L26.4255319,0.7695 M26.4255319,0 L9.57446809,0 C4.30851064,0 0,4.275 0,9.5 L0,9.5 C0,14.725 4.30851064,19 9.57446809,19 L26.4255319,19 C31.6914894,19 36,14.725 36,9.5 L36,9.5 C36,4.275 31.6914894,0 26.4255319,0 L26.4255319,0 Z"></path>
    <g transform="translate(5.481 5.434)">
      <g fill="#3C4043" transform="translate(10.766 .518)">
        <path d="M.919148936 4.22275L.919148936 7.0965-3.55271368e-15 7.0965-3.55271368e-15 0 2.43670213 0C3.05425532 0 3.58085106.20425 4.01170213.61275 4.45212766 1.02125 4.67234043 1.52 4.67234043 2.109 4.67234043 2.71225 4.45212766 3.211 4.01170213 3.61475 3.5856383 4.0185 3.05904255 4.218 2.43670213 4.218L.919148936 4.218.919148936 4.22275zM.919148936.874L.919148936 3.34875 2.45585106 3.34875C2.81968085 3.34875 3.12606383 3.22525 3.36542553 2.983 3.60957447 2.74075 3.73404255 2.44625 3.73404255 2.11375 3.73404255 1.786 3.60957447 1.49625 3.36542553 1.254 3.12606383 1.00225 2.82446809.87875 2.45585106.87875L.919148936.87875.919148936.874zM7.07553191 2.0805C7.75531915 2.0805 8.29148936 2.261 8.68404255 2.622 9.07659574 2.983 9.27287234 3.477 9.27287234 4.104L9.27287234 7.0965 8.39680851 7.0965 8.39680851 6.422 8.35851064 6.422C7.98031915 6.97775 7.47287234 7.25325 6.84095745 7.25325 6.3 7.25325 5.85 7.0965 5.48617021 6.77825 5.12234043 6.46 4.94042553 6.06575 4.94042553 5.59075 4.94042553 5.08725 5.13191489 4.68825 5.51489362 4.39375 5.89787234 4.0945 6.41010638 3.94725 7.04680851 3.94725 7.59255319 3.94725 8.04255319 4.047 8.39202128 4.2465L8.39202128 4.0375C8.39202128 3.71925 8.26755319 3.45325 8.01382979 3.23 7.76010638 3.00675 7.46329787 2.8975 7.12340426 2.8975 6.61117021 2.8975 6.20425532 3.11125 5.90744681 3.5435L5.09840426 3.04C5.54361702 2.39875 6.20425532 2.0805 7.07553191 2.0805zM5.88829787 5.605C5.88829787 5.8425 5.98882979 6.042 6.19468085 6.19875 6.39574468 6.3555 6.63510638 6.43625 6.90797872 6.43625 7.29574468 6.43625 7.64042553 6.29375 7.94202128 6.00875 8.24361702 5.72375 8.39680851 5.39125 8.39680851 5.0065 8.10957447 4.78325 7.71223404 4.66925 7.2 4.66925 6.82659574 4.66925 6.51542553 4.7595 6.26648936 4.93525 6.01276596 5.1205 5.88829787 5.34375 5.88829787 5.605z"></path>
        <polygon points="14.271 2.237 11.207 9.229 10.259 9.229 11.398 6.783 9.378 2.237 10.379 2.237 11.834 5.724 11.853 5.724 13.27 2.237"></polygon>
      </g>
      <path fill="#4285F4" d="M8.02962766,4.161 C8.02962766,3.86365 8.00281915,3.579125 7.95303191,3.305525 L4.10026596,3.305525 L4.10026596,4.873025 L6.31914894,4.8735 C6.22914894,5.39505 5.93952128,5.83965 5.49574468,6.13605 L5.49574468,7.153025 L6.81654255,7.153025 C7.58776596,6.4448 8.02962766,5.3979 8.02962766,4.161 Z"></path>
      <path fill="#34A853" d="M5.4962234,6.13605 C5.12856383,6.3821 4.65510638,6.526025 4.1012234,6.526025 C3.0312766,6.526025 2.12361702,5.810675 1.79856383,4.846425 L0.436117021,4.846425 L0.436117021,5.895225 C1.11111702,7.224275 2.49845745,8.136275 4.1012234,8.136275 C5.20898936,8.136275 6.13962766,7.7748 6.81702128,7.15255 L5.4962234,6.13605 Z"></path>
      <path fill="#FABB05" d="M1.67026596,4.068375 C1.67026596,3.797625 1.71574468,3.5359 1.79856383,3.28985 L1.79856383,2.24105 L0.436117021,2.24105 C0.157021277,2.790625 0,3.410975 0,4.068375 C0,4.725775 0.1575,5.346125 0.436117021,5.8957 L1.79856383,4.8469 C1.71574468,4.60085 1.67026596,4.339125 1.67026596,4.068375 Z"></path>
      <path fill="#E94235" d="M4.1012234,1.61025 C4.70585106,1.61025 5.24728723,1.816875 5.67478723,2.220625 L6.84526596,1.0602 C6.1343617,0.403275 5.20755319,0 4.1012234,0 C2.49893617,0 1.11111702,0.912 0.436117021,2.24105 L1.79856383,3.28985 C2.12361702,2.3256 3.0312766,1.61025 4.1012234,1.61025 Z"></path>
    </g>
  </g>
</svg>
