<svg viewBox="0 0 32 32" preserveAspectRatio="xMidYMin slice" width="100%">
  <path fill="currentColor" d="M20.5,26.2c0.5-0.2,1.1,0,1.3,0.5c0.2,0.5,0,1.1-0.5,1.3c-1.5,0.6-3.1,1-4.8,1
	C9.6,29,4,23.4,4,16.5S9.6,4,16.5,4S29,9.6,29,16.5c0,2.4-0.7,4.8-2,6.8c-0.3,0.5-0.9,0.6-1.4,0.3c-0.5-0.3-0.6-0.9-0.3-1.4
	c1.1-1.7,1.7-3.6,1.7-5.7C27,10.7,22.3,6,16.5,6S6,10.7,6,16.5S10.7,27,16.5,27C17.9,27,19.3,26.7,20.5,26.2z M15,21.3
	c0,0.4-0.4,0.7-1,0.7s-1-0.3-1-0.7v-8.7c0-0.4,0.4-0.7,1-0.7s1,0.3,1,0.7V21.3z M20,21.3c0,0.4-0.4,0.7-1,0.7s-1-0.3-1-0.7v-8.7
	c0-0.4,0.4-0.7,1-0.7s1,0.3,1,0.7V21.3z"></path>
</svg>
