<svg viewBox="0 0 54 18" preserveAspectRatio="xMidYMin slice" width="100%">
  <path fill="#20AA5E"
        d="M20.5927102,10.3401702 L21.2449835,10.3401702 L21.2449835,10.6889764 C21.2449835,12.3246126 20.8237871,13.3039751 19.0090805,13.3039751 C18.2933706,13.3039751 17.3679197,12.9736474 17.2117094,11.4892685 C16.5805817,12.7029464 15.505207,13.3234061 13.9977775,13.3234061 C12.1209677,13.3234061 11.0505461,12.4760605 11.0505461,11.0897892 C11.0505461,9.26212852 12.9926975,8.14179578 17.0865507,7.60744221 L17.0865507,6.76466853 C17.0865507,5.24028448 16.5990602,4.64725679 15.1676403,4.64725679 C14.0111125,4.64725679 13.3986538,5.13760478 13.2879731,5.43059436 C13.3390272,5.45974092 13.4051308,5.49288799 13.4605664,5.52070104 C13.8078486,5.69291339 14.3907798,5.98114046 14.3907798,6.58293117 C14.3907798,7.12604775 13.8689992,7.55257811 13.1999619,7.55257811 L13.1898654,7.55257811 L13.1801499,7.55257811 C12.4373889,7.55257811 11.9190373,7.05499111 11.9190373,6.34194818 C11.9190373,5.07988316 13.2512065,3.98507747 15.3754763,3.98507747 L15.3848108,3.98507747 L15.3954788,3.98507747 C16.6516383,3.98831598 17.8567437,4.32816866 18.4389129,4.91929134 C19.0862332,5.58909068 19.1374778,6.42748285 19.1374778,7.54133858 L19.1374778,11.3502032 C19.1374778,12.4109093 19.2969266,12.6257938 19.6722123,12.6257938 C20.1745618,12.6257938 20.5927102,12.0464821 20.5927102,10.5485776 L20.5927102,10.3401702 Z M26.4044958,4.34550419 L31.2072009,4.34550419 L31.2072009,4.82956566 L31.1127127,4.84213868 C29.9436119,4.99282449 29.1437008,5.60547371 28.5222885,6.82658115 L24.6494158,14.6066167 C24.5545466,14.7980696 24.4572009,14.978283 24.3571882,15.1470663 C23.5500381,16.4849505 22.5811532,17.1435103 21.4143383,17.1435103 C20.1033147,17.1435103 19.2226314,16.4384684 19.2226314,15.3888113 C19.2226314,14.5460376 19.8531877,13.9364364 20.7233934,13.9364364 C21.5255906,13.9364364 22.0864237,14.4585979 22.0864237,15.2097409 C22.0864237,15.7088519 21.7837186,16.009652 21.5836932,16.2068199 C21.5431166,16.2477775 21.4733934,16.3184531 21.4478664,16.3556007 C21.4669164,16.3674117 21.5324486,16.4013208 21.7376175,16.4013208 C22.4998095,16.4013208 23.0974092,15.8934468 23.7186309,14.8977013 C24.0741046,14.3359157 24.266129,13.9674879 24.6697993,13.0923292 C24.6275083,13.0022225 21.6063627,6.53644907 21.6063627,6.53644907 C21.1339218,5.50641351 20.8651257,4.86214122 19.3565532,4.84309119 L19.2504445,4.84213868 L19.2504445,4.34550419 L25.0767082,4.34550419 L25.0767082,4.84023368 L24.9702184,4.84309119 C23.7595885,4.86404623 23.479172,4.98215646 23.479172,5.36544323 C23.479172,5.56813564 23.5643256,5.6984379 23.7102489,6.02476505 C23.7102489,6.02476505 25.6868809,10.3108331 25.8640462,10.6927864 C26.2760986,9.83972568 27.766002,6.77686055 27.7665735,6.77590805 C27.9488824,6.40424181 28.0940437,6.01543053 28.0940437,5.65367031 C28.0940437,5.04311659 27.6168402,4.9002413 26.507366,4.84213868 L26.4044958,4.83756668 L26.4044958,4.34550419 Z M6.40957582,7.71755144 L4.82137414,7.71755144 L4.82137414,10.3014986 C4.82137414,12.0762002 5.06921514,12.4105283 7.34683769,12.4105283 L7.4481839,12.4105283 L7.4481839,12.8825883 L0,12.8825883 L0,12.4114808 L0.0986791974,12.4105283 C2.21799594,12.3924308 2.46355093,12.0381001 2.46355093,10.3014986 L2.46355093,2.58166116 C2.46355093,0.844488189 2.21799594,0.48977648 0.0986791974,0.471107442 L0,0.469202438 L0,0 L6.18764288,0 C10.763462,0 12.0948692,2.24618999 12.0948692,4.02089154 C12.0948692,6.23869698 10.0452756,7.71755144 6.40957582,7.71755144 Z M40.9724409,4.85566421 L40.5649606,4.85566421 C40.0885192,2.07454915 39.0047625,0.665417831 35.3833503,0.665417831 C34.1174752,0.665417831 34.1323343,0.824485649 34.1323343,2.2490475 L34.1323343,5.89312929 L34.2325375,5.89312929 C36.3107061,5.89312929 37.1812929,5.22637795 37.3013081,3.18097536 L37.7350775,3.18097536 L37.7350775,9.48844298 L37.2984506,9.48844298 C37.1460503,7.3479807 36.3385192,6.53835408 34.3668402,6.53835408 C34.3668402,6.53835408 34.1881509,6.5507366 34.1323343,6.55359411 L34.1323343,10.4192278 C34.1323343,12.0510541 34.0026035,12.2059309 35.5572771,12.1981204 C38.7546355,12.1817374 40.3390272,10.9352934 40.6613538,7.58039116 L41.1193167,7.58039116 L41.1193167,12.8825883 L29.4370714,12.8825883 L29.4370714,12.4173863 L29.5334646,12.4162433 C31.5514351,12.3979553 31.7750826,12.0419101 31.7750826,10.3039751 L31.7750826,2.57823216 C31.7750826,0.840297181 31.5514351,0.484632969 29.5334646,0.466535433 L29.4370714,0.46501143 L29.4370714,0 L40.9724409,0 L40.9724409,4.85566421 Z M53.8624587,12.3710947 L54,12.3710947 L54,12.8825883 L47.7390145,12.8825883 L47.7390145,12.3710947 L48.013335,12.3710947 C48.9454534,12.3710947 49.3395987,12.3152781 49.3395987,12.0409576 C49.3395987,11.8437897 49.1380493,11.5982347 48.7886716,11.23857 C48.7886716,11.23857 47.3223901,9.73742697 46.8116586,9.2007874 C46.0281306,9.95726441 43.2982601,12.5602616 42.9605029,12.8825883 L41.8818898,12.8825883 C42.246698,12.5324486 45.4718694,9.43662687 46.2801626,8.65995682 L46.1123317,8.49345949 C45.6160782,7.99072898 43.4017018,5.76263653 43.4005588,5.76073152 C42.8361062,5.17703835 42.7926721,4.87795276 41.6578613,4.85795022 L41.5431801,4.85566421 L41.5431801,4.34550419 L47.0284481,4.34550419 L47.0284481,4.85795022 L46.9116713,4.85795022 C46.5880112,4.85795022 45.7437135,4.78594107 45.7437135,5.03054356 C45.7437135,5.17989586 45.8783973,5.32124714 46.0662306,5.51708153 C46.0662306,5.51708153 46.0810897,5.53232156 46.0807087,5.53098806 C46.0807087,5.53098806 47.5056515,6.98755398 47.6550038,7.13862078 L47.7834011,7.27730505 L47.8506477,7.21158242 C47.9588519,7.10528321 49.5274321,5.49479299 51.5791212,3.47396495 C50.9380874,2.91675133 50.0612141,2.56946914 48.9128778,2.36068072 L48.9128778,1.88728727 L53.6559563,1.88728727 L53.6559563,6.62941326 L53.1829439,6.62941326 C52.9798705,5.51231902 52.6440183,4.6514478 52.1115697,4.01479553 C49.9682499,6.12115824 48.4659639,7.66459233 48.3604267,7.76689103 L48.2952756,7.83108966 C49.0862332,8.64262129 51.6288418,11.2094234 51.6294133,11.2115189 C52.3902718,12.0139065 52.8682372,12.3710947 53.8624587,12.3710947 Z M17.0865507,9.12039624 L17.0865507,8.27114554 C14.4431674,8.6012827 13.3740792,9.49549149 13.3740792,11.1739903 C13.3740792,11.998095 13.8198501,12.5393066 14.7123444,12.5393066 C16.1723393,12.5393066 17.0865507,11.1852299 17.0865507,9.12039624 Z M4.82137414,2.02387605 L4.82137414,7.04699009 L6.04343409,7.04699009 C8.70262891,7.04699009 9.64674879,6.21088392 9.64674879,4.12509525 C9.64674879,1.88900178 8.80435611,0.669608839 6.248603,0.669608839 C4.63811278,0.669608839 4.82137414,0.74504699 4.82137414,2.02387605 Z"></path>
</svg>
