<svg viewBox="0 0 32 32" preserveAspectRatio="xMidYMin slice" width="100%">
  <path fill="currentColor" d="M20.8,22.4c1.3-1.4,2.3-2.8,3.2-4c1.3-2,2.1-3.7,2.1-5C26,8.2,21.7,4,16.5,4
    C11.3,4,7,8.2,7,13.3c0,1.3,0.7,3,2.1,5c0.8,1.3,1.9,2.6,3.2,4.1c1,1.1,3.1,3.4,4.3,4.6C17.7,25.8,19.8,23.5,20.8,22.4z M5,13.3
    C5,7.1,10.2,2,16.5,2C22.8,2,28,7.1,28,13.3c0,1.8-0.8,3.8-2.4,6.1c-0.9,1.3-2,2.8-3.3,4.3c-1.3,1.5-4.9,5.2-5,5.4l-0.8,0.9
    l-0.8-0.9c-0.1-0.1-3.7-3.8-5-5.4c-1.3-1.5-2.4-2.9-3.3-4.3C5.8,17.2,5,15.1,5,13.3z M20.3,10.3c0.4-0.4,1-0.4,1.4,0s0.4,1,0,1.3
    L15.4,18l-3.1-3c-0.4-0.4-0.4-1,0-1.3s1-0.4,1.4,0l1.6,1.6L20.3,10.3z"></path>
</svg>
