<svg viewBox="0 0 75 14" preserveAspectRatio="xMidYMin slice" width="100%">
  <path fill="#FF5A00"
        d="M20.4272363,8.4 L19.2256342,8.4 L19.2256342,12.6 L17.3230975,12.6 L17.3230975,1.4 L20.6275033,1.4 C22.9305741,1.4 24.7329773,2.5 24.7329773,4.8 C24.8331108,7.1 23.1308411,8.4 20.4272363,8.4 Z M20.5273698,2.9 L19.3257677,2.9 L19.3257677,6.9 L20.5273698,6.9 C22.2296395,6.9 22.9305741,6.2 22.9305741,4.9 C22.9305741,3.7 22.2296395,2.9 20.5273698,2.9 Z M26.23498,12.6 L24.3324433,12.6 L28.5380507,1.5 L30.3404539,1.5 L34.6461949,12.6 L32.5433912,12.6 L31.6421896,10.2 L26.9359146,10.2 L26.23498,12.6 Z M38.3511348,8.4 L38.3511348,12.6 L36.4485981,12.6 L36.4485981,8.4 L32.7436582,1.4 L34.8464619,1.4 L37.5500668,6.6 L40.1535381,1.4 L41.9559413,1.4 L38.3511348,8.4 Z M47.5634179,12.6 L45.2603471,6.1 C44.9599466,5.3 44.7596796,4.5 44.7596796,4.5 C44.7596796,4.5 44.6595461,5.4 44.5594126,6.1 L43.7583445,12.5 L42.0560748,12.5 L43.5580774,1.4 L45.3604806,1.4 L47.8638184,8.6 C48.164219,9.5 48.4646195,10.6 48.4646195,10.6 C48.4646195,10.6 48.76502,9.5 49.0654206,8.6 L51.5687583,1.4 L53.3711615,1.4 L54.8731642,12.5 L52.9706275,12.5 L52.1695594,6.1 C52.0694259,5.3 51.9692924,4.5 51.9692924,4.5 C51.9692924,4.5 51.7690254,5.3 51.4686248,6.1 L49.2656876,12.6 L47.5634179,12.6 Z M56.7757009,12.6 L56.7757009,1.4 L58.6782377,1.4 L58.6782377,12.6 L56.7757009,12.6 Z M60.6809079,12.6 L60.6809079,1.4 L62.5834446,1.4 L62.5834446,11.1 L66.8891856,11.1 L66.8891856,12.6 L60.6809079,12.6 Z M68.8918558,12.6 L68.8918558,1.4 L70.694259,1.4 L70.694259,11.1 L75,11.1 L75,12.6 L68.8918558,12.6 Z M7.9105474,4 C7.9105474,3.8 7.71028037,3.6 7.51001335,3.6 L5.3070761,3.6 C4.90654206,3.5 4.60614152,3.7 4.50600801,4 L0,13.4 L0,13.6 C0,13.8 0.200267023,14 0.400534045,14 L2.6034713,14 C3.00400534,14 3.30440587,13.7 3.40453939,13.4 C3.5046729,13.1 7.9105474,4.1 7.9105474,4.1 L7.9105474,4 Z M13.2176235,5.3 L13.2176235,5.1 L11.1148198,0.6 C11.0146862,0.3 10.7142857,0 10.3137517,0 L8.11081442,0 C7.81041389,0 7.61014686,0.2 7.61014686,0.5 L7.61014686,0.7 L9.7129506,5.1 C9.7129506,5.1 9.81308411,5.2 9.81308411,5.3 C9.81308411,5.4 9.81308411,5.4 9.7129506,5.5 L7.71028037,9.9 L7.71028037,10.1 C7.71028037,10.3 7.9105474,10.5 8.11081442,10.5 L10.3137517,10.5 C10.7142857,10.5 11.0146862,10.2 11.1148198,9.9 L13.2176235,5.4 C13.2176235,5.4 13.2176235,5.3 13.2176235,5.3 Z M30.1401869,5.5 C29.8397864,4.6 29.5393858,3.6 29.5393858,3.6 C29.5393858,3.6 29.2389853,4.6 28.9385848,5.5 C28.9385848,5.5 27.8371162,8.7 27.7369826,8.7 L31.3417891,8.7 L30.1401869,5.5 Z"></path>
</svg>
