<svg viewBox="0 0 21 18" preserveAspectRatio="xMidYMin slice" width="100%">
  <g fill="none" fill-rule="evenodd" transform="translate(.52 .1)">
    <path fill="#000" fill-rule="nonzero" d="M9.3,11.6301061 L10.87,11.2101061 L8.87,9.21010614 L8.45,10.7801061 C8.35434239,11.1362017 8.56438836,11.5026649 8.92,11.6001061 C9.04133679,11.6455896 9.17302923,11.6559864 9.3,11.6301061 L9.3,11.6301061 Z"></path>
    <path d="M19.62,0.360106137 C20.1178075,0.887911509 20.1178075,1.71230077 19.62,2.24010614 L11.62,10.3901061 L9.73,8.52010614 L17.73,0.360106137 C18.2685175,-0.120035379 19.0814825,-0.120035379 19.62,0.360106137 L19.62,0.360106137 Z"></path>
    <path fill="#000" fill-rule="nonzero" d="M17.81,6.22010614 L17.81,15.3601061 L1,15.3601061 L1,2.47010614 L13.57,2.47010614 L14.57,1.47010614 L1,1.47010614 C0.44771525,1.47010614 -2.13162821e-14,1.91782139 -2.13162821e-14,2.47010614 L-2.13162821e-14,15.3601061 C-2.13162821e-14,15.9123909 0.44771525,16.3601061 1,16.3601061 L17.81,16.3601061 C18.3622847,16.3601061 18.81,15.9123909 18.81,15.3601061 L18.81,5.21010614 L17.81,6.22010614 Z"></path>
    <path fill="#000" fill-rule="nonzero" d="M19.62,0.360106137 C20.1178075,0.887911509 20.1178075,1.71230077 19.62,2.24010614 L11.62,10.3901061 L9.73,8.52010614 L17.73,0.360106137 C18.2685175,-0.120035379 19.0814825,-0.120035379 19.62,0.360106137 L19.62,0.360106137 Z"></path>
    <path fill="#000" fill-rule="nonzero" d="M15.24 8.89010614L15.24 13.1301061 3.56 13.1301061 3.56 8.54010614 7.66 8.54010614 8.66 7.54010614 3.45 7.54010614C2.98608081 7.54010614 2.61 7.91618695 2.61 8.38010614L2.61 13.2701061C2.61 13.7340253 2.98608081 14.1101061 3.45 14.1101061L15.45 14.1101061C15.9116639 14.104706 16.2845999 13.73177 16.29 13.2701061L16.29 8.36010614C16.2891434 8.21941998 16.251201 8.08144759 16.18 7.96010614L15.24 8.89010614zM11.43 4.70010614L3.1 4.70010614C2.82385763 4.70010614 2.6 4.92396376 2.6 5.20010614 2.6 5.47624851 2.82385763 5.70010614 3.1 5.70010614L10.46 5.70010614 11.43 4.70010614z"></path>
  </g>
</svg>
