<svg viewBox="0 0 73 18" preserveAspectRatio="xMidYMin slice" width="100%">
  <rect fill="#0093dd" x="55" y="0" width="18" height="18"></rect>
  <path fill="#ffffff"
        d="M 56.57427,7.7748648 56.238595,6.9575675 55.903892,7.7748648 Z m 7.399946,-0.324 c -0.06665,0.037946 -0.146432,0.041838 -0.242757,0.041838 H 63.135027 V 7.0363783 h 0.604216 c 0.08659,0 0.175622,0.00292 0.234,0.035514 0.06324,0.031135 0.102162,0.094865 0.102162,0.1814594 0,0.09 -0.03795,0.1615135 -0.101189,0.1975131 z m 4.253838,0.324 -0.34054,-0.8172973 -0.336163,0.8172973 z m -7.92827,0.8854054 h -0.503027 l -0.0029,-1.6058919 -0.710757,1.6058919 H 58.65254 L 57.937405,7.0509729 v 1.6092973 h -0.99827 L 56.751838,8.2024865 h -1.022595 l -0.189729,0.4577837 h -0.53319 l 0.877135,-2.0534594 h 0.730217 L 57.448,8.5517838 v -1.944973 h 0.802703 l 0.641189,1.3942702 0.590594,-1.3942702 h 0.817298 z m 2.004811,0 h -1.63946 V 6.6068108 h 1.63946 v 0.4295675 h -1.148109 v 0.3687568 h 1.119892 v 0.4217838 l -1.119892,-0.00195 v 0.4105946 h 1.148109 z m 2.31227,-1.4983783 c 0,0.3249729 -0.218919,0.4962162 -0.345406,0.5463243 0.107027,0.041838 0.198487,0.1123784 0.241298,0.1741621 0.06908,0.09973 0.0827,0.1936217 0.0827,0.3741082 v 0.4037837 h -0.495244 l -0.0019,-0.2583243 c 0,-0.1216216 0.01265,-0.3001621 -0.07881,-0.3979459 -0.07151,-0.073459 -0.179513,-0.088541 -0.356594,-0.088541 H 63.135027 V 8.6602702 H 62.645135 V 6.6068108 h 1.129135 c 0.249568,0 0.435406,0.00876 0.594,0.1002162 0.155676,0.090973 0.248595,0.2247567 0.248595,0.4548649 z m 0.285081,1.4983783 h 0.500595 V 6.6068108 h -0.500595 z m 6.309243,0 H 70.516 L 69.585351,7.121027 69.586324,8.6602702 H 68.587081 L 68.395892,8.2024865 h -1.021135 l -0.183406,0.4577837 h -0.575027 c -0.239351,0 -0.541459,-0.053027 -0.711243,-0.2262162 -0.174162,-0.1756216 -0.262703,-0.4101081 -0.262703,-0.7847027 0,-0.305027 0.054,-0.5823243 0.264649,-0.8017297 0.159081,-0.1644325 0.407189,-0.2408108 0.745297,-0.2408108 h 0.474325 V 7.047081 h -0.463622 c -0.179513,0 -0.281676,0.027243 -0.379946,0.1225946 -0.08222,0.086108 -0.140108,0.2495676 -0.140108,0.4655676 0,0.2203784 0.04281,0.377027 0.136216,0.4816216 0.07395,0.080757 0.211622,0.1055676 0.341027,0.1055676 h 0.220865 l 0.691297,-1.6156216 h 0.735081 l 0.830433,1.9425405 V 6.6068108 h 0.749189 L 70.709622,8.037081 V 6.6068108 h 0.501567 z M 55,9.065027 h 0.839189 l 0.188757,-0.4577838 h 0.423243 l 0.18827,0.4577838 h 1.650649 V 8.7152432 L 58.437514,9.066 h 0.855729 L 59.440162,8.7113513 V 9.065027 h 4.101081 l -0.002,-0.7487027 h 0.0793 c 0.05595,9.73e-4 0.072,0.00778 0.072,0.098757 v 0.649946 h 2.120113 v -0.174649 c 0.170757,0.091946 0.437838,0.1746487 0.786648,0.1746487 h 0.89319 l 0.190702,-0.4577838 h 0.42373 L 68.29227,9.065027 h 1.718757 V 8.631081 l 0.260757,0.433946 H 71.64854 V 6.2001081 H 70.284919 V 6.5396756 L 70.094703,6.2001081 H 68.695081 V 6.5396756 L 68.520432,6.2001081 h -1.89 c -0.316216,0 -0.595459,0.043784 -0.819729,0.1673513 V 6.2001081 H 64.507892 V 6.3674594 C 64.363405,6.2404864 64.168811,6.2001081 63.952811,6.2001081 H 59.188162 L 58.867081,6.9405405 58.540649,6.2001081 H 57.039838 V 6.5396756 L 56.873946,6.2001081 h -1.27946 L 55,7.5608108 Z"></path>
  <path fill="#ffffff"
        d="m 72.990865,10.645675 h -0.896108 c -0.08951,0 -0.149352,0.0039 -0.198,0.03746 -0.05108,0.03308 -0.072,0.08368 -0.072,0.147892 0,0.07735 0.04378,0.130378 0.108486,0.153243 0.05011,0.018 0.106054,0.02286 0.188757,0.02384 l 0.265135,0.0063 c 0.268054,0.0078 0.447568,0.05351 0.558,0.164433 0.018,0.01605 0.03113,0.03503 0.04573,0.05254 z m 0,1.354379 c -0.121135,0.175621 -0.352703,0.263189 -0.666973,0.263189 H 71.375243 V 11.822 H 72.32 c 0.09292,0 0.158595,-0.01216 0.198487,-0.05108 0.03308,-0.03065 0.05886,-0.07589 0.05886,-0.132811 0,-0.05984 -0.02578,-0.108487 -0.05984,-0.136216 -0.03697,-0.03211 -0.08854,-0.04524 -0.173189,-0.04622 -0.460702,-0.01557 -1.035729,0.01411 -1.035729,-0.635837 0,-0.297244 0.189243,-0.611027 0.703459,-0.611027 h 0.978811 V 9.8001618 h -0.90973 c -0.274378,0 -0.472865,0.065676 -0.614432,0.1683244 V 9.8001618 h -1.343676 c -0.213567,0 -0.465567,0.054486 -0.586216,0.1683244 l 9.73e-4,-0.1683244 H 67.13746 V 9.9684862 C 66.946757,9.8317835 66.625676,9.8001618 66.475351,9.8001618 H 64.89427 V 9.9684862 C 64.742,9.8220537 64.407784,9.8001618 64.202486,9.8001618 H 62.430703 L 62.025946,10.240432 61.646487,9.8001618 H 59 v 2.8668652 h 2.596865 l 0.417405,-0.445622 0.394054,0.445622 1.598595,9.73e-4 v -0.674757 h 0.158595 c 0.210648,0.0029 0.462648,-0.0049 0.683026,-0.09973 v 0.773514 h 1.319838 v -0.74773 h 0.06373 c 0.08173,0 0.08951,0.0044 0.08951,0.08465 v 0.663081 h 4.009621 c 0.25346,0 0.519568,-0.06568 0.666973,-0.183406 v 0.183406 h 1.272162 c 0.265135,0 0.522487,-0.03697 0.720487,-0.132325 z m -1.959568,-0.821189 c 0.09681,0.09973 0.147406,0.225243 0.147406,0.435405 0,0.442703 -0.276325,0.648973 -0.770595,0.648973 H 69.451189 V 11.822 h 0.953027 c 0.09389,0 0.158595,-0.01216 0.200433,-0.05108 0.03357,-0.03065 0.05789,-0.07589 0.05789,-0.132811 0,-0.05984 -0.0253,-0.108487 -0.06081,-0.136216 -0.03697,-0.03211 -0.08805,-0.04524 -0.173676,-0.04622 -0.458757,-0.01557 -1.033784,0.01411 -1.033784,-0.635837 0,-0.297244 0.187298,-0.611027 0.701027,-0.611027 h 0.984649 v 0.436864 h -0.9 c -0.09,0 -0.148378,0.0039 -0.197514,0.03746 -0.05303,0.03308 -0.07297,0.08368 -0.07297,0.147892 0,0.07735 0.04524,0.130378 0.107026,0.153243 0.05157,0.018 0.106541,0.02286 0.190217,0.02384 l 0.265135,0.0063 c 0.267081,0.0078 0.44854,0.05351 0.559459,0.164433 z m -4.428486,-0.125514 c -0.0647,0.03843 -0.146433,0.04184 -0.241298,0.04184 h -0.596918 v -0.460703 h 0.604702 c 0.08708,0 0.175622,0.0019 0.233514,0.036 0.06373,0.03454 0.101676,0.09681 0.101676,0.185352 0,0.08757 -0.03795,0.158594 -0.101676,0.197513 z m 0.29627,0.254919 c 0.10946,0.03989 0.198487,0.111892 0.240324,0.172703 0.06957,0.100702 0.08076,0.194108 0.08173,0.375567 v 0.406703 h -0.492324 v -0.257838 c 0,-0.123081 0.01168,-0.305513 -0.07978,-0.400865 -0.07103,-0.07492 -0.18049,-0.09195 -0.359031,-0.09195 h -0.525405 v 0.750649 H 65.27227 v -2.054432 h 1.132541 c 0.249081,0 0.430054,0.0107 0.590594,0.09778 0.154703,0.09243 0.251514,0.222325 0.251514,0.456325 0,0.326919 -0.217946,0.493783 -0.347838,0.545351 z m 0.62027,-1.099459 h 1.63946 v 0.425675 h -1.150054 v 0.372649 h 1.121351 V 11.426 h -1.121351 v 0.408648 l 1.150054,0.0019 v 0.426649 h -1.63946 z M 64.209297,11.156 h -0.635838 v -0.521514 h 0.640217 c 0.178054,0 0.300648,0.07151 0.300648,0.252 0,0.177568 -0.116756,0.269514 -0.305027,0.269514 z m -1.124756,0.920919 -0.752595,-0.837244 0.752595,-0.809513 z m -1.94546,-0.242271 H 59.932595 V 11.426 h 1.077567 v -0.418865 h -1.077567 v -0.372649 h 1.229837 l 0.537082,0.597892 z m 3.901622,-0.948162 c 0,0.569189 -0.424703,0.687892 -0.854757,0.687892 h -0.612487 v 0.688865 h -0.95254 l -0.604703,-0.679622 -0.628054,0.679622 h -1.943513 v -2.054432 h 1.973675 l 0.60373,0.67281 0.624162,-0.67281 h 1.56746 c 0.389675,0 0.827027,0.108486 0.827027,0.677675 z"></path>
  <path fill="#000000"
        d="m 35.897881,16.843214 v -1.043478 c 0,-0.4 -0.249152,-0.66087 -0.676271,-0.66087 -0.213559,0 -0.444915,0.06957 -0.605085,0.295653 -0.124576,-0.191305 -0.302542,-0.295653 -0.569491,-0.295653 -0.177966,0 -0.355932,0.05217 -0.498305,0.243479 V 15.173649 H 33.175 v 1.669565 h 0.373729 v -0.921739 c 0,-0.295652 0.160169,-0.434782 0.409322,-0.434782 0.249152,0 0.373729,0.156521 0.373729,0.434782 v 0.921739 h 0.373728 v -0.921739 c 0,-0.295652 0.177967,-0.434782 0.409322,-0.434782 0.249153,0 0.373729,0.156521 0.373729,0.434782 v 0.921739 z m 5.534746,-1.669565 h -0.605085 v -0.504348 h -0.373729 v 0.504348 h -0.338135 v 0.330435 h 0.338135 v 0.765217 c 0,0.382609 0.16017,0.608696 0.587289,0.608696 0.160169,0 0.338135,-0.05217 0.462711,-0.121739 l -0.106779,-0.313044 c -0.10678,0.06957 -0.231356,0.08696 -0.320339,0.08696 -0.177966,0 -0.249153,-0.104348 -0.249153,-0.278261 v -0.747829 h 0.605085 z m 3.167797,-0.03478 c -0.213559,0 -0.355932,0.104348 -0.444915,0.243479 V 15.173649 H 43.78178 v 1.669565 h 0.373729 v -0.93913 c 0,-0.278261 0.124576,-0.434783 0.355932,-0.434783 0.07119,0 0.160169,0.01739 0.231356,0.03478 l 0.10678,-0.347826 c -0.07119,-0.01739 -0.177967,-0.01739 -0.249153,-0.01739 z m -4.787288,0.173913 c -0.177967,-0.121739 -0.427119,-0.173913 -0.694068,-0.173913 -0.427119,0 -0.711865,0.208696 -0.711865,0.539131 0,0.278261 0.21356,0.434783 0.587289,0.486956 l 0.177966,0.01739 c 0.195762,0.03478 0.302542,0.08696 0.302542,0.173913 0,0.121739 -0.142373,0.208695 -0.391526,0.208695 -0.249152,0 -0.444915,-0.08696 -0.569491,-0.173913 l -0.177966,0.278261 c 0.195763,0.139131 0.462712,0.208696 0.729661,0.208696 0.498305,0 0.783051,-0.226087 0.783051,-0.539131 0,-0.295652 -0.231356,-0.452173 -0.587288,-0.504347 l -0.177967,-0.01739 c -0.160169,-0.01739 -0.284745,-0.05218 -0.284745,-0.156524 0,-0.12174 0.124576,-0.191305 0.320339,-0.191305 0.213559,0 0.427118,0.08696 0.533898,0.139131 z m 9.930508,-0.173913 c -0.213559,0 -0.355932,0.104348 -0.444915,0.243479 V 15.173649 H 48.925 v 1.669565 h 0.373729 v -0.93913 c 0,-0.278261 0.124576,-0.434783 0.355932,-0.434783 0.07119,0 0.16017,0.01739 0.231356,0.03478 l 0.10678,-0.347826 c -0.07119,-0.01739 -0.177966,-0.01739 -0.249153,-0.01739 z m -4.769491,0.869566 c 0,0.504348 0.355932,0.869565 0.907627,0.869565 0.249152,0 0.427119,-0.05217 0.605085,-0.191304 l -0.177966,-0.295653 c -0.142373,0.104348 -0.284746,0.156522 -0.444916,0.156522 -0.302542,0 -0.516101,-0.208696 -0.516101,-0.53913 0,-0.313044 0.213559,-0.521739 0.516101,-0.539131 0.16017,0 0.302543,0.05217 0.444916,0.156522 l 0.177966,-0.295652 c -0.177966,-0.139134 -0.355933,-0.191308 -0.605085,-0.191308 -0.551695,0 -0.907627,0.365218 -0.907627,0.869566 z m 3.452542,0 v -0.834783 h -0.373729 v 0.208696 c -0.124576,-0.156525 -0.302542,-0.243482 -0.533898,-0.243482 -0.480508,0 -0.854237,0.365218 -0.854237,0.869566 0,0.504348 0.373729,0.869565 0.854237,0.869565 0.249153,0 0.427119,-0.08696 0.533898,-0.243478 v 0.208695 h 0.373729 z m -1.370339,0 c 0,-0.295652 0.195763,-0.539131 0.516102,-0.539131 0.302542,0 0.516102,0.226087 0.516102,0.539131 0,0.295652 -0.21356,0.53913 -0.516102,0.53913 -0.320339,-0.01739 -0.516102,-0.243478 -0.516102,-0.53913 z m -4.466949,-0.869569 c -0.498305,0 -0.854238,0.347827 -0.854238,0.869566 0,0.521739 0.355933,0.869565 0.872035,0.869565 0.249152,0 0.498305,-0.06957 0.694068,-0.226087 l -0.177967,-0.26087 c -0.142373,0.104348 -0.320339,0.173913 -0.498305,0.173913 -0.231356,0 -0.462712,-0.104347 -0.516101,-0.4 h 1.263559 v -0.13913 c 0.0178,-0.53913 -0.302542,-0.886957 -0.783051,-0.886957 z m 0,0.313044 c 0.231356,0 0.391525,0.13913 0.427119,0.4 h -0.889831 c 0.03559,-0.226087 0.195763,-0.4 0.462712,-0.4 z m 9.272034,0.556522 V 14.51278 h -0.373729 v 0.869565 c -0.124576,-0.156522 -0.302542,-0.243479 -0.533898,-0.243479 -0.480509,0 -0.854238,0.365218 -0.854238,0.869566 0,0.504348 0.373729,0.869565 0.854238,0.869565 0.249152,0 0.427118,-0.08696 0.533898,-0.243478 v 0.208695 h 0.373729 z m -1.370339,0 c 0,-0.295652 0.195763,-0.539131 0.516102,-0.539131 0.302542,0 0.516101,0.226087 0.516101,0.539131 0,0.295652 -0.213559,0.53913 -0.516101,0.53913 -0.320339,-0.01739 -0.516102,-0.243478 -0.516102,-0.53913 z m -12.493221,0 v -0.834783 h -0.373729 v 0.208696 c -0.124576,-0.156522 -0.302542,-0.243479 -0.533898,-0.243479 -0.480508,0 -0.854237,0.365218 -0.854237,0.869566 0,0.504348 0.373729,0.869565 0.854237,0.869565 0.249153,0 0.427119,-0.08696 0.533898,-0.243478 v 0.208695 h 0.373729 z m -1.388135,0 c 0,-0.295652 0.195762,-0.539131 0.516101,-0.539131 0.302543,0 0.516102,0.226087 0.516102,0.539131 0,0.295652 -0.213559,0.53913 -0.516102,0.53913 -0.320339,-0.01739 -0.516101,-0.243478 -0.516101,-0.53913 z"></path>
  <rect fill="#ff5f00" stroke-width="1.00000608" x="39.688" y="2.4955218" width="5.6059999" height="9.8434782"></rect>
  <path fill="#eb001b"
        stroke-width="1.000018"
        d="m 40.044777,7.4171303 c 0,-2 0.961052,-3.773913 2.438223,-4.9217391 -1.085632,-0.8347826 -2.45602,-1.3391305 -3.950989,-1.3391305 -3.541654,0 -6.407011,2.8 -6.407011,6.2608696 0,3.4608697 2.865357,6.2608697 6.407011,6.2608697 1.494969,0 2.865357,-0.504348 3.950989,-1.339131 -1.477171,-1.130434 -2.438223,-2.9217387 -2.438223,-4.9217387 z"></path>
  <path fill="#f79e1b"
        stroke-width="1.000018"
        d="M 52.858,7.4171303 C 52.858,10.878 49.992643,13.678 46.45099,13.678 c -1.49497,0 -2.865358,-0.504348 -3.95099,-1.339131 1.494969,-1.147826 2.438224,-2.9217387 2.438224,-4.9217387 0,-2 -0.961052,-3.773913 -2.438224,-4.9217391 1.085632,-0.8347826 2.45602,-1.3391305 3.95099,-1.3391305 3.541653,0 6.40701,2.8173913 6.40701,6.2608696 z"></path>
  <path fill="#0363b7"
        d="m 19.6,4.1 c -2.4,0 -4.1,1.3 -4.1,3.1 0,1.3 1.2,2.1 2.1,2.5 0.9,0.5 1.3,0.8 1.3,1.2 0,0.6 -0.8,0.9 -1.5,0.9 -1,0 -1.5,-0.1 -2.3,-0.5 l -0.3,-0.1 -0.3,2.1 c 0.6,0.3 1.6,0.5 2.7,0.5 2.5,0 4.2,-1.3 4.2,-3.2 0,-1.1 -0.6,-1.9 -2,-2.5 C 18.5,7.6 18,7.3 18,6.9 c 0,-0.4 0.4,-0.8 1.4,-0.8 0.8,0 1.4,0.2 1.8,0.4 l 0.2,0.1 0.3,-2 C 21.2,4.3 20.5,4.1 19.6,4.1 Z M 12,4.3 10.5,13.7 h 2.4 L 14.4,4.3 Z M 8.5,4.3 6.1,10.7 5.9,9.4 C 5.3,7.8 4,6.1 2.5,5.4 l 2.2,8.2 h 2.6 l 3.8,-9.4 z m 17.6,0 c -0.6,0 -1,0.2 -1.3,0.8 l -3.6,8.6 h 2.5 c 0,0 0.4,-1.2 0.5,-1.4 h 3.1 c 0.1,0.3 0.3,1.4 0.3,1.4 h 2.2 l -2,-9.4 z m 0.1,2.5 0.2,0.8 c 0,0 0.5,2.2 0.6,2.7 h -2 c 0.2,-0.5 1,-2.6 1,-2.6 -0.1,0 0.1,-0.5 0.2,-0.9 z"></path>
  <path fill="#f5a62d" d="M 3.9,4.3 H 0 V 4.5 C 3,5.3 5,7.2 5.9,9.4 L 5,5.1 C 4.9,4.5 4.5,4.3 3.9,4.3"></path>
</svg>
