<svg viewBox="0 0 21 20" preserveAspectRatio="xMidYMin slice" width="100%">
  <path fill="#FF0000"
        d="M15,16 L16,16 L16,12 L21,12 L21,20 L9,20 L9,0 L21,0 L21,8 L16,8 L16,4 L15,4 C14.4477153,4 14,4.44771525 14,5 L14,15 C14,15.5522847 14.4477153,16 15,16 Z"></path>
  <path fill="#007DF8"
        d="M5,15 L5,12.0000046 L11,12.0000046 L11,0 L2,0 C0.8954305,0 0,0.895430847 0,2.00000077 C0,2.03097796 0.000704254217,2.06179066 0.00209762512,2.09242374 L7.26971052e-08,17.9994557 L0,18.0000008 C0,19.1045707 0.8954305,20.0000015 2,20.0000015 L2.00259764,19.9999999 L11,19.9996415 L11,13.000005 L7,13.000005 L7,16 L6,16 C5.44771525,16 5,15.5522847 5,15 Z M5,5.0093689 C5,4.45190985 5.44386482,4 6,4 L7,4 L7,8 L5,8 L5,5.0093689 Z"></path>
  <path fill="#1A1918"
        d="M10.8320805,19.9930506 L10.8387097,20 L12,20 L12,13 L9,13 L9,18.0724638 L9.00133881,18.0738673 C9.0381646,19.0881606 9.83029874,19.9097753 10.8320805,19.9930506 Z M12,0 L12,12 L9,12 L9,1.93220339 L9.00116878,1.93097518 C9.0356449,0.914449613 9.82871415,0.0903476605 10.8320979,0.00694793068 L10.8387097,0 L12,0 Z"></path>
</svg>
