<svg viewBox="0 0 42 20" fill="none" preserveAspectRatio="xMidYMin slice" width="100%">
  <g clip-path="url(#clip0_1831_3846)">
    <path d="M0.167969 0.0323816C1.5504 0.0302734 2.93069 0.0323816 4.31312 0.0302734C4.31952 5.33255 4.31525 10.6348 4.31525 15.9371C2.93282 15.9476 1.5504 15.9476 0.167969 15.9371C0.174369 10.6348 0.172235 5.33465 0.167969 0.0323816Z" fill="#1D1D1B"></path>
    <path d="M8.20114 3.54887C9.62624 1.40266 12.1671 -0.00144191 14.7741 0.00699111C14.7912 1.24875 14.7933 2.49053 14.7741 3.73229C13.3853 3.86511 12.0284 4.56926 11.3052 5.77941C10.5457 6.8525 10.6993 8.21866 10.6929 9.45831C10.7207 10.3522 10.6119 11.2545 10.7719 12.1421C12.4828 12.1126 14.1917 12.1421 15.9027 12.1274C17.7416 12.1337 19.4462 10.7802 19.9219 9.03876C20.1929 7.93614 20.0222 6.78715 20.0649 5.66345C20.1054 3.77866 19.9881 1.88545 20.1246 0.00488281C21.3577 0.00699107 22.5909 0.00699107 23.8239 0.00488281C23.9562 2.51792 23.8345 5.04152 23.8837 7.56087C23.9477 9.41192 23.41 11.3115 22.2409 12.7767C20.7582 14.6994 18.3646 15.9391 15.9048 15.918C12.9159 15.9307 9.92492 15.899 6.93604 15.9349C6.72911 13.5083 6.91259 11.0522 6.84432 8.615C6.76963 6.84407 7.17285 5.02042 8.20114 3.54887Z" fill="#1D1D1B"></path>
    <path d="M26.3574 0.0263729C27.8252 -0.00103448 29.295 -0.0136841 30.765 0.0326976C31.9726 2.95897 33.0883 5.92105 34.3065 8.8431C34.7309 8.22327 34.9145 7.48751 35.1833 6.79809C36.0281 4.54437 36.8814 2.29275 37.7283 0.0411305C39.1343 -0.022117 40.5423 0.00107367 41.9503 0.0221563C41.6537 1.07207 41.1867 2.06084 40.7876 3.0728C39.3752 6.58938 37.9525 10.1017 36.5401 13.6183C36.0089 14.9296 35.437 16.2452 34.5687 17.3773C33.564 18.7814 31.9939 19.7027 30.2893 20H27.2514C27.2642 18.8004 27.2599 17.5987 27.2514 16.3991C27.9639 16.3358 28.687 16.3569 29.3953 16.2389C30.5581 15.9795 31.6183 15.1658 32.0749 14.0695C31.9576 13.2662 31.5202 12.5557 31.2366 11.8073C29.6236 7.87542 27.9234 3.97514 26.3574 0.0263729Z" fill="#1D1D1B"></path>
  </g>
  <defs>
    <clipPath id="clip0_1831_3846">
      <rect width="42" height="20" fill="white"></rect>
    </clipPath>
  </defs>
</svg>
