<svg viewbox="0 0 131 21" preserveaspectratio="xMidYMin meet" width="100%">
  <g id="surface1-instant_payment">
    <path id="DIREKTÜBERWEISUNG" fill="#676D6D" d="M 3.480469 11.71875 C 4.210938 11.71875 4.878906 11.628906 5.484375 11.449219 C 6.085938 11.269531 6.601562 10.992188 7.03125 10.621094 C 7.457031 10.25 7.789062 9.789062 8.023438 9.234375 C 8.253906 8.679688 8.371094 8.027344 8.371094 7.277344 C 8.371094 6.507812 8.253906 5.847656 8.023438 5.292969 C 7.789062 4.738281 7.457031 4.28125 7.03125 3.917969 C 6.601562 3.554688 6.089844 3.285156 5.488281 3.117188 C 4.890625 2.945312 4.230469 2.859375 3.503906 2.859375 C 3.15625 2.859375 2.757812 2.871094 2.308594 2.898438 C 1.859375 2.921875 1.433594 2.980469 1.035156 3.070312 L 1.035156 11.492188 C 1.433594 11.582031 1.855469 11.644531 2.296875 11.671875 C 2.738281 11.703125 3.132812 11.71875 3.480469 11.71875 Z M 3.582031 10.339844 C 3.324219 10.339844 3.117188 10.339844 2.96875 10.335938 C 2.820312 10.332031 2.699219 10.324219 2.609375 10.316406 L 2.609375 4.261719 C 2.808594 4.234375 3.140625 4.222656 3.605469 4.222656 C 4.671875 4.222656 5.457031 4.484375 5.964844 5.011719 C 6.472656 5.535156 6.726562 6.292969 6.726562 7.277344 C 6.726562 8.242188 6.464844 8.996094 5.945312 9.535156 C 5.425781 10.070312 4.636719 10.339844 3.582031 10.339844 Z M 11.664062 11.617188 L 11.664062 2.945312 L 10.09375 2.945312 L 10.09375 11.617188 Z M 15.308594 11.617188 L 15.308594 8.339844 L 16.304688 8.339844 C 16.390625 8.339844 16.488281 8.335938 16.605469 8.328125 C 16.765625 8.527344 16.933594 8.753906 17.117188 9.007812 C 17.300781 9.261719 17.484375 9.535156 17.671875 9.820312 C 17.859375 10.109375 18.042969 10.40625 18.226562 10.710938 C 18.410156 11.015625 18.582031 11.316406 18.738281 11.617188 L 20.5 11.617188 C 20.347656 11.292969 20.179688 10.960938 19.988281 10.621094 C 19.796875 10.285156 19.597656 9.957031 19.386719 9.632812 C 19.179688 9.3125 18.976562 9.015625 18.777344 8.738281 C 18.578125 8.464844 18.398438 8.230469 18.238281 8.039062 C 19.394531 7.621094 19.972656 6.824219 19.972656 5.648438 C 19.972656 4.707031 19.644531 4.007812 18.984375 3.546875 C 18.320312 3.089844 17.367188 2.859375 16.121094 2.859375 C 15.777344 2.859375 15.390625 2.875 14.957031 2.902344 C 14.527344 2.933594 14.117188 2.988281 13.734375 3.070312 L 13.734375 11.617188 Z M 15.996094 7.0625 L 15.308594 7.0625 L 15.308594 4.261719 C 15.589844 4.234375 15.898438 4.222656 16.230469 4.222656 C 16.539062 4.222656 16.820312 4.246094 17.078125 4.292969 C 17.335938 4.339844 17.558594 4.414062 17.746094 4.523438 C 17.933594 4.632812 18.078125 4.777344 18.179688 4.960938 C 18.277344 5.144531 18.328125 5.371094 18.328125 5.636719 C 18.328125 5.921875 18.277344 6.152344 18.179688 6.335938 C 18.078125 6.519531 17.929688 6.667969 17.734375 6.777344 C 17.539062 6.882812 17.296875 6.957031 17.003906 7 C 16.714844 7.042969 16.378906 7.0625 15.996094 7.0625 Z M 27.574219 11.617188 L 27.574219 10.277344 L 23.292969 10.277344 L 23.292969 7.738281 L 26.835938 7.738281 L 26.835938 6.425781 L 23.292969 6.425781 L 23.292969 4.285156 L 27.273438 4.285156 L 27.273438 2.945312 L 21.722656 2.945312 L 21.722656 11.617188 Z M 30.605469 11.617188 L 30.605469 7.726562 C 30.929688 7.953125 31.257812 8.21875 31.589844 8.527344 C 31.921875 8.835938 32.246094 9.160156 32.554688 9.503906 C 32.867188 9.84375 33.164062 10.199219 33.449219 10.566406 C 33.730469 10.933594 33.980469 11.285156 34.195312 11.617188 L 36.054688 11.617188 C 35.789062 11.183594 35.496094 10.746094 35.175781 10.308594 C 34.855469 9.871094 34.523438 9.449219 34.171875 9.046875 C 33.824219 8.640625 33.46875 8.261719 33.105469 7.90625 C 32.742188 7.554688 32.386719 7.242188 32.039062 6.976562 C 32.355469 6.667969 32.675781 6.339844 33.003906 6 C 33.335938 5.65625 33.660156 5.3125 33.984375 4.96875 C 34.308594 4.621094 34.625 4.277344 34.933594 3.933594 C 35.242188 3.59375 35.53125 3.265625 35.808594 2.945312 L 33.921875 2.945312 C 33.707031 3.1875 33.464844 3.460938 33.199219 3.761719 C 32.933594 4.0625 32.652344 4.371094 32.355469 4.691406 C 32.0625 5.011719 31.765625 5.332031 31.464844 5.644531 C 31.164062 5.957031 30.878906 6.25 30.605469 6.523438 L 30.605469 2.945312 L 29.03125 2.945312 L 29.03125 11.617188 Z M 40.523438 11.617188 L 40.523438 4.3125 L 43.179688 4.3125 L 43.179688 2.945312 L 36.28125 2.945312 L 36.28125 4.3125 L 38.9375 4.3125 L 38.9375 11.617188 Z M 46.4375 2.019531 C 46.660156 2.019531 46.859375 1.945312 47.027344 1.796875 C 47.199219 1.644531 47.285156 1.441406 47.285156 1.183594 C 47.285156 0.925781 47.199219 0.71875 47.027344 0.5625 C 46.859375 0.410156 46.660156 0.332031 46.4375 0.332031 C 46.210938 0.332031 46.015625 0.410156 45.851562 0.5625 C 45.683594 0.71875 45.601562 0.925781 45.601562 1.183594 C 45.601562 1.441406 45.683594 1.644531 45.851562 1.796875 C 46.015625 1.945312 46.210938 2.019531 46.4375 2.019531 Z M 49.019531 2.019531 C 49.242188 2.019531 49.4375 1.945312 49.605469 1.796875 C 49.773438 1.644531 49.855469 1.441406 49.855469 1.183594 C 49.855469 0.925781 49.773438 0.71875 49.605469 0.5625 C 49.4375 0.410156 49.242188 0.332031 49.019531 0.332031 C 48.792969 0.332031 48.597656 0.410156 48.425781 0.5625 C 48.253906 0.71875 48.171875 0.925781 48.171875 1.183594 C 48.171875 1.441406 48.253906 1.644531 48.425781 1.796875 C 48.597656 1.945312 48.792969 2.019531 49.019531 2.019531 Z M 47.707031 11.804688 C 48.300781 11.804688 48.8125 11.71875 49.242188 11.546875 C 49.675781 11.378906 50.03125 11.136719 50.308594 10.828125 C 50.589844 10.519531 50.796875 10.15625 50.933594 9.742188 C 51.070312 9.324219 51.140625 8.863281 51.140625 8.363281 L 51.140625 2.945312 L 49.554688 2.945312 L 49.554688 8.214844 C 49.554688 8.605469 49.511719 8.941406 49.425781 9.222656 C 49.335938 9.5 49.210938 9.726562 49.050781 9.902344 C 48.886719 10.078125 48.695312 10.207031 48.46875 10.289062 C 48.246094 10.375 47.996094 10.414062 47.722656 10.414062 C 47.445312 10.414062 47.199219 10.375 46.980469 10.289062 C 46.757812 10.207031 46.566406 10.078125 46.40625 9.902344 C 46.242188 9.726562 46.117188 9.5 46.03125 9.222656 C 45.945312 8.941406 45.898438 8.605469 45.898438 8.214844 L 45.898438 2.945312 L 44.316406 2.945312 L 44.316406 8.363281 C 44.316406 8.863281 44.382812 9.324219 44.515625 9.742188 C 44.648438 10.15625 44.855469 10.519531 45.132812 10.828125 C 45.410156 11.136719 45.761719 11.378906 46.1875 11.546875 C 46.609375 11.71875 47.117188 11.804688 47.707031 11.804688 Z M 55.757812 11.71875 C 57.09375 11.71875 58.089844 11.492188 58.738281 11.046875 C 59.386719 10.601562 59.710938 9.933594 59.710938 9.039062 C 59.710938 8.515625 59.585938 8.082031 59.335938 7.738281 C 59.085938 7.398438 58.699219 7.136719 58.175781 6.964844 C 58.527344 6.789062 58.796875 6.554688 58.992188 6.261719 C 59.1875 5.96875 59.285156 5.621094 59.285156 5.210938 C 59.285156 4.769531 59.195312 4.398438 59.011719 4.097656 C 58.828125 3.796875 58.574219 3.554688 58.246094 3.371094 C 57.917969 3.1875 57.527344 3.058594 57.078125 2.976562 C 56.628906 2.898438 56.144531 2.859375 55.617188 2.859375 C 55.425781 2.859375 55.226562 2.863281 55.015625 2.871094 C 54.800781 2.878906 54.585938 2.894531 54.371094 2.910156 C 54.15625 2.925781 53.941406 2.949219 53.734375 2.976562 C 53.527344 3.007812 53.332031 3.039062 53.148438 3.070312 L 53.148438 11.492188 C 53.496094 11.582031 53.90625 11.644531 54.371094 11.671875 C 54.835938 11.703125 55.296875 11.71875 55.757812 11.71875 Z M 55.804688 6.476562 L 54.695312 6.476562 L 54.695312 4.199219 C 54.828125 4.179688 54.988281 4.167969 55.175781 4.160156 C 55.363281 4.152344 55.578125 4.148438 55.820312 4.148438 C 56.382812 4.148438 56.84375 4.234375 57.195312 4.410156 C 57.550781 4.585938 57.726562 4.882812 57.726562 5.300781 C 57.726562 5.742188 57.558594 6.046875 57.214844 6.21875 C 56.875 6.390625 56.40625 6.476562 55.804688 6.476562 Z M 55.804688 10.402344 C 55.640625 10.402344 55.457031 10.398438 55.257812 10.390625 C 55.058594 10.382812 54.871094 10.371094 54.695312 10.351562 L 54.695312 7.714844 L 56.082031 7.714844 C 56.710938 7.714844 57.207031 7.808594 57.566406 8 C 57.921875 8.191406 58.101562 8.535156 58.101562 9.027344 C 58.101562 9.300781 58.042969 9.527344 57.921875 9.703125 C 57.800781 9.878906 57.636719 10.019531 57.433594 10.121094 C 57.230469 10.226562 56.988281 10.300781 56.710938 10.339844 C 56.433594 10.382812 56.128906 10.402344 55.804688 10.402344 Z M 67.195312 11.617188 L 67.195312 10.277344 L 62.917969 10.277344 L 62.917969 7.738281 L 66.460938 7.738281 L 66.460938 6.425781 L 62.917969 6.425781 L 62.917969 4.285156 L 66.898438 4.285156 L 66.898438 2.945312 L 61.34375 2.945312 L 61.34375 11.617188 Z M 70.226562 11.617188 L 70.226562 8.339844 L 71.226562 8.339844 C 71.308594 8.339844 71.410156 8.335938 71.527344 8.328125 C 71.683594 8.527344 71.855469 8.753906 72.039062 9.007812 C 72.21875 9.261719 72.40625 9.535156 72.59375 9.820312 C 72.78125 10.109375 72.964844 10.40625 73.148438 10.710938 C 73.332031 11.015625 73.5 11.316406 73.660156 11.617188 L 75.417969 11.617188 C 75.269531 11.292969 75.097656 10.960938 74.90625 10.621094 C 74.714844 10.285156 74.515625 9.957031 74.308594 9.632812 C 74.101562 9.3125 73.894531 9.015625 73.695312 8.738281 C 73.496094 8.464844 73.320312 8.230469 73.160156 8.039062 C 74.316406 7.621094 74.894531 6.824219 74.894531 5.648438 C 74.894531 4.707031 74.5625 4.007812 73.902344 3.546875 C 73.242188 3.089844 72.285156 2.859375 71.039062 2.859375 C 70.699219 2.859375 70.3125 2.875 69.878906 2.902344 C 69.445312 2.933594 69.039062 2.988281 68.65625 3.070312 L 68.65625 11.617188 Z M 70.914062 7.0625 L 70.226562 7.0625 L 70.226562 4.261719 C 70.511719 4.234375 70.820312 4.222656 71.152344 4.222656 C 71.460938 4.222656 71.742188 4.246094 72 4.292969 C 72.257812 4.339844 72.480469 4.414062 72.667969 4.523438 C 72.855469 4.632812 73 4.777344 73.097656 4.960938 C 73.199219 5.144531 73.246094 5.371094 73.246094 5.636719 C 73.246094 5.921875 73.199219 6.152344 73.097656 6.335938 C 73 6.519531 72.851562 6.667969 72.65625 6.777344 C 72.460938 6.882812 72.214844 6.957031 71.925781 7 C 71.632812 7.042969 71.296875 7.0625 70.914062 7.0625 Z M 79.585938 11.617188 C 79.902344 10.765625 80.21875 9.886719 80.535156 8.976562 C 80.851562 8.066406 81.160156 7.109375 81.46875 6.101562 C 82.078125 8.09375 82.703125 9.933594 83.351562 11.617188 L 84.851562 11.617188 C 85.292969 10.300781 85.691406 8.917969 86.046875 7.46875 C 86.40625 6.023438 86.730469 4.515625 87.019531 2.945312 L 85.398438 2.945312 C 85.300781 3.523438 85.195312 4.105469 85.082031 4.699219 C 84.96875 5.289062 84.855469 5.871094 84.738281 6.445312 C 84.621094 7.015625 84.503906 7.566406 84.390625 8.09375 C 84.273438 8.625 84.152344 9.113281 84.027344 9.566406 C 83.878906 9.148438 83.722656 8.703125 83.558594 8.234375 C 83.398438 7.761719 83.234375 7.28125 83.074219 6.792969 C 82.910156 6.304688 82.753906 5.816406 82.605469 5.332031 C 82.457031 4.84375 82.3125 4.375 82.179688 3.921875 L 80.832031 3.921875 C 80.707031 4.375 80.574219 4.839844 80.429688 5.324219 C 80.28125 5.808594 80.128906 6.292969 79.972656 6.78125 C 79.8125 7.269531 79.652344 7.75 79.492188 8.21875 C 79.328125 8.691406 79.167969 9.140625 79.011719 9.566406 C 78.886719 9.113281 78.761719 8.621094 78.636719 8.089844 C 78.511719 7.554688 78.390625 7.003906 78.269531 6.429688 C 78.148438 5.859375 78.03125 5.277344 77.921875 4.6875 C 77.808594 4.09375 77.703125 3.515625 77.601562 2.945312 L 75.917969 2.945312 C 76.207031 4.515625 76.53125 6.023438 76.882812 7.46875 C 77.238281 8.917969 77.640625 10.300781 78.089844 11.617188 Z M 94.195312 11.617188 L 94.195312 10.277344 L 89.914062 10.277344 L 89.914062 7.738281 L 93.460938 7.738281 L 93.460938 6.425781 L 89.914062 6.425781 L 89.914062 4.285156 L 93.894531 4.285156 L 93.894531 2.945312 L 88.34375 2.945312 L 88.34375 11.617188 Z M 97.226562 11.617188 L 97.226562 2.945312 L 95.65625 2.945312 L 95.65625 11.617188 Z M 101.394531 11.804688 C 102.457031 11.804688 103.265625 11.589844 103.820312 11.160156 C 104.375 10.730469 104.648438 10.125 104.648438 9.339844 C 104.648438 8.929688 104.59375 8.582031 104.476562 8.296875 C 104.359375 8.007812 104.191406 7.757812 103.96875 7.542969 C 103.75 7.332031 103.480469 7.148438 103.160156 6.996094 C 102.839844 6.839844 102.476562 6.6875 102.066406 6.539062 C 101.835938 6.453125 101.621094 6.367188 101.425781 6.273438 C 101.230469 6.183594 101.058594 6.082031 100.914062 5.976562 C 100.769531 5.867188 100.65625 5.742188 100.578125 5.605469 C 100.496094 5.46875 100.457031 5.304688 100.457031 5.113281 C 100.457031 4.792969 100.578125 4.546875 100.8125 4.375 C 101.050781 4.199219 101.382812 4.109375 101.804688 4.109375 C 102.164062 4.109375 102.511719 4.152344 102.847656 4.234375 C 103.183594 4.320312 103.496094 4.441406 103.777344 4.597656 L 104.261719 3.324219 C 104.023438 3.179688 103.691406 3.050781 103.273438 2.929688 C 102.851562 2.808594 102.371094 2.746094 101.832031 2.746094 C 100.898438 2.746094 100.164062 2.96875 99.621094 3.417969 C 99.082031 3.863281 98.8125 4.476562 98.8125 5.261719 C 98.8125 5.636719 98.875 5.957031 99.003906 6.226562 C 99.132812 6.492188 99.304688 6.722656 99.515625 6.914062 C 99.726562 7.105469 99.972656 7.265625 100.253906 7.394531 C 100.53125 7.523438 100.820312 7.644531 101.121094 7.75 C 101.417969 7.851562 101.683594 7.953125 101.917969 8.058594 C 102.152344 8.160156 102.347656 8.273438 102.511719 8.394531 C 102.671875 8.515625 102.796875 8.652344 102.886719 8.800781 C 102.972656 8.953125 103.015625 9.132812 103.015625 9.339844 C 103.015625 9.691406 102.886719 9.960938 102.628906 10.152344 C 102.371094 10.34375 101.960938 10.441406 101.394531 10.441406 C 100.851562 10.441406 100.390625 10.378906 100.007812 10.253906 C 99.625 10.128906 99.324219 10.003906 99.097656 9.878906 L 98.636719 11.167969 C 98.738281 11.226562 98.871094 11.289062 99.035156 11.359375 C 99.203125 11.429688 99.398438 11.5 99.628906 11.566406 C 99.855469 11.632812 100.121094 11.691406 100.414062 11.734375 C 100.710938 11.78125 101.035156 11.804688 101.394531 11.804688 Z M 109.367188 11.804688 C 109.957031 11.804688 110.46875 11.71875 110.902344 11.546875 C 111.332031 11.378906 111.6875 11.136719 111.96875 10.828125 C 112.246094 10.519531 112.453125 10.15625 112.589844 9.742188 C 112.730469 9.324219 112.796875 8.863281 112.796875 8.363281 L 112.796875 2.945312 L 111.210938 2.945312 L 111.210938 8.214844 C 111.210938 8.605469 111.167969 8.941406 111.082031 9.222656 C 110.996094 9.5 110.871094 9.726562 110.707031 9.902344 C 110.546875 10.078125 110.351562 10.207031 110.128906 10.289062 C 109.902344 10.375 109.652344 10.414062 109.378906 10.414062 C 109.105469 10.414062 108.855469 10.375 108.636719 10.289062 C 108.417969 10.207031 108.226562 10.078125 108.0625 9.902344 C 107.898438 9.726562 107.777344 9.5 107.6875 9.222656 C 107.601562 8.941406 107.558594 8.605469 107.558594 8.214844 L 107.558594 2.945312 L 105.972656 2.945312 L 105.972656 8.363281 C 105.972656 8.863281 106.039062 9.324219 106.171875 9.742188 C 106.304688 10.15625 106.511719 10.519531 106.789062 10.828125 C 107.070312 11.136719 107.421875 11.378906 107.84375 11.546875 C 108.269531 11.71875 108.777344 11.804688 109.367188 11.804688 Z M 116.351562 11.617188 L 116.351562 5.410156 C 116.703125 5.828125 117.070312 6.296875 117.457031 6.820312 C 117.84375 7.339844 118.222656 7.878906 118.597656 8.433594 C 118.972656 8.988281 119.335938 9.539062 119.683594 10.085938 C 120.035156 10.628906 120.347656 11.140625 120.632812 11.617188 L 121.96875 11.617188 L 121.96875 2.945312 L 120.40625 2.945312 L 120.40625 8.703125 C 120.125 8.25 119.800781 7.765625 119.441406 7.246094 C 119.078125 6.722656 118.703125 6.203125 118.316406 5.6875 C 117.929688 5.167969 117.546875 4.671875 117.164062 4.191406 C 116.78125 3.710938 116.421875 3.296875 116.089844 2.945312 L 114.804688 2.945312 L 114.804688 11.617188 Z M 127.855469 11.792969 C 128.53125 11.792969 129.125 11.742188 129.640625 11.640625 C 130.15625 11.542969 130.523438 11.449219 130.738281 11.367188 L 130.738281 7.199219 L 129.164062 7.199219 L 129.164062 10.316406 C 129.050781 10.347656 128.890625 10.375 128.691406 10.398438 C 128.492188 10.417969 128.253906 10.429688 127.980469 10.429688 C 127.539062 10.429688 127.15625 10.351562 126.828125 10.195312 C 126.5 10.042969 126.222656 9.828125 126.003906 9.554688 C 125.78125 9.277344 125.617188 8.945312 125.503906 8.558594 C 125.390625 8.171875 125.335938 7.742188 125.335938 7.277344 C 125.335938 6.292969 125.570312 5.523438 126.039062 4.96875 C 126.511719 4.414062 127.191406 4.136719 128.082031 4.136719 C 128.488281 4.136719 128.878906 4.1875 129.246094 4.292969 C 129.617188 4.394531 129.925781 4.523438 130.175781 4.671875 L 130.652344 3.386719 C 130.59375 3.351562 130.492188 3.296875 130.34375 3.222656 C 130.199219 3.148438 130.015625 3.078125 129.789062 3.007812 C 129.566406 2.941406 129.296875 2.882812 128.984375 2.828125 C 128.671875 2.773438 128.316406 2.746094 127.917969 2.746094 C 127.335938 2.746094 126.789062 2.847656 126.273438 3.046875 C 125.753906 3.246094 125.308594 3.542969 124.925781 3.929688 C 124.542969 4.316406 124.238281 4.789062 124.019531 5.347656 C 123.800781 5.90625 123.6875 6.550781 123.6875 7.277344 C 123.6875 8 123.789062 8.644531 123.988281 9.203125 C 124.1875 9.761719 124.46875 10.234375 124.832031 10.617188 C 125.191406 11 125.632812 11.292969 126.148438 11.492188 C 126.664062 11.691406 127.230469 11.792969 127.855469 11.792969 Z M 127.855469 11.792969 "></path>
    <path id="einServicevonSantander" fill="#FE0004" d="M 2.230469 20.640625 C 2.488281 20.640625 2.71875 20.613281 2.917969 20.566406 C 3.121094 20.519531 3.261719 20.472656 3.34375 20.433594 L 3.25 19.875 C 3.171875 19.914062 3.050781 19.953125 2.890625 19.992188 C 2.730469 20.03125 2.535156 20.054688 2.304688 20.054688 C 1.890625 20.054688 1.585938 19.953125 1.390625 19.753906 C 1.195312 19.550781 1.082031 19.257812 1.054688 18.875 L 3.59375 18.875 C 3.597656 18.835938 3.601562 18.792969 3.601562 18.75 L 3.601562 18.636719 C 3.601562 18 3.46875 17.523438 3.199219 17.210938 C 2.933594 16.898438 2.550781 16.742188 2.054688 16.742188 C 1.839844 16.742188 1.628906 16.785156 1.425781 16.863281 C 1.222656 16.945312 1.039062 17.066406 0.882812 17.230469 C 0.726562 17.390625 0.601562 17.59375 0.507812 17.839844 C 0.410156 18.085938 0.363281 18.371094 0.363281 18.703125 C 0.363281 18.984375 0.402344 19.242188 0.472656 19.476562 C 0.546875 19.714844 0.660156 19.917969 0.8125 20.089844 C 0.964844 20.261719 1.160156 20.394531 1.394531 20.492188 C 1.628906 20.589844 1.910156 20.640625 2.230469 20.640625 Z M 2.910156 18.335938 L 1.070312 18.335938 C 1.082031 18.207031 1.113281 18.082031 1.160156 17.957031 C 1.203125 17.835938 1.265625 17.722656 1.347656 17.628906 C 1.429688 17.535156 1.527344 17.457031 1.644531 17.398438 C 1.757812 17.335938 1.894531 17.308594 2.046875 17.308594 C 2.316406 17.308594 2.53125 17.402344 2.683594 17.597656 C 2.839844 17.789062 2.914062 18.035156 2.910156 18.335938 Z M 4.882812 16.164062 C 5.003906 16.164062 5.101562 16.125 5.1875 16.046875 C 5.269531 15.96875 5.3125 15.859375 5.3125 15.726562 C 5.3125 15.59375 5.269531 15.488281 5.1875 15.410156 C 5.101562 15.332031 5.003906 15.292969 4.882812 15.292969 C 4.765625 15.292969 4.664062 15.332031 4.582031 15.410156 C 4.496094 15.488281 4.457031 15.59375 4.457031 15.726562 C 4.457031 15.859375 4.496094 15.96875 4.582031 16.046875 C 4.664062 16.125 4.765625 16.164062 4.882812 16.164062 Z M 5.21875 20.554688 L 5.21875 16.835938 L 4.554688 16.835938 L 4.554688 20.554688 Z M 7.023438 20.554688 L 7.023438 17.414062 C 7.046875 17.410156 7.085938 17.402344 7.140625 17.394531 C 7.195312 17.382812 7.257812 17.375 7.324219 17.367188 C 7.394531 17.359375 7.464844 17.355469 7.542969 17.351562 C 7.617188 17.34375 7.691406 17.34375 7.765625 17.34375 C 7.941406 17.34375 8.085938 17.367188 8.207031 17.410156 C 8.324219 17.457031 8.417969 17.527344 8.492188 17.628906 C 8.5625 17.730469 8.613281 17.859375 8.644531 18.023438 C 8.675781 18.183594 8.691406 18.378906 8.691406 18.609375 L 8.691406 20.554688 L 9.355469 20.554688 L 9.355469 18.464844 C 9.355469 18.214844 9.328125 17.980469 9.28125 17.773438 C 9.234375 17.5625 9.152344 17.382812 9.035156 17.234375 C 8.917969 17.082031 8.765625 16.964844 8.570312 16.882812 C 8.375 16.796875 8.128906 16.757812 7.835938 16.757812 C 7.507812 16.757812 7.21875 16.777344 6.964844 16.820312 C 6.714844 16.863281 6.511719 16.90625 6.359375 16.941406 L 6.359375 20.554688 Z M 13.289062 20.660156 C 13.863281 20.660156 14.308594 20.542969 14.625 20.308594 C 14.941406 20.078125 15.101562 19.742188 15.101562 19.308594 C 15.101562 19.074219 15.0625 18.875 14.992188 18.710938 C 14.921875 18.546875 14.820312 18.40625 14.691406 18.285156 C 14.558594 18.167969 14.40625 18.066406 14.226562 17.980469 C 14.046875 17.894531 13.851562 17.808594 13.636719 17.722656 C 13.484375 17.664062 13.347656 17.609375 13.222656 17.550781 C 13.09375 17.492188 12.984375 17.429688 12.890625 17.359375 C 12.792969 17.292969 12.722656 17.210938 12.667969 17.121094 C 12.617188 17.03125 12.589844 16.917969 12.589844 16.785156 C 12.589844 16.667969 12.613281 16.5625 12.664062 16.476562 C 12.714844 16.386719 12.78125 16.3125 12.867188 16.257812 C 12.953125 16.199219 13.054688 16.15625 13.167969 16.128906 C 13.28125 16.097656 13.40625 16.085938 13.539062 16.085938 C 13.800781 16.085938 14.027344 16.113281 14.226562 16.175781 C 14.421875 16.234375 14.570312 16.292969 14.671875 16.355469 L 14.894531 15.792969 C 14.777344 15.714844 14.597656 15.644531 14.355469 15.582031 C 14.109375 15.515625 13.835938 15.484375 13.539062 15.484375 C 13.019531 15.484375 12.613281 15.605469 12.320312 15.847656 C 12.023438 16.09375 11.878906 16.429688 11.878906 16.863281 C 11.878906 17.074219 11.910156 17.253906 11.980469 17.402344 C 12.050781 17.546875 12.144531 17.675781 12.261719 17.78125 C 12.382812 17.890625 12.519531 17.984375 12.683594 18.0625 C 12.84375 18.140625 13.015625 18.210938 13.195312 18.273438 C 13.351562 18.328125 13.5 18.386719 13.640625 18.445312 C 13.78125 18.5 13.90625 18.570312 14.015625 18.648438 C 14.125 18.726562 14.210938 18.820312 14.277344 18.925781 C 14.339844 19.035156 14.371094 19.164062 14.371094 19.316406 C 14.371094 19.8125 14.011719 20.058594 13.289062 20.058594 C 12.964844 20.058594 12.691406 20.023438 12.46875 19.945312 C 12.246094 19.871094 12.078125 19.800781 11.96875 19.738281 L 11.761719 20.308594 C 11.816406 20.339844 11.886719 20.375 11.980469 20.414062 C 12.074219 20.453125 12.183594 20.492188 12.3125 20.527344 C 12.441406 20.5625 12.585938 20.59375 12.75 20.621094 C 12.914062 20.648438 13.09375 20.660156 13.289062 20.660156 Z M 17.550781 20.640625 C 17.808594 20.640625 18.039062 20.613281 18.238281 20.566406 C 18.441406 20.519531 18.582031 20.472656 18.664062 20.433594 L 18.570312 19.875 C 18.492188 19.914062 18.371094 19.953125 18.210938 19.992188 C 18.050781 20.03125 17.855469 20.054688 17.625 20.054688 C 17.210938 20.054688 16.90625 19.953125 16.710938 19.753906 C 16.515625 19.550781 16.40625 19.257812 16.375 18.875 L 18.914062 18.875 C 18.917969 18.835938 18.921875 18.792969 18.921875 18.75 L 18.921875 18.636719 C 18.921875 18 18.789062 17.523438 18.523438 17.210938 C 18.253906 16.898438 17.871094 16.742188 17.375 16.742188 C 17.160156 16.742188 16.949219 16.785156 16.746094 16.863281 C 16.542969 16.945312 16.363281 17.066406 16.203125 17.230469 C 16.046875 17.390625 15.921875 17.59375 15.828125 17.839844 C 15.730469 18.085938 15.683594 18.371094 15.683594 18.703125 C 15.683594 18.984375 15.722656 19.242188 15.792969 19.476562 C 15.867188 19.714844 15.980469 19.917969 16.132812 20.089844 C 16.285156 20.261719 16.480469 20.394531 16.714844 20.492188 C 16.949219 20.589844 17.230469 20.640625 17.550781 20.640625 Z M 18.230469 18.335938 L 16.390625 18.335938 C 16.40625 18.207031 16.433594 18.082031 16.480469 17.957031 C 16.523438 17.835938 16.585938 17.722656 16.667969 17.628906 C 16.75 17.535156 16.847656 17.457031 16.964844 17.398438 C 17.082031 17.335938 17.214844 17.308594 17.367188 17.308594 C 17.636719 17.308594 17.851562 17.402344 18.003906 17.597656 C 18.160156 17.789062 18.234375 18.035156 18.230469 18.335938 Z M 20.539062 20.554688 L 20.539062 17.429688 C 20.578125 17.417969 20.65625 17.402344 20.777344 17.375 C 20.898438 17.347656 21.023438 17.335938 21.144531 17.335938 C 21.335938 17.335938 21.492188 17.347656 21.613281 17.375 C 21.734375 17.402344 21.820312 17.425781 21.871094 17.445312 L 21.988281 16.863281 C 21.957031 16.855469 21.914062 16.84375 21.855469 16.832031 C 21.796875 16.820312 21.730469 16.808594 21.660156 16.796875 C 21.585938 16.785156 21.515625 16.773438 21.441406 16.769531 C 21.367188 16.761719 21.300781 16.757812 21.246094 16.757812 C 20.957031 16.757812 20.695312 16.78125 20.460938 16.832031 C 20.226562 16.882812 20.03125 16.9375 19.875 16.992188 L 19.875 20.554688 Z M 24.148438 20.554688 C 24.378906 20.046875 24.621094 19.476562 24.871094 18.835938 C 25.121094 18.199219 25.335938 17.53125 25.523438 16.835938 L 24.839844 16.835938 C 24.78125 17.070312 24.714844 17.316406 24.636719 17.582031 C 24.558594 17.847656 24.472656 18.109375 24.386719 18.371094 C 24.296875 18.628906 24.207031 18.878906 24.117188 19.125 C 24.027344 19.367188 23.941406 19.582031 23.863281 19.773438 C 23.78125 19.582031 23.695312 19.367188 23.605469 19.125 C 23.515625 18.878906 23.425781 18.628906 23.335938 18.371094 C 23.25 18.109375 23.167969 17.847656 23.089844 17.582031 C 23.007812 17.316406 22.941406 17.070312 22.886719 16.835938 L 22.171875 16.835938 C 22.355469 17.53125 22.574219 18.199219 22.824219 18.835938 C 23.074219 19.476562 23.316406 20.046875 23.546875 20.554688 Z M 26.535156 16.164062 C 26.652344 16.164062 26.753906 16.125 26.839844 16.046875 C 26.921875 15.96875 26.960938 15.859375 26.960938 15.726562 C 26.960938 15.59375 26.921875 15.488281 26.839844 15.410156 C 26.753906 15.332031 26.652344 15.292969 26.535156 15.292969 C 26.417969 15.292969 26.316406 15.332031 26.230469 15.410156 C 26.148438 15.488281 26.105469 15.59375 26.105469 15.726562 C 26.105469 15.859375 26.148438 15.96875 26.230469 16.046875 C 26.316406 16.125 26.417969 16.164062 26.535156 16.164062 Z M 26.871094 20.554688 L 26.871094 16.835938 L 26.207031 16.835938 L 26.207031 20.554688 Z M 29.621094 20.640625 C 29.71875 20.640625 29.816406 20.632812 29.917969 20.621094 C 30.019531 20.609375 30.117188 20.59375 30.207031 20.578125 C 30.296875 20.5625 30.378906 20.542969 30.449219 20.519531 C 30.519531 20.5 30.574219 20.476562 30.613281 20.453125 L 30.519531 19.894531 C 30.441406 19.933594 30.328125 19.96875 30.183594 20.003906 C 30.042969 20.035156 29.882812 20.054688 29.707031 20.054688 C 29.488281 20.054688 29.304688 20.019531 29.152344 19.957031 C 29 19.890625 28.875 19.800781 28.777344 19.679688 C 28.679688 19.5625 28.609375 19.417969 28.5625 19.253906 C 28.519531 19.085938 28.496094 18.902344 28.496094 18.703125 C 28.496094 18.253906 28.59375 17.914062 28.792969 17.679688 C 28.988281 17.445312 29.273438 17.328125 29.644531 17.328125 C 29.789062 17.328125 29.929688 17.34375 30.058594 17.371094 C 30.191406 17.402344 30.304688 17.4375 30.40625 17.484375 L 30.554688 16.921875 C 30.402344 16.859375 30.246094 16.8125 30.078125 16.785156 C 29.910156 16.757812 29.746094 16.742188 29.578125 16.742188 C 29.308594 16.742188 29.0625 16.792969 28.839844 16.890625 C 28.621094 16.988281 28.433594 17.121094 28.28125 17.296875 C 28.128906 17.472656 28.011719 17.675781 27.929688 17.914062 C 27.84375 18.152344 27.804688 18.414062 27.804688 18.703125 C 27.804688 18.988281 27.84375 19.25 27.917969 19.484375 C 27.996094 19.71875 28.109375 19.925781 28.265625 20.09375 C 28.417969 20.265625 28.609375 20.402344 28.835938 20.496094 C 29.058594 20.589844 29.324219 20.640625 29.621094 20.640625 Z M 32.988281 20.640625 C 33.242188 20.640625 33.472656 20.613281 33.675781 20.566406 C 33.878906 20.519531 34.019531 20.472656 34.097656 20.433594 L 34.007812 19.875 C 33.925781 19.914062 33.804688 19.953125 33.648438 19.992188 C 33.488281 20.03125 33.292969 20.054688 33.058594 20.054688 C 32.644531 20.054688 32.339844 19.953125 32.144531 19.753906 C 31.949219 19.550781 31.839844 19.257812 31.8125 18.875 L 34.347656 18.875 C 34.351562 18.835938 34.355469 18.792969 34.355469 18.75 L 34.355469 18.636719 C 34.355469 18 34.222656 17.523438 33.957031 17.210938 C 33.691406 16.898438 33.308594 16.742188 32.808594 16.742188 C 32.59375 16.742188 32.386719 16.785156 32.179688 16.863281 C 31.976562 16.945312 31.796875 17.066406 31.640625 17.230469 C 31.484375 17.390625 31.355469 17.59375 31.261719 17.839844 C 31.167969 18.085938 31.121094 18.371094 31.121094 18.703125 C 31.121094 18.984375 31.15625 19.242188 31.230469 19.476562 C 31.304688 19.714844 31.417969 19.917969 31.566406 20.089844 C 31.71875 20.261719 31.914062 20.394531 32.148438 20.492188 C 32.382812 20.589844 32.664062 20.640625 32.988281 20.640625 Z M 33.664062 18.335938 L 31.824219 18.335938 C 31.839844 18.207031 31.867188 18.082031 31.914062 17.957031 C 31.960938 17.835938 32.023438 17.722656 32.101562 17.628906 C 32.183594 17.535156 32.28125 17.457031 32.398438 17.398438 C 32.515625 17.335938 32.648438 17.308594 32.800781 17.308594 C 33.074219 17.308594 33.285156 17.402344 33.441406 17.597656 C 33.59375 17.789062 33.667969 18.035156 33.664062 18.335938 Z M 38.476562 20.554688 C 38.710938 20.046875 38.949219 19.476562 39.199219 18.835938 C 39.449219 18.199219 39.667969 17.53125 39.851562 16.835938 L 39.167969 16.835938 C 39.109375 17.070312 39.042969 17.316406 38.964844 17.582031 C 38.886719 17.847656 38.804688 18.109375 38.714844 18.371094 C 38.628906 18.628906 38.539062 18.878906 38.449219 19.125 C 38.359375 19.367188 38.273438 19.582031 38.191406 19.773438 C 38.109375 19.582031 38.023438 19.367188 37.933594 19.125 C 37.84375 18.878906 37.753906 18.628906 37.667969 18.371094 C 37.578125 18.109375 37.496094 17.847656 37.417969 17.582031 C 37.339844 17.316406 37.273438 17.070312 37.214844 16.835938 L 36.5 16.835938 C 36.6875 17.53125 36.90625 18.199219 37.152344 18.835938 C 37.402344 19.476562 37.644531 20.046875 37.878906 20.554688 Z M 42.070312 20.644531 C 42.320312 20.644531 42.554688 20.601562 42.769531 20.507812 C 42.980469 20.414062 43.167969 20.28125 43.320312 20.109375 C 43.476562 19.9375 43.59375 19.734375 43.679688 19.496094 C 43.765625 19.257812 43.808594 18.988281 43.808594 18.695312 C 43.808594 18.402344 43.765625 18.136719 43.679688 17.898438 C 43.59375 17.65625 43.476562 17.449219 43.320312 17.277344 C 43.167969 17.105469 42.980469 16.976562 42.769531 16.882812 C 42.554688 16.789062 42.320312 16.742188 42.070312 16.742188 C 41.816406 16.742188 41.585938 16.789062 41.371094 16.882812 C 41.15625 16.976562 40.972656 17.105469 40.820312 17.277344 C 40.664062 17.449219 40.542969 17.65625 40.457031 17.898438 C 40.371094 18.136719 40.332031 18.402344 40.332031 18.695312 C 40.332031 18.988281 40.371094 19.257812 40.457031 19.496094 C 40.542969 19.734375 40.664062 19.9375 40.820312 20.109375 C 40.972656 20.28125 41.15625 20.414062 41.371094 20.507812 C 41.585938 20.601562 41.816406 20.644531 42.070312 20.644531 Z M 42.070312 20.058594 C 41.746094 20.058594 41.492188 19.9375 41.304688 19.691406 C 41.117188 19.445312 41.023438 19.113281 41.023438 18.695312 C 41.023438 18.273438 41.117188 17.941406 41.304688 17.695312 C 41.492188 17.453125 41.746094 17.328125 42.070312 17.328125 C 42.394531 17.328125 42.648438 17.453125 42.835938 17.695312 C 43.023438 17.941406 43.117188 18.273438 43.117188 18.695312 C 43.117188 19.113281 43.023438 19.445312 42.835938 19.691406 C 42.648438 19.9375 42.394531 20.058594 42.070312 20.058594 Z M 45.40625 20.554688 L 45.40625 17.414062 C 45.429688 17.410156 45.46875 17.402344 45.523438 17.394531 C 45.578125 17.382812 45.640625 17.375 45.710938 17.367188 C 45.777344 17.359375 45.851562 17.355469 45.925781 17.351562 C 46.003906 17.34375 46.078125 17.34375 46.148438 17.34375 C 46.324219 17.34375 46.472656 17.367188 46.589844 17.410156 C 46.707031 17.457031 46.804688 17.527344 46.875 17.628906 C 46.945312 17.730469 46.996094 17.859375 47.027344 18.023438 C 47.058594 18.183594 47.074219 18.378906 47.074219 18.609375 L 47.074219 20.554688 L 47.738281 20.554688 L 47.738281 18.464844 C 47.738281 18.214844 47.714844 17.980469 47.667969 17.773438 C 47.617188 17.5625 47.535156 17.382812 47.421875 17.234375 C 47.304688 17.082031 47.148438 16.964844 46.953125 16.882812 C 46.757812 16.796875 46.511719 16.757812 46.21875 16.757812 C 45.890625 16.757812 45.601562 16.777344 45.347656 16.820312 C 45.097656 16.863281 44.894531 16.90625 44.742188 16.941406 L 44.742188 20.554688 Z M 51.671875 20.660156 C 52.246094 20.660156 52.695312 20.542969 53.007812 20.308594 C 53.324219 20.078125 53.484375 19.742188 53.484375 19.308594 C 53.484375 19.074219 53.449219 18.875 53.375 18.710938 C 53.304688 18.546875 53.203125 18.40625 53.074219 18.285156 C 52.941406 18.167969 52.789062 18.066406 52.609375 17.980469 C 52.433594 17.894531 52.234375 17.808594 52.023438 17.722656 C 51.871094 17.664062 51.730469 17.609375 51.605469 17.550781 C 51.480469 17.492188 51.367188 17.429688 51.273438 17.359375 C 51.179688 17.292969 51.105469 17.210938 51.050781 17.121094 C 51 17.03125 50.972656 16.917969 50.972656 16.785156 C 50.972656 16.667969 51 16.5625 51.050781 16.476562 C 51.097656 16.386719 51.167969 16.3125 51.253906 16.257812 C 51.335938 16.199219 51.4375 16.15625 51.550781 16.128906 C 51.664062 16.097656 51.789062 16.085938 51.921875 16.085938 C 52.183594 16.085938 52.414062 16.113281 52.609375 16.175781 C 52.808594 16.234375 52.957031 16.292969 53.054688 16.355469 L 53.277344 15.792969 C 53.164062 15.714844 52.984375 15.644531 52.738281 15.582031 C 52.492188 15.515625 52.222656 15.484375 51.921875 15.484375 C 51.402344 15.484375 50.996094 15.605469 50.703125 15.847656 C 50.410156 16.09375 50.261719 16.429688 50.261719 16.863281 C 50.261719 17.074219 50.296875 17.253906 50.363281 17.402344 C 50.433594 17.546875 50.527344 17.675781 50.644531 17.78125 C 50.765625 17.890625 50.90625 17.984375 51.066406 18.0625 C 51.226562 18.140625 51.398438 18.210938 51.582031 18.273438 C 51.738281 18.328125 51.886719 18.386719 52.027344 18.445312 C 52.164062 18.5 52.289062 18.570312 52.398438 18.648438 C 52.507812 18.726562 52.597656 18.820312 52.660156 18.925781 C 52.722656 19.035156 52.757812 19.164062 52.757812 19.316406 C 52.757812 19.8125 52.394531 20.058594 51.671875 20.058594 C 51.351562 20.058594 51.078125 20.023438 50.851562 19.945312 C 50.628906 19.871094 50.464844 19.800781 50.355469 19.738281 L 50.148438 20.308594 C 50.199219 20.339844 50.273438 20.375 50.363281 20.414062 C 50.457031 20.453125 50.566406 20.492188 50.695312 20.527344 C 50.824219 20.5625 50.96875 20.59375 51.132812 20.621094 C 51.296875 20.648438 51.476562 20.660156 51.671875 20.660156 Z M 55.453125 20.632812 C 55.597656 20.632812 55.746094 20.625 55.898438 20.613281 C 56.046875 20.601562 56.1875 20.589844 56.3125 20.574219 C 56.441406 20.558594 56.558594 20.542969 56.660156 20.527344 C 56.761719 20.511719 56.839844 20.5 56.898438 20.488281 L 56.898438 18.164062 C 56.898438 17.957031 56.875 17.765625 56.828125 17.589844 C 56.78125 17.414062 56.699219 17.265625 56.589844 17.140625 C 56.476562 17.011719 56.328125 16.914062 56.144531 16.847656 C 55.964844 16.777344 55.738281 16.742188 55.472656 16.742188 C 55.238281 16.742188 55.023438 16.761719 54.824219 16.796875 C 54.625 16.832031 54.480469 16.867188 54.394531 16.90625 L 54.476562 17.457031 C 54.554688 17.425781 54.679688 17.390625 54.839844 17.359375 C 55.003906 17.332031 55.195312 17.316406 55.414062 17.316406 C 55.585938 17.316406 55.726562 17.339844 55.832031 17.390625 C 55.941406 17.441406 56.023438 17.507812 56.085938 17.589844 C 56.148438 17.671875 56.191406 17.769531 56.214844 17.875 C 56.238281 17.984375 56.25 18.089844 56.25 18.203125 L 56.25 18.386719 C 56.230469 18.382812 56.199219 18.375 56.148438 18.367188 C 56.101562 18.355469 56.046875 18.34375 55.984375 18.332031 C 55.917969 18.320312 55.851562 18.3125 55.777344 18.304688 C 55.707031 18.296875 55.640625 18.292969 55.574219 18.292969 C 55.363281 18.292969 55.164062 18.316406 54.972656 18.359375 C 54.785156 18.402344 54.617188 18.46875 54.476562 18.558594 C 54.332031 18.648438 54.21875 18.769531 54.136719 18.917969 C 54.054688 19.0625 54.011719 19.238281 54.011719 19.445312 C 54.011719 19.660156 54.046875 19.84375 54.117188 19.996094 C 54.1875 20.148438 54.289062 20.269531 54.417969 20.363281 C 54.546875 20.457031 54.699219 20.523438 54.875 20.566406 C 55.050781 20.609375 55.242188 20.632812 55.453125 20.632812 Z M 55.53125 20.074219 C 55.269531 20.074219 55.0625 20.027344 54.910156 19.933594 C 54.757812 19.84375 54.679688 19.675781 54.679688 19.4375 C 54.679688 19.308594 54.710938 19.207031 54.773438 19.128906 C 54.835938 19.046875 54.914062 18.988281 55.003906 18.941406 C 55.097656 18.894531 55.199219 18.867188 55.3125 18.851562 C 55.425781 18.835938 55.53125 18.832031 55.628906 18.832031 C 55.78125 18.832031 55.910156 18.839844 56.019531 18.855469 C 56.125 18.871094 56.203125 18.890625 56.25 18.917969 L 56.25 20.023438 C 56.167969 20.042969 56.066406 20.054688 55.945312 20.0625 C 55.824219 20.070312 55.6875 20.074219 55.53125 20.074219 Z M 58.660156 20.554688 L 58.660156 17.414062 C 58.683594 17.410156 58.722656 17.402344 58.777344 17.394531 C 58.832031 17.382812 58.894531 17.375 58.960938 17.367188 C 59.03125 17.359375 59.105469 17.355469 59.179688 17.351562 C 59.257812 17.34375 59.328125 17.34375 59.402344 17.34375 C 59.578125 17.34375 59.722656 17.367188 59.84375 17.410156 C 59.960938 17.457031 60.058594 17.527344 60.128906 17.628906 C 60.199219 17.730469 60.25 17.859375 60.28125 18.023438 C 60.3125 18.183594 60.328125 18.378906 60.328125 18.609375 L 60.328125 20.554688 L 60.992188 20.554688 L 60.992188 18.464844 C 60.992188 18.214844 60.96875 17.980469 60.917969 17.773438 C 60.871094 17.5625 60.789062 17.382812 60.671875 17.234375 C 60.558594 17.082031 60.402344 16.964844 60.207031 16.882812 C 60.011719 16.796875 59.765625 16.757812 59.472656 16.757812 C 59.144531 16.757812 58.855469 16.777344 58.601562 16.820312 C 58.351562 16.863281 58.148438 16.90625 57.996094 16.941406 L 57.996094 20.554688 Z M 63.335938 20.632812 C 63.550781 20.632812 63.742188 20.605469 63.90625 20.558594 C 64.074219 20.507812 64.1875 20.464844 64.257812 20.433594 L 64.128906 19.882812 C 64.082031 19.898438 63.996094 19.933594 63.875 19.976562 C 63.753906 20.023438 63.59375 20.046875 63.394531 20.046875 C 63.277344 20.046875 63.179688 20.03125 63.09375 20.003906 C 63.007812 19.972656 62.9375 19.925781 62.878906 19.855469 C 62.824219 19.785156 62.78125 19.691406 62.75 19.570312 C 62.722656 19.449219 62.707031 19.296875 62.707031 19.109375 L 62.707031 17.394531 L 64.113281 17.394531 L 64.113281 16.835938 L 62.707031 16.835938 L 62.707031 15.683594 L 62.046875 15.800781 L 62.046875 19.117188 C 62.046875 19.363281 62.066406 19.582031 62.105469 19.769531 C 62.148438 19.957031 62.21875 20.117188 62.316406 20.246094 C 62.417969 20.375 62.546875 20.472656 62.710938 20.535156 C 62.875 20.601562 63.085938 20.632812 63.335938 20.632812 Z M 66.132812 20.632812 C 66.277344 20.632812 66.425781 20.625 66.578125 20.613281 C 66.726562 20.601562 66.867188 20.589844 66.992188 20.574219 C 67.121094 20.558594 67.238281 20.542969 67.339844 20.527344 C 67.441406 20.511719 67.519531 20.5 67.578125 20.488281 L 67.578125 18.164062 C 67.578125 17.957031 67.554688 17.765625 67.507812 17.589844 C 67.460938 17.414062 67.378906 17.265625 67.269531 17.140625 C 67.15625 17.011719 67.007812 16.914062 66.824219 16.847656 C 66.644531 16.777344 66.417969 16.742188 66.152344 16.742188 C 65.917969 16.742188 65.703125 16.761719 65.503906 16.796875 C 65.304688 16.832031 65.160156 16.867188 65.074219 16.90625 L 65.152344 17.457031 C 65.234375 17.425781 65.355469 17.390625 65.519531 17.359375 C 65.683594 17.332031 65.875 17.316406 66.09375 17.316406 C 66.265625 17.316406 66.40625 17.339844 66.511719 17.390625 C 66.621094 17.441406 66.703125 17.507812 66.765625 17.589844 C 66.828125 17.671875 66.871094 17.769531 66.894531 17.875 C 66.917969 17.984375 66.929688 18.089844 66.929688 18.203125 L 66.929688 18.386719 C 66.910156 18.382812 66.878906 18.375 66.828125 18.367188 C 66.78125 18.355469 66.726562 18.34375 66.660156 18.332031 C 66.597656 18.320312 66.53125 18.3125 66.457031 18.304688 C 66.386719 18.296875 66.320312 18.292969 66.253906 18.292969 C 66.042969 18.292969 65.84375 18.316406 65.652344 18.359375 C 65.464844 18.402344 65.296875 18.46875 65.152344 18.558594 C 65.011719 18.648438 64.898438 18.769531 64.816406 18.917969 C 64.730469 19.0625 64.691406 19.238281 64.691406 19.445312 C 64.691406 19.660156 64.726562 19.84375 64.796875 19.996094 C 64.867188 20.148438 64.96875 20.269531 65.097656 20.363281 C 65.226562 20.457031 65.378906 20.523438 65.554688 20.566406 C 65.730469 20.609375 65.921875 20.632812 66.132812 20.632812 Z M 66.210938 20.074219 C 65.949219 20.074219 65.742188 20.027344 65.589844 19.933594 C 65.4375 19.84375 65.359375 19.675781 65.359375 19.4375 C 65.359375 19.308594 65.390625 19.207031 65.453125 19.128906 C 65.515625 19.046875 65.59375 18.988281 65.683594 18.941406 C 65.777344 18.894531 65.878906 18.867188 65.992188 18.851562 C 66.105469 18.835938 66.210938 18.832031 66.308594 18.832031 C 66.460938 18.832031 66.589844 18.839844 66.699219 18.855469 C 66.804688 18.871094 66.882812 18.890625 66.929688 18.917969 L 66.929688 20.023438 C 66.847656 20.042969 66.746094 20.054688 66.625 20.0625 C 66.503906 20.070312 66.367188 20.074219 66.210938 20.074219 Z M 69.339844 20.554688 L 69.339844 17.414062 C 69.363281 17.410156 69.402344 17.402344 69.457031 17.394531 C 69.511719 17.382812 69.574219 17.375 69.640625 17.367188 C 69.710938 17.359375 69.785156 17.355469 69.859375 17.351562 C 69.9375 17.34375 70.007812 17.34375 70.082031 17.34375 C 70.257812 17.34375 70.402344 17.367188 70.523438 17.410156 C 70.640625 17.457031 70.738281 17.527344 70.808594 17.628906 C 70.878906 17.730469 70.929688 17.859375 70.960938 18.023438 C 70.992188 18.183594 71.007812 18.378906 71.007812 18.609375 L 71.007812 20.554688 L 71.671875 20.554688 L 71.671875 18.464844 C 71.671875 18.214844 71.648438 17.980469 71.597656 17.773438 C 71.550781 17.5625 71.46875 17.382812 71.351562 17.234375 C 71.238281 17.082031 71.082031 16.964844 70.886719 16.882812 C 70.691406 16.796875 70.445312 16.757812 70.152344 16.757812 C 69.824219 16.757812 69.535156 16.777344 69.28125 16.820312 C 69.03125 16.863281 68.828125 16.90625 68.675781 16.941406 L 68.675781 20.554688 Z M 74.421875 20.640625 C 74.730469 20.640625 75.003906 20.617188 75.242188 20.574219 C 75.480469 20.53125 75.675781 20.488281 75.828125 20.445312 L 75.828125 15.003906 L 75.164062 15.121094 L 75.164062 17 C 75.082031 16.949219 74.960938 16.894531 74.796875 16.835938 C 74.632812 16.777344 74.445312 16.75 74.230469 16.75 C 73.964844 16.75 73.726562 16.796875 73.519531 16.894531 C 73.3125 16.988281 73.140625 17.121094 72.996094 17.292969 C 72.855469 17.464844 72.746094 17.667969 72.671875 17.90625 C 72.597656 18.144531 72.5625 18.410156 72.5625 18.695312 C 72.5625 18.996094 72.605469 19.265625 72.695312 19.507812 C 72.78125 19.746094 72.90625 19.949219 73.066406 20.117188 C 73.230469 20.285156 73.425781 20.414062 73.652344 20.503906 C 73.878906 20.59375 74.136719 20.640625 74.421875 20.640625 Z M 74.429688 20.054688 C 74.074219 20.054688 73.789062 19.933594 73.574219 19.699219 C 73.359375 19.464844 73.253906 19.128906 73.253906 18.695312 C 73.253906 18.503906 73.273438 18.324219 73.308594 18.160156 C 73.347656 17.992188 73.410156 17.847656 73.496094 17.726562 C 73.582031 17.605469 73.691406 17.507812 73.828125 17.441406 C 73.960938 17.371094 74.125 17.335938 74.316406 17.335938 C 74.496094 17.335938 74.664062 17.367188 74.8125 17.429688 C 74.964844 17.492188 75.082031 17.554688 75.164062 17.621094 L 75.164062 19.972656 C 75.097656 19.992188 75.003906 20.011719 74.882812 20.027344 C 74.761719 20.042969 74.609375 20.054688 74.429688 20.054688 Z M 78.628906 20.640625 C 78.886719 20.640625 79.113281 20.613281 79.316406 20.566406 C 79.519531 20.519531 79.660156 20.472656 79.742188 20.433594 L 79.648438 19.875 C 79.566406 19.914062 79.445312 19.953125 79.289062 19.992188 C 79.128906 20.03125 78.933594 20.054688 78.699219 20.054688 C 78.285156 20.054688 77.980469 19.953125 77.789062 19.753906 C 77.59375 19.550781 77.480469 19.257812 77.453125 18.875 L 79.988281 18.875 C 79.996094 18.835938 79.996094 18.792969 79.996094 18.75 L 79.996094 18.636719 C 79.996094 18 79.863281 17.523438 79.597656 17.210938 C 79.332031 16.898438 78.949219 16.742188 78.449219 16.742188 C 78.238281 16.742188 78.027344 16.785156 77.824219 16.863281 C 77.617188 16.945312 77.4375 17.066406 77.28125 17.230469 C 77.125 17.390625 77 17.59375 76.902344 17.839844 C 76.808594 18.085938 76.761719 18.371094 76.761719 18.703125 C 76.761719 18.984375 76.796875 19.242188 76.871094 19.476562 C 76.945312 19.714844 77.058594 19.917969 77.210938 20.089844 C 77.363281 20.261719 77.554688 20.394531 77.789062 20.492188 C 78.027344 20.589844 78.304688 20.640625 78.628906 20.640625 Z M 79.304688 18.335938 L 77.464844 18.335938 C 77.480469 18.207031 77.511719 18.082031 77.554688 17.957031 C 77.601562 17.835938 77.664062 17.722656 77.746094 17.628906 C 77.824219 17.535156 77.925781 17.457031 78.039062 17.398438 C 78.15625 17.335938 78.292969 17.308594 78.441406 17.308594 C 78.714844 17.308594 78.925781 17.402344 79.082031 17.597656 C 79.234375 17.789062 79.3125 18.035156 79.304688 18.335938 Z M 81.617188 20.554688 L 81.617188 17.429688 C 81.652344 17.417969 81.734375 17.402344 81.855469 17.375 C 81.976562 17.347656 82.097656 17.335938 82.222656 17.335938 C 82.410156 17.335938 82.566406 17.347656 82.6875 17.375 C 82.808594 17.402344 82.898438 17.425781 82.949219 17.445312 L 83.0625 16.863281 C 83.035156 16.855469 82.992188 16.84375 82.929688 16.832031 C 82.871094 16.820312 82.804688 16.808594 82.734375 16.796875 C 82.664062 16.785156 82.589844 16.773438 82.515625 16.769531 C 82.445312 16.761719 82.378906 16.757812 82.320312 16.757812 C 82.03125 16.757812 81.769531 16.78125 81.539062 16.832031 C 81.304688 16.882812 81.109375 16.9375 80.953125 16.992188 L 80.953125 20.554688 Z M 81.617188 20.554688 "></path>
  </g>
</svg>
