<svg viewBox="0 0 62 21" preserveAspectRatio="xMidYMin slice" width="100%">
  <g>
    <path fill="#111" d="M 58.953125 3.675781 C 58.917969 4.207031 58.644531 4.660156 58.085938 4.921875 C 57.746094 5.082031 57.390625 5.214844 57.042969 5.363281 C 56.914062 5.410156 56.796875 5.46875 56.671875 5.515625 C 56.457031 5.59375 56.230469 5.601562 56.023438 5.507812 C 55.648438 5.347656 55.457031 4.941406 55.5625 4.535156 C 55.578125 4.492188 55.589844 4.453125 55.613281 4.410156 C 55.808594 3.949219 55.988281 3.480469 56.199219 3.023438 C 56.40625 2.554688 56.769531 2.273438 57.277344 2.175781 C 58.066406 2.023438 58.9375 2.625 58.953125 3.675781 Z M 58.953125 3.675781 "></path>
    <path fill="#111" d="M 50.421875 9.304688 C 50.449219 8.699219 50.730469 8.253906 51.289062 7.992188 C 51.585938 7.855469 51.902344 7.734375 52.207031 7.601562 C 52.375 7.53125 52.535156 7.453125 52.703125 7.398438 C 53.066406 7.265625 53.414062 7.351562 53.644531 7.621094 C 53.855469 7.875 53.894531 8.167969 53.777344 8.46875 C 53.671875 8.742188 53.5625 9.007812 53.441406 9.273438 C 53.34375 9.5 53.261719 9.730469 53.148438 9.953125 C 52.757812 10.738281 51.804688 11.003906 51.078125 10.527344 C 50.644531 10.242188 50.4375 9.828125 50.421875 9.304688 Z M 50.421875 9.304688 "></path>
    <path fill="#111" d="M 58.953125 9.238281 C 58.945312 9.953125 58.511719 10.527344 57.921875 10.703125 C 57.300781 10.886719 56.636719 10.632812 56.296875 10.085938 C 56.261719 10.03125 56.226562 9.96875 56.203125 9.910156 C 56.003906 9.4375 55.808594 8.96875 55.613281 8.492188 C 55.527344 8.296875 55.519531 8.097656 55.582031 7.902344 C 55.730469 7.46875 56.175781 7.246094 56.628906 7.386719 C 56.726562 7.414062 56.816406 7.460938 56.910156 7.496094 C 57.300781 7.65625 57.691406 7.8125 58.074219 7.988281 C 58.644531 8.246094 58.925781 8.707031 58.953125 9.238281 Z M 58.953125 9.238281 "></path>
    <path fill="#111" d="M 50.421875 3.652344 C 50.414062 2.960938 50.847656 2.371094 51.460938 2.203125 C 52.089844 2.03125 52.746094 2.28125 53.085938 2.835938 C 53.136719 2.910156 53.171875 2.988281 53.207031 3.074219 C 53.386719 3.507812 53.566406 3.933594 53.742188 4.367188 C 53.777344 4.453125 53.804688 4.535156 53.820312 4.621094 C 53.902344 5.132812 53.519531 5.578125 52.996094 5.566406 C 52.878906 5.558594 52.753906 5.53125 52.640625 5.488281 C 52.1875 5.304688 51.734375 5.125 51.289062 4.921875 C 50.730469 4.667969 50.449219 4.222656 50.421875 3.652344 Z M 50.421875 3.652344 "></path>
    <path fill="#111" d="M 16.285156 2.121094 C 15.851562 2.121094 15.488281 2.261719 15.195312 2.546875 C 14.902344 2.835938 14.757812 3.191406 14.757812 3.625 C 14.757812 4.058594 14.902344 4.417969 15.195312 4.703125 C 15.488281 4.992188 15.851562 5.132812 16.285156 5.132812 C 16.71875 5.132812 17.078125 4.992188 17.371094 4.703125 C 17.664062 4.417969 17.8125 4.058594 17.8125 3.625 C 17.8125 3.191406 17.664062 2.835938 17.371094 2.546875 C 17.078125 2.261719 16.71875 2.121094 16.285156 2.121094 Z M 16.285156 2.121094 "></path>
    <path fill="#111" d="M 16.347656 6.875 L 16.242188 6.875 C 15.582031 6.875 15.035156 7.414062 15.035156 8.085938 L 15.035156 18.746094 L 17.53125 18.746094 L 17.53125 8.0625 C 17.53125 7.40625 17.003906 6.875 16.347656 6.875 Z M 16.347656 6.875 "></path>
    <path fill="#111" d="M 26.222656 6.734375 C 24.589844 6.734375 23.328125 7.300781 22.4375 8.429688 L 22.4375 8.097656 C 22.4375 7.425781 21.890625 6.875 21.214844 6.875 L 21.207031 6.875 C 20.53125 6.875 19.980469 7.425781 19.980469 8.105469 L 19.980469 18.746094 L 22.476562 18.746094 L 22.476562 12.761719 C 22.476562 11.558594 22.757812 10.613281 23.320312 9.917969 C 23.886719 9.234375 24.660156 8.890625 25.644531 8.890625 C 26.566406 8.890625 27.269531 9.183594 27.742188 9.773438 C 28.21875 10.359375 28.460938 11.222656 28.460938 12.347656 L 28.460938 18.746094 L 30.980469 18.746094 L 30.980469 12.207031 C 30.980469 10.289062 30.53125 8.898438 29.652344 8.035156 C 28.761719 7.167969 27.617188 6.734375 26.222656 6.734375 Z M 26.222656 6.734375 "></path>
    <path fill="#111" d="M 34.550781 6.875 L 34.445312 6.875 C 33.78125 6.875 33.238281 7.414062 33.238281 8.085938 L 33.238281 18.746094 L 35.734375 18.746094 L 35.734375 8.0625 C 35.734375 7.40625 35.207031 6.875 34.550781 6.875 Z M 34.550781 6.875 "></path>
    <path fill="#111" d="M 34.488281 2.121094 C 34.054688 2.121094 33.691406 2.261719 33.398438 2.546875 C 33.105469 2.835938 32.960938 3.191406 32.960938 3.625 C 32.960938 4.058594 33.105469 4.417969 33.398438 4.703125 C 33.691406 4.992188 34.054688 5.132812 34.488281 5.132812 C 34.917969 5.132812 35.28125 4.992188 35.574219 4.703125 C 35.867188 4.417969 36.015625 4.058594 36.015625 3.625 C 36.015625 3.191406 35.867188 2.835938 35.574219 2.546875 C 35.28125 2.261719 34.917969 2.121094 34.488281 2.121094 Z M 34.488281 2.121094 "></path>
    <path fill="#111" d="M 48.769531 16.5625 C 48.386719 16.5625 48.238281 16.28125 48.238281 15.730469 L 48.238281 11.046875 C 48.238281 9.652344 47.808594 8.589844 46.941406 7.847656 C 46.078125 7.105469 44.859375 6.734375 43.265625 6.734375 C 41.773438 6.734375 40.5625 7.0625 39.640625 7.722656 C 38.714844 8.378906 38.191406 9.304688 38.070312 10.492188 L 40.519531 10.492188 C 40.609375 9.96875 40.894531 9.546875 41.363281 9.226562 C 41.832031 8.910156 42.429688 8.75 43.15625 8.75 C 43.972656 8.75 44.613281 8.9375 45.074219 9.316406 C 45.535156 9.695312 45.765625 10.21875 45.765625 10.886719 L 45.765625 11.605469 L 42.785156 11.605469 C 41.140625 11.605469 39.886719 11.933594 39.019531 12.59375 C 38.15625 13.25 37.722656 14.1875 37.722656 15.40625 C 37.722656 16.492188 38.121094 17.339844 38.921875 17.953125 C 39.726562 18.570312 40.785156 18.878906 42.109375 18.878906 C 43.820312 18.878906 45.121094 18.199219 46.015625 16.84375 C 46.015625 17.457031 46.183594 17.933594 46.523438 18.257812 C 46.867188 18.578125 47.417969 18.746094 48.183594 18.746094 L 48.761719 18.746094 C 49.363281 18.746094 49.851562 18.257812 49.851562 17.652344 C 49.851562 17.050781 49.335938 16.5625 48.769531 16.5625 Z M 45.765625 13.875 C 45.75 14.796875 45.449219 15.539062 44.871094 16.101562 C 44.292969 16.652344 43.492188 16.933594 42.457031 16.933594 C 41.78125 16.933594 41.246094 16.777344 40.855469 16.472656 C 40.464844 16.164062 40.269531 15.75 40.269531 15.238281 C 40.269531 14.652344 40.476562 14.210938 40.890625 13.910156 C 41.308594 13.609375 41.902344 13.453125 42.667969 13.453125 L 45.765625 13.453125 Z M 45.765625 13.875 "></path>
    <path fill="#111" d="M 12.714844 9.003906 C 12.902344 8.777344 13.007812 8.492188 13.007812 8.195312 L 13.007812 8.148438 C 13.007812 7.441406 12.433594 6.859375 11.722656 6.859375 L 3.1875 6.859375 L 3.1875 9.066406 L 9.660156 9.066406 L 3.394531 16.539062 C 3.171875 16.808594 3.046875 17.148438 3.046875 17.5 C 3.046875 18.1875 3.597656 18.738281 4.28125 18.738281 L 13.300781 18.738281 L 13.300781 16.535156 L 6.394531 16.535156 Z M 12.714844 9.003906 "></path>
  </g>
</svg>
