<svg xmlns="http://www.w3.org/2000/svg" xmlns:xlink="http://www.w3.org/1999/xlink"
     viewBox="0 0 36 23" preserveAspectRatio="xMidYMin slice" width="100%">
  <defs>
    <polygon id="apple-pay-a" points="0 0 36 0 36 23 0 23"></polygon>
  </defs>
  <g fill="none" fill-rule="evenodd">
    <mask id="apple-pay-b" fill="#fff">
      <use xlink:href="#apple-pay-a"></use>
    </mask>
    <path fill="#000003" d="M32.7749016,-0.00108531521 L3.21204393,-0.00108531521 C3.08889708,-0.00108531521 2.96553266,-0.00108531521 2.84260339,-0.000434126085 C2.73882063,0.000434126085 2.63503786,0.0015194413 2.53147267,0.00434126085 C2.30541336,0.010419026 2.07739588,0.0236598716 1.8543826,0.0638165345 C1.62745299,0.104407324 1.41640628,0.170828615 1.21058135,0.275453001 C1.00802002,0.37812382 0.822864603,0.512485844 0.662295042,0.672678369 C0.501507908,0.833087958 0.366829646,1.01759154 0.263917177,1.21967724 C0.159046543,1.42523594 0.0924689202,1.63578709 0.0520001692,1.86218384 C0.0115314183,2.08510759 -0.00174059144,2.31237259 -0.00783266147,2.53768403 C-0.0106611226,2.6412231 -0.0119665661,2.74454511 -0.0126192879,2.84786712 C-0.0130892476,2.9707248 -0.0130892476,3.09358248 -0.0130892476,3.21665723 L-0.0130892476,19.7824745 C-0.0130892476,19.9055493 -0.0130892476,20.0279728 -0.0126192879,20.1512646 C-0.0119665661,20.2545866 -0.0106611226,20.3581257 -0.00783266147,20.4614477 C-0.00174059144,20.6867592 0.0115314183,20.9138071 0.0520001692,21.1367308 C0.0924689202,21.3633447 0.159046543,21.5736787 0.263917177,21.7792374 C0.366829646,21.9813231 0.501507908,22.1660438 0.662295042,22.3260193 C0.822864603,22.486863 1.00802002,22.6210079 1.21058135,22.7234617 C1.41640628,22.8283031 1.62745299,22.8947244 1.8543826,22.9355323 C2.07739588,22.9752548 2.30541336,22.9887127 2.53147267,22.9947905 C2.63503786,22.9971782 2.73882063,22.9986976 2.84260339,22.9991317 C2.96553266,23 3.08889708,23 3.21204393,23 L32.7749016,23 C32.8978309,23 33.0211953,23 33.1441246,22.9991317 C33.2476898,22.9986976 33.3514726,22.9971782 33.4554729,22.9947905 C33.6810971,22.9887127 33.908897,22.9752548 34.1327805,22.9355323 C34.359275,22.8947244 34.5703217,22.8283031 34.7761466,22.7234617 C34.9789255,22.6210079 35.1636458,22.486863 35.3246505,22.3260193 C35.4850025,22.1660438 35.6194632,21.9813231 35.7228108,21.7792374 C35.8276814,21.5736787 35.8944766,21.3633447 35.9349454,21.1367308 C35.9751966,20.9138071 35.988251,20.6867592 35.9943431,20.4614477 C35.9971715,20.3581257 35.9986946,20.2545866 35.9991297,20.1512646 C36,20.0279728 36,19.9055493 36,19.7824745 L36,3.21665723 C36,3.09358248 36,2.9707248 35.9991297,2.84786712 C35.9986946,2.74454511 35.9971715,2.6412231 35.9943431,2.53768403 C35.988251,2.31237259 35.9751966,2.08510759 35.9349454,1.86218384 C35.8944766,1.63578709 35.8276814,1.42523594 35.7228108,1.21967724 C35.6194632,1.01759154 35.4850025,0.833087958 35.3246505,0.672678369 C35.1636458,0.512485844 34.9789255,0.37812382 34.7761466,0.275453001 C34.5703217,0.170828615 34.359275,0.104407324 34.1327805,0.0638165345 C33.908897,0.0236598716 33.6810971,0.010419026 33.4554729,0.00434126085 C33.3514726,0.0015194413 33.2476898,0.000434126085 33.1441246,-0.000434126085 C33.0211953,-0.00108531521 32.8978309,-0.00108531521 32.7749016,-0.00108531521" mask="url(#apple-pay-b)"></path>
    <path fill="#FFFFFE" d="M32.7749016,0.765581351 L33.1384677,0.766232541 C33.2370287,0.76688373 33.3355897,0.767969045 33.4345858,0.770790864 C33.6069043,0.775349188 33.8085954,0.784682899 33.9965793,0.818327671 C34.1597597,0.847631182 34.2968313,0.892346168 34.4282459,0.958984522 C34.5581376,1.02475462 34.6769329,1.11092865 34.7807157,1.21446772 C34.8849336,1.31865798 34.971528,1.43739147 35.0383232,1.56828048 C35.1049009,1.69851831 35.1492859,1.83439977 35.1786584,1.99849943 C35.2121648,2.18408834 35.2213029,2.3857399 35.2263071,2.55852208 C35.228918,2.65641752 35.2300059,2.75387882 35.2306586,2.85394488 C35.2315289,2.97463194 35.2315289,3.09553605 35.2315289,3.21665723 L35.2315289,19.7824745 C35.2315289,19.9035957 35.2315289,20.0242827 35.230441,20.1475746 C35.2300059,20.2452529 35.228918,20.3429313 35.2263071,20.4408267 C35.2213029,20.6136089 35.2121648,20.8148263 35.1782233,21.0025859 C35.1492859,21.1645149 35.1049009,21.3006134 35.0381057,21.4312854 C34.9713105,21.5619573 34.8849336,21.6806908 34.7811508,21.7840128 C34.6767154,21.8882031 34.5583551,21.9741601 34.4269405,22.0405814 C34.2963961,22.1070026 34.1597597,22.1517176 33.9978847,22.180587 C33.8062021,22.214883 33.5964608,22.2242167 33.438067,22.2283409 C33.3386357,22.2307286 33.2396396,22.232031 33.1380325,22.2324651 C33.017279,22.2335504 32.8958727,22.2335504 32.7749016,22.2335504 L3.21204393,22.2335504 C3.21052091,22.2335504 3.20899789,22.2335504 3.2072573,22.2335504 C3.08780921,22.2335504 2.96792598,22.2335504 2.84630215,22.2324651 C2.74708844,22.232031 2.64787473,22.2307286 2.5521422,22.2285579 C2.39048477,22.2242167 2.18030835,22.214883 1.99014874,22.1808041 C1.82718586,22.1517176 1.69033186,22.1070026 1.55804691,22.0397131 C1.42815528,21.973943 1.30957748,21.8882031 1.205142,21.7835787 C1.10157681,21.6804738 1.01541753,21.5621744 0.948839908,21.4312854 C0.882044711,21.3008305 0.837442056,21.1642978 0.808069575,21.0004153 C0.774345616,20.8133069 0.764989937,20.6125236 0.760420885,20.4408267 C0.757592424,20.3427142 0.756504554,20.2443847 0.755851832,20.1467063 L0.755416684,19.8586636 L0.755416684,3.1404681 L0.755851832,2.85285957 C0.756504554,2.75474707 0.757592424,2.65663458 0.760420885,2.55830502 C0.764989937,2.38660815 0.774345616,2.18582484 0.808504723,1.99697999 C0.837442056,1.83461684 0.882044711,1.69830125 0.949057482,1.5669781 C1.01519996,1.43717441 1.10157681,1.31865798 1.20579472,1.21468479 C1.30957748,1.11114572 1.42837285,1.02497169 1.55913478,0.958767459 C1.68989671,0.892346168 1.82696829,0.847631182 1.99014874,0.818327671 C2.17813261,0.784682899 2.37982364,0.775349188 2.55257734,0.770790864 C2.65092076,0.767969045 2.74948175,0.76688373 2.84717245,0.766232541 L3.21204393,0.765581351 L32.7749016,0.765581351"></path>
    <path fill="#000003" d="M9.81824116 7.73504153C10.126761 7.35040581 10.3358495 6.83379577 10.2808033 6.30589845 9.82933743 6.32825595 9.27844024 6.60284069 8.95947686 6.98791053 8.67314956 7.31762929 8.41989351 7.85594564 8.48581841 8.36191959 8.99254809 8.40554926 9.49884263 8.10925821 9.81824116 7.73504153M10.2749288 8.46046621C9.5390938 8.41683654 8.91335118 8.87722726 8.56196929 8.87722726 8.21036982 8.87722726 7.67230949 8.48260664 7.09029922 8.49324273 6.3327068 8.50431295 5.62972543 8.93171008 5.24548987 9.61133447 4.45460864 10.9708003 5.0366189 12.9877501 5.80574274 14.0949887 6.17888203 14.6428558 6.62904249 15.2458569 7.22193145 15.2243677 7.78218432 15.2024443 8.00171642 14.8625236 8.68272282 14.8625236 9.36329407 14.8625236 9.56106877 15.2243677 10.1541753 15.2135145 10.7692568 15.2024443 11.1537099 14.6652133 11.5270668 14.116912 11.9554699 13.4924217 12.1306169 12.8894205 12.1417132 12.8562099 12.1306169 12.8451397 10.9559352 12.3956021 10.9450565 11.0474236 10.9337427 9.91847867 11.8673524 9.3814647 11.9113024 9.34825406 11.3841207 8.57030011 10.5606034 8.48260664 10.2749288 8.46046621M14.8713957 11.2751227L16.339367 11.2751227C17.4533455 11.2751227 18.0871384 10.6768969 18.0871384 9.63976972 18.0871384 8.60264251 17.4533455 8.00984334 16.3450239 8.00984334L14.8713957 8.00984334 14.8713957 11.2751227zM16.6822635 6.93277652C18.2816495 6.93277652 19.3951928 8.03263496 19.3951928 9.63390902 19.3951928 11.2410438 18.2585866 12.3467629 16.6420123 12.3467629L14.8713957 12.3467629 14.8713957 15.1559928 13.5918434 15.1559928 13.5918434 6.93277652 16.6822635 6.93277652 16.6822635 6.93277652zM23.6080768 12.9106927L23.6080768 12.4379294 22.1287917 12.5290959C21.3918688 12.5803228 20.9747796 12.9050491 20.9747796 13.417969 20.9747796 13.9421763 21.4090571 14.2840506 22.0715697 14.2840506 22.9340328 14.2840506 23.6080768 13.6914685 23.6080768 12.9106927zM19.729604 13.4520479C19.729604 12.4034164 20.5348451 11.7596074 21.9632179 11.6797282L23.6080768 11.5829181 23.6080768 11.1214421C23.6080768 10.4546244 23.1568285 10.0558796 22.4029348 10.0558796 21.6888572 10.0558796 21.2432658 10.3975368 21.1346964 10.9332484L19.969588 10.9332484C20.0381238 9.85053794 20.9634657 9.05261419 22.4486254 9.05261419 23.9052828 9.05261419 24.8362817 9.82210268 24.8362817 11.0244149L24.8362817 15.1559928 23.6537674 15.1559928 23.6537674 14.1700925 23.6254827 14.1700925C23.2769293 14.8369102 22.5171611 15.2586636 21.7288908 15.2586636 20.552251 15.2586636 19.729604 14.5291148 19.729604 13.4520479L19.729604 13.4520479zM25.9526535 17.3615704L25.9526535 16.3641657C26.043817 16.3869573 26.2494243 16.3869573 26.3523368 16.3869573 26.9234684 16.3869573 27.2319882 16.1475368 27.4204072 15.5321631 27.4204072 15.5208758 27.5289766 15.1674972 27.5289766 15.1616365L25.3584591 9.16092865 26.6950157 9.16092865 28.2145521 14.0392035 28.2373973 14.0392035 29.7569337 9.16092865 31.0593312 9.16092865 28.8085289 15.4694319C28.2944017 16.922886 27.7004249 17.3900057 26.4552493 17.3900057 26.3523368 17.3900057 26.043817 17.3785013 25.9526535 17.3615704"></path>
  </g>
</svg>
