<svg viewbox="0 0 49 20" preserveaspectratio="xMidYMin slice" width="100%">
  <path
    d="M1.5625,0 L46.5625,0 C47.4254449,0 48.125,0.699555078 48.125,1.5625 L48.125,18.3084677 C48.125,19.1714127 47.4254449,19.8709677 46.5625,19.8709677 L1.5625,19.8709677 C0.699555078,19.8709677 0,19.1714127 0,18.3084677 L0,1.5625 C0,0.699555078 0.699555078,0 1.5625,0 Z"
    fill="#FA82A0"></path>
  <path
    d="M19.7611242,13.3508065 C20.9974323,13.3508065 21.9428443,12.491071 21.9428443,11.225087 C21.9428443,10.0535794 21.1428803,9.54340673 20.1611062,9.24108219 C19.5338617,9.05212935 19.1429702,8.91041473 19.1429702,8.44748026 C19.1429702,8.06012692 19.4156852,7.75780238 19.8429387,7.75780238 C20.2065587,7.75780238 20.4792737,7.97509815 20.6701742,8.30576561 L21.6974008,7.63498303 C21.3792332,6.89806698 20.6610837,6.52016129 19.8793007,6.52016129 C18.6429927,6.52016129 17.8612097,7.44603022 17.8612097,8.51361376 C17.8612097,9.36390154 18.3520967,10.0252365 19.5702237,10.3936945 C20.2338302,10.592095 20.6519932,10.724362 20.6519932,11.2723252 C20.6519932,11.7824979 20.2974637,12.1037177 19.7793052,12.1037177 C19.2247847,12.1037177 18.8066217,11.7352597 18.5520877,11.3951446 L17.6975806,12.2926706 C18.1521057,12.9351102 18.8975267,13.3508065 19.7611242,13.3508065 Z M24.7578691,13.3508065 C23.4488371,13.3508065 22.3852486,12.2643276 22.3852486,10.9416577 C22.3852486,9.61898785 23.4488371,8.53250903 24.7578691,8.53250903 C26.0669012,8.53250903 27.1304897,9.61898785 27.1304897,10.9416577 C27.1304897,12.2643276 26.0669012,13.3508065 24.7578691,13.3508065 Z M24.7578691,12.1415083 C25.3942042,12.1415083 25.8941817,11.621888 25.8941817,10.9416577 C25.8941817,10.2614275 25.3942042,9.7418072 24.7578691,9.7418072 C24.1215341,9.7418072 23.6215566,10.2614275 23.6215566,10.9416577 C23.6215566,11.621888 24.1215341,12.1415083 24.7578691,12.1415083 Z M30.1909581,7.82393588 L30.1909581,6.61463771 L30.0091481,6.61463771 C28.5001251,6.61463771 27.7637945,7.65387834 27.7637945,8.8820718 L27.7637945,13.2279871 L29.0001026,13.2279871 L29.0001026,11.3195634 C29.0001026,10.6865714 29.4728086,10.2330846 30.1545961,10.2141893 L30.1545961,8.98599585 C29.6637091,8.98599585 29.2728176,9.13715812 29.0001026,9.43948266 L29.0001026,8.94820527 C29.0001026,8.15460334 29.5000801,7.79559295 30.1909581,7.82393588 Z M32.8878065,13.3508065 C31.5787745,13.3508065 30.515186,12.2643276 30.515186,10.9416577 C30.515186,9.61898785 31.5787745,8.53250903 32.8878065,8.53250903 C34.1968385,8.53250903 35.2604271,9.61898785 35.2604271,10.9416577 C35.2604271,12.2643276 34.1968385,13.3508065 32.8878065,13.3508065 Z M32.8878065,12.1415083 C33.5241417,12.1415083 34.0241192,11.621888 34.0241192,10.9416577 C34.0241192,10.2614275 33.5241417,9.7418072 32.8878065,9.7418072 C32.2514715,9.7418072 31.751494,10.2614275 31.751494,10.9416577 C31.751494,11.621888 32.2514715,12.1415083 32.8878065,12.1415083 Z M37.1300399,9.17494869 L37.1300399,8.65532838 L35.930094,8.65532838 L35.930094,13.2279871 L37.1664019,13.2279871 L37.1664019,11.1400582 C37.1664019,10.3842469 37.5936554,9.95910297 38.3390765,9.95910297 L38.3390765,8.57974723 C37.7754654,8.56085196 37.3754836,8.75925246 37.1300399,9.17494869 Z M40.2814133,10.8944195 L40.2814133,9.77959777 C40.5541284,10.0819223 40.9450198,10.2330846 41.4359069,10.2330846 L41.4359069,9.00489115 C40.7632098,8.98599585 40.2814133,8.52306138 40.2814133,7.89951703 L40.2814133,7.18149622 L39.0451054,7.18149622 L39.0451054,10.960553 C39.0451054,12.1887465 39.7814359,13.2279871 41.2904589,13.2279871 L41.4722689,13.2279871 L41.4722689,12.0186889 C40.7813908,12.0470319 40.2814133,11.6880215 40.2814133,10.8944195 Z M9.25711528,15.044384 C11.6529673,15.0415039 12.6667997,13.6932779 12.850531,11.5335767 C12.903735,10.9120617 12.7986244,10.5336749 12.6081224,10.333085 C12.5603857,10.2828204 12.511447,10.2490965 12.4644406,10.2281062 C12.4412297,10.2177416 12.4279688,10.2141177 12.409149,10.2105472 L9.56730129,9.5565013 C9.55353531,9.55260392 9.5224269,9.54534412 9.47819345,9.53770569 C9.3251896,9.51128416 9.16420635,9.50737995 9.02090094,9.53877854 C8.80384819,9.58633538 8.65993953,9.70552548 8.58988136,9.9377377 C8.49405206,10.252512 8.50095974,10.4928725 8.70323146,10.6856373 C8.755601,10.7038778 8.79809415,10.7383805 8.82642208,10.7816716 C8.9682021,10.8737242 9.16711192,10.9541704 9.43616352,11.0267774 L11.3083301,11.4390019 C11.6195338,11.5075245 11.5241167,11.9665428 11.2106368,11.9089697 C11.2021585,11.9074125 11.1811877,11.9043323 11.1496215,11.9010219 C10.9147718,11.8763922 10.6481821,11.8945392 10.4030047,11.9854845 C9.9448661,12.1554249 9.66160993,12.5432231 9.62623948,13.2615711 C9.61972339,13.3939092 9.50557272,13.495985 9.37127683,13.4895639 C9.23698101,13.4831427 9.13339505,13.3706562 9.13991118,13.2383181 C9.17896791,12.4451035 9.49349151,11.9207308 9.99935102,11.6422426 L9.31884294,11.4923055 C9.08459293,11.4291641 8.88699727,11.3547215 8.72257012,11.2699309 C8.64459209,11.389051 8.54254913,11.4930382 8.42087679,11.5753971 L8.36685201,11.6108861 C8.3340399,11.6326358 8.30046448,11.6524089 8.26627067,11.6702328 C8.48257781,12.0726711 8.42395371,12.5821168 8.08723595,12.926581 L8.03936983,12.9760796 C7.61756021,13.4015631 6.92636902,13.4119027 6.4891325,12.9968095 L6.12486511,12.6408772 C6.42360036,14.0800057 7.72495403,15.0441349 9.24592031,15.0441349 C9.2496724,15.0441349 9.25340466,15.0442185 9.25711528,15.044384 Z M9.17301323,15.523286 C7.2453761,15.488824 5.62714308,14.089793 5.57489526,12.1034915 L5.13244068,11.6711609 C4.58580605,11.1299056 4.49755871,10.3801849 4.93668968,9.93537064 L4.98402175,9.88641236 C5.17261734,9.6949737 5.42038267,9.59073206 5.67335886,9.57723228 C5.36762836,8.98297911 5.46278747,8.33270316 5.93802474,8.01128439 L6.00560701,7.96743274 C6.5219632,7.67173611 6.9720968,7.78588592 7.35596366,8.16147129 L6.91435071,4.57978403 C6.76549447,3.95721294 7.15330152,3.27522792 7.74353182,3.1512265 C8.04700836,3.08737915 8.36379204,3.14624987 8.62282466,3.31463329 C8.88185732,3.48301671 9.06145588,3.74681784 9.11951208,4.03851864 L9.87202055,7.20899074 L10.825662,3.98646217 C10.9952795,3.35778267 11.6463678,2.98037292 12.2961136,3.14236499 C12.8764397,3.31232768 13.225911,3.89416254 13.0986594,4.47368122 L12.0487918,9.63569394 L12.4995345,9.73952415 C12.6306752,9.75832112 12.8016275,9.83465821 12.9636244,10.0052336 C13.2574259,10.314593 13.3996745,10.8266724 13.3357189,11.5737833 C13.1315325,13.9739278 11.9331394,15.5477012 9.18891814,15.5239279 C9.18357302,15.5238816 9.17826965,15.5236659 9.17301323,15.523286 Z M11.5744338,9.52642385 L12.62201,4.37581339 C12.6961869,4.03792606 12.4936799,3.700772 12.1671178,3.60491587 C11.7855276,3.50990383 11.3973432,3.73491874 11.2946554,4.11526024 L10.0808331,8.21723198 C10.0431942,8.34442831 9.90804343,8.41747377 9.77896535,8.38038358 C9.73738453,8.36843545 9.7015062,8.34651582 9.67322956,8.31803691 C9.6418649,8.28739031 9.61857929,8.24796535 9.60777802,8.20245735 L8.64358442,4.13944562 C8.60888679,3.96557933 8.50481533,3.8127153 8.35471451,3.71514268 C8.20461366,3.61757005 8.02104799,3.58345642 7.84512485,3.62046825 C7.53128737,3.68640234 7.2957289,4.10522352 7.39048708,4.47873058 L7.39597861,4.50797996 L7.94333355,8.94728407 L8.29131085,9.4581237 C8.44162067,9.25463286 8.65693995,9.12700416 8.9152222,9.07041383 C9.12997985,9.02335985 9.35162383,9.02873522 9.56223711,9.06510506 C9.62450835,9.07585839 9.67220935,9.08699038 9.68986961,9.09230767 L11.5744338,9.52642385 Z M8.07321911,9.99884359 L7.5358832,9.2100067 C7.51509645,9.18913117 7.49807388,9.16443137 7.48606616,9.1368727 L7.23932827,8.77464873 C6.926158,8.32504349 6.62152009,8.16966128 6.26297054,8.37446256 L6.21083694,8.40868521 C5.93131454,8.59774974 5.89334292,9.0549676 6.18374359,9.48953527 L7.24817346,11.0516569 C7.43740699,11.3258436 7.81588842,11.3978443 8.09593099,11.2122189 L8.1479761,11.1780562 C8.22184139,11.1280476 8.28289678,11.0628209 8.32737028,10.9875848 C8.0621209,10.7160165 7.99785133,10.3808441 8.07321911,9.99884359 Z M7.76855374,11.7951261 C7.41222847,11.7994325 7.06050249,11.6329142 6.84475386,11.3203042 L6.05352176,10.1591113 C5.83238223,10.0009431 5.52529142,10.0258106 5.33499112,10.2189643 L5.28748435,10.2680997 C5.0504216,10.508241 5.10391986,10.9627448 5.47641326,11.3315801 L6.82944717,12.6536823 C7.07146161,12.883421 7.45625587,12.8776648 7.6889345,12.6429873 L7.73560731,12.5947009 C7.95270109,12.3726098 7.96263371,12.0283701 7.76855374,11.7951261 Z M42.9509903,13.3035683 C42.4964652,13.3035683 42.1237547,12.9162149 42.1237547,12.4438328 C42.1237547,11.9714507 42.4964652,11.5840974 42.9509903,11.5840974 C43.4055154,11.5840974 43.7782258,11.9714507 43.7782258,12.4438328 C43.7782258,12.9162149 43.4055154,13.3035683 42.9509903,13.3035683 Z"
    fill="#FFFFFF"></path>
</svg>
