<svg viewBox="0 0 63 18" preserveAspectRatio="xMidYMin slice" width="100%">
  <path fill="#179BD7"
        d="M55.8,3.69 C55.08,3.33 54,3.06 52.47,3.06 C51.75,3.06 50.94,3.15 50.22,3.24 C49.68,3.33 49.59,3.33 49.23,3.42 C48.51,3.6 48.42,4.32 48.42,4.32 L48.15,5.22 C48.06,5.85 48.33,5.76 48.51,5.76 C48.78,5.67 48.96,5.58 49.59,5.4 C50.22,5.22 50.85,5.13 51.3,5.13 C52.02,5.13 52.65,5.22 53.01,5.4 C53.37,5.58 53.55,5.85 53.55,6.21 L53.55,6.48 C53.55,6.57 53.46,6.66 53.28,6.66 C52.2,6.75 51.48,6.84 50.58,6.93 C49.68,7.02 48.87,7.29 48.24,7.56 C47.52,7.83 46.98,8.28 46.62,8.82 C46.26,9.36 46.08,9.99 46.08,10.8 C46.08,11.52 46.35,12.15 46.8,12.6 C47.34,13.05 47.97,13.23 48.78,13.23 C49.32,13.23 49.68,13.23 49.95,13.14 C50.22,13.05 50.49,12.96 50.85,12.87 C51.12,12.78 51.3,12.6 51.66,12.42 C51.93,12.24 52.11,12.15 52.38,11.97 L52.29,12.24 C52.2,12.6 52.47,12.87 52.83,12.96 L54.27,12.96 L54.54,12.96 C54.9,12.96 55.26,12.6 55.35,12.24 L56.7,6.39 C56.7,6.21 56.79,6.12 56.79,5.94 L56.79,5.49 C56.88,4.77 56.52,4.14 55.8,3.69 Z M46.89,2.16 C46.62,1.71 46.35,1.35 45.9,1.08 C45.45,0.81 44.91,0.63 44.28,0.45 C43.65,0.36 42.93,0.27 42.12,0.27 L38.25,0.27 C37.89,0.27 37.44,0.63 37.35,0.99 L34.74,12.33 C34.65,12.69 34.92,13.05 35.28,13.05 L37.17,13.05 C37.53,13.05 37.98,12.69 38.07,12.33 L38.7,9.54 C38.79,9.18 39.15,8.82 39.6,8.82 L40.14,8.82 C42.39,8.82 44.19,8.37 45.45,7.38 C46.71,6.48 47.34,5.22 47.34,3.69 C47.25,3.15 47.07,2.61 46.89,2.16 Z M62.28,0.36 L60.66,0.36 C60.3,0.36 59.85,0.63 59.76,0.99 C59.76,0.99 59.76,1.17 59.67,1.44 L57.42,11.79 C57.33,12.06 57.33,12.15 57.33,12.24 C57.24,12.6 57.51,12.87 57.87,12.96 L59.4,12.96 C59.76,12.96 60.12,12.69 60.3,12.33 C60.3,12.33 60.3,12.33 60.3,12.24 L62.82,0.99 C62.91,0.72 62.64,0.36 62.28,0.36 Z M52.56,10.71 C52.29,10.89 52.11,10.98 51.84,11.07 C51.48,11.25 51.21,11.25 50.85,11.25 C50.4,11.25 50.04,11.16 49.77,11.07 C49.5,10.98 49.41,10.71 49.41,10.35 C49.41,9.99 49.5,9.63 49.68,9.45 C49.86,9.27 50.13,9.09 50.49,8.91 C50.85,8.82 51.21,8.73 51.75,8.64 C52.2,8.55 53.01,8.46 53.1,8.46 C53.19,8.46 53.28,8.37 53.19,8.73 C53.19,8.82 52.92,9.81 52.83,10.26 C52.83,10.44 52.65,10.62 52.56,10.71 Z M42.84,5.85 C42.3,6.3 41.49,6.48 40.5,6.48 L40.05,6.48 C39.69,6.48 39.42,6.12 39.51,5.76 L40.05,3.33 C40.14,2.97 40.5,2.61 40.95,2.61 L41.58,2.61 C42.3,2.61 42.84,2.7 43.2,2.97 C43.56,3.24 43.74,3.6 43.74,4.05 C43.74,4.86 43.38,5.49 42.84,5.85 Z"></path>
  <path fill="#013088"
        d="M32.49,3.24 C32.13,3.24 31.59,3.6 31.32,3.96 C31.32,3.96 28.62,8.55 28.44,9 C28.26,9.27 28.17,9.09 28.17,9 C28.17,8.91 27.36,4.05 27.36,4.05 C27.27,3.69 26.82,3.33 26.37,3.33 L24.75,3.33 C24.39,3.33 24.12,3.69 24.21,4.05 C24.21,4.05 25.47,11.25 25.74,12.96 C25.83,13.86 25.74,14.04 25.74,14.04 L24.12,16.92 C23.85,17.28 24.03,17.64 24.39,17.64 L26.28,17.64 C26.64,17.64 27.18,17.28 27.45,16.92 L34.83,4.41 C34.83,4.41 35.55,3.33 34.92,3.33 C34.29,3.24 32.49,3.24 32.49,3.24 Z M13.14,2.07 C12.87,1.62 12.6,1.26 12.15,0.99 C11.7,0.72 11.16,0.54 10.53,0.36 C9.9,0.27 9.18,0.27 8.28,0.27 L4.41,0.27 C4.05,0.27 3.6,0.63 3.51,0.99 L0.9,12.33 C0.81,12.69 1.08,13.05 1.44,13.05 L3.33,13.05 C3.69,13.05 4.14,12.78 4.23,12.33 L4.86,9.54 C4.95,9.18 5.31,8.82 5.76,8.82 L6.3,8.82 C8.55,8.82 10.35,8.37 11.61,7.38 C12.87,6.48 13.5,5.22 13.5,3.69 C13.5,3.15 13.41,2.52 13.14,2.07 Z M22.05,3.69 C21.33,3.33 20.25,3.06 18.72,3.06 C18,3.06 17.19,3.15 16.47,3.24 C15.93,3.33 15.84,3.33 15.48,3.42 C14.76,3.6 14.67,4.32 14.67,4.32 L14.4,5.22 C14.31,5.85 14.58,5.76 14.76,5.76 C15.03,5.67 15.21,5.58 15.84,5.4 C16.47,5.22 17.1,5.13 17.55,5.13 C18.27,5.13 18.9,5.22 19.26,5.4 C19.8,5.67 19.98,5.94 19.98,6.3 L19.98,6.57 C19.98,6.66 19.89,6.75 19.71,6.75 C18.63,6.84 17.91,6.93 17.01,7.02 C16.11,7.11 15.3,7.38 14.67,7.65 C13.95,7.92 13.41,8.37 13.05,8.91 C12.69,9.45 12.51,10.08 12.51,10.89 C12.51,11.61 12.78,12.24 13.23,12.69 C13.77,13.14 14.4,13.32 15.21,13.32 C15.75,13.32 16.11,13.32 16.38,13.23 C16.65,13.14 16.92,13.05 17.28,12.96 C17.55,12.87 17.73,12.69 18.09,12.51 C18.36,12.33 18.54,12.24 18.81,12.06 L18.72,12.33 C18.63,12.69 18.9,12.96 19.26,13.05 L20.7,13.05 L20.97,13.05 C21.33,12.96 21.69,12.69 21.78,12.33 L23.13,6.48 C23.13,6.3 23.22,6.21 23.22,6.03 L23.22,5.58 C23.13,4.77 22.77,4.14 22.05,3.69 Z M9.09,5.85 C8.55,6.21 7.74,6.39 6.75,6.39 L6.3,6.39 C5.94,6.39 5.67,6.03 5.76,5.67 L6.3,3.33 C6.39,2.97 6.75,2.61 7.2,2.61 L7.83,2.61 C8.55,2.61 9.09,2.7 9.45,2.97 C9.81,3.24 9.99,3.6 9.99,4.05 C9.99,4.86 9.72,5.4 9.09,5.85 Z M18.81,10.71 C18.54,10.89 18.36,10.98 18.09,11.07 C17.73,11.25 17.46,11.25 17.1,11.25 C16.65,11.25 16.29,11.16 16.02,11.07 C15.75,10.98 15.66,10.71 15.66,10.35 C15.66,9.99 15.75,9.63 15.93,9.45 C16.11,9.27 16.38,9.09 16.74,8.91 C17.1,8.82 17.46,8.73 18,8.64 C18.45,8.55 19.26,8.46 19.35,8.46 C19.44,8.46 19.53,8.37 19.44,8.73 C19.44,8.82 19.17,9.81 19.08,10.26 C19.08,10.44 18.9,10.62 18.81,10.71 Z"></path>
</svg>
