<svg viewBox="0 0 100 80" fill="none" preserveAspectRatio="xMidYMin slice" width="100%">
<path d="M77.4849 0.438302C77.6999 0.253906 77.9629 0.136124 78.2119 0C78.4039 0.249079 78.6459 0.454714 78.8929 0.65166C85.5779 7.10261 92.2589 13.5574 98.9439 20.0074C99.2599 20.3318 99.5559 20.6977 99.9989 20.8676V20.9419C99.6289 20.9912 99.2829 21.1659 98.9049 21.1572C94.0429 21.1563 89.1809 21.1524 84.3189 21.1582C84.1559 21.1292 84.0149 21.2653 84.0479 21.4227C84.0519 28.2733 84.0469 35.1249 84.0509 41.9765C84.0909 42.2082 83.8369 42.4177 83.6069 42.3975C79.8689 42.3975 76.1299 42.3975 72.3909 42.3965C72.1569 42.4197 71.9149 42.2044 71.9499 41.9746C71.9509 35.124 71.9479 28.2733 71.9499 21.4217C71.9809 21.2644 71.8399 21.1283 71.6779 21.1582C66.7819 21.1514 61.8859 21.1582 56.9899 21.1553C56.7349 21.1659 56.5179 21.023 56.2969 20.9245C57.9199 19.3046 59.5939 17.7319 61.2379 16.1312C66.6539 10.8996 72.0709 5.66992 77.4849 0.438302Z" fill="white"></path>
<path d="M3.007 15.7837C3.573 15.5375 4.152 15.2237 4.795 15.2701C19.767 15.2614 34.738 15.2682 49.71 15.2662C49.891 15.2479 49.975 15.3261 49.962 15.5008C49.975 17.4684 49.963 19.4349 49.967 21.4024C49.952 22.8863 49.998 24.3721 49.944 25.854C49.713 26.0567 49.382 25.9631 49.101 25.9834C36.537 25.9795 23.972 25.9814 11.407 25.9824C11.229 25.9525 11.009 26.0432 11.05 26.2498C11.056 40.6085 11.042 54.9682 11.057 69.3279C11.871 69.3414 12.686 69.3337 13.5 69.3366C32.983 69.3347 52.466 69.3385 71.949 69.3347C71.967 63.9766 71.945 58.6175 71.96 53.2594C71.992 53.0634 72.14 52.7864 72.387 52.825C76.13 52.8231 79.873 52.824 83.615 52.8231C83.899 52.7787 84.048 53.1252 84.048 53.354C84.037 60.7231 84.062 68.0931 84.036 75.4622C83.747 76.7926 82.973 78.0775 81.763 78.8151C81.276 79.1086 80.799 79.4533 80.228 79.573C79.944 79.6405 79.638 79.7197 79.467 79.9707C77.445 80.02 75.422 79.9871 73.4 79.9968C52.8 79.9968 32.2 79.9968 11.601 79.9968C9.077 79.9823 6.552 80.0286 4.029 79.9669C3.8 79.5691 3.268 79.6193 2.896 79.432C1.944 78.9445 1.116 78.2137 0.58 77.3071C0.412 76.9982 0.434 76.5145 0 76.4286V19.2833C0.446 19.0497 0.407 18.5197 0.61 18.1326C0.953 17.4684 1.495 16.9258 2.053 16.4257C2.381 16.2249 2.637 15.9198 3.007 15.7837Z" fill="white"></path>
<path d="M25.8469 32.1157C26.2819 31.8511 26.7729 31.6484 27.2989 31.6899C28.0909 31.7266 28.9109 31.5837 29.6789 31.8193C29.9779 31.9554 30.2419 32.1784 30.5879 32.1987C30.9539 32.2412 31.0979 32.636 31.4509 32.7094C32.0539 33.0849 32.4839 33.6623 32.9429 34.1826C33.0539 34.4452 33.1739 34.7069 33.3779 34.9164C33.6409 35.1857 33.4709 35.5835 33.6289 35.8943C33.7199 36.2158 33.9719 36.4967 33.9419 36.8453C33.9309 37.2237 33.9559 37.6041 33.9289 37.9825C33.8379 38.2152 33.6889 38.4247 33.6209 38.667C33.4759 38.9808 33.6409 39.3795 33.3749 39.6469C33.1799 39.8429 33.0619 40.0852 32.9659 40.3372C32.7869 40.5409 32.5859 40.7282 32.4489 40.9647C31.9689 41.4938 31.3559 41.8848 30.7549 42.2738C30.5749 42.3771 30.3629 42.3984 30.1699 42.4688C29.9119 42.5528 29.6999 42.743 29.4269 42.7903C28.9649 42.9303 28.4749 42.8589 27.9999 42.8782C27.3319 42.8782 26.5879 42.9265 26.0279 42.5113C25.8549 42.3762 25.6279 42.4051 25.4239 42.3684C25.2189 42.2729 25.0629 42.1116 24.8979 41.9668C24.3419 41.6231 23.8459 41.1906 23.4529 40.677C23.2189 40.3835 22.8739 40.1132 22.8529 39.7164C22.7049 39.4789 22.4439 39.2704 22.4609 38.9702C22.4839 38.6438 22.3359 38.3426 22.3419 38.0202C22.1249 37.5857 22.0699 37.0606 22.3059 36.6232C22.3719 36.2554 22.4679 35.8866 22.4639 35.5091C22.4499 35.3537 22.5549 35.2311 22.6369 35.1104C22.9179 34.759 22.9999 34.2946 23.3349 33.9789C23.6569 33.4962 24.1519 33.167 24.5339 32.7374C24.6189 32.6824 24.7149 32.6515 24.8189 32.6437C25.0699 32.3242 25.4559 32.191 25.8469 32.1157Z" fill="white"></path>
<path d="M61.1382 38.3301C61.3702 38.391 61.6232 38.4286 61.8182 38.5754C61.9752 38.7318 62.0232 38.9519 62.0562 39.1604C62.1402 39.4056 62.3812 39.5649 62.4662 39.8111C62.5522 40.0293 62.6182 40.2648 62.7982 40.4338C63.0392 40.6838 63.0182 41.0681 63.2582 41.322C63.5292 41.6145 63.5402 42.0403 63.8082 42.3357C64.0502 42.5954 64.0602 42.9748 64.3032 43.2316C64.5282 43.4874 64.5502 43.8495 64.7652 44.114C65.0092 44.4152 65.0692 44.8158 65.3342 45.1055C65.5782 45.342 65.5042 45.7214 65.7612 45.9521C66.0512 46.2118 66.0112 46.6386 66.2792 46.9079C66.4382 47.0894 66.5122 47.3201 66.5892 47.5432C66.6812 47.7932 66.8952 47.9747 67.0152 48.2103C67.0692 48.441 67.0352 48.6814 67.0442 48.916C67.0462 54.0829 67.0432 59.2508 67.0492 64.4178C66.9062 64.4033 66.8412 64.4651 66.8552 64.6031C50.3362 64.5944 33.8162 64.6022 17.2972 64.5993C17.0272 64.6118 16.8302 64.3965 16.5742 64.3483C16.7722 64.3492 16.8662 64.1774 16.9742 64.049C17.8802 63.1618 18.8442 62.3325 19.7422 61.4385C19.7482 61.5041 19.7602 61.6354 19.7662 61.7011C19.8192 61.6016 19.8572 61.4925 19.9432 61.4153C20.3242 61.0427 20.7282 60.6903 21.0912 60.3012C21.1852 60.2066 21.3122 60.1583 21.4302 60.1004C21.5042 59.8562 21.7162 59.7248 21.9192 59.5887C22.1162 59.3184 22.4252 59.1572 22.6252 58.8917C23.2472 58.2371 23.9682 57.6791 24.5902 57.0255C24.6972 56.9213 24.8292 56.8498 24.9562 56.7745C25.1312 56.4704 25.4542 56.3044 25.6882 56.0514C28.0582 53.8551 30.4522 51.681 32.8102 49.4711C34.8642 47.4756 37.0142 45.5727 39.0992 43.6071C39.3382 43.2992 39.7682 43.1157 40.1402 43.3175C40.5252 43.5907 40.8482 43.9392 41.1942 44.2569C42.6002 45.5148 43.9732 46.8094 45.3892 48.0587C46.6822 49.2133 47.9912 50.3516 49.2492 51.5419C49.5772 51.8489 49.9502 52.1019 50.3082 52.3722C50.3622 52.07 50.6762 51.9213 50.8312 51.6732C51.1952 51.1326 51.6682 50.6721 52.0362 50.1353C52.4172 49.6874 52.7322 49.1921 53.1242 48.7519C53.8682 47.9139 54.4612 46.9639 55.2102 46.1298C56.1492 44.9124 57.0272 43.6506 58.0352 42.4815C58.7622 41.5392 59.4792 40.5902 60.1872 39.6373C60.3552 39.4433 60.5612 39.2618 60.5982 38.9982C60.9292 38.9287 61.0222 38.5918 61.1382 38.3301Z" fill="white"></path>
</svg>
