<svg preserveAspectRatio="xMidYMin slice" width="100%" viewBox="0 0 16 16">
  <g fill="none" fill-rule="evenodd">
    <g fill="currentColor" fill-rule="nonzero">
      <path d="M.38 9.83c.472.428 4.959 4.957 5.52 5.602.622.668 1.637.758 2.364.21L15.8 7.944c.124-.127.193-.3.19-.478V2.208c0-.704.107-1.174-.372-1.76-.48-.588-1-.428-1.735-.428H8.28C8.1.017 7.926.09 7.8.22 6.686 1.378 1.043 7.231.48 7.768c-.287.257-.46.622-.478 1.01-.019.388.118.768.379 1.053zM12.388 2.52c0-.57.455-1.032 1.016-1.032.562 0 1.017.462 1.017 1.032 0 .57-.455 1.031-1.017 1.031-.561 0-1.016-.462-1.016-1.031z" transform="translate(-584 -633) translate(580 629) translate(4 4)"/>
    </g>
  </g>
</svg>
