<svg viewBox="0 0 128 128" preserveAspectRatio="xMidYMin slice" width="100%">
  <path class="path1" fill="currentColor" d="M 63.999405,0 C 47.231759,0 30.606344,6.8933788 18.749826,18.75 6.8933079,30.606621 0,47.232197 0,64 0,80.767803 6.8933079,97.393379 18.749826,109.25 30.606344,121.10662 47.231759,128 63.999405,128 c 10.793267,0 21.527048,-2.86482 30.968462,-8.0625 0.509649,0.7733 1.088569,1.48409 1.718734,2.15625 5.337609,5.98612 14.342569,7.57784 21.312299,4.03125 5.84453,-2.80617 10.08261,-9.25394 9.99991,-16.125 0.004,-2.55445 -0.54914,-5.10393 -1.59373,-7.40625 -1.4077,-3.17265 -3.7227,-5.761701 -6.49994,-7.59375 5.21069,-9.450552 8.09367,-20.192373 8.09367,-31 0,-16.767803 -6.89331,-33.393379 -18.74983,-45.25 C 97.392467,6.8933788 80.767051,0 63.999405,0 z m 0,2 c 16.21877,0 32.374941,6.6877487 43.843345,18.15625 11.4684,11.468501 18.15608,27.624831 18.15608,43.84375 0,10.425323 -2.7925,20.82354 -7.81243,29.96875 -2.82147,-1.452881 -5.9908,-2.142102 -9.12491,-1.9375 -7.0053,0.256688 -13.784057,5.106807 -16.124854,12.1875 -1.600435,4.55714 -1.122543,9.7517 1.031241,14 C 84.826004,123.23405 74.419526,126 63.999405,126 47.780636,126 31.624464,119.31225 20.156063,107.84375 8.6876613,96.375249 1.9999814,80.218919 1.9999814,64 1.9999814,47.781081 8.6876613,31.624751 20.156063,20.15625 31.624464,8.6877487 47.780636,2 63.999405,2 z m 28.999731,42.09375 -38.999638,39 -15.999851,-15 -2.499977,2.40625 18.499828,17.59375 41.593364,-41.5 -2.593726,-2.5 z"></path>
  <path class="path2" fill="#ffffff" d="M 109.78125,94 A 1.0001,1.0001 0 0 0 109,95 l 0,15 0,0.53125 0.4375,0.28125 9.625,6.75 a 1.0001,1.0001 0 1 0 1.15625,-1.625 L 111,109.5 111,95 a 1.0001,1.0001 0 0 0 -1.21875,-1 z"></path>
</svg>
