<svg viewBox="0 0 32 32" preserveAspectRatio="xMidYMin slice" width="100%">
  <path class="path1" fill="currentColor"
        d="m 17.133842,10.126158 c 0.61,0 1.22,0 1.83,0 0,2.13 0,4.26 0,6.39 -0.831462,-0.02789 -1.674567,0.07106 -2.495083,-0.08504 -1.268744,-0.305213 -2.119471,-1.615851 -1.994917,-2.895517 -0.02844,-0.847396 0.0093,-1.764099 0.607117,-2.432344 0.493274,-0.611617 1.2662,-0.982899 2.052883,-0.977102 z m 6.15,1.45 c 0,-0.396667 0,-0.793333 0,-1.19 -1.05,0 -2.1,0 -3.15,0 0,-0.4833333 0,-0.9666666 0,-1.4499999 -1.16199,0.016156 -2.3269,-0.035117 -3.486756,0.031221 -1.907083,0.2103202 -3.427967,2.0300569 -3.343244,3.9387789 -2.273585,0.217066 -4.1688297,2.244295 -4.2879536,4.515809 -0.00749,1.276945 -0.1396854,2.622529 0.4657517,3.800202 0.8111299,1.771064 2.7541539,2.908534 4.6942639,2.773989 2.109312,0 4.218625,0 6.327938,0 0,-0.396667 0,-0.793333 0,-1.19 -2.314193,-0.007 -4.629085,0.01414 -6.942833,-0.01081 -1.871139,-0.103398 -3.442448,-1.830874 -3.397167,-3.699188 0.0099,-1.050229 -0.109679,-2.169386 0.459363,-3.112039 0.533392,-0.996867 1.553508,-1.709616 2.670637,-1.877961 0.09855,1.960655 1.886814,3.663786 3.861508,3.6 0.986164,0 1.972328,0 2.958492,0 0,-0.55 0,-1.1 0,-1.65 1.05,0 2.1,0 3.15,0 0,-0.396667 0,-0.793333 0,-1.19 -1.05,0 -2.1,0 -3.15,0 0,-1.096667 0,-2.193333 0,-3.29 1.056667,0 2.113333,0 3.17,0 z M 16.482755,2.011 C 10.854478,1.933 5.4185656,5.5097 3.2268069,10.6876 0.88709092,15.8995 2.030231,22.4244 6.0139527,26.5223 9.75668,30.5783 15.923077,32.1054 21.127287,30.2707 26.653396,28.4582 30.758646,23.0612 30.980434,17.2422 31.344233,11.6532 28.08724,6.0768 23.078534,3.5922 21.046226,2.5518 18.765547,2.0077 16.482755,2.011 z m 0,1.0224 c 5.641334,-0.082 11.07496,3.7605 12.820014,9.1395 1.778327,5.0602 0.152092,11.0832 -3.96389,14.5377 C 21.156137,30.4537 14.580853,31.0829 9.7601525,28.2184 4.9967718,25.5544 2.2729593,19.8151 3.1613899,14.4422 3.9238869,8.9414 8.4530643,4.2402 13.922554,3.2738 14.765822,3.1131 15.62435,3.0333 16.482755,3.0334 z"></path>
</svg>
