<svg viewBox="0 0 32 32" preserveAspectRatio="xMidYMin slice" width="100%">
  <path transform="scale(0.25)" class="path2" d="m38,68.1l16,15l39,-39l2.59998,2.50002l-41.59998,41.49998l-18.5,-17.60001l2.5,-2.39999z" fill="currentColor"></path>
  <path class="path1" fill="currentColor"
        d="M 16.482755,2.011 C 10.854478,1.933 5.4185656,5.5097 3.2268069,10.6876 0.88709092,15.8995 2.030231,22.4244 6.0139527,26.5223 9.75668,30.5783 15.923077,32.1054 21.127287,30.2707 26.653396,28.4582 30.758646,23.0612 30.980434,17.2422 31.344233,11.6532 28.08724,6.0768 23.078534,3.5922 21.046226,2.5518 18.765547,2.0077 16.482755,2.011 z m 0,1.0224 c 5.641334,-0.082 11.07496,3.7605 12.820014,9.1395 1.778327,5.0602 0.152092,11.0832 -3.96389,14.5377 C 21.156137,30.4537 14.580853,31.0829 9.7601525,28.2184 4.9967718,25.5544 2.2729593,19.8151 3.1613899,14.4422 3.9238869,8.9414 8.4530643,4.2402 13.922554,3.2738 14.765822,3.1131 15.62435,3.0333 16.482755,3.0334 z"></path>
</svg>
