<svg preserveAspectRatio="xMidYMin slice" width="100%" viewBox="0 0 40 40">
  <g stroke="none" stroke-width="1" fill="none" fill-rule="evenodd">
    <g transform="translate(-0.000000, 0.000000)"
       fill="currentColor" fill-rule="nonzero">
      <path
        d="M20,0.19 C9.05923911,0.19 0.19,9.05923911 0.19,20 C0.19,30.9407609 9.05923911,39.81 20,39.81 C30.9407609,39.81 39.81,30.9407609 39.81,20 C39.81,14.7460613 37.722881,9.70731032 34.0077853,5.99221466 C30.2926897,2.27711901 25.2539387,0.19 20,0.19 Z M21.66,30.86 L18.33,30.86 L18.33,15.16 L21.66,15.16 L21.66,30.86 Z M21.38,12.34 C21.0113238,12.6867089 20.5149318,12.8642505 20.01,12.83 C19.4989611,12.8650357 18.9960943,12.6877661 18.62,12.34 C18.2769652,11.981198 18.0993413,11.4954511 18.13,11 C18.0957495,10.4950682 18.2732911,9.9986762 18.62,9.63 C18.9936451,9.28483683 19.4923496,9.10776058 20,9.14 C20.5087394,9.08629747 21.0146147,9.26454633 21.3773149,9.62530702 C21.7400152,9.98606771 21.920974,10.4909799 21.87,11 C21.9006587,11.4954511 21.7230348,11.981198 21.38,12.34 L21.38,12.34 Z"
        id="Shape"></path>
      <path
        d="M20,0.19 C9.05923911,0.19 0.19,9.05923911 0.19,20 C0.19,30.9407609 9.05923911,39.81 20,39.81 C30.9407609,39.81 39.81,30.9407609 39.81,20 C39.81,14.7460613 37.722881,9.70731032 34.0077853,5.99221466 C30.2926897,2.27711901 25.2539387,0.19 20,0.19 Z M21.66,30.86 L18.33,30.86 L18.33,15.16 L21.66,15.16 L21.66,30.86 Z M21.38,12.34 C21.0113238,12.6867089 20.5149318,12.8642505 20.01,12.83 C19.4989611,12.8650357 18.9960943,12.6877661 18.62,12.34 C18.2769652,11.981198 18.0993413,11.4954511 18.13,11 C18.0957495,10.4950682 18.2732911,9.9986762 18.62,9.63 C18.9936451,9.28483683 19.4923496,9.10776058 20,9.14 C20.5087394,9.08629747 21.0146147,9.26454633 21.3773149,9.62530702 C21.7400152,9.98606771 21.920974,10.4909799 21.87,11 C21.9006587,11.4954511 21.7230348,11.981198 21.38,12.34 L21.38,12.34 Z"
        id="Shape"></path>
    </g>
  </g>
</svg>
