<svg preserveAspectRatio="xMidYMin slice" width="100%" viewBox="0 0 24 24" fill="none">
  <g clip-path="url(#pe-shield-checked-clip0)">
    <path fill-rule="evenodd" clip-rule="evenodd" d="M12.8318 0.416182L12.25 0L11.6682 0.416182L10.0277 1.58965C8.50036 2.68224 6.66947 3.26968 4.79153 3.26968H3H2V4.26967V12.3674C2 14.1928 2.43899 16.0384 3.45065 17.6335C3.97778 18.4645 4.62016 19.406 5.24461 20.1259C5.97165 20.964 6.97656 21.8582 7.79387 22.541C8.98959 23.54 10.4934 24.0175 12 24.0175C13.8551 24.0175 15.646 23.3378 17.034 22.107L17.9077 21.3323C18.8246 20.5193 19.5946 19.5542 20.1837 18.4796L20.6457 17.6369C21.5342 16.0161 22 14.1975 22 12.3491V4.26967V3.26968H21H19.7085C17.8305 3.26968 15.9996 2.68224 14.4723 1.58965L12.8318 0.416182ZM11.1913 3.21631L12.25 2.45902L13.3087 3.21631C15.1755 4.5517 17.4132 5.26968 19.7085 5.26968H20V12.3491C20 13.8614 19.6189 15.3494 18.8919 16.6755L18.4299 17.5181C17.9513 18.3912 17.3257 19.1753 16.5807 19.8359L15.7071 20.6106C14.6849 21.517 13.3661 22.0175 12 22.0175C10.9093 22.0175 9.87361 21.6724 9.07614 21.0062C8.27771 20.3391 7.37369 19.5281 6.75539 18.8153C6.23014 18.2098 5.65111 17.3687 5.13959 16.5622C4.36373 15.339 4 13.8794 4 12.3674V5.26968H4.79153C7.08678 5.26968 9.32455 4.5517 11.1913 3.21631ZM11.8987 15.9245L17.7222 9.84409L16.2778 8.46071L11.1765 13.787L8.72219 11.2245L7.27781 12.6079L10.4543 15.9245L11.1765 16.6785L11.8987 15.9245Z" fill="currentColor"></path>
  </g>
  <defs>
    <clipPath id="pe-shield-checked-clip0">
      <rect width="24" height="24" fill="currentColor"></rect>
    </clipPath>
  </defs>
</svg>
