<svg preserveAspectRatio="xMidYMin slice" width="100%" viewBox="0 0 12 13">
    <g fill="none" fill-rule="evenodd">
        <g fill="currentColor" fill-rule="nonzero">
            <g>
                <g>
                    <g>
                        <g>
                            <path d="M6.857.001c.878.003 1.111.012 1.616.033.64.028 1.076.125 1.457.267.4.143.763.369 1.063.66.305.286.541.632.692 1.014.148.364.25.78.279 1.39.026.546.034.759.036 1.911v.896c-.002 1.152-.01 1.366-.036 1.912-.029.61-.13 1.026-.279 1.39-.153.376-.359.696-.692 1.014-.3.29-.662.516-1.063.66-.381.141-.818.238-1.456.266-.54.023-.769.032-1.801.034H5.327c-1.032-.002-1.262-.01-1.8-.034-.64-.028-1.076-.125-1.457-.266-.395-.147-.73-.342-1.063-.66-.305-.286-.541-.632-.692-1.014-.148-.364-.25-.78-.279-1.39C.013 7.602.004 7.38.001 6.542V4.906c.003-.837.012-1.06.035-1.541.029-.61.13-1.026.279-1.39.15-.382.387-.728.692-1.014.3-.291.662-.517 1.063-.66.381-.142.818-.239 1.456-.267.472-.02.707-.03 1.45-.032zm-.396 1.03H5.54c-.837.001-1.189.005-1.522.016l-.168.006-.274.012c-.585.025-.902.118-1.114.197-.28.104-.48.228-.69.428-.21.2-.34.391-.448.658-.083.202-.18.505-.207 1.063l-.013.275-.006.168c-.01.28-.014.583-.015 1.21v1.32c.001.627.005.93.015 1.21l.006.169.013.274c.027.558.124.861.207 1.063.096.249.25.474.448.658.194.19.43.337.69.428.212.079.53.172 1.114.198.566.024.778.031 1.964.033h.922c.768-.001 1.127-.004 1.438-.013l.252-.009.274-.011c.585-.026.902-.119 1.114-.198.28-.103.48-.227.69-.428.199-.184.352-.41.448-.658.083-.202.18-.505.207-1.063.025-.536.033-.739.035-1.85v-.925c-.002-1.112-.01-1.315-.035-1.851-.027-.558-.124-.861-.207-1.063-.108-.267-.238-.458-.448-.658-.21-.2-.41-.324-.69-.428-.212-.079-.53-.172-1.114-.197l-.274-.012-.168-.006c-.333-.01-.685-.015-1.522-.015zM6 2.782c1.703 0 3.084 1.318 3.084 2.943S7.704 8.666 6 8.666c-1.703 0-3.084-1.317-3.084-2.942C2.916 4.1 4.296 2.782 6 2.782zm0 1.033c-.715 0-1.376.364-1.734.955-.357.591-.357 1.32 0 1.91.358.591 1.019.955 1.734.955 1.106 0 2.002-.855 2.002-1.91S7.106 3.814 6 3.814zm3.252-1.781c.403 0 .73.311.73.696 0 .384-.327.695-.73.695-.402 0-.729-.311-.729-.695 0-.385.327-.696.73-.696z" transform="translate(-50 -280) translate(16 88) translate(8 15.264) translate(24 175.54) translate(2 1.908)"/>
                        </g>
                    </g>
                </g>
            </g>
        </g>
    </g>
</svg>
