<svg preserveAspectRatio="xMidYMin slice" width="100%" viewBox="0 0 12 12">
    <g fill="none" fill-rule="evenodd">
        <g>
            <g>
                <g>
                    <path fill="#626262" d="M0 12l.848-3.08C.324 8.016.048 6.99.05 5.946.05 2.666 2.732 0 6.025 0 7.61 0 9.13.627 10.25 1.743 11.37 2.86 12 4.373 12 5.951c-.001 3.28-2.682 5.946-5.975 5.946h-.002c-.998 0-1.98-.249-2.856-.724L0 12z" transform="translate(-512.000000, -162.000000) translate(286.000000, 88.000000) translate(226.000000, 74.000000)"></path>
                    <path fill="currentColor" fill-rule="nonzero" d="M6.025 0C7.61 0 9.13.627 10.25 1.743 11.37 2.86 12 4.373 12 5.951c-.001 3.28-2.682 5.946-5.975 5.946h-.002c-.998 0-1.98-.249-2.856-.724L0 12l.848-3.08C.324 8.016.048 6.99.05 5.946.05 2.666 2.732 0 6.025 0zm.002 1.004c-2.74 0-4.967 2.217-4.968 4.942-.001.93.262 1.843.759 2.63l.118.188-.5 1.823 1.878-.49.182.107c.765.45 1.638.689 2.527.689h.002c2.737 0 4.965-2.218 4.966-4.943 0-1.31-.522-2.569-1.453-3.496-.931-.928-2.194-1.45-3.511-1.45zM3.909 3.2c.1 0 .2 0 .287.004.107.004.224.009.336.256.132.294.42 1.028.458 1.102.037.075.062.161.012.26-.05.1-.074.162-.15.249-.074.086-.156.193-.223.26-.075.075-.152.154-.066.303s.387.635.831 1.03c.57.506 1.051.662 1.2.737.15.074.236.062.324-.037.087-.1.373-.434.473-.583.1-.149.199-.124.336-.074s.87.409 1.02.483c.15.074.248.111.286.174.039.062.039.359-.086.706-.124.347-.735.68-1.008.707-.273.026-.53.124-1.79-.371-1.518-.596-2.476-2.144-2.55-2.243-.075-.1-.61-.806-.61-1.538 0-.73.385-1.09.522-1.24.101-.114.245-.181.398-.185z" transform="translate(-512.000000, -162.000000) translate(286.000000, 88.000000) translate(226.000000, 74.000000)"></path>
                </g>
            </g>
        </g>
    </g>
</svg>
