<svg preserveAspectRatio="xMidYMin slice" width="100%" viewBox="0 0 18 16">
    <g fill="none" fill-rule="evenodd">
        <g fill="currentColor" fill-rule="nonzero">
            <g>
                <g>
                    <path d="M7.182 15.842c4.68-2.038 7.8-3.381 9.36-4.03C21 9.959 21.926 9.637 22.53 9.626c.132-.002.43.03.622.187.162.131.207.31.228.434.021.125.048.41.027.632-.242 2.537-1.287 8.693-1.819 11.534-.225 1.202-.668 1.605-1.096 1.645-.933.086-1.64-.616-2.543-1.207-1.413-.926-2.21-1.502-3.582-2.405-1.585-1.044-.557-1.618.346-2.555.236-.246 4.343-3.98 4.422-4.318.01-.043.02-.2-.074-.284-.094-.083-.233-.055-.333-.032-.141.032-2.398 1.523-6.77 4.473-.64.44-1.22.654-1.74.642-.574-.012-1.676-.324-2.496-.59-1.005-.326-1.804-.499-1.734-1.054.036-.289.434-.584 1.194-.886z" transform="translate(-300 -382) translate(294 127) translate(0 246)"/>
                </g>
            </g>
        </g>
    </g>
</svg>
