<svg preserveAspectRatio="xMidYMin slice" width="100%" viewBox="0 0 12 13">
    <g fill="none" fill-rule="evenodd">
        <g fill="currentColor">
            <g>
                <g>
                    <g>
                        <g>
                            <path d="M5.995 11.448C2.682 11.446-.003 8.881 0 5.72.003 2.558 2.691-.002 6.005 0 9.317.002 12 2.565 12 5.724c0 3.161-2.686 5.724-6 5.724h-.005m0-10.732C3.095.718.747 2.962.75 5.729c.003 2.766 2.355 5.006 5.255 5.004 2.9-.003 5.248-2.247 5.245-5.013C11.247 2.954 8.895.713 5.995.716M6 9.063c-1.933 0-3.5-1.495-3.5-3.339C2.5 3.88 4.067 2.385 6 2.385s3.5 1.495 3.5 3.34c0 1.843-1.567 3.338-3.5 3.338" transform="translate(-50 -341) translate(16 88) translate(8 15.264) translate(24 236.598) translate(2 1.908)"/>
                        </g>
                    </g>
                </g>
            </g>
        </g>
    </g>
</svg>
