<svg preserveAspectRatio="xMidYMin slice" width="100%" viewBox="0 0 20 20">
    <g fill="none" fill-rule="evenodd">
        <g>
            <g>
                <g transform="translate(-67 -195) translate(51 51) translate(16 144)">
                    <rect width="20" height="20" fill="#86868B" rx="5"/>
                    <g fill="#FFF" fill-rule="nonzero">
                        <path d="M7.619 0c.31 0 .675.105.955.225l.132.061c.29.143.58.215.87.286.218.143.363.358.508.501 0 .143.145.286.218.572.072.287.072.859 0 1.36l-.038.234c-.076.43-.18.839-.18.839l.145-.072.038.067c.043.084.107.243.107.434l-.184.696c-.02.081-.033.141-.033.163 0 .071 0 .357-.145.429-.073.071-.218.071-.29.215-.073.143-.145 1.001-.218 1.144l-.08.153c-.081.148-.2.338-.355.491l.001.189c.006.439.05 1.201.362 1.385.362.215.87.286 1.595.358.502.099.9.266 1.145.384l.423.21c.258.135.68.39.897.765l.212.362c.178.331.296.711.296 1.713l-.208.01c-.813.027-3.432.042-6.102.05.224-.54.347-1.132.347-1.753 0-1.765-.99-3.296-2.442-4.06-.083-.134-.152-.316-.152-.543l-.059-.388c-.053-.32-.105-.562-.158-.614l-.09-.078c-.09-.08-.2-.197-.2-.35 0-.215-.218-.716-.218-.86 0-.142-.072-.429 0-.572.073-.071.218-.071.218-.071-.073-.215-.145-.787-.218-1.145 0-.358-.072-.787 0-1.001.073-.287.218-.716.363-.859.145.072.362 0 .362 0L5.878.5c.145-.142.653-.285.87-.285.218 0 .436-.215.87-.215z" transform="translate(3 3)"/>
                        <path d="M3.5 7.941c1.933 0 3.5 1.58 3.5 3.53C7 13.42 5.433 15 3.5 15S0 13.42 0 11.47c0-1.949 1.567-3.529 3.5-3.529zm.583 1.177H2.917v1.764h-1.75v1.177h1.75v1.765h1.166v-1.765h1.75v-1.177h-1.75V9.118z" transform="translate(3 3)"/>
                    </g>
                </g>
            </g>
        </g>
    </g>
</svg>
