<svg width="100%" preserveAspectRatio="xMidYMin slice" viewBox="0 0 18 18">
  <g fill="none" fill-rule="evenodd">
    <g fill="#0371E2">
        <path d="M3.231 17.534H.694c-.383 0-.694-.31-.694-.694V9.985C0 9.6.31 9.29.694 9.29h2.537c.384 0 .695.31.695.694v6.855c0 .384-.311.694-.695.694M4.449 9.945v7.066s2.094.13 3.664.654c1.57.524 4.58.393 6.02-.13 1.439-.524 1.831-.917 1.7-1.44-.13-.523-.13-.916.131-1.178.262-.261.524-.654.524-1.047 0-.392-.262-.915-.262-1.046s.785-.785.785-1.309c0-.523-.523-1.047-.523-1.308 0-.262.523-.916.523-1.57 0-.655-.921-1.376-1.309-1.44-.785-.13-2.482-.185-3.925-.262-1.333-.07-1.309-.654-.654-1.57 0 0 1.046-1.44 1.046-2.355 0-.916-.261-3.01-1.57-3.01-.785 0-.785 1.701-.916 2.486-.13.785-.654 1.57-1.178 1.963-.523.393-1.7 1.44-1.831 2.486-.131 1.047-1.309 2.879-2.225 3.01" transform="translate(-1324 -727) translate(1324 727)"/>
    </g>
  </g>
</svg>
