<svg viewBox="0 0 17 20" preserveAspectRatio="xMidYMin slice" width="100%">
  <g id="Checkout" stroke="none" stroke-width="1" fill="none" fill-rule="evenodd">
    <g id="6-Settings-7" transform="translate(-861.000000, -558.000000)" fill="currentColor">
      <g id="Group-10-Copy-2" transform="translate(861.000000, 558.000000)">
        <path d="M12.7911167,17.8342961 C12.74995,18.2792127 12.37945,18.6148794 11.93295,18.6148794 L5.00903333,18.6148794 C4.56253333,18.6148794 4.19361667,18.2792127 4.14928333,17.8279627 L2.75436667,4.67996275 L14.1892,4.67996275 L12.7911167,17.8342961 Z M5.54261667,1.92812941 C5.56636667,1.69221275 5.76111667,1.51329608 5.99703333,1.51329608 L10.9433667,1.51329608 C11.1808667,1.51329608 11.3772,1.69221275 11.3977833,1.90121275 L11.47695,3.57321275 L5.46661667,3.57321275 L5.54261667,1.92812941 Z M16.3868667,3.57321275 L12.5852833,3.57321275 L12.50295,1.82362941 C12.42695,1.01612941 11.7556167,0.406546078 10.9433667,0.406546078 L5.99703333,0.406546078 C5.18636667,0.406546078 4.51661667,1.01612941 4.43745,1.84896275 L4.3567,3.57321275 L0.553533333,3.57321275 C0.24795,3.57321275 -0.000633333333,3.82021275 -0.000633333333,4.12737941 C-0.000633333333,4.43296275 0.24795,4.67996275 0.553533333,4.67996275 L1.6397,4.67996275 L3.04728333,17.9387961 C3.14386667,18.9568794 3.98778333,19.7216294 5.00903333,19.7216294 L11.93295,19.7216294 C12.9542,19.7216294 13.7981167,18.9568794 13.8931167,17.9451294 L15.3022833,4.67996275 L16.3868667,4.67996275 C16.6940333,4.67996275 16.9410333,4.43296275 16.9410333,4.12737941 C16.9410333,3.82021275 16.6940333,3.57321275 16.3868667,3.57321275 L16.3868667,3.57321275 Z" id="Fill-1"></path>
        <path d="M8.47099167,15.7639294 C8.776575,15.7639294 9.02515833,15.5169294 9.02515833,15.2097627 L9.02515833,7.29309608 C9.02515833,6.98751275 8.776575,6.74051275 8.47099167,6.74051275 C8.16540833,6.74051275 7.916825,6.98751275 7.916825,7.29309608 L7.916825,15.2097627 C7.916825,15.5169294 8.16540833,15.7639294 8.47099167,15.7639294" id="Fill-4"></path>
        <path d="M10.7902583,15.7623461 C10.8092583,15.7639294 10.8282583,15.7639294 10.845675,15.7639294 C11.1275083,15.7639294 11.368175,15.5501794 11.3982583,15.2667627 L12.189925,7.35009608 C12.218425,7.04451275 11.9983417,6.77217941 11.6927583,6.74209608 C11.3745083,6.71676275 11.116425,6.93684608 11.0863417,7.23767941 L10.294675,15.1543461 C10.2645917,15.4599294 10.4862583,15.7306794 10.7902583,15.7623461" id="Fill-6"></path>
        <path d="M6.17405,15.7639294 C6.19305,15.7639294 6.21046667,15.7639294 6.22946667,15.7623461 C6.53505,15.7306794 6.75671667,15.4599294 6.72663333,15.1543461 L5.93496667,7.23767941 C5.90488333,6.93367941 5.63096667,6.71359608 5.32855,6.74209608 C5.02296667,6.77217941 4.8013,7.04451275 4.83138333,7.35009608 L5.62305,15.2667627 C5.65155,15.5517627 5.89221667,15.7639294 6.17405,15.7639294" id="Fill-8"></path>
      </g>
    </g>
  </g>
</svg>
