<svg viewBox="0 0 20 20" preserveAspectRatio="xMidYMin slice" width="100%">
  <g id="Page-1" stroke-width="1" fill-rule="evenodd">
    <g id="C2-Test-mode-1" transform="translate(-740.000000, -327.000000)" fill="currentColor" fill-rule="nonzero">
      <path d="M741.882813,343 L756.05068,343 C757.499453,343 758.402584,341.428928 757.678197,340.177716 L750.594264,327.93841 C749.869877,326.687197 748.063615,326.687197 747.339229,327.93841 L740.255296,340.177716 C739.530909,341.428928 740.43404,343 741.882813,343 Z M748.966746,336.41467 C748.449328,336.41467 748.025985,335.991327 748.025985,335.473909 L748.025985,333.592386 C748.025985,333.074967 748.449328,332.651624 748.966746,332.651624 C749.484165,332.651624 749.907508,333.074967 749.907508,333.592386 L749.907508,335.473909 C749.907508,335.991327 749.484165,336.41467 748.966746,336.41467 Z M749.907508,340.177716 L748.025985,340.177716 L748.025985,338.296193 L749.907508,338.296193 L749.907508,340.177716 Z" id="icon/alert/warning_24px"></path>
    </g>
  </g>
</svg>
