<svg width="100%" viewBox="0 0 130 101" fill="none">
  <path d="M67.8236 64.1121L59.7033 72.2324L63.2036 75.7328L71.3239 67.6125L67.8236 64.1121Z" stroke="black"
    stroke-width="2"></path>
  <path d="M83.9613 73.4116L71.9303 67.9805L63.543 76.1615L68.6304 88.33L90.0112 94.8611L83.9613 73.4116Z"
    stroke="black" stroke-width="2"></path>
  <path d="M74.6114 79.5293L90.0798 94.9977" stroke="black" stroke-width="2"></path>
  <path d="M39 99.0156H91.2489" stroke="black" stroke-width="2"></path>
  <path
    d="M124.775 18.4059C124.775 25.5158 121.502 30.4468 113.406 30.4468H109.214V6.36499H113.406C121.502 6.36499 124.775 11.2387 124.775 18.4059ZM130 18.4059C130 6.42233 122.593 1.43396 113.463 1.43396H104.161V35.3778H113.406C122.306 35.3205 130 30.3321 130 18.4059ZM97.0407 1.43396H91.9302V35.3778H97.0407V1.43396Z"
    fill="#05B1FB"></path>
  <path
    d="M81.1351 23.1644C81.1351 28.5541 79.1828 31.249 75.6228 31.249C73.0963 31.249 70.7994 29.4142 69.651 27.9234V17.2013C70.9717 15.5385 73.0388 13.933 75.4505 13.933C79.1254 13.9904 81.1351 16.7999 81.1351 23.1644ZM86.1307 23.0497C86.1307 13.3597 81.8242 9.40337 76.3118 9.40337C73.6705 9.40337 71.4885 10.6648 69.651 12.3849V0L64.7129 2.58019V35.32H69.651V32.9691C71.0866 34.5172 73.4982 35.8933 76.0821 35.8933C81.4222 35.8933 86.1307 31.765 86.1307 23.0497ZM54.9514 20.2975H43.1228C43.5821 16.2265 45.5919 13.8757 48.9223 13.8757C53.0565 13.8757 54.7217 16.7999 54.9514 20.2975ZM60.0044 22.1323C60.0044 15.2518 56.5018 9.40337 49.2668 9.40337C42.6634 9.34603 38.1272 14.0477 38.1272 22.6484C38.1272 31.077 43.1802 35.8933 49.1519 35.8933C53.0565 35.8933 55.6979 34.6893 57.9373 32.5678L54.9514 29.3569C53.2288 30.6183 51.5636 31.3637 49.439 31.3637C46.3383 31.3637 43.5821 29.2995 43.0079 24.3685H59.8321C59.8896 23.8524 60.0044 23.0497 60.0044 22.1323ZM36.864 1.43344H31.9258L27.7915 23.3364C27.6193 24.1391 27.3322 26.0313 27.1025 27.2927C26.9302 26.0886 26.5283 24.3111 26.2986 23.3937L20.7862 1.43344H16.4223L10.9673 22.8777C10.7376 23.9098 10.2208 26.1459 10.0486 27.2927C9.87632 26.2033 9.47438 23.8524 9.2447 22.8204L5.16784 1.43344H0L6.94788 35.3773H12.0009L17.5132 13.4743C17.8003 12.3276 18.3171 9.80473 18.4894 8.94467C18.6617 9.74739 19.1784 12.2702 19.4655 13.4743L24.7482 35.3773H29.9161L36.864 1.43344Z"
    fill="black"></path>
  <path
    d="M126.784 45.8708H125.981L124.66 49.7697L124.488 50.2858L124.315 49.7124L122.995 45.8134H122.191L124.086 51.0885L123.339 53.038H124.086L126.784 45.8708ZM121.329 51.2032V47.9349C121.329 46.3868 120.583 45.7561 119.435 45.7561C118.746 45.7561 118.286 46.1001 117.942 46.5015V45.8708H117.195V51.2032H117.942V48.0496C117.942 46.9028 118.516 46.3868 119.262 46.3868C120.124 46.3868 120.526 46.9028 120.526 48.0496V51.2032H121.329ZM114.898 49.8844C114.554 50.3431 114.037 50.6871 113.348 50.6871C112.716 50.6871 112.257 50.3431 112.257 49.5404C112.257 48.8523 112.716 48.5083 113.52 48.5083C114.152 48.5083 114.554 48.623 114.898 48.795V49.8844ZM115.645 51.2032V47.4762C115.645 46.2148 114.898 45.7561 113.75 45.7561C113.061 45.7561 112.429 45.9281 111.97 46.1574L112.257 46.7882C112.716 46.5588 113.176 46.3868 113.693 46.3868C114.496 46.3868 114.841 46.7882 114.841 47.5909V48.2216C114.496 48.0496 114.037 47.9349 113.52 47.9349C112.487 47.9349 111.453 48.451 111.453 49.655C111.453 50.9738 112.314 51.3752 113.176 51.3752C113.922 51.3752 114.496 51.0311 114.841 50.6298V51.2605H115.645V51.2032ZM109.903 48.451C109.903 49.8844 109.443 50.6298 108.582 50.6298C107.951 50.6298 107.434 50.2858 107.147 49.8271V47.1895C107.549 46.7308 108.008 46.3868 108.582 46.3868C109.386 46.3868 109.903 47.0748 109.903 48.451ZM110.649 48.451C110.649 46.5588 109.788 45.7561 108.754 45.7561C108.008 45.7561 107.491 46.1001 107.147 46.5015V45.8708H106.4V53.21L107.147 52.8086V50.6871C107.549 51.0885 108.008 51.3752 108.64 51.3752C109.731 51.3178 110.649 50.3431 110.649 48.451ZM104.85 51.2032V47.9349C104.85 46.3868 104.161 45.7561 103.07 45.7561C102.208 45.7561 101.749 46.1574 101.462 46.6735C101.232 46.1574 100.773 45.7561 99.9691 45.7561C99.3375 45.7561 98.8781 46.0428 98.591 46.5015V45.8708H97.8445V51.2032H98.591V48.0496C98.591 46.8455 99.0503 46.3868 99.7968 46.3868C100.543 46.3868 100.945 46.8455 100.945 48.0496V51.2032H101.692V48.0496C101.692 46.8455 102.151 46.3868 102.898 46.3868C103.701 46.3868 104.046 46.8455 104.046 48.0496V51.2032H104.85ZM95.8348 48.5083C95.8348 49.9417 95.2032 50.6298 94.2845 50.6298C93.3657 50.6298 92.7341 49.8844 92.7341 48.5083C92.7341 47.0749 93.3657 46.3868 94.2845 46.3868C95.2032 46.3868 95.8348 47.0749 95.8348 48.5083ZM96.5813 48.5083C96.5813 46.6735 95.6051 45.7561 94.2845 45.7561C92.9638 45.7561 91.9302 46.7308 91.9302 48.5656C91.9302 50.4004 92.9064 51.3752 94.227 51.3752C95.5477 51.3178 96.5813 50.2858 96.5813 48.5083ZM91.1263 50.1137L90.5521 49.655C90.0928 50.2284 89.576 50.5724 88.7721 50.5724C87.5663 50.5724 86.6475 49.3684 86.6475 47.5909C86.6475 45.8708 87.5088 44.6667 88.7721 44.6667C89.576 44.6667 89.9779 44.9534 90.4373 45.5841L91.0689 45.1254C90.4947 44.3226 89.7482 43.9786 88.7721 43.9786C87.0495 43.9786 85.8436 45.5267 85.8436 47.6482C85.8436 49.7124 86.992 51.3178 88.7147 51.3178C89.8056 51.3178 90.6095 50.8018 91.1263 50.1137ZM82.5133 45.8708H81.7094L80.3887 49.7697L80.2164 50.2858L80.0442 49.7124L78.7235 45.8134H77.9196L79.8145 51.0885L79.068 53.038H79.8145L82.5133 45.8708ZM77.1731 46.5015V45.8708H75.8525V43.7493L75.106 44.1506V45.8134H74.417V46.4441H75.106V50.0564C75.106 50.9165 75.4505 51.2605 76.1396 51.2605C76.5415 51.2605 76.8286 51.2032 77.1157 51.0885L77.1731 50.4004C76.9435 50.5151 76.7138 50.5724 76.4267 50.5724C76.0247 50.5724 75.9099 50.4004 75.9099 49.9417V46.4441H77.1731V46.5015ZM73.2685 45.8708H72.5221V51.2032H73.2685V45.8708ZM73.4408 44.3226C73.4408 44.036 73.2111 43.7493 72.924 43.7493C72.5795 43.7493 72.3498 43.9786 72.3498 44.3226C72.3498 44.6093 72.5795 44.8387 72.924 44.8387C73.2111 44.896 73.4408 44.6667 73.4408 44.3226ZM71.0866 46.5015V45.8708H69.7659V43.7493L69.0194 44.1506V45.8134H68.3304V46.4441H69.0194V50.0564C69.0194 50.9165 69.364 51.2605 70.053 51.2605C70.4549 51.2605 70.742 51.2032 71.0292 51.0885L71.0866 50.4004C70.8569 50.5151 70.6272 50.5724 70.3401 50.5724C69.9382 50.5724 69.8233 50.4004 69.8233 49.9417V46.4441H71.0866V46.5015ZM67.3542 51.2032V47.9349C67.3542 46.3868 66.6078 45.7561 65.4594 45.7561C64.7703 45.7561 64.311 46.1001 63.9664 46.5015V45.8708H63.22V51.2032H63.9664V48.0496C63.9664 46.9028 64.5406 46.3868 65.2871 46.3868C66.1484 46.3868 66.5504 46.9028 66.5504 48.0496V51.2032H67.3542ZM61.2102 48.1643H58.3392C58.4541 46.9602 58.9708 46.3868 59.7747 46.3868C60.6935 46.3868 61.1528 47.1322 61.2102 48.1643ZM61.8993 48.3363C61.8993 46.7882 61.1528 45.6987 59.7173 45.6987C58.4541 45.6987 57.4779 46.7308 57.4779 48.451C57.4779 50.5724 58.6837 51.2605 59.6599 51.2605C60.4638 51.2605 60.9231 51.0311 61.5548 50.6298L61.2102 50.0564C60.6935 50.4004 60.3489 50.5724 59.7173 50.5724C58.856 50.5724 58.2818 49.8271 58.2244 48.6803H61.7844C61.8993 48.6803 61.8993 48.5656 61.8993 48.3363ZM55.5256 49.8844C55.1237 50.3431 54.6643 50.6871 54.0901 50.6871C53.2288 50.6871 52.712 49.9991 52.712 48.623C52.712 47.1895 53.1714 46.4441 54.0327 46.4441C54.6643 46.4441 55.1811 46.7882 55.4682 47.2469V49.8844H55.5256ZM56.2721 51.2032V43.7493L55.5256 44.1506V46.3868C55.1237 45.9854 54.6643 45.6987 54.0327 45.6987C52.8843 45.6987 52.023 46.6735 52.023 48.5656C52.023 50.4578 52.8843 51.2605 53.9178 51.2605C54.6643 51.2605 55.1811 50.9165 55.5256 50.5151V51.1458H56.2721V51.2032ZM50.5875 44.036H49.7836V51.2032H50.5875V44.036ZM45.1325 48.1643H42.2615C42.3763 46.9602 42.8931 46.3868 43.697 46.3868C44.6157 46.3868 45.0751 47.1322 45.1325 48.1643ZM45.8216 48.3363C45.8216 46.7882 45.0751 45.6987 43.6396 45.6987C42.3763 45.6987 41.4002 46.7308 41.4002 48.451C41.4002 50.5724 42.606 51.2605 43.5822 51.2605C44.386 51.2605 44.8454 51.0311 45.477 50.6298L45.1325 50.0564C44.6157 50.4004 44.2712 50.5724 43.6396 50.5724C42.7783 50.5724 42.2041 49.8271 42.1466 48.6803H45.7067C45.8216 48.6803 45.8216 48.5656 45.8216 48.3363ZM40.1943 51.2032V45.8708H39.4479V49.0243C39.4479 50.1711 38.8737 50.6871 38.1272 50.6871C37.2659 50.6871 36.864 50.1711 36.864 49.0243V45.8708H36.1175V49.139C36.1175 50.6871 36.864 51.3178 38.0124 51.3178C38.7014 51.3178 39.1608 50.9738 39.5053 50.5724V51.2032H40.1943ZM35.0265 45.8708C34.8542 45.8134 34.5671 45.7561 34.1652 45.7561C33.591 45.7561 33.0742 46.1001 32.8445 46.5588V45.8708H32.0981V51.2032H32.8445V48.0496C32.8445 47.0175 33.2465 46.4441 33.9929 46.4441C34.3375 46.4441 34.5671 46.5015 34.7968 46.6735L35.0265 45.8708ZM31.7535 44.7813V44.036H26.758V44.7813H28.8825V51.2032H29.6864V44.7813H31.7535ZM23.5424 45.8708C23.3701 45.8134 23.083 45.7561 22.6811 45.7561C22.1069 45.7561 21.5901 46.1001 21.3604 46.5588V45.8708H20.614V51.2032H21.3604V48.0496C21.3604 47.0175 21.7624 46.4441 22.5088 46.4441C22.8534 46.4441 23.083 46.5015 23.3127 46.6735L23.5424 45.8708ZM19.0636 51.2032V45.8708H18.3171V49.0243C18.3171 50.1711 17.7429 50.6871 16.9965 50.6871C16.1352 50.6871 15.7332 50.1711 15.7332 49.0243V45.8708H14.9868V49.139C14.9868 50.6871 15.7332 51.3178 16.8816 51.3178C17.5707 51.3178 18.03 50.9738 18.3746 50.5724V51.2032H19.0636ZM12.9196 48.5083C12.9196 49.9417 12.288 50.6298 11.3693 50.6298C10.4505 50.6298 9.81891 49.8844 9.81891 48.5083C9.81891 47.0749 10.4505 46.3868 11.3693 46.3868C12.288 46.3868 12.9196 47.0749 12.9196 48.5083ZM13.6661 48.5083C13.6661 46.6735 12.6899 45.7561 11.3693 45.7561C10.0486 45.7561 9.01502 46.7308 9.01502 48.5656C9.01502 50.4004 9.99117 51.3752 11.3118 51.3752C12.6325 51.3178 13.6661 50.2858 13.6661 48.5083ZM9.18728 44.036H8.26856L7.12015 46.1001C6.83305 46.6161 6.54594 47.1895 6.31626 47.6482C6.08658 47.2469 5.79948 46.6161 5.51238 46.1001L4.36397 44.036H3.44524L5.91432 48.3363V51.1458H6.7182V48.3363L9.18728 44.036Z"
    fill="black"></path>
</svg>
