<svg xmlns="http://www.w3.org/2000/svg" width="20" height="20" viewBox="0 0 20 20">
  <g fill="none" fill-rule="evenodd">
    <rect width="20" height="20" fill="#86868B" rx="5"/>
    <path fill="#FFF" fill-rule="nonzero" d="M5.3411666,4.50630939 L5.42426407,4.57573593 L10,9.151 L14.5757359,4.57573593 L14.6588334,4.50630939 C14.8926752,4.34431413 15.2159844,4.36745631 15.4242641,4.57573593 C15.6585786,4.81005051 15.6585786,5.18994949 15.4242641,5.42426407 L15.4242641,5.42426407 L10.849,10 L15.4242641,14.5757359 C15.6585786,14.8100505 15.6585786,15.1899495 15.4242641,15.4242641 C15.2159844,15.6325437 14.8926752,15.6556859 14.6588334,15.4936906 L14.5757359,15.4242641 L10,10.849 L5.42426407,15.4242641 L5.3411666,15.4936906 C5.10732483,15.6556859 4.78401555,15.6325437 4.57573593,15.4242641 C4.34142136,15.1899495 4.34142136,14.8100505 4.57573593,14.5757359 L4.57573593,14.5757359 L9.151,10 L4.57573593,5.42426407 C4.34142136,5.18994949 4.34142136,4.81005051 4.57573593,4.57573593 C4.78401555,4.36745631 5.10732483,4.34431413 5.3411666,4.50630939 Z"/>
  </g>
</svg>
