<svg viewBox="0 0 24 24">
  <path _ngcontent-afg-c872=""
    d="M13.6453 12.0012l8.0126 -8.0126c0.454724,-0.455906 0.454724,-1.19055 0,-1.64528 -0.454724,-0.455906 -1.18937,-0.455906 -1.64528,0l-8.0126 8.0126 -8.0126 -8.0126c-0.455906,-0.455906 -1.19055,-0.455906 -1.64528,0 -0.454724,0.454724 -0.454724,1.18937 0,1.64528l8.0126 8.0126 -8.0126 8.0126c-0.454724,0.455906 -0.454724,1.19055 0,1.64528 0.226772,0.226772 0.524409,0.341339 0.822047,0.341339 0.297638,0 0.596457,-0.114567 0.823228,-0.341339l8.0126 -8.0126 8.0126 8.0126c0.226772,0.226772 0.525591,0.341339 0.823228,0.341339 0.297638,0 0.595276,-0.114567 0.822047,-0.341339 0.454724,-0.454724 0.454724,-1.18937 0,-1.64528l-8.0126 -8.0126 0 0z">
  </path>
</svg>
