<svg xmlns="http://www.w3.org/2000/svg" width="20" height="20" viewBox="0 0 20 20">
  <g fill="none" fill-rule="evenodd">
    <rect width="20" height="20" fill="#86868B" rx="5"/>
    <g fill="#FFF" fill-rule="nonzero" transform="translate(3 3)">
      <path d="M12.5,0 C13.3284271,0 14,0.671572875 14,1.5 L14,9.5 C14,10.3284271 13.3284271,11 12.5,11 L12,11 L12,10 L12.5,10 C12.7564179,10 12.9677536,9.8069799 12.9966361,9.55831056 L13,9.5 L13,1.5 C13,1.24358208 12.8069799,1.03224642 12.5583106,1.00336387 L12.5,1 L4.5,1 C4.24358208,1 4.03224642,1.1930201 4.00336387,1.44168944 L4,1.5 L4,2 L3,2 L3,1.5 C3,0.671572875 3.67157288,0 4.5,0 L12.5,0 Z"/>
      <path d="M9.5,3 C10.3284271,3 11,3.67157288 11,4.5 L11,12.5 C11,13.3284271 10.3284271,14 9.5,14 L1.5,14 C0.671572875,14 0,13.3284271 0,12.5 L0,4.5 C0,3.67157288 0.671572875,3 1.5,3 L9.5,3 Z M9.5,4 L1.5,4 C1.24358208,4 1.03224642,4.1930201 1.00336387,4.44168944 L1,4.5 L1,12.5 C1,12.7564179 1.1930201,12.9677536 1.44168944,12.9966361 L1.5,13 L9.5,13 C9.75641792,13 9.96775358,12.8069799 9.99663613,12.5583106 L10,12.5 L10,4.5 C10,4.24358208 9.8069799,4.03224642 9.55831056,4.00336387 L9.5,4 Z"/>
    </g>
  </g>
</svg>
