<svg xmlns="http://www.w3.org/2000/svg" width="20" height="20" viewBox="0 0 20 20">
  <g fill="none" fill-rule="evenodd">
    <rect width="20" height="20" fill="#86868B" rx="5"/>
    <path fill="#FFF" fill-rule="nonzero" d="M4.32161813,12.25 C4.142672,12.249162 3.97146854,12.1757603 3.84620671,12.0460882 L0.196921852,8.33642626 C-0.06564062,8.07000855 -0.0656406168,7.6380601 0.196921859,7.3716424 C0.459484334,7.10522469 0.885182216,7.10522469 1.1477447,7.37164239 L4.32161813,10.5989124 L12.85224,1.94982882 C13.0220881,1.77748678 13.2696472,1.71017955 13.5016641,1.77326112 C13.7336809,1.83634268 13.9149068,2.02022945 13.9770755,2.25565305 C14.0392442,2.49107665 13.972911,2.74227065 13.8030628,2.91461269 L4.81042142,12.0460882 C4.68191921,12.1791577 4.50520247,12.2528474 4.32161813,12.25 L4.32161813,12.25 Z" transform="translate(3 3)"/>
  </g>
</svg>
