<svg xmlns="http://www.w3.org/2000/svg" xmlns:xlink="http://www.w3.org/1999/xlink" width="20" height="20" viewBox="0 0 20 20">
  <defs>
    <polygon id="delete-a" points="0 0 12 0 12 13 0 13"/>
  </defs>
  <g fill="none" fill-rule="evenodd">
    <rect width="20" height="20" fill="#86868B" rx="5"/>
    <g transform="translate(4 3)">
      <mask id="delete-b" fill="#fff">
        <use xlink:href="#delete-a"/>
      </mask>
      <path fill="#FFF" d="M9.06045086,11.7296903 C9.03129089,12.0291509 8.76885117,12.2550785 8.45257767,12.2550785 L3.54809526,12.2550785 C3.23182175,12.2550785 2.97050357,12.0291509 2.93910053,11.7254275 L1.95102621,2.8758874 L10.0507683,2.8758874 L9.06045086,11.7296903 Z M3.92605331,1.02370764 C3.94287637,0.864918925 4.08082545,0.74449527 4.2479345,0.74449527 L7.75161688,0.74449527 C7.91984747,0.74449527 8.05891809,0.864918925 8.07349807,1.00559081 L8.12957494,2.13096585 L3.87221952,2.13096585 L3.92605331,1.02370764 Z M11.607462,2.13096585 L8.91465101,2.13096585 L8.85633108,0.953371698 C8.80249729,0.409866706 8.32696549,-0.000426278426 7.75161688,-0.000426278426 L4.2479345,-0.000426278426 C3.67370743,-0.000426278426 3.19929717,0.409866706 3.14322031,0.970422835 L3.08602191,2.13096585 L0.392089424,2.13096585 C0.175632734,2.13096585 -0.000448614901,2.29721443 -0.000448614901,2.50395947 C-0.000448614901,2.70963881 0.175632734,2.8758874 0.392089424,2.8758874 L1.16146398,2.8758874 L2.1585106,11.8000262 C2.22692437,12.4852688 2.82470373,13 3.54809526,13 L8.45257767,13 C9.1759692,13 9.77374855,12.4852688 9.84104079,11.804289 L10.8392089,2.8758874 L11.607462,2.8758874 C11.8250402,2.8758874 12,2.70963881 12,2.50395947 C12,2.29721443 11.8250402,2.13096585 11.607462,2.13096585 L11.607462,2.13096585 Z" mask="url(#delete-b)"/>
      <path fill="#FFF" d="M6.00033646 10.3361861C6.21679315 10.3361861 6.3928745 10.1699375 6.3928745 9.9631925L6.3928745 4.63471218C6.3928745 4.42903284 6.21679315 4.26278425 6.00033646 4.26278425 5.78387977 4.26278425 5.60779842 4.42903284 5.60779842 4.63471218L5.60779842 9.9631925C5.60779842 10.1699375 5.78387977 10.3361861 6.00033646 10.3361861M7.64316423 10.3351204C7.65662268 10.3361861 7.67008112 10.3361861 7.68241803 10.3361861 7.88205167 10.3361861 8.05252533 10.1923172 8.07383454 10.0015576L8.63460316 4.67307724C8.65479083 4.4673979 8.49889716 4.28409818 8.28244047 4.26384995 8.05701148 4.24679881 7.8742009 4.39493057 7.8528917 4.59741282L7.29212307 9.92589314C7.27081386 10.1315725 7.42782908 10.3138065 7.64316423 10.3351204M4.37332237 10.3361861C4.38678081 10.3361861 4.39911772 10.3361861 4.41257617 10.3351204 4.62903286 10.3138065 4.78604808 10.1315725 4.76473887 9.92589314L4.20397024 4.59741282C4.18266103 4.39279917 3.98863509 4.24466742 3.77442147 4.26384995 3.55796478 4.28409818 3.40094957 4.4673979 3.42225878 4.67307724L3.9830274 10.0015576C4.00321507 10.1933828 4.17368874 10.3361861 4.37332237 10.3361861"/>
    </g>
  </g>
</svg>
