<svg xmlns="http://www.w3.org/2000/svg">
  <defs>
    <svg id="sidebar-white-icon" width="44" height="44" viewBox="0 0 44 44" fill="none" xmlns="http://www.w3.org/2000/svg">
      <path
        d="M9.142 15.628h25.716c.719 0 1.299-.594 1.299-1.312 0-.718-.58-1.298-1.299-1.298H9.142c-.732 0-1.299.58-1.299 1.298 0 .718.58 1.312 1.299 1.312zM12 22.768h20.054c.718 0 1.298-.593 1.298-1.311 0-.732-.566-1.312-1.298-1.312H12a1.3 1.3 0 0 0-1.299 1.312c0 .704.58 1.312 1.299 1.312zm2.803 7.128h14.447a1.3 1.3 0 0 0 1.298-1.313c0-.718-.566-1.298-1.298-1.298H14.804c-.732 0-1.298.58-1.298 1.299a1.3 1.3 0 0 0 1.298 1.312z"
        fill="currentColor" />
    </svg>
  </defs>
  <defs>
    <svg id="folder-icon" xmlns="http://www.w3.org/2000/svg" width="86" height="67" viewBox="0 0 86 67">
      <defs>
        <linearGradient id="5675cexj3a1" x1="50%" x2="50%" y1="0%" y2="19.745%">
          <stop offset="0%" stop-color="#007DFD"></stop>
          <stop offset="100%" stop-color="#005DBB"></stop>
        </linearGradient>
        <linearGradient id="1mqut1m2qb1" x1="50%" x2="50%" y1="0%" y2="100%">
          <stop offset="0%" stop-color="#007EFF"></stop>
          <stop offset="100%" stop-color="#005CBA"></stop>
        </linearGradient>
      </defs>
      <path fill="url(#5675cexj3a1)"
        d="M5.075 0h17.013c1.49 0 2.918.592 3.97 1.647l2.476 2.48c.801.803 1.89 1.255 3.024 1.255H81.46c2.507 0 4.54 2.032 4.54 4.54v41.78c0 2.95-2.392 5.342-5.342 5.342H5.342C2.392 57.044 0 54.653 0 51.703V5.075C0 2.272 2.272 0 5.075 0z"
        transform="translate(-910 -582) translate(826 543) translate(84 39)"></path>
      <path fill="url(#1mqut1m2qb1)"
        d="M2.137 9.956h81.726c1.18 0 2.137.956 2.137 2.136v49.566C86 64.608 83.608 67 80.658 67H5.342C2.392 67 0 64.608 0 61.658V12.092c0-1.18.957-2.136 2.137-2.136z"
        transform="translate(-910 -582) translate(826 543) translate(84 39)"></path>
    </svg>
  </defs>
  <defs>
    <svg id="add-icon" xmlns="http://www.w3.org/2000/svg" viewBox="0 0 58 59">
      <defs>
        <linearGradient id="taz50eecua" x1="50%" x2="48.333%" y1="0%" y2="107.889%">
          <stop offset="0%" stop-color="#007DFE" />
          <stop offset="100%" stop-color="#005CBB" />
        </linearGradient>
      </defs>
      <g fill="none" fill-rule="evenodd">
        <g fill="url(#taz50eecua)" fill-rule="nonzero" transform="translate(-654.000000, -208.000000)">
          <path
            d="M152.778 87.278h-22.556V64.722c0-1.78-1.442-3.222-3.222-3.222s-3.222 1.443-3.222 3.222v22.556h-22.556C99.442 87.278 98 88.72 98 90.5s1.443 3.222 3.222 3.222h22.556v22.556c0 1.78 1.442 3.222 3.222 3.222s3.222-1.443 3.222-3.222V93.722h22.556c1.78 0 3.222-1.442 3.222-3.222s-1.443-3.222-3.222-3.222z"
            transform="translate(556.000000, 147.000000)" />
        </g>
      </g>
    </svg>
  </defs>
  <defs>
    <svg id="checkbox-icon" xmlns="http://www.w3.org/2000/svg" viewBox="0 0 16 16" class="checkbox">
      <path d="M4.8 8L7.2 10.4 11.2 5.6" />
    </svg>
  </defs>
  <defs>
    <svg id="more-icon" xmlns="http://www.w3.org/2000/svg" width="24" height="24" viewBox="0 0 24 24">
      <g fill="none" fill-rule="evenodd">
        <g fill-rule="nonzero">
          <g>
            <g>
              <g transform="translate(-1322 -60) translate(286 56) translate(980 4) translate(56)">
                <circle cx="12" cy="12" r="12" fill="#0371e2" />
                <path fill="currentColor"
                  d="M6.667 10.667C7.403 10.667 8 11.264 8 12s-.597 1.333-1.333 1.333c-.737 0-1.334-.597-1.334-1.333s.597-1.333 1.334-1.333zm5.333 0c.736 0 1.333.597 1.333 1.333s-.597 1.333-1.333 1.333-1.333-.597-1.333-1.333.597-1.333 1.333-1.333zm5.333 0c.737 0 1.334.597 1.334 1.333s-.597 1.333-1.334 1.333C16.597 13.333 16 12.736 16 12s.597-1.333 1.333-1.333z" />
              </g>
            </g>
          </g>
        </g>
      </g>
    </svg>
  </defs>
  <defs>
    <svg id="side-menu-icon" xmlns="http://www.w3.org/2000/svg" height="14" width="14" viewBox="0 0 24 24">
      <g fill="currentColor" fill-rule="evenodd">
        <path
          d="M13.6453 12.0012l8.0126 -8.0126c0.454724,-0.455906 0.454724,-1.19055 0,-1.64528 -0.454724,-0.455906 -1.18937,-0.455906 -1.64528,0l-8.0126 8.0126 -8.0126 -8.0126c-0.455906,-0.455906 -1.19055,-0.455906 -1.64528,0 -0.454724,0.454724 -0.454724,1.18937 0,1.64528l8.0126 8.0126 -8.0126 8.0126c-0.454724,0.455906 -0.454724,1.19055 0,1.64528 0.226772,0.226772 0.524409,0.341339 0.822047,0.341339 0.297638,0 0.596457,-0.114567 0.823228,-0.341339l8.0126 -8.0126 8.0126 8.0126c0.226772,0.226772 0.525591,0.341339 0.823228,0.341339 0.297638,0 0.595276,-0.114567 0.822047,-0.341339 0.454724,-0.454724 0.454724,-1.18937 0,-1.64528l-8.0126 -8.0126 0 0z"
          class="path1"></path>
      </g>
    </svg>
  </defs>
  <defs>
    <svg id="side-menu-icon-cc" xmlns="http://www.w3.org/2000/svg" height="14" width="14" viewBox="0 0 24 24">
      <g fill="currentColor" fill-rule="evenodd">
        <path
          d="M13.6453 12.0012l8.0126 -8.0126c0.454724,-0.455906 0.454724,-1.19055 0,-1.64528 -0.454724,-0.455906 -1.18937,-0.455906 -1.64528,0l-8.0126 8.0126 -8.0126 -8.0126c-0.455906,-0.455906 -1.19055,-0.455906 -1.64528,0 -0.454724,0.454724 -0.454724,1.18937 0,1.64528l8.0126 8.0126 -8.0126 8.0126c-0.454724,0.455906 -0.454724,1.19055 0,1.64528 0.226772,0.226772 0.524409,0.341339 0.822047,0.341339 0.297638,0 0.596457,-0.114567 0.823228,-0.341339l8.0126 -8.0126 8.0126 8.0126c0.226772,0.226772 0.525591,0.341339 0.823228,0.341339 0.297638,0 0.595276,-0.114567 0.822047,-0.341339 0.454724,-0.454724 0.454724,-1.18937 0,-1.64528l-8.0126 -8.0126 0 0z"
          class="path1"></path>
      </g>
    </svg>
  </defs>
  <defs>
    <svg id="small-close-icon" xmlns="http://www.w3.org/2000/svg" viewBox="0 0 16 16">
      <g fill="none" fill-rule="evenodd">
        <g>
          <g>
            <path fill="#636363"
              d="M8 0c4.418 0 8 3.582 8 8s-3.582 8-8 8-8-3.582-8-8 3.582-8 8-8zm3.53 4.47c-.266-.267-.683-.29-.976-.073l-.084.073L8 6.939l-2.47-2.47-.084-.072c-.293-.218-.71-.194-.976.073-.293.293-.293.767 0 1.06L6.939 8l-2.47 2.47-.072.084c-.218.293-.194.71.073.976.266.267.683.29.976.073l.084-.073L8 9.061l2.47 2.47.084.072c.293.218.71.194.976-.073.293-.293.293-.767 0-1.06L9.061 8l2.47-2.47.072-.084c.218-.293.194-.71-.073-.976z"
              transform="translate(-1387 -95) translate(1387 95)" />
          </g>
        </g>
      </g>
    </svg>
  </defs>
  <defs>
    <svg id="toolbar-delete" xmlns="http://www.w3.org/2000/svg" xmlns:xlink="http://www.w3.org/1999/xlink" width="20"
      height="20" viewBox="0 0 20 20">
      <defs>
        <polygon id="delete-a" points="0 0 12 0 12 13 0 13" />
      </defs>
      <g fill="none" fill-rule="evenodd">
        <rect width="20" height="20" fill="#86868B" rx="5" />
        <g transform="translate(4 3)">
          <mask id="delete-b" fill="currentColor">
            <use xlink:href="#delete-a" />
          </mask>
          <path fill="currentColor"
            d="M9.06045086,11.7296903 C9.03129089,12.0291509 8.76885117,12.2550785 8.45257767,12.2550785 L3.54809526,12.2550785 C3.23182175,12.2550785 2.97050357,12.0291509 2.93910053,11.7254275 L1.95102621,2.8758874 L10.0507683,2.8758874 L9.06045086,11.7296903 Z M3.92605331,1.02370764 C3.94287637,0.864918925 4.08082545,0.74449527 4.2479345,0.74449527 L7.75161688,0.74449527 C7.91984747,0.74449527 8.05891809,0.864918925 8.07349807,1.00559081 L8.12957494,2.13096585 L3.87221952,2.13096585 L3.92605331,1.02370764 Z M11.607462,2.13096585 L8.91465101,2.13096585 L8.85633108,0.953371698 C8.80249729,0.409866706 8.32696549,-0.000426278426 7.75161688,-0.000426278426 L4.2479345,-0.000426278426 C3.67370743,-0.000426278426 3.19929717,0.409866706 3.14322031,0.970422835 L3.08602191,2.13096585 L0.392089424,2.13096585 C0.175632734,2.13096585 -0.000448614901,2.29721443 -0.000448614901,2.50395947 C-0.000448614901,2.70963881 0.175632734,2.8758874 0.392089424,2.8758874 L1.16146398,2.8758874 L2.1585106,11.8000262 C2.22692437,12.4852688 2.82470373,13 3.54809526,13 L8.45257767,13 C9.1759692,13 9.77374855,12.4852688 9.84104079,11.804289 L10.8392089,2.8758874 L11.607462,2.8758874 C11.8250402,2.8758874 12,2.70963881 12,2.50395947 C12,2.29721443 11.8250402,2.13096585 11.607462,2.13096585 L11.607462,2.13096585 Z"
            mask="url(#delete-b)" />
          <path fill="currentColor"
            d="M6.00033646 10.3361861C6.21679315 10.3361861 6.3928745 10.1699375 6.3928745 9.9631925L6.3928745 4.63471218C6.3928745 4.42903284 6.21679315 4.26278425 6.00033646 4.26278425 5.78387977 4.26278425 5.60779842 4.42903284 5.60779842 4.63471218L5.60779842 9.9631925C5.60779842 10.1699375 5.78387977 10.3361861 6.00033646 10.3361861M7.64316423 10.3351204C7.65662268 10.3361861 7.67008112 10.3361861 7.68241803 10.3361861 7.88205167 10.3361861 8.05252533 10.1923172 8.07383454 10.0015576L8.63460316 4.67307724C8.65479083 4.4673979 8.49889716 4.28409818 8.28244047 4.26384995 8.05701148 4.24679881 7.8742009 4.39493057 7.8528917 4.59741282L7.29212307 9.92589314C7.27081386 10.1315725 7.42782908 10.3138065 7.64316423 10.3351204M4.37332237 10.3361861C4.38678081 10.3361861 4.39911772 10.3361861 4.41257617 10.3351204 4.62903286 10.3138065 4.78604808 10.1315725 4.76473887 9.92589314L4.20397024 4.59741282C4.18266103 4.39279917 3.98863509 4.24466742 3.77442147 4.26384995 3.55796478 4.28409818 3.40094957 4.4673979 3.42225878 4.67307724L3.9830274 10.0015576C4.00321507 10.1933828 4.17368874 10.3361861 4.37332237 10.3361861" />
        </g>
      </g>
    </svg>
  </defs>
  <defs>
    <svg id="toolbar-deselect-all" xmlns="http://www.w3.org/2000/svg" width="20" height="20" viewBox="0 0 20 20">
      <g fill="none" fill-rule="evenodd">
        <rect width="20" height="20" fill="#86868B" rx="5" />
        <path fill="currentColor" fill-rule="nonzero"
          d="M5.3411666,4.50630939 L5.42426407,4.57573593 L10,9.151 L14.5757359,4.57573593 L14.6588334,4.50630939 C14.8926752,4.34431413 15.2159844,4.36745631 15.4242641,4.57573593 C15.6585786,4.81005051 15.6585786,5.18994949 15.4242641,5.42426407 L15.4242641,5.42426407 L10.849,10 L15.4242641,14.5757359 C15.6585786,14.8100505 15.6585786,15.1899495 15.4242641,15.4242641 C15.2159844,15.6325437 14.8926752,15.6556859 14.6588334,15.4936906 L14.5757359,15.4242641 L10,10.849 L5.42426407,15.4242641 L5.3411666,15.4936906 C5.10732483,15.6556859 4.78401555,15.6325437 4.57573593,15.4242641 C4.34142136,15.1899495 4.34142136,14.8100505 4.57573593,14.5757359 L4.57573593,14.5757359 L9.151,10 L4.57573593,5.42426407 C4.34142136,5.18994949 4.34142136,4.81005051 4.57573593,4.57573593 C4.78401555,4.36745631 5.10732483,4.34431413 5.3411666,4.50630939 Z" />
      </g>
    </svg>
  </defs>
  <defs>
    <svg id="toolbar-duplicate" xmlns="http://www.w3.org/2000/svg" width="20" height="20" viewBox="0 0 20 20">
      <g fill="none" fill-rule="evenodd">
        <rect width="20" height="20" fill="#86868B" rx="5" />
        <g fill="currentColor" fill-rule="nonzero" transform="translate(3 3)">
          <path
            d="M12.5,0 C13.3284271,0 14,0.671572875 14,1.5 L14,9.5 C14,10.3284271 13.3284271,11 12.5,11 L12,11 L12,10 L12.5,10 C12.7564179,10 12.9677536,9.8069799 12.9966361,9.55831056 L13,9.5 L13,1.5 C13,1.24358208 12.8069799,1.03224642 12.5583106,1.00336387 L12.5,1 L4.5,1 C4.24358208,1 4.03224642,1.1930201 4.00336387,1.44168944 L4,1.5 L4,2 L3,2 L3,1.5 C3,0.671572875 3.67157288,0 4.5,0 L12.5,0 Z" />
          <path
            d="M9.5,3 C10.3284271,3 11,3.67157288 11,4.5 L11,12.5 C11,13.3284271 10.3284271,14 9.5,14 L1.5,14 C0.671572875,14 0,13.3284271 0,12.5 L0,4.5 C0,3.67157288 0.671572875,3 1.5,3 L9.5,3 Z M9.5,4 L1.5,4 C1.24358208,4 1.03224642,4.1930201 1.00336387,4.44168944 L1,4.5 L1,12.5 C1,12.7564179 1.1930201,12.9677536 1.44168944,12.9966361 L1.5,13 L9.5,13 C9.75641792,13 9.96775358,12.8069799 9.99663613,12.5583106 L10,12.5 L10,4.5 C10,4.24358208 9.8069799,4.03224642 9.55831056,4.00336387 L9.5,4 Z" />
        </g>
      </g>
    </svg>
  </defs>
  <defs>
    <svg id="toolbar-select-all" xmlns="http://www.w3.org/2000/svg" width="20" height="20" viewBox="0 0 20 20">
      <g fill="none" fill-rule="evenodd">
        <rect width="20" height="20" fill="#86868B" rx="5" />
        <path fill="currentColor" fill-rule="nonzero"
          d="M4.32161813,12.25 C4.142672,12.249162 3.97146854,12.1757603 3.84620671,12.0460882 L0.196921852,8.33642626 C-0.06564062,8.07000855 -0.0656406168,7.6380601 0.196921859,7.3716424 C0.459484334,7.10522469 0.885182216,7.10522469 1.1477447,7.37164239 L4.32161813,10.5989124 L12.85224,1.94982882 C13.0220881,1.77748678 13.2696472,1.71017955 13.5016641,1.77326112 C13.7336809,1.83634268 13.9149068,2.02022945 13.9770755,2.25565305 C14.0392442,2.49107665 13.972911,2.74227065 13.8030628,2.91461269 L4.81042142,12.0460882 C4.68191921,12.1791577 4.50520247,12.2528474 4.32161813,12.25 L4.32161813,12.25 Z"
          transform="translate(3 3)" />
      </g>
    </svg>
  </defs>
  <defs>
    <svg id="remove-filter-icon" xmlns="http://www.w3.org/2000/svg" viewBox="0 0 24 24">
      <path _ngcontent-afg-c872=""
        d="M13.6453 12.0012l8.0126 -8.0126c0.454724,-0.455906 0.454724,-1.19055 0,-1.64528 -0.454724,-0.455906 -1.18937,-0.455906 -1.64528,0l-8.0126 8.0126 -8.0126 -8.0126c-0.455906,-0.455906 -1.19055,-0.455906 -1.64528,0 -0.454724,0.454724 -0.454724,1.18937 0,1.64528l8.0126 8.0126 -8.0126 8.0126c-0.454724,0.455906 -0.454724,1.19055 0,1.64528 0.226772,0.226772 0.524409,0.341339 0.822047,0.341339 0.297638,0 0.596457,-0.114567 0.823228,-0.341339l8.0126 -8.0126 8.0126 8.0126c0.226772,0.226772 0.525591,0.341339 0.823228,0.341339 0.297638,0 0.595276,-0.114567 0.822047,-0.341339 0.454724,-0.454724 0.454724,-1.18937 0,-1.64528l-8.0126 -8.0126 0 0z">
      </path>
    </svg>
  </defs>
  <defs>
    <svg id="create-icon" xmlns="http://www.w3.org/2000/svg" viewBox="0 0 58 59">
      <g fill="none" fill-rule="evenodd">
        <g fill="#ffffff" fill-rule="nonzero" transform="translate(-654.000000, -208.000000)">
          <path
            d="M152.778 87.278h-22.556V64.722c0-1.78-1.442-3.222-3.222-3.222s-3.222 1.443-3.222 3.222v22.556h-22.556C99.442 87.278 98 88.72 98 90.5s1.443 3.222 3.222 3.222h22.556v22.556c0 1.78 1.442 3.222 3.222 3.222s3.222-1.443 3.222-3.222V93.722h22.556c1.78 0 3.222-1.442 3.222-3.222s-1.443-3.222-3.222-3.222z"
            transform="translate(556.000000, 147.000000)" />
        </g>
      </g>
    </svg>
  </defs>
  <defs>
    <svg id="filter-icon" width="24" height="24" viewBox="0 0 24 24" fill="none" xmlns="http://www.w3.org/2000/svg">
      <path
        d="M10.7419 16.3141C11.9397 16.3141 13.0622 15.9525 13.9964 15.3348L17.296 18.642C17.5145 18.8529 17.7933 18.9584 18.0946 18.9584C18.7199 18.9584 19.1794 18.4687 19.1794 17.851C19.1794 17.5647 19.0815 17.2859 18.8705 17.075L15.5935 13.7829C16.2715 12.8186 16.6708 11.6509 16.6708 10.3853C16.6708 7.12327 14.0039 4.45642 10.7419 4.45642C7.48745 4.45642 4.81306 7.12327 4.81306 10.3853C4.81306 13.6473 7.47992 16.3141 10.7419 16.3141ZM10.7419 14.7321C8.3538 14.7321 6.3951 12.7734 6.3951 10.3853C6.3951 7.99716 8.3538 6.03845 10.7419 6.03845C13.13 6.03845 15.0887 7.99716 15.0887 10.3853C15.0887 12.7734 13.13 14.7321 10.7419 14.7321Z"
        fill="currentColor" />
    </svg>
  </defs>
  <defs>
    <svg id="columns-switcher-icon" width="24" height="24" viewBox="0 0 24 24" fill="none"
      xmlns="http://www.w3.org/2000/svg">
      <path
        d="M8.229 18.312h1.643V4.897H8.23v13.415zm6.197 0h1.644V4.897h-1.644v13.415zM4.81 19.2h14.676c.93 0 1.632-.223 2.104-.669.471-.446.707-1.102.707-1.968V6.647c0-.867-.236-1.524-.707-1.972-.472-.448-1.174-.672-2.104-.672H4.81c-.925 0-1.625.223-2.1.668C2.237 5.117 2 5.777 2 6.647v9.916c0 .866.237 1.522.711 1.968.475.446 1.175.67 2.1.67zm.098-1.595c-.399 0-.704-.098-.914-.294-.21-.197-.316-.493-.316-.889V6.787c0-.397.105-.694.316-.892.21-.198.515-.297.914-.297h14.48c.395 0 .698.1.91.297.214.198.32.495.32.892v9.635c0 .396-.106.692-.32.889-.212.196-.515.294-.91.294H4.91z"
        fill="currentColor" />
    </svg>
  </defs>
  <defs>
    <svg id="sort-icon" width="24" height="24" viewBox="0 0 24 24" fill="none" xmlns="http://www.w3.org/2000/svg">
      <path
        d="M7.03543 4.79553L3.23856 8.68281C3.08789 8.83348 2.98995 9.06702 2.98995 9.27042C2.98995 9.74503 3.32143 10.069 3.7885 10.069C4.01451 10.069 4.19531 9.99363 4.34598 9.83543L5.89788 8.22327L6.8923 7.07818L6.83203 8.67528V18.0695C6.83203 18.5441 7.17103 18.8831 7.63811 18.8831C8.10519 18.8831 8.43666 18.5441 8.43666 18.0695V8.67528L8.38392 7.07818L9.37081 8.22327L10.9227 9.83543C11.0734 9.99363 11.2617 10.069 11.4877 10.069C11.9473 10.069 12.2787 9.74503 12.2787 9.27042C12.2787 9.06702 12.1808 8.83348 12.0301 8.68281L8.23326 4.79553C7.90178 4.44899 7.37444 4.44146 7.03543 4.79553ZM16.9646 18.6195L20.7614 14.7322C20.9121 14.574 21.01 14.3405 21.01 14.1371C21.01 13.67 20.6786 13.346 20.2115 13.346C19.9855 13.346 19.8047 13.4214 19.654 13.572L18.1021 15.1842L17.1077 16.3293L17.168 14.7322V5.33794C17.168 4.8784 16.829 4.53186 16.3619 4.53186C15.9023 4.53186 15.5633 4.8784 15.5633 5.33794V14.7322L15.6161 16.3293L14.6292 15.1842L13.0773 13.572C12.9266 13.4214 12.7383 13.346 12.5198 13.346C12.0527 13.346 11.7213 13.67 11.7213 14.1371C11.7213 14.3405 11.8192 14.574 11.9699 14.7322L15.7667 18.6195C16.0982 18.9735 16.6256 18.9811 16.9646 18.6195Z"
        fill="currentColor" />
    </svg>
  </defs>
  <defs>
    <svg id="name" xmlns="http://www.w3.org/2000/svg" xmlns:xlink="http://www.w3.org/1999/xlink" width="20" height="14"
      viewBox="0 0 20 14">
      <defs>
        <path id="j04jmtx1za" d="M0 13.684L19.901 13.684 19.901 0 0 0z" />
      </defs>
      <g fill="none" fill-rule="evenodd">
        <g>
          <g>
            <g>
              <g transform="translate(-1289 -142) translate(1132 83) translate(157 59)">
                <path stroke="currentColor" style="fill: transparent;"
                  d="M18.122 13.317H1.779c-.78 0-1.411-.633-1.411-1.412V1.78C.368.999.999.367 1.779.367h16.343c.78 0 1.412.633 1.412 1.412v10.126c0 .78-.632 1.412-1.412 1.412z" />
              </g>
              <path fill="currentColor" fill-rule="nonzero"
                d="M3 10s0-.87.425-1.249c.426-.378.735-.416 1.083-.567.348-.152.812-.076 1.006-.303.193-.227.155-.795.155-.795s-.233-.15-.233-.454c-.038-.264-.077-.491-.116-.53-.038-.037-.154-.113-.154-.226 0-.114-.116-.379-.116-.454 0-.076-.039-.227 0-.303.038-.038.116-.038.116-.038-.039-.113-.078-.416-.116-.605 0-.19-.039-.417 0-.53.038-.151.116-.378.193-.454.077.038.193 0 .193 0l.233-.227c.077-.076.348-.151.464-.151.116 0 .232-.114.464-.114.193 0 .425.076.58.151.154.076.31.114.464.152.116.075.193.189.27.265 0 .075.078.15.117.302.038.152.038.454 0 .72-.039.264-.116.567-.116.567l.077-.038s.077.113.077.265c-.038.151-.116.416-.116.454 0 .038 0 .189-.077.227-.039.038-.116.038-.155.113-.038.076-.077.53-.116.606-.038.075-.116.227-.232.34 0 .19 0 .72.194.833.193.113.464.151.85.189.387.076.658.227.735.265.078.038.426.189.58.454.155.265.271.378.271 1.097C9.536 10 3 10 3 10z"
                transform="translate(-1289 -142) translate(1132 83) translate(157 59)" />
              <path stroke="currentColor" stroke-linecap="round" d="M11.5 4.5L16.5 4.5M11.5 7.5L14.5 7.5"
                transform="translate(-1289 -142) translate(1132 83) translate(157 59)" />
            </g>
          </g>
        </g>
      </g>
    </svg>
  </defs>
  <defs>
    <svg id="ascending" width="24" height="24" viewBox="0 0 24 24" fill="none" xmlns="http://www.w3.org/2000/svg">
      <path
        d="M12 18.8605C12.4897 18.8605 12.8362 18.514 12.8362 18.0168V8.71293L12.7759 7.08569L14.7271 9.26287L16.4448 10.9654C16.5954 11.1161 16.8064 11.214 17.0399 11.214C17.4994 11.214 17.846 10.8675 17.846 10.3929C17.846 10.1744 17.7631 9.97102 17.5823 9.79021L12.6177 4.81812C12.452 4.64485 12.226 4.55444 12 4.55444C11.7665 4.55444 11.5405 4.64485 11.3747 4.81812L6.41769 9.79021C6.23688 9.97102 6.15401 10.1744 6.15401 10.3929C6.15401 10.8675 6.49302 11.214 6.95256 11.214C7.19364 11.214 7.40457 11.1161 7.55524 10.9654L9.26534 9.26287L11.224 7.07816L11.1562 8.71293V18.0168C11.1562 18.514 11.5028 18.8605 12 18.8605Z"
        fill="currentColor" />
    </svg>
  </defs>
  <defs>
    <svg id="descending" width="24" height="24" viewBox="0 0 24 24" fill="none" xmlns="http://www.w3.org/2000/svg">
      <path
        d="M12 4.55444C11.5028 4.55444 11.1563 4.90098 11.1563 5.39819V14.702L11.2241 16.3368L9.26535 14.1521L7.55525 12.4495C7.40458 12.2989 7.19364 12.2009 6.95257 12.2009C6.49303 12.2009 6.15402 12.5475 6.15402 13.0221C6.15402 13.2405 6.23689 13.444 6.41769 13.6248L11.3747 18.5969C11.5405 18.7701 11.7665 18.8605 12 18.8605C12.226 18.8605 12.452 18.7701 12.6177 18.5969L17.5823 13.6248C17.7631 13.444 17.846 13.2405 17.846 13.0221C17.846 12.5475 17.4994 12.2009 17.0399 12.2009C16.8064 12.2009 16.5954 12.2989 16.4448 12.4495L14.7271 14.1521L12.7759 16.3293L12.8362 14.702V5.39819C12.8362 4.90098 12.4897 4.55444 12 4.55444Z"
        fill="currentColor" />
    </svg>
  </defs>
  <defs>
    <svg id="date" xmlns="http://www.w3.org/2000/svg" width="16" height="16" viewBox="0 0 16 16">
      <g fill="none" fill-rule="evenodd">
        <g fill="currentColor">
          <g>
            <path
              d="M12 0c.552 0 1 .448 1 1v1h1c1.105 0 2 .895 2 2v10c0 1.105-.895 2-2 2H2c-1.105 0-2-.895-2-2V4c0-1.105.895-2 2-2h1V1c0-.552.448-1 1-1s1 .448 1 1v1h6V1c0-.552.448-1 1-1zM4 10c-.552 0-1 .448-1 1s.448 1 1 1 1-.448 1-1-.448-1-1-1zm4 0c-.552 0-1 .448-1 1s.448 1 1 1 1-.448 1-1-.448-1-1-1zM4 6c-.552 0-1 .448-1 1s.448 1 1 1 1-.448 1-1-.448-1-1-1zm4 0c-.552 0-1 .448-1 1s.448 1 1 1 1-.448 1-1-.448-1-1-1zm4 0c-.552 0-1 .448-1 1s.448 1 1 1 1-.448 1-1-.448-1-1-1z"
              transform="translate(-1291 -272) translate(1132 83) translate(159 189)" />
          </g>
        </g>
      </g>
    </svg>
  </defs>
  <defs>
    <svg id="name-contacts" xmlns="http://www.w3.org/2000/svg" width="18" height="18" viewBox="0 0 18 18">
      <path fill="currentColor" fill-rule="evenodd"
        d="M0 17.98s0-2.236 1.094-3.208 1.89-1.069 2.784-1.458c.895-.388 2.089-.194 2.586-.777.497-.583.398-2.041.398-2.041s-.597-.389-.597-1.166c-.1-.68-.199-1.264-.298-1.36-.1-.098-.398-.292-.398-.584 0-.291-.298-.972-.298-1.166 0-.195-.1-.583 0-.778.1-.097.298-.097.298-.097-.1-.291-.199-1.069-.298-1.555 0-.486-.1-1.069 0-1.36.1-.39.298-.972.497-1.167.199.098.497 0 .497 0L6.862.68C7.06.486 7.757.292 8.055.292 8.354.292 8.652 0 9.25 0c.497 0 1.094.194 1.491.389.398.194.796.291 1.194.388.298.195.497.486.696.68 0 .195.199.39.298.778.1.389.1 1.166 0 1.847-.1.68-.298 1.458-.298 1.458l.199-.098s.199.292.199.68c-.1.39-.299 1.07-.299 1.167 0 .097 0 .486-.199.583-.1.097-.298.097-.397.292-.1.194-.2 1.36-.299 1.555-.1.194-.298.583-.596.874 0 .486 0 1.847.497 2.138.497.292 1.193.389 2.188.486.994.195 1.69.583 1.89.68.198.098 1.093.486 1.49 1.167.399.68.697 1.069.697 2.915-.572.047-3 0-9 0H0z" />
    </svg>
  </defs>
  <defs>
    <svg id="list-layout-icon" width="24" height="24" viewBox="0 0 24 24" fill="none"
      xmlns="http://www.w3.org/2000/svg">
      <path
        d="M4.89592 6.41521H19.089C19.4732 6.41521 19.7821 6.09881 19.7821 5.72213C19.7821 5.33039 19.4732 5.02905 19.089 5.02905H4.89592C4.51171 5.02905 4.21037 5.33793 4.21037 5.72213C4.21037 6.09881 4.51171 6.41521 4.89592 6.41521ZM4.89592 10.3628H19.089C19.4732 10.3628 19.7821 10.0464 19.7821 9.66968C19.7821 9.27794 19.4732 8.9766 19.089 8.9766H4.89592C4.51171 8.9766 4.21037 9.28547 4.21037 9.66968C4.21037 10.0464 4.51171 10.3628 4.89592 10.3628ZM4.89592 14.3103H19.089C19.4732 14.3103 19.7821 13.9939 19.7821 13.6172C19.7821 13.233 19.4732 12.9241 19.089 12.9241H4.89592C4.51171 12.9241 4.21037 13.233 4.21037 13.6172C4.21037 13.9939 4.51171 14.3103 4.89592 14.3103ZM4.89592 18.2578H19.089C19.4732 18.2578 19.7821 17.9414 19.7821 17.5648C19.7821 17.1806 19.4732 16.8717 19.089 16.8717H4.89592C4.51171 16.8717 4.21037 17.1806 4.21037 17.5648C4.21037 17.9414 4.51171 18.2578 4.89592 18.2578Z"
        fill="currentColor" />
    </svg>
  </defs>
  <defs>
    <svg id="grid-layout-icon" width="24" height="24" viewBox="0 0 24 24" fill="none"
      xmlns="http://www.w3.org/2000/svg">
      <path
        d="M5.70202 8.63006H7.41212C8.27093 8.63006 8.77568 8.11778 8.77568 7.22883V5.58653C8.77568 4.70512 8.27093 4.1853 7.41212 4.1853H5.70202C4.85073 4.1853 4.33846 4.70512 4.33846 5.58653V7.22883C4.33846 8.11778 4.85073 8.63006 5.70202 8.63006ZM11.1412 8.63006H12.8513C13.7101 8.63006 14.2149 8.11778 14.2149 7.22883V5.58653C14.2149 4.70512 13.7101 4.1853 12.8513 4.1853H11.1412C10.2824 4.1853 9.77763 4.70512 9.77763 5.58653V7.22883C9.77763 8.11778 10.2824 8.63006 11.1412 8.63006ZM5.88282 7.4699C5.62668 7.4699 5.50615 7.3343 5.50615 7.0631V5.74474C5.50615 5.4886 5.62668 5.35299 5.88282 5.35299H7.23131C7.47992 5.35299 7.62305 5.4886 7.62305 5.74474V7.0631C7.62305 7.3343 7.47992 7.4699 7.23131 7.4699H5.88282ZM11.3145 7.4699C11.0659 7.4699 10.9378 7.3343 10.9378 7.0631V5.74474C10.9378 5.4886 11.0659 5.35299 11.3145 5.35299H12.6705C12.9191 5.35299 13.0547 5.4886 13.0547 5.74474V7.0631C13.0547 7.3343 12.9191 7.4699 12.6705 7.4699H11.3145ZM5.70202 13.911H7.41212C8.27093 13.911 8.77568 13.4063 8.77568 12.5249V10.8675C8.77568 9.98609 8.27093 9.48134 7.41212 9.48134H5.70202C4.85073 9.48134 4.33846 9.98609 4.33846 10.8675V12.5249C4.33846 13.4063 4.85073 13.911 5.70202 13.911ZM11.1412 13.911H12.8513C13.7101 13.911 14.2149 13.4063 14.2149 12.5249V10.8675C14.2149 9.98609 13.7101 9.48134 12.8513 9.48134H11.1412C10.2824 9.48134 9.77763 9.98609 9.77763 10.8675V12.5249C9.77763 13.4063 10.2824 13.911 11.1412 13.911ZM16.5879 13.911H18.298C19.1493 13.911 19.6616 13.4063 19.6616 12.5249V10.8675C19.6616 9.98609 19.1493 9.48134 18.298 9.48134H16.5879C15.7291 9.48134 15.2168 9.98609 15.2168 10.8675V12.5249C15.2168 13.4063 15.7291 13.911 16.5879 13.911ZM5.88282 12.7509C5.62668 12.7509 5.50615 12.6153 5.50615 12.3516V11.0332C5.50615 10.7696 5.62668 10.634 5.88282 10.634H7.23131C7.47992 10.634 7.62305 10.7696 7.62305 11.0332V12.3516C7.62305 12.6153 7.47992 12.7509 7.23131 12.7509H5.88282ZM11.3145 12.7509C11.0659 12.7509 10.9378 12.6153 10.9378 12.3516V11.0332C10.9378 10.7696 11.0659 10.634 11.3145 10.634H12.6705C12.9191 10.634 13.0547 10.7696 13.0547 11.0332V12.3516C13.0547 12.6153 12.9191 12.7509 12.6705 12.7509H11.3145ZM16.7612 12.7509C16.5126 12.7509 16.377 12.6153 16.377 12.3516V11.0332C16.377 10.7696 16.5126 10.634 16.7612 10.634H18.1097C18.3658 10.634 18.4939 10.7696 18.4939 11.0332V12.3516C18.4939 12.6153 18.3658 12.7509 18.1097 12.7509H16.7612ZM5.70202 19.1995H7.41212C8.27093 19.1995 8.77568 18.6873 8.77568 17.8058V16.156C8.77568 15.2746 8.27093 14.7623 7.41212 14.7623H5.70202C4.85073 14.7623 4.33846 15.2746 4.33846 16.156V17.8058C4.33846 18.6873 4.85073 19.1995 5.70202 19.1995ZM11.1412 19.1995H12.8513C13.7101 19.1995 14.2149 18.6873 14.2149 17.8058V16.156C14.2149 15.2746 13.7101 14.7623 12.8513 14.7623H11.1412C10.2824 14.7623 9.77763 15.2746 9.77763 16.156V17.8058C9.77763 18.6873 10.2824 19.1995 11.1412 19.1995ZM16.5879 19.1995H18.298C19.1493 19.1995 19.6616 18.6873 19.6616 17.8058V16.156C19.6616 15.2746 19.1493 14.7623 18.298 14.7623H16.5879C15.7291 14.7623 15.2168 15.2746 15.2168 16.156V17.8058C15.2168 18.6873 15.7291 19.1995 16.5879 19.1995ZM5.88282 18.0394C5.62668 18.0394 5.50615 17.9038 5.50615 17.6326V16.3217C5.50615 16.0581 5.62668 15.9225 5.88282 15.9225H7.23131C7.47992 15.9225 7.62305 16.0581 7.62305 16.3217V17.6326C7.62305 17.9038 7.47992 18.0394 7.23131 18.0394H5.88282ZM11.3145 18.0394C11.0659 18.0394 10.9378 17.9038 10.9378 17.6326V16.3217C10.9378 16.0581 11.0659 15.9225 11.3145 15.9225H12.6705C12.9191 15.9225 13.0547 16.0581 13.0547 16.3217V17.6326C13.0547 17.9038 12.9191 18.0394 12.6705 18.0394H11.3145ZM16.7612 18.0394C16.5126 18.0394 16.377 17.9038 16.377 17.6326V16.3217C16.377 16.0581 16.5126 15.9225 16.7612 15.9225H18.1097C18.3658 15.9225 18.4939 16.0581 18.4939 16.3217V17.6326C18.4939 17.9038 18.3658 18.0394 18.1097 18.0394H16.7612Z"
        fill="currentColor" />
      <path
        d="M16.5804 8.63031H18.2905C19.1493 8.63031 19.654 8.11804 19.654 7.23662V5.58679C19.654 4.70537 19.1493 4.19309 18.2905 4.19309H16.5804C15.7291 4.19309 15.2168 4.70537 15.2168 5.58679V7.23662C15.2168 8.11804 15.7291 8.63031 16.5804 8.63031ZM16.7612 7.47016C16.505 7.47016 16.3845 7.33455 16.3845 7.06335V5.75252C16.3845 5.48885 16.505 5.35325 16.7612 5.35325H18.1097C18.3583 5.35325 18.5014 5.48885 18.5014 5.75252V7.06335C18.5014 7.33455 18.3583 7.47016 18.1097 7.47016H16.7612Z"
        fill="currentColor" />
    </svg>
  </defs>
  <defs>
    <svg id="toggle-sidebar" xmlns="http://www.w3.org/2000/svg" width="16" height="16" viewBox="0 0 16 16">
      <g fill="none" fill-rule="evenodd" class="ng-tns-c698-3">
        <g fill="#636363" class="ng-tns-c698-3">
          <path
            d="M1038 76c4.418 0 8 3.582 8 8s-3.582 8-8 8-8-3.582-8-8 3.582-8 8-8zm.437 4.397l-.084.073-3 3c-.267.266-.29.683-.073.976l.073.084 3 3c.292.293.767.293 1.06 0 .266-.266.29-.683.073-.976l-.073-.084-2.47-2.47 2.47-2.47c.266-.266.29-.683.073-.976l-.073-.084c-.266-.267-.683-.29-.976-.073z"
            transform="translate(-1030 -76)" class="ng-tns-c698-3"></path>
        </g>
      </g>
    </svg>
  </defs>
</svg>
