<svg width="29" height="24" viewBox="0 0 29 24">
  <g fill="none" fill-rule="evenodd" opacity=".1">
    <g fill="#FFF" fill-rule="nonzero">
      <path
        d="M561.548 437c1.901 0 3.444 1.545 3.452 3.456v17.074c0 1.916-1.545 3.47-3.452 3.47h-22.096c-1.906 0-3.452-1.554-3.452-3.47v-17.06c0-1.917 1.546-3.47 3.452-3.47zm0 .694h-22.096c-1.52 0-2.754 1.234-2.762 2.762v16.727l8.804-8.78.008-.008c.633-.632 1.655-.628 2.284.008l4.834 4.858.007.008c.633.632 1.656.628 2.285-.008l1.81-1.811.01-.01c.63-.63 1.65-.624 2.275.01l5.303 5.33v-16.31c0-1.533-1.237-2.776-2.762-2.776zm-7.9 3.082c1.37 0 2.48 1.115 2.48 2.491 0 1.376-1.11 2.492-2.48 2.492-1.368 0-2.479-1.116-2.479-2.492s1.11-2.491 2.48-2.491z"
        transform="translate(-536 -437)"
      />
    </g>
  </g>
</svg>
