<svg width="16" height="16" viewBox="0 0 16 16" fill="none" xmlns="http://www.w3.org/2000/svg">
<path d="M15.4735 0.367385C14.8784 -0.146433 13.9784 -0.120898 13.4135 0.443989L8.0002 5.85731L2.58687 0.443989C1.99489 -0.147996 1.03604 -0.147996 0.444054 0.443989L0.36745 0.526845C-0.146368 1.12196 -0.120833 2.02192 0.444054 2.58681L5.8579 7.99961L0.443533 13.414C-0.147931 14.0054 -0.147931 14.9643 0.444054 15.5563L0.526911 15.6329C1.12202 16.1467 2.02198 16.1212 2.58687 15.5563L8.0002 10.1419L13.4146 15.5563C14.006 16.1477 14.9649 16.1477 15.5563 15.5563L15.6329 15.4734C16.1468 14.8783 16.1212 13.9783 15.5563 13.4135L10.1425 7.99961L15.5558 2.58629C16.1478 1.9943 16.1478 1.03545 15.5563 0.443989L15.4735 0.367385Z" fill="white"/>
</svg>
