<svg width="16" height="13" viewBox="0 0 16 13" fill="none" xmlns="http://www.w3.org/2000/svg">
  <path fill-rule="evenodd" clip-rule="evenodd" d="M15.8522 4.64595C15.8057 4.59976 15.7506 4.56318 15.69 4.53832C15.6294 4.51345 15.5645 4.50078 15.499 4.50104H11.499C11.2872 4.47585 11.0725 4.49583 10.869 4.55965C10.6655 4.62347 10.4779 4.72969 10.3184 4.87131C10.1589 5.01292 10.0313 5.18673 9.94388 5.38126C9.85647 5.57579 9.81128 5.78664 9.81128 5.99991C9.81128 6.21318 9.85647 6.42403 9.94388 6.61856C10.0313 6.8131 10.1589 6.9869 10.3184 7.12852C10.4779 7.27013 10.6655 7.37635 10.869 7.44017C11.0725 7.504 11.2872 7.52397 11.499 7.49878H15.499C15.5645 7.49904 15.6294 7.48637 15.69 7.46151C15.7506 7.43664 15.8057 7.40007 15.8522 7.35387C15.8994 7.30798 15.9368 7.25304 15.9622 7.19235C15.9876 7.13166 16.0005 7.06646 16.0001 7.00067V4.99916C16.0005 4.93336 15.9876 4.86816 15.9622 4.80747C15.9368 4.74678 15.8994 4.69185 15.8522 4.64595V4.64595ZM12.3201 5.43387C12.2903 5.39002 12.257 5.34863 12.2205 5.3101C12.257 5.34863 12.2903 5.39002 12.3201 5.43387V5.43387ZM12.3201 5.43387C12.3502 5.48254 12.3775 5.53294 12.4016 5.58482C12.3776 5.5323 12.3493 5.48181 12.3171 5.43387H12.3201ZM11.4869 6.49048C11.3877 6.49048 11.2907 6.46101 11.2082 6.40581C11.1257 6.35061 11.0615 6.27216 11.0237 6.18042C10.9858 6.08867 10.9761 5.98776 10.9957 5.89046C11.0152 5.79317 11.0633 5.70389 11.1336 5.63392C11.204 5.56396 11.2936 5.51647 11.391 5.49748C11.4884 5.47848 11.5893 5.48884 11.6808 5.52723C11.7723 5.56562 11.8504 5.63033 11.9051 5.71313C11.9598 5.79594 11.9887 5.89312 11.9881 5.99236C11.9893 6.05778 11.9776 6.12279 11.9536 6.18369C11.9297 6.24458 11.894 6.30016 11.8486 6.34726C11.8032 6.39436 11.7489 6.43205 11.6889 6.45817C11.629 6.4843 11.5644 6.49836 11.499 6.49953L11.4869 6.49048ZM11.8733 6.91312L11.8039 6.93425L11.8733 6.91312ZM10.9677 5.14406C11.0019 5.12316 11.0372 5.10401 11.0733 5.0867C11.039 5.10714 11.0058 5.12931 10.9737 5.15312L10.9677 5.14406ZM11.1277 5.06255C11.1751 5.04472 11.2235 5.0296 11.2726 5.01727C11.2253 5.03278 11.179 5.05092 11.1337 5.07161L11.1277 5.06255ZM11.8794 5.06255C11.8255 5.04092 11.77 5.02375 11.7133 5.01123C11.7689 5.02273 11.8235 5.03889 11.8764 5.05953L11.8794 5.06255ZM12.1813 5.25576L12.0756 5.19237L12.1813 5.25576ZM12.0394 5.14406C11.9974 5.1185 11.9541 5.09532 11.9096 5.07463C11.9548 5.11086 11.9971 5.13199 12.0394 5.15916V5.14406ZM11.5322 4.98708C11.5778 4.98912 11.6232 4.99417 11.6681 5.00218C11.6228 4.99921 11.5774 4.99921 11.5322 5.00218V4.98708ZM11.4809 4.98708C11.421 4.98697 11.3614 4.99304 11.3028 5.0052C11.3589 4.99866 11.4155 4.99765 11.4718 5.00218L11.4809 4.98708ZM10.9254 5.16821C10.8791 5.20186 10.8347 5.23815 10.7926 5.27689C10.8351 5.24331 10.8795 5.21207 10.9254 5.18331V5.16821ZM10.5179 5.7901C10.5057 5.84869 10.4996 5.90838 10.4998 5.96821C10.5019 5.91351 10.5079 5.85903 10.5179 5.80519V5.7901ZM10.7926 5.27689C10.7538 5.31905 10.7176 5.3634 10.6839 5.40972C10.7172 5.36789 10.7535 5.32854 10.7926 5.29199V5.27689ZM10.6537 5.45803C10.6317 5.49157 10.6125 5.52692 10.5964 5.56369C10.6132 5.53211 10.6324 5.50183 10.6537 5.47312V5.45803ZM10.5722 5.61803C10.5539 5.66528 10.5388 5.71369 10.5269 5.76293C10.5378 5.71902 10.5509 5.6757 10.5662 5.63312L10.5722 5.61803ZM10.5269 6.20368C10.538 6.26071 10.5552 6.31637 10.5782 6.36972V6.36972C10.5568 6.32097 10.5397 6.27047 10.5269 6.21878V6.20368ZM10.5028 6.03765C10.5048 6.08321 10.5099 6.12859 10.5179 6.1735C10.5099 6.12859 10.5048 6.08321 10.5028 6.03765V6.03765ZM10.7715 6.6867C10.7429 6.65649 10.7167 6.6242 10.693 6.5901C10.7169 6.62212 10.7432 6.65239 10.7715 6.68067V6.6867ZM10.6598 6.54482C10.6337 6.50423 10.6105 6.46186 10.5903 6.41802C10.6107 6.45979 10.6339 6.50014 10.6598 6.53878V6.54482ZM10.8077 6.72595C10.8458 6.76166 10.8861 6.79493 10.9284 6.82557C10.8859 6.79299 10.8456 6.75769 10.8077 6.71991V6.72595ZM10.9435 6.83765C10.9918 6.86836 11.0423 6.8956 11.0945 6.91916C11.0426 6.89498 10.9922 6.86776 10.9435 6.83765V6.83765ZM11.2665 6.97652L11.1458 6.93727L11.2665 6.97652ZM11.3209 6.97652C11.3797 6.98718 11.4392 6.99324 11.499 6.99463C11.5659 6.99389 11.6326 6.98682 11.6982 6.9735C11.6326 6.98682 11.5659 6.99389 11.499 6.99463C11.4394 6.99508 11.3799 6.99104 11.3209 6.98255V6.97652ZM12.0062 6.85274L12.0575 6.82557L12.0062 6.85274ZM12.4801 6.19161C12.4933 6.127 12.5004 6.06131 12.5013 5.99538C12.5 5.93462 12.494 5.87406 12.4831 5.81425C12.4938 5.87408 12.4999 5.93463 12.5013 5.99538C12.5007 6.06333 12.4937 6.13106 12.4801 6.19765V6.19161ZM12.3322 6.55085L12.3594 6.49652L12.3322 6.55085ZM12.4228 6.37878C12.4228 6.35463 12.4379 6.33048 12.4439 6.30935C12.4499 6.28821 12.4318 6.36067 12.4228 6.38482V6.37878ZM12.4228 5.63916C12.4228 5.6784 12.4499 5.71765 12.462 5.75991C12.459 5.73576 12.4469 5.68444 12.4318 5.6452L12.4228 5.63916Z" fill="#0371E2"></path>
  <path fill-rule="evenodd" clip-rule="evenodd" d="M9.73283 7.76754C9.38427 7.41758 9.14707 6.97229 9.0511 6.48777C8.95512 6.00325 9.00467 5.50117 9.1935 5.04475C9.38233 4.58834 9.70199 4.19801 10.1122 3.92292C10.5225 3.64783 11.0049 3.50028 11.4989 3.49887H15.0007V1.98944C14.9983 1.46045 14.7863 0.953994 14.4111 0.581075C14.036 0.208156 13.5282 -0.000802194 12.9992 2.31449e-06H1.99849C1.46846 2.31449e-06 0.960136 0.210557 0.585346 0.585346C0.210557 0.960136 2.28032e-06 1.46846 2.28032e-06 1.99849V9.99849C-0.000394547 10.2612 0.0510051 10.5214 0.151261 10.7642C0.251517 11.007 0.398661 11.2277 0.584278 11.4136C0.769894 11.5995 0.99034 11.747 1.233 11.8476C1.47567 11.9482 1.73579 12 1.99849 12H2.60226C2.27837 11.5656 2.02753 11.0812 1.85962 10.566L1.12 8.35924C1.07727 8.24413 1.05381 8.12275 1.05057 8C1.03791 7.8702 1.05441 7.73921 1.09887 7.6166C1.14196 7.49349 1.20976 7.38048 1.29811 7.28453C1.3883 7.19037 1.49735 7.11631 1.61811 7.06717C1.73866 7.01794 1.8684 6.99529 1.99849 7.00075C2.18967 6.99855 2.37689 7.05534 2.53463 7.16338C2.69237 7.27142 2.81297 7.42547 2.88 7.60453L3.00075 7.9849V4.41962C2.98582 4.28729 3.00025 4.15329 3.04302 4.02717C3.08368 3.90091 3.15055 3.78466 3.23925 3.68604C3.3288 3.58738 3.43773 3.50825 3.55925 3.45359C3.68087 3.3995 3.81255 3.37173 3.94566 3.37208C4.07874 3.372 4.21037 3.39976 4.33207 3.45359C4.45314 3.50751 4.56123 3.58678 4.64906 3.68604C4.73869 3.78449 4.80658 3.90073 4.8483 4.02717C4.88942 4.15365 4.90381 4.28729 4.89057 4.41962V6.13132C4.96961 6.11927 5.05002 6.11927 5.12906 6.13132C5.33409 6.12288 5.53727 6.17315 5.71472 6.27623C5.89095 6.38002 6.03512 6.53045 6.13132 6.71094C6.24814 6.65126 6.37749 6.62021 6.50868 6.62038C6.71261 6.61333 6.91444 6.66353 7.09132 6.76528C7.26736 6.86629 7.41246 7.01348 7.51094 7.19094C7.60313 7.1401 7.70769 7.11605 7.81283 7.12151C8.43169 7.12151 9.06264 7.71019 9.06264 8.83019V9.69962C9.08254 10.508 8.87321 11.3056 8.45886 12H13.0174C13.2803 12.0004 13.5408 11.9489 13.7838 11.8484C14.0268 11.748 14.2476 11.6006 14.4335 11.4147C14.6195 11.2287 14.7669 11.0079 14.8673 10.7649C14.9678 10.5219 15.0193 10.2614 15.0189 9.99849V8.48905H11.4989C10.838 8.49116 10.2032 8.23179 9.73283 7.76754Z" fill="#0371E2"></path>
  <path fill-rule="evenodd" clip-rule="evenodd" d="M8.64011 8.80007C8.64011 8.00913 8.25068 7.51101 7.80087 7.51101C7.77914 7.50496 7.75618 7.50496 7.73445 7.51101C7.71288 7.51718 7.69318 7.52859 7.67709 7.54422C7.66068 7.55904 7.64823 7.57772 7.64087 7.59856C7.63631 7.62046 7.63631 7.64307 7.64087 7.66498V8.04535C7.64087 8.21441 7.56238 8.2929 7.46275 8.2929C7.36313 8.2929 7.27256 8.21441 7.27256 8.04535V7.79479C7.28651 7.64306 7.25306 7.49074 7.17683 7.35882C7.10059 7.2269 6.98533 7.12186 6.8469 7.05818C6.75208 7.01535 6.64906 6.99372 6.54502 6.99479C6.34577 6.99479 6.24313 7.08535 6.24313 7.25441V7.7646C6.24313 7.93365 6.16464 8.01516 6.06502 8.01516C5.9654 8.01516 5.87483 7.99403 5.87483 7.77366V7.29969C5.88744 7.19828 5.87817 7.09534 5.84766 6.99781C5.81795 6.89993 5.76633 6.81011 5.69672 6.73517C5.62885 6.65978 5.54542 6.60004 5.45219 6.56007C5.35656 6.52071 5.25365 6.50218 5.1503 6.50573C4.96011 6.50573 4.84842 6.5963 4.84842 6.76837V7.76762C4.84842 7.93667 4.76992 8.01818 4.6703 8.01818C4.57068 8.01818 4.48011 7.99705 4.48011 7.77667V4.4197C4.4798 4.35011 4.46543 4.28132 4.43785 4.21743C4.41072 4.1534 4.37181 4.09503 4.32313 4.04536C4.27399 3.99603 4.21549 3.95703 4.15106 3.93064C4.0213 3.87826 3.87629 3.87826 3.74653 3.93064C3.67797 3.95719 3.61572 3.99775 3.56373 4.04973C3.51175 4.10171 3.47119 4.16397 3.44464 4.23253C3.41707 4.29641 3.40269 4.36521 3.40238 4.43479V9.3012C3.40238 9.41894 3.34502 9.47931 3.27257 9.47931C3.20011 9.47931 3.14276 9.47931 3.09445 9.33139L2.46351 7.82196C2.44104 7.71628 2.38616 7.62025 2.30653 7.54724C2.21852 7.48383 2.11311 7.44904 2.00464 7.44762C1.93707 7.44303 1.86928 7.45228 1.8054 7.47479C1.74105 7.49855 1.68243 7.53557 1.63332 7.58347C1.58222 7.62937 1.542 7.68609 1.51559 7.7495C1.48904 7.81148 1.47567 7.87831 1.47634 7.94573C1.46427 8.03589 1.46427 8.12726 1.47634 8.21743L2.22502 10.4182C2.39613 11.165 2.82025 11.8298 3.42548 12.2996C4.03071 12.7695 4.7798 13.0156 5.54577 12.9963C7.54728 12.9993 8.64011 11.7737 8.64011 9.66045V8.80007Z" fill="#0371E2"></path>
</svg>

