<svg xmlns="http://www.w3.org/2000/svg" width="16" height="16" viewBox="0 0 16 16">
  <g fill="none" fill-rule="evenodd">
    <path fill="white" fill-rule="nonzero" d="M8.59793814,12.5 L8.59793814,11.4276596 C9.37457045,11.3382979 9.96907216,11.1069149 10.3814433,10.7335106 C10.7938144,10.3601064 11,9.91170213 11,9.38829787 C11,8.96702128 10.8865979,8.62712766 10.6597938,8.36861702 C10.4329897,8.11010638 10.152921,7.91542553 9.81958763,7.78457447 C9.4862543,7.6537234 9.0790378,7.53723404 8.59793814,7.43510638 L8.59793814,7.43510638 L8.59793814,5.80744681 C9.13402062,5.86489362 9.65979381,6.03085106 10.1752577,6.30531915 L10.1752577,6.30531915 L10.6907216,5.12765957 C10.1408935,4.80212766 9.44329897,4.60744681 8.59793814,4.54361702 L8.59793814,4.54361702 L8.59793814,3.5 L7.56701031,3.5 L7.56701031,4.56276596 C6.78350515,4.64574468 6.1838488,4.87712766 5.76804124,5.25691489 C5.35223368,5.63670213 5.1443299,6.09148936 5.1443299,6.6212766 C5.1443299,7.04893617 5.25773196,7.39202128 5.48453608,7.65053191 C5.71134021,7.90904255 5.99312715,8.10531915 6.32989691,8.2393617 C6.66666667,8.37340426 7.0790378,8.49468085 7.56701031,8.60319149 L7.56701031,8.60319149 L7.56701031,10.2021277 C7.19587629,10.1702128 6.83505155,10.093617 6.48453608,9.97234043 C6.13402062,9.85106383 5.82817869,9.70106383 5.56701031,9.52234043 L5.56701031,9.52234043 L5,10.6904255 C5.28178694,10.8946809 5.65292096,11.0670213 6.11340206,11.2074468 C6.57388316,11.3478723 7.05841924,11.4308511 7.56701031,11.456383 L7.56701031,11.456383 L7.56701031,12.5 L8.59793814,12.5 Z M7.56701031,7.19574468 C7.31958763,7.12553191 7.13058419,7.0393617 7,6.93723404 C6.86941581,6.83510638 6.80412371,6.70425532 6.80412371,6.54468085 C6.80412371,6.3787234 6.86597938,6.23351064 6.98969072,6.10904255 C7.11340206,5.98457447 7.30584192,5.89361702 7.56701031,5.83617021 L7.56701031,5.83617021 L7.56701031,7.19574468 Z M8.59793814,10.1638298 L8.59793814,8.84255319 C8.83848797,8.91914894 9.02233677,9.00851064 9.14948454,9.1106383 C9.2766323,9.21276596 9.34020619,9.34361702 9.34020619,9.50319149 C9.34020619,9.66276596 9.27835052,9.8 9.15463918,9.91489362 C9.03092784,10.0297872 8.84536082,10.112766 8.59793814,10.1638298 L8.59793814,10.1638298 Z"/>
    <circle cx="8" cy="8" r="7.4" stroke="white" stroke-width="1.2"/>
  </g>
</svg>
