<svg xmlns="http://www.w3.org/2000/svg" width="16" height="16" viewBox="0 0 16 16">
  <g fill="none" fill-rule="evenodd">
    <rect width="16" height="16"/>
    <path fill="white" fill-rule="nonzero" d="M14.2484192,3 C15.2276108,3 15.9995543,3.76201137 15.9995543,4.70785259 L15.9995543,4.70785259 L15.9995543,9.24978474 L0,9.24978474 L0,4.70785259 C0,3.76201137 0.837460654,3 1.81665227,3 L1.81665227,3 Z M4.34463356,5.21026348 C3.99743725,5.21026348 3.68322237,5.34329258 3.45146104,5.55855003 C3.22014541,5.34329258 2.90548483,5.21026348 2.55873423,5.21026348 C1.84606814,5.21026348 1.26844759,5.76821078 1.26844759,6.4566041 C1.26844759,7.14585845 1.84651383,7.70337524 2.55873423,7.70337524 C2.90503914,7.70337524 3.21969971,7.56991562 3.45146104,7.35465817 C3.68322237,7.56991562 3.99743725,7.70337524 4.34463356,7.70337524 C5.05729965,7.70337524 5.63492019,7.14585845 5.63492019,6.4566041 C5.63492019,5.76821078 5.05729965,5.21026348 4.34463356,5.21026348 Z M0,11.2822456 C0,12.2280868 0.837014959,13 1.81665227,13 L14.2484192,13 C15.2276108,13 16,12.2280868 16,11.2822456 L16,11.1815051 L0,11.1815051 L0,11.2822456 Z"/>
  </g>
</svg>
