<svg xmlns="http://www.w3.org/2000/svg" width="16" height="16" viewBox="0 0 16 16">
  <g fill="none" fill-rule="evenodd">
    <rect width="16" height="16"/>
    <g fill="white" transform="translate(1 1)">
      <path fill-rule="nonzero" d="M8.38468115,1.04960727 C8.47816851,1.04960727 8.56878843,1.07821963 8.64546057,1.13072993 L8.684,1.16360727 L7.854,2.01560727 L3.2923525,2.01661738 C2.04767185,2.01661738 1.02883934,3.0106625 0.946097536,4.26862402 L0.940672144,4.43414264 L0.940672144,10.6154646 C0.940672144,11.8949952 1.90764296,12.9423541 3.13134203,13.0274126 L3.2923525,13.0329899 L9.68892308,13.0329899 C10.9336037,13.0329899 11.9524362,12.0389448 12.035178,10.7809833 L12.0406034,10.6154646 L12.04,6.42660727 L12.916862,5.52593208 C12.9431882,5.57217478 12.9618939,5.62266596 12.9721416,5.67532899 L12.9812756,5.7701638 L12.9812756,10.6154646 C12.9812756,12.4223843 11.6038704,13.8985862 9.86956525,13.994992 L9.68892308,14 L3.2923525,14 C1.53464696,14 0.0986516279,12.5840288 0.00487161191,10.8011646 L0,10.6154646 L0,4.43414264 C0,2.62722295 1.37740515,1.15102106 3.11171034,1.05461529 L3.2923525,1.04960727 L8.38468115,1.04960727 Z M9.467,1.96060727 L12.068,4.63160727 L11.396,5.30960727 L8.801,2.64460727 L9.467,1.96060727 Z"/>
      <path d="M1.25691462 10.9937459L3.63447496 10.3387644 3.63447496 10.3387644.973877871 7.60376968.328841238 10.0784226C.224010772 10.4805998.465057914 10.8916107.867235099 10.9964411.995111809 11.0297732 1.12951121 11.0288436 1.25691462 10.9937459zM10.4553357.559826325L10.486566.59193106C11.2126709 1.33836616 11.2126709 2.54848261 10.486566 3.29491771L4.36533018 9.58744586 1.70473309 6.85245118 7.82596893.559826325C8.55207376-.186608775 9.72923088-.186608775 10.4553357.559826325" transform="translate(2.969)"/>
    </g>
  </g>
</svg>
