<svg width="16" height="16" viewBox="0 0 16 16" fill="none" xmlns="http://www.w3.org/2000/svg">
  <path fill-rule="evenodd" clip-rule="evenodd" d="M2 0C0.895416 0 0 0.895386 0 2V10C0 11.1046 0.895416 12 2 12H13C14.1046 12 15 11.1046 15 10V8.5H11.5C10.1193 8.5 9 7.38074 9 6C9 4.61926 10.1193 3.5 11.5 3.5H15V2C15 0.895386 14.1046 0 13 0H2ZM7.25194 3.56807C7.49047 3.70719 7.57103 4.01339 7.4319 4.25191L5.09856 8.25189C5.0185 8.38912 4.878 8.48014 4.72003 8.49711C4.56207 8.51406 4.40545 8.45494 4.2981 8.33783L2.63143 6.51965C2.44483 6.31608 2.45858 5.9998 2.66214 5.81319C2.8657 5.62659 3.18199 5.64034 3.36858 5.84391L4.5767 7.16187L6.56812 3.74801C6.70726 3.50948 7.01341 3.42891 7.25194 3.56807Z" fill="#0371E2"></path>
  <path fill-rule="evenodd" clip-rule="evenodd" d="M11.5 4.5C10.6716 4.5 10 5.17163 10 6C10 6.82845 10.6716 7.5 11.5 7.5H16V4.5H11.5ZM11.5 6.5C11.7761 6.5 12 6.27614 12 6C12 5.72386 11.7761 5.5 11.5 5.5C11.2239 5.5 11 5.72386 11 6C11 6.27614 11.2239 6.5 11.5 6.5Z" fill="#0371E2"></path>
</svg>
