<svg width="16" height="16" viewBox="0 0 16 16" fill="none" xmlns="http://www.w3.org/2000/svg">
<path fill-rule="evenodd" clip-rule="evenodd" d="M9.62717 2C9.32929 2 9.08754 2.24175 9.08754 2.53963V4.92207C6.51784 5.12821 4.52555 5.83944 3.10957 7.05683C1.82094 8.16415 0.800507 9.54235 0.0488084 11.1925C-0.0413091 11.3895 -0.00461436 11.6215 0.142164 11.7813C0.343984 12.0009 0.685566 12.0149 0.904654 11.8136L1.10162 11.6388C1.63261 11.185 2.20677 10.8261 2.82464 10.5622C4.26545 9.94815 6.35272 9.67618 9.08754 9.74579V12.6436C9.08754 12.7731 9.13395 12.8988 9.21921 12.997C9.41402 13.2221 9.75506 13.2469 9.98008 13.0515L15.8134 7.99956C15.8334 7.98283 15.8512 7.96448 15.8685 7.94506C16.0633 7.71949 16.039 7.37845 15.8134 7.18419L9.98008 2.13167C9.88241 2.04695 9.75668 2 9.62717 2V2Z" fill="#0371E2"/>
</svg>
