<svg xmlns="http://www.w3.org/2000/svg" width="16" height="16" viewBox="0 0 16 16">
  <g fill="none" fill-rule="evenodd">
    <rect width="16" height="16"/>
    <path fill="white" d="M13.9121069,7.34316784 L11.2839414,9.97029689 C9.83330839,11.4217895 7.48013027,11.4217895 6.02949728,9.97029689 C5.80084913,9.74266656 5.62224158,9.48593381 5.46518885,9.2210364 L6.68633908,7.99985939 C6.74432666,7.94132795 6.81603095,7.90787104 6.88450565,7.86831787 C6.96883803,8.15691089 7.11627453,8.42993665 7.34307202,8.65673237 C8.0675539,9.38149891 9.24646536,9.38062802 9.97036664,8.65673237 L12.5975524,6.02945817 C13.3224334,5.30469163 13.3224334,4.12618849 12.5975524,3.40185739 C11.8736148,2.67741743 10.6951388,2.67741743 9.97036664,3.40185739 L9.03596101,4.33712665 C8.27802196,4.04185677 7.46100671,3.96249641 6.66594545,4.07901498 L8.65664675,2.08829287 C10.1081506,0.63723571 12.460603,0.63723571 13.9121069,2.08829287 C15.362631,3.53935003 15.362631,5.8920744 13.9121069,7.34316784 Z M6.96430208,11.6631727 L6.02949728,12.598442 C5.30516055,13.3223376 4.1262128,13.3223376 3.40187607,12.598442 C2.67743048,11.8736754 2.67743048,10.6952086 3.40187607,9.97029689 L6.02949728,7.34316784 C6.75437833,6.61825615 7.93231002,6.61825615 8.6567919,7.34316784 C8.88300879,7.56952812 9.03044529,7.84251759 9.11575744,8.1305663 C9.18481273,8.09072282 9.25553726,8.05799167 9.31352484,8.00000454 L10.5346751,6.77929925 C10.3786021,6.51349467 10.1990148,6.2576691 9.97036664,6.02956703 C8.51973365,4.57850987 6.16655554,4.57850987 4.71548709,6.02956703 L2.08830133,8.65673237 C0.637232889,10.108225 0.637232889,12.4605139 2.08830133,13.9120065 C3.53926091,15.3626645 5.89211244,15.3626645 7.34321717,13.9120065 L9.33449907,11.9207401 C8.53885721,12.0378392 7.72180567,11.9580072 6.96430208,11.6631727 Z"/>
  </g>
</svg>
