<svg width="16" height="16" viewBox="0 0 16 16" fill="none" xmlns="http://www.w3.org/2000/svg">
<g clip-path="url(#clip0_54_263)">
<path d="M0.886371 5.36178C1.12519 5.22726 1.41911 5.22963 1.65556 5.3683L6.53259 8.22578C7.07719 8.54518 7.40963 9.12652 7.40726 9.75348V15.2439C7.40607 15.5141 7.2603 15.7636 7.02445 15.8987C6.788 16.0332 6.49704 16.0338 6.26059 15.8993L1.39126 13.117C0.840149 12.8018 0.499408 12.2187 0.500001 11.5876V6.02015C0.500001 5.74756 0.648149 5.4963 0.886371 5.36178V5.36178ZM14.3441 5.37778C14.5812 5.23911 14.8745 5.23615 15.1133 5.37126C15.3521 5.50578 15.4997 5.75704 15.4997 6.02904V11.5876C15.4997 12.2181 15.1596 12.8 14.6084 13.1153L9.73733 15.8993C9.5003 16.0332 9.20993 16.032 8.97467 15.8969C8.73941 15.7624 8.59363 15.5135 8.59245 15.2439V9.76237C8.59245 9.13956 8.9243 8.56237 9.46533 8.24474L14.3441 5.37778ZM7.11689 0.236444C7.668 -0.0788148 8.34711 -0.0788148 8.89822 0.236444L13.7806 3.03763C14.0147 3.17393 14.1581 3.42281 14.1581 3.69126C14.1581 3.9603 14.0147 4.20859 13.7806 4.34489L8.91719 7.20237C8.356 7.53244 7.65852 7.53244 7.09793 7.20237L2.2363 4.33956C2.00222 4.20326 1.85882 3.95437 1.85882 3.68593C1.85882 3.41689 2.00222 3.16859 2.2363 3.0323L7.11689 0.236444Z" fill="white"/>
</g>
<defs>
<clipPath id="clip0_54_263">
<rect width="16" height="16" fill="white"/>
</clipPath>
</defs>
</svg>
