<svg xmlns="http://www.w3.org/2000/svg" width="16" height="16" viewBox="0 0 16 16">
  <path fill="#0371E2" d="M499.075718,490.916853 L496.923994,490.916853 L496.810921,492.178965 C496.783105,492.488807 496.590338,492.760415 496.307412,492.884009 L496.245432,492.908189 C496.039961,492.979105 495.838614,493.062658 495.642453,493.158492 C495.537034,493.210007 495.42453,493.237541 495.311845,493.242409 C495.267495,493.243879 495.224211,493.24238 495.181289,493.237614 C495.038195,493.221953 494.899262,493.169707 494.77886,493.083956 L494.725743,493.043144 L494.080986,492.505 L493.752368,492.230665 L492.230869,493.752164 L492.638986,494.241 L493.043264,494.725503 C493.082197,494.7722 493.115645,494.822306 493.14342,494.874853 C493.258394,495.091285 493.276678,495.349509 493.185616,495.581049 L493.158784,495.642006 C493.096079,495.770353 493.038691,495.900739 492.986693,496.032957 C492.959531,496.103019 492.933774,496.173183 492.909404,496.244055 C492.807763,496.539969 492.549828,496.751011 492.245879,496.802104 L492.180083,496.810576 L490.917064,496.924549 L490.917064,499.075585 L492.179797,499.189223 C492.489933,499.217098 492.761867,499.410269 492.885183,499.693714 L492.909293,499.755807 C492.980354,499.962626 493.063685,500.16426 493.158641,500.35931 C493.295473,500.640217 493.262318,500.97116 493.083682,501.222264 L493.043185,501.274803 L492.23115,502.24769 L493.752649,503.769189 L494.725022,502.95664 C494.9639,502.757478 495.292082,502.701771 495.579474,502.81451 L495.640386,502.841255 C495.835222,502.936153 496.036748,503.019439 496.243959,503.090692 C496.539873,503.192333 496.750915,503.450268 496.802007,503.754217 L496.81048,503.820013 L496.924753,505.083274 L499.074986,505.082 L499.189523,503.820361 C499.193708,503.774198 499.201549,503.728888 499.212801,503.684794 C499.276484,503.432412 499.452319,503.219874 499.693522,503.114944 L499.755602,503.09084 C499.85377,503.057083 499.950654,503.020633 500.046129,502.981545 C500.15087,502.938334 500.254973,502.891516 500.357954,502.841236 C500.639068,502.703864 500.970685,502.737022 501.221737,502.915819 L501.274253,502.956352 L502.247933,503.76885 L503.768945,502.247838 L503.313986,501.703 L502.956899,501.275288 C502.892698,501.198423 502.843388,501.112271 502.809794,501.021188 C502.738475,500.828853 502.737449,500.614452 502.814359,500.419085 L502.841216,500.35813 C502.924602,500.187451 502.998674,500.012992 503.063084,499.8357 C503.072071,499.809388 503.081387,499.782948 503.0905,499.756426 C503.141321,499.608467 503.231195,499.481748 503.346346,499.385635 C503.393703,499.346388 503.443981,499.312774 503.497447,499.284683 C503.551628,499.256328 503.609124,499.233604 503.668954,499.217201 C503.697098,499.209147 503.72576,499.202782 503.754847,499.197877 L503.820633,499.189362 L505.082763,499.075623 L505.081986,496.924 L503.820011,496.810585 C503.769877,496.806079 503.720743,496.797251 503.673073,496.784418 C503.626816,496.771931 503.582171,496.755742 503.539316,496.736111 C503.352108,496.650756 503.1989,496.499444 503.11474,496.306173 L503.090611,496.244097 C503.034521,496.08085 502.970838,495.920989 502.899726,495.76486 L502.841372,495.642046 L502.841372,495.642046 C502.704,495.360932 502.737158,495.029315 502.915955,494.778263 L502.956488,494.725747 L503.768945,493.751683 L502.247536,492.230671 L501.463986,492.884 L501.274773,493.043554 C501.03566,493.243274 500.706872,493.2989 500.419311,493.185687 L500.358369,493.158834 C500.161398,493.062665 499.959983,492.979034 499.755334,492.908401 C499.45977,492.806559 499.249253,492.549092 499.198013,492.245166 L499.189498,492.179367 L499.075718,490.916853 Z M498,495 C499.656854,495 501,496.343146 501,498 C501,499.656854 499.656854,501 498,501 C496.343146,501 495,499.656854 495,498 C495,496.343146 496.343146,495 498,495 Z M498,496 C496.895431,496 496,496.895431 496,498 C496,499.104569 496.895431,500 498,500 C499.104569,500 500,499.104569 500,498 C500,496.895431 499.104569,496 498,496 Z M495.636986,492.158 L495.589001,492.177134 C495.619945,492.16429 495.650986,492.151698 495.682119,492.139357 L495.641986,492.156 L495.721007,492.124494 L495.721007,492.124494 C495.736438,492.118096 495.751561,492.112286 495.766706,492.106536 L495.901121,492.057612 L496.016212,490.77853 C496.05413,490.358651 496.390963,490.032392 496.805372,490.002272 L496.868088,490 L499.132048,490 C499.553505,490 499.908735,490.306234 499.976027,490.716247 L499.983933,490.778502 L500.098988,492.057612 L500.233559,492.106586 C500.338004,492.14626 500.441575,492.188814 500.544202,492.23422 C500.554687,492.238673 500.564584,492.243064 500.574468,492.24748 L500.717694,492.314024 L501.703523,491.490991 C501.864472,491.356543 502.061391,491.290831 502.257359,491.292174 C502.299973,491.292707 502.339317,491.29583 502.378314,491.301647 L502.426963,491.310272 C502.521657,491.330044 502.613521,491.365957 502.698146,491.41781 C502.73731,491.44183 502.774866,491.469194 502.810439,491.499944 L502.856375,491.542667 L504.457429,493.143721 C504.517035,493.203327 504.566101,493.269717 504.604521,493.340493 L504.653515,493.447905 C504.667392,493.484965 504.678623,493.522817 504.687196,493.561167 C504.709227,493.660994 504.713575,493.761578 504.700564,493.8605 C504.692897,493.91835 504.679479,493.975145 504.660181,494.030437 C504.640402,494.087284 504.614206,494.142832 504.581684,494.195737 C504.572252,494.210999 504.562141,494.226336 504.551482,494.241418 L504.547725,494.246786 L504.509307,494.296381 L503.686315,495.283205 L503.746645,495.412419 L503.798986,495.534 L503.82303,495.58929 C503.847487,495.648205 503.871017,495.707429 503.893616,495.766947 L503.941986,495.9 L505.221332,496.016188 C505.266708,496.020258 505.31099,496.027824 505.353925,496.038605 C505.438132,496.059818 505.516836,496.093179 505.588483,496.136721 C505.619793,496.155721 505.649555,496.176541 505.677833,496.199108 C505.690406,496.209195 505.702736,496.21962 505.714755,496.230378 L505.792061,496.308989 C505.868046,496.396961 505.926266,496.500448 505.961517,496.613751 C505.979907,496.673104 505.992063,496.735002 505.997212,496.79877 L506.000014,496.86803 L506.000014,499.132162 C506.000014,499.283821 505.960373,499.426884 505.890519,499.551042 C505.862156,499.601238 505.828918,499.648392 505.791354,499.691763 C505.758824,499.729587 505.722529,499.764787 505.683319,499.796609 C505.643114,499.828716 505.603534,499.855461 505.561742,499.878823 C505.479051,499.925281 505.387699,499.958267 505.29041,499.975029 L505.221706,499.984043 L503.941986,500.099 L503.893347,500.233621 L503.886986,500.247 L503.822222,500.412554 C503.797862,500.471484 503.772614,500.530015 503.746486,500.588131 L503.686034,500.717771 L504.150986,501.274 L504.509009,501.703387 C504.738999,501.978711 504.767864,502.359413 504.60403,502.660344 C504.588152,502.689439 504.57071,502.717499 504.551512,502.744669 C504.536801,502.765464 504.52107,502.78573 504.504314,502.8054 L504.476986,502.834 L504.457237,502.856471 L502.856375,504.457333 C502.754946,504.558763 502.633857,504.629684 502.504934,504.66956 C502.471963,504.679715 502.438596,504.687859 502.404918,504.693978 L502.30746,504.705996 L502.30746,504.705996 L502.209059,504.706772 C502.185425,504.705634 502.161426,504.703449 502.137526,504.70025 C502.119591,504.697821 502.102315,504.694956 502.085118,504.691556 C502.07174,504.688943 502.057611,504.685792 502.04355,504.682276 C502.019611,504.676249 501.99647,504.669393 501.973582,504.661532 C501.908444,504.638794 501.849827,504.610638 501.794236,504.575405 L501.758556,504.551367 L501.758556,504.551367 L501.703653,504.509118 L500.817986,503.77 L500.717694,503.686111 L500.587908,503.746638 C500.496603,503.787673 500.404158,503.826578 500.310625,503.863329 C500.284913,503.873627 500.259126,503.883617 500.233291,503.893426 L500.098988,503.941909 L499.983921,505.221633 C499.957875,505.509861 499.790836,505.753987 499.554587,505.88843 C499.510558,505.913471 499.464548,505.934537 499.41663,505.951447 C499.396443,505.958437 499.380981,505.9633 499.365343,505.967729 C499.345852,505.973254 499.326272,505.978055 499.30645,505.982169 C499.302414,505.982998 499.298147,505.98385 499.29387,505.984671 C499.263358,505.990526 499.232525,505.994728 499.201243,505.997242 L499.13199,506.000014 L496.867952,506 C496.822256,506 496.777339,505.9964 496.733482,505.989458 C496.594078,505.967373 496.465856,505.911779 496.357275,505.830877 C496.183051,505.700179 496.060681,505.50743 496.02398,505.283826 L496.016074,505.221583 L495.900327,503.941512 L495.7529,503.888154 L495.697986,503.866 L495.587125,503.822133 L495.411591,503.746423 L495.411591,503.746423 L495.282567,503.68583 L494.296514,504.50902 C493.972966,504.779301 493.50388,504.771764 493.189572,504.500067 L493.143625,504.457333 L491.542667,502.856375 C491.244638,502.558347 491.210104,502.090706 491.452444,501.753222 L491.490873,501.703614 L492.314227,500.71749 L492.253366,500.587817 L492.248986,500.577 L492.231986,500.538 L492.226986,500.526 L492.215502,500.501177 L492.214986,500.5 L492.209923,500.488272 C492.208068,500.483969 492.206218,500.479664 492.204374,500.475358 L492.253366,500.587817 C492.213173,500.498393 492.17504,500.407917 492.138998,500.316461 C492.129788,500.293506 492.120788,500.270387 492.111931,500.247223 L492.056986,500.099 L490.778746,499.983874 C490.717376,499.97827 490.658381,499.966448 490.601978,499.948997 C490.552827,499.933866 490.506057,499.914577 490.461623,499.891528 C490.409431,499.864177 490.361945,499.832952 490.318083,499.797505 C490.279148,499.766196 490.242993,499.731329 490.210124,499.693576 C490.17079,499.647893 490.137923,499.601236 490.109899,499.551543 C490.085381,499.508133 490.064786,499.462824 490.048217,499.415675 C490.040289,499.393051 490.033214,499.369855 490.027123,499.346277 C490.014977,499.299185 490.006784,499.25081 490.002824,499.201314 L490.000082,499.132086 L489.999986,496.867815 C490.000075,496.677254 490.062722,496.500232 490.169225,496.357268 C490.273725,496.217792 490.4172,496.11219 490.584529,496.056459 C490.591261,496.054317 490.597393,496.052359 490.603556,496.050467 C490.639642,496.039254 490.677427,496.030335 490.716136,496.023982 L490.778371,496.016079 L492.058104,495.900232 L492.106812,495.766204 L492.155986,495.64 L492.177958,495.587162 L492.253543,495.411894 L492.253543,495.411894 L492.31412,495.283016 L491.848986,494.725 L491.49069,494.296378 C491.422245,494.214334 491.37164,494.122951 491.338654,494.027118 C491.294065,493.897481 491.281685,493.759539 491.301084,493.625552 C491.304515,493.602035 491.308138,493.582454 491.312444,493.562999 C491.333487,493.468267 491.370719,493.376435 491.423988,493.292054 C491.446406,493.256447 491.471752,493.222172 491.499942,493.189562 L491.542667,493.143625 L493.143625,491.542667 C493.249237,491.437055 493.376163,491.364519 493.511052,491.325663 C493.541253,491.31688 493.571964,491.309844 493.602926,491.304516 L493.69655,491.293731 L493.69655,491.293731 L493.79078,491.293107 C493.814562,491.294355 493.83856,491.296539 493.862458,491.299736 C493.880257,491.30204 493.897536,491.304901 493.914736,491.308297 C493.91945,491.309312 493.924834,491.310424 493.93021,491.311589 C493.96443,491.318942 493.99768,491.328295 494.030404,491.339706 C494.086208,491.359243 494.140746,491.384827 494.192757,491.416503 C494.209065,491.426298 494.225405,491.437011 494.241458,491.448345 L494.246814,491.4523 L494.296417,491.490723 L495.283409,492.314024 L495.425386,492.247507 L495.429986,492.245 L495.441986,492.24 L495.455986,492.234 L495.429986,492.245 L495.441986,492.24 L495.455986,492.234 L495.464986,492.23 L495.572258,492.184174 L495.572258,492.184174 L495.481986,492.223 L495.636986,492.158 Z" transform="translate(-490 -490)"/>
</svg>
