<svg xmlns="http://www.w3.org/2000/svg" width="16" height="16" viewBox="0 0 16 16">
  <g fill="none" fill-rule="evenodd">
    <rect width="16" height="16"/>
    <path fill="#0371E2" d="M12.8093576,2.98857812 C12.904342,2.98857812 12.9993263,3.03324513 13.059681,3.12257915 L13.059681,3.12257915 L15.9471394,7.42027887 C16.0836794,7.62328044 15.9398837,7.89794921 15.6968161,7.89794921 L15.6968161,7.89794921 L14.4412416,7.89794921 L14.4412416,7.89794921 L14.4455291,7.99995 C14.4455291,11.5839776 11.5607091,14.5 8.01429672,14.5 C6.66307831,14.5 5.4091529,14.0743301 4.37257016,13.3519912 L4.37257016,13.3519912 L6.03941367,10.8713054 C6.60041502,11.2663085 7.28047662,11.4999769 8.01429672,11.4999769 C9.92387803,11.4999769 11.477268,9.92996485 11.477268,7.99995 C11.477268,7.9656164 11.4736401,7.93194948 11.4726507,7.89794921 L11.4726507,7.89794921 L10.1959686,7.89794921 C9.95916736,7.89794921 9.81405237,7.63561386 9.93805972,7.43194563 L9.93805972,7.43194563 L12.5514487,3.13457924 C12.6101543,3.03791183 12.709756,2.98857812 12.8093576,2.98857812 Z M8.01436268,1.5 C9.25707467,1.5 10.4143667,1.8640028 11.39884,2.4833409 L11.39884,2.4833409 L9.8467692,5.03536053 C9.31446105,4.69835794 8.68782815,4.50002308 8.01436268,4.50002308 C6.10478138,4.50002308 4.5513914,6.07003515 4.5513914,8.00005 L4.5513914,8.00005 L5.79938029,8.00005 C6.04343731,8.00005 6.18822249,8.27638546 6.05102287,8.48038703 L6.05102287,8.48038703 L3.1668625,12.7727534 C3.10650786,12.8630874 3.01086389,12.9077544 2.91521992,12.9077544 C2.81495866,12.9077544 2.7150272,12.8584207 2.65566198,12.7610866 L2.65566198,12.7610866 L0.0455710507,8.46872027 C-0.0790959155,8.2637187 0.0666786852,8.00005 0.305128994,8.00005 L0.305128994,8.00005 L1.5831303,8.00005 C1.5831303,4.41602243 4.46828009,1.5 8.01436268,1.5 Z"/>
  </g>
</svg>
