<svg xmlns="http://www.w3.org/2000/svg" width="16" height="16" viewBox="0 0 16 16">
  <g fill="none" fill-rule="evenodd">
    <circle cx="8" cy="8" r="7.4" stroke="#0371E2" stroke-width="1.2"/>
    <path fill="#0371E2" fill-rule="nonzero" d="M8.37905111,3.35382203 L8.45961941,3.42235904 L11.3108842,6.27362379 C11.5647249,6.52746458 11.5647249,6.93902182 11.3108842,7.19286261 C11.0824274,7.42131932 10.7262204,7.44416499 10.4722136,7.26139962 L10.3916453,7.19286261 L8.64973525,5.45097845 L8.65,12 C8.65,12.3589851 8.35898509,12.65 8,12.65 C7.67364992,12.65 7.40347354,12.4094918 7.35704767,12.0960522 L7.35,12 L7.34973525,5.45097845 L5.60835466,7.19286261 C5.37989795,7.42131932 5.02369092,7.44416499 4.76968414,7.26139962 L4.68911584,7.19286261 C4.46065913,6.9644059 4.43781346,6.60819887 4.62057883,6.35419209 L4.68911584,6.27362379 L7.54038059,3.42235904 C7.7688373,3.19390233 8.12504434,3.17105666 8.37905111,3.35382203 Z"/>
  </g>
</svg>
