<svg xmlns="http://www.w3.org/2000/svg" width="16" height="16" viewBox="0 0 16 16">
  <g fill="none" fill-rule="evenodd">
    <polyline stroke="white" stroke-linecap="round" stroke-linejoin="round" stroke-width="1.1" points="5 8.857 7.02 11 11 6"/>
    <path fill="white" fill-rule="nonzero" d="M9.85882954,1.76703535 L8,0 L6.1403559,1.76703535 L3.6303972,1.29622484 L3.01162484,3.79804611 L0.648112422,4.77335715 L1.46640152,7.21570724 L0,9.32743197 L1.99586655,10.9353866 L1.89183105,13.5125627 L4.43140569,13.7745224 L5.72296259,16 L8,14.8328205 L10.2770374,16 L11.5677797,13.7745224 L14.1081689,13.5125627 L14.0033189,10.9353866 L16,9.32743197 L14.5327839,7.21570724 L15.3518876,4.77335715 L12.9875606,3.79804611 L12.3696028,1.29622484 L9.85882954,1.76703535 Z M8,1.58187432 L9.49924044,3.00692795 L11.5230819,2.62698221 L12.0217231,4.64469926 L13.9276102,5.43049149 L13.2673371,7.40026106 L14.4501642,9.10230778 L12.8406087,10.398742 L12.9248366,12.4766554 L10.8770213,12.6881454 L9.83590815,14.4822027 L8,13.5416021 L6.16409185,14.4822027 L5.12297865,12.6881454 L3.07516342,12.4766554 L3.15939126,10.398742 L1.54983581,9.10230778 L2.73266294,7.40026106 L2.07238975,5.43049149 L3.97827691,4.64469926 L4.47691806,2.62698221 L6.50075956,3.00692795 L8,1.58187432 Z"/>
  </g>
</svg>
