<svg xmlns="http://www.w3.org/2000/svg" width="12" height="12" viewBox="0 0 12 12">
    <g fill="none" fill-rule="evenodd">
        <g fill="#FFF">
            <g>
                <g>
                    <g>
                        <g>
                            <path d="M3.321 0c.237 0 .429.192.429.429L3.749 1.5H8.25V.429c0-.237.192-.429.429-.429h.642c.237 0 .429.192.429.429V1.5h1.393c.473 0 .857.384.857.857v8.786c0 .473-.384.857-.857.857H.857C.384 12 0 11.616 0 11.143V2.357C0 1.884.384 1.5.857 1.5H2.25L2.25.429c0-.237.192-.429.429-.429h.642zM3 7.5c-.414 0-.75.336-.75.75S2.586 9 3 9s.75-.336.75-.75S3.414 7.5 3 7.5zm3 0c-.414 0-.75.336-.75.75S5.586 9 6 9s.75-.336.75-.75S6.414 7.5 6 7.5zm-3-3c-.414 0-.75.336-.75.75S2.586 6 3 6s.75-.336.75-.75S3.414 4.5 3 4.5zm3 0c-.414 0-.75.336-.75.75S5.586 6 6 6s.75-.336.75-.75S6.414 4.5 6 4.5zm3 0c-.414 0-.75.336-.75.75S8.586 6 9 6s.75-.336.75-.75S9.414 4.5 9 4.5z" transform="translate(-651.000000, -263.000000) translate(477.000000, 247.000000) translate(101.000000, 0.000000) translate(69.000000, 12.000000) translate(4.000000, 4.000000)"/>
                        </g>
                    </g>
                </g>
            </g>
        </g>
    </g>
</svg>
