<svg xmlns="http://www.w3.org/2000/svg" width="14" height="14" viewBox="0 0 14 14">
    <g fill="none" fill-rule="evenodd">
        <g fill="#FFF">
            <g>
                <g>
                    <path d="M8.19 11.745c.492-.586.894-1.407 1.165-2.385.984-.272 1.81-.677 2.397-1.172-.569 1.668-1.892 2.99-3.562 3.557M.976 8.188c.587.495 1.412.9 2.397 1.172.27.978.672 1.799 1.164 2.385-1.67-.567-2.993-1.89-3.561-3.557M4.565.965c-.505.588-.917 1.421-1.192 2.417-.991.274-1.82.682-2.408 1.182.565-1.692 1.906-3.033 3.6-3.599m7.197 3.599c-.588-.5-1.417-.908-2.407-1.182-.276-.996-.688-1.829-1.192-2.417 1.693.566 3.034 1.907 3.6 3.599m-2.23-.418c1.507.491 2.517 1.314 2.517 2.225s-1.01 1.734-2.517 2.226c.133-.69.206-1.44.206-2.226s-.073-1.536-.206-2.225M6.363.689c.912 0 1.736 1.01 2.228 2.515-.69-.133-1.44-.206-2.227-.206-.788 0-1.537.073-2.227.206C4.628 1.698 5.452.689 6.364.689m-3.17 7.908C1.688 8.105.678 7.282.678 6.37c0-.91 1.01-1.734 2.516-2.225-.133.69-.205 1.439-.205 2.225 0 .787.072 1.536.205 2.226m3.17.473c-.864 0-1.69-.097-2.432-.269-.172-.741-.27-1.567-.27-2.43 0-.863.098-1.689.27-2.43.742-.172 1.568-.269 2.432-.269.863 0 1.69.097 2.431.27.172.74.27 1.566.27 2.43 0 .862-.098 1.688-.27 2.43-.742.171-1.568.268-2.431.268m.154 2.974l-.154.002-.155-.002c-.85-.107-1.609-1.085-2.072-2.505.69.133 1.44.205 2.227.205.787 0 1.536-.072 2.227-.205-.464 1.42-1.223 2.398-2.073 2.505m6.21-5.684C12.727 2.853 9.872 0 6.363 0 2.854 0 0 2.853 0 6.36c0 3.437 2.744 6.247 6.158 6.356.068.007.136.011.206.011.069 0 .138-.004.206-.011 3.414-.11 6.157-2.919 6.157-6.356" transform="translate(-525 -130) translate(522 127) translate(3.636 3.636)"/>
                </g>
            </g>
        </g>
    </g>
</svg>
