<svg xmlns="http://www.w3.org/2000/svg" width="12" height="12" viewBox="0 0 12 12">
    <g fill="none" fill-rule="evenodd">
        <g fill="#FFF" fill-rule="nonzero">
            <g>
                <g>
                    <g>
                        <g>
                            <path d="M6 0C2.7 0 0 2.7 0 6s2.7 6 6 6 6-2.7 6-6-2.7-6-6-6zm2.933 8.644L5.821 6.8c-.23-.132-.366-.367-.366-.624V2.733c.007-.302.267-.551.58-.551.312 0 .571.25.571.55V6l2.93 1.697c.274.161.366.506.198.77-.168.258-.526.338-.801.177z" transform="translate(-857.000000, -263.000000) translate(477.000000, 247.000000) translate(307.000000, 0.000000) translate(69.000000, 12.000000) translate(4.000000, 4.000000)"/>
                        </g>
                    </g>
                </g>
            </g>
        </g>
    </g>
</svg>
