<svg xmlns="http://www.w3.org/2000/svg" width="20" height="20" viewBox="0 0 20 20">
    <g fill="none" fill-rule="evenodd">
        <g>
            <g transform="translate(-522 -167) translate(522 167)">
                <rect width="20" height="20" fill="#86868B" rx="5"/>
                <g fill="#FFF" fill-rule="nonzero">
                    <path d="M10.296 2.78h-.62C9.43 1.174 8.066 0 6.395 0 4.723 0 3.36 1.236 3.113 2.78h-.62c-.68 0-1.3.556-1.3 1.298v7.352c0 .68.557 1.297 1.3 1.297h7.74c.682 0 1.301-.556 1.301-1.297V4.016c0-.68-.557-1.236-1.238-1.236zM6.395.68c1.238 0 2.29.926 2.538 2.1H3.856c.247-1.235 1.3-2.1 2.539-2.1z" transform="translate(3.636 3.636)"/>
                </g>
            </g>
        </g>
    </g>
</svg>
