<svg xmlns="http://www.w3.org/2000/svg" width="28" height="28" viewBox="0 0 28 28">
  <g fill="none" fill-rule="evenodd">
    <g fill="#636363" fill-rule="nonzero">
      <g>
        <path d="M299 280c3.866 0 7 3.134 7 7v14c0 3.866-3.134 7-7 7h-14c-3.866 0-7-3.134-7-7v-14c0-3.866 3.134-7 7-7h14zm-10.754 11.748l-3.002 3.003c-1.659 1.658-1.659 4.347 0 6.006 1.658 1.657 4.347 1.657 6.005 0l2.276-2.276c-.91.134-1.843.042-2.709-.295l-1.068 1.07c-.828.827-2.175.827-3.003 0-.828-.829-.828-2.176 0-3.004l3.003-3.003c.828-.828 2.175-.828 3.003 0 .258.259.427.571.524.9.08-.045.16-.083.226-.149l1.396-1.395c-.179-.304-.384-.596-.645-.857-1.658-1.658-4.347-1.658-6.006 0zm10.51-4.504c-1.658-1.659-4.347-1.659-6.006 0l-2.275 2.275c.909-.133 1.843-.043 2.709.295l1.068-1.069c.828-.828 2.175-.828 3.002 0 .829.828.829 2.175 0 3.003l-3.002 3.003c-.827.827-2.175.828-3.003 0-.259-.26-.427-.572-.524-.901-.078.045-.16.083-.226.15l-1.396 1.395c.18.303.384.597.645.857 1.658 1.659 4.347 1.659 6.005 0l3.004-3.003c1.657-1.658 1.657-4.347 0-6.005z" transform="translate(-1300 -570) translate(1022 290)"/>
      </g>
    </g>
  </g>
</svg>
