<svg xmlns="http://www.w3.org/2000/svg" width="28" height="28" viewBox="0 0 28 28">
  <g fill="none" fill-rule="evenodd">
    <g fill="#636363" fill-rule="nonzero">
      <g>
        <path d="M299 168c3.866 0 7 3.134 7 7v14c0 3.866-3.134 7-7 7h-14c-3.866 0-7-3.134-7-7v-14c0-3.866 3.134-7 7-7h14zm-.143 6.5h-13.714l-.153.005c-1.112.079-1.99 1.006-1.99 2.138v10.534l.005.153c.079 1.112 1.006 1.99 2.138 1.99h13.714l.153-.005c1.112-.079 1.99-1.006 1.99-2.138v-10.543l-.006-.152c-.082-1.11-1.008-1.982-2.137-1.982zm-.457.931c.884 0 1.6.702 1.6 1.567v9.206l-3.072-3.008-.095-.083c-.364-.273-.889-.248-1.229.083l-1.048 1.022-.096.082c-.366.275-.892.249-1.232-.082l-2.8-2.742-.096-.083c-.366-.274-.892-.248-1.232.083l-5.1 4.955v-9.44l.007-.143c.077-.795.762-1.417 1.593-1.417zm-4.446 2.469c-.85 0-1.538.689-1.538 1.539s.689 1.538 1.538 1.538c.85 0 1.54-.689 1.54-1.538 0-.85-.69-1.539-1.54-1.539z" transform="translate(-1300 -458) translate(1022 290)"/>
      </g>
    </g>
  </g>
</svg>
