 <svg  width="24" height="24" viewBox="0 0 29 16" fill="none" xmlns="http://www.w3.org/2000/svg">
        <path fill-rule="evenodd" clip-rule="evenodd"
          d="M9.00156 14.983L5.44552 11.5531L1.00283 15.8382C0.779591 16.0535 0.419096 16.0543 0.195069 15.8382C-0.0289588 15.6221 -0.02817 15.2744 0.195069 15.0591L4.63776 10.774L1.08171 7.34415C0.286573 6.57722 1.00441 5.13009 2.20895 5.0639L5.91802 4.86456L10.2921 0.645672C11.1842 -0.214844 12.6302 -0.215604 13.5231 0.645672L15.9464 2.98299C16.1578 3.18689 16.3164 3.41743 16.4268 3.66394C16.7897 4.47044 16.6287 5.44128 15.9464 6.09941L11.5724 10.3183L11.3657 13.8958C11.2971 15.0576 9.7967 15.75 9.00156 14.983ZM6.41735 5.94115L2.27363 6.16408C2.15137 6.17245 2.0078 6.25614 1.92813 6.4182C1.89105 6.49048 1.88711 6.54298 1.88947 6.56505L9.80932 14.2039C9.8322 14.2062 9.88978 14.2055 9.96472 14.1697L10.0515 14.1225C10.1611 14.0411 10.2195 13.93 10.225 13.8334L10.4562 9.83668L15.1386 5.3203C15.4786 4.99238 15.563 4.50924 15.3792 4.10219C15.324 3.97893 15.2459 3.86557 15.1386 3.76209L12.7154 1.42478C12.2705 0.995661 11.5463 0.994139 11.0998 1.42478L6.41735 5.94115Z"
          fill="white" />
        <path
          d="M22.0291 3.31745C21.5559 3.31745 21.1724 3.68743 21.1724 4.14382C21.1724 4.60021 21.5559 4.97018 22.0291 4.97018H27.1697C27.6429 4.97018 28.0264 4.60021 28.0264 4.14382C28.0264 3.68743 27.6429 3.31745 27.1697 3.31745H22.0291Z"
          fill="white" />
        <path
          d="M18.8886 9.65264C18.8886 9.19626 19.2722 8.82628 19.7453 8.82628L27.1706 8.82628C27.6438 8.82628 28.0273 9.19626 28.0273 9.65264C28.0273 10.109 27.6438 10.479 27.1706 10.479L19.7453 10.479C19.2722 10.479 18.8886 10.109 18.8886 9.65264Z"
          fill="white" />
        <path
          d="M16.3177 14.3361C15.8445 14.3361 15.4609 14.706 15.4609 15.1624C15.4609 15.6188 15.8445 15.9888 16.3177 15.9888H27.17C27.6431 15.9888 28.0267 15.6188 28.0267 15.1624C28.0267 14.706 27.6431 14.3361 27.17 14.3361L16.3177 14.3361Z"
          fill="white" />
</svg>