<svg xmlns="http://www.w3.org/2000/svg" width="20" height="20" viewBox="0 0 20 20">
  <g fill="none" fill-rule="evenodd">
      <g>
          <g>
              <g transform="translate(-172.000000, -436.000000) translate(156.000000, 384.000000) translate(16.000000, 52.000000)">
                  <rect width="20" height="20" fill="#86868B" rx="5"/>
                  <path fill="#FFF" fill-rule="nonzero" d="M17.5 10.046C17.5 5.878 14.142 2.5 10 2.5c-4.142 0-7.5 3.378-7.5 7.546 0 3.766 2.743 6.888 6.328 7.454v-5.273H6.924v-2.181h1.904V8.383c0-1.89 1.12-2.935 2.833-2.935.82 0 1.679.147 1.679.147v1.857h-.946c-.932 0-1.222.582-1.222 1.178v1.416h2.08l-.333 2.181h-1.747V17.5c3.585-.566 6.328-3.688 6.328-7.454z"/>
              </g>
          </g>
      </g>
  </g>
</svg>
