<svg width="24" height="24" viewBox="0 0 24 24" fill="none" xmlns="http://www.w3.org/2000/svg">
   <path d="M12.7313 19.46C12.4155 19.46 12.1524 19.3547 11.9418 19.1441C11.7313 18.9336 11.626 18.6704 11.626 18.3545V15.3539H11.4182C10.3989 15.3539 9.50278 15.462 8.72993 15.6781C7.95708 15.8942 7.27979 16.2461 6.69807 16.7337C6.11634 17.2213 5.60664 17.8752 5.16896 18.6953C5.00829 18.9945 4.82962 19.1912 4.63293 19.2854C4.43624 19.3796 4.22988 19.4267 4.01385 19.4267C3.72571 19.4267 3.48471 19.2951 3.29086 19.0319C3.09695 18.7687 3 18.3822 3 17.8724C3 16.3652 3.16758 15.0104 3.50275 13.8079C3.83792 12.6055 4.35038 11.5818 5.04012 10.7367C5.72986 9.89169 6.60383 9.24614 7.66205 8.80007C8.7202 8.35401 9.97226 8.13097 11.4182 8.13097H11.626V5.14703C11.626 4.83118 11.7313 4.56105 11.9418 4.33663C12.1524 4.11221 12.4211 4 12.7479 4C12.9695 4 13.169 4.04849 13.3462 4.14546C13.5235 4.24243 13.7341 4.40451 13.9778 4.6317L20.5512 10.7658C20.7175 10.9154 20.8338 11.0747 20.9003 11.2437C20.9668 11.4127 21 11.5748 21 11.73C21 11.8796 20.9668 12.0389 20.9003 12.2079C20.8338 12.3769 20.7175 12.539 20.5512 12.6941L13.9778 18.8782C13.7562 19.0832 13.5498 19.2314 13.3587 19.3228C13.1676 19.4143 12.9584 19.46 12.7313 19.46ZM13.2548 17.3488C13.3047 17.3488 13.3518 17.3238 13.3961 17.274L19.0969 11.8879C19.1302 11.8547 19.1537 11.8256 19.1676 11.8006C19.1814 11.7757 19.1884 11.7521 19.1884 11.73C19.1884 11.6857 19.1579 11.6358 19.0969 11.5804L13.3961 6.12782C13.3739 6.1112 13.3518 6.09596 13.3296 6.08211C13.3075 6.06826 13.2853 6.06133 13.2631 6.06133C13.18 6.06133 13.1385 6.10289 13.1385 6.18601V9.3445C13.1385 9.52182 13.0443 9.61048 12.8559 9.61048H11.7922C10.7119 9.61048 9.76729 9.74346 8.95842 10.0094C8.14954 10.2754 7.46255 10.6467 6.89745 11.1232C6.33235 11.5998 5.86976 12.1566 5.50968 12.7939C5.14955 13.4311 4.88085 14.1196 4.70356 14.8594C4.52627 15.5991 4.42379 16.3624 4.3961 17.1493C4.3961 17.2047 4.41826 17.2324 4.46256 17.2324C4.47919 17.2324 4.49303 17.2255 4.50409 17.2117C4.51521 17.1978 4.5263 17.1797 4.53737 17.1576C4.86425 16.465 5.35316 15.872 6.0041 15.3788C6.65509 14.8857 7.46258 14.5089 8.42656 14.2484C9.39054 13.988 10.5124 13.8578 11.7922 13.8578H12.8559C13.0443 13.8578 13.1385 13.9464 13.1385 14.1238V17.2157C13.1385 17.3044 13.1773 17.3488 13.2548 17.3488Z" fill="#0371E2"/>
</svg>
