<svg
  width="44px"
  height="44px"
  viewBox="0 0 44 44"
  version="1.1"
  xmlns="http://www.w3.org/2000/svg"
  xmlns:xlink="http://www.w3.org/1999/xlink">
    <defs>
        <filter x="-1.3%" y="-33.8%" width="102.5%" height="167.5%" filterUnits="objectBoundingBox" id="filter-1">
            <feOffset dx="0" dy="-3" in="SourceAlpha" result="shadowOffsetOuter1"></feOffset>
            <feGaussianBlur stdDeviation="2" in="shadowOffsetOuter1" result="shadowBlurOuter1"></feGaussianBlur>
            <feColorMatrix values="0 0 0 0 0   0 0 0 0 0   0 0 0 0 0  0 0 0 0.189985795 0" type="matrix" in="shadowBlurOuter1" result="shadowMatrixOuter1"></feColorMatrix>
            <feMerge>
                <feMergeNode in="shadowMatrixOuter1"></feMergeNode>
                <feMergeNode in="SourceGraphic"></feMergeNode>
            </feMerge>
        </filter>
        <linearGradient x1="50%" y1="0.767591783%" x2="50%" y2="100%" id="lg2">
            <stop stop-color="#1C92DD" offset="0%"></stop>
            <stop stop-color="#00568A" offset="100%"></stop>
        </linearGradient>
    </defs>
    <g class="message-icon" id="Message" stroke="none" stroke-width="1" fill="none" fill-rule="evenodd">
        <g id="2.0-Message-Mail-2" transform="translate(-153.000000, -656.000000)">
            <g id="Group-2" filter="url(#filter-1)" transform="translate(145.000000, 658.000000)">
                <g id="mail" transform="translate(18.000000, 8.000000)">
                    <circle id="header-profile" fill="url(#lg2)" cx="12" cy="12" r="22"></circle>
                    <path style="transform: scale(2) translate(-6px, -6px)" d="M16.8,7 L7.2,7 C6.54,7 6,7.5625 6,8.25 L6,15.75 C6,16.4375 6.54,17 7.2,17 L16.8,17 C17.46,17 18,16.4375 18,15.75 L18,8.25 C18,7.5625 17.46,7 16.8,7 Z M16.56,9.65625 L12.636,12.2125 C12.246,12.46875 11.754,12.46875 11.364,12.2125 L7.44,9.65625 C7.29,9.55625 7.2,9.3875 7.2,9.20625 C7.2,8.7875 7.638,8.5375 7.98,8.75625 L12,11.375 L16.02,8.75625 C16.362,8.5375 16.8,8.7875 16.8,9.20625 C16.8,9.3875 16.71,9.55625 16.56,9.65625 Z" id="icon/content/mail_24px-copy" fill="#FFFFFF" fill-rule="nonzero"></path>
                </g>
            </g>
        </g>
    </g>
</svg>
