<svg xmlns="http://www.w3.org/2000/svg" width="133" height="14" viewBox="0 0 133 14">
  <path fill="#5F6061" d="M21.579959 2.95975414C20.4236608 2.95975414 19.3987493 3.59190544 18.7622854 4.56731915L18.7622854 3.53138534C18.7622854 3.20497592 18.4958731 2.94036879 18.1672369 2.94036879 17.8386007 2.94036879 17.5721884 3.20497592 17.5721884 3.53138534L17.5721884 12.9876501C17.5721884 13.3140595 17.8386007 13.5786667 18.1672369 13.5786667 18.4958731 13.5786667 18.7622854 13.3140595 18.7622854 12.9876501L18.7622854 9.21932861C19.3987493 10.1923783 20.4236608 10.8245296 21.579959 10.8245296 23.5107723 10.8245296 25.0759878 9.06377305 25.0759878 6.89214184 25.0759878 4.72051064 23.5107723 2.95975414 21.579959 2.95975414zM35.425254 2.94103504L35.5159729 2.94364884C35.7288145 2.96602126 35.9131095 3.10054741 35.9984222 3.29581268L35.9984222 3.29581268 38.3991353 8.60839169 40.7993731 3.29581268C40.9340282 2.99812578 41.2856508 2.86523514 41.5850351 2.9988832 41.7288331 3.06311482 41.8410778 3.18156067 41.8970595 3.32814592 41.9530413 3.47473116 41.9481707 3.63743902 41.8835201 3.78045076L41.8835201 3.78045076 37.6586263 13.1356206C37.5937083 13.27893 37.4741187 13.3906403 37.3262633 13.4460854 37.178408 13.5015306 37.0144485 13.4961499 36.8705878 13.4311316L36.8705878 13.4311316 36.7883102 13.3863522C36.6841784 13.3185268 36.6033885 13.219336 36.5585994 13.102129 36.502613 12.9556202 36.5074708 12.7929804 36.5721028 12.6500369L36.5721028 12.6500369 37.7475064 10.0495399 34.9147505 3.78045076C34.8245615 3.58736625 34.8457401 3.36094852 34.9701919 3.18773224 35.0946437 3.01451596 35.3031314 2.92127641 35.5159729 2.94364884zM33.1245562 2.94036879L33.2182309 2.94768061C33.3413899 2.9671327 33.4561621 3.02481044 33.5454586 3.11367751 33.6570793 3.22476135 33.7197311 3.37545948 33.7196049 3.53255571L33.7196049 3.53255571 33.7196049 10.1906295C33.7197311 10.3477257 33.6570793 10.4984238 33.5454586 10.6095077 33.433838 10.7205915 33.2824116 10.782942 33.1245562 10.7828162L33.1245562 10.7828162 33.0280363 10.7750655C32.7453017 10.7291707 32.5295077 10.4849796 32.5295077 10.1906295L32.5295077 10.1906295 32.5295077 9.22797074C31.8930439 10.202947 30.8681324 10.8363499 29.7118342 10.8363499 27.781021 10.8363499 26.2158055 9.07210719 26.2158055 6.8961763 26.2158055 4.7202454 27.781021 2.95600271 29.7118342 2.95600271 30.8681324 2.95600271 31.8930439 3.59130063 32.5295077 4.5667506L32.5295077 4.5667506 32.5295077 3.53255571C32.5295077 3.20550001 32.79592 2.94036879 33.1245562 2.94036879L33.1245562 2.94036879zM67.7348975 2.94036879C67.8695898 2.94024325 67.9988085 2.99371097 68.0940948 3.0889966 68.1893811 3.18428222 68.2429198 3.31357063 68.2429198 3.44838771L68.2429198 3.44838771 68.2429198 4.78335849C68.8195937 3.69197131 69.8327975 2.96122053 71.05385 2.96122053L71.05385 2.96122053 71.1419135 2.96122053C71.4324844 2.96864398 71.6645929 3.20579433 71.6660334 3.49672531 71.6660334 3.77490346 71.4255159 4.00569181 71.1414401 4.01185248 71.0334913 4.01564367 70.9264894 4.01185248 70.8156998 4.01185248 69.3995818 4.01185248 68.2429198 5.22124028 68.2429198 6.85761021L68.2429198 6.85761021 68.2429198 10.2810496C68.2429198 10.4158667 68.1893811 10.5451551 68.0940948 10.6404408 67.9988085 10.7357264 67.8695898 10.7891941 67.7348975 10.7890686L67.7348975 10.7890686 67.5668193 10.7890686C67.2865079 10.7890686 67.0592705 10.5616206 67.0592705 10.2810496L67.0592705 10.2810496 67.0592705 3.44838771C67.0592705 3.16781673 67.2865079 2.94036879 67.5668193 2.94036879L67.5668193 2.94036879zM46.2349399 2.89308747C48.3208682 2.89308747 50.0116731 4.64988407 50.0088202 6.82099266L50.0088202 6.82099266 50.0088202 6.87455931 50.0094985 6.89826137 50.0094985 6.89826137 50.0088202 6.92196343C49.9828399 7.1643525 49.7778493 7.34828598 49.5333408 7.34860049L49.5333408 7.34860049 43.7928775 7.34860049C44.0239605 8.66975325 45.1004459 9.66523972 46.394701 9.66523972 47.1245619 9.66523972 48.0455656 9.42016043 48.5248489 8.90677384 48.6779601 8.73975547 48.9344904 8.71906337 49.1125415 8.85936972L49.1125415 8.85936972 49.1505798 8.88970836C49.2600846 8.9775234 49.3278414 9.10693202 49.3375011 9.24670897 49.3471608 9.38648593 49.2978461 9.52393625 49.2014561 9.6258943 48.5172412 10.358762 47.2966855 10.7417872 46.2349399 10.7417872 44.1490116 10.7417872 42.4582067 8.98451659 42.4582067 6.81720033 42.4582067 4.64988407 44.1490116 2.89308747 46.2349399 2.89308747zM61.8602773 2.89308747C63.946392 2.89308747 65.637348 4.64988407 65.6344985 6.81957054L65.6344985 6.81957054 65.6344985 6.92196343C65.6085122 7.1643525 65.4035033 7.34828598 65.1589729 7.34860049L65.1589729 7.34860049 59.4179967 7.34860049C59.6491004 8.66975325 60.725682 9.66523972 62.0200527 9.66523972 62.7499789 9.66523972 63.6710648 9.42016043 64.1503909 8.90677384 64.3035158 8.73975547 64.560069 8.71906337 64.738136 8.85936972L64.738136 8.85936972 64.7761778 8.88970836C64.8856924 8.9775234 64.9534552 9.10693202 64.9631158 9.24670897 64.9727764 9.38648593 64.9234572 9.52393625 64.8270586 9.6258943 64.1427826 10.358762 62.9221178 10.7417872 61.8602773 10.7417872 59.7741627 10.7417872 58.0832067 8.98451659 58.0832067 6.81720033 58.0832067 4.64988407 59.7741627 2.89308747 61.8602773 2.89308747zM51.0187138 2.96112391C51.1390192 2.92852246 51.2674564 2.93424808 51.3855044 2.97886579 51.5330643 3.03463792 51.652251 3.14659046 51.716742 3.28999853L51.716742 3.28999853 54.1183889 8.60824113 56.5200358 3.28999853C56.5845323 3.14683081 56.7035571 3.03505907 56.8508906 2.97930508 56.9982242 2.92355108 57.1617796 2.92838878 57.3055279 2.9927525L57.3055279 2.9927525 57.3902082 3.03924247C57.6287008 3.19654229 57.7245021 3.50706481 57.603178 3.77515327L57.603178 3.77515327 54.6789792 10.2511407C54.5741619 10.4645883 54.3563446 10.5999433 54.1176757 10.5999433 53.8790067 10.5999433 53.6611894 10.4645883 53.5563721 10.2511407L53.5563721 10.2511407 50.6316978 3.77515327C50.5670221 3.63198907 50.5621496 3.46910775 50.6181531 3.32236624 50.6741566 3.17562472 50.786445 3.0570526 50.9302989 2.9927525L50.9302989 2.9927525zM29.9760358 3.93761143C28.5379226 3.93761143 27.3730557 5.26363594 27.3730557 6.89996629 27.3730557 8.53629665 28.5383987 9.86279491 29.9760358 9.86279491 31.4141489 9.86279491 32.5794918 8.5358229 32.5794918 6.89996629 32.5794918 5.26410969 31.4141489 3.93761143 29.9760358 3.93761143zM21.3157575 3.93564066C22.7533946 3.93564066 23.9192136 5.25951773 23.9192136 6.89214184 23.9192136 8.52476596 22.7533946 9.84911584 21.3157575 9.84911584 19.8781203 9.84911584 18.7123013 8.52523877 18.7123013 6.89214184 18.7123013 5.25904492 19.8781203 3.93564066 21.3157575 3.93564066zM46.394701 3.97010902C45.0657359 3.97010902 43.9654765 5.0220064 43.7752847 6.39340752L43.7752847 6.39340752 48.939467 6.39340752C48.7492752 5.0220064 47.723666 3.97010902 46.394701 3.97010902zM62.0200527 3.97010902C60.6909689 3.97010902 59.5906112 5.0220064 59.4004024 6.39340752L59.4004024 6.39340752 64.5650461 6.39340752C64.3748373 5.0220064 63.3491365 3.97010902 62.0200527 3.97010902zM6.73248067.245612399C10.3949555.277635129 13.3466666 3.24374004 13.3453647 6.89074324 13.344062 10.5377465 10.3902334 13.5017606 6.72773669 13.53119L6.72773669 13.53119C4.32575252 13.5494542 2.10334483 12.2860952.900667576 10.2216769-.30200968 8.1572586-.300098904 5.60909252.905673072 3.54646486 2.11144505 1.4838372 4.33574494.223784302 6.73248067.245612399zM6.7225183 1.01463858L6.50040419 1.01889382C3.33126234 1.13785744.800050608 3.73494913.802737025 6.91910562.805490195 10.1773123 3.4603259 12.81639 6.73248067 12.8136528 8.84919368 12.8118787 10.8041678 11.685802 11.8609831 9.85960276 12.9177984 8.03340354 12.9158996 5.78452491 11.8560019 3.96009771 10.7961042 2.13567051 8.83923132 1.01286863 6.7225183 1.01463858L6.7225183 1.01463858zM6.76766717 2.84580615C9.06273345 2.84580615 10.9232523 4.698056 10.9232523 6.98292199 10.9232523 9.26778797 9.06273345 11.1200378 6.76766717 11.1200378 4.47260089 11.1200378 2.61208207 9.26778797 2.61208207 6.98292199 2.61208207 4.698056 4.47260089 2.84580615 6.76766717 2.84580615zM79.1807143 9.912L79.1807143 1.764 79.2087143 1.764 82.5547143 9.912 83.4507143 9.912 86.7967143 1.764 86.8247143 1.764 86.8247143 9.912 88.1687143 9.912 88.1687143 0 86.1667143 0 83.0447143 7.504 82.9887143 7.504 79.8387143 0 77.8367143 0 77.8367143 9.912 79.1807143 9.912zM93.3207143 10.08C94.5807143 10.08 95.5607143 9.62733333 96.2607143 8.722L96.2607143 8.722 95.3087143 7.994C95.0660476 8.29266667 94.8000476 8.533 94.5107143 8.715 94.221381 8.897 93.8807143 8.988 93.4887143 8.988 93.199381 8.988 92.919381 8.94133333 92.6487143 8.848 92.3780476 8.75466667 92.1400476 8.624 91.9347143 8.456 91.729381 8.288 91.5637143 8.085 91.4377143 7.847 91.3117143 7.609 91.2487143 7.34533333 91.2487143 7.056L91.2487143 7.056 96.5687143 7.056 96.5687143 6.608C96.5687143 6.17866667 96.510381 5.75633333 96.3937143 5.341 96.2770476 4.92566667 96.0880476 4.55233333 95.8267143 4.221 95.565381 3.88966667 95.2317143 3.62133333 94.8257143 3.416 94.4197143 3.21066667 93.9227143 3.108 93.3347143 3.108 92.8400476 3.108 92.3827143 3.19666667 91.9627143 3.374 91.5427143 3.55133333 91.1810476 3.79633333 90.8777143 4.109 90.574381 4.42166667 90.336381 4.79033333 90.1637143 5.215 89.9910476 5.63966667 89.9047143 6.09933333 89.9047143 6.594 89.9047143 7.08866667 89.9840476 7.54833333 90.1427143 7.973 90.301381 8.39766667 90.5277143 8.76633333 90.8217143 9.079 91.1157143 9.39166667 91.4750476 9.63666667 91.8997143 9.814 92.324381 9.99133333 92.7980476 10.08 93.3207143 10.08zM95.2247143 6.048L91.2487143 6.048C91.2487143 5.824 91.2977143 5.59766667 91.3957143 5.369 91.4937143 5.14033333 91.631381 4.93266667 91.8087143 4.746 91.9860476 4.55933333 92.2030476 4.40766667 92.4597143 4.291 92.716381 4.17433333 92.9987143 4.116 93.3067143 4.116 93.6240476 4.116 93.9017143 4.165 94.1397143 4.263 94.3777143 4.361 94.5760476 4.49633333 94.7347143 4.669 94.893381 4.84166667 95.012381 5.04466667 95.0917143 5.278 95.1710476 5.51133333 95.215381 5.768 95.2247143 6.048L95.2247143 6.048zM100.082714 10.08C100.409381 10.08 100.733714 10.0426667 101.055714 9.968 101.377714 9.89333333 101.664714 9.772 101.916714 9.604 102.168714 9.436 102.374048 9.219 102.532714 8.953 102.691381 8.687 102.770714 8.36733333 102.770714 7.994 102.770714 7.686 102.721714 7.42466667 102.623714 7.21 102.525714 6.99533333 102.390381 6.81333333 102.217714 6.664 102.045048 6.51466667 101.839714 6.39333333 101.601714 6.3 101.363714 6.20666667 101.109381 6.12733333 100.838714 6.062 100.698714 6.034 100.530714 6.00133333 100.334714 5.964 100.138714 5.92666667 99.954381 5.87066667 99.7817143 5.796 99.6090476 5.72133333 99.4597143 5.62333333 99.3337143 5.502 99.2077143 5.38066667 99.1447143 5.222 99.1447143 5.026 99.1447143 4.78333333 99.254381 4.599 99.4737143 4.473 99.6930476 4.347 99.9520476 4.284 100.250714 4.284 100.568048 4.284 100.836381 4.347 101.055714 4.473 101.275048 4.599 101.459381 4.75533333 101.608714 4.942L101.608714 4.942 102.588714 4.2C102.346048 3.808 102.019381 3.528 101.608714 3.36 101.198048 3.192 100.768714 3.108 100.320714 3.108 100.012714 3.108 99.7070476 3.15 99.4037143 3.234 99.100381 3.318 98.8297143 3.444 98.5917143 3.612 98.3537143 3.78 98.162381 3.99233333 98.0177143 4.249 97.8730476 4.50566667 97.8007143 4.80666667 97.8007143 5.152 97.8007143 5.46933333 97.8567143 5.73533333 97.9687143 5.95 98.0807143 6.16466667 98.2300476 6.342 98.4167143 6.482 98.603381 6.622 98.8180476 6.734 99.0607143 6.818 99.303381 6.902 99.5600476 6.97666667 99.8307143 7.042 99.9707143 7.07 100.131714 7.105 100.313714 7.147 100.495714 7.189 100.668381 7.245 100.831714 7.315 100.995048 7.385 101.135048 7.48066667 101.251714 7.602 101.368381 7.72333333 101.426714 7.87733333 101.426714 8.064 101.426714 8.204 101.387048 8.32766667 101.307714 8.435 101.228381 8.54233333 101.125714 8.631 100.999714 8.701 100.873714 8.771 100.729048 8.82233333 100.565714 8.855 100.402381 8.88766667 100.241381 8.904 100.082714 8.904 99.7187143 8.904 99.4107143 8.82466667 99.1587143 8.666 98.9067143 8.50733333 98.6780476 8.32533333 98.4727143 8.12L98.4727143 8.12 97.5207143 8.904C97.847381 9.352 98.218381 9.66 98.6337143 9.828 99.0490476 9.996 99.5320476 10.08 100.082714 10.08zM106.298714 10.08C106.625381 10.08 106.949714 10.0426667 107.271714 9.968 107.593714 9.89333333 107.880714 9.772 108.132714 9.604 108.384714 9.436 108.590048 9.219 108.748714 8.953 108.907381 8.687 108.986714 8.36733333 108.986714 7.994 108.986714 7.686 108.937714 7.42466667 108.839714 7.21 108.741714 6.99533333 108.606381 6.81333333 108.433714 6.664 108.261048 6.51466667 108.055714 6.39333333 107.817714 6.3 107.579714 6.20666667 107.325381 6.12733333 107.054714 6.062 106.914714 6.034 106.746714 6.00133333 106.550714 5.964 106.354714 5.92666667 106.170381 5.87066667 105.997714 5.796 105.825048 5.72133333 105.675714 5.62333333 105.549714 5.502 105.423714 5.38066667 105.360714 5.222 105.360714 5.026 105.360714 4.78333333 105.470381 4.599 105.689714 4.473 105.909048 4.347 106.168048 4.284 106.466714 4.284 106.784048 4.284 107.052381 4.347 107.271714 4.473 107.491048 4.599 107.675381 4.75533333 107.824714 4.942L107.824714 4.942 108.804714 4.2C108.562048 3.808 108.235381 3.528 107.824714 3.36 107.414048 3.192 106.984714 3.108 106.536714 3.108 106.228714 3.108 105.923048 3.15 105.619714 3.234 105.316381 3.318 105.045714 3.444 104.807714 3.612 104.569714 3.78 104.378381 3.99233333 104.233714 4.249 104.089048 4.50566667 104.016714 4.80666667 104.016714 5.152 104.016714 5.46933333 104.072714 5.73533333 104.184714 5.95 104.296714 6.16466667 104.446048 6.342 104.632714 6.482 104.819381 6.622 105.034048 6.734 105.276714 6.818 105.519381 6.902 105.776048 6.97666667 106.046714 7.042 106.186714 7.07 106.347714 7.105 106.529714 7.147 106.711714 7.189 106.884381 7.245 107.047714 7.315 107.211048 7.385 107.351048 7.48066667 107.467714 7.602 107.584381 7.72333333 107.642714 7.87733333 107.642714 8.064 107.642714 8.204 107.603048 8.32766667 107.523714 8.435 107.444381 8.54233333 107.341714 8.631 107.215714 8.701 107.089714 8.771 106.945048 8.82233333 106.781714 8.855 106.618381 8.88766667 106.457381 8.904 106.298714 8.904 105.934714 8.904 105.626714 8.82466667 105.374714 8.666 105.122714 8.50733333 104.894048 8.32533333 104.688714 8.12L104.688714 8.12 103.736714 8.904C104.063381 9.352 104.434381 9.66 104.849714 9.828 105.265048 9.996 105.748048 10.08 106.298714 10.08zM112.486714 10.08C112.990714 10.08 113.434048 9.99133333 113.816714 9.814 114.199381 9.63666667 114.530714 9.33333333 114.810714 8.904L114.810714 8.904 114.838714 8.904C114.838714 9.24 114.852714 9.576 114.880714 9.912L114.880714 9.912 116.000714 9.912C115.982048 9.73466667 115.968048 9.548 115.958714 9.352 115.949381 9.156 115.944714 8.94133333 115.944714 8.708L115.944714 8.708 115.944714 5.32C115.944714 5.03066667 115.891048 4.753 115.783714 4.487 115.676381 4.221 115.510714 3.98533333 115.286714 3.78 115.062714 3.57466667 114.775714 3.41133333 114.425714 3.29 114.075714 3.16866667 113.658048 3.108 113.172714 3.108 112.706048 3.108 112.239381 3.18966667 111.772714 3.353 111.306048 3.51633333 110.895381 3.76133333 110.540714 4.088L110.540714 4.088 111.296714 4.872C111.408714 4.788 111.525381 4.69933333 111.646714 4.606 111.768048 4.51266667 111.903381 4.431 112.052714 4.361 112.202048 4.291 112.367714 4.23266667 112.549714 4.186 112.731714 4.13933333 112.944048 4.116 113.186714 4.116 113.457381 4.116 113.690714 4.15566667 113.886714 4.235 114.082714 4.31433333 114.246048 4.42166667 114.376714 4.557 114.507381 4.69233333 114.605381 4.844 114.670714 5.012 114.736048 5.18 114.768714 5.348 114.768714 5.516L114.768714 5.516 114.768714 5.796 113.844714 5.796C113.340714 5.796 112.867048 5.83566667 112.423714 5.915 111.980381 5.99433333 111.593048 6.125 111.261714 6.307 110.930381 6.489 110.669048 6.72466667 110.477714 7.014 110.286381 7.30333333 110.190714 7.66266667 110.190714 8.092 110.190714 8.41866667 110.251381 8.70566667 110.372714 8.953 110.494048 9.20033333 110.659714 9.408 110.869714 9.576 111.079714 9.744 111.324714 9.87 111.604714 9.954 111.884714 10.038 112.178714 10.08 112.486714 10.08zM112.878714 9.072C112.440048 9.072 112.092381 8.988 111.835714 8.82 111.579048 8.652 111.450714 8.37666667 111.450714 7.994 111.450714 7.73266667 111.532381 7.518 111.695714 7.35 111.859048 7.182 112.069048 7.05133333 112.325714 6.958 112.582381 6.86466667 112.867048 6.80166667 113.179714 6.769 113.492381 6.73633333 113.798048 6.72 114.096714 6.72L114.096714 6.72 114.768714 6.72 114.768714 7.14C114.768714 7.364 114.736048 7.59033333 114.670714 7.819 114.605381 8.04766667 114.498048 8.25533333 114.348714 8.442 114.199381 8.62866667 114.003381 8.78033333 113.760714 8.897 113.518048 9.01366667 113.224048 9.072 112.878714 9.072zM120.802714 13.272C121.344048 13.272 121.838714 13.188 122.286714 13.02 122.734714 12.852 123.117381 12.6163333 123.434714 12.313 123.752048 12.0096667 123.997048 11.6503333 124.169714 11.235 124.342381 10.8196667 124.428714 10.36 124.428714 9.856L124.428714 9.856 124.428714 3.276 123.168714 3.276 123.168714 4.228 123.140714 4.228C122.898048 3.87333333 122.564381 3.598 122.139714 3.402 121.715048 3.206 121.278714 3.108 120.830714 3.108 120.317381 3.108 119.853048 3.19666667 119.437714 3.374 119.022381 3.55133333 118.667714 3.79866667 118.373714 4.116 118.079714 4.43333333 117.853381 4.80433333 117.694714 5.229 117.536048 5.65366667 117.456714 6.10866667 117.456714 6.594 117.456714 7.07933333 117.540714 7.52966667 117.708714 7.945 117.876714 8.36033333 118.110048 8.71966667 118.408714 9.023 118.707381 9.32633333 119.064381 9.56433333 119.479714 9.737 119.895048 9.90966667 120.345381 9.996 120.830714 9.996 121.288048 9.996 121.724381 9.90033333 122.139714 9.709 122.555048 9.51766667 122.884048 9.22133333 123.126714 8.82L123.126714 8.82 123.168714 8.82 123.168714 9.8C123.168714 10.08 123.131381 10.3576667 123.056714 10.633 122.982048 10.9083333 122.853714 11.1533333 122.671714 11.368 122.489714 11.5826667 122.244714 11.7576667 121.936714 11.893 121.628714 12.0283333 121.241381 12.096 120.774714 12.096 120.289381 12.096 119.855381 12.005 119.472714 11.823 119.090048 11.641 118.735381 11.3726667 118.408714 11.018L118.408714 11.018 117.554714 12.082C118.030714 12.5206667 118.532381 12.8286667 119.059714 13.006 119.587048 13.1833333 120.168048 13.272 120.802714 13.272zM120.984714 8.82C120.312714 8.82 119.780714 8.617 119.388714 8.211 118.996714 7.805 118.800714 7.266 118.800714 6.594 118.800714 6.258 118.852048 5.94766667 118.954714 5.663 119.057381 5.37833333 119.202048 5.13566667 119.388714 4.935 119.575381 4.73433333 119.804048 4.57566667 120.074714 4.459 120.345381 4.34233333 120.648714 4.284 120.984714 4.284 121.320714 4.284 121.624048 4.34233333 121.894714 4.459 122.165381 4.57566667 122.394048 4.73433333 122.580714 4.935 122.767381 5.13566667 122.912048 5.37833333 123.014714 5.663 123.117381 5.94766667 123.168714 6.258 123.168714 6.594 123.168714 7.266 122.972714 7.805 122.580714 8.211 122.188714 8.617 121.656714 8.82 120.984714 8.82zM129.356714 10.08C130.616714 10.08 131.596714 9.62733333 132.296714 8.722L132.296714 8.722 131.344714 7.994C131.102048 8.29266667 130.836048 8.533 130.546714 8.715 130.257381 8.897 129.916714 8.988 129.524714 8.988 129.235381 8.988 128.955381 8.94133333 128.684714 8.848 128.414048 8.75466667 128.176048 8.624 127.970714 8.456 127.765381 8.288 127.599714 8.085 127.473714 7.847 127.347714 7.609 127.284714 7.34533333 127.284714 7.056L127.284714 7.056 132.604714 7.056 132.604714 6.608C132.604714 6.17866667 132.546381 5.75633333 132.429714 5.341 132.313048 4.92566667 132.124048 4.55233333 131.862714 4.221 131.601381 3.88966667 131.267714 3.62133333 130.861714 3.416 130.455714 3.21066667 129.958714 3.108 129.370714 3.108 128.876048 3.108 128.418714 3.19666667 127.998714 3.374 127.578714 3.55133333 127.217048 3.79633333 126.913714 4.109 126.610381 4.42166667 126.372381 4.79033333 126.199714 5.215 126.027048 5.63966667 125.940714 6.09933333 125.940714 6.594 125.940714 7.08866667 126.020048 7.54833333 126.178714 7.973 126.337381 8.39766667 126.563714 8.76633333 126.857714 9.079 127.151714 9.39166667 127.511048 9.63666667 127.935714 9.814 128.360381 9.99133333 128.834048 10.08 129.356714 10.08zM131.260714 6.048L127.284714 6.048C127.284714 5.824 127.333714 5.59766667 127.431714 5.369 127.529714 5.14033333 127.667381 4.93266667 127.844714 4.746 128.022048 4.55933333 128.239048 4.40766667 128.495714 4.291 128.752381 4.17433333 129.034714 4.116 129.342714 4.116 129.660048 4.116 129.937714 4.165 130.175714 4.263 130.413714 4.361 130.612048 4.49633333 130.770714 4.669 130.929381 4.84166667 131.048381 5.04466667 131.127714 5.278 131.207048 5.51133333 131.251381 5.768 131.260714 6.048L131.260714 6.048z" transform="translate(.34 .088)"/>
</svg>
