<svg width="20px" height="20px" viewBox="0 0 20 20" version="1.1" xmlns="http://www.w3.org/2000/svg" xmlns:xlink="http://www.w3.org/1999/xlink">
    <g stroke="none" stroke-width="1" fill="none" fill-rule="evenodd">
        <g transform="translate(-172.000000, -580.000000)">
            <g transform="translate(156.000000, 384.000000)">
                <g transform="translate(16.000000, 196.000000)">
                    <rect fill="#86868B" x="0" y="0" width="20" height="20" rx="5"></rect>
                    <g transform="translate(3.000000, 4.000000)" fill="#FFFFFF">
                        <path d="M2.58959538,4.31728306 C2.58959538,3.0559099 3.60690173,2.03342332 4.86188439,2.03342332 L10.0104855,2.03342332 L10.0104855,1.31188339 C10.0104855,0.587333992 9.42604624,0 8.70524855,0 L1.30523699,0 C0.584358382,0 0,0.587333992 0,1.31188339 L0,6.42773245 C0,7.15220051 0.584358382,7.73953451 1.30523699,7.73953451 L1.69408092,7.73953451 L1.69408092,9.33203031 C1.69408092,9.54643447 1.94413873,9.66242093 2.10647399,9.52325344 L2.58959538,9.10884177 L2.58959538,4.31728306 Z" id="Fill-1"></path>
                        <path d="M11.4104046,7.40165275 C11.1423006,7.40165275 10.9248555,7.18310041 10.9248555,6.91363116 C10.9248555,6.6441619 11.1423006,6.42560956 11.4104046,6.42560956 C11.6785087,6.42560956 11.8959538,6.6441619 11.8959538,6.91363116 C11.8959538,7.18310041 11.6785087,7.40165275 11.4104046,7.40165275 M8.73988439,7.40165275 C8.47178035,7.40165275 8.25433526,7.18310041 8.25433526,6.91363116 C8.25433526,6.6441619 8.47178035,6.42560956 8.73988439,6.42560956 C9.00798844,6.42560956 9.22543353,6.6441619 9.22543353,6.91363116 C9.22543353,7.18310041 9.00798844,7.40165275 8.73988439,7.40165275 M6.06936416,7.40165275 C5.80126012,7.40165275 5.58381503,7.18310041 5.58381503,6.91363116 C5.58381503,6.6441619 5.80126012,6.42560956 6.06936416,6.42560956 C6.33746821,6.42560956 6.55491329,6.6441619 6.55491329,6.91363116 C6.55491329,7.18310041 6.33746821,7.40165275 6.06936416,7.40165275 M12.6283237,2.92812145 L4.85144509,2.92812145 C4.09390751,2.92812145 3.47976879,3.54538743 3.47976879,4.30678246 L3.47976879,9.68315372 C3.47976879,10.4445487 4.09390751,11.0618147 4.85144509,11.0618147 L9.60052023,11.0618147 L11.7863006,12.9363057 C11.9568902,13.0825495 12.2196532,12.9607881 12.2196532,12.7353221 L12.2196532,11.0618147 L12.6283237,11.0618147 C13.3858613,11.0618147 14,10.4445487 14,9.68315372 L14,4.30678246 C14,3.54538743 13.3858613,2.92812145 12.6283237,2.92812145" id="Fill-3"></path>
                    </g>
                </g>
            </g>
        </g>
    </g>
</svg>
