<svg width="20px" height="20px" viewBox="0 0 20 20" version="1.1" xmlns="http://www.w3.org/2000/svg" xmlns:xlink="http://www.w3.org/1999/xlink">
    <defs>
        <polygon id="path-1" points="0 0 14 0 14 14 0 14"></polygon>
    </defs>
    <g stroke="none" stroke-width="1" fill="none" fill-rule="evenodd">
        <g transform="translate(-172.000000, -508.000000)">
            <g transform="translate(156.000000, 384.000000)">
                <g transform="translate(16.000000, 124.000000)">
                    <rect fill="#86868B" x="0" y="0" width="20" height="20" rx="5"></rect>
                    <g transform="translate(3.000000, 3.000000)">
                        <mask fill="white">
                            <use xlink:href="#path-1"></use>
                        </mask>
                        <g></g>
                        <path d="M10.2072902,8.38955908 C10.0331183,8.3028397 9.17683151,7.8835131 9.01716556,7.82563366 C8.85749961,7.76778748 8.74138499,7.73888102 8.62527038,7.91235303 C8.50915576,8.08589158 8.17538473,8.47634498 8.07374266,8.59207061 C7.97216744,8.70769645 7.8705588,8.72223284 7.6964203,8.63544693 C7.52221495,8.54866103 6.96099431,8.36564223 6.29572508,7.77503904 C5.77792208,7.31542967 5.42837498,6.74781194 5.32676633,6.57424013 C5.22519111,6.40073485 5.31597042,6.30693023 5.40317336,6.22047697 C5.48151897,6.14280541 5.57734528,6.0179987 5.66441453,5.91680946 C5.75151721,5.81558696 5.78052915,5.74323766 5.83858646,5.62764509 C5.89664376,5.51191946 5.86763182,5.41069696 5.82408048,5.32394432 C5.78052915,5.23719168 5.4321853,4.38393556 5.28705874,4.0368252 C5.14567566,3.69889573 5.00208661,3.74466706 4.89516356,3.73927828 C4.79368861,3.73425541 4.6774403,3.73319096 4.56135911,3.73319096 C4.4452445,3.73319096 4.25653318,3.77656728 4.09690065,3.95007256 C3.9372347,4.12364437 3.48728221,4.54300424 3.48728221,5.39619383 C3.48728221,6.24941669 4.11140662,7.0736333 4.19850929,7.18932566 C4.28557854,7.30505129 5.42667036,9.05587125 7.17390453,9.80674063 C7.58946383,9.98533531 7.91390959,10.0920131 8.16682822,10.1718468 C8.58409214,10.3038386 8.9637876,10.2852107 9.26386734,10.2405704 C9.59850738,10.1908073 10.2943595,9.82124375 10.4395195,9.41635375 C10.584646,9.01139721 10.584646,8.66435339 10.5410947,8.59207061 C10.4975768,8.51975457 10.3814622,8.47634498 10.2072902,8.38955908 M7.02927933,12.7080643 L7.02693966,12.7080643 C5.98732279,12.7076651 4.96762657,12.4297107 4.07804957,11.9043383 L3.86650973,11.7793653 L1.67366818,12.3518395 L2.25895402,10.2240714 L2.12121415,10.0059258 C1.5412427,9.08787126 1.23494612,8.02684789 1.23538016,6.93731723 C1.23665073,3.758139 3.83575975,1.1716596 7.03158558,1.1716596 C8.57911197,1.17219183 10.0338202,1.77277423 11.1277175,2.8626708 C12.2215813,3.9525341 12.823646,5.40128323 12.8230782,6.94194093 C12.8217742,10.1213853 10.2226652,12.7080643 7.02927933,12.7080643 M11.9602399,2.03449577 C10.644174,0.723193691 8.89396508,0.00073180908 7.02921249,0 C3.18703535,0 0.0599624697,3.11188505 0.0584249705,6.93685153 C0.0579236121,8.15957144 0.378893287,9.353019 0.988912816,10.4051276 L0,14 L3.69527911,13.0352827 C4.71343784,13.5879649 5.85977721,13.8792914 7.0264383,13.8796906 L7.02927933,13.8796906 L7.02931276,13.8796906 C10.8710888,13.8796906 13.9984625,10.7674729 14,6.94240663 C14.0007019,5.08876749 13.2763058,3.34576458 11.9602399,2.03449577" id="Fill-1" fill="#FFFFFF" mask="url(#mask-2)"></path>
                    </g>
                </g>
            </g>
        </g>
    </g>
</svg>
