<svg xmlns="http://www.w3.org/2000/svg" width="323" height="130" viewBox="0 0 138 138">
    <g fill="none" opacity=".1">
        <path fill="#D6D6D6" d="M44.397 90.258s0-11.222 5.367-16.1c5.366-4.88 9.27-5.367 13.66-7.319 4.391-1.951 10.246-.975 12.685-3.903 2.44-2.927 1.952-10.245 1.952-10.245s-2.928-1.952-2.928-5.855c-.488-3.415-.975-6.342-1.463-6.83-.488-.488-1.952-.488-1.952-2.44 0-1.95-1.463-4.878-1.463-5.854s-.488-2.927 0-3.903c.487-.488 1.463-.488 1.463-.488-.488-1.463-.976-5.366-1.463-7.806 0-2.44-.488-5.367 0-6.83.487-1.464 1.463-4.879 2.439-5.855.976 0 2.44-.488 2.44-.488l2.927-2.927c.975-.976 4.39-1.951 5.854-1.951C85.38 1.464 86.842 0 89.77 0c2.927 0 5.366.976 7.318 1.952 1.951.975 3.903 1.463 5.854 1.951 1.952.488 2.44 2.44 3.416 3.415.487 1.464 1.463 1.952 1.951 3.903.488 1.952.488 5.855 0 9.27-.488 3.415-1.464 7.318-1.464 7.318l.976-.488s.976 1.464.976 3.415c-.488 1.952-1.464 5.367-1.464 5.855 0 .488 0 2.44-.975 2.927-.976.488-1.464.488-1.952 1.464s-.976 6.83-1.464 7.806c-.487.976-1.463 2.927-2.927 4.39 0 2.44 0 9.27 2.44 10.734 2.439 1.464 5.854 1.952 10.733 2.44 4.879.975 8.294 2.927 9.27 3.415 1.463.488 5.366 2.44 7.318 5.854 1.951 3.415 3.415 4.879 3.415 14.149-5.855.488-88.794.488-88.794.488z" opacity=".58" transform="translate(4.313 21.563)"/>
        <path fill="#FFF" d="M0 90.258s0-11.222 5.367-16.1c5.366-4.88 9.27-5.367 13.66-7.319 4.391-1.951 10.246-.975 12.685-3.903 2.44-2.927 1.952-10.245 1.952-10.245s-2.928-1.952-2.928-5.855c-.488-3.415-.975-6.342-1.463-6.83-.488-.488-1.952-1.464-1.952-2.927 0-1.464-1.463-4.879-1.463-5.855 0-.976-.488-2.927 0-3.903.487-.488 1.463-.488 1.463-.488-.488-1.463-.976-5.366-1.463-7.806 0-2.44-.488-5.366 0-6.83.487-1.952 1.463-4.879 2.439-5.855.976.488 2.44 0 2.44 0l2.927-2.927c.975-.976 4.39-1.951 5.854-1.951C40.982 1.464 42.445 0 45.373 0c2.44 0 5.366.976 7.318 1.952 1.951.975 3.903 1.463 5.854 1.951 1.464.976 2.44 2.44 3.416 3.415 0 .976.975 1.952 1.463 3.903.488 1.952.488 5.855 0 9.27-.488 3.415-1.463 7.318-1.463 7.318l.975-.488s.976 1.464.976 3.415c-.488 1.952-1.464 5.367-1.464 5.855 0 .488 0 2.44-.975 2.927-.488.488-1.464.488-1.952 1.464s-.976 6.83-1.463 7.806c-.488.976-1.464 2.927-2.928 4.39 0 2.44 0 9.27 2.44 10.734 2.44 1.464 5.854 1.952 10.733 2.44 4.879.975 8.294 2.927 9.27 3.415.975.488 5.366 2.44 7.318 5.854 1.951 3.415 3.415 4.879 3.415 14.149-5.854.488-88.306.488-88.306.488z" transform="translate(4.313 21.563)"/>
    </g>
</svg>
