<svg xmlns="http://www.w3.org/2000/svg" width="323" height="130" viewBox="0 0 138 138">
    <g opacity=".1">
        <path fill-opacity=".4" d="M44.354 90.17s0-11.21 5.361-16.085c5.361-4.874 9.26-5.361 13.647-7.31 4.387-1.95 10.236-.976 12.673-3.9 2.437-2.925 1.95-10.236 1.95-10.236s-2.925-1.95-2.925-5.848c-.487-3.412-.975-6.337-1.462-6.824-.488-.487-1.95-.487-1.95-2.437 0-1.95-1.462-4.874-1.462-5.849 0-.975-.487-2.924 0-3.9.487-.486 1.462-.486 1.462-.486-.487-1.463-.975-5.362-1.462-7.799 0-2.437-.487-5.361 0-6.824.487-1.462 1.462-4.874 2.437-5.848.975 0 2.437-.488 2.437-.488l2.924-2.924c.975-.975 4.387-1.95 5.85-1.95C85.294 1.462 86.757 0 89.681 0s5.361.975 7.311 1.95c1.95.974 3.9 1.462 5.849 1.95 1.95.487 2.437 2.436 3.412 3.411.487 1.462 1.462 1.95 1.95 3.9.487 1.949.487 5.848 0 9.26-.488 3.412-1.463 7.31-1.463 7.31l.975-.486s.975 1.462.975 3.411c-.488 1.95-1.462 5.362-1.462 5.85 0 .487 0 2.436-.975 2.924-.975.487-1.462.487-1.95 1.462-.487.975-.975 6.823-1.462 7.798-.488.975-1.462 2.925-2.925 4.387 0 2.437 0 9.26 2.437 10.723 2.438 1.462 5.85 1.95 10.723 2.437 4.874.975 8.286 2.924 9.261 3.412 1.462.487 5.361 2.437 7.311 5.848 1.95 3.412 3.412 4.874 3.412 14.135-5.849.487-88.707.487-88.707.487z" transform="translate(.313)"/>
        <path d="M0 90.17s0-11.21 5.361-16.085c5.362-4.874 9.261-5.361 13.648-7.31 4.386-1.95 10.235-.976 12.672-3.9 2.437-2.925 1.95-10.236 1.95-10.236s-2.925-1.95-2.925-5.848c-.487-3.412-.974-6.337-1.462-6.824-.487-.487-1.95-1.462-1.95-2.924 0-1.463-1.462-4.874-1.462-5.85 0-.974-.487-2.924 0-3.898.488-.488 1.463-.488 1.463-.488-.488-1.462-.975-5.361-1.463-7.798 0-2.437-.487-5.362 0-6.824.488-1.95 1.463-4.874 2.437-5.849.975.488 2.437 0 2.437 0l2.925-2.924c.975-.975 4.386-1.95 5.849-1.95C40.942 1.462 42.404 0 45.328 0c2.437 0 5.362.975 7.311 1.95 1.95.974 3.9 1.462 5.85 1.95 1.461.974 2.436 2.436 3.411 3.411 0 .975.975 1.95 1.462 3.9.488 1.949.488 5.848 0 9.26-.487 3.412-1.462 7.31-1.462 7.31l.975-.486s.975 1.462.975 3.411c-.488 1.95-1.462 5.362-1.462 5.85 0 .487 0 2.436-.975 2.924-.488.487-1.463.487-1.95 1.462-.487.975-.975 6.823-1.462 7.798-.488.975-1.462 2.925-2.925 4.387 0 2.437 0 9.26 2.437 10.723 2.437 1.462 5.85 1.95 10.723 2.437 4.874.975 8.286 2.924 9.261 3.412.975.487 5.361 2.437 7.311 5.848 1.95 3.412 3.412 4.874 3.412 14.135-5.849.487-88.22.487-88.22.487z" transform="translate(.313)"/>
    </g>
</svg>
