<svg width="48" height="48" viewBox="0 0 48 48" fill="none" xmlns="http://www.w3.org/2000/svg">
  <path fill-rule="evenodd" clip-rule="evenodd" d="M24 6C14.0589 6 6 14.0589 6 24C6 33.9411 14.0589 42 24 42C33.9411 42 42 33.9411 42 24C42 14.0589 33.9411 6 24 6ZM2 24C2 11.8497 11.8497 2 24 2C36.1503 2 46 11.8497 46 24C46 36.1503 36.1503 46 24 46C11.8497 46 2 36.1503 2 24Z" fill="#DCA400"></path>
  <path fill-rule="evenodd" clip-rule="evenodd" d="M24 12C25.1046 12 26 12.8954 26 14L26 25C26 26.1046 25.1046 27 24 27C22.8954 27 22 26.1046 22 25L22 14C22 12.8954 22.8954 12 24 12Z" fill="#DCA400"></path>
  <path fill-rule="evenodd" clip-rule="evenodd" d="M22 32C22 30.8954 22.8954 30 24 30H24.02C25.1246 30 26.02 30.8954 26.02 32C26.02 33.1046 25.1246 34 24.02 34H24C22.8954 34 22 33.1046 22 32Z" fill="#DCA400"></path>
</svg>
