<svg xmlns="http://www.w3.org/2000/svg" width="20" height="20" viewBox="0 0 20 20">
  <g fill="none" fill-rule="evenodd">
    <rect width="20" height="20" fill="#86868B" rx="5" />
    <g fill="#FFF" transform="translate(4 2)">
      <path
        d="M7.3021978,0 L7.3021978,1.98674146 C7.3021978,3.30035696 8.38186813,4.36919939 9.70879121,4.36919939 L12,4.36919939 L12,14.6578276 C12,15.3978582 11.3917582,16 10.6442308,16 L1.35247253,16 C0.606593407,15.9983682 0,15.3962264 0,14.6578276 L0,1.34217236 C0,0.603773585 0.607005495,0.0016318205 1.35164835,0 L7.3021978,0 Z M2.87646824,6.8567075 C2.58095168,6.8567075 2.32076862,6.9262683 2.09591907,7.0653899 C1.87106951,7.2045115 1.69881869,7.40166668 1.57916661,7.65685545 C1.48344494,7.86100646 1.42601194,8.09237761 1.40686761,8.35096889 L1.39968848,8.55001613 L1.39968848,8.72173194 C1.39968848,9.26390869 1.53218911,9.68365844 1.79719037,9.98098117 C2.06219163,10.2783039 2.42516306,10.4269653 2.88610465,10.4269653 C3.16556052,10.4269653 3.41409959,10.3760865 3.63172183,10.274329 C3.84934408,10.1725715 4.01838277,10.0290775 4.13883788,9.84384702 C4.23520198,9.69566264 4.29661803,9.52941631 4.32308603,9.34510801 L4.33638428,9.20349017 L3.49560755,9.20349017 C3.48918328,9.40064535 3.43457696,9.54453684 3.33178859,9.63516462 C3.22900022,9.72579241 3.08043891,9.7711063 2.88610465,9.7711063 C2.65643689,9.7711063 2.49462551,9.69160824 2.40067052,9.53261213 C2.32013767,9.39632974 2.2741189,9.1823664 2.2626142,8.89072209 L2.25973803,8.73842653 L2.25973803,8.49277753 C2.26455623,8.15093588 2.31595042,7.90210696 2.41392058,7.74629077 C2.51189075,7.59047457 2.6660733,7.51256647 2.87646824,7.51256647 C3.08365104,7.51256647 3.23783359,7.55867535 3.33901589,7.6508931 C3.41996173,7.72466729 3.47058501,7.83660056 3.49088571,7.98669289 L3.50042575,8.10641697 L4.34361159,8.10641697 C4.30827808,7.71687648 4.16132284,7.41120645 3.90274585,7.18940687 C3.64416886,6.96760729 3.30207633,6.8567075 2.87646824,6.8567075 Z M6.0805744,6.85909244 C5.82199741,6.85909244 5.58911752,6.90003394 5.38193471,6.98191694 C5.17475191,7.06379994 5.0145466,7.17827714 4.90131879,7.32534855 C4.78809097,7.47241996 4.73147707,7.64214831 4.73147707,7.83453361 C4.73147707,8.22089417 4.95873573,8.52457675 5.41325304,8.74558135 C5.55298098,8.81394968 5.73286062,8.88470295 5.95289197,8.95784117 C6.17292332,9.03097938 6.32670436,9.10173265 6.41423508,9.17010098 C6.5017658,9.23846931 6.54553116,9.33386698 6.54553116,9.45629399 C6.54553116,9.56441135 6.50497794,9.6482818 6.42387149,9.70790534 C6.34276504,9.76752889 6.23234785,9.79734066 6.09261991,9.79734066 C5.87419463,9.79734066 5.71639842,9.75321924 5.61923129,9.66497639 C5.54149759,9.59438212 5.49485737,9.49249741 5.47931063,9.35932226 L5.4734806,9.25357394 L4.62547656,9.25357394 C4.62547656,9.48252835 4.68369654,9.68485091 4.80013649,9.86054162 C4.91657643,10.0362323 5.09003181,10.1745589 5.3205026,10.2755215 C5.55097339,10.376484 5.80834583,10.4269653 6.09261991,10.4269653 C6.49574304,10.4269653 6.81294152,10.3403124 7.04421535,10.1670066 C7.27548918,9.99370086 7.39112609,9.75520669 7.39112609,9.45152411 C7.39112609,9.07152339 7.20161004,8.77340567 6.82257793,8.55717096 C6.66678931,8.46813313 6.46763685,8.38505766 6.22512054,8.30794454 C5.98260424,8.23083143 5.81316404,8.15610325 5.71679994,8.08376002 C5.62043585,8.01141679 5.5722538,7.93072626 5.5722538,7.84168843 C5.5722538,7.73993092 5.61601916,7.65606047 5.70354988,7.59007708 C5.7910806,7.52409369 5.91033117,7.491102 6.06130158,7.491102 C6.21066593,7.491102 6.32911346,7.53005605 6.41664418,7.60796414 C6.48666876,7.67029062 6.5286835,7.7529686 6.54268842,7.85599809 L6.54794026,7.9370861 L7.39112609,7.9370861 C7.39112609,7.72562127 7.33571674,7.53760836 7.22489803,7.37304738 C7.11407932,7.2084864 6.95869222,7.081687 6.75873672,6.99264918 C6.55878122,6.90361135 6.33272712,6.85909244 6.0805744,6.85909244 Z M8.48967678,6.90679127 L7.55253595,6.90679127 L8.72335971,10.3792664 L9.64845502,10.3792664 L10.8289152,6.90679127 L9.88454705,6.90679127 L9.18590736,9.43482952 L8.48967678,6.90679127 Z" />
      <path
        d="M11.9600275,3.50474248 C11.9641484,3.51616522 11.9662088,3.53778684 11.9699176,3.55328914 L9.70879121,3.55328914 C8.83598901,3.55328914 8.12637363,2.85079041 8.12637363,1.98674146 L8.12637363,0.016318205 C8.18282967,0.022845487 8.22156593,0.0301886792 8.24175824,0.0371239164 L11.9600275,3.50474248 Z" />
    </g>
  </g>
</svg>

