<svg xmlns="http://www.w3.org/2000/svg" width="20" height="20" viewBox="0 0 20 20">
  <g fill="none" fill-rule="evenodd">
    <rect width="20" height="20" fill="#86868B" rx="5" />
    <g fill="#FFF" transform="translate(4 2)">
      <path
        d="M7.3021978,0 L7.3021978,1.98674146 C7.3021978,3.30035696 8.38186813,4.36919939 9.70879121,4.36919939 L12,4.36919939 L12,14.6578276 C12,15.3978582 11.3917582,16 10.6442308,16 L1.35247253,16 C0.606593407,15.9983682 0,15.3962264 0,14.6578276 L0,1.34217236 C0,0.603773585 0.607005495,0.0016318205 1.35164835,0 L7.3021978,0 Z M9.83034225,7.51912506 C9.62024845,7.51912506 9.43103353,7.55239003 9.2626975,7.61891997 C9.09436147,7.68544991 8.96419466,7.77846264 8.87219706,7.89795815 C8.78019947,8.01745367 8.73420067,8.15535796 8.73420067,8.31167102 C8.73420067,8.62558897 8.91884833,8.87233107 9.28814365,9.05189731 C9.4016726,9.10744658 9.54782481,9.16493361 9.72660028,9.22435841 C9.90537575,9.28378321 10.0303228,9.34127024 10.1014416,9.39681951 C10.1725603,9.45236877 10.2081196,9.52987938 10.2081196,9.62935133 C10.2081196,9.71719668 10.1751701,9.78534142 10.1092711,9.83378555 C10.0433721,9.88222968 9.95365818,9.90645174 9.84012923,9.90645174 C9.66265869,9.90645174 9.53444927,9.87060309 9.45550098,9.79890578 C9.39234234,9.74154793 9.35444716,9.6587666 9.34181544,9.55056179 L9.33707854,9.46464129 L8.64807526,9.46464129 C8.64807526,9.65066674 8.69537899,9.81505382 8.78998645,9.95780252 C8.8845939,10.1005512 9.02552639,10.2129416 9.21278391,10.2949737 C9.40004143,10.3770057 9.60915654,10.4180217 9.84012923,10.4180217 C10.1676668,10.4180217 10.4253905,10.3476163 10.6133005,10.2068053 C10.8012105,10.0659944 10.8951655,9.87221789 10.8951655,9.6254758 C10.8951655,9.31672521 10.7411837,9.07450457 10.4332201,8.89881386 C10.3066419,8.82647063 10.1448305,8.75897181 9.94778599,8.6963174 C9.75074149,8.63366299 9.61307133,8.57294635 9.5347755,8.51416748 C9.45647968,8.4553886 9.41733176,8.38982754 9.41733176,8.31748431 C9.41733176,8.23480633 9.45289112,8.16666159 9.52400983,8.11305009 C9.59512854,8.05943858 9.69201962,8.03263283 9.81468308,8.03263283 C9.93604162,8.03263283 10.0322802,8.064283 10.1033989,8.12758333 C10.156738,8.17505857 10.1900749,8.23706706 10.2034096,8.31360878 L10.210077,8.39499492 L10.8951655,8.39499492 C10.8951655,8.22317974 10.8501454,8.07041925 10.7601052,7.93671346 C10.670065,7.80300766 10.543813,7.69998315 10.3813491,7.62763991 C10.2188853,7.55529668 10.0352163,7.51912506 9.83034225,7.51912506 Z M2.04577962,7.55788037 L1.26282135,7.55788037 L2.057524,8.95694681 L1.24129,10.3792664 L2.03207786,10.3792664 L2.5116398,9.42394822 L2.99120174,10.3792664 L3.78394699,10.3792664 L2.9657556,8.95694681 L3.76241564,7.55788037 L2.97749997,7.55788037 L2.5116398,8.49575871 L2.04577962,7.55788037 Z M4.69413598,7.55788037 L4.0070901,7.55788037 L4.0070901,10.3792664 L5.89010474,10.3792664 L5.89010474,9.85606985 L4.69413598,9.85606985 L4.69413598,7.55788037 Z M6.77680499,7.55788037 L5.99384671,7.55788037 L6.78854936,8.95694681 L5.97231536,10.3792664 L6.76310322,10.3792664 L7.24266516,9.42394822 L7.7222271,10.3792664 L8.51497235,10.3792664 L7.69678096,8.95694681 L8.493441,7.55788037 L7.70852533,7.55788037 L7.24266516,8.49575871 L6.77680499,7.55788037 Z" />
      <path
        d="M11.9600275,3.50474248 C11.9641484,3.51616522 11.9662088,3.53778684 11.9699176,3.55328914 L9.70879121,3.55328914 C8.83598901,3.55328914 8.12637363,2.85079041 8.12637363,1.98674146 L8.12637363,0.016318205 C8.18282967,0.022845487 8.22156593,0.0301886792 8.24175824,0.0371239164 L11.9600275,3.50474248 Z" />
    </g>
  </g>
</svg>

