<svg xmlns="http://www.w3.org/2000/svg" width="20" height="20" viewBox="0 0 20 20">
  <g fill="none" fill-rule="evenodd">
    <rect width="20" height="20" fill="#86868B" rx="5" />
    <g fill="#FFF" transform="translate(4 2)">
      <path
        d="M7.3021978,0 L7.3021978,1.98674146 C7.3021978,3.30035696 8.38186813,4.36919939 9.70879121,4.36919939 L12,4.36919939 L12,14.6578276 C12,15.3978582 11.3917582,16 10.6442308,16 L1.35247253,16 C0.606593407,15.9983682 0,15.3962264 0,14.6578276 L0,1.34217236 C0,0.603773585 0.607005495,0.0016318205 1.35164835,0 L7.3021978,0 Z M2.89815016,6.90679127 L1.49846168,6.90679127 L1.49846168,10.3792664 L2.34405661,10.3792664 L2.34405661,9.20110523 L2.88369555,9.20110523 C3.3109097,9.20110523 3.64697948,9.0997452 3.89190489,8.89702515 C4.1368303,8.69430511 4.259293,8.42361422 4.259293,8.08495249 C4.259293,7.85599809 4.2026791,7.65129059 4.08945129,7.47082999 C3.97622347,7.2903694 3.81641968,7.1512478 3.61003991,7.05346519 C3.4449361,6.9752391 3.26004552,6.92830345 3.05536818,6.91265823 L2.89815016,6.90679127 Z M5.83966416,6.90679127 L4.70979515,6.90679127 L4.70979515,10.3792664 L5.86375519,10.3792664 C6.16730209,10.3776765 6.44234127,10.3057307 6.68887275,10.1634292 C6.93540423,10.0211277 7.12652635,9.82397251 7.26223912,9.57196367 C7.37080933,9.37035659 7.43595146,9.14763483 7.4576655,8.90379839 L7.46580827,8.71696205 L7.46580827,8.55717096 C7.4642022,8.24235865 7.39393671,7.95815309 7.25501181,7.70455428 C7.11608691,7.45095548 6.9229572,7.25459528 6.67562269,7.11547368 C6.47775508,7.00417639 6.25984374,6.93739803 6.02188867,6.91513857 L5.83966416,6.90679127 Z M10.2459124,6.90679127 L7.89944669,6.90679127 L7.89944669,10.3792664 L8.74504163,10.3792664 L8.74504163,8.99600024 L10.1085936,8.99600024 L10.1085936,8.35206597 L8.74504163,8.35206597 L8.74504163,7.55311048 L10.2459124,7.55311048 L10.2459124,6.90679127 Z M5.83966416,7.55311048 C6.08860474,7.55311048 6.2781208,7.63817341 6.40821232,7.80829925 C6.51662193,7.95007079 6.57986087,8.14925759 6.59792914,8.40585965 L6.60334962,8.56671072 L6.60334962,8.71696205 C6.60334962,9.05403382 6.53830385,9.30803011 6.40821232,9.47895094 C6.2781208,9.64987176 6.09181688,9.73533217 5.84930057,9.73533217 L5.55539008,9.73533217 L5.55539008,7.55311048 L5.83966416,7.55311048 Z M2.90778657,7.55311048 C3.06036305,7.55470045 3.18081817,7.60398924 3.26915193,7.70097687 C3.35748568,7.7979645 3.40165256,7.92754634 3.40165256,8.08972238 C3.40165256,8.23758876 3.35869023,8.35206597 3.27276558,8.43315399 C3.18684093,8.514242 3.06196912,8.55478601 2.89815016,8.55478601 L2.34405661,8.55478601 L2.34405661,7.55311048 L2.90778657,7.55311048 Z" />
      <path
        d="M11.9600275,3.50474248 C11.9641484,3.51616522 11.9662088,3.53778684 11.9699176,3.55328914 L9.70879121,3.55328914 C8.83598901,3.55328914 8.12637363,2.85079041 8.12637363,1.98674146 L8.12637363,0.016318205 C8.18282967,0.022845487 8.22156593,0.0301886792 8.24175824,0.0371239164 L11.9600275,3.50474248 Z" />
    </g>
  </g>
</svg>
