<svg xmlns="http://www.w3.org/2000/svg" width="20" height="20" viewBox="0 0 20 20">
  <g fill="none" fill-rule="evenodd">
    <rect width="20" height="20" fill="#86868B" rx="5" />
    <g fill="#FFF" transform="translate(4 2)">
      <path
        d="M7.3021978,0 L7.3021978,1.98674146 C7.3021978,3.30035696 8.38186813,4.36919939 9.70879121,4.36919939 L12,4.36919939 L12,14.6578276 C12,15.3978582 11.3917582,16 10.6442308,16 L1.35247253,16 C0.606593407,15.9983682 0,15.3962264 0,14.6578276 L0,1.34217236 C0,0.603773585 0.607005495,0.0016318205 1.35164835,0 L7.3021978,0 Z M2.9342867,6.85909244 C2.63395193,6.85909244 2.36614005,6.92984571 2.13085105,7.07135225 C1.89556205,7.2128588 1.71487938,7.41359139 1.58880302,7.67355004 C1.48794193,7.88151696 1.42742528,8.11517765 1.40725306,8.37453212 L1.39968848,8.57386555 L1.39968848,8.76943077 C1.40611275,9.09696277 1.47396914,9.38713068 1.60325763,9.63993451 C1.73254613,9.89273833 1.91282729,10.0871111 2.14410112,10.2230528 C2.37537494,10.3589944 2.64037621,10.4269653 2.9391049,10.4269653 C3.23783359,10.4269653 3.50403941,10.3566095 3.73772234,10.2158979 C3.97140527,10.0751864 4.15168643,9.87445378 4.27856582,9.61370015 C4.38006934,9.40509724 4.44097144,9.17156375 4.46127215,8.91309966 L4.46888491,8.71457711 L4.46888491,8.55478601 C4.46727884,8.22089417 4.40183156,7.92476391 4.27254307,7.66639522 C4.14325457,7.40802653 3.96217038,7.20888389 3.72929048,7.06896731 C3.49641058,6.92905073 3.23140932,6.85909244 2.9342867,6.85909244 Z M9.43886311,6.85909244 C9.18028613,6.85909244 8.94740623,6.90003394 8.74022342,6.98191694 C8.53304062,7.06379994 8.37283531,7.17827714 8.2596075,7.32534855 C8.14637969,7.47241996 8.08976578,7.64214831 8.08976578,7.83453361 C8.08976578,8.22089417 8.31702444,8.52457675 8.77154176,8.74558135 C8.91126969,8.81394968 9.09114934,8.88470295 9.31118069,8.95784117 C9.53121204,9.03097938 9.68499307,9.10173265 9.77252379,9.17010098 C9.86005451,9.23846931 9.90381987,9.33386698 9.90381987,9.45629399 C9.90381987,9.56441135 9.86326665,9.6482818 9.7821602,9.70790534 C9.70105376,9.76752889 9.59063656,9.79734066 9.45090863,9.79734066 C9.23248334,9.79734066 9.07468714,9.75321924 8.97752001,9.66497639 C8.89978631,9.59438212 8.85314608,9.49249741 8.83759934,9.35932226 L8.83176931,9.25357394 L7.98376528,9.25357394 C7.98376528,9.48252835 8.04198525,9.68485091 8.1584252,9.86054162 C8.27486515,10.0362323 8.44832052,10.1745589 8.67879131,10.2755215 C8.90926211,10.376484 9.16663455,10.4269653 9.45090863,10.4269653 C9.85403176,10.4269653 10.1712302,10.3403124 10.4025041,10.1670066 C10.6337779,9.99370086 10.7494148,9.75520669 10.7494148,9.45152411 C10.7494148,9.07152339 10.5598988,8.77340567 10.1808666,8.55717096 C10.025078,8.46813313 9.82592556,8.38505766 9.58340926,8.30794454 C9.34089295,8.23083143 9.17145275,8.15610325 9.07508865,8.08376002 C8.97872456,8.01141679 8.93054251,7.93072626 8.93054251,7.84168843 C8.93054251,7.73993092 8.97430787,7.65606047 9.06183859,7.59007708 C9.14936931,7.52409369 9.26861988,7.491102 9.41959029,7.491102 C9.56895464,7.491102 9.68740218,7.53005605 9.7749329,7.60796414 C9.84495747,7.67029062 9.88697222,7.7529686 9.90097713,7.85599809 L9.90622898,7.9370861 L10.7494148,7.9370861 C10.7494148,7.72562127 10.6940055,7.53760836 10.5831867,7.37304738 C10.472368,7.2084864 10.3169809,7.081687 10.1170254,6.99264918 C9.91706994,6.90361135 9.69101583,6.85909244 9.43886311,6.85909244 Z M6.03480145,6.90679127 L4.90493244,6.90679127 L4.90493244,10.3792664 L6.05889248,10.3792664 C6.36243938,10.3776765 6.63747857,10.3057307 6.88401004,10.1634292 C7.13054152,10.0211277 7.32166364,9.82397251 7.45737641,9.57196367 C7.56594662,9.37035659 7.63108875,9.14763483 7.65280279,8.90379839 L7.66094556,8.71696205 L7.66094556,8.55717096 C7.65933949,8.24235865 7.58907401,7.95815309 7.4501491,7.70455428 C7.3112242,7.45095548 7.11809449,7.25459528 6.87075998,7.11547368 C6.67289237,7.00417639 6.45498103,6.93739803 6.21702596,6.91513857 L6.03480145,6.90679127 Z M2.9342867,7.51495142 C3.15110591,7.51495142 3.31773549,7.60438673 3.43417544,7.78325736 C3.53120873,7.93231622 3.58781148,8.13906638 3.6039837,8.40350783 L3.60883536,8.56909566 L3.60883536,8.72888676 C3.60722929,9.06595853 3.5486078,9.32432722 3.43297089,9.50399283 C3.31733397,9.68365844 3.15271198,9.77349124 2.9391049,9.77349124 C2.71425534,9.77349124 2.54481514,9.68206848 2.4307843,9.49922294 C2.33575859,9.34685166 2.28032693,9.13982547 2.26448932,8.87814437 L2.25973803,8.71457711 L2.26214713,8.45938834 C2.28623816,7.82976373 2.51028468,7.51495142 2.9342867,7.51495142 Z M6.03480145,7.55311048 C6.28374203,7.55311048 6.47325809,7.63817341 6.60334962,7.80829925 C6.71175922,7.95007079 6.77499816,8.14925759 6.79306643,8.40585965 L6.79848691,8.56671072 L6.79848691,8.71696205 C6.79848691,9.05403382 6.73344114,9.30803011 6.60334962,9.47895094 C6.47325809,9.64987176 6.28695417,9.73533217 6.04443786,9.73533217 L5.75052737,9.73533217 L5.75052737,7.55311048 L6.03480145,7.55311048 Z" />
      <path
        d="M11.9600275,3.50474248 C11.9641484,3.51616522 11.9662088,3.53778684 11.9699176,3.55328914 L9.70879121,3.55328914 C8.83598901,3.55328914 8.12637363,2.85079041 8.12637363,1.98674146 L8.12637363,0.016318205 C8.18282967,0.022845487 8.22156593,0.0301886792 8.24175824,0.0371239164 L11.9600275,3.50474248 Z" />
    </g>
  </g>
</svg>
