<svg width="22" height="18" viewBox="0 0 22 18" fill="none" xmlns="http://www.w3.org/2000/svg">
    <path d="m21.033 14.325-5.502-5.36a2.364 2.364 0 0 0-.668-.44 1.87 1.87 0 0 0-1.452-.009c-.23.095-.452.24-.666.432L8.55 12.84l-1.714-1.605a2.187 2.187 0 0 0-.61-.408 1.598 1.598 0 0 0-.644-.14 1.46 1.46 0 0 0-.616.134 2.2 2.2 0 0 0-.58.404L.88 14.486c.025.89.236 1.563.631 2.019.395.457.978.685 1.749.685h15.06c.933 0 1.628-.244 2.086-.732.457-.488.666-1.2.627-2.133zM7.196 9.177c.408 0 .78-.104 1.114-.31a2.32 2.32 0 0 0 .803-.84 2.31 2.31 0 0 0 .303-1.166 2.362 2.362 0 0 0-1.106-2 2.053 2.053 0 0 0-1.114-.313c-.41 0-.782.105-1.12.314a2.348 2.348 0 0 0-1.11 2c0 .424.1.813.302 1.166.201.353.47.632.808.839.338.206.71.31 1.12.31zM3.047 18h15.906c1.009 0 1.768-.264 2.28-.792.511-.529.767-1.306.767-2.331V3.135c0-1.027-.256-1.806-.767-2.336-.512-.53-1.271-.796-2.28-.796H3.047C2.044.003 1.285.267.771.795.257 1.322 0 2.102 0 3.135v11.742c0 1.025.257 1.802.771 2.33.514.529 1.273.793 2.276.793zm.106-1.889c-.432 0-.763-.116-.99-.349-.229-.232-.343-.583-.343-1.052V3.3c0-.47.114-.821.342-1.056.228-.234.559-.352.99-.352h15.695c.427 0 .756.118.987.352.23.235.346.586.346 1.055V14.71c0 .47-.115.82-.346 1.052-.23.233-.56.35-.987.35H3.153z" fill="#fff" fill-opacity=".85"/>
</svg>
