<svg width="19" height="19" viewBox="0 0 16 16">
  <path
    d="M6.62068966,0 C10.2771956,0 13.2413793,2.96418373 13.2413793,6.62068966 C13.2413793,8.25025492 12.6526494,9.74231495 11.6762833,10.8957761 L15.8384037,15.058148 C16.0538654,15.2736097 16.0538654,15.6229421 15.8384037,15.8384037 C15.6468822,16.0299252 15.3495864,16.0512054 15.1345594,15.9022442 L15.058148,15.8384037 L10.8957761,11.6762833 C9.74231495,12.6526494 8.25025492,13.2413793 6.62068966,13.2413793 C2.96418373,13.2413793 0,10.2771956 0,6.62068966 C0,2.96418373 2.96418373,0 6.62068966,0 Z M6.62068966,1.10344828 C3.57360138,1.10344828 1.10344828,3.57360138 1.10344828,6.62068966 C1.10344828,9.66777793 3.57360138,12.137931 6.62068966,12.137931 C9.66777793,12.137931 12.137931,9.66777793 12.137931,6.62068966 C12.137931,3.57360138 9.66777793,1.10344828 6.62068966,1.10344828 Z">
  </path>
</svg>
