<svg preserveAspectRatio="xMidYMin slice" width="100%" viewBox="0 0 16 14">
  <g fill="none" fill-rule="evenodd">
    <g fill="currentColor" fill-rule="nonzero">
      <path d="M18.073 7.8l.138.005C19.213 7.877 20 8.723 20 9.75v7.298l-.005.139c-.07 1.01-.901 1.812-1.922 1.812H8.75l-.138-.005c-1.003-.072-1.79-.918-1.79-1.946V9.745L6.83 9.6c.077-1.006.906-1.8 1.922-1.8h9.322zm0 .933H8.75l-.107.006c-.49.055-.877.482-.88 1.008v6.86l3.525-3.535.003-.003c.242-.243.617-.266.884-.07l.085.073 2.05 2.072c.244.246.62.269.887.074l.085-.074.767-.772.004-.005c.241-.241.615-.264.88-.069l.085.074 2.04 2.062V9.75l-.006-.111c-.054-.512-.475-.907-.98-.907zM15.249 5l.138.005c1.003.072 1.79.918 1.79 1.946v.382h-.942v-.382l-.006-.111c-.053-.512-.474-.907-.98-.907H5.927l-.106.006c-.491.055-.878.482-.88 1.008v7.302l.006.111c.054.512.475.907.98.907l.426-.001v.934h-.426l-.138-.005C4.787 16.123 4 15.277 4 14.25V6.945l.006-.145C4.083 5.794 4.91 5 5.927 5h9.322zm-.407 5.37c.622 0 1.127.499 1.127 1.115s-.505 1.115-1.127 1.115-1.126-.5-1.126-1.115c0-.616.504-1.115 1.126-1.115z" transform="translate(-584 -591) translate(580 586)"/>
    </g>
  </g>
</svg>
