<svg xmlns="http://www.w3.org/2000/svg" width="10" height="10" viewBox="0 0 10 10">
    <g fill="none" fill-rule="evenodd">
        <g fill="#FFF">
            <g>
                <g>
                    <g>
                        <g>
                            <g>
                                <g>
                                    <path d="M8.914 8.229c.379 0 .686.307.686.685 0 .379-.307.686-.686.686H.686C.307 9.6 0 9.293 0 8.914c0-.378.307-.685.686-.685h8.228zM1.672 5.143L3.429 6.9l-1.397.374c-.101.027-.208.027-.31 0-.32-.086-.51-.415-.424-.735l.374-1.396zM8.567.328c.43.419.487 1.212.02 1.667L4.112 6.17 2.4 4.504 6.875.328c.467-.455 1.262-.42 1.692 0z" transform="translate(-35.000000, -259.000000) translate(-0.000000, 0.000000) translate(16.000000, 88.000000) translate(8.000000, 16.000000) translate(0.000000, 144.000000) translate(8.000000, 8.000000) translate(3.200000, 3.200000)"/>
                                </g>
                            </g>
                        </g>
                    </g>
                </g>
            </g>
        </g>
    </g>
</svg>
