<?xml version="1.0" encoding="UTF-8"?>
<svg width="20px" height="20px" viewBox="0 0 20 20" version="1.1" xmlns="http://www.w3.org/2000/svg" xmlns:xlink="http://www.w3.org/1999/xlink">
    <title>80ACC9D5-2C3B-40F3-A095-44BD07D80F0E</title>
    <g id="Page-1" stroke="none" stroke-width="1" fill="none" fill-rule="evenodd">
        <g id="17-Builder---Edit" transform="translate(-258.000000, -407.000000)">
            <g id="Group-10" transform="translate(242.000000, 50.000000)">
                <g id="language" transform="translate(16.000000, 357.000000)">
                    <rect id="bg-icon-copy-3" fill="#86868B" x="0" y="0" width="20" height="20" rx="5"></rect>
                    <path d="M16.2475031,10.0380462 C16.2237868,9.94120138 16.0790189,9.60372697 16.0790189,9.60372697 C16.0790189,9.60372697 15.9342509,9.41102562 15.8383977,9.36260323 C15.7425446,9.31418084 15.6694194,9.19361897 15.5004412,9.09776241 C15.3314629,9.00091763 15.2603141,8.95298934 15.1160402,8.95298934 C14.9702841,8.95298934 14.8265043,8.75979389 14.6570319,8.66344321 C14.4880536,8.56758665 14.4643374,8.61551493 14.4643374,8.61551493 C14.4643374,8.61551493 14.6570319,8.90456695 14.6570319,8.97670643 C14.6570319,9.04884591 14.8739368,9.16940778 15.0913358,9.12098539 C15.0913358,9.12098539 15.2356097,9.38632032 15.3082407,9.4584598 C15.3798835,9.53059928 15.2840304,9.60323287 15.1397565,9.69958354 C14.9949885,9.79544011 15.019693,9.77172302 14.9455797,9.8438625 C14.8739368,9.91600198 14.6328216,10.0375521 14.5606847,10.0849862 C14.4880536,10.1329145 14.1990118,10.2776876 14.055232,10.1329145 C13.9845774,10.0632456 14.0063173,9.91649608 13.9588848,9.8196513 C13.9109582,9.72330063 13.4045174,8.97621232 13.1638962,8.63923202 C13.1218987,8.5799393 13.0191283,8.39712007 12.9469914,8.35018 C12.8753485,8.3012635 13.1164637,8.3012635 13.1164637,8.3012635 C13.1164637,8.3012635 13.1164637,8.13227924 13.0917593,8.01221148 C13.067549,7.89164961 13.1164637,7.72315946 13.1164637,7.72315946 C13.1164637,7.72315946 12.8758426,7.86743841 12.8022234,7.9158608 C12.7305806,7.96428319 12.6574554,7.82000424 12.5620963,7.69894826 C12.4662432,7.5788805 12.3689077,7.43361333 12.3456855,7.31305146 C12.3214752,7.19298369 12.4662432,7.1445613 12.4662432,7.1445613 L12.6821599,7.02449354 C12.6821599,7.02449354 12.9474854,6.97656526 13.1169578,7.00028235 C13.2859361,7.02449354 13.5502735,7.04870474 13.5502735,7.04870474 C13.5502735,7.04870474 13.6229045,6.87972048 13.5255691,6.807581 C13.4307041,6.73544152 13.2118228,6.61487965 13.1159696,6.63909084 C13.0206106,6.66280793 13.1643903,6.51852898 13.2844539,6.4221783 L13.017646,6.37375591 C13.017646,6.37375591 12.7750485,6.49431778 12.7014293,6.51852898 C12.6297865,6.54224606 12.5047821,6.59066845 12.4074466,6.71123032 C12.3115934,6.83179219 12.4459855,7.00028235 12.3491442,7.04870474 C12.2537851,7.09712713 12.1880713,7.12084422 12.1159344,7.1445613 C12.0433033,7.1687725 11.8145403,7.1445613 11.8145403,7.1445613 C11.5655197,7.1445613 11.7251103,7.37185007 11.7898359,7.45238936 L11.5971413,7.21719489 L11.4543497,6.87922637 C11.4543497,6.87922637 11.2488089,6.73494741 11.1524616,6.68701913 C11.0551262,6.63909084 10.7591671,6.47010659 10.7591671,6.47010659 L10.7794247,6.68701913 L11.0580907,6.96964777 L11.0832892,6.97607115 L11.2542439,7.1687725 L10.9587789,7.19298369 L10.9587789,7.00275288 C10.4646903,6.92962519 10.7092642,6.85452107 10.6761602,6.83129809 C10.6040233,6.7833698 10.424175,6.66231383 10.424175,6.66231383 C10.424175,6.66231383 10.1331569,6.71073622 10.0610199,6.73494741 C9.98888301,6.75915861 9.96615493,6.83129809 9.82188107,6.87922637 C9.67661902,6.92764876 9.60892889,6.99978824 9.56100229,7.07192772 C9.51356979,7.1440672 9.35546144,7.36097974 9.26010235,7.45733042 C9.16375507,7.5541752 8.98242456,7.52946989 8.91028763,7.52946989 C8.83765661,7.52946989 8.48833598,7.43311922 8.48833598,7.43311922 L8.48833598,7.02449354 C8.48833598,7.02449354 8.53725075,6.79522835 8.51304041,6.72308887 L8.72451032,6.68751323 L9.07679548,6.61487965 L9.18055409,6.54224606 L9.32927475,6.34954472 C9.32927475,6.34954472 9.1627669,6.22898285 9.28233633,6.06049269 C9.34063879,5.97945931 9.54815599,5.96414202 9.64499735,5.89200254 C9.74085054,5.81986306 9.88611258,5.77144067 9.88611258,5.77144067 C9.88611258,5.77144067 10.0550909,5.62716171 10.2240692,5.45817745 C10.2240692,5.45817745 10.3441327,5.38554387 10.4889007,5.33712148 C10.4889007,5.33712148 10.8989942,5.69880709 10.9711311,5.69880709 C11.0442562,5.69880709 11.3095818,5.53031693 11.3095818,5.53031693 C11.3095818,5.53031693 11.3812246,5.3138985 11.3580025,5.24126491 C11.3337921,5.16912543 11.2132345,4.92800169 11.2132345,4.92800169 C11.2132345,4.92800169 11.1406035,5.04856356 11.0694547,5.14491424 C10.9968237,5.24126491 10.9474149,5.36182678 10.9474149,5.36182678 C10.9474149,5.36182678 10.6099524,5.3386038 10.5862361,5.26646432 C10.5615317,5.19383073 10.5140992,5.07475118 10.4898888,5.00310581 C10.4666667,4.93047222 10.273478,4.93294275 10.1296983,4.98136514 C9.98394212,5.02978753 10.1529204,4.72146538 10.1529204,4.72146538 C10.1529204,4.72146538 10.2976884,4.53963436 10.3935416,4.53963436 C10.4893947,4.53963436 10.7072878,4.41610786 10.8026469,4.39239077 C10.8994883,4.36817957 11.1895183,4.18288981 11.3090877,4.18288981 C11.4291512,4.18288981 11.5739192,4.16016094 11.6470443,4.16016094 L12.008223,4.16016094 L12.5131816,4.19425425 C12.5131816,4.19425425 12.9474854,4.39189666 12.8017293,4.48874144 C12.8017293,4.48874144 12.9716958,4.61226795 13.0443268,4.68440743 C13.1115229,4.75259406 13.2864302,4.63104398 13.3867302,4.57521 C15.1896594,5.707701 16.3962238,7.71377144 16.3962238,9.99604715 C16.3962238,10.1185854 16.3848597,10.2406296 16.3784366,10.3616856 C16.3319922,10.247053 16.263808,10.1012917 16.2475031,10.0380462 L16.2475031,10.0380462 Z M14.4880536,10.9531305 C14.4401271,11.02527 14.2953591,11.2174772 14.2227281,11.3138279 C14.1510852,11.4101786 14.055232,11.5549516 13.9104641,11.6750194 C13.7656961,11.7960754 13.764708,11.915649 13.6930651,12.013482 C13.6214223,12.1093386 13.5240868,12.3262511 13.5240868,12.3262511 C13.5240868,12.3262511 13.5730016,12.8084986 13.5967178,12.9053434 C13.6214223,13.0016941 13.4282336,13.2660408 13.4282336,13.2660408 L13.2108347,13.4829533 L12.9208047,13.8688501 L12.9435327,14.2290534 C12.9435327,14.2290534 12.7246515,14.3985318 12.6035998,14.4948825 C12.4845244,14.5912331 12.5032998,14.6633726 12.4069525,14.7602174 C12.3110993,14.8555799 12.0556555,15.0245641 11.9588142,15.0492694 C11.8634551,15.0729865 11.4538557,15.145126 11.4538557,15.145126 L11.4538557,14.9282135 L11.3199576,14.6875838 C11.3199576,14.6875838 11.1865537,14.3990259 11.1134286,14.301687 C11.0417858,14.2058305 11.0422799,14.0605633 10.9217223,13.9400014 C10.8011646,13.8199336 10.741874,13.7240771 10.7181578,13.6509494 C10.6934533,13.5788099 10.7359449,13.3623915 10.7359449,13.3623915 C10.7359449,13.3623915 10.8283395,13.0965624 10.8772543,13.0012 C10.925675,12.9048493 10.875772,12.7600762 10.8263632,12.6627373 C10.7784366,12.5663867 10.7547203,12.3252629 10.7547203,12.2531235 C10.7547203,12.1819722 10.5595553,12.059928 10.4884066,11.9882826 C10.4157755,11.915649 10.4394918,11.8188043 10.4394918,11.7234418 C10.4394918,11.6270911 10.367849,11.4091904 10.390577,11.2411943 C10.4147874,11.0727042 10.1741662,11.1922778 10.0303864,11.2411943 C9.88561849,11.2891226 9.78976531,11.1922778 9.78976531,11.0475048 C9.78976531,10.9037199 9.52493383,11.0242818 9.35546144,11.1191501 C9.18598906,11.2159949 8.9937886,11.2159949 8.80010588,11.2881344 C8.60839951,11.3602739 8.51205223,11.2159949 8.51205223,11.2159949 C8.51205223,11.2159949 8.34257985,11.0712219 8.22301041,10.9990824 C8.1024528,10.9269429 7.98189518,10.7826639 7.88505382,10.6621021 C7.78870655,10.5410461 7.54759132,10.1793605 7.52387507,10.0355756 C7.49966473,9.89030846 7.52387507,9.79346368 7.52387507,9.62497353 C7.52387507,9.45648338 7.52387507,9.3601327 7.54808541,9.23957083 C7.57180166,9.11900896 7.64393859,8.9742359 7.71656961,8.85367403 C7.78870655,8.73311216 8.05403212,8.5888332 8.12616905,8.54041081 C8.19781189,8.49248253 8.36679019,8.34820357 8.36679019,8.25135879 C8.36679019,8.15500812 8.46412564,8.10707983 8.51106406,8.01023505 C8.55997882,7.91388438 8.72895712,7.67325475 8.94586201,7.76960542 C8.94586201,7.76960542 9.13756838,7.74588833 9.20970531,7.72167714 C9.28184224,7.69746594 9.47453679,7.62582057 9.56989589,7.57739818 C9.66673725,7.52897579 9.9068643,7.50624691 9.9068643,7.50624691 C9.9068643,7.50624691 10.0961002,7.58184513 10.1682372,7.58184513 C10.2403741,7.58184513 10.4760543,7.53984612 10.4760543,7.53984612 C10.4760543,7.53984612 10.5847538,7.88917908 10.5847538,7.96181266 C10.5847538,8.03444625 10.6573849,8.10609162 10.7789307,8.15451401 C10.8985001,8.2024423 11.4533616,8.32300416 11.6944768,8.13030282 C11.7503088,8.08583327 11.9346038,8.2024423 11.9346038,8.2024423 C11.9346038,8.2024423 12.5368978,8.32300416 12.6337392,8.39514364 C12.7305806,8.46777723 12.8990648,8.51619962 12.9469914,8.5888332 C12.9964002,8.66097268 13.1638962,8.87788523 13.1876125,8.95002471 C13.2123169,9.02216418 13.3333686,9.28799322 13.3570849,9.38384979 C13.3812952,9.48020047 13.4534322,9.7213242 13.525075,9.84188607 C13.597706,9.96294205 14.0082936,10.4921296 14.1525675,10.7337474 L14.5873654,10.661608 C14.5853891,10.6640785 14.5364743,10.880991 14.4880536,10.9531305 L14.4880536,10.9531305 Z M14.4164108,13.2186066 C14.3907182,13.3144632 14.3437798,13.4834474 14.3200635,13.5797981 C14.2958532,13.6761488 14.1752956,13.8693443 14.1031586,13.9172725 C14.0315158,13.9656949 13.9104641,14.110468 13.8383272,14.1346792 C13.7666843,14.1588904 13.7177695,13.9652008 13.7419799,13.8693443 C13.7666843,13.7720054 13.8867478,13.5071645 13.8867478,13.5071645 C13.8867478,13.5071645 13.9109582,13.3628856 13.9346744,13.2665349 C13.9593789,13.1711724 14.2484207,13.0501165 14.2484207,13.0501165 L14.4421034,12.6884309 C14.4421034,12.6884309 14.4663137,12.7852756 14.4663137,12.8574151 C14.4648315,12.9290605 14.4406211,13.1222559 14.4164108,13.2186066 L14.4164108,13.2186066 Z M7.06585495,4.56681019 C6.75260279,4.9037905 6.82473972,4.80743982 6.75260279,4.9037905 C6.68046585,5.00014117 6.70418211,5.02385826 6.53470972,5.14491424 C6.36622552,5.264982 6.29408858,5.40975506 6.29408858,5.40975506 L6.02876301,5.50610574 L5.81235221,5.40975506 C5.81235221,5.40975506 5.61866949,5.48238865 5.64337392,5.38554387 C5.64979707,5.36034446 5.65967884,5.33366274 5.67104288,5.30549869 C6.26147874,4.76099386 6.95172049,4.32766288 7.71360508,4.0341639 C7.63850362,4.13051458 7.54759132,4.22933578 7.54759132,4.22933578 C7.54759132,4.22933578 7.37861302,4.22884167 7.06585495,4.56681019 L7.06585495,4.56681019 Z M6.10139404,13.8698384 L6.00504676,14.2300416 L6.10139404,14.5195878 C6.10139404,14.5195878 5.95613199,14.6401496 5.86126698,14.6401496 C5.77183695,14.6401496 5.74169755,14.6964777 5.64485618,14.6707842 C4.72585142,13.812028 4.05883183,12.6894191 3.76979001,11.421543 C3.80091759,11.4289546 3.84489148,11.4521776 3.90764073,11.5075175 C3.99855303,11.5865744 4.05240868,11.6270911 4.17346038,11.6755135 C4.29352391,11.7249241 4.3414505,11.7960754 4.48621846,11.8682149 C4.63098641,11.9413426 4.58355391,11.8929202 4.77526028,12.1093386 C4.96844891,12.3262511 4.94473266,12.3262511 4.99265926,12.446813 C5.04009176,12.5673749 5.11272278,12.6879368 5.16163755,12.7605703 C5.21005823,12.8332039 5.3543321,12.8811322 5.42646903,12.9295546 C5.49860596,12.9774829 5.61866949,13.0259053 5.69080642,13.0259053 C5.76343744,13.0259053 5.98083642,13.2428178 6.10089995,13.2665349 C6.22145756,13.2912402 6.22145756,13.5323639 6.22145756,13.5323639 L6.10139404,13.8698384 Z M3.61217575,9.8438625 C3.64527969,8.48902379 4.10132345,7.24041787 4.85382036,6.21910073 C4.87951297,6.22255947 4.89680607,6.22898285 4.89680607,6.22898285 C4.89680607,6.32533352 4.7658726,6.3485565 4.89680607,6.59066845 C5.06529028,6.90393167 4.92101641,7.04870474 4.92101641,7.04870474 C4.92101641,7.04870474 4.51092289,7.33775676 4.43878595,7.38617915 C4.36664902,7.43410743 4.17346038,7.69944237 4.294018,7.62680878 C4.41408152,7.5546693 4.55835539,7.48252982 4.43878595,7.67523117 C4.31773425,7.86842663 4.10132345,8.18119574 4.05290277,8.30225171 C4.00547027,8.42330769 3.76386095,8.7118656 3.76386095,8.85663867 C3.76386095,9.00141173 3.66800776,9.29095786 3.69172402,9.41151973 C3.70852303,9.49502365 3.65466737,9.74257076 3.61217575,9.8438625 L3.61217575,9.8438625 Z M8.65385566,5.50610574 L8.9809423,5.59899767 L8.9809423,5.16863133 L9.10841715,5.04856356 L9.24527969,5.31340439 L9.50517028,5.62716171 L9.39992942,5.77144067 L8.98044821,5.86779135 L8.98044821,5.61283264 L8.65336157,5.86779135 L8.55849656,5.72301828 L8.65385566,5.50610574 Z M9.99975296,3 C6.14042703,3 3,6.14004376 3,10 C3,13.8594621 6.14042703,17 9.99975296,17 C13.859573,17 17,13.8604503 17,10 C17,6.14004376 13.859573,3 9.99975296,3 L9.99975296,3 Z" id="Fill-1" fill="#FFFFFF"></path>
                </g>
            </g>
        </g>
    </g>
</svg>