<svg width="20" height="20" viewBox="0 0 20 20" xmlns="http://www.w3.org/2000/svg">
    <g fill="none" fill-rule="evenodd">
        <rect fill="#86868B" width="20" height="20" rx="5"/>
        <path d="M14.886 3.571c.852 0 1.543.691 1.543 1.543v9.772c0 .852-.691 1.543-1.543 1.543H5.114c-.852 0-1.543-.691-1.543-1.543V5.114c0-.852.691-1.543 1.543-1.543zm0 .814H9.604v11.23h5.282a.73.73 0 0 0 .723-.63l.006-.1v-9.77a.73.73 0 0 0-.73-.73zm-8.1 8.508a.804.804 0 1 0 0 1.607.804.804 0 0 0 0-1.607zm0-4.179-.473.957-1.056.154.764.745-.18 1.052.945-.497.944.497-.18-1.052.764-.745-1.056-.154-.472-.957zM6.684 5.18c-.196 0-.373.034-.533.103a.925.925 0 0 0-.378.286.657.657 0 0 0-.13.29l-.008.102h.572c0-.1.041-.183.124-.248a.504.504 0 0 1 .32-.098c.151 0 .263.04.337.119a.41.41 0 0 1 .104.223l.007.094v.167h-.351c-.375 0-.663.072-.865.218-.202.145-.303.353-.303.625a.7.7 0 0 0 .243.541c.161.146.37.219.626.219a.89.89 0 0 0 .669-.285c.012.073.026.133.042.18l.024.058h.583v-.04a1.146 1.146 0 0 1-.092-.417l-.004-.132V6.036c-.005-.272-.096-.483-.273-.633-.178-.15-.415-.224-.714-.224zM7.1 6.577v.48a.55.55 0 0 1-.225.222.65.65 0 0 1-.319.082.424.424 0 0 1-.293-.098.334.334 0 0 1-.11-.262c0-.135.054-.24.16-.313a.723.723 0 0 1 .358-.107l.12-.004H7.1z" fill="#FFF" fill-rule="nonzero"/>
    </g>
</svg>
