<svg xmlns="http://www.w3.org/2000/svg" width="24" height="24" viewBox="0 0 24 24">
    <g fill="none" fill-opacity=".5" fill-rule="evenodd">
        <g fill="#FFF" fill-rule="nonzero">
            <g>
                <g>
                    <path d="M21.12 0C22.71 0 24 1.29 24 2.88v18.24c0 1.59-1.29 2.88-2.88 2.88H2.88C1.29 24 0 22.71 0 21.12V2.88C0 1.29 1.29 0 2.88 0zm0 1.518h-9.857v20.963h9.857c.708 0 1.29-.54 1.356-1.23l.006-.131V2.88c0-.752-.61-1.362-1.362-1.362zM8.673 15.588H3.35c-.473 0-.856.384-.856.856 0 .473.383.856.856.856h5.323c.472 0 .855-.383.855-.856 0-.472-.383-.855-.855-.855zm0-4.444H3.35c-.473 0-.856.384-.856.856s.383.856.856.856h5.323c.472 0 .855-.384.855-.856s-.383-.856-.855-.856zm0-4.444H3.35c-.473 0-.856.383-.856.856 0 .472.383.855.856.855h5.323c.472 0 .855-.383.855-.855 0-.473-.383-.856-.855-.856z" transform="translate(-16.000000, -16.000000) translate(-0.000000, 0.000000) translate(16.000000, 16.000000)"/>
                </g>
            </g>
        </g>
    </g>
</svg>
