<svg xmlns="http://www.w3.org/2000/svg" width="16" height="16" viewBox="0 0 16 16">
    <g fill="none" fill-rule="evenodd">
        <g>
            <g>
                <g>
                    <g transform="translate(-32 -320) translate(16 88) translate(8 16) translate(8 216)">
                        <rect width="16" height="16" fill="#86868B" rx="4"/>
                        <path fill="#FFF" d="M11.667 8c-.554 0-1-.447-1-1 0-.553.446-1 1-1 .553 0 1 .447 1 1 0 .553-.447 1-1 1M9.694 5.528c-.553 0-1-.447-1-1 0-.554.447-1 1-1 .554 0 1 .446 1 1 0 .553-.446 1-1 1m-3.222.028c-.553 0-1-.447-1-1 0-.554.447-1 1-1 .554 0 1 .446 1 1 0 .553-.446 1-1 1M4.333 8c-.553 0-1-.447-1-1 0-.553.447-1 1-1 .554 0 1 .447 1 1 0 .553-.446 1-1 1M8 2C4.687 2 2 4.687 2 8s2.687 6 6 6c.553 0 1-.447 1-1 0-.26-.097-.493-.26-.67-.157-.177-.25-.407-.25-.663 0-.554.447-1 1-1h1.177c1.84 0 3.333-1.494 3.333-3.334C14 4.387 11.313 2 8 2"/>
                    </g>
                </g>
            </g>
        </g>
    </g>
</svg>
