<svg xmlns="http://www.w3.org/2000/svg" width="10" height="10" viewBox="0 0 10 10">
    <g fill="none" fill-rule="evenodd">
        <g fill="#FFF">
            <g>
                <g>
                    <g>
                        <g>
                            <g>
                                <g>
                                    <path d="M7.733 4.8c-.442 0-.8-.357-.8-.8 0-.443.358-.8.8-.8.443 0 .8.357.8.8 0 .443-.357.8-.8.8M6.155 2.822c-.442 0-.8-.357-.8-.8 0-.443.358-.8.8-.8.443 0 .8.357.8.8 0 .443-.357.8-.8.8m-2.577.023c-.443 0-.8-.358-.8-.8 0-.443.357-.8.8-.8.443 0 .8.357.8.8 0 .442-.357.8-.8.8M1.867 4.8c-.443 0-.8-.357-.8-.8 0-.443.357-.8.8-.8.442 0 .8.357.8.8 0 .443-.358.8-.8.8M4.8 0C2.15 0 0 2.15 0 4.8s2.15 4.8 4.8 4.8c.443 0 .8-.357.8-.8 0-.208-.077-.395-.208-.536-.125-.141-.2-.325-.2-.53 0-.443.357-.8.8-.8h.941c1.472 0 2.667-1.195 2.667-2.667C9.6 1.909 7.45 0 4.8 0" transform="translate(-35.000000, -291.000000) translate(-0.000000, 0.000000) translate(16.000000, 88.000000) translate(8.000000, 16.000000) translate(0.000000, 176.000000) translate(8.000000, 8.000000) translate(3.200000, 3.200000)"/>
                                </g>
                            </g>
                        </g>
                    </g>
                </g>
            </g>
        </g>
    </g>
</svg>
