<svg xmlns="http://www.w3.org/2000/svg" viewBox="-1 -1 13 13">
  <g transform="translate(-1194, -333.7)" fill="currentColor" fill-rule="nonzero">
    <path
      d="M1197.938,338.475 L1197.938,336.304 L1199.849,336.304 C1200.031,336.304 1200.2065,336.319167 1200.3755,336.3495 C1200.5445,336.379833 1200.694,336.434 1200.824,336.512 C1200.954,336.59 1201.058,336.698333 1201.136,336.837 C1201.214,336.975667 1201.253,337.153332 1201.253,337.37 C1201.253,337.760002 1201.136,338.041666 1200.902,338.215 C1200.668,338.388334 1200.369,338.475 1200.005,338.475 L1197.938,338.475 Z M1195.897,334.718 L1195.897,344 L1200.395,344 C1200.811,344 1201.21616,343.948001 1201.6105,343.844 C1202.00484,343.739999 1202.35583,343.579668 1202.6635,343.363 C1202.97117,343.146332 1203.216,342.866835 1203.398,342.5245 C1203.58,342.182165 1203.671,341.777002 1203.671,341.309 C1203.671,340.72833 1203.53017,340.232169 1203.2485,339.8205 C1202.96683,339.408831 1202.54,339.120667 1201.968,338.956 C1202.384,338.756666 1202.69817,338.501002 1202.9105,338.189 C1203.12283,337.876998 1203.229,337.487002 1203.229,337.019 C1203.229,336.585665 1203.1575,336.221668 1203.0145,335.927 C1202.8715,335.632332 1202.67,335.396168 1202.41,335.2185 C1202.15,335.040832 1201.838,334.913 1201.474,334.835 C1201.11,334.757 1200.707,334.718 1200.265,334.718 L1195.897,334.718 Z M1197.938,342.414 L1197.938,339.866 L1200.161,339.866 C1200.603,339.866 1200.95833,339.967832 1201.227,340.1715 C1201.49567,340.375168 1201.63,340.715331 1201.63,341.192 C1201.63,341.434668 1201.58883,341.633999 1201.5065,341.79 C1201.42417,341.946001 1201.31367,342.0695 1201.175,342.1605 C1201.03633,342.2515 1200.876,342.3165 1200.694,342.3555 C1200.512,342.3945 1200.32133,342.414 1200.122,342.414 L1197.938,342.414 Z"/>
  </g>
</svg>
