<svg xmlns="http://www.w3.org/2000/svg" viewBox="0.2 -1.3 12 12">
  <path
    d="M8.171,2.938 C8.10166632,2.27066333 7.86116872,1.78750149 7.4495,1.4885 C7.03783127,1.1894985 6.51133654,1.04 5.87,1.04 C5.6099987,1.04 5.35433459,1.06599974 5.103,1.118 C4.85166541,1.17000026 4.62850097,1.25666606 4.4335,1.378 C4.23849903,1.49933394 4.08250058,1.66183231 3.9655,1.8655 C3.84849942,2.06916768 3.79,2.32266515 3.79,2.626 C3.79,2.91200143 3.87449915,3.14383244 4.0435,3.3215 C4.21250085,3.49916755 4.43783192,3.64433277 4.7195,3.757 C5.00116807,3.86966723 5.31966489,3.96283296 5.675,4.0365 C6.03033511,4.11016703 6.39216483,4.1903329 6.7605,4.277 C7.12883517,4.3636671 7.49066489,4.46549941 7.846,4.5825 C8.20133511,4.69950058 8.51983193,4.85766567 8.8015,5.057 C9.08316808,5.25633433 9.30849915,5.50766515 9.4775,5.811 C9.64650084,6.11433485 9.731,6.49566437 9.731,6.955 C9.731,7.44900247 9.6205011,7.87149824 9.3995,8.2225 C9.1784989,8.57350175 8.8946684,8.85949889 8.548,9.0805 C8.2013316,9.3015011 7.81350215,9.46183283 7.3845,9.5615 C6.95549785,9.66116716 6.52866879,9.711 6.104,9.711 C5.5839974,9.711 5.09216898,9.64600065 4.6285,9.516 C4.16483101,9.38599935 3.75750176,9.18883465 3.4065,8.9245 C3.05549825,8.66016534 2.77816768,8.32216872 2.5745,7.9105 C2.37083231,7.49883127 2.269,7.01133615 2.269,6.448 L3.439,6.448 C3.439,6.83800195 3.51483257,7.17383192 3.6665,7.4555 C3.81816742,7.73716807 4.01749877,7.96899909 4.2645,8.151 C4.51150123,8.33300091 4.79966502,8.4673329 5.129,8.554 C5.45833498,8.6406671 5.7963316,8.684 6.143,8.684 C6.42033472,8.684 6.69983192,8.65800026 6.9815,8.606 C7.26316808,8.55399974 7.51666554,8.46516729 7.742,8.3395 C7.96733446,8.2138327 8.14933264,8.04266775 8.288,7.826 C8.42666736,7.60933225 8.496,7.33200169 8.496,6.994 C8.496,6.67333173 8.41150085,6.41333433 8.2425,6.214 C8.07349916,6.01466567 7.84816808,5.85216729 7.5665,5.7265 C7.28483192,5.6008327 6.96633511,5.49900039 6.611,5.421 L5.5255,5.1805 L5.5255,5.1805 C5.15716483,5.09816625 4.79533511,5.00283387 4.44,4.8945 C4.08466489,4.78616612 3.76616807,4.64316755 3.4845,4.4655 C3.20283193,4.28783244 2.97750084,4.05816807 2.8085,3.7765 C2.63949916,3.49483192 2.555,3.14166879 2.555,2.717 C2.555,2.24899766 2.65033238,1.84383504 2.841,1.5015 C3.03166762,1.15916495 3.28516509,0.877501105 3.6015,0.6565 C3.91783491,0.435498895 4.27749799,0.270833875 4.6805,0.1625 C5.08350202,0.054166125 5.49733121,-1.13686838e-13 5.922,-1.13686838e-13 C6.39866905,-1.13686838e-13 6.84066463,0.05633277 7.248,0.169 C7.65533537,0.28166723 8.0128318,0.45933212 8.3205,0.702 C8.62816821,0.94466788 8.87083244,1.25016482 9.0485,1.6185 C9.22616756,1.98683517 9.32366658,2.42666411 9.341,2.938 L8.171,2.938 Z"
    fill="currentColor"
  />
  <line x1="0.5" y1="5.003" x2="12.5" y2="5.003" id="Line" stroke="currentColor" stroke-linecap="square"/>
</svg>
