<svg xmlns="http://www.w3.org/2000/svg" viewBox="-2 -1 14 14">
  <path
    d="M8.731,5.928 C8.731,7.11533927 8.41466983,8.00583037 7.782,8.5995 C7.14933017,9.19316964 6.24800585,9.49 5.078,9.49 C3.88199402,9.49 2.94817003,9.20616951 2.2765,8.6385 C1.60482998,8.0708305 1.269,7.16733953 1.269,5.928 L1.269,1.13686838e-13 L2.504,1.13686838e-13 L2.504,5.928 C2.504,6.76000416 2.72499779,7.39049786 3.167,7.8195 C3.60900221,8.24850215 4.24599584,8.463 5.078,8.463 C5.86667061,8.463 6.46683128,8.24850215 6.8785,7.8195 C7.29016873,7.39049786 7.496,6.76000416 7.496,5.928 L7.496,1.13686838e-13 L8.731,1.13686838e-13 L8.731,5.928 Z"
    fill="currentColor"/>
  <polygon points="10 11.282 10 12.282 0 12.282 0 11.282"/>
</svg>
