<svg width="20" height="20" xmlns="http://www.w3.org/2000/svg">
  <rect fill="#86868B" x="0" y="0" width="20" height="20" rx="5"/>
  <path
    d="M7.758 0c.194 0 .351.158.351.353v3.176h1.055V1.765c0-.195.195-.353.436-.353.21 0 .386.12.426.282l.01.07-.001 1.765h1.238c.17 0 .312.121.345.282l.007.071v7.765a.352.352 0 0 1-.352.353l-3.507-.001-.008.001H.727a.352.352 0 0 1-.352-.353V.353C.375.158.532 0 .727 0zm-.353 10.551H1.078v.742h6.327v-.742zm2.181-6.317H8.109v7.059h2.813V4.235H9.6l-.014-.001zM7.405 8.938H1.078v.742h6.327v-.742zm0-1.614H1.078v.743h6.327v-.743zm1.877-2.333v2.774h-.871V4.99h.871zm1.507 0v2.774h-.872V4.99h.872zm-3.384.72H1.078v.742h6.327v-.742zm0-1.613H1.078v.742h6.327v-.742zm0-1.614H1.078v.742h6.327v-.742zm0-1.778H1.078v.907h6.327V.706z"
    fill="#FFF"
    fill-rule="nonzero"
    transform="translate(4, 4)"
  />
</svg>
