<svg width="20" height="20" xmlns="http://www.w3.org/2000/svg">
  <path
    d="m.286 6.467.471.072c1.386.234 2.786.374 4.192.42.122.004.225.09.245.207a.7.7 0 0 0 .265.482c.152.12.346.177.541.157.4.029.752-.255.794-.642a.249.249 0 0 1 .237-.204 30.944 30.944 0 0 0 4.2-.42l.483-.06a.26.26 0 0 1 .2.059.243.243 0 0 1 .086.183v3.317c-.005.464-.397.839-.877.837H.877a.89.89 0 0 1-.62-.248.832.832 0 0 1-.257-.6V6.71c0-.07.032-.137.086-.184a.26.26 0 0 1 .2-.059zm11.088-3.39c.336-.001.612.255.626.58v1.547a.838.838 0 0 1-.726.83l-.12.019a34.43 34.43 0 0 1-10.317 0l-.111-.009A.838.838 0 0 1 0 5.215V3.668a.616.616 0 0 1 .626-.592zm-3.76-1.952c.56 0 1.016.439 1.017.981v.379a.205.205 0 0 1-.208.201h-.26a.212.212 0 0 1-.148-.059.198.198 0 0 1-.06-.142v-.379a.32.32 0 0 0-.1-.231.343.343 0 0 0-.24-.095h-3.23a.343.343 0 0 0-.24.095.32.32 0 0 0-.1.231v.379c0 .11-.09.2-.205.201h-.263a.205.205 0 0 1-.208-.201v-.379c.001-.542.456-.981 1.017-.981h3.228z"
    fill="#FFF"
    fill-rule="nonzero"
    transform="translate(4, 4)"
  />
</svg>
