<svg xmlns="http://www.w3.org/2000/svg" width="16" height="16" viewBox="0 0 16 16">
  <g fill="none" fill-rule="evenodd">
    <rect width="16" height="16" fill="#86868B" rx="4"/>
    <g transform="translate(2 3)">
      <path fill="#FFF" d="M4.31199588,7.19228976 C4.23467796,7.03002974 4.23110944,6.8425339 4.30226992,6.67756259 C4.36944205,6.52169841 4.26672466,6.34518676 4.09718501,6.32697248 C3.48346965,6.26099786 2.80139266,6.21831249 2.03989861,6.19655268 C1.89659807,6.19245099 1.7777174,6.30660307 1.7777174,6.44904986 L1.7777174,6.796303 C1.7777174,6.88897336 1.7984288,6.98053139 1.83838222,7.06430317 L3.06721236,9.6418322 C3.1714691,9.86054258 3.39327707,10 3.63684601,10 L4.65457374,10 C5.11729175,10 5.4222952,9.52114522 5.22420739,9.10562329 L4.31199588,7.19228976 Z"/>
      <line x1="10.147" x2="11.23" y1="5.969" y2="6.55" stroke="#FFF" stroke-linecap="round" stroke-linejoin="round" stroke-width=".5"/>
      <line x1="10.147" x2="11.23" y1="1.753" y2="1.172" stroke="#FFF" stroke-linecap="round" stroke-linejoin="round" stroke-width=".5"/>
      <line x1="10.707" x2="12" y1="3.878" y2="3.878" stroke="#FFF" stroke-linecap="round" stroke-linejoin="round" stroke-width=".5"/>
      <path fill="#FFF" d="M4.02333065 1.78112644C3.17283354 1.86823519 2.20639453 1.91154624 1.10316228 1.91919346.902625486 1.92058386.740712666 2.08221821.740712666 2.28132391L.740712666 2.90867373.363709091 2.90867373C.162822442 2.90867373 0 3.07044712 0 3.27003946L0 4.48184517C0 4.681368.162822442 4.84314138.363709091 4.84314138L.740712666 4.84314138.740712666 5.47042168C.740712666 5.66966643.902625486 5.83130077 1.10316228 5.83262165 2.20639453 5.84026887 3.17283354 5.88357992 4.02333065 5.97068867L4.02333065 1.78112644zM9.24832871 2.73628462L9.24832871.362171549C9.24832871.0430045476 8.86453796-.118490757 8.63132472.100984351 7.69574291.981596072 6.39400302 1.48756371 4.44314247 1.73290032L4.44314247 6.01895651C6.39400302 6.26429311 7.69574291 6.77019123 8.63132472 7.65080295 8.86453796 7.8704171 9.24832871 7.70885228 9.24832871 7.38968527L9.24832871 5.01077531C9.7111167 4.83704446 10.0408199 4.3941316 10.0408199 3.87349521 10.0408199 3.35292834 9.7111167 2.91001547 9.24832871 2.73628462"/>
    </g>
  </g>
</svg>
