<svg xmlns="http://www.w3.org/2000/svg" width="13" height="13" viewBox="0 0 13 13">
  <rect width="16" height="16" fill="#86868B"/>
  <path
    fill="#FFF"
    fill-rule="nonzero"
    d="M12.508 7.705c.08-.032.432-.064.448-.193.016-.129-.321-.113-.396-.129-.076-.016-.397-.032-.207-.177.111-.096.306-.096.432-.193.127-.097-.031-.177-.158-.177s-.48.064-.432-.113c.032-.112.321-.209.396-.261.143-.097.095-.21-.079-.193-.095 0-.396.112-.48.048-.083-.064.226-.31.274-.358.047-.048.226-.246 0-.246-.143 0-.305.13-.464.13-.258 0 .032-.262.111-.327.08-.064.321-.31.063-.31-.126 0-.289.13-.396.177-.226.065-.127-.128-.047-.245.079-.117.289-.278.19-.374-.1-.097-.353.112-.432.16-.08.049-.127.081-.175.065-.047-.016 0-.129 0-.193s.258-.326.206-.439c-.051-.112-.289.08-.368.13-.08.047-.337.245-.274 0 .032-.13.19-.278.19-.403 0-.246-.225-.065-.305 0-.079.064-.368.31-.368.08 0-.145.11-.31.127-.454.031-.21-.127-.13-.207-.033-.079.097-.241.403-.352.294-.111-.108.031-.402.031-.487 0-.084-.063-.261-.174-.112-.111.149-.143.342-.258.402-.19.097-.127-.31-.127-.402 0-.093 0-.358-.174-.193-.174.164-.127.31-.226.438-.273.326-.143-.551-.29-.583-.146-.033-.241.804-.431.503-.08-.13-.032-.326-.096-.471-.063-.145-.174 0-.206.113-.031.112-.031.402-.158.402s-.175-.294-.206-.402c-.032-.11-.159-.294-.226-.08-.048.144 0 .341-.032.486-.08.23-.206-.032-.258-.129-.051-.096-.11-.374-.241-.342-.131.032-.048.374-.048.455v.193c0 .048-.143 0-.19-.064-.048-.065-.159-.359-.274-.403-.19-.064-.08.294-.08.374 0 .08.096.439-.11.294-.127-.08-.174-.294-.305-.374-.206-.129-.127.177-.095.278.031.1.206.535-.064.358-.127-.08-.206-.23-.337-.31-.13-.08-.19.032-.127.16.064.13.242.375.143.455-.099.08-.353-.177-.432-.209-.08-.032-.258-.096-.19.097.047.129.226.261.242.402.031.246-.29 0-.397-.032-.107-.032-.353-.177-.273.048.047.145.241.23.289.374.095.246-.206.097-.29.049-.083-.049-.352-.193-.368-.032-.016.16.242.293.305.358.064.064.127.112.064.177-.064.064-.143 0-.19 0-.048 0-.385-.17-.472-.089-.088.08.142.262.206.31.063.048.32.245.08.278-.144 0-.322-.08-.465-.065-.257.048.032.23.111.278.08.048.464.23.206.31-.142.048-.32-.033-.463 0-.207.048-.064.177.047.229.111.052.397.129.397.245 0 .117-.337.097-.397.113s-.368.064-.174.193c.127.08.32.065.448.129.19.097.031.177-.095.21-.127.031-.397.031-.433.176-.035.145.322.129.397.145.075.016.337.064.158.21-.11.096-.32.08-.447.16-.19.145.079.177.174.193.095.016.396-.032.396.08 0 .113-.289.23-.368.262-.08.033-.29.193-.08.246.143.032.337-.08.48-.032.226.08-.095.245-.174.31-.08.064-.397.26-.127.293.142 0 .305-.096.448-.096.257 0 .079.177 0 .261-.08.085-.353.246-.226.402.127.157.337-.032.432-.08.095-.048.305-.048.19.129-.08.112-.242.209-.29.342-.094.245.243.096.322.048.08-.048.396-.23.337 0-.048.145-.226.262-.274.402-.063.21.143.13.242.065.1-.065.396-.326.396-.129.032.113-.158.342-.206.439-.063.16.032.245.159.128.127-.116.273-.31.396-.293.175 0 0 .374-.047.454-.048.08-.08.342.11.21.128-.081.191-.278.322-.359.226-.128.11.262.079.342-.032.08-.111.439.111.294.111-.08.159-.278.274-.374.158-.161.174.064.174.193s-.048.402.08.439c.126.036.205-.21.257-.294.051-.085.19-.358.273-.129.048.129-.031.326 0 .47.048.21.175.065.226-.047.052-.113.175-.403.29-.403.115 0 .11.326.11.403 0 .076.08.358.191.16.08-.128.048-.325.111-.454.095-.21.174 0 .206.129.032.128.048.402.175.402.126 0 .126-.358.126-.439 0-.08.08-.277.19-.112.112.165.08.326.175.438.174.193.174-.128.174-.245 0-.117-.047-.402.111-.374.159.028.207.31.274.402.067.093.19.145.206-.032.016-.177-.095-.342-.032-.47.08-.194.29.176.337.245.048.068.242.293.258.048 0-.145-.111-.31-.111-.47 0-.279.242 0 .305.096.064.096.242.342.321.145.048-.113-.127-.359-.158-.455-.064-.21.095-.177.206-.065.11.113.29.326.396.23.107-.097-.095-.342-.127-.403-.031-.06-.095-.31.111-.209.096.049.29.278.397.246.19-.033-.048-.31-.08-.375-.031-.064-.273-.342 0-.293.143.032.29.193.433.193.241 0 .063-.21 0-.278-.064-.068-.397-.374-.111-.374.142 0 .289.129.432.145.142.016.158-.097.063-.21-.095-.112-.369-.26-.305-.373.063-.113.396 0 .48.032.083.032.273-.032.126-.161-.146-.129-.305-.145-.396-.278-.143-.21.273-.129.369-.129.095 0 .352.033.257-.144-.063-.097-.32-.161-.396-.23-.075-.068-.127-.193.032-.209.158-.016.396.048.48-.032.225-.193-.607-.262-.512-.455.047-.113.337-.129.448-.129.257 0 .29-.193.19-.245-.1-.052-.305-.048-.448-.097-.23-.084-.119-.18.008-.229zM6.606 4.438c.437-.18.904-.273 1.375-.274 1.79-.006 3.33 1.285 3.663 3.07.021.096 0 .196-.06.274-.059.078-.149.125-.245.129H8.604c-.249-.008-.479-.133-.623-.338l-1.538-2.39c-.047-.083-.056-.183-.024-.273.03-.09.099-.163.187-.198zM8.19 7.963c0 .084-.05.16-.127.193-.077.032-.166.014-.225-.046s-.076-.15-.044-.228c.032-.078.107-.129.19-.129.057-.002.113.02.154.06.041.04.064.096.064.154l-.012-.004zm-2.128 2.816c-.047.083-.128.14-.221.156-.093.016-.188-.012-.259-.076-.823-.696-1.312-1.718-1.342-2.806-.03-1.087.4-2.136 1.183-2.879.068-.064.16-.095.251-.086.092.01.175.058.23.134l1.513 2.342c.145.234.145.53 0 .765l-1.355 2.45zm5.6-2.145c-.19 1.088-.837 2.038-1.772 2.605-.934.566-2.065.693-3.099.349-.09-.033-.16-.104-.194-.195-.034-.09-.027-.191.02-.276l1.391-2.47c.13-.224.367-.361.622-.359h2.72c.092-.003.18.035.243.104.062.069.092.162.082.255l-.012-.013z"
    transform="translate(-1.5, -1.5)"
  />
</svg>
