<svg xmlns="http://www.w3.org/2000/svg" width="16" height="16" viewBox="0 0 16 16">
    <g fill="none" fill-rule="evenodd">
        <g>
            <g>
                <g>
                    <g transform="translate(-32 -192) translate(16 88) translate(8 16) translate(8 88)">
                        <rect width="16" height="16" fill="#86868B" rx="4"/>
                        <path fill="#FFF" fill-rule="nonzero" d="M2 14s0-1.492.73-2.14c.729-.65 1.259-.714 1.856-.974.596-.259 1.392-.13 1.723-.518.332-.39.266-1.363.266-1.363s-.398-.26-.398-.778c-.067-.454-.133-.843-.2-.908-.065-.065-.264-.195-.264-.39 0-.194-.2-.648-.2-.778s-.065-.389 0-.519c.067-.064.2-.064.2-.064-.067-.195-.133-.714-.2-1.038 0-.325-.065-.714 0-.908.067-.26.2-.649.332-.779.133.065.332 0 .332 0l.398-.389c.132-.13.596-.26.795-.26.2 0 .398-.194.796-.194.331 0 .729.13.994.26s.53.194.796.259c.199.13.331.324.464.454 0 .13.132.26.199.519.066.26.066.778 0 1.232-.067.454-.2.973-.2.973l.133-.065s.133.195.133.454c-.066.26-.199.714-.199.779 0 .065 0 .324-.132.39-.067.064-.2.064-.266.194s-.132.908-.198 1.037c-.067.13-.2.39-.398.584 0 .325 0 1.233.331 1.427.332.195.796.26 1.459.325.663.13 1.127.389 1.26.454.132.065.729.324.994.778s.464.649.464 1.881C13.204 14 2 14 2 14z"/>
                    </g>
                </g>
            </g>
        </g>
    </g>
</svg>
