<svg xmlns="http://www.w3.org/2000/svg" width="16" height="16" viewBox="0 0 16 16">
  <g fill="none" fill-rule="evenodd">
    <rect width="16" height="16" fill="#86868B" rx="4"/>
    <path fill="#FFF" fill-rule="nonzero" d="M9.7434702,12.1909873 C9.96687289,12.1909873 10.1479765,12.372091 10.1479765,12.5954937 C10.1479765,12.8188963 9.96687289,13 9.7434702,13 L6.2565298,13 C6.03312711,13 5.85202346,12.8188963 5.85202346,12.5954937 C5.85202346,12.372091 6.03312711,12.1909873 6.2565298,12.1909873 L9.7434702,12.1909873 Z M12.9575038,3 C13.5332586,3 14,3.47658857 14,4.06449038 L14,4.06449038 L14,10.3414353 C14,10.9293371 13.5332586,11.4059257 12.9575038,11.4059257 L12.9575038,11.4059257 L3.0424962,11.4059257 C2.46674145,11.4059257 2,10.9293371 2,10.3414353 L2,10.3414353 L2,4.06449038 C2,3.47658857 2.46674145,3 3.0424962,3 L3.0424962,3 Z M7.281112,5.5547769 C7.11318011,5.45598678 6.90641155,5.45608615 6.73857081,5.55503764 C6.57073006,5.65398912 6.46726804,5.83678801 6.46709524,6.03468464 L6.46709524,6.03468464 L6.46709524,8.37478932 C6.46672948,8.57291818 6.57009776,8.7561381 6.73813569,8.85520584 C6.90617362,8.95427357 7.11325241,8.95407954 7.281112,8.85469706 L7.281112,8.85469706 L9.26185477,7.68287058 C9.42881955,7.58378459 9.53155425,7.40148361 9.53155425,7.20429344 C9.53155425,7.00710328 9.42881955,6.82480229 9.26185477,6.72571631 L9.26185477,6.72571631 Z"/>
  </g>
</svg>
