<svg xmlns="http://www.w3.org/2000/svg" width="16" height="16" viewBox="0 0 16 16">
  <g fill="none" fill-rule="evenodd">
    <rect width="16" height="16" fill="#86868B" rx="4"/>
    <path fill="#FFF" d="M7.77793666,3.06949013 L2.22230166,3.06949013 C2.09051262,3.06949013 1.98398513,2.96288651 1.98398513,2.83100329 C1.98398513,2.69912007 2.09051262,2.59251645 2.22230166,2.59251645 L7.77793666,2.59251645 C7.90948738,2.59251645 8.01625319,2.69912007 8.01625319,2.83100329 C8.01625319,2.96288651 7.90948738,3.06949013 7.77793666,3.06949013 M7.77793666,4.39595395 L2.22230166,4.39595395 C2.09051262,4.39595395 1.98398513,4.28935033 1.98398513,4.15746711 C1.98398513,4.02582237 2.09051262,3.91921875 2.22230166,3.91921875 L7.77793666,3.91921875 C7.90948738,3.91921875 8.01625319,4.02582237 8.01625319,4.15746711 C8.01625319,4.28935033 7.90948738,4.39595395 7.77793666,4.39595395 M7.77793666,5.72265625 L2.22230166,5.72265625 C2.09051262,5.72265625 1.98398513,5.61605263 1.98398513,5.48416941 C1.98398513,5.35228618 2.09051262,5.24568257 2.22230166,5.24568257 L7.77793666,5.24568257 C7.90948738,5.24568257 8.01625319,5.35228618 8.01625319,5.48416941 C8.01625319,5.61605263 7.90948738,5.72265625 7.77793666,5.72265625 M9.66373537,0.625 L0.336264627,0.625 C0.150616048,0.625 0,0.775723684 0,0.961504934 L0,0.988930921 C0,1.17495066 0.150616048,1.32567434 0.336264627,1.32567434 L0.501894616,1.32567434 L0.501894616,6.87884046 C0.501894616,7.11279605 0.691594576,7.30263158 0.925383094,7.30263158 L3.53351922,7.30263158 L2.82333595,9.37150493 C2.7806773,9.49599507 2.84692929,9.63193257 2.97133052,9.67438322 C3.09549343,9.71731086 3.23133386,9.65101151 3.27423083,9.52652138 L4.03755869,7.30263158 L5.962203,7.30263158 L6.72576917,9.52652138 C6.75984843,9.62525493 6.85207693,9.6875 6.95121661,9.6875 C6.97671647,9.6875 7.00293129,9.68320724 7.02843116,9.67438322 C7.15307071,9.63193257 7.2193227,9.49599507 7.17666405,9.37150493 L6.46624246,7.30263158 L9.07437859,7.30263158 C9.30864374,7.30263158 9.4983437,7.11279605 9.4983437,6.87884046 L9.4983437,1.32567434 L9.66373537,1.32567434 C9.84938395,1.32567434 10,1.17495066 10,0.988930921 L10,0.961504934 C10,0.775723684 9.84938395,0.625 9.66373537,0.625" transform="translate(3 3)"/>
  </g>
</svg>
