<svg xmlns="http://www.w3.org/2000/svg" width="16" height="16" viewBox="0 0 16 16">
  <defs>
    <linearGradient id="automation@3x-a" x1="30.884%" x2="72.314%" y1=".484%" y2="100%">
      <stop offset="0%" stop-color="#FFF"/>
      <stop offset="100%" stop-color="#D0D0D0"/>
    </linearGradient>
    <linearGradient id="automation@3x-b" x1="50%" x2="50%" y1="0%" y2="100%">
      <stop offset="0%" stop-color="#E6E6E6"/>
      <stop offset="100%" stop-color="#FFF"/>
    </linearGradient>
    <linearGradient id="automation@3x-c" x1="105.45%" x2="0%" y1="28.462%" y2="28.462%">
      <stop offset="0%" stop-color="#CACACA"/>
      <stop offset="23.009%" stop-color="#D7D7D7"/>
      <stop offset="48.7%" stop-color="#FFF"/>
      <stop offset="81.335%" stop-color="#CFCFCF"/>
      <stop offset="100%" stop-color="#C5C5C5"/>
    </linearGradient>
  </defs>
  <g fill="none" fill-rule="evenodd">
    <rect width="16" height="16" fill="#86868B" rx="4"/>
    <g transform="translate(3 3)">
      <path fill="url(#automation@3x-a)" d="M9.90639739,8.48872006 L6.31658234,2.39406183 C6.18730526,2.17459922 5.95283423,2.05194392 5.71171712,2.05194392 L5.71171712,2.05194392 C5.59337392,2.05194392 5.47338707,2.08157453 5.36354801,2.14370773 C5.02981448,2.33255906 4.91547323,2.75081992 5.10813824,3.07787736 L8.69795329,9.17260563 C8.82723037,9.3919982 9.0617014,9.51465349 9.30281851,9.51465349 C9.42116171,9.51465349 9.54114856,9.48509293 9.65105909,9.42288968 C9.98472115,9.23403835 10.0990624,8.81577749 9.90639739,8.48872006"/>
      <path fill="#727272" d="M4.73682932,3.28805151 C4.58639911,3.03265391 4.54637967,2.73508698 4.62427465,2.45019887 C4.70216963,2.16531076 4.88854587,1.92721519 5.14917246,1.77976265 C5.32025555,1.68288528 5.51477861,1.63167967 5.71173141,1.63167967 C6.11321213,1.63167967 6.48732241,1.84329683 6.68791985,2.18387367 L7.63938199,3.79933706 C8.1592059,3.47059845 8.47378727,3.0440018 8.47378727,2.57733728 C8.47378727,1.53865498 6.91853186,0.696669464 5.00002859,0.696669464 C3.08145385,0.696669464 1.52612698,1.53865498 1.52612698,2.57733728 C1.52612698,3.61594953 3.08145385,4.45793505 5.00002859,4.45793505 C5.14145442,4.45793505 5.28059343,4.45282149 5.41766001,4.44392531 L4.73682932,3.28805151 Z"/>
      <path fill="url(#automation@3x-b)" d="M5.11762856,3.9345661 C5.07860961,3.93533663 5.03944773,3.93603712 5,3.93603712 C3.39629248,3.93603712 2.09623246,3.31134271 2.09623246,2.54073683 C2.09623246,1.77013095 3.39629248,1.14536649 5,1.14536649 C6.60370752,1.14536649 7.90376754,1.77013095 7.90376754,2.54073683 C7.90376754,2.84033517 7.70652889,3.11772807 7.37186634,3.34510619 L8.2368579,4.81360738 C9.3150959,4.3124789 10,3.56617992 10,2.73203986 C10,1.22312056 7.76141269,0 5,0 C2.23858731,0 -4.87466074e-14,1.22312056 -4.87466074e-14,2.73203986 C-4.87466074e-14,4.24102921 2.23858731,5.46414977 5,5.46414977 C5.33794986,5.46414977 5.6679673,5.44558686 5.98712232,5.4107026 L5.11762856,3.9345661 Z"/>
      <path fill="url(#automation@3x-c)" d="M6.22070005,5.8073044 C5.82943858,5.85766942 5.42116885,5.88449808 4.99996427,5.88449808 C3.68039476,5.88449808 2.48524283,5.62398692 1.5540048,5.18520179 L1.34418861,7.14313333 C1.15974187,8.86437028 2.84791899,9.99488644 4.99996427,10 C6.27851385,9.99698791 7.39326959,9.59665952 8.0489452,8.91130292 L6.22070005,5.8073044 Z"/>
    </g>
  </g>
</svg>
