<svg xmlns="http://www.w3.org/2000/svg" width="16" height="16" viewBox="0 0 16 16">
  <g fill="none" fill-rule="evenodd">
    <rect width="16" height="16" fill="#86868B" rx="4"/>
    <path fill="#FFF" fill-rule="nonzero" d="M9.96295045,1.875 L9.96295045,8.19932432 L9.26024775,8.19932432 L9.11970721,7.61554054 L9.07286036,7.61554054 C8.69808559,8.05337838 8.27646396,8.29662162 7.7143018,8.29662162 C7.15213964,8.29662162 6.77736486,8.10202703 6.44943694,7.66418919 C6.16835586,7.275 5.98096847,6.69121622 5.98096847,5.96148649 C5.98096847,5.23175676 6.12150901,4.64797297 6.44943694,4.25878378 C6.77736486,3.86959459 7.19898649,3.62635135 7.7143018,3.62635135 C8.27646396,3.62635135 8.69808559,3.82094595 9.02601351,4.25878378 L9.07286036,4.25878378 C9.03538288,3.98635135 9.02788739,3.77618919 9.02638829,3.60338919 L9.02601351,1.875 L9.96295045,1.875 Z M3.49808559,2.26418919 L5.65304054,8.24797297 L4.62240991,8.24797297 L4.62240991,8.19932432 L4.06024775,6.54527027 L1.85844595,6.54527027 L1.29628378,8.19932432 L0.3125,8.19932432 L2.46745495,2.26418919 L3.49808559,2.26418919 Z M7.94853604,4.40472973 C7.62060811,4.40472973 7.38637387,4.55067568 7.19898649,4.79391892 C7.0115991,5.03716216 6.91790541,5.475 6.91790541,5.96148649 C6.91790541,6.44797297 7.0115991,6.83716216 7.15213964,7.08040541 C7.38637387,7.3722973 7.62060811,7.51824324 7.94853604,7.51824324 C8.32331081,7.51824324 8.60439189,7.42094595 8.79177928,7.1777027 C8.97916667,6.93445946 9.07286036,6.59391892 9.07286036,6.10743243 L9.07286036,5.96148649 C9.07286036,5.3777027 8.97916667,4.98851351 8.79177928,4.74527027 C8.60439189,4.50202703 8.32331081,4.40472973 7.94853604,4.40472973 Z M2.98277027,3.04256757 C2.93592342,3.38310811 2.79538288,3.72364865 2.65484234,4.11283784 L2.13952703,5.66959459 L3.7625,5.669 L3.26385135,4.11283784 C3.2170045,4.01554054 3.17015766,3.82094595 3.12331081,3.5777027 C3.07646396,3.33445946 3.02961712,3.18851351 2.98277027,3.04256757 Z" transform="translate(3 3)"/>
  </g>
</svg>
