<svg xmlns="http://www.w3.org/2000/svg" width="16" height="16" viewBox="0 0 16 16">
  <g fill="none" fill-rule="evenodd">
    <rect width="16" height="16" fill="#86868B" rx="4"/>
    <g fill="#FFF" transform="translate(3 3)">
      <path fill-opacity=".7" d="M5.08722629,4.6307715 L7.80637074,0.884486865 C6.97957082,0.28310595 6.1091532,-3.9352894e-15 5.08722629,-3.9352894e-15 L5.08722629,4.6307715 Z"/>
      <path fill-opacity=".4" d="M5.36387137,5.09230712 L9.76354243,6.52325216 C10.3952154,4.57741799 9.73661564,2.54850739 8.08301581,1.34602249 L5.36387137,5.09230712 Z"/>
      <path d="M4.62615117,5.3692285 L4.62615117,0.738456994 C2.07124168,0.738456994 2.75195408e-14,2.81176731 2.75195408e-14,5.3692285 C2.75195408e-14,7.92668968 2.07124168,10 4.62615117,10 C6.6700972,10 8.39414931,8.74610002 9.02582223,6.80017354 L4.62615117,5.3692285 Z"/>
    </g>
  </g>
</svg>
