<svg xmlns="http://www.w3.org/2000/svg" width="16" height="16" viewBox="0 0 16 16">
  <defs>
    <linearGradient id="dashboard@3x-a" x1="51.517%" x2="51.517%" y1="94.293%" y2=".139%">
      <stop offset="0%" stop-color="#FFFEF9"/>
      <stop offset="100%" stop-color="#FFF"/>
    </linearGradient>
  </defs>
  <g fill="none" fill-rule="evenodd">
    <rect width="16" height="16" fill="#86868B" rx="4"/>
    <g transform="translate(3 2)">
      <path fill="url(#dashboard@3x-a)" d="M0.764745085,4.33275437 L3.8637121,6.17734518 C4.57689953,6.54895671 5.42310047,6.54895671 6.1362879,6.17734518 L9.23525492,4.33275437 C10.254915,3.72464751 10.254915,2.73140631 9.23525492,2.12329945 L6.1362879,0.278708643 C5.42310047,-0.092902881 4.57689953,-0.092902881 3.8637121,0.278708643 L0.764745085,2.12329945 C-0.254915028,2.73140631 -0.254915028,3.70437729 0.764745085,4.33275437 Z"/>
      <path fill="#FFF" d="M8.90203266,5.96788615 C9.13466277,5.83008866 9.42248485,5.83008866 9.65511496,5.96788615 L9.65511496,5.96788615 C9.84476256,6.0353103 9.97171156,6.2168348 9.97171156,6.42058793 C9.97171156,6.62434105 9.84476256,6.80586555 9.65511496,6.8732897 L9.65511496,6.8732897 L5.75641453,9.10977159 C5.27993875,9.35981326 4.71339681,9.35981326 4.23692103,9.10977159 L4.23692103,9.10977159 L0.338220593,6.8732897 C0.148572995,6.80586555 0.0216239937,6.62434105 0.0216239937,6.42058793 C0.0216239937,6.2168348 0.148572995,6.0353103 0.338220593,5.96788615 L0.338220593,5.96788615 C0.570850703,5.83008866 0.858672789,5.83008866 1.0913029,5.96788615 L4.23692103,7.75842302 C4.71339681,8.00846469 5.27993875,8.00846469 5.75641453,7.75842302 L8.90203266,5.96788615 Z" opacity=".5"/>
      <path fill="#FFF" d="M8.90203266,8.67058331 C9.13466277,8.53278581 9.42248485,8.53278581 9.65511496,8.67058331 L9.65511496,8.67058331 C9.84476256,8.73800746 9.97171156,8.91953195 9.97171156,9.12328508 C9.97171156,9.32703821 9.84476256,9.5085627 9.65511496,9.57598685 L9.65511496,9.57598685 L5.75641453,11.8124687 C5.27993875,12.0625104 4.71339681,12.0625104 4.23692103,11.8124687 L4.23692103,11.8124687 L0.338220593,9.57598685 C0.148572995,9.5085627 0.0216239937,9.32703821 0.0216239937,9.12328508 C0.0216239937,8.91953195 0.148572995,8.73800746 0.338220593,8.67058331 L0.338220593,8.67058331 C0.570850703,8.53278581 0.858672789,8.53278581 1.0913029,8.67058331 L4.23692103,10.4611202 C4.71339681,10.7111618 5.27993875,10.7111618 5.75641453,10.4611202 L8.90203266,8.67058331 Z" opacity=".3"/>
    </g>
  </g>
</svg>
