<svg xmlns="http://www.w3.org/2000/svg" width="16" height="16" viewBox="0 0 16 16">
  <g fill="none" fill-rule="evenodd">
    <rect width="16" height="16" fill="#86868B" rx="4"/>
    <path fill="#FFF" d="M6.97916667,0 C7.22144737,0 7.41776316,0.196315789 7.41776316,0.438596491 L7.41776316,0.438596491 L7.41776316,0.877192982 L8.38197368,0.877192982 C8.96285088,0.877192982 9.43530702,1.34964912 9.43530702,1.93070175 L9.43530702,1.93070175 L9.43530702,8.94649123 C9.43530702,9.52754386 8.96285088,10 8.38197368,10 L8.38197368,10 L1.36583333,10 C0.78495614,10 0.3125,9.52754386 0.3125,8.94649123 L0.3125,8.94649123 L0.3125,1.93070175 C0.3125,1.34964912 0.78495614,0.877192982 1.36583333,0.877192982 L1.36583333,0.877192982 L2.33004386,0.877192982 L2.33004386,0.438596491 C2.33004386,0.196315789 2.52635965,0 2.76864035,0 C3.01092105,0 3.20723684,0.196315789 3.20723684,0.438596491 L3.20723684,0.438596491 L3.20723684,0.877192982 L4.43530702,0.877192982 L4.43530702,0.438596491 C4.43530702,0.196315789 4.63162281,0 4.87390351,0 C5.11618421,0 5.3125,0.196315789 5.3125,0.438596491 L5.3125,0.438596491 L5.3125,0.877192982 L6.54057018,0.877192982 L6.54057018,0.438596491 C6.54057018,0.196315789 6.73688596,0 6.97916667,0 Z M2.33004386,1.57894737 L1.36583333,1.57894737 C1.17197368,1.57894737 1.01425439,1.73666667 1.01425439,1.93070175 L1.01425439,1.93070175 L1.01425439,8.94649123 C1.01425439,9.14035088 1.17197368,9.29824561 1.36583333,9.29824561 L1.36583333,9.29824561 L8.38197368,9.29824561 C8.57583333,9.29824561 8.73355263,9.14035088 8.73355263,8.94649123 L8.73355263,8.94649123 L8.73355263,1.93070175 C8.73355263,1.73666667 8.57583333,1.57894737 8.38197368,1.57894737 L8.38197368,1.57894737 L7.41776316,1.57894737 L7.41776316,2.01754386 C7.41776316,2.25982456 7.22144737,2.45614035 6.97916667,2.45614035 C6.73688596,2.45614035 6.54057018,2.25982456 6.54057018,2.01754386 L6.54057018,2.01754386 L6.54057018,1.57894737 L5.3125,1.57894737 L5.3125,2.01754386 C5.3125,2.25982456 5.11618421,2.45614035 4.87390351,2.45614035 C4.63162281,2.45614035 4.43530702,2.25982456 4.43530702,2.01754386 L4.43530702,2.01754386 L4.43530702,1.57894737 L3.20723684,1.57894737 L3.20723684,2.01754386 C3.20723684,2.25982456 3.01092105,2.45614035 2.76864035,2.45614035 C2.52635965,2.45614035 2.33004386,2.25982456 2.33004386,2.01754386 L2.33004386,2.01754386 L2.33004386,1.57894737 Z M6.86265789,3.69926316 C6.9995,3.56224561 7.2217807,3.56224561 7.35879825,3.69926316 C7.49581579,3.8362807 7.49581579,4.05838596 7.35879825,4.19540351 L7.35879825,4.19540351 L4.37634211,7.17785965 C4.30792105,7.24645614 4.21809649,7.28066667 4.12827193,7.28066667 C4.03844737,7.28066667 3.94862281,7.24645614 3.88020175,7.17785965 L3.88020175,7.17785965 L2.38897368,5.68663158 C2.25195614,5.54961404 2.25195614,5.32750877 2.38897368,5.19049123 C2.52581579,5.05347368 2.74827193,5.05347368 2.88511404,5.19049123 L2.88511404,5.19049123 L4.12827193,6.43364912 Z" transform="translate(3 3)"/>
  </g>
</svg>
