<svg xmlns="http://www.w3.org/2000/svg" width="16" height="16" viewBox="0 0 16 16">
  <g fill="none" fill-rule="evenodd">
    <rect width="16" height="16" fill="#86868B" rx="4"/>
    <g fill-rule="nonzero" transform="translate(2 4)">
      <path fill="#D6D6D6" d="M4,8 C4,8 4,7.00540541 4.48351648,6.57297297 C4.96703297,6.14054054 5.31868132,6.0972973 5.71428571,5.92432432 C6.10989011,5.75135135 6.63736264,5.83783784 6.85714286,5.57837838 C7.07692308,5.31891892 7.03296703,4.67027027 7.03296703,4.67027027 C7.03296703,4.67027027 6.76923077,4.4972973 6.76923077,4.15135135 C6.72527473,3.84864865 6.68131868,3.58918919 6.63736264,3.54594595 C6.59340659,3.5027027 6.46153846,3.5027027 6.46153846,3.32972973 C6.46153846,3.15675676 6.32967033,2.8972973 6.32967033,2.81081081 C6.32967033,2.72432432 6.28571429,2.55135135 6.32967033,2.46486486 C6.37362637,2.42162162 6.46153846,2.42162162 6.46153846,2.42162162 C6.41758242,2.29189189 6.37362637,1.94594595 6.32967033,1.72972973 C6.32967033,1.51351351 6.28571429,1.25405405 6.32967033,1.12432432 C6.37362637,0.994594595 6.46153846,0.691891892 6.54945055,0.605405405 C6.63736264,0.605405405 6.76923077,0.562162162 6.76923077,0.562162162 C6.81318681,0.518918919 6.94505495,0.389189189 7.03296703,0.302702703 C7.12087912,0.216216216 7.42857143,0.12972973 7.56043956,0.12972973 C7.69230769,0.12972973 7.82417582,0 8.08791209,0 C8.35164835,0 8.57142857,0.0864864865 8.74725275,0.172972973 C8.92307692,0.259459459 9.0989011,0.302702703 9.27472527,0.345945946 C9.45054945,0.389189189 9.49450549,0.562162162 9.58241758,0.648648649 C9.62637363,0.778378378 9.71428571,0.821621622 9.75824176,0.994594595 C9.8021978,1.16756757 9.8021978,1.51351351 9.75824176,1.81621622 C9.71428571,2.11891892 9.62637363,2.46486486 9.62637363,2.46486486 C9.62637363,2.46486486 9.71428571,2.42162162 9.71428571,2.42162162 C9.71428571,2.42162162 9.8021978,2.55135135 9.8021978,2.72432432 C9.75824176,2.8972973 9.67032967,3.2 9.67032967,3.24324324 C9.67032967,3.28648649 9.67032967,3.45945946 9.58241758,3.5027027 C9.49450549,3.54594595 9.45054945,3.54594595 9.40659341,3.63243243 C9.36263736,3.71891892 9.31868132,4.23783784 9.27472527,4.32432432 C9.23076923,4.41081081 9.14285714,4.58378378 9.01098901,4.71351351 C9.01098901,4.92972973 9.01098901,5.53513514 9.23076923,5.66486486 C9.45054945,5.79459459 9.75824176,5.83783784 10.1978022,5.88108108 C10.6373626,5.96756757 10.9450549,6.14054054 11.032967,6.18378378 C11.1648352,6.22702703 11.5164835,6.4 11.6923077,6.7027027 C11.8681319,7.00540541 12,7.13513514 12,7.95675676 C11.4725275,8 4,8 4,8 Z" opacity=".58"/>
      <path fill="#FFF" d="M1.24930591e-15,8 C1.24930591e-15,8 1.24930591e-15,7.00540541 0.483516484,6.57297297 C0.967032967,6.14054054 1.31868132,6.0972973 1.71428571,5.92432432 C2.10989011,5.75135135 2.63736264,5.83783784 2.85714286,5.57837838 C3.07692308,5.31891892 3.03296703,4.67027027 3.03296703,4.67027027 C3.03296703,4.67027027 2.76923077,4.4972973 2.76923077,4.15135135 C2.72527473,3.84864865 2.68131868,3.58918919 2.63736264,3.54594595 C2.59340659,3.5027027 2.46153846,3.41621622 2.46153846,3.28648649 C2.46153846,3.15675676 2.32967033,2.85405405 2.32967033,2.76756757 C2.32967033,2.68108108 2.28571429,2.50810811 2.32967033,2.42162162 C2.37362637,2.37837838 2.46153846,2.37837838 2.46153846,2.37837838 C2.41758242,2.24864865 2.37362637,1.9027027 2.32967033,1.68648649 C2.32967033,1.47027027 2.28571429,1.21081081 2.32967033,1.08108108 C2.37362637,0.908108108 2.46153846,0.648648649 2.54945055,0.562162162 C2.63736264,0.605405405 2.76923077,0.562162162 2.76923077,0.562162162 C2.81318681,0.518918919 2.94505495,0.389189189 3.03296703,0.302702703 C3.12087912,0.216216216 3.42857143,0.12972973 3.56043956,0.12972973 C3.69230769,0.12972973 3.82417582,0 4.08791209,0 C4.30769231,0 4.57142857,0.0864864865 4.74725275,0.172972973 C4.92307692,0.259459459 5.0989011,0.302702703 5.27472527,0.345945946 C5.40659341,0.432432432 5.49450549,0.562162162 5.58241758,0.648648649 C5.58241758,0.735135135 5.67032967,0.821621622 5.71428571,0.994594595 C5.75824176,1.16756757 5.75824176,1.51351351 5.71428571,1.81621622 C5.67032967,2.11891892 5.58241758,2.46486486 5.58241758,2.46486486 C5.58241758,2.46486486 5.67032967,2.42162162 5.67032967,2.42162162 C5.67032967,2.42162162 5.75824176,2.55135135 5.75824176,2.72432432 C5.71428571,2.8972973 5.62637363,3.2 5.62637363,3.24324324 C5.62637363,3.28648649 5.62637363,3.45945946 5.53846154,3.5027027 C5.49450549,3.54594595 5.40659341,3.54594595 5.36263736,3.63243243 C5.31868132,3.71891892 5.27472527,4.23783784 5.23076923,4.32432432 C5.18681319,4.41081081 5.0989011,4.58378378 4.96703297,4.71351351 C4.96703297,4.92972973 4.96703297,5.53513514 5.18681319,5.66486486 C5.40659341,5.79459459 5.71428571,5.83783784 6.15384615,5.88108108 C6.59340659,5.96756757 6.9010989,6.14054054 6.98901099,6.18378378 C7.07692308,6.22702703 7.47252747,6.4 7.64835165,6.7027027 C7.82417582,7.00540541 7.95604396,7.13513514 7.95604396,7.95675676 C7.42857143,8 1.24930591e-15,8 1.24930591e-15,8 Z"/>
    </g>
  </g>
</svg>
