<?xml version="1.0" encoding="utf-8"?>
<!-- Generator: Adobe Illustrator 25.2.1, SVG Export Plug-In . SVG Version: 6.00 Build 0)  -->
<svg version="1.1" id="Layer_1" xmlns="http://www.w3.org/2000/svg" xmlns:xlink="http://www.w3.org/1999/xlink" x="0px" y="0px"
	 viewBox="0 0 16 16" style="enable-background:new 0 0 16 16;" xml:space="preserve">
<style type="text/css">
	.st0{fill-rule:evenodd;clip-rule:evenodd;fill:#86868B;}
	.st1{fill:none;}
	.st2{fill:url(#SVGID_1_);}
	.st3{fill:url(#SVGID_2_);}
</style>
<g>
	<path class="st0" d="M4,0h8c2.2,0,4,1.8,4,4v8c0,2.2-1.8,4-4,4H4c-2.2,0-4-1.8-4-4V4C0,1.8,1.8,0,4,0z"/>
	<path class="st1" d="M11.6,4.2c0.1,0,0.1,0,0.2,0.1l0,0L14,7.6c0.1,0.2,0,0.4-0.2,0.4l0,0h-0.9l0,0l0,0.1c0,2.7-2.2,4.9-4.8,4.9
		c-1,0-2-0.3-2.7-0.9l0,0l1.3-1.9C7,10.4,7.5,10.6,8,10.6c1.4,0,2.6-1.2,2.6-2.6c0,0,0-0.1,0-0.1l0,0h-1c-0.2,0-0.3-0.2-0.2-0.3l0,0
		l2-3.2C11.5,4.3,11.5,4.2,11.6,4.2z M8,3.1c0.9,0,1.8,0.3,2.5,0.7l0,0L9.4,5.8C9,5.5,8.5,5.4,8,5.4C6.6,5.4,5.4,6.6,5.4,8l0,0h0.9
		c0.2,0,0.3,0.2,0.2,0.4l0,0l-2.2,3.2c0,0.1-0.1,0.1-0.2,0.1c-0.1,0-0.2,0-0.2-0.1l0,0L2,8.4C1.9,8.2,2.1,8,2.2,8l0,0h1
		C3.2,5.3,5.4,3.1,8,3.1z"/>
</g>
<g>
	
		<radialGradient id="SVGID_1_" cx="5.3241" cy="-7.0212" r="9.7426" gradientTransform="matrix(0.4391 -0.8984 -0.7852 -0.3838 -3.5642 13.5964)" gradientUnits="userSpaceOnUse">
		<stop  offset="1.328522e-03" style="stop-color:#FFFFFF"/>
		<stop  offset="1" style="stop-color:#FFFFFF;stop-opacity:0"/>
	</radialGradient>
	<path class="st2" d="M4.4,11.7c-0.1,0-0.1,0-0.2-0.1l0,0L2,8.4C1.9,8.3,2,8.1,2.2,8.1l0,0h0.9c0,0,0-0.1,0-0.1
		c0-2.7,2.1-4.8,4.8-4.8c1,0,1.9,0.3,2.7,0.9l0,0L9.4,5.8C9,5.5,8.5,5.4,8,5.4C6.5,5.4,5.4,6.5,5.4,8c0,0,0,0.1,0,0.1l0,0h1
		c0.2,0,0.3,0.2,0.2,0.3l0,0l-2,3.2C4.5,11.7,4.4,11.7,4.4,11.7z"/>
	
		<radialGradient id="SVGID_2_" cx="50.3383" cy="3.2566" r="9.7426" gradientTransform="matrix(-0.4391 0.8984 0.7852 0.3838 31.2602 -41.9828)" gradientUnits="userSpaceOnUse">
		<stop  offset="0" style="stop-color:#FFFFFF"/>
		<stop  offset="1" style="stop-color:#FFFFFF;stop-opacity:0"/>
	</radialGradient>
	<path class="st3" d="M11.6,4.3c0.1,0,0.1,0,0.2,0.1l0,0L14,7.6c0.1,0.2,0,0.4-0.2,0.4l0,0h-0.9c0,0,0,0.1,0,0.1
		c0,2.7-2.1,4.8-4.8,4.8c-1,0-1.9-0.3-2.7-0.9l0,0l1.2-1.8C7,10.5,7.5,10.6,8,10.6c1.4,0,2.6-1.2,2.6-2.6c0,0,0-0.1,0-0.1l0,0h-1
		c-0.2,0-0.3-0.2-0.2-0.3l0,0l1.9-3.2C11.5,4.3,11.6,4.3,11.6,4.3z"/>
</g>
</svg>
