<svg xmlns="http://www.w3.org/2000/svg" width="16" height="16" viewBox="0 0 16 16">
  <g fill="none" fill-rule="evenodd">
    <rect width="16" height="16" fill="#86868B" rx="4"/>
    <path fill="#FFF" fill-rule="nonzero" d="M0.554180739,3.35112031 C0.703495682,3.26690404 0.886932644,3.26848961 1.03474154,3.3552741 L1.03474154,3.3552741 L4.08276525,5.14110819 C4.42325927,5.34056559 4.63136504,5.7040177 4.62946675,6.09588747 L4.62946675,6.09588747 L4.62946675,9.52749023 C4.62895809,9.69630714 4.53784544,9.85211592 4.39026472,9.93651951 C4.24268401,10.0209231 4.06092211,10.0211753 3.91310332,9.93718158 L3.91310332,9.93718158 L0.86979244,8.19803596 C0.524855529,8.00102342 0.312366357,7.63653198 0.312500063,7.24208948 L0.312500063,7.24208948 L0.312500063,3.76263103 C0.312612833,3.59241613 0.404865796,3.43533658 0.554180739,3.35112031 Z M8.96525859,3.36111016 C9.11306748,3.27432567 9.29650444,3.2727401 9.44581939,3.35695637 C9.59513433,3.44117264 9.68738729,3.59825219 9.6875,3.76846709 L9.6875,3.76846709 L9.6875,7.24208948 C9.68721269,7.63611492 9.47478,8.00006456 9.13020769,8.19686875 L9.13020769,8.19686875 L6.0857186,9.93718158 C5.93797471,10.0205829 5.75664435,10.0200129 5.60943764,9.93568455 C5.46223094,9.85135617 5.37127994,9.69594784 5.3705464,9.52749023 L5.3705464,9.52749023 L5.3705464,6.10172352 C5.37047785,5.7121719 5.57782992,5.35147225 5.91605667,5.15278031 L5.91605667,5.15278031 Z M4.44800968,0.147776012 C4.79249883,-0.0492586708 5.21692696,-0.0492586708 5.5614161,0.147776012 L5.5614161,0.147776012 L8.61297444,1.89859375 C8.75914373,1.98372142 8.84890215,2.13914395 8.84890215,2.30711789 C8.84890215,2.47509182 8.75914373,2.63051435 8.61297444,2.71564202 L8.61297444,2.71564202 L5.57319818,4.50147611 C5.22277159,4.70762368 4.7866542,4.70762368 4.43622761,4.50147611 L4.43622761,4.50147611 L1.39762956,2.71214039 C1.25146026,2.62701271 1.16170185,2.47159019 1.16170185,2.30361625 C1.16170185,2.13564231 1.25146026,1.98021979 1.39762956,1.89509211 L1.39762956,1.89509211 Z" transform="translate(3 3)"/>
  </g>
</svg>
