<svg xmlns="http://www.w3.org/2000/svg" width="16" height="16" viewBox="0 0 16 16">
  <g fill="none" fill-rule="evenodd">
    <rect width="16" height="16" fill="#86868B" rx="4"/>
    <path fill="#FFF" fill-rule="nonzero" d="M5.01567398,9.6875 C5.44061303,9.6875 5.86729363,9.64485535 6.29571578,9.55956605 C6.72413793,9.47427675 7.09508882,9.35316594 7.40856844,9.19623362 L7.40856844,9.19623362 L7.07419018,8.25463974 C6.45419714,8.55485808 5.76802508,8.70496725 5.01567398,8.70496725 C4.25635667,8.70496725 3.58585859,8.54632915 3.00417973,8.22905295 C2.42250087,7.91177675 1.97143852,7.47168395 1.65099269,6.90877456 C1.33054685,6.34586517 1.17032393,5.70278384 1.17032393,4.97953057 C1.17032393,4.26992358 1.3322884,3.63537118 1.65621735,3.07587336 C1.98014629,2.51637555 2.4364333,2.07798854 3.02507837,1.76071234 C3.61372344,1.44343614 4.29118774,1.28479803 5.05747126,1.28479803 C5.82375479,1.28479803 6.50121909,1.43320142 7.08986416,1.73000819 C7.67850923,2.02681496 8.13479624,2.43961517 8.45872518,2.96840884 C8.78265413,3.49720251 8.9446186,4.10616812 8.9446186,4.79530568 C8.9446186,5.37527293 8.87669801,5.80854258 8.74085684,6.09511463 C8.60501567,6.38168668 8.41518635,6.52497271 8.17136886,6.52497271 C7.8369906,6.52497271 7.66980146,6.3066321 7.66980146,5.86995087 L7.66980146,5.86995087 L7.66980146,2.55390284 L6.24869383,2.55390284 L6.24869383,3.15775109 C5.86555207,2.70742358 5.32915361,2.48225983 4.63949843,2.48225983 C4.18669453,2.48225983 3.77742947,2.59143013 3.41170324,2.80977074 C3.04597701,3.02811135 2.75687914,3.33344705 2.54440961,3.72577784 C2.33194009,4.11810862 2.22570533,4.56331878 2.22570533,5.0614083 C2.22570533,5.56632096 2.33194009,6.01494269 2.54440961,6.40727347 C2.75687914,6.79960426 3.04771856,7.10493996 3.4169279,7.32328057 C3.78613723,7.54162118 4.19366075,7.65079148 4.63949843,7.65079148 C5.45454545,7.65079148 6.05015674,7.35398472 6.42633229,6.76037118 C6.53779171,7.05376638 6.71543016,7.27551856 6.95924765,7.42562773 C7.20306513,7.5757369 7.50261233,7.65079148 7.85788924,7.65079148 C8.2897945,7.65079148 8.66597005,7.53820961 8.98641588,7.31304585 C9.30686172,7.0878821 9.55590387,6.75866539 9.73354232,6.32539574 C9.91118077,5.89212609 10,5.37527293 10,4.77483624 C10,3.92194323 9.79101358,3.15775109 9.37304075,2.48225983 C8.95506792,1.80676856 8.37164751,1.2762691 7.62277952,0.890761463 C6.87391153,0.505253821 6.01880878,0.3125 5.05747126,0.3125 C4.06130268,0.3125 3.18007663,0.513782751 2.4137931,0.916348253 C1.64750958,1.31891376 1.05363985,1.875 0.632183908,2.58460699 C0.210727969,3.29421397 0,4.09252183 0,4.97953057 C0,5.87336245 0.208986416,6.67849345 0.626959248,7.39492358 C1.04493208,8.11135371 1.63357715,8.67255731 2.39289446,9.07853439 C3.15221177,9.48451146 4.02647161,9.6875 5.01567398,9.6875 Z M4.96342738,6.47379913 C4.5733194,6.47379913 4.25983978,6.34757096 4.02298851,6.09511463 C3.78613723,5.8426583 3.6677116,5.49808952 3.6677116,5.0614083 C3.6677116,4.63155022 3.78613723,4.2920988 4.02298851,4.04305404 C4.25983978,3.79400928 4.5733194,3.6694869 4.96342738,3.6694869 C5.34656914,3.6694869 5.66004876,3.79230349 5.90386625,4.03793668 C6.14768373,4.28356987 6.26959248,4.62472707 6.26959248,5.0614083 C6.26959248,5.50491266 6.14768373,5.85118723 5.90386625,6.10023199 C5.66004876,6.34927675 5.34656914,6.47379913 4.96342738,6.47379913 Z" transform="translate(3 3)"/>
  </g>
</svg>
