<svg xmlns="http://www.w3.org/2000/svg" width="16" height="16" viewBox="0 0 16 16">
  <g fill="none" fill-rule="evenodd">
    <rect width="16" height="16" fill="#86868B" rx="4"/>
    <g fill="#FFF" transform="translate(3.313 3)">
      <path fill-opacity=".3" d="M4.24756171,3.37204739 C4.56562891,3.15197768 5.09405974,3.15748326 5.42185244,3.384282 L9.14600208,5.96100949 C9.47379478,6.18780823 9.481752,6.55342787 9.16368479,6.77349758 L5.14957461,9.55084786 C4.83150741,9.77091757 4.30307658,9.76541199 3.97528388,9.53861325 L0.251134241,6.96188576 C-0.0766584572,6.73508702 -0.0846156785,6.36946738 0.233451527,6.14939767 L0.635611637,5.87127692 C1.83560672,5.06249987 2.46433573,4.66497081 3.8455932,3.65030071 L4.24756171,3.37204739 Z"/>
      <path fill-opacity=".6" d="M4.24756171,1.76678588 C4.56562891,1.54671618 5.09405974,1.55222176 5.42185244,1.7790205 L9.14600208,4.35574799 C9.47379478,4.58254673 9.481752,4.94816637 9.16368479,5.16823608 L5.14957461,7.94558636 C4.83150741,8.16565606 4.30307658,8.16015049 3.97528388,7.93335174 L0.251134241,5.35662425 C-0.0766584572,5.12982551 -0.0846156785,4.76420587 0.233451527,4.54413617 L0.635611637,4.26601542 C1.7846799,3.65439639 2.9371294,1.54557257 3.8455932,2.04503921 L4.24756171,1.76678588 Z"/>
      <path d="M4.24756171,0.161524381 C4.56562891,-0.0585453234 5.09405974,-0.0530397469 5.42185244,0.173758996 L9.14600208,2.75048649 C9.47379478,2.97728523 9.481752,3.34290487 9.16368479,3.56297457 L5.14957461,6.34032486 C4.83150741,6.56039456 4.30307658,6.55488898 3.97528388,6.32809024 L0.251134241,3.75136275 C-0.0766584572,3.52456401 -0.0846156785,3.15894437 0.233451527,2.93887467 L0.635611637,2.66075391 C-0.0862685361,2.03219065 -0.0360332132,1.12182145 0.792668839,0.548445091 C1.62137089,-0.0249312675 2.9371294,-0.0596889304 3.8455932,0.439777704 L4.24756171,0.161524381 Z M1.15688295,0.800443695 C0.526797842,1.23639761 0.475322988,1.92282788 0.997843623,2.41011953 L3.4833508,0.690404883 C2.77906716,0.328874489 1.78696805,0.36448978 1.15688295,0.800443695 Z"/>
    </g>
  </g>
</svg>
