<svg xmlns="http://www.w3.org/2000/svg" width="16" height="16" viewBox="0 0 16 16">
  <g fill="none" fill-rule="evenodd">
    <rect width="16" height="16" fill="#86868B" rx="4"/>
    <path fill="#FFF" fill-rule="nonzero" d="M12.838261,12.3096127 L10.5174948,9.98884643 L10.5174948,9.98884643 C11.9802823,8.24313255 11.8093216,5.65518577 10.1296028,4.11706704 C8.44988406,2.57894831 5.85692351,2.63597197 4.24644774,4.24644774 C2.63597197,5.85692351 2.57894831,8.44988406 4.11706704,10.1296028 C5.65518577,11.8093216 8.24313255,11.9802823 9.98884643,10.5174948 L9.98884643,10.5174948 L12.3043262,12.8329745 C12.3903732,12.9598713 12.5441563,13.0227528 12.6944615,12.9924999 C12.8447666,12.9622471 12.9622471,12.8447666 12.9924999,12.6944615 C13.0227528,12.5441563 12.9598713,12.3903732 12.8329745,12.3043262 L12.838261,12.3096127 Z M7.23458854,10.7659595 C5.32222159,10.7659595 3.77194188,9.21567978 3.77194188,7.30331283 C3.77194188,5.39094588 5.32222159,3.84066616 7.23458854,3.84066616 C9.14695549,3.84066616 10.6972352,5.39094588 10.6972352,7.30331283 C10.6943241,9.21447264 9.14574836,10.7630484 7.23458854,10.7659595 L7.23458854,10.7659595 Z"/>
  </g>
</svg>
