<svg xmlns="http://www.w3.org/2000/svg" width="16" height="16" viewBox="0 0 16 16">
  <g fill="none" fill-rule="evenodd">
    <rect width="16" height="16" fill="#86868B" rx="4"/>
    <path fill="#FFF" fill-rule="nonzero" d="M5.12853773,0 C5.23013729,0 5.3125,0.081402776 5.3125,0.181818189 L5.3125,9.81818181 C5.3125,9.91859722 5.23013729,10 5.12853773,10 L4.87146227,10 C4.76986271,10 4.6875,9.91859722 4.6875,9.81818181 L4.6875,0.181818189 C4.6875,0.081402776 4.76986271,0 4.87146227,0 L5.12853773,0 Z M3.25353773,1.33333366 C3.35513729,1.33333366 3.4375,1.41473643 3.4375,1.51515185 L3.4375,8.4848488 C3.4375,8.58526421 3.35513729,8.66666699 3.25353773,8.66666699 L2.99646227,8.66666699 C2.89486271,8.66666699 2.8125,8.58526421 2.8125,8.4848488 L2.8125,1.51515185 C2.8125,1.41473643 2.89486271,1.33333366 2.99646227,1.33333366 L3.25353773,1.33333366 Z M7.00353773,1.33333366 C7.10513729,1.33333366 7.1875,1.41473643 7.1875,1.51515185 L7.1875,8.4848488 C7.1875,8.58526421 7.10513729,8.66666699 7.00353773,8.66666699 L6.74646227,8.66666699 C6.64486271,8.66666699 6.5625,8.58526421 6.5625,8.4848488 L6.5625,1.51515185 C6.5625,1.41473643 6.64486271,1.33333366 6.74646227,1.33333366 L7.00353773,1.33333366 Z M1.37853773,3.16666699 C1.48013729,3.16666699 1.5625,3.24806977 1.5625,3.34848518 L1.5625,6.65151547 C1.5625,6.75193088 1.48013729,6.83333366 1.37853773,6.83333366 L1.12146227,6.83333366 C1.01986271,6.83333366 0.9375,6.75193088 0.9375,6.65151547 L0.9375,3.34848518 C0.9375,3.24806977 1.01986271,3.16666699 1.12146227,3.16666699 L1.37853773,3.16666699 Z M8.87853773,3.16666699 C8.98013729,3.16666699 9.0625,3.24806977 9.0625,3.34848518 L9.0625,6.65151547 C9.0625,6.75193088 8.98013729,6.83333366 8.87853773,6.83333366 L8.62146227,6.83333366 C8.51986271,6.83333366 8.4375,6.75193088 8.4375,6.65151547 L8.4375,3.34848518 C8.4375,3.24806977 8.51986271,3.16666699 8.62146227,3.16666699 L8.87853773,3.16666699 Z" transform="translate(3 3)"/>
  </g>
</svg>
