<svg xmlns="http://www.w3.org/2000/svg" width="16" height="16" viewBox="0 0 16 16">
  <g fill="none" fill-rule="evenodd">
    <rect width="16" height="16" fill="#86868B" rx="4"/>
    <path fill="#FFF" d="M12.7442185,3.25920988 C13.0852605,3.60482306 13.0852605,4.14484365 12.7442185,4.49045682 L4.44942861,12.7407901 C4.2789076,12.9135967 4.06575633,13 3.85260507,13 C3.6394538,13 3.42630253,12.9135967 3.25578152,12.7407901 C2.91473949,12.3951769 2.91473949,11.8551564 3.25578152,11.5095432 L11.5292563,3.25920988 C11.8702983,2.91359671 12.4031765,2.91359671 12.7442185,3.25920988 Z M10.8865969,9.69625529 C11.5909913,9.69625529 12.1655045,10.2784689 12.1655045,10.9923047 C12.1655045,11.7061405 11.5909913,12.2883541 10.8865969,12.2883541 C10.1824512,12.288102 9.60768927,11.7061405 9.60768927,10.9923047 C9.60768927,10.2784689 10.1822024,9.69625529 10.8865969,9.69625529 Z M4.9183614,3.86403294 C5.62275584,3.86403294 6.197269,4.44624658 6.197269,5.16008235 C6.197269,5.87391813 5.62275584,6.45613177 4.9183614,6.45613177 C4.21421578,6.45587962 3.6394538,5.87391813 3.6394538,5.16008235 C3.6394538,4.44624658 4.21396696,3.86403294 4.9183614,3.86403294 Z"/>
  </g>
</svg>
