<svg xmlns="http://www.w3.org/2000/svg" width="16" height="16" viewBox="0 0 16 16">
  <g fill="none" fill-rule="evenodd">
    <rect width="16" height="16" fill="#86868B" rx="4"/>
    <g fill="#FFF" transform="matrix(-1 0 0 1 12 3)">
      <path d="M4.86813187,1.95399252e-14 L4.86813187,1.24171341 C4.86813187,2.0627231 5.58791209,2.73074962 6.47252747,2.73074962 L8,2.73074962 L8,9.16114227 C8,9.6236614 7.59450549,10 7.09615385,10 L0.901648352,10 C0.404395604,9.99898011 -1.4968767e-13,9.62264151 -1.4968767e-13,9.16114227 L-1.4968767e-13,0.838857726 C-1.4968767e-13,0.377358491 0.40467033,0.00101988781 0.901098901,1.95399252e-14 L4.86813187,1.95399252e-14 Z M6.38951185,6.22755987 L1.57864245,6.22755987 C1.4016281,6.22755987 1.25812963,6.37105834 1.25812963,6.54807269 L1.25812963,6.54807269 C1.25812963,6.73276554 1.4016281,6.87626402 1.57864245,6.87626402 L1.57864245,6.87626402 L6.38951185,6.87626402 C6.56652619,6.87626402 6.71002467,6.73276554 6.71002467,6.5557512 L6.71002467,6.5557512 C6.71002467,6.37105834 6.56652619,6.22755987 6.38951185,6.22755987 L6.38951185,6.22755987 Z M1.57864245,4.41118824 L6.38951185,4.41118824 C6.56652619,4.41118824 6.71002467,4.55468672 6.71002467,4.73170106 L6.71002467,4.73937957 C6.71002467,4.91639391 6.56652619,5.05989239 6.38951185,5.05989239 L1.57864245,5.05989239 C1.4016281,5.05989239 1.25812963,4.91639391 1.25812963,4.73937957 L1.25812963,4.73170106 C1.25812963,4.55468672 1.4016281,4.41118824 1.57864245,4.41118824 Z"/>
      <path d="M7.97335165,2.19046405 C7.9760989,2.19760326 7.97747253,2.21111678 7.97994505,2.22080571 L6.47252747,2.22080571 C5.89065934,2.22080571 5.41758242,1.78174401 5.41758242,1.24171341 L5.41758242,0.0101988781 C5.45521978,0.0142784294 5.48104396,0.0188679245 5.49450549,0.0232024477 L7.97335165,2.19046405 Z"/>
    </g>
  </g>
</svg>
