<svg xmlns="http://www.w3.org/2000/svg" width="16" height="16" viewBox="0 0 16 16">
  <g fill="none" fill-rule="evenodd">
    <rect width="16" height="16" fill="#86868B" rx="4"/>
    <path fill="#FFF" fill-rule="nonzero" d="M12.4444444,7.44444444 L8.55555556,7.44444444 L8.55555556,3.55555556 C8.55555556,3.24873069 8.30682486,3 8,3 C7.69317514,3 7.44444444,3.24873069 7.44444444,3.55555556 L7.44444444,7.44444444 L3.55555556,7.44444444 C3.24873069,7.44444444 3,7.69317514 3,8 C3,8.30682486 3.24873069,8.55555556 3.55555556,8.55555556 L7.44444444,8.55555556 L7.44444444,12.4444444 C7.44444444,12.7512693 7.69317514,13 8,13 C8.30682486,13 8.55555556,12.7512693 8.55555556,12.4444444 L8.55555556,8.55555556 L12.4444444,8.55555556 C12.7512693,8.55555556 13,8.30682486 13,8 C13,7.69317514 12.7512693,7.44444444 12.4444444,7.44444444 Z"/>
  </g>
</svg>
