<svg xmlns="http://www.w3.org/2000/svg" width="16" height="16" viewBox="0 0 16 16">
  <g fill="none" fill-rule="evenodd">
    <rect width="16" height="16" fill="#86868B" rx="4"/>
    <path fill="#FFF" fill-rule="nonzero" d="M12.5080232,7.70501486 C12.587302,7.6728265 12.9400924,7.64063814 12.9559482,7.5118847 C12.9718039,7.38313127 12.6348692,7.39922544 12.5595544,7.38313127 C12.4842396,7.36703709 12.1631606,7.35094291 12.3534296,7.20609529 C12.4644199,7.10953021 12.6586528,7.10953021 12.7854989,7.01296513 C12.9123449,6.91640005 12.7537874,6.83592915 12.6269413,6.83592915 C12.5000953,6.83592915 12.1473048,6.90030587 12.1948721,6.7232699 C12.2265836,6.61061064 12.5159511,6.51404556 12.5912659,6.46173947 C12.7339677,6.3651744 12.6864004,6.25251514 12.5119871,6.26860932 C12.4168526,6.26860932 12.1155933,6.38126858 12.0323506,6.31689186 C11.9491079,6.25251514 12.2582951,6.0070789 12.3058624,5.95879636 C12.3534296,5.91051382 12.5318068,5.71336012 12.3058624,5.71336012 C12.1631606,5.71336012 12.0006391,5.84211355 11.8420816,5.84211355 C11.5844256,5.84211355 11.8737931,5.58058313 11.9530719,5.51620641 C12.0323506,5.45182969 12.2741508,5.20639345 12.0164949,5.20639345 C11.8896489,5.20639345 11.7271274,5.33514689 11.6201011,5.38342943 C11.3941566,5.44780615 11.493255,5.25467599 11.5725338,5.13799319 C11.6518126,5.02131039 11.8619013,4.86036859 11.7628028,4.76380351 C11.6637044,4.66723843 11.4100124,4.87646277 11.3307336,4.92474531 C11.2514548,4.97302785 11.2038876,5.00521621 11.1563203,4.98912203 C11.1087531,4.97302785 11.1563203,4.86036859 11.1563203,4.79599187 C11.1563203,4.73161515 11.4139763,4.47008473 11.3624451,4.35742547 C11.3109139,4.24476621 11.0730776,4.43789637 10.9937989,4.48617891 C10.9145201,4.53446145 10.6568641,4.73161515 10.7202871,4.48617891 C10.7519986,4.35742547 10.9105562,4.20855431 10.9105562,4.08382442 C10.9105562,3.83838817 10.6846117,4.0194477 10.6053329,4.08382442 C10.5260542,4.14820113 10.2366867,4.39363738 10.2366867,4.16429531 C10.2366867,4.0194477 10.347677,3.85448235 10.3635327,3.70963474 C10.3952442,3.5004104 10.2366867,3.5808813 10.1574079,3.67744638 C10.0781292,3.77401145 9.9156077,4.07980087 9.80461744,3.97116516 C9.69362717,3.86252944 9.83632894,3.56881066 9.83632894,3.48431622 C9.83632894,3.39982178 9.77290593,3.2227858 9.66191567,3.37165696 C9.5509254,3.52052812 9.5192139,3.71365828 9.40425969,3.77401145 C9.21399067,3.87057653 9.27741367,3.46419849 9.27741367,3.37165696 C9.27741367,3.27911543 9.27741367,3.01356146 9.1030004,3.1785268 C8.92858712,3.34349215 8.97615438,3.48833976 8.87705593,3.6170932 C8.6035442,3.94300034 8.73435416,3.06586755 8.58768845,3.03367919 C8.44102274,3.00149083 8.34588823,3.83838817 8.1556192,3.5366223 C8.07634044,3.40786887 8.1239077,3.21071516 8.06048469,3.06586755 C7.99706168,2.92101993 7.88607142,3.06586755 7.85435991,3.1785268 C7.82264841,3.29118606 7.82264841,3.5808813 7.69580239,3.5808813 C7.56895637,3.5808813 7.52138911,3.28716252 7.48967761,3.1785268 C7.4579661,3.06989109 7.33112009,2.88480802 7.26373314,3.09805591 C7.21616588,3.24290352 7.26373314,3.44005722 7.23202164,3.58490484 C7.15274287,3.8142469 7.02589686,3.55271648 6.97436566,3.4561514 C6.92283447,3.35958633 6.8633754,3.08196173 6.73256544,3.11415008 C6.60175548,3.14633844 6.68499818,3.48833976 6.68499818,3.56881066 C6.68499818,3.64928156 6.68499818,3.71365828 6.68499818,3.76194082 C6.68499818,3.81022336 6.54229641,3.76194082 6.49472916,3.6975641 C6.4471619,3.63318738 6.33617163,3.3394686 6.22121743,3.29520961 C6.0309484,3.23083289 6.14193867,3.58892839 6.14193867,3.66939929 C6.14193867,3.74987019 6.23707318,4.10796568 6.0309484,3.96311807 C5.90410239,3.88264717 5.85653513,3.66939929 5.72572517,3.58892839 C5.51960039,3.46017495 5.59887915,3.76596437 5.63059066,3.86655299 C5.66230216,3.96714161 5.83671544,4.40168447 5.56716765,4.22464849 C5.44032163,4.14417759 5.36104287,3.99530643 5.23023292,3.91483553 C5.09942296,3.83436463 5.03996389,3.94702389 5.1033869,4.07577733 C5.16680991,4.20453076 5.34518712,4.449967 5.24608867,4.5304379 C5.14699022,4.6109088 4.89329818,4.35340193 4.81401942,4.32121357 C4.73474066,4.28902521 4.55636345,4.22464849 4.62375039,4.41777865 C4.67131765,4.54653208 4.84969486,4.67930907 4.86555061,4.82013314 C4.89726212,5.06556938 4.57618314,4.82013314 4.46915681,4.78794478 C4.36213048,4.75575642 4.11636632,4.6109088 4.19564508,4.83622732 C4.24321234,4.98107494 4.4374453,5.06556938 4.48501256,5.210417 C4.58014707,5.45585324 4.27888778,5.30698208 4.19564508,5.25869954 C4.11240238,5.210417 3.84285459,5.06556938 3.82699884,5.22651118 C3.81114309,5.38745298 4.06879906,5.52022996 4.13222207,5.58460668 C4.19564508,5.6489834 4.25906809,5.69726594 4.19564508,5.76164265 C4.13222207,5.82601937 4.05294331,5.76164265 4.00537605,5.76164265 C3.9578088,5.76164265 3.62087406,5.59265377 3.53366743,5.67312467 C3.44646079,5.75359556 3.6763692,5.93465509 3.7397922,5.98293763 C3.80321521,6.03122017 4.06087119,6.22837387 3.81907097,6.26056223 C3.6763692,6.26056223 3.49799198,6.18009133 3.35529021,6.19618551 C3.09763424,6.24446805 3.38700172,6.42552757 3.46628048,6.47381011 C3.54555924,6.52209265 3.93006123,6.70315217 3.67240526,6.78362307 C3.52970349,6.83190561 3.35132628,6.75143471 3.2086245,6.78362307 C3.00249973,6.83190561 3.1452015,6.96065905 3.25619176,7.01296513 C3.36718203,7.06527121 3.65258557,7.14171857 3.65258557,7.25840137 C3.65258557,7.37508418 3.31565083,7.35496645 3.25619176,7.37106063 C3.19673269,7.38715481 2.88754552,7.43543735 3.08177849,7.56419079 C3.2086245,7.64466169 3.40285747,7.62856751 3.52970349,7.69294423 C3.71997251,7.7895093 3.56141499,7.8699802 3.43456897,7.90216856 C3.30772296,7.93435692 3.03817517,7.93435692 3.00249973,8.07920454 C2.96682428,8.22405216 3.32357871,8.20795798 3.39889353,8.22405216 C3.47420835,8.24014634 3.73582827,8.28842888 3.55745105,8.43327649 C3.44646079,8.52984157 3.23637207,8.51374739 3.10952605,8.59421829 C2.91925703,8.73906591 3.18880481,8.77125427 3.28393933,8.78734845 C3.37907384,8.80344263 3.68033313,8.75516009 3.68033313,8.86781935 C3.68033313,8.98047861 3.39096566,9.09716141 3.31168689,9.12934977 C3.23240813,9.16153813 3.02231942,9.32247993 3.23240813,9.37478601 C3.3751099,9.40697437 3.56934287,9.29431511 3.71204464,9.34259765 C3.93798911,9.42306855 3.61691013,9.58803389 3.53763136,9.65241061 C3.4583526,9.71678733 3.14123756,9.91394103 3.41078535,9.94612939 C3.55348712,9.94612939 3.71600858,9.84956431 3.85871035,9.84956431 C4.11636632,9.84956431 3.93798911,10.0266003 3.85871035,10.1110947 C3.77943159,10.1955892 3.50591986,10.356531 3.63276588,10.5134492 C3.7596119,10.6703675 3.96970061,10.4812609 4.06483513,10.4329783 C4.15996964,10.3846958 4.37005836,10.3846958 4.25510415,10.5617318 C4.17582539,10.674391 4.01330393,10.7709561 3.96573667,10.9037331 C3.87060216,11.1491693 4.2075369,11.0002982 4.28681566,10.9520156 C4.36609442,10.9037331 4.68320946,10.7226736 4.62375039,10.9520156 C4.57618314,11.0968632 4.39780592,11.213546 4.35023867,11.3543701 C4.28681566,11.5635945 4.49294044,11.4831236 4.59203889,11.4187468 C4.69113734,11.3543701 4.98843269,11.0928397 4.98843269,11.2899934 C5.0201442,11.4026527 4.82987517,11.6319947 4.78230791,11.7285598 C4.71888491,11.8895016 4.81401942,11.973996 4.94086544,11.8573132 C5.06771145,11.7406304 5.21437716,11.5475003 5.33725924,11.5635945 C5.51167252,11.5635945 5.33725924,11.9377841 5.28969199,12.018255 C5.24212473,12.0987259 5.21041322,12.3602564 5.40068225,12.2274794 C5.52752827,12.1470085 5.59095128,11.9498548 5.72176123,11.8693839 C5.9477057,11.7406304 5.8327515,12.1309143 5.80104,12.2113852 C5.76932849,12.2918561 5.69004973,12.6499516 5.91203026,12.505104 C6.02302053,12.4246331 6.07058778,12.2274794 6.18554199,12.1309143 C6.34409951,11.9699725 6.35995526,12.195291 6.35995526,12.3240445 C6.35995526,12.4527979 6.31238801,12.7263989 6.43923402,12.7626108 C6.56608004,12.7988228 6.6453588,12.5533865 6.69689,12.4688921 C6.74842119,12.3843976 6.88715902,12.1107966 6.97040172,12.3401386 C7.01796898,12.4688921 6.93869022,12.6660458 6.97040172,12.8108934 C7.01796898,13.0201177 7.144815,12.8752701 7.19634619,12.7626108 C7.24787739,12.6499516 7.37075947,12.3602564 7.48571367,12.3602564 C7.60066787,12.3602564 7.59670394,12.6861635 7.59670394,12.7626108 C7.59670394,12.8390582 7.6759827,13.1207063 7.78697296,12.9235526 C7.86625172,12.7947992 7.83454022,12.5976455 7.89796323,12.4688921 C7.99309774,12.2596677 8.0723765,12.4688921 8.10408801,12.5976455 C8.13579951,12.7263989 8.15165527,13 8.27850128,13 C8.4053473,13 8.4053473,12.6419045 8.4053473,12.5614336 C8.4053473,12.4809627 8.48462606,12.283809 8.59561633,12.4487743 C8.70660659,12.6137397 8.67489509,12.7746815 8.7700296,12.8873407 C8.94444288,13.0804709 8.94444288,12.7585873 8.94444288,12.6419045 C8.94444288,12.5252217 8.89687562,12.23955 9.05543314,12.2677148 C9.21399067,12.2958796 9.26155792,12.5775278 9.32894487,12.6700693 C9.39633182,12.7626108 9.5192139,12.8149169 9.53506965,12.637881 C9.5509254,12.460845 9.43993513,12.2958796 9.50335814,12.1671262 C9.5826369,11.973996 9.79272562,12.3441622 9.84029288,12.4125624 C9.88786014,12.4809627 10.0820931,12.7062812 10.0979489,12.460845 C10.0979489,12.3159974 9.98695859,12.151032 9.98695859,11.9900902 C9.98695859,11.7124656 10.2287588,11.9900902 10.2921818,12.0866553 C10.3556048,12.1832204 10.533982,12.4286566 10.6132608,12.2315029 C10.6608281,12.1188437 10.4864148,11.8734074 10.4547033,11.7768423 C10.3912803,11.567618 10.5498378,11.5998064 10.6608281,11.7124656 C10.7718183,11.8251249 10.9501955,12.0383728 11.0572219,11.9418077 C11.1642482,11.8452426 10.9620873,11.5998064 10.9303758,11.5394532 C10.8986643,11.4791 10.8352413,11.2296402 11.0413661,11.3302289 C11.1365006,11.3785114 11.3307336,11.6078535 11.4377599,11.5756651 C11.6280289,11.5434767 11.3901927,11.2658521 11.3584812,11.2014754 C11.3267697,11.1370987 11.0849694,10.8594741 11.3584812,10.9077566 C11.5011829,10.939945 11.6478486,11.1008868 11.7905504,11.1008868 C12.0323506,11.1008868 11.8539734,10.8916625 11.7905504,10.8232622 C11.7271274,10.7548619 11.3941566,10.4490725 11.6795601,10.4490725 C11.8222619,10.4490725 11.9689276,10.5778259 12.1116294,10.5939201 C12.2543312,10.6100143 12.2701869,10.497355 12.1750524,10.3846958 C12.0799179,10.2720365 11.8064062,10.1231654 11.8698292,10.0105061 C11.9332522,9.89784685 12.266223,10.0105061 12.3494657,10.0426945 C12.4327084,10.0748828 12.6229774,10.0105061 12.4763117,9.88175267 C12.329646,9.75299923 12.1710885,9.73690505 12.0799179,9.60412807 C11.9372161,9.39490373 12.3534296,9.47537463 12.4485641,9.47537463 C12.5436986,9.47537463 12.8013546,9.50756299 12.7062201,9.33052702 C12.6427971,9.23396194 12.3851411,9.16958522 12.3098263,9.10118495 C12.2345115,9.03278469 12.1829803,8.9080548 12.3415378,8.89196062 C12.5000953,8.87586644 12.7379316,8.94024316 12.8211743,8.85977226 C13.0471188,8.6666421 12.2146918,8.59824184 12.3098263,8.40511168 C12.3573935,8.29245242 12.646761,8.27635824 12.7577513,8.27635824 C13.0154073,8.27635824 13.0471188,8.08322808 12.9480203,8.030922 C12.8489219,7.97861592 12.6427971,7.98263946 12.5000953,7.93435692 C12.2701869,7.84986248 12.3811772,7.7532974 12.5080232,7.70501486 Z M6.60571942,4.43789637 C7.04255887,4.25757008 7.50962368,4.16466519 7.98120593,4.16427167 C9.77145259,4.15790231 11.3114466,5.44868639 11.6438847,7.2342601 C11.6651772,7.33001226 11.6433595,7.43041573 11.5843593,7.50819159 C11.5253591,7.58596744 11.4353041,7.63303803 11.3386615,7.6366146 L8.6035442,7.6366146 C8.35540762,7.62907146 8.12507842,7.5039849 7.98120593,7.29863682 L6.44319796,4.90865113 C6.39633168,4.82557598 6.38732475,4.72593466 6.418515,4.63558991 C6.44970525,4.54524517 6.51801703,4.47310586 6.60571942,4.43789637 Z M8.19129465,7.96252174 C8.19129465,8.04714508 8.14107396,8.12343587 8.0640504,8.15581982 C7.98702685,8.18820377 7.89836891,8.17030342 7.83941764,8.11046568 C7.78046636,8.05062794 7.7628312,7.96063683 7.7947354,7.88245505 C7.8266396,7.80427327 7.90180018,7.7532974 7.98516987,7.7532974 C8.04224938,7.75110949 8.09774595,7.77260698 8.13887694,7.81283831 C8.18000793,7.85306963 8.20322714,7.90856617 8.20318651,7.96654528 L8.19129465,7.96252174 Z M6.06265991,10.7790032 C6.01593121,10.8621617 5.93476619,10.9195131 5.84171267,10.9351251 C5.74865916,10.9507371 5.65362959,10.9229467 5.5830234,10.8594741 C4.7599245,10.1626162 4.2711345,9.14064172 4.24080466,8.05312922 C4.21047482,6.96561673 4.64152361,5.91721137 5.42446588,5.17420509 C5.49195712,5.11037407 5.58323557,5.07909179 5.67503296,5.08833256 C5.76683035,5.09757333 5.85027747,5.14644434 5.90410239,5.22248763 L7.41832672,7.56419079 C7.56255989,7.79798754 7.56255989,8.09486758 7.41832672,8.32866433 L6.06265991,10.7790032 Z M11.6637044,8.63445374 C11.4723258,9.72208192 10.8257391,10.672046 9.89124349,11.2385506 C8.95674785,11.8050553 7.8261652,11.9324366 6.79202451,11.5877357 C6.70222417,11.5550412 6.63110837,11.4839532 6.59752677,11.3933139 C6.56394517,11.3026746 6.57128882,11.2016367 6.61761124,11.116981 L8.0089535,8.64652438 C8.13820458,8.42259788 8.37561922,8.28598872 8.63129177,8.28842888 L11.3505533,8.28842888 C11.4425889,8.28549366 11.5313366,8.32330944 11.5937301,8.39204751 C11.6561236,8.46078558 11.6860007,8.55365731 11.6755962,8.64652438 L11.6637044,8.63445374 Z"/>
  </g>
</svg>
