<svg xmlns="http://www.w3.org/2000/svg" width="16" height="16" viewBox="0 0 16 16">
  <g fill="none" fill-rule="evenodd">
    <rect width="16" height="16" fill="#86868B" rx="4"/>
    <path fill="#FFF" d="M9.49275,7.26633333 C9.37166667,7.46008333 9.14166667,7.678 8.80266667,7.92008333 C8.57025,8.09208333 8.42308333,8.22283333 8.36141667,8.31233333 C8.29958333,8.40191667 8.26875,8.51941667 8.26875,8.66475 L8.26875,8.88266667 L7.30625,8.88266667 L7.30625,8.61383333 C7.30625,8.38133333 7.35583333,8.17925 7.45516667,8.00725 C7.55441667,7.83541667 7.736,7.65258333 7.99991667,7.45883333 C8.25416667,7.27716667 8.42175,7.1295 8.503,7.01566667 C8.58408333,6.90191667 8.62475,6.77483333 8.62475,6.63433333 C8.62475,6.47691667 8.56666667,6.35708333 8.45025,6.27475 C8.33408333,6.19241667 8.17175,6.15125 7.96358333,6.15125 C7.60041667,6.15125 7.18633333,6.26991667 6.72141667,6.50725 L6.32558333,5.71175 C6.8655,5.40908333 7.43825,5.25775 8.0435,5.25775 C8.54241667,5.25775 8.93891667,5.37758333 9.23316667,5.61733333 C9.52725,5.857 9.67441667,6.17666667 9.67441667,6.57625 C9.67441667,6.84258333 9.61383333,7.07258333 9.49275,7.26633333 M8.29416667,10.577 C8.18266667,10.6871667 8.02775,10.74225 7.82925,10.74225 C7.62591667,10.74225 7.46841667,10.6884167 7.35708333,10.5806667 C7.24566667,10.4729167 7.19,10.321 7.19,10.1248333 C7.19,9.92141667 7.2445,9.76766667 7.35341667,9.6635 C7.46241667,9.55941667 7.621,9.50733333 7.82925,9.50733333 C8.03016667,9.50733333 8.18575,9.56066667 8.296,9.66716667 C8.40616667,9.77375 8.46116667,9.92625 8.46116667,10.1248333 C8.46116667,10.3160833 8.4055,10.4669167 8.29416667,10.577 M8,3 C5.23858333,3 3,5.23858333 3,8 C3,10.7614167 5.23858333,13 8,13 C10.7614167,13 13,10.7614167 13,8 C13,5.23858333 10.7614167,3 8,3"/>
  </g>
</svg>
