<svg xmlns="http://www.w3.org/2000/svg" width="16" height="16" viewBox="0 0 16 16">
  <g fill="none" fill-rule="evenodd">
    <rect width="16" height="16" fill="#86868B" rx="4"/>
    <path fill="#FFF" d="M9.435214,12.2283093 C9.82167463,11.7678091 10.1372518,11.1229765 10.3501229,10.3546381 C11.1237062,10.1406202 11.7720297,9.82254863 12.2333903,9.43306427 C11.786992,10.7438578 10.7470439,11.782718 9.435214,12.2283093 M3.76660973,9.43310838 C4.22797029,9.82254863 4.87629376,10.1406202 5.64983294,10.3546381 C5.86270408,11.1229765 6.17828123,11.7678091 6.56474187,12.2283093 C5.25295605,11.782718 4.21300796,10.7438578 3.76660973,9.43310838 M6.58650124,3.75836972 C6.19019813,4.22045785 5.86667638,4.87468572 5.64983294,5.6572714 C4.87157113,5.8726567 4.22011396,6.19333069 3.75822376,6.58603502 C4.20228275,5.25618632 5.25604562,4.20268184 6.58650124,3.75836972 M12.2417321,6.58603502 C11.779886,6.19333069 11.1284289,5.8726567 10.3501229,5.6572714 C10.1332795,4.87468572 9.80980187,4.22045785 9.41349876,3.75836972 C10.7439544,4.20263773 11.7977173,5.25618632 12.2417321,6.58603502 M10.4904334,6.25737727 C11.673958,6.64342111 12.4674911,7.29006219 12.4674911,8.00595474 C12.4674911,8.7218914 11.673958,9.36853249 10.4904334,9.75457633 C10.5948607,9.21265052 10.6517088,8.62410127 10.6517088,8.00595474 C10.6517088,7.38785232 10.5948607,6.79930307 10.4904334,6.25737727 M7.99997793,3.54126417 C8.716316,3.54126417 9.36340364,4.33430374 9.74968773,5.51713643 C9.20738053,5.41272992 8.61855329,5.35591725 7.99997793,5.35591725 C7.38144671,5.35591725 6.79257533,5.41272992 6.25026813,5.51713643 C6.63655222,4.33430374 7.28363986,3.54126417 7.99997793,3.54126417 M5.50956662,9.75457633 C4.32604196,9.36853249 3.53246472,8.7218914 3.53246472,8.00595474 C3.53246472,7.29006219 4.32604196,6.64342111 5.50956662,6.25737727 C5.40509514,6.79930307 5.34829125,7.38785232 5.34829125,8.00595474 C5.34829125,8.62410127 5.40509514,9.21265052 5.50956662,9.75457633 M7.99997793,10.1266817 C7.32137671,10.1266817 6.67230292,10.0504168 6.08943412,9.91531031 C5.95424352,9.33280402 5.87793123,8.68413392 5.87793123,8.00595474 C5.87793123,7.32777557 5.95424352,6.67910547 6.08943412,6.09659918 C6.67230292,5.96153677 7.32137671,5.88522782 7.99997793,5.88522782 C8.67862329,5.88522782 9.32769708,5.96153677 9.91052174,6.09659918 C10.0457123,6.67910547 10.1220688,7.32777557 10.1220688,8.00595474 C10.1220688,8.68413392 10.0457123,9.33280402 9.91052174,9.91531031 C9.32769708,10.0504168 8.67862329,10.1266817 7.99997793,10.1266817 M8.12148617,12.4627939 C8.08110112,12.4638966 8.0406278,12.46447 7.99997793,12.46447 C7.9593722,12.46447 7.91889888,12.4638966 7.87851383,12.4627939 C7.21090264,12.3789423 6.61457216,11.6103392 6.25026813,10.4948172 C6.79257533,10.5991796 7.38144671,10.6559922 7.99997793,10.6559922 C8.61855329,10.6559922 9.20738053,10.5991796 9.74968773,10.4948172 C9.3853837,11.6103833 8.78909736,12.3789423 8.12148617,12.4627939 M13,7.99691235 C13,5.24158617 10.7570188,3 7.99997793,3 C5.24298117,3 3,5.24158617 3,7.99691235 C3,10.6980283 5.15572298,12.9051652 7.83804051,12.9909135 C7.89157828,12.9966918 7.94555742,13 7.99997793,13 C8.05444258,13 8.10842172,12.9966918 8.16195949,12.9909135 C10.844277,12.9051652 13,10.6980283 13,7.99691235"/>
  </g>
</svg>
