<svg xmlns="http://www.w3.org/2000/svg" width="16" height="16" viewBox="0 0 16 16">
    <g fill="none" fill-rule="evenodd">
        <g>
            <g>
                <g>
                    <g transform="translate(-32 -328) translate(16 88) translate(8 16) translate(8 224)">
                        <rect width="16" height="16" fill="#86868B" rx="4"/>
                        <g fill="#FFF">
                            <path d="M8 0c.368 0 .667.298.667.667l-.001.666h.656c.743 0 1.345.602 1.345 1.345v6.644c0 .743-.602 1.345-1.345 1.345H1.345C.602 10.667 0 10.065 0 9.322V2.678c0-.743.602-1.345 1.345-1.345H2V.667C2 .298 2.298 0 2.667 0c.368 0 .666.298.666.667v.666h4V.667C7.333.298 7.632 0 8 0zM2.667 6.667c-.369 0-.667.298-.667.666 0 .369.298.667.667.667.368 0 .666-.298.666-.667 0-.368-.298-.666-.666-.666zm2.666 0c-.368 0-.666.298-.666.666 0 .369.298.667.666.667C5.702 8 6 7.702 6 7.333c0-.368-.298-.666-.667-.666zM2.667 4C2.298 4 2 4.298 2 4.667c0 .368.298.666.667.666.368 0 .666-.298.666-.666 0-.369-.298-.667-.666-.667zm2.666 0c-.368 0-.666.298-.666.667 0 .368.298.666.666.666.369 0 .667-.298.667-.666C6 4.298 5.702 4 5.333 4zM8 4c-.368 0-.667.298-.667.667 0 .368.299.666.667.666.368 0 .667-.298.667-.666C8.667 4.298 8.368 4 8 4z" transform="translate(2.667 2.667)"/>
                        </g>
                    </g>
                </g>
            </g>
        </g>
    </g>
</svg>
