<svg xmlns="http://www.w3.org/2000/svg" width="16" height="16" viewBox="0 0 16 16">
  <g fill="none" fill-rule="evenodd">
    <rect width="16" height="16" fill="#86868B" rx="4"/>
    <path fill="#F9F9F9" d="M12.2415179,4.56251063 C12.9256994,5.19099094 12.9834619,6.77708592 12.9834619,6.77708592 C13.1352414,8.10328073 12.2712222,13 9.18869207,13 C8.09323791,13 7.05127265,12.6794349 6.19177216,12.244409 L6.19177216,12.244409 L6.78337276,9.3727892 C7.34383279,9.69019183 10.2512192,10.0868941 11.5939764,7.54787714 C12.2469473,6.31318978 12.3408944,5.30480566 12.2415179,4.56251063 Z M5.58651036,4.18241299 L4.32172721,10.8530708 C3.10370745,9.50127028 2.99357705,7.9989296 3.00026754,7.66122599 C3.00912982,7.21314217 3.15362342,5.14757677 5.58651036,4.18241299 L5.58651036,4.18241299 Z M9.18867456,4 C9.41054667,4 10.0877575,4.17002497 10.0527288,5.25818481 C9.99402059,7.08224675 8.6515787,8.08059939 7.99769699,8.08059939 C7.3438503,8.08059939 7.11031361,7.74054945 7.11031361,7.74054945 C7.4030539,4.19351514 8.75291188,4.00856058 9.12187035,4.00023562 Z"/>
  </g>
</svg>
