<svg xmlns="http://www.w3.org/2000/svg" width="16" height="16" viewBox="0 0 16 16">
  <g fill="none" fill-rule="evenodd">
    <rect width="16" height="16" fill="#86868B" rx="4"/>
    <path fill="#F9F9F9" d="M7.60695436,2.38046658 C7.67027312,2.38046658 7.73400357,2.40125405 7.79501684,2.44187326 C7.32502532,2.65580109 6.82119243,3.19468258 6.60842823,4.27069335 C6.29743349,4.36387859 5.99343757,4.45483376 5.7124966,4.5390987 C5.96173703,3.71835177 6.55350806,2.38046658 7.60695436,2.38046658 M8.04269282,2.77941091 C8.13293646,2.99803782 8.19156189,3.31176147 8.19156189,3.73515697 C8.19156189,3.75674091 8.19131487,3.77657264 8.19115019,3.7966433 C7.83429258,3.90352757 7.44647548,4.01965072 7.05775264,4.13609245 C7.27586888,3.32139858 7.68501182,2.92794978 8.04269282,2.77941091 M9.12462844,3.51716723 C8.96167939,3.56598992 8.77658112,3.62142319 8.57592076,3.6814759 C8.57608544,3.64412216 8.57616777,3.60724629 8.57616777,3.56702531 C8.57616777,3.21626651 8.52585859,2.93384355 8.44516628,2.70988039 C8.76949995,2.74930491 8.98555772,3.10627607 9.12462844,3.51716723 M7.64721817,2 C7.83873889,2 8.06064274,2.09947724 8.23964792,2.32853771 C8.2575155,2.32750232 8.27546542,2.32686515 8.29283897,2.32686515 C8.92248598,2.32686515 9.28024932,2.84551668 9.4830505,3.40996438 C9.69021565,3.34800017 9.81528872,3.31064643 9.82286392,3.308496 C9.87333778,3.29408017 10.0035159,3.27448737 10.0702105,3.33900023 C10.1368229,3.40351309 10.743909,3.98643854 10.743909,3.98643854 C10.743909,3.98643854 10.7511323,3.98695657 10.7642968,3.98790094 L10.9043186,3.99795004 C11.1587163,4.01621477 11.6292114,4.05003186 11.6592726,4.05246467 C11.7006068,4.05580978 11.750669,4.08639365 11.7585736,4.14174728 C11.7663958,4.19702126 13,12.2646331 13,12.2646331 L13,12.2646331 L9.48568535,13 L3,11.8245916 C3,11.8245916 3.83228351,5.59822463 3.86381938,5.37872162 C3.9055653,5.08881198 3.91561067,5.07909523 4.23368657,4.98256487 C4.28539552,4.96687471 4.69033915,4.84549496 5.26020799,4.67465535 C5.47988868,3.77338682 6.18059432,2 7.64721817,2 Z M7.34235573,5.72962079 C5.8428719,5.72962079 5.09999068,6.72751773 5.09999068,7.75867257 C5.09999068,8.98377853 6.32689215,9.01703643 6.32689215,9.76270097 C6.32689215,9.94298118 6.19890602,10.1896173 5.88451754,10.1896173 C5.40322552,10.1896173 4.83294502,9.70178145 4.83294502,9.70178145 L4.83294502,9.70178145 L4.54238843,10.6580261 C4.54238843,10.6580261 5.09726245,11.330859 6.18221567,11.330859 C7.08638348,11.330859 7.75696658,10.6525897 7.75696658,9.5992096 C7.75696658,8.26033923 6.26141461,8.04136473 6.26141461,7.46982449 C6.26141461,7.36509408 6.29487556,6.94929037 6.95984171,6.94929037 C7.41328973,6.94929037 7.78328598,7.14603964 7.78328598,7.14603964 L7.78328598,7.14603964 L8.20560007,5.8945512 C8.20560007,5.8945512 7.92009874,5.72962079 7.34235573,5.72962079 Z"/>
  </g>
</svg>
