<svg xmlns="http://www.w3.org/2000/svg" width="16" height="16" viewBox="0 0 16 16">
  <g fill="none" fill-rule="evenodd">
    <rect width="16" height="16" fill="#86868B" rx="4"/>
    <path fill="#FFF" d="M12.2229335,7.53083417 L10.3456724,9.40735492 C9.30950599,10.4441354 7.62866448,10.4441354 6.59249806,9.40735492 C6.42917795,9.24476183 6.30160113,9.06138129 6.18942061,8.87216886 L7.06167077,7.99989956 C7.10309047,7.95809139 7.15430782,7.9341936 7.20321832,7.90594134 C7.26345573,8.1120792 7.36876752,8.3070976 7.53076573,8.46909455 C8.04825278,8.98678494 8.8903324,8.98616287 9.40740474,8.46909455 L11.283966,6.59247012 C11.8017382,6.07477973 11.8017382,5.23299178 11.283966,4.71561242 C10.7668677,4.19815531 9.92509916,4.19815531 9.40740474,4.71561242 L8.73997215,5.3836619 C8.19858712,5.17275484 7.61500479,5.11606887 7.04710389,5.19929641 L8.4690334,3.77735205 C9.50582189,2.74088265 11.186145,2.74088265 12.2229335,3.77735205 C13.2590222,4.81382145 13.2590222,6.49433885 12.2229335,7.53083417 Z M7.26021577,10.6165519 L6.59249806,11.2846014 C6.07511468,11.8016697 5.23300914,11.8016697 4.71562576,11.2846014 C4.19816463,10.766911 4.19816463,9.92514899 4.71562576,9.40735492 L6.59249806,7.53083417 C7.11027023,7.01304011 7.95165002,7.01304011 8.46913707,7.53083417 C8.63072056,7.69252008 8.73603235,7.88751256 8.7969696,8.09326164 C8.84629481,8.06480202 8.89681233,8.04142262 8.93823203,8.00000324 L9.81048219,7.1280709 C9.69900151,6.93821048 9.57072485,6.75547793 9.40740474,6.59254788 C8.37123832,5.55607848 6.69039681,5.55607848 5.65391935,6.59254788 L3.77735809,8.46909455 C2.74088064,9.50587498 2.74088064,11.1860814 3.77735809,12.2228618 C4.81375779,13.2590461 6.49436603,13.2590461 7.53086941,12.2228618 L8.95321362,10.8005286 C8.38489801,10.8841709 7.80128976,10.827148 7.26021577,10.6165519 Z"/>
  </g>
</svg>
