<svg xmlns="http://www.w3.org/2000/svg" width="16" height="16" viewBox="0 0 16 16">
  <g fill="none" fill-rule="evenodd">
    <rect width="16" height="16" fill="#86868B" rx="4"/>
    <path fill="#FFF" d="M7.10334593,4.53775271 C7.08895485,4.20385692 6.99586257,3.87266839 6.82361936,3.5735158 L5.30401151,0.932580552 C5.18798345,0.731340654 5.10793308,0.515662019 5.06386041,0.294117647 L5,0.404664228 C4.6240331,1.05801708 4.6240331,1.86342788 5,2.51723195 L6.21604605,4.62979966 C6.59201295,5.28315251 6.59201295,6.08856332 6.21604605,6.74236738 L6.15218564,6.85246275 C6.10811297,6.63136959 6.02761288,6.41569095 5.91203454,6.21399985 L4.79897464,4.2801115 L4.08841518,3.04514827 C3.97238712,2.84390837 3.89233675,2.62822974 3.84781436,2.40668536 L3.78440367,2.51723195 C3.40978593,3.16832874 3.40843677,3.97058107 3.7808059,4.6230315 L3.7808059,4.6230315 L5,6.74236738 C5.37641662,7.39572023 5.37641662,8.20113103 5,8.8549351 L4.93658931,8.96503047 C4.89206692,8.74393731 4.81201655,8.52825867 4.69643821,8.32656756 L3.17683037,5.68608352 C2.97310667,5.33188325 2.87956467,4.93301314 2.89665407,4.53820392 C1.27001259,4.96459788 0.147058824,5.87017742 0.147058824,6.91833949 C0.147058824,8.37665193 2.32011153,9.55882353 5,9.55882353 C7.68033819,9.55882353 9.85294118,8.37665193 9.85294118,6.91833949 C9.85294118,5.86972621 8.73043713,4.96414667 7.10334593,4.53775271 L7.10334593,4.53775271 Z" transform="translate(3 3)"/>
  </g>
</svg>
