<svg xmlns="http://www.w3.org/2000/svg" width="16" height="16" viewBox="0 0 16 16">
  <g fill="none" fill-rule="evenodd">
    <rect width="16" height="16" fill="#86868B" rx="4"/>
    <path fill="#F9F9F9" d="M6.63697353,4.00005485 L6.63697353,10.2378673 C6.63697353,11.7291664 6.38324679,12 4.79768949,12 C3.21199801,12 3,11.7450736 3,10.2378673 L3,8.53511238 L4.63547076,8.53511238 L4.63547076,10.2378673 C4.63547076,10.3553886 4.60742798,10.6064753 4.82559809,10.6064753 C5.0158596,10.6064753 5.00150277,10.3699244 5.00150277,10.2378673 L5.00150277,4.00005485 L6.63697353,4.00005485 Z M10.0620295,4 L10.0620295,5.35937907 L9.3205732,5.35937907 L9.3205732,11.9686793 L7.68496827,11.9686793 L7.68496827,5.35937907 L6.94337775,5.35937907 L6.94337775,4 L10.0620295,4 Z M12.1214158,4.00002743 L12.1214158,10.5647601 L13,10.5647601 L13,11.9687067 L10.4859451,11.9687067 L10.4859451,4.00002743 L12.1214158,4.00002743 Z"/>
  </g>
</svg>
