<svg xmlns="http://www.w3.org/2000/svg" width="16" height="16" viewBox="0 0 16 16">
  <defs>
    <linearGradient id="pos@3x-a" x1="27.342%" x2="73.96%" y1="-7.019%" y2="110.296%">
      <stop offset="0%" stop-color="#FFF"/>
      <stop offset="100%" stop-color="#EEE"/>
    </linearGradient>
  </defs>
  <g fill="none" fill-rule="evenodd">
    <rect width="16" height="16" fill="#86868B" rx="4"/>
    <g fill-rule="nonzero" transform="translate(3 3)">
      <path fill="url(#pos@3x-a)" d="M5,-5.32907052e-15 C7.65112038,-5.32907052e-15 9.87983736,2.11201695 9.9953023,4.78229803 L10,5 C10,7.65112038 7.84104934,9.87983736 5.21399668,9.9953023 L5,10 C2.34887962,10 0.12016264,7.88798305 0.00469770151,5.21770197 L-5.32907052e-15,5 C-5.32907052e-15,2.34887962 2.11201695,0.12016264 4.78229803,0.00469770151 L5,-5.32907052e-15 Z M5,3.51485149 L4.8536314,3.52192506 C4.08492925,3.59673165 3.51485149,4.25451369 3.51485149,5 L3.51485149,5 L3.52192506,5.1463686 C3.59673165,5.91507075 4.25451369,6.48514851 5,6.48514851 L5,6.48514851 L5.13862998,6.47807494 C5.87121861,6.40326835 6.48514851,5.74548631 6.48514851,5 L6.48514851,5 L6.47807494,4.8536314 C6.40326835,4.08492925 5.74548631,3.51485149 5,3.51485149 L5,3.51485149 Z"/>
      <path fill="#2F2F2F" d="M5,6.48514851 L5,6.48514851 C4.20792079,6.48514851 3.51485149,5.84158416 3.51485149,5 L3.51485149,5 C3.51485149,4.20792079 4.15841584,3.51485149 5,3.51485149 L5,3.51485149 C5.79207921,3.51485149 6.48514851,4.15841584 6.48514851,5 L6.48514851,5 C6.48514851,5.79207921 5.79207921,6.48514851 5,6.48514851 Z" opacity=".518"/>
    </g>
  </g>
</svg>
