<svg xmlns="http://www.w3.org/2000/svg" width="16" height="16" viewBox="0 0 16 16">
  <g fill="none" fill-rule="evenodd">
    <rect width="16" height="16" fill="#86868B" rx="4"/>
    <path fill="#F9F9F9" fill-rule="nonzero" d="M8.94822548,2.64705882 C9.44819993,2.64705882 9.85294118,3.05120271 9.85294118,3.55043928 L9.85294118,6.56170747 C9.85294118,7.06094403 9.44819993,7.46508794 8.94822548,7.46508794 L6.11503686,7.46508794 L6.50390588,8.41601473 L4.7936758,7.46508794 L1.05180344,7.46508794 C0.551828983,7.46508794 0.147058824,7.06094403 0.147058824,6.56170747 L0.147058824,3.55043928 C0.143119702,3.05516491 0.54786093,2.64705882 1.04783539,2.64705882 L8.94822548,2.64705882 Z M4.32961308,3.18285226 C4.21519414,3.19073158 4.12839357,3.24588679 4.06921134,3.3561972 C3.82459155,3.80137852 3.6509904,4.52233587 3.5484079,5.52300891 C3.39847964,5.14480178 3.27222426,4.69962046 3.17358724,4.175646 C3.13018695,3.94320619 3.02365898,3.83289578 2.85005783,3.84471475 C2.73169341,3.85259407 2.6330564,3.93138722 2.55414678,4.08109421 L2.55414678,4.08109421 L1.69008653,5.72393145 C1.54804922,5.1526811 1.41390288,4.45536169 1.29159298,3.63197324 C1.26397462,3.42711104 1.14955568,3.33255926 0.948336165,3.34831789 C0.837862708,3.3561972 0.755007613,3.39559378 0.699770887,3.47044727 C0.644534157,3.54136111 0.620861271,3.63197324 0.636643195,3.73440434 C0.869426553,5.21177596 1.08642799,6.20850934 1.2876475,6.7246045 C1.36655711,6.91370807 1.45730317,7.00432019 1.56383115,6.99644088 C1.72954133,6.98462191 1.92681536,6.75612175 2.15959872,6.31094044 C2.19454441,6.23890099 2.23496545,6.15657019 2.28086186,6.06394803 L2.43497716,5.75520751 C2.52024786,5.58540023 2.61783811,5.3924374 2.72774793,5.17631904 C2.94080388,5.92091434 3.23276945,6.48034574 3.59969915,6.85461319 C3.70228165,6.96098398 3.80880962,7.00825985 3.91139212,7.00038054 C4.00213816,6.99250123 4.07315682,6.94522531 4.12050261,6.85855284 C4.1599574,6.78369938 4.17573932,6.6970269 4.16784836,6.59853546 C4.14417548,6.24002661 4.17968479,5.73969008 4.27832181,5.09752589 C4.3809043,4.4356634 4.50715971,3.95896482 4.66103343,3.67530947 C4.69259727,3.61621461 4.70443374,3.55711974 4.70048826,3.48620591 C4.69259727,3.39559378 4.65314247,3.32074028 4.57817833,3.26164542 C4.50321423,3.20255055 4.42035913,3.17497295 4.32961308,3.18285226 Z M8.33427591,3.60833529 C7.95550976,3.60833529 7.64776228,3.80531818 7.40708794,4.19928394 C7.20192295,4.53415484 7.09934046,4.90448266 7.09934046,5.3102674 C7.09934046,5.61362104 7.16246816,5.87363845 7.28872353,6.09031962 C7.43076085,6.33851805 7.63987132,6.48822505 7.92000045,6.5473199 C7.99496459,6.56307852 8.06598321,6.57095783 8.1330564,6.57095783 C8.51576802,6.57095783 8.8235155,6.37397497 9.06024432,5.9800092 C9.26540935,5.64119864 9.36799185,5.27087082 9.36799185,4.86508609 C9.37193732,4.55779279 9.30486414,4.30171504 9.17860877,4.08897353 C9.03657145,3.84077509 8.82746098,3.6910681 8.54733185,3.63197324 C8.47236771,3.61621461 8.40134909,3.60833529 8.33427591,3.60833529 Z M5.86440505,3.60833529 C5.4856389,3.60833529 5.17789138,3.80531818 4.93721708,4.19928394 C4.73205209,4.53415484 4.6294696,4.90448266 4.6294696,5.3102674 C4.6294696,5.61362104 4.69259727,5.87363845 4.81885267,6.09031962 C4.96088996,6.33851805 5.17000043,6.48822505 5.45012955,6.5473199 C5.52509369,6.56307852 5.59611236,6.57095783 5.6631855,6.57095783 C6.04589712,6.57095783 6.35364464,6.37397497 6.59037347,5.9800092 C6.79553845,5.64119864 6.89812095,5.27087082 6.89812095,4.86508609 C6.89812095,4.55779279 6.83499328,4.30171504 6.70873788,4.08897353 C6.56670059,3.84077509 6.35364464,3.6910681 6.07746099,3.63197324 C6.00249685,3.61621461 5.93147819,3.60833529 5.86440505,3.60833529 Z M8.68147822,5.1802587 C8.62624147,5.4402761 8.52760446,5.63331933 8.38162169,5.76332803 C8.26720272,5.86575913 8.16067475,5.90909537 8.06203774,5.88939708 C7.9673462,5.86969879 7.88843658,5.78696598 7.82925439,5.63331933 C7.78190861,5.51118994 7.75823573,5.38906055 7.75823573,5.27481048 C7.75823573,5.17631904 7.76612669,5.0778276 7.78585409,4.98721547 C7.82136344,4.82568951 7.88843658,4.6681032 7.99496459,4.51839621 C8.12516544,4.32535298 8.26325724,4.24655983 8.40529457,4.27413744 C8.4999861,4.29383572 8.57889572,4.37656853 8.63807791,4.53021518 C8.6854237,4.65234457 8.70909657,4.77447396 8.70909657,4.88872403 C8.70909657,4.99115513 8.70120561,5.08964657 8.68147822,5.1802587 Z M6.20766184,5.1802587 C6.15242514,5.4402761 6.05378812,5.63331933 5.90780532,5.76332803 C5.79338639,5.86575913 5.68685841,5.90909537 5.5882214,5.88939708 C5.49352986,5.86969879 5.41462024,5.78696598 5.35543802,5.63331933 C5.30809227,5.51118994 5.28441939,5.38906055 5.28441939,5.27481048 C5.28441939,5.17631904 5.29231035,5.0778276 5.31203775,4.98721547 C5.34754706,4.82568951 5.41462024,4.6681032 5.52114822,4.51839621 C5.65134906,4.32535298 5.78944091,4.24655983 5.93147819,4.27413744 C6.02616973,4.29383572 6.10507935,4.37656853 6.16426157,4.53021518 C6.21160732,4.65234457 6.2352802,4.77447396 6.2352802,4.88872403 C6.23922568,4.99115513 6.22738924,5.08964657 6.20766184,5.1802587 L6.20766184,5.1802587 L6.20766184,5.1802587 Z" transform="translate(3 3)"/>
  </g>
</svg>
