<svg xmlns="http://www.w3.org/2000/svg" width="16" height="16" viewBox="0 0 16 16">
  <g fill="none" fill-rule="evenodd">
    <rect width="16" height="16" fill="#86868B" rx="4"/>
    <g transform="translate(2 6)">
      <path fill="#FFF" d="M10.8908451,4 L10.3794014,3.38 L9.87103873,4 L8.80193662,4 L9.84639085,2.73 L8.80193662,1.46 L9.90492958,1.46 L10.4225352,2.08 L10.9216549,1.46 L11.9845951,1.46 L10.9432218,2.72666667 L12,4 L10.8908451,4 Z M6.75,4 L6.75,0 L8.80193662,0 L8.80193662,0.893333333 L7.61883803,0.893333333 L7.61883803,1.46 L8.80193662,1.46 L8.80193662,2.32 L7.61883803,2.32 L7.61883803,3.10666667 L8.80193662,3.10666667 L8.80193662,4 L6.75,4 L6.75,4 Z"/>
      <path fill="#FDFDFE" d="M5.94813322,0 L5.94813322,1.58004827 L5.93954179,1.58004827 C5.76198557,1.34835076 5.5386084,1.27111826 5.28086551,1.27111826 C4.74819686,1.27111826 4.35012728,1.68302494 4.21552821,2.22687047 C4.05801867,1.6315366 3.64849385,1.2614642 3.03277471,1.2614642 C2.53447179,1.2614642 2.14499364,1.51890587 1.94166313,1.93081255 L1.94166313,1.41271118 L0.913555367,1.41271118 L0.913555367,0.862429606 L2.03044124,0.862429606 L2.03044124,0 L0,0 L0,3.8616251 L0.913555367,3.8616251 L0.913555367,2.23652454 L1.82997454,2.23652454 C1.80133644,2.35559131 1.78415359,2.48109413 1.78415359,2.61946903 C1.78415359,3.42397426 2.33114128,3.99034594 3.0299109,3.99034594 C3.61699194,3.99034594 4.00647009,3.68141593 4.20980059,3.11504425 L3.42798048,3.11504425 C3.32201952,3.28559936 3.24183284,3.33386967 3.0299109,3.33386967 C2.78362325,3.33386967 2.57170132,3.0925181 2.57170132,2.80933226 L4.16970725,2.80933226 C4.23843869,3.44971842 4.67946542,4 5.28659313,4 C5.55006364,4 5.79062367,3.85518906 5.93667798,3.61061947 L5.94526941,3.61061947 L5.94526941,3.8616251 L6.75,3.8616251 L6.75,0 L5.94813322,0 L5.94813322,0 Z M2.5974756,2.24939662 C2.64902418,2.00482703 2.81798897,1.84392599 3.0299109,1.84392599 C3.26187951,1.84392599 3.42225286,1.99839099 3.46521001,2.24939662 L2.5974756,2.24939662 L2.5974756,2.24939662 Z M5.45842172,3.27594529 C5.16058549,3.27594529 4.97730165,2.96379726 4.97730165,2.64199517 C4.97730165,2.29444891 5.13767501,1.96299276 5.45842172,1.96299276 C5.79062367,1.96299276 5.92235893,2.29766693 5.92235893,2.64199517 C5.92522274,2.97023331 5.78489605,3.27594529 5.45842172,3.27594529 L5.45842172,3.27594529 Z"/>
    </g>
  </g>
</svg>
