<svg xmlns="http://www.w3.org/2000/svg" width="16" height="16" viewBox="0 0 16 16">
  <g fill="none" fill-rule="evenodd">
    <rect width="16" height="16" fill="#86868B" rx="4"/>
    <path fill="#FFF" d="M7.91648822,13 C9.66381156,13 11,11.7413555 11,9.8879668 C11,8.17289073 9.86937901,7.42600277 8.48179872,6.98340249 C7.59528908,6.70677732 7.04282655,6.49930844 7.04282655,5.82157676 C7.04282655,5.25449516 7.42826552,4.81189488 8.03211991,4.81189488 C8.54603854,4.81189488 8.93147752,5.13001383 9.2012848,5.61410788 L10.6531049,4.63208852 C10.2034261,3.55325035 9.18843683,3 8.08351178,3 C6.33618844,3 5.23126338,4.35546335 5.23126338,5.91839557 C5.23126338,7.16320885 5.92505353,8.13139696 7.64668094,8.67081604 C8.58458244,8.96127248 9.17558887,9.1549101 9.17558887,9.9571231 C9.17558887,10.7040111 8.6745182,11.1742739 7.94218415,11.1742739 C7.15845824,11.1742739 6.56745182,10.6348548 6.20770878,10.1369295 L5,11.450899 C5.64239829,12.3914246 6.69593148,13 7.91648822,13 Z"/>
  </g>
</svg>
