<svg xmlns="http://www.w3.org/2000/svg" width="16" height="16" viewBox="0 0 16 16">
  <g fill="none" fill-rule="evenodd">
    <rect width="16" height="16" fill="#86868B" rx="4"/>
    <path fill="#FFF" fill-rule="nonzero" d="M12.9519957,6.60491071 C13.0231132,6.91741071 13.0152112,7.296875 12.9282899,7.74330357 C12.5845555,9.39508929 11.4684063,10.2209821 9.57984253,10.2209821 L9.31907848,10.2209821 C9.22030422,10.2209821 9.13338288,10.2516741 9.05831444,10.313058 C8.983246,10.374442 8.93583436,10.453497 8.91607951,10.5502232 L8.89237369,10.65625 L8.56641863,12.5870536 L8.55456572,12.6707589 C8.53481087,12.7674851 8.48641148,12.8465402 8.40936756,12.9079241 C8.33232364,12.969308 8.24441455,13 8.14564029,13 L6.65809996,13 C6.57512958,13 6.50993857,12.9720982 6.46252693,12.9162946 C6.41511528,12.8604911 6.39733592,12.7935268 6.40918883,12.7154018 C6.44474756,12.5070685 6.49709792,12.1945685 6.5662399,11.7779018 C6.63538188,11.3612351 6.68773224,11.0487351 6.72329097,10.8404018 C6.7588497,10.6320685 6.8121878,10.3204985 6.88330527,9.90569196 C6.95442274,9.49088542 7.00776083,9.17931548 7.04331957,8.97098214 C7.06307442,8.83333333 7.14802028,8.76450893 7.29815715,8.76450893 L8.07452283,8.76450893 C8.60000188,8.7719494 9.06621638,8.7328869 9.47316633,8.64732143 C10.1645861,8.50223214 10.7315504,8.234375 11.1740591,7.84375 C11.577058,7.49032738 11.8832582,7.0327381 12.0926597,6.47098214 C12.1874829,6.21056548 12.2566249,5.96316964 12.3000856,5.72879464 C12.3040366,5.70647321 12.3089753,5.69252232 12.3149017,5.68694196 C12.3208282,5.68136161 12.3277424,5.67950149 12.3356443,5.68136161 C12.3435463,5.68322173 12.3553992,5.68973214 12.3712031,5.70089286 C12.6833297,5.9203869 12.8769273,6.22172619 12.9519957,6.60491071 Z M11.9326454,5.03125 C11.9326454,5.42931548 11.841773,5.86830357 11.6600284,6.34821429 C11.3439508,7.21502976 10.7473543,7.80096726 9.87023885,8.10602679 C9.4237792,8.25483631 8.92595693,8.33296131 8.37677206,8.34040179 C8.37677206,8.34412202 8.19897839,8.34598214 7.84339106,8.34598214 L7.31001007,8.34040179 C6.91491303,8.34040179 6.68180578,8.51897321 6.61068832,8.87611607 C6.60278637,8.90587798 6.43487014,9.89174107 6.1069396,11.8337054 C6.10298863,11.8709077 6.0792828,11.8895089 6.03582213,11.8895089 L4.28751776,11.8895089 C4.20059641,11.8895089 4.1284912,11.858817 4.07120213,11.797433 C4.01391306,11.7360491 3.99119498,11.6644345 4.00304789,11.5825893 L5.37798557,3.37388393 C5.39774042,3.26599702 5.45206626,3.17671131 5.5409631,3.10602679 C5.62985993,3.03534226 5.73159741,3 5.84617555,3 L9.39019595,3 C9.52452894,3 9.71713874,3.02418155 9.96802536,3.07254464 C10.218912,3.12090774 10.4391786,3.18043155 10.6288252,3.25111607 C11.051579,3.40364583 11.3745708,3.63244048 11.5978006,3.9375 C11.8210305,4.24255952 11.9326454,4.60714286 11.9326454,5.03125 Z"/>
  </g>
</svg>
