<svg xmlns="http://www.w3.org/2000/svg" width="16" height="16" viewBox="0 0 16 16">
  <g fill="none">
    <rect width="16" height="16" fill="#86868B" rx="4"/>
    <g fill="#FFF" transform="translate(2 2)">
      <path d="M11.7385136,9.00149833 L6.30962305,6.78674841 C6.26604514,6.7686852 6.22017365,6.75563955 6.17315538,6.74560443 L6.17315538,6.72653771 L6.17315538,5.40190251 C6.17315538,5.2704425 6.17888931,5.26843548 6.27521944,5.22929853 L6.27521944,5.22929853 L6.49081543,5.14199302 C6.85434696,4.99447683 6.85434696,4.99447683 8.99539862,4.11740776 L11.7396603,2.99347486 C11.8990638,2.92824661 12.0011278,2.787755 12,2.63421774 C12,2.48068048 11.8967702,2.34018886 11.7385136,2.27496061 L6.30962305,0.0602106912 C6.11352245,-0.0200702304 5.88760537,-0.0200702304 5.69035798,0.0602106912 L0.262614264,2.26793603 C0.104357633,2.33216077 0.00229357436,2.47265238 0,2.62518613 L0,2.62518613 L0,9.35373087 L0,9.35373087 C0,9.50726813 0.102064059,9.64775975 0.260320689,9.712988 L5.69609191,11.9397801 C5.71788087,11.9488117 5.86237605,12 6.0103116,12 C6.15136642,12 6.29586161,11.9488117 6.31879735,11.9397801 L11.7385136,9.72001258 C11.897917,9.65478433 12,9.51429271 11.9988342,9.36075545 C12,9.20721819 11.8967702,9.06572307 11.7385136,9.00149833 Z M0.345182941,8.96035436 L0.345182941,3.02056967 L5.69609191,5.21223883 C5.74081661,5.23030204 5.7866881,5.2443512 5.83370637,5.25438632 C5.83485316,5.25438632 5.83714674,5.25538983 5.83829352,5.25538983 C5.83026601,5.29954433 5.82682565,5.34771289 5.82682565,5.400899 L5.82682565,6.7255342 L5.82682565,6.74359741 C5.82338529,6.74460092 5.81994493,6.74560443 5.81650457,6.74660794 C5.77292665,6.75664306 5.73049553,6.7686852 5.68921119,6.78574489 L0.345182941,8.96035436 Z M0.408256235,2.54089117 L5.83599995,0.333165824 C5.88760537,0.312092083 5.94379794,0.301053456 5.99999051,0.301053456 C6.05618309,0.301053456 6.11237566,0.312092083 6.16398108,0.333165824 L11.5928716,2.54791575 C11.6307156,2.56296842 11.6547981,2.59708781 11.6547981,2.63321423 C11.6547981,2.66934064 11.6307156,2.70346003 11.5928716,2.71851271 L8.84860986,3.84244561 C6.70870499,4.71951468 6.70870499,4.71951468 6.34517346,4.86703087 L6.14104534,4.95032232 C6.1261371,4.95533988 6.11122887,4.95835042 6.09517385,4.96136095 C6.08829313,4.96236446 6.0814124,4.965375 6.07453168,4.96637851 C6.05159594,4.96938904 6.02866019,4.97139607 6.00343088,4.97139607 C5.9472383,4.97039256 5.89448609,4.96035744 5.84402746,4.9392837 L0.408256235,2.71249164 C0.399081938,2.70847759 0.38990764,2.70346003 0.383026917,2.69844248 C0.360091174,2.68138278 0.347476515,2.65529148 0.346329728,2.62719316 C0.346329728,2.59006323 0.370412258,2.55594384 0.408256235,2.54089117 Z M0.407109448,9.43902935 C0.369265471,9.42397668 0.345182941,9.38985729 0.345182941,9.35272736 C0.345182941,9.34369576 0.346329728,9.33466415 0.349770089,9.32663606 C0.358944387,9.30154827 0.379586556,9.27947102 0.408256235,9.26843239 L5.82797244,7.06371758 L5.82797244,11.6598003 L0.407109448,9.43902935 Z M11.5928716,9.44605393 L6.17315538,11.6658214 L6.17315538,11.6658214 L6.17315538,7.0647211 L11.5928716,9.27545697 C11.6307156,9.29050965 11.6547981,9.32462904 11.6547981,9.36075545 C11.6547981,9.39688187 11.6307156,9.42999775 11.5928716,9.44605393 Z"/>
      <path d="M6.01073365,12 C5.83095437,12 5.66587403,11.933587 5.66474334,11.933587 L0.305285569,9.7343362 C0.119852853,9.6580215 0,9.49151671 0,9.31212761 L0,2.66680226 C0.00226137459,2.48642207 0.123244915,2.32189947 0.307546944,2.24657587 L5.65908991,0.0661559235 C5.87618187,-0.0220519745 6.12493307,-0.0220519745 6.34089434,0.0661559235 L11.693568,2.25351357 C11.8801314,2.33081937 12,2.49633307 12,2.67572216 C12.0011149,2.85511126 11.8812621,3.02161606 11.6946987,3.09793075 L8.98896399,4.20796273 C6.87797081,5.07418411 6.87797081,5.07418411 6.51954294,5.2198758 L6.30697372,5.3061015 C6.28549067,5.3150214 6.26287692,5.3239413 6.25722348,5.3288968 C6.2560928,5.3358345 6.2560928,5.3853895 6.2560928,5.4091759 L6.2560928,6.67976607 C6.28662135,6.68868597 6.31488854,6.69859697 6.34202503,6.70949907 L11.6946987,8.89685672 C11.8812621,8.97317142 12.0011149,9.13868511 12,9.31906531 C12.0011149,9.49845441 11.8812621,9.6639681 11.6946987,9.7402828 L6.35107053,11.9325959 C6.34315572,11.9365603 6.17920606,12 6.01073365,12 Z M6.00055747,0.148417222 C5.9089718,0.148417222 5.81625544,0.166257021 5.7303232,0.20094552 L0.378780243,2.38136547 C0.253273954,2.43290267 0.170733781,2.54489697 0.168472407,2.66779336 L0.168472407,9.31212761 C0.168472407,9.43502401 0.249881892,9.5480094 0.376518869,9.5995466 L5.73597664,11.7987975 C5.76085176,11.8096996 5.88861943,11.8513258 6.00960297,11.8513258 C6.14076269,11.8513258 6.27757585,11.7987975 6.27870654,11.7978064 L11.621204,9.6064843 C11.747841,9.553956 11.8303812,9.44196171 11.8292505,9.31906531 C11.8303812,9.19517781 11.7489717,9.08318352 11.621204,9.03164632 L11.621204,9.03164632 L6.26853036,6.84428867 C6.23347905,6.82942217 6.19503568,6.81852007 6.14980819,6.80860907 L6.08535901,6.79473367 L6.08535901,5.4091759 C6.08535901,5.2634842 6.09779658,5.2268135 6.23460974,5.17131191 L6.44830964,5.08508621 C6.80673751,4.93939451 6.80673751,4.93939451 8.91773069,4.07317313 L11.6234654,2.96314116 C11.7501024,2.91061286 11.8326425,2.79861856 11.8315233,2.67572216 C11.8315233,2.55282577 11.7489717,2.43984037 11.6223347,2.38731207 L6.26966104,0.20094552 C6.1848595,0.166257021 6.09327383,0.148417222 6.00055747,0.148417222 Z M6.0864897,11.7125718 L6.0864897,6.93447876 L11.5511014,9.16742701 C11.6178119,9.19418671 11.6607781,9.25365271 11.6607781,9.31906531 C11.6607781,9.38249571 11.6178119,9.44196171 11.5522321,9.46971251 L11.5511014,9.46971251 L6.0864897,11.7125718 Z M6.2560928,7.16837836 L6.2560928,11.4786722 L11.4787374,9.33591401 C11.4866522,9.33194961 11.491175,9.32600301 11.491175,9.31906531 C11.491175,9.31212761 11.4866522,9.30518991 11.4798681,9.30221661 L6.2560928,7.16837836 Z M5.91575592,11.7066252 L0.450013543,9.46376591 C0.383302993,9.43700621 0.340336875,9.37654911 0.340336875,9.31113651 C0.340336875,9.29230561 0.343728937,9.27545691 0.350513061,9.25959931 C0.366342683,9.21599091 0.404786051,9.17932021 0.453405605,9.15949821 L5.91575592,6.93348766 L5.91575592,11.7066252 Z M5.74615283,7.16738726 L0.523508217,9.29527891 C0.516724093,9.29726111 0.513332031,9.30221661 0.511070657,9.30816321 C0.511070657,9.31906531 0.515593406,9.32600301 0.52237753,9.32897631 L0.523508217,9.32897631 L5.74728351,11.4727256 L5.74728351,7.16738726 L5.74615283,7.16738726 Z M0.340336875,9.04056622 L0.340336875,2.94034586 L5.73710733,5.15446321 C5.77215863,5.16932971 5.80947132,5.18023181 5.84791468,5.18915171 L5.94176173,5.19014281 L5.92593211,5.2763685 C5.91914798,5.3140303 5.91575592,5.3576387 5.91575592,5.4081848 L5.91575592,6.78779597 L5.84226125,6.80960017 C5.79816444,6.81951117 5.76311314,6.83041327 5.73145389,6.84329757 L0.340336875,9.04056622 Z M0.509939969,3.17424545 L0.509939969,8.80765772 L5.65795922,6.70949907 C5.68509571,6.69859697 5.7133629,6.68868597 5.74502214,6.67976607 L5.74502214,5.4081848 C5.74502214,5.3764696 5.74615283,5.3467366 5.7484142,5.3179947 C5.72014702,5.3100659 5.69187984,5.3001549 5.66474334,5.2892528 L0.509939969,3.17424545 Z M6.00394953,5.05832651 C5.93271623,5.05733541 5.86939774,5.04445111 5.810602,5.01967361 L0.452274917,2.82042276 C0.439837357,2.81447616 0.424007735,2.80654736 0.4093088,2.79663636 C0.368604058,2.76690336 0.344859625,2.72131276 0.34259825,2.67175776 C0.34259825,2.60337186 0.385564367,2.54291477 0.453405605,2.51615507 L5.80494857,0.335735117 C5.92819348,0.285189018 6.07631352,0.285189018 6.19955843,0.335735117 L11.5522321,2.52309277 C11.6189426,2.54985247 11.6619087,2.60931846 11.6619087,2.67473106 C11.6619087,2.74014366 11.6189426,2.79960966 11.5511014,2.82636936 L8.84649739,3.93640133 C6.7366349,4.80262271 6.7366349,4.80262271 6.37820702,4.94831441 L6.17694469,5.03057571 C6.15320025,5.03850451 6.13397857,5.04246891 6.1136262,5.04643331 C6.1045807,5.04940661 6.09666589,5.05138881 6.08875108,5.05237991 C6.06048389,5.05634431 6.0333474,5.05832651 6.00394953,5.05832651 Z M6.00055747,0.445747215 C5.95759135,0.445747215 5.91462523,0.454667114 5.87505118,0.470524714 L0.52237753,2.65094466 C0.515593406,2.65391796 0.511070657,2.66085566 0.511070657,2.66878446 C0.511070657,2.67473106 0.514462719,2.68067766 0.517854781,2.68265986 L5.88296599,4.88488401 C5.92140936,4.90074161 5.96098341,4.90867041 6.0062109,4.90966151 C6.0243019,4.90966151 6.04352359,4.90767931 6.06161458,4.90569711 C6.06500664,4.90371491 6.07292145,4.90173271 6.08083627,4.90074161 C6.08762039,4.89975051 6.09892726,4.89776831 6.10910345,4.89380391 L6.30471235,4.81352481 C6.66314022,4.66783312 6.66314022,4.66783312 8.77300271,3.80161174 L11.4787374,2.69157976 C11.4866522,2.68860646 11.491175,2.68166876 11.491175,2.67473106 C11.491175,2.66779336 11.4866522,2.66085566 11.4798681,2.65788236 L6.12606376,0.470524714 C6.0864897,0.454667114 6.04352359,0.445747215 6.00055747,0.445747215 Z"/>
    </g>
  </g>
</svg>
