<svg xmlns="http://www.w3.org/2000/svg" width="16" height="16" viewBox="0 0 16 16">
  <g fill="none" fill-rule="evenodd">
    <rect width="16" height="16" fill="#86868B" rx="4"/>
    <path fill="#F9F9F9" d="M8.00780956,3 C9.24548161,3 10.4334912,3.45464962 11.3529794,4.28017417 C11.3766312,4.30143614 11.3835164,4.33504787 11.3700648,4.36388521 C11.3570595,4.39189499 11.3267776,4.40901915 11.2952843,4.40481768 C10.938467,4.35586423 10.5533441,4.33110104 10.150307,4.33110104 C8.69186339,4.33110104 7.50767887,4.65588715 6.72576645,5.27038348 C6.0284523,5.81842025 5.65990476,6.57665767 5.65990476,7.46316714 C5.65990476,8.45153035 6.0387163,9.23300316 6.81801491,9.85227388 C7.50583008,10.3988465 8.42193945,10.7535521 9.23018125,11.0665614 C9.90938996,11.329535 10.550794,11.5778672 10.9858982,11.905136 C11.0039398,11.9186953 11.0146501,11.9402755 11.0145863,11.9628107 C11.0144588,11.9854095 11.0036211,12.0068624 10.9854519,12.0202944 C10.1181762,12.661209 9.08852536,13 8.00780956,13 C6.66998387,13 5.41242135,12.479973 4.46666752,11.5357889 C3.52084994,10.5914774 3,9.33581177 3,8 C3,6.66450652 3.52084994,5.40890456 4.46660377,4.46452944 C5.4124851,3.52009065 6.67011137,3 8.00780956,3 Z M10.0361917,6.29318598 C11.063165,6.29318598 11.9083189,6.64649114 12.9533339,7.5125662 C12.9680605,7.52472499 12.977432,7.54261306 12.9790257,7.56164697 C12.9929236,7.72079344 13,7.87624771 13,8.02361734 C13,8.651291 12.8846735,9.2644505 12.6573356,9.84622632 C12.6497491,9.86551487 12.6341938,9.88066561 12.6146858,9.88766806 C12.6068444,9.89046904 12.5986204,9.89193318 12.590269,9.89193318 C12.5781562,9.89193318 12.5660434,9.88881391 12.5553969,9.88289366 C11.9599577,9.55307853 11.3113497,9.31155785 10.6841622,9.07793084 C9.4669544,8.62468171 8.41588305,8.23330872 8.41588305,7.37449073 C8.41588305,7.06797464 8.54434237,6.80691078 8.78736317,6.61943624 C9.06799737,6.40293339 9.4881199,6.29318598 10.0361917,6.29318598 Z"/>
  </g>
</svg>
