<svg xmlns="http://www.w3.org/2000/svg" width="16" height="16" viewBox="0 0 16 16">
  <g fill="none" fill-rule="evenodd">
    <rect width="16" height="16" fill="#86868B" rx="4"/>
    <path fill="#FFF" fill-rule="nonzero" d="M2.24,0 L2.6,0 L4.8,6 L4.44,6 L3.76,4.05755396 L1.12,4.05755396 L0.4,6 L0,6 L2.24,0 Z M3.64,3.75539568 L2.44,0.345323741 L2.44,0.345323741 L1.2,3.75539568 L3.64,3.75539568 Z M5.2,0 L7.6,0 C7.76,0 7.92,0 8.12,0.0431654676 C8.32,0.0863309353 8.48,0.172661871 8.64,0.302158273 C8.8,0.431654676 8.96,0.604316547 9.04,0.820143885 C9.12,1.03597122 9.2,1.3381295 9.2,1.68345324 C9.2,2.20143885 9.04,2.63309353 8.76,2.89208633 C8.44,3.1942446 8.04,3.32374101 7.44,3.32374101 L5.52,3.32374101 L5.52,6 L5.2,6 L5.2,0 Z M5.52,2.97841727 L7.48,2.97841727 C7.72,2.97841727 7.96,2.9352518 8.12,2.84892086 C8.28,2.76258993 8.44,2.67625899 8.56,2.54676259 C8.68,2.41726619 8.76,2.28776978 8.8,2.11510791 C8.84,1.94244604 8.88,1.81294964 8.88,1.64028777 C8.88,1.51079137 8.88,1.38129496 8.84,1.25179856 C8.8,1.12230216 8.76,0.949640288 8.64,0.820143885 C8.56,0.690647482 8.4,0.561151079 8.24,0.474820144 C8.08,0.388489209 7.84,0.345323741 7.56,0.345323741 L5.52,0.345323741 L5.52,2.97841727 L5.52,2.97841727 Z M9.68,0 L10,0 L10,6 L9.68,6 L9.68,0 Z" transform="translate(3 5)"/>
  </g>
</svg>
