<svg xmlns="http://www.w3.org/2000/svg" width="16" height="16" viewBox="0 0 16 16">
  <g fill="none" fill-rule="evenodd">
    <rect width="16" height="16" fill="#86868B" rx="4"/>
    <path fill="#FFF" fill-rule="nonzero" d="M3.23789428,9.14418936 C3.53226876,9.41147564 6.33657302,12.2415657 6.68775661,12.6451155 C7.07613777,13.0625432 7.71093539,13.1188539 8.16479347,12.7761382 L12.8747852,7.96498518 C12.9524938,7.88576255 12.9953348,7.77801987 12.9935678,7.66625346 L12.9935678,4.38020448 C12.9935678,3.93996826 13.0607059,3.64647744 12.7611669,3.27961392 C12.461628,2.91275039 12.1362667,3.01232764 11.6766294,3.01232764 L8.1751224,3.01232764 C8.062443,3.01047445 7.95402665,3.05600043 7.87558346,3.13810941 C7.17838074,3.86135464 3.65105145,7.51950805 3.29986786,7.85492613 C3.12047162,8.01590585 3.0127238,8.24357136 3.00105609,8.48629973 C2.98938838,8.72902811 3.0747893,8.96625496 3.23789428,9.14418936 Z M10.7418613,4.57411806 C10.7418613,4.21809785 11.0262631,3.92948644 11.3770904,3.92948644 C11.7279178,3.92948644 12.0123196,4.21809785 12.0123196,4.57411806 C12.0123196,4.93013827 11.7279178,5.21874968 11.3770904,5.21874968 C11.0262631,5.21874968 10.7418613,4.93013827 10.7418613,4.57411806 Z"/>
  </g>
</svg>
