<svg xmlns="http://www.w3.org/2000/svg" width="16" height="16" viewBox="0 0 16 16">
  <g fill="none" fill-rule="evenodd">
    <rect width="16" height="16" fill="#86868B" rx="4"/>
    <path fill="#F9F9F9" d="M3.7398635,6 L3.7398635,6 C4.29022848,6 4.66556869,6.01278703 4.86571664,6.03870207 C5.1660223,6.07723364 5.34121457,6.21908438 5.41624911,6.47670033 C5.45443633,6.64412513 5.47955951,6.92782661 5.47955951,7.34008034 C5.47955951,7.75250455 5.45443633,8.03603554 5.41624911,8.20346034 C5.34121457,8.46124679 5.1660223,8.60309753 4.86571664,8.6416291 C4.66556869,8.66754414 4.29022848,8.68050166 3.75309504,8.68050166 C3.18933103,8.68050166 2.81399082,8.66754414 2.61384287,8.6416291 C2.3135372,8.60309753 2.1251134,8.46124679 2.06347788,8.20346034 C2.01339903,8.03603554 2,7.73954703 2,7.32729331 C2,6.92782661 2.01339903,6.64412513 2.06347788,6.47670033 C2.1251134,6.21908438 2.3135372,6.07723364 2.61384287,6.03870207 C2.81399082,6.01278703 3.18933103,6 3.7398635,6 L3.7398635,6 Z M3.7398635,6.68299769 L3.7398635,6.68299769 C3.32784345,6.68299769 3.0893408,6.69595521 3.00090723,6.70874223 C2.91414853,6.73448678 2.85067065,6.79893339 2.81399082,6.88912455 C2.78903513,6.96635819 2.7756361,7.146911 2.7756361,7.40469744 C2.7756361,7.55916472 2.7756361,7.67527091 2.80075928,7.75250455 C2.82571496,7.88139778 2.91414853,7.95880191 3.07594177,7.97158893 C3.18933103,7.99733348 3.41460215,7.99733348 3.7398635,7.99733348 C4.0534007,7.99733348 4.2652728,7.99733348 4.36526303,7.98454645 C4.46542074,7.97158893 4.54045529,7.94584439 4.59053415,7.90714232 C4.64061301,7.86844026 4.66556869,7.81695116 4.67880023,7.75250455 C4.7039234,7.67527091 4.7039234,7.57195174 4.7039234,7.40469744 C4.7039234,7.22431513 4.7039234,7.08246438 4.69069186,7.00506025 C4.67880023,6.91486909 4.65384454,6.85059298 4.62888886,6.79893339 C4.57881,6.7474443 4.5154996,6.70874223 4.41534188,6.69595521 C4.32875068,6.68299769 4.10347956,6.68299769 3.7398635,6.68299769 L3.7398635,6.68299769 Z M5.57954974,6.03870207 L5.57954974,6.03870207 L6.63053582,6.03870207 L7.41789607,6.95357116 L8.20676372,6.03870207 L9.27098134,6.03870207 L8.05669463,7.32729331 L9.33278435,8.6416291 L8.24361104,8.6416291 L7.41789607,7.71380249 L6.59218111,8.6416291 L5.47955951,8.6416291 L6.78060491,7.32729331 L5.57954974,6.03870207 Z M9.48285343,6.03870207 L9.48285343,6.03870207 L10.2968443,6.03870207 L10.2968443,8.6416291 L9.48285343,8.6416291 L9.48285343,6.03870207 Z M10.6589529,8.6416291 L10.6589529,8.6416291 L10.6589529,6.03870207 L12.4854076,6.03870207 L13.1242062,6.03870207 C13.2241964,6.05148909 13.3243541,6.06427612 13.436236,6.07723364 C13.6862953,6.14185074 13.8497634,6.2833605 13.9365221,6.52835992 C13.9614778,6.61838058 13.9748768,6.72152926 13.986601,6.82467794 C14,6.92782661 14,7.08246438 14,7.30154876 C14,7.53342017 14,7.71380249 13.986601,7.82990868 C13.9748768,7.94584439 13.9499211,8.06178009 13.9249655,8.16492877 C13.8497634,8.38401315 13.6862953,8.5256934 13.4494675,8.59014001 C13.3493098,8.61588456 13.2241964,8.62867158 13.0992505,8.62867158 C12.9741371,8.6416291 12.7738217,8.6416291 12.4854076,8.6416291 L10.6589529,8.6416291 Z M7.81804123,9.74994033 C8.01835667,9.74994033 8.16842575,9.76289785 8.26858347,9.77568487 C8.35684955,9.80142942 8.4318841,9.84013148 8.46873142,9.9045781 C8.49385459,9.93032264 8.50708613,9.95623768 8.51864279,9.98181173 L8.51864279,9.98181173 L8.51864279,10.13662 L8.31866233,10.13662 C8.31866233,10.0592159 8.3067707,10.0205138 8.29353916,9.99476925 C8.26858347,9.96902471 8.20678047,9.94328016 8.14347007,9.93032264 C8.06843552,9.91736512 7.95672115,9.91736512 7.81804123,9.91736512 C7.55625776,9.91736512 7.40602119,9.93032264 7.34287828,9.96902471 C7.30603096,9.99476925 7.29279942,10.0462583 7.29279942,10.110705 C7.29279942,10.1751516 7.3177551,10.2138536 7.35610982,10.2395982 C7.40602119,10.2653427 7.5061789,10.2783002 7.64301646,10.2653427 C7.78152888,10.2653427 7.95672115,10.2653427 8.18165729,10.2783002 C8.31866233,10.2910873 8.41865256,10.3170023 8.46873142,10.3684914 C8.53204182,10.432938 8.56872165,10.5103421 8.56872165,10.6390649 C8.56872165,10.7035115 8.55716499,10.7679581 8.53204182,10.8194472 C8.51864279,10.8581493 8.48196296,10.8968513 8.4318841,10.9225959 C8.39369687,10.9483404 8.31866233,10.9742555 8.23173615,10.9742555 C8.14347007,10.9870425 8.00663252,11 7.83160774,11 C7.64301646,11 7.49294737,10.9870425 7.40602119,10.9742555 C7.30603096,10.9612979 7.24272056,10.9483404 7.1926417,10.9098088 C7.14256284,10.8838938 7.11760716,10.8451917 7.09248398,10.8066602 C7.08092732,10.7551711 7.0675283,10.6907245 7.0675283,10.6133203 L7.0675283,10.6133203 L7.0675283,10.5488737 L7.26767625,10.5488737 L7.26767625,10.5875758 C7.26767625,10.6520224 7.28090778,10.7035115 7.29279942,10.729256 C7.30603096,10.7551711 7.33098664,10.7809156 7.36783396,10.7937026 C7.43114436,10.8194472 7.58121345,10.8324047 7.8431644,10.8324047 C8.00663252,10.8324047 8.10679024,10.8194472 8.16842575,10.8194472 C8.23173615,10.8066602 8.28181501,10.7937026 8.3067707,10.7679581 C8.34361802,10.7422136 8.36874119,10.7035115 8.36874119,10.6390649 C8.36874119,10.5618312 8.34361802,10.5103421 8.29353916,10.4844271 C8.25685932,10.4586826 8.16842575,10.4458955 8.05671138,10.4458955 L8.05671138,10.4458955 L7.51790305,10.4458955 C7.43114436,10.4458955 7.36783396,10.432938 7.30603096,10.4199805 C7.2559521,10.4071935 7.21759739,10.3942359 7.18108504,10.3684914 C7.11760716,10.3170023 7.09248398,10.2266407 7.09248398,10.110705 C7.09248398,9.98181173 7.13100618,9.89179107 7.20604073,9.82734446 C7.2559521,9.80142942 7.3177551,9.77568487 7.41791282,9.76289785 C7.5061789,9.74994033 7.64301646,9.74994033 7.81804123,9.74994033 Z M13.1241727,9.74994033 C13.3243206,9.74994033 13.4743897,9.76289785 13.5613159,9.77568487 C13.6611386,9.80142942 13.7246165,9.84013148 13.7746954,9.9045781 C13.7864195,9.93032264 13.7998186,9.95623768 13.8113752,9.98181173 C13.8113752,10.0205138 13.8247742,10.0721734 13.8247742,10.13662 L13.8247742,10.13662 L13.6246263,10.13662 C13.6246263,10.0592159 13.6112273,10.0205138 13.5862716,9.99476925 C13.5613159,9.96902471 13.511237,9.94328016 13.4362025,9.93032264 C13.3610005,9.91736512 13.2610102,9.91736512 13.1107737,9.91736512 C12.8605468,9.91736512 12.7104778,9.93032264 12.6488422,9.96902471 C12.6104875,9.99476925 12.5855318,10.0462583 12.5855318,10.110705 C12.5855318,10.1751516 12.6104875,10.2138536 12.6605664,10.2395982 C12.7104778,10.2653427 12.7989113,10.2783002 12.9491479,10.2653427 C13.085818,10.2653427 13.2610102,10.2653427 13.4862814,10.2783002 C13.6246263,10.2910873 13.7112175,10.3170023 13.7746954,10.3684914 C13.8363309,10.432938 13.8614541,10.5103421 13.8614541,10.6390649 C13.8614541,10.7035115 13.8497299,10.7679581 13.8363309,10.8194472 C13.8113752,10.8581493 13.7746954,10.8968513 13.7363407,10.9225959 C13.6862618,10.9483404 13.6246263,10.9742555 13.5361927,10.9742555 C13.4362025,10.9870425 13.3110891,11 13.1358968,11 C12.9355814,11 12.7855123,10.9870425 12.6987536,10.9742555 C12.6104875,10.9612979 12.535453,10.9483404 12.4853741,10.9098088 C12.4485268,10.8838938 12.4103396,10.8451917 12.3984479,10.8066602 C12.3734923,10.7551711 12.3734923,10.6907245 12.3734923,10.6133203 L12.3734923,10.6133203 L12.3734923,10.5488737 L12.5736402,10.5488737 L12.5736402,10.5875758 C12.5736402,10.6520224 12.5736402,10.7035115 12.5987634,10.729256 C12.6104875,10.7551711 12.6354432,10.7809156 12.6737979,10.7937026 C12.7238768,10.8194472 12.88567,10.8324047 13.1358968,10.8324047 C13.2991975,10.8324047 13.4110793,10.8194472 13.4743897,10.8194472 C13.5361927,10.8066602 13.5862716,10.7937026 13.6112273,10.7679581 C13.649582,10.7422136 13.6611386,10.7035115 13.6611386,10.6390649 C13.6611386,10.5618312 13.636183,10.5103421 13.5995031,10.4844271 C13.5494243,10.4586826 13.4743897,10.4458955 13.3492763,10.4458955 L13.3492763,10.4458955 L12.810468,10.4458955 C12.7238768,10.4458955 12.6605664,10.432938 12.6104875,10.4199805 C12.5604087,10.4071935 12.5235613,10.3942359 12.4853741,10.3684914 C12.4235711,10.3170023 12.3852164,10.2266407 12.3852164,10.110705 C12.3852164,9.98181173 12.4352953,9.89179107 12.5103298,9.82734446 C12.5486845,9.80142942 12.6237191,9.77568487 12.7104778,9.76289785 C12.810468,9.74994033 12.9491479,9.74994033 13.1241727,9.74994033 Z M6.15518863,9.74992328 C6.36706073,9.74992328 6.50540567,9.7628808 6.6053959,9.77566782 C6.69215459,9.80141237 6.76718914,9.84011444 6.81726799,9.90456105 C6.86734685,9.95622063 6.89230254,10.0206672 6.90570156,10.0979009 C6.93082474,10.1623475 6.93082474,10.2654962 6.9423814,10.4199634 L6.9423814,10.4199634 L5.61638031,10.4199634 C5.62961185,10.5618142 5.65473502,10.6647924 5.70464639,10.729239 C5.74149371,10.7679411 5.80480411,10.7936856 5.87983865,10.8066431 C5.95504069,10.8196006 6.08015409,10.8323877 6.26690301,10.8323877 C6.39201641,10.8323877 6.49217413,10.8196006 6.55548453,10.8066431 C6.61728753,10.7936856 6.66719891,10.7679411 6.69215459,10.7421965 L6.69215459,10.7421965 L6.71362405,10.7025409 C6.72585686,10.6748326 6.73441735,10.6433102 6.74223345,10.6003458 L6.74223345,10.6003458 L6.93082474,10.6003458 C6.93082474,10.7421965 6.88074588,10.8451747 6.78058816,10.9097918 C6.69215459,10.9612809 6.51712982,10.999983 6.28013455,10.999983 C6.08015409,10.999983 5.92991751,10.9870254 5.82992728,10.9742384 C5.72976956,10.9612809 5.65473502,10.9355363 5.60465616,10.8840472 C5.47954276,10.8066431 5.41623236,10.6262608 5.41623236,10.3684744 C5.41623236,10.188092 5.44118805,10.0591988 5.49126691,9.96900766 C5.54134576,9.8788165 5.61638031,9.82732741 5.70464639,9.78862534 C5.79140508,9.7628808 5.94164166,9.74992328 6.15518863,9.74992328 Z M9.40780214,9.74999148 C9.60795009,9.74999148 9.74629503,9.74999148 9.83322121,9.77573602 C9.92148729,9.78852305 9.99668932,9.82722511 10.0466007,9.8788847 C10.0832805,9.91741627 10.1084037,9.96890536 10.1218027,10.0335225 C10.1333594,10.0850116 10.1467584,10.1881602 10.1467584,10.342798 L10.1467584,10.342798 L10.1467584,10.9741361 L9.95816712,10.9741361 L9.95816712,10.8324559 C9.90825575,10.8969025 9.84645275,10.9483916 9.78314235,10.9613491 C9.72133934,10.9870936 9.59622594,10.9998807 9.42120117,10.9998807 C9.20765419,10.9998807 9.07081664,10.9870936 8.98255056,10.9741361 C8.90751602,10.9741361 8.84554552,10.9483916 8.79563415,10.922647 C8.75727944,10.883945 8.73232375,10.8452429 8.72043212,10.8067113 C8.69547643,10.7680092 8.69547643,10.7035626 8.69547643,10.6261585 C8.69547643,10.5359673 8.70720058,10.4587337 8.72043212,10.4070741 C8.75727944,10.355585 8.79563415,10.316883 8.84554552,10.2911384 C8.92074755,10.2653939 9.05741762,10.2526068 9.29608776,10.2526068 C9.53291554,10.2526068 9.69638366,10.2653939 9.7714182,10.2783514 C9.84645275,10.2911384 9.90825575,10.3298405 9.94661047,10.3813296 L9.94661047,10.3813296 L9.95816712,10.3813296 L9.95816712,10.2526068 C9.95816712,10.1494582 9.94661047,10.072054 9.90825575,10.0205649 C9.87140843,9.98186288 9.82149706,9.94333131 9.74629503,9.93037379 C9.68298463,9.91741627 9.57110277,9.91741627 9.42120117,9.91741627 C9.22105322,9.91741627 9.08254079,9.93037379 9.03246193,9.94333131 C8.97082641,9.96890536 8.9324717,10.0335225 8.9324717,10.1107561 L8.9324717,10.1107561 L8.9324717,10.1237136 L8.74555529,10.1237136 L8.74555529,10.072054 C8.74555529,9.94333131 8.78240261,9.85296966 8.88239284,9.81443809 C8.97082641,9.7627785 9.14585119,9.74999148 9.40780214,9.74999148 Z M11.4594777,9.74992328 C11.6597932,9.74992328 11.8096948,9.7628808 11.8981283,9.77566782 C11.984887,9.80141237 12.0599216,9.84011444 12.1100004,9.90456105 C12.1600793,9.95622063 12.185035,10.0206672 12.2101581,10.0979009 C12.2235572,10.1623475 12.2351138,10.2654962 12.2351138,10.4199634 L12.2351138,10.4199634 L10.9223443,10.4199634 C10.9223443,10.5618142 10.9474674,10.6647924 11.009103,10.729239 C11.0474577,10.7679411 11.0975365,10.7936856 11.1725711,10.8066431 C11.2477731,10.8196006 11.3844432,10.8323877 11.5596354,10.8323877 C11.6979804,10.8323877 11.7847391,10.8196006 11.848217,10.8066431 C11.9098525,10.7936856 11.9599313,10.7679411 11.998286,10.7421965 L11.998286,10.7421965 L12.0129319,10.7025409 C12.0238,10.6748326 12.0349659,10.6433102 12.0349659,10.6003458 L12.0349659,10.6003458 L12.2351138,10.6003458 C12.2235572,10.7421965 12.185035,10.8451747 12.0850447,10.9097918 C11.984887,10.9612809 11.8230938,10.999983 11.5845911,10.999983 C11.3844432,10.999983 11.2342066,10.9870254 11.1224922,10.9742384 C11.022502,10.9612809 10.9474674,10.9355363 10.8973886,10.8840472 C10.7722752,10.8066431 10.7221963,10.6262608 10.7221963,10.3684744 C10.7221963,10.188092 10.747152,10.0591988 10.7972309,9.96900766 C10.8473097,9.8788165 10.9089452,9.82732741 10.9973788,9.78862534 C11.0975365,9.7628808 11.2477731,9.74992328 11.4594777,9.74992328 Z M10.5337055,9.22169975 L10.5337055,10.9742043 L10.3469566,10.9742043 L10.3469566,9.22169975 L10.5337055,9.22169975 Z M9.42120117,10.4200316 C9.25756556,10.4200316 9.15757533,10.4329892 9.09593982,10.4329892 C9.03246193,10.4329892 8.98255056,10.4457762 8.95742739,10.4587337 C8.92074755,10.4974358 8.89562438,10.5489249 8.89562438,10.6261585 C8.89562438,10.7165202 8.92074755,10.7680092 8.97082641,10.7937538 C9.02073778,10.8194983 9.18253102,10.8324559 9.457881,10.8324559 C9.65802895,10.8324559 9.78314235,10.8194983 9.84645275,10.7937538 C9.90825575,10.7550517 9.94661047,10.7035626 9.94661047,10.6261585 C9.94661047,10.5489249 9.90825575,10.4974358 9.83322121,10.4716912 L9.83322121,10.4716912 L9.78583689,10.451457 C9.70933382,10.4283245 9.58118553,10.4200316 9.42120117,10.4200316 Z M6.25102307,9.91771836 L6.06807403,9.91771836 C5.98752286,9.91831776 5.92619091,9.92071532 5.87983865,9.93030559 C5.81636077,9.94326311 5.7664494,9.96900766 5.72976956,9.9947522 C5.66645917,10.0462413 5.62961185,10.1236454 5.62961185,10.2525387 L5.62961185,10.2525387 L6.7305093,10.2525387 C6.7305093,10.1366029 6.69215459,10.0462413 6.64224322,9.9947522 C6.6053959,9.96900766 6.5420855,9.94326311 6.46705096,9.93030559 C6.39201641,9.91751857 6.2918587,9.91751857 6.15518863,9.91751857 Z M11.5457523,9.91771836 L11.3397115,9.91799216 C11.2718727,9.91893935 11.2136614,9.92178091 11.1725711,9.93030559 C11.1090932,9.94326311 11.0591818,9.96900766 11.022502,9.9947522 C10.9724231,10.0462413 10.9340684,10.1236454 10.9223443,10.2525387 L10.9223443,10.2525387 L12.0232417,10.2525387 C12.0232417,10.1366029 11.998286,10.0462413 11.9348082,9.9947522 C11.8981283,9.96900766 11.8346504,9.94326311 11.7730149,9.93030559 C11.6979804,9.91751857 11.5845911,9.91751857 11.4477536,9.91751857 Z M12.4854076,6.68299769 C12.7239103,6.68299769 12.8739794,6.69595521 12.9607381,6.70874223 C13.0357726,6.72152926 13.0992505,6.7474443 13.1359303,6.79893339 C13.174285,6.83746496 13.2109649,6.90208207 13.2241964,6.99210273 C13.2359206,7.06950686 13.2359206,7.18544257 13.2359206,7.35303786 L13.2355306,7.46917869 C13.2343608,7.57608622 13.2296816,7.65587726 13.2109649,7.71380249 C13.1994082,7.80416414 13.174285,7.85565323 13.1242062,7.8941848 C13.0858515,7.93288687 13.0242159,7.94584439 12.9240582,7.95880191 C12.8356247,7.97158893 12.6855556,7.98454645 12.4986392,7.98454645 L12.4986392,7.98454645 L11.4226974,7.98454645 L11.4226974,6.68299769 Z"/>
  </g>
</svg>
