<svg xmlns="http://www.w3.org/2000/svg" width="16" height="16" viewBox="0 0 16 16">
  <g fill="none" fill-rule="evenodd">
    <rect width="16" height="16" fill="#86868B" rx="4"/>
    <path fill="#FFF" d="M8.35858757 10.1710298L8.35858757 10.1710298 8.29610169 10.1710298 8.29610169 10.3861794 8.32734463 10.3861794C8.45231638 10.3861794 8.48355932 10.3248754 8.48355932 10.263181 8.48355932 10.2323338 8.45231638 10.1710298 8.35858757 10.1710298M8.38983051 9.83327227C8.70186441 9.83327227 8.98305085 10.1097258 8.98305085 10.4166361 8.98305085 10.7543937 8.70186441 11 8.38983051 11 8.04655367 11 7.79661017 10.7235464 7.79661017 10.4166361 7.79661017 10.0788786 8.07779661 9.83327227 8.38983051 9.83327227M8.66824859 10.7813362C8.78214689 10.695823 8.85847458 10.5615009 8.85847458 10.4166361 8.85847458 10.1710298 8.67101695 9.9558802 8.38983051 9.9558802 8.13988701 9.9558802 7.92158192 10.1710298 7.92158192 10.4166361 7.92158192 10.6622425 8.13988701 10.8773921 8.38983051 10.8773921 8.49028249 10.8773921 8.58559322 10.8426401 8.66350282 10.7848504L8.51480226 10.7848504 8.32734463 10.5087873 8.29610169 10.5087873 8.29610169 10.7848504 8.17112994 10.7848504 8.17112994 10.0788786 8.35858757 10.0788786C8.5460452 10.0788786 8.60853107 10.2014865 8.60853107 10.2936377 8.60853107 10.3861794 8.5460452 10.4474834 8.45231638 10.4779401 8.48158192 10.5064445 8.64649718 10.7489271 8.66824859 10.7813362M.406238209 6.4836314C.406238209 7.51320862.812057184 8.35577518 1.5989603 8.94043814 2.30998197 9.47906144 4.41621599 10.3448515 5.00020962 10.5791242 5.58378401 10.3448515 7.71601056 9.45543046 8.40062047 8.94043814 9.18752358 8.35577518 9.59376179 7.48998507 9.59376179 6.4836314L9.59376179 1.10147271C6.64989729.843976547 3.14719323.984132686.406238209 3.32441426L.406238209 6.4836314zM4.99213266.00117474507C5.00020962.0014099925 5.01111463.00104394153 5.03210061.000626165979L5.27239586.0000134285C6.02657423.00823763869 8.20591225.113962706 10 1.00776366L10 6.46000043C10 7.56006314 9.56818849 8.51956229 8.65467656 9.22156528 7.79189201 9.87671374 5.00020962 11 5.00020962 11L4.98974063 10.9957753 4.98974063 10.9957753 4.90986019 10.9633013C4.4240499 10.7649364 2.11566679 9.8090075 1.34532344 9.24478882.431811512 8.54319327 0 7.58328669 0 6.4836314L0 1.00776366C1.79408775.113962706 3.97370253.00823763869 4.72798468.0000134285L4.96831392.000626165979C4.97880844.000835053756 4.98678237.00103101039 4.99213266.00117474507zM5.02425207 3.35724684C4.55753401 3.35724684 4.18922537 3.44653849 3.86949858 3.62512181L3.86949858 8.66654454 4.70494052 8.66654454 4.70494052 7.03795955C4.77885139 7.06008491 4.90175934 7.08260537 5.09816294 7.08260537 6.05651283 7.08260537 6.59714176 6.30189602 6.59714176 5.18654051 6.59714176 4.04866453 6.03201429 3.35724684 5.02425207 3.35724684zM1.70739811 3.40189267L.847457627 3.40189267.847457627 5.83331238C.847457627 6.65906265 1.28967714 7.08260537 2.12511908 7.08260537 2.64124946 7.08260537 3.08346897 6.97118835 3.40278052 6.77047967L3.40278052 3.40189267 2.54284004 3.40189267 2.54284004 6.32402139C2.44443063 6.39118768 2.32152267 6.41370814 2.14961762 6.41370814 1.7563952 6.41370814 1.70739811 6.07866688 1.70739811 5.8779582L1.70739811 3.40189267zM7.89930175 3.33512147C7.33417428 3.35724684 6.74454826 3.71401837 6.74454826 4.33866487 6.76946204 4.76260269 6.91645331 5.07472839 7.60448875 5.43189502 7.97321262 5.6326037 8.1202039 5.76654118 8.14511767 6.01189569 8.14511767 6.27977066 7.94829885 6.43543841 7.62898729 6.43543841 7.35867283 6.43543841 7.03936127 6.30189602 6.81845913 6.12331271L6.81845913 6.83725087C7.08835837 6.97118835 7.40808515 7.08260537 7.75189525 7.08260537 8.58733719 7.08260537 8.98055961 6.54764563 8.98055961 6.05654152 9.00505815 5.61008323 8.85765165 5.2533117 8.14511767 4.87401971 7.82580612 4.6954364 7.5799902 4.58401938 7.5799902 4.3165395 7.5799902 4.04866453 7.85030466 3.93724751 8.0712068 3.93724751 8.36601981 3.93724751 8.66083282 4.09331036 8.8331531 4.24976831L8.8331531 3.58047598C8.6857466 3.46866386 8.36601981 3.31260101 7.89930175 3.33512147zM5.00016876 3.93724751C5.49138536 3.93724751 5.68778896 4.29401904 5.68778896 5.16441514 5.68778896 6.01189569 5.44197304 6.41370814 4.95075644 6.41370814 4.82784848 6.41370814 4.72943906 6.39118768 4.68044197 6.36866722L4.68044197 4.0040187 4.70494052 4.0040187C4.77885139 3.98189334 4.90175934 3.93724751 5.00016876 3.93724751z" transform="translate(3 3)"/>
  </g>
</svg>
