<svg xmlns="http://www.w3.org/2000/svg" width="16" height="16" viewBox="0 0 16 16">
  <g fill="none" fill-rule="evenodd">
    <rect width="16" height="16" fill="#86868B" fill-rule="nonzero" rx="4"/>
    <path fill="#FFF" d="M11.603,6.47798209 L9.8405,9.27423839 C9.56012,9.7190636 8.95976,9.82985365 8.53913,9.5143435 L7.13729,8.46296301 C7.008665,8.36651297 6.83171,8.36702297 6.70364,8.46422301 L4.81043,9.90104368 C4.55774,10.0928038 4.22789,9.79038863 4.397015,9.52205351 L6.159515,6.7257972 C6.43988,6.280957 7.04024,6.17019694 7.4609,6.48567709 L8.86271,7.53704258 C8.99132,7.63352263 9.168275,7.63301263 9.29636,7.53581258 L11.189555,6.09897691 C11.44226,5.90721682 11.77211,6.20961696 11.603,6.47798209 Z M8,2 C4.62002,2 2,4.47584115 2,7.82001771 C2,9.56922853 2.71688,11.0807642 3.88433,12.1247797 C3.98234,12.2124998 4.0415,12.3353798 4.04552,12.4668999 L4.07819,13.5341804 C4.088645,13.8746355 4.44029,14.0961406 4.751795,13.9586206 L5.94272,13.4329003 C6.04367,13.3883953 6.1568,13.3801153 6.26318,13.4093803 C6.81044,13.5598604 7.392905,13.6400204 8,13.6400204 C11.37998,13.6400204 14,11.1641793 14,7.82001771 C14,4.47584115 11.37998,2 8,2 L8,2 Z"/>
  </g>
</svg>
