<svg xmlns="http://www.w3.org/2000/svg" width="16" height="16" viewBox="0 0 16 16">
  <g fill="none" fill-rule="evenodd">
    <rect width="16" height="16" fill="#86868B" rx="4"/>
    <path fill="#F9F9F9" fill-rule="nonzero" d="M5,0 C2.24,0 0,2.24 0,5 C0,7.76 2.24,10 5,10 C7.76,10 10,7.76 10,5 C10,2.24 7.76,0 5,0 Z M5.01358696,8.69565217 C2.97744491,8.69565217 1.33152174,7.04472619 1.33152174,5.01358696 C1.33152174,2.97744491 2.98244772,1.33152174 5.01358696,1.33152174 C7.049729,1.33152174 8.69565217,2.98244772 8.69565217,5.01358696 C8.69565217,7.049729 7.049729,8.69565217 5.01358696,8.69565217 Z M6.26358696,4.80978261 C6.84138486,4.80978261 7.30978261,4.34138486 7.30978261,3.76358696 C7.30978261,3.18578905 6.84138486,2.7173913 6.26358696,2.7173913 C5.68578905,2.7173913 5.2173913,3.18578905 5.2173913,3.76358696 C5.2173913,4.34138486 5.68578905,4.80978261 6.26358696,4.80978261 Z M6.26358696,7.30978261 C6.84138486,7.30978261 7.30978261,6.84138486 7.30978261,6.26358696 C7.30978261,5.68578905 6.84138486,5.2173913 6.26358696,5.2173913 C5.68578905,5.2173913 5.2173913,5.68578905 5.2173913,6.26358696 C5.2173913,6.84138486 5.68578905,7.30978261 6.26358696,7.30978261 Z M3.76358696,7.30978261 C4.34138486,7.30978261 4.80978261,6.84138486 4.80978261,6.26358696 C4.80978261,5.68578905 4.34138486,5.2173913 3.76358696,5.2173913 C3.18578905,5.2173913 2.7173913,5.68578905 2.7173913,6.26358696 C2.7173913,6.84138486 3.18578905,7.30978261 3.76358696,7.30978261 Z M3.76358696,4.80978261 C4.34138486,4.80978261 4.80978261,4.34138486 4.80978261,3.76358696 C4.80978261,3.18578905 4.34138486,2.7173913 3.76358696,2.7173913 C3.18578905,2.7173913 2.7173913,3.18578905 2.7173913,3.76358696 C2.7173913,4.34138486 3.18578905,4.80978261 3.76358696,4.80978261 Z" transform="translate(3 3)"/>
  </g>
</svg>
