<svg xmlns="http://www.w3.org/2000/svg" width="16" height="16" viewBox="0 0 16 16">
  <g fill="none" fill-rule="evenodd">
    <rect width="16" height="16" fill="#86868B" rx="4"/>
    <path fill="#F9F9F9" d="M12.620633,4 L12.620633,6.16363491 L13.8795706,6.16363491 L13.8795706,7.74624035 L12.6474189,7.74624035 L12.6474189,9.67609584 C12.6474189,10.0500574 12.7142765,10.4774421 13.0492075,10.4774421 C13.3839242,10.4774421 13.7857128,10.3438844 13.7857128,10.3438844 L13.7857128,10.3438844 L14,11.8397307 C14,11.8397307 13.0224216,12 12.0446289,12 C11.0670505,12 10.4775463,11.358923 10.4775463,10.2772124 L10.4775463,10.2772124 L10.4775463,7.74624035 L9.66068329,7.74624035 L9.66068329,6.16363491 L10.4642605,6.16363491 L10.4509746,5.10863584 L12.620633,4 Z M4.74544818,6.16367765 L5.65616897,7.73965863 L6.67403339,6.16367765 L9.1383367,6.16367765 L7.18296559,8.90834201 L9.31255223,11.9199081 L6.67403339,11.9199081 L5.62938307,10.0768117 L4.41073151,11.9066592 L2,11.9066592 L4.07580054,8.90834201 L2.13371524,6.16367765 L4.74544818,6.16367765 Z"/>
  </g>
</svg>
