<svg xmlns="http://www.w3.org/2000/svg" width="16" height="16" viewBox="0 0 16 16">
  <defs>
    <linearGradient id="checkout@3x-a" x1="-.273%" x2="100.273%" y1="49.6%" y2="49.6%">
      <stop offset="0%" stop-color="#FFF"/>
      <stop offset="90.67%" stop-color="#D7DBE2"/>
    </linearGradient>
    <linearGradient id="checkout@3x-b" x1="-19.062%" x2="120.238%" y1="49.811%" y2="49.811%">
      <stop offset="0%" stop-color="#333433"/>
      <stop offset="2.767%" stop-color="#363736"/>
      <stop offset="100%" stop-color="#968F90"/>
    </linearGradient>
  </defs>
  <g fill="none" fill-rule="evenodd">
    <rect width="16" height="16" fill="#86868B" rx="4"/>
    <g fill-rule="nonzero" transform="translate(3 3)">
      <path fill="url(#checkout@3x-a)" d="M7.26157167,4.4200871 L2.21004355,4.4200871 C0.999781606,4.4200871 4.52684485e-14,3.42030549 4.52684485e-14,2.21004355 L4.52684485e-14,2.21004355 C4.52684485e-14,0.999781606 0.999781606,5.95939069e-14 2.21004355,5.95939069e-14 L7.26157167,5.95939069e-14 C8.47183361,5.95939069e-14 9.47161522,0.999781606 9.47161522,2.21004355 L9.47161522,2.21004355 C9.47161522,3.42030549 8.47183361,4.4200871 7.26157167,4.4200871 Z"/>
      <circle cx="7.209" cy="2.21" r="1.894" fill="#FFF"/>
      <path fill="url(#checkout@3x-b)" d="M2.21004355,9.99781606 L7.26157167,9.99781606 C8.47183361,9.99781606 9.47161522,8.99803445 9.47161522,7.78777251 L9.47161522,7.78777251 C9.47161522,6.57751057 8.47183361,5.57772896 7.26157167,5.57772896 L2.21004355,5.57772896 C0.999781606,5.57772896 4.52684485e-14,6.57751057 4.52684485e-14,7.78777251 L4.52684485e-14,7.78777251 C4.52684485e-14,8.99803445 0.999781606,9.99781606 2.21004355,9.99781606 Z"/>
      <circle cx="2.263" cy="7.788" r="1.894" fill="#968F90"/>
    </g>
  </g>
</svg>
