<svg xmlns="http://www.w3.org/2000/svg" xmlns:xlink="http://www.w3.org/1999/xlink" width="16" height="16" viewBox="0 0 16 16">
  <defs>
    <path id="google@3x-a" d="M12.8837209,7.09090909 L8.11627907,7.09090909 L8.11627907,9.02272727 L10.8604651,9.02272727 C10.6046512,10.25 9.53488372,10.9545455 8.11627907,10.9545455 C6.44186047,10.9545455 5.09302326,9.63636364 5.09302326,8 C5.09302326,6.36363636 6.44186047,5.04545455 8.11627907,5.04545455 C8.8372093,5.04545455 9.48837209,5.29545455 10,5.70454545 L11.4883721,4.25 C10.5813953,3.47727273 9.41860465,3 8.11627907,3 C5.27906977,3 3,5.22727273 3,8 C3,10.7727273 5.27906977,13 8.11627907,13 C10.6744186,13 13,11.1818182 13,8 C13,7.70454545 12.9534884,7.38636364 12.8837209,7.09090909 Z"/>
  </defs>
  <g fill="none" fill-rule="evenodd">
    <rect width="16" height="16" fill="#86868B" rx="4"/>
    <use fill="#FFF" xlink:href="#google@3x-a"/>
  </g>
</svg>
