<svg xmlns="http://www.w3.org/2000/svg" width="16" height="16" viewBox="0 0 16 16">
  <g fill="none" fill-rule="evenodd">
    <rect width="16" height="16" fill="#86868B" rx="4"/>
    <g fill="#FFF" transform="translate(2 6)">
      <path d="M12 2.58344459C12 1.72897196 11.5866667 1.05473965 10.7966667 1.05473965 10.0033333 1.05473965 9.52333333 1.72897196 9.52333333 2.57676903 9.52333333 3.58144192 10.09 4.08878505 10.9033333 4.08878505 11.3 4.08878505 11.6 3.99866489 11.8266667 3.87182911L11.8266667 3.20427236C11.6 3.31775701 11.34 3.38785047 11.01 3.38785047 10.6866667 3.38785047 10.4 3.27436582 10.3633333 2.88050734L11.9933333 2.88050734C11.9933333 2.83711615 12 2.6635514 12 2.58344459zM10.3533333 2.26635514C10.3533333 1.88918558 10.5833333 1.73230975 10.7933333 1.73230975 10.9966667 1.73230975 11.2133333 1.88918558 11.2133333 2.26635514L10.3533333 2.26635514zM8.23666667 1.05473965C7.91 1.05473965 7.7 1.2082777 7.58333333 1.31508678L7.54 1.10814419 6.80666667 1.10814419 6.80666667 5 7.64 4.82309746 7.64333333 3.87850467C7.76333333 3.96528705 7.94 4.08878505 8.23333333 4.08878505 8.83 4.08878505 9.37333333 3.60814419 9.37333333 2.55006676 9.37 1.58210948 8.82 1.05473965 8.23666667 1.05473965zM8.03666667 3.35447263C7.84 3.35447263 7.72333333 3.28437917 7.64333333 3.1975968L7.64 1.95927904C7.72666667 1.86248331 7.84666667 1.79572764 8.03666667 1.79572764 8.34 1.79572764 8.55 2.13618158 8.55 2.57343124 8.55 3.02069426 8.34333333 3.35447263 8.03666667 3.35447263z"/>
      <polygon points="5.66 .858 6.497 .678 6.497 0 5.66 .177"/>
      <rect width="1" height="2.921" x="5.66" y="1.111"/>
      <path d="M4.76333333 1.35847797L4.71 1.11148198 3.99 1.11148198 3.99 4.03204272 4.82333333 4.03204272 4.82333333 2.05273698C5.02 1.79572764 5.35333333 1.84245661 5.45666667 1.87917223L5.45666667 1.11148198C5.35 1.07142857 4.96.99799733 4.76333333 1.35847797zM3.09666667.387182911L2.28333333.560747664 2.28 3.23431242C2.28 3.72830441 2.65 4.09212283 3.14333333 4.09212283 3.41666667 4.09212283 3.61666667 4.04205607 3.72666667 3.98197597L3.72666667 3.30440587C3.62 3.34779706 3.09333333 3.50133511 3.09333333 3.00734312L3.09333333 1.82242991 3.72666667 1.82242991 3.72666667 1.11148198 3.09333333 1.11148198 3.09666667.387182911zM.843333333 1.95927904C.843333333 1.82910547.95 1.77903872 1.12666667 1.77903872 1.38 1.77903872 1.7 1.85580774 1.95333333 1.99265688L1.95333333 1.2082777C1.67666667 1.09813084 1.40333333 1.05473965 1.12666667 1.05473965.45 1.05473965 0 1.40854473 0 1.99933244 0 2.92056075 1.26666667 2.77369826 1.26666667 3.17089453 1.26666667 3.32443258 1.13333333 3.37449933.946666667 3.37449933.67 3.37449933.316666667 3.26101469.0366666667 3.10747664L.0366666667 3.90186916C.346666667 4.03538051.66 4.09212283.946666667 4.09212283 1.64 4.09212283 2.11666667 3.74833111 2.11666667 3.15086782 2.11333333 2.15620828.843333333 2.33311081.843333333 1.95927904z"/>
    </g>
  </g>
</svg>
