<svg xmlns="http://www.w3.org/2000/svg" width="16" height="16" viewBox="0 0 16 16">
  <g fill="none" fill-rule="evenodd">
    <rect width="16" height="16" fill="#86868B" rx="4"/>
    <g fill="#FFF" transform="translate(2 6)">
      <path d="M3.82573375,2.12817778 C3.82573375,2.60991111 3.62103889,2.92582222 3.29414133,2.92582222 C3.09430898,2.92582222 2.99449944,2.79955556 2.99449944,2.60728889 C2.99449944,2.21568889 3.23387172,2.00706667 3.82573375,1.93004444 L3.82573375,2.12817778 Z M4.61077417,2.41275556 L4.61077417,2.46137778 C4.61077417,2.81084444 4.51714941,2.946 4.40467173,2.946 C4.32064405,2.946 4.28494294,2.89586667 4.28494294,2.6484 L4.28494294,1.75977778 C4.28494294,1.49991111 4.27346911,1.30431111 4.12853201,1.14804444 C3.99818246,1.01013333 3.72835547,0.930844444 3.44709731,0.930088889 L3.44470871,0.930088889 L3.44261868,0.930088889 C2.96698784,0.930088889 2.66871087,1.18551111 2.66871087,1.47995556 C2.66871087,1.64631111 2.78477145,1.7624 2.95107802,1.7624 L2.95325336,1.7624 L2.955514,1.7624 C3.10531362,1.7624 3.22214197,1.66288889 3.22214197,1.53617778 C3.22214197,1.39577778 3.0916218,1.32853333 3.0138642,1.28835556 C3.00145198,1.28186667 2.98665117,1.27413333 2.97521999,1.26733333 C3.00000176,1.19897778 3.13713324,1.08457778 3.39608355,1.08457778 C3.71658307,1.08457778 3.82573375,1.22293333 3.82573375,1.57857778 L3.82573375,1.7752 C2.90910683,1.89986667 2.47425288,2.16124444 2.47425288,2.58764444 C2.47425288,2.91106667 2.71392374,3.10875556 3.13414749,3.10875556 C3.47166581,3.10875556 3.71244566,2.964 3.8537572,2.68084444 C3.88873319,3.02715556 4.09594462,3.10422222 4.25619438,3.10422222 C4.66251304,3.10422222 4.75682026,2.87573333 4.75682026,2.49413333 L4.75682026,2.41275556 L4.61077417,2.41275556 L4.61077417,2.41275556 Z"/>
      <path d="M5.9120517 1.01417778L5.9120517 1.12897778 5.93508467 1.13004444C6.18349952 1.1436 6.29034691 1.17693333 6.29034691 1.31937778 6.29034691 1.40377778 6.25784483 1.49448889 6.21702529 1.5812 6.21689733 1.58142222 5.88330314 2.296 5.79104329 2.49502222 5.7513754 2.40591111 5.30880114 1.40595556 5.30880114 1.40595556 5.27612844 1.32982222 5.25706226 1.29942222 5.25706226 1.25213333 5.25706226 1.16271111 5.31984843 1.13515556 5.59091237 1.13026667L5.61475576 1.1296 5.61475576 1.01417778 4.31023656 1.01417778 4.31023656 1.13004444 4.33399464 1.13026667C4.67176889 1.13471111 4.73195319 1.28502222 4.83773423 1.52533333 4.83773423 1.52533333 5.51417846 3.03382222 5.52364757 3.05484444 5.43326448 3.25902222 5.39026961 3.34497778 5.3106779 3.47604444 5.17158435 3.70835556 5.03777985 3.82684444 4.8671226 3.82684444 4.82118462 3.82684444 4.80651176 3.81893333 4.8022464 3.81617778 4.80796199 3.80751111 4.82357322 3.79102222 4.83265845 3.78146667 4.87744478 3.73546667 4.94522143 3.66528889 4.94522143 3.54884444 4.94522143 3.3736 4.81964909 3.25177778 4.64003457 3.25177778 4.4451927 3.25177778 4.30400912 3.394 4.30400912 3.59062222 4.30400912 3.83551111 4.50119694 4 4.79473936 4 5.05599296 4 5.27292942 3.84635556 5.45365293 3.53422222 5.47604609 3.49484444 5.49784211 3.4528 5.51908363 3.40813333L6.38623231 1.59302222C6.52536852 1.30813333 6.70447119 1.1652 6.96623664 1.13004444L6.98739285 1.12711111 6.98739285 1.01417778 5.9120517 1.01417778M1.07952121.472533333C1.07952121.174177778 1.0384884.156577778 1.39908235.156577778 1.9713237.156577778 2.15993814.441066667 2.15993814.962755556 2.15993814 1.44937778 1.94854665 1.64444444 1.35314437 1.64444444L1.07952121 1.64444444 1.07952121.472533333zM1.43512468 1.80088889C2.24916957 1.80088889 2.70808019 1.45586667 2.70808019.938444444 2.70808019.5244 2.40997383.000355555555 1.38543318.000355555555L-1.7501152e-14.000355555555-1.7501152e-14.109822222.0220945903.110266667C.496616437.114622222.551596991.197377778.551596991.602666667L.551596991 2.40373333C.551596991 2.80888889.496616437 2.89155556.0220945903 2.89577778L-1.7501152e-14 2.896-1.7501152e-14 3.00591111 1.66767238 3.00591111 1.66767238 2.89577778 1.64498063 2.89577778C1.1350136 2.89577778 1.07952121 2.81777778 1.07952121 2.40373333L1.07952121 1.80088889 1.43512468 1.80088889 1.43512468 1.80088889z"/>
      <path d="M9.0589062 1.14869888L9.0589062 8.62801893e-14 6.54545455 8.62801893e-14 6.54545455.110007218 6.56645774.110367749C7.00615509.114649063 7.05488582.198788135 7.05488582.609929408L7.05488582 2.43759951C7.05488582 2.84874078 7.00615509 2.93296999 6.56645774 2.93729636L6.54545455 2.93756676 6.54545455 3.04761905 9.09090909 3.04761905 9.09090909 1.79328439 8.99112316 1.79328439C8.92089112 2.58694974 8.57566665 2.88181956 7.87899147 2.88569527 7.54024229 2.887543 7.56850944 2.85090397 7.56850944 2.46486471L7.56850944 1.5503762C7.58067137 1.5497002 7.61960615 1.54677088 7.61960615 1.54677088 8.04921698 1.54677088 8.22517063 1.73830332 8.25837726 2.24467001L8.35351427 2.24467001 8.35351427.752519673 8.25899989.752519673C8.23284966 1.2363982 8.04315676 1.3941308 7.5903428 1.3941308L7.56850944 1.3941308 7.56850944.532054573C7.56850944.195047619 7.56527179.157417129 7.8410944.157417129 8.63016704.157417129 8.86630772.490773699 8.97011996 1.14869888L9.0589062 1.14869888M11.969887 2.74195225C11.752214 2.74195225 11.6475691 2.66151188 11.4809882 2.48081064 11.4808631 2.48033872 10.9241891 1.90228352 10.7510184 1.719523L10.7652824 1.70506519C10.7883885 1.68202706 11.1172962 1.33443887 11.5865506.860076662 11.7031239 1.00345357 11.7766548 1.19732558 11.8211153 1.44890015L11.9246757 1.44890015 11.9246757.380952381 10.886235.380952381 10.886235.487562682C11.1376496.534582758 11.3296306.612792246 11.4699773.73827922 11.0207844 1.19337864 10.6773624 1.55606817 10.6536724 1.58000723L10.6389495 1.59480825 10.6108385 1.56357594C10.5781396 1.52955503 10.2661652 1.20152993 10.2661652 1.20152993 10.2662487 1.20183025 10.2629955 1.19839812 10.2629955 1.19839812 10.2218716 1.15429535 10.1923842 1.12246242 10.1923842 1.08882762 10.1923842 1.03374205 10.3772331 1.04995883 10.4480946 1.04995883L10.4736615 1.04995883 10.4736615.934553717 9.27272727.934553717 9.27272727 1.04944401 9.29783537 1.04995883C9.5462887 1.05446349 9.55579808 1.12181889 9.67937828 1.25326918 9.67962852 1.25369819 10.1644399 1.75547448 10.2730887 1.86869162L10.3098333 1.90618756C10.1328671 2.08109709 9.42675416 2.77828985 9.34688373 2.85714286L9.58303327 2.85714286C9.65698119 2.78455347 10.2546539 2.19834697 10.4261981 2.027985 10.5380167 2.14883861 10.8590416 2.48690266 10.8590416 2.48690266 10.9355337 2.56790075 10.9796605 2.62320082 10.9796605 2.6676039 10.9796605 2.7293821 10.8933671 2.74195225 10.6892908 2.74195225L10.6292316 2.74195225 10.6292316 2.85714286 12 2.85714286 12 2.74195225 11.969887 2.74195225"/>
    </g>
  </g>
</svg>
