<svg xmlns="http://www.w3.org/2000/svg" width="16" height="16" viewBox="0 0 16 16">
  <g fill="none" fill-rule="evenodd">
    <rect width="16" height="16" fill="#86868B" rx="4"/>
    <path fill="#F9F9F9" d="M8.65551074,9.54269332 C9.58139052,9.54269332 10.331812,10.3166492 10.331812,11.2714099 C10.331812,12.2260441 9.58139052,13 8.65551074,13 C7.72963096,13 6.97908675,12.2260441 6.97908675,11.2714099 C6.97908675,10.3166492 7.72963096,9.54269332 8.65551074,9.54269332 Z M3.79753758,8.80465798 C4.23802372,8.80465798 4.59507515,9.17284691 4.59507515,9.62707311 C4.59507515,10.0812993 4.23802372,10.4494882 3.79753758,10.4494882 C3.35705144,10.4494882 3,10.0812993 3,9.62707311 C3,9.17284691 3.35705144,8.80465798 3.79753758,8.80465798 Z M9.73333983,2.40735638 C10.6502626,1.71753987 11.9360159,1.92478849 12.6049659,2.87031284 C13.2739159,3.81583719 13.0729364,5.14157038 12.1560136,5.83138688 C11.7340549,6.14883912 11.2341829,6.27637673 10.7522248,6.22943581 C10.3393457,6.18920073 9.11187401,6.11214676 8.71310522,6.38101324 C8.21409209,6.71744429 8.0018244,7.40194673 7.96489228,7.59793458 C7.88366614,8.02812096 7.60931321,8.41288471 7.19348939,8.60937867 C6.50834326,8.93341023 5.69804508,8.62329646 5.38381528,7.91652555 C5.2154735,7.53783502 5.22381697,7.12194601 5.37326324,6.7678014 C5.41853884,6.66063439 5.59191124,6.04610049 5.50246433,5.73851724 C5.41301742,5.43093398 5.01253086,5.18496859 4.8174409,5.10639631 C4.55314922,5.00011497 4.31450143,4.81285737 4.19842904,4.52108979 C3.99180546,4.0011969 4.2330299,3.40678055 4.73719635,3.19371177 C5.2413628,2.98051646 5.81779842,3.22926541 6.024422,3.7491583 C6.13644536,4.03130995 6.09570959,4.30308652 6.0052811,4.67076935 C5.92859479,4.98278099 5.88025175,5.08045861 6.05215177,5.47496482 C6.18417491,5.77799316 6.62318867,5.87908696 6.98956517,5.96259373 C7.35606436,6.04610049 7.86734729,6.05495727 8.29777219,5.67702589 C8.72807439,5.29909451 8.82206112,4.67874045 8.86439196,4.20072747 C8.92340975,3.53558341 9.170401,2.83083691 9.73333983,2.40735638 Z"/>
  </g>
</svg>
