<svg xmlns="http://www.w3.org/2000/svg" width="16" height="16" viewBox="0 0 16 16">
  <g fill="none" fill-rule="evenodd">
    <rect width="16" height="16" fill="#86868B" rx="4"/>
    <path fill="#FFF" d="M6.98024435,5.49987653 L8.65687549,5.5000882 C8.83853838,5.5000882 8.98596309,5.63993057 8.98596309,5.81251102 C8.98596309,5.85710254 8.97571391,5.89915403 8.9580378,5.93767771 L8.9580378,5.93767771 L8.95251395,5.94957992 C8.93278186,5.98892268 8.8649656,6.12413788 8.76152574,6.33038107 L8.62109607,6.61037628 C8.51714003,6.81764864 8.39357481,7.06401874 8.2567802,7.3367662 L8.04246373,7.76408036 C7.81982018,8.20799746 7.5745878,8.69695321 7.32829849,9.18801638 L7.08245433,9.67819199 C6.34864978,11.141286 5.66992833,12.4945531 5.62765049,12.5788501 C5.53369973,12.7661768 5.29351257,13 5.00549593,13 L5.00549593,13 L3.32893906,12.9997178 C3.14727617,12.9997178 3,12.859946 3,12.6874361 C3,12.6429857 3.01010064,12.6005108 3.02799955,12.5621988 L3.02799955,12.5621988 L6.41096959,5.81244047 C6.51695198,5.62229152 6.73693787,5.49987653 6.98024435,5.49987653 L6.98024435,5.49987653 Z M10.7886294,3 C11.0765717,3 11.3004939,3.18676225 11.4098927,3.42051492 L11.4098927,3.42051492 L11.4107839,3.42122048 L12.9734116,6.62644728 L12.9931672,6.68609373 L12.9931672,6.68609373 L13,6.74999118 C13,6.79380658 12.9906421,6.83550529 12.9734116,6.8731823 L12.9734116,6.8731823 L11.4107839,10.0786913 C11.2881652,10.3134318 11.0765717,10.5001235 10.7886294,10.5001235 L10.7886294,10.5001235 L9.11192395,10.4998412 C8.93018679,10.4998412 8.78305916,10.3600694 8.78305916,10.1875595 C8.78305916,10.1428269 8.79323406,10.1007754 8.81113298,10.0621812 L8.81113298,10.0621812 L10.3872777,6.90027587 C10.4120094,6.85363823 10.4277545,6.80382556 10.4277545,6.75006174 C10.4277545,6.69636847 10.3872777,6.59970649 10.3872777,6.59970649 L10.3872777,6.59970649 L8.81076163,3.43815397 C8.79323406,3.39948917 8.78305916,3.35715546 8.78305916,3.31249339 C8.78305916,3.13998349 8.93026106,3.00014111 9.11192395,3.00014111 L9.11192395,3.00014111 Z"/>
  </g>
</svg>
