<svg xmlns="http://www.w3.org/2000/svg" xmlns:xlink="http://www.w3.org/1999/xlink" width="16" height="16" viewBox="0 0 16 16">
  <defs>
    <polygon id="presta@3x-a" points="0 0 10 0 10 8.785 0 8.785"/>
  </defs>
  <g fill="none" fill-rule="evenodd">
    <rect width="16" height="16" fill="#86868B" rx="4"/>
    <g transform="translate(3 3)">
      <mask id="presta@3x-b" fill="#fff">
        <use xlink:href="#presta@3x-a"/>
      </mask>
      <path fill="#FFF" d="M3.23994177,7.67248798 C3.31979173,7.63694437 3.40072642,7.60426943 3.48243091,7.57358858 C3.57459778,7.53895454 3.66753445,7.50638456 3.76173081,7.47801264 C3.87898637,7.44267893 3.9972217,7.41073865 4.11703163,7.38530537 C4.27855108,7.35102118 4.44206504,7.3255879 4.6067687,7.30963526 C4.51439189,7.6000014 4.41232251,7.8887233 4.30168028,8.17559105 C4.30643908,8.23114544 4.30895845,8.28704967 4.31042808,8.34309383 C4.53321716,8.29915409 4.76328442,8.27560994 4.99895026,8.27560994 C5.23458112,8.27560994 5.46468336,8.29915409 5.68743745,8.34309383 C5.68894208,8.28704967 5.69146144,8.23114544 5.69622025,8.17559105 C5.58554303,7.8887233 5.48350864,7.6000014 5.39113183,7.30963526 C5.55583549,7.3255879 5.71931445,7.35102118 5.8808689,7.38530537 C6.00064384,7.41073865 6.11887916,7.44267893 6.23613473,7.47801264 C6.33036608,7.50638456 6.42330275,7.53895454 6.51550461,7.57358858 C6.5972091,7.60430442 6.67817878,7.63697935 6.75802873,7.67252297 C7.3247115,7.92482665 7.84132183,8.29908412 8.26499549,8.78469526 C9.32694394,7.86783793 10,6.51291255 10,5 C10,2.23858301 7.760947,0 4.99895026,0 C2.23695352,0 -0.00209947303,2.23858301 -0.00209947303,5 C-0.00209947303,6.51291255 0.67095659,7.86780294 1.73290504,8.78469526 C2.15661369,8.29904914 2.67325901,7.92479167 3.23994177,7.67248798" mask="url(#presta@3x-b)"/>
      <path fill="#4B4D4A" d="M3.56952405 8.57710096C3.80428013 8.47333879 4.0521929 8.39399537 4.31042808 8.34309383 4.30895845 8.28704967 4.30643908 8.23114544 4.30168028 8.17559105 4.41232251 7.8887233 4.51439189 7.6000014 4.6067687 7.30963526 4.44206504 7.3255879 4.27855108 7.35102118 4.11703163 7.38530537 3.9972217 7.41073865 3.87898637 7.44267893 3.76173081 7.47801264 3.66753445 7.50638456 3.57459778 7.53895454 3.48243091 7.57358858L3.84696941 7.66188787 3.56952405 8.57710096M2.71013975 9.11616745C2.71927246 9.02297041 2.72483607 8.92900373 2.72483607 8.83398753 2.72483607 8.77685887 2.77116444 8.73050524 2.82834009 8.73050524L2.91921228 8.73050524 3.23994177 7.67248798C2.67325901 7.92479167 2.15661369 8.29904914 1.73290504 8.78469526 1.96647142 8.9863423 2.21868811 9.16664917 2.48696577 9.32281718 2.55838285 9.25085536 2.63277417 9.18183218 2.71013975 9.11616745M6.75802873 7.67252297L7.07875823 8.73050524 7.16956044 8.73050524C7.22673609 8.73050524 7.27302947 8.77685887 7.27302947 8.83398753 7.27302947 8.92900373 7.27862806 9.02297041 7.28772578 9.11616745 7.36509136 9.18183218 7.43951768 9.25085536 7.51093476 9.32281718 7.77921242 9.16664917 8.03142911 8.9863423 8.26499549 8.78469526 7.84132183 8.29908412 7.3247115 7.92482665 6.75802873 7.67252297M6.1510011 7.66188787L6.51550461 7.57358858C6.42330275 7.53895454 6.33036608 7.50638456 6.23613473 7.47801264 6.11887916 7.44267893 6.00064384 7.41073865 5.8808689 7.38530537 5.71931445 7.35102118 5.55583549 7.3255879 5.39113183 7.30963526 5.48350864 7.6000014 5.58554303 7.8887233 5.69622025 8.17559105 5.69146144 8.23114544 5.68894208 8.28704967 5.68743745 8.34309383 5.94574262 8.39403035 6.19365539 8.47333879 6.42844646 8.57713594L6.1510011 7.66188787"/>
      <path fill="#1A1919" d="M4.99898525 8.73050524L5.70367338 8.73050524C5.689257 8.60071507 5.6840783 8.47134471 5.68743745 8.34309383 5.46468336 8.29915409 5.23458112 8.27560994 4.99895026 8.27560994 4.76328442 8.27560994 4.53321716 8.29915409 4.31042808 8.34309383 4.31382223 8.47134471 4.30864353 8.60071507 4.29419216 8.73050524L4.99898525 8.73050524M2.48696577 9.34852204C2.57629168 9.38655944 2.66637049 9.42365278 2.75795509 9.45909404 2.79006079 9.34643726 2.81447618 9.23208906 2.82996436 9.11616745 2.71106033 9.19000012 2.59672747 9.26760899 2.48696577 9.34852204"/>
      <path fill="#1A1919" d="M3.52302072 8.73050524L4.29419216 8.73050524C4.30864353 8.60071507 4.31382223 8.47134471 4.31042808 8.34309383 4.0521929 8.39399537 3.80428013 8.47333879 3.56952405 8.57710096L3.52302072 8.73050524M7.28772578 9.11616745C7.3032653 9.23208906 7.32767686 9.34643726 7.35977753 9.45909404 7.45134777 9.42365278 7.54141246 9.38655944 7.63072437 9.34852204 7.52097987 9.26760899 7.40661117 9.19000012 7.28772578 9.11616745M6.47494979 8.73050524L6.42844646 8.57713594C6.19365539 8.47333879 5.94574262 8.39403035 5.68743745 8.34309383 5.6840783 8.47134471 5.689257 8.60071507 5.70367338 8.73050524L6.47494979 8.73050524"/>
      <path fill="#919191" d="M3.52302072 8.73050524L3.84696941 7.66188787 3.48243091 7.57358858C3.40072642 7.60426943 3.31979173 7.63694437 3.23994177 7.67248798L2.91921228 8.73050524 3.52302072 8.73050524M6.42844646 8.57713594L6.47494979 8.73050524 7.07875823 8.73050524 6.75802873 7.67252297C6.67817878 7.63697935 6.5972091 7.60430442 6.51550461 7.57358858L6.1510011 7.66188787 6.42844646 8.57713594"/>
      <path fill="#B8A98F" d="M2.92974463,8.97911463 C2.94926973,8.96501613 2.96901178,8.95135143 2.98853688,8.93746983 L2.93234798,8.93746983 C2.93191409,8.95135143 2.93039547,8.96523303 2.92974463,8.97911463"/>
      <path fill="#B2B2B2" d="M4.99895026,8.93746983 L2.93922725,8.93746983 C2.93607804,8.93970879 2.93289384,8.94191278 2.92974463,8.94418673 C2.92285136,9.13960664 2.89667793,9.33114334 2.85423359,9.51753742 C3.50426543,9.82658494 4.23127795,10 4.99895026,10 L4.99895026,8.93746983"/>
      <path fill="#9E8D6F" d="M7.11504412,8.93746983 L7.05863828,8.93746983 C7.07838033,8.95135143 7.09812237,8.96501613 7.11743052,8.97911463 C7.11699663,8.96523303 7.11547802,8.95135143 7.11504412,8.93746983"/>
      <path fill="#919191" d="M7.05863828,8.93746983 L4.99895026,8.93746983 L4.99895026,10 C5.76662258,10 6.4936351,9.82658494 7.14366694,9.51753742 C7.10122259,9.33114334 7.07504916,9.13960664 7.0681209,8.94418673 C7.06500668,8.94191278 7.06182248,8.93970879 7.05863828,8.93746983"/>
      <polygon fill="#6C5C4B" points="4.999 9.177 4.999 9.177 4.999 8.834 4.999 8.834"/>
      <path fill="#5E5E5E" d="M7.28772578,9.11616745 C7.27862806,9.02297041 7.27302947,8.92900373 7.27302947,8.83398753 C7.27302947,8.77685887 7.22673609,8.73050524 7.16956044,8.73050524 L2.82834009,8.73050524 C2.77116444,8.73050524 2.72483607,8.77685887 2.72483607,8.83398753 C2.72483607,8.92900373 2.71927246,9.02297041 2.71013975,9.11616745 C2.70006228,9.21926492 2.68417627,9.32096304 2.66328652,9.42115685 C2.72623571,9.45446149 2.78970978,9.48685656 2.85423359,9.51753742 C2.89667793,9.33114334 2.92285136,9.13960664 2.92974463,8.94418673 C2.92984961,8.94194776 2.93009455,8.93970879 2.93016453,8.93746983 L7.067736,8.93746983 C7.06780598,8.93970879 7.06805092,8.94194776 7.0681209,8.94418673 C7.07504916,9.13960664 7.10122259,9.33114334 7.14366694,9.51753742 C7.20819074,9.48685656 7.27166481,9.45446149 7.33461401,9.42115685 C7.31372426,9.32096304 7.29783824,9.21926492 7.28772578,9.11616745"/>
      <path fill="#4B4D4A" d="M6.67413379,8.31356745 C6.58063026,8.20598504 6.48408949,8.09081114 6.3840776,7.96002043 C6.48430644,8.09102804 6.58063026,8.20598504 6.67413379,8.31356745"/>
      <path fill="#9E8D6F" d="M6.77075819,8.35047053 C6.77075819,8.35047053 6.77179194,8.35384157 6.77385944,8.35997073 C6.77179194,8.35384157 6.77075819,8.35047053 6.77075819,8.35047053 C6.77075819,8.35047053 6.62096766,8.23319924 6.43086085,8.01704414 C6.62096766,8.23319924 6.77075819,8.35047053 6.77075819,8.35047053"/>
      <polyline fill="#FFFFFE" points="8.074 3.607 8.074 3.609 8.074 3.607"/>
      <path fill="#FFFFFE" d="M8.2752829,5.05455385 C8.2752829,5.05151725 8.2757168,5.04848065 8.2757168,5.04544405 C8.2757168,5.04848065 8.2752829,5.05151725 8.2752829,5.05455385"/>
      <path fill="silver" d="M8.32874948,3.88730295 L8.32871449,3.88726797 L8.32874948,3.88730295 C8.32790969,3.88618347 8.32706991,3.88516894 8.32626511,3.88404945 L8.32633509,3.88408444 C8.28476552,3.82639603 8.24190128,3.7737453 8.19791732,3.72595733 C8.19781235,3.7258174 8.19767238,3.72564248 8.19753242,3.72550254 C8.19767238,3.72564248 8.19781235,3.7258174 8.19791732,3.72595733 C8.19753242,3.72553753 8.19714752,3.72504775 8.19676261,3.72459296 L8.19676261,3.72462795 C8.17678263,3.70297293 8.15662769,3.68229746 8.13619282,3.66270649 C8.12845976,3.6553249 8.12051675,3.64885288 8.11271371,3.64178614 C8.09987193,3.63010152 8.08710014,3.61806707 8.07404841,3.60736201 L8.07404841,4.07254256 L8.2521887,4.88808659 L8.2521887,4.88805161 C8.25411322,4.89438369 8.25645763,4.90029596 8.2581722,4.90687293 L8.38158622,5.0451292 L8.38277592,5.04379981 L8.51189351,5.04379981 C8.51210346,5.03180034 8.51280329,5.02001078 8.51280329,5.00801131 L8.51280329,5.0078014 C8.5127683,4.62315373 8.44957416,4.25354911 8.3350479,3.90727874 L8.3350479,3.90731373 C8.33287845,3.90066679 8.33098892,3.89391491 8.32874948,3.88730295"/>
      <path fill="#B6B7B4" d="M8.2757168,5.05253878 C8.2757168,5.04950218 8.2752829,5.04689938 8.2752829,5.04407968 C8.2752829,5.04689938 8.2757168,5.04971908 8.2757168,5.05253878"/>
      <path fill="#5F6360" d="M8.2902645,4.98204799 C8.29065349,4.98369542 8.29182049,4.98516944 8.29220948,4.98681688 C8.29250123,4.98781401 8.29318198,4.98872444 8.29347373,4.98972157 C8.29347373,4.98985163 8.29347373,4.98998169 8.29347373,4.99011175 C8.30008668,5.01378279 8.30271242,5.03849431 8.30378216,5.0634226 C8.30407391,5.06801808 8.30572715,5.07231008 8.30572715,5.07690556 C8.30572715,5.07746915 8.30592165,5.0779894 8.30592165,5.07859635 C8.30592165,5.0792033 8.30572715,5.07981025 8.30572715,5.0804172 C8.3056299,5.0853595 8.30387941,5.08995498 8.30368491,5.09485393 C8.30242067,5.11930533 8.29998943,5.14353997 8.29357098,5.16677747 C8.29357098,5.16690753 8.29357098,5.16703759 8.29357098,5.16716765 C8.29318198,5.1683382 8.29250123,5.16942204 8.29211223,5.17063594 C8.29162599,5.17254349 8.29045899,5.17423428 8.28977825,5.17609848 C8.2819983,5.20146031 8.27198161,5.22604177 8.25865845,5.24940934 C8.2585612,5.2495394 8.2585612,5.24966946 8.25846395,5.24975617 L8.25846395,5.24979952 L8.26040893,5.24884574 C8.26060343,5.24845556 8.26089518,5.24810873 8.26118693,5.24771855 L8.26118693,5.2477619 L8.60117078,5.07820617 L8.2581722,4.90687293 C8.2581722,4.90695964 8.2581722,4.90713305 8.2583667,4.90721976 C8.27198161,4.93106421 8.2823873,4.95616592 8.2902645,4.98204799"/>
      <path fill="#1A1919" d="M8.0812566,4.99951023 C8.03958206,4.99951023 8.00578055,4.94161192 8.00578055,4.87020983 C8.00578055,4.79880775 8.03958206,4.74090944 8.0812566,4.74090944 C8.12296614,4.74090944 8.15673266,4.79880775 8.15673266,4.87020983 C8.15673266,4.94161192 8.12296614,4.99951023 8.0812566,4.99951023 Z M8.26954434,5.12412278 C8.26992925,5.12153397 8.27062907,5.11922504 8.270909,5.11660125 C8.27321842,5.09784989 8.2740932,5.07829391 8.27454809,5.058563 C8.27461807,5.05408507 8.2753179,5.04992199 8.2753179,5.04544405 C8.2753179,5.04124599 8.27468805,5.03736278 8.27458308,5.03319969 C8.27419818,5.01308397 8.27325341,4.99314316 8.27087401,4.97404197 C8.27062907,4.97176801 8.26999923,4.96977393 8.2697193,4.96753497 C8.26688501,4.94664959 8.26314095,4.92639393 8.25824218,4.9071528 C8.25649262,4.9004359 8.25411322,4.89445366 8.25211872,4.88798164 C8.24029169,4.84883469 8.22416074,4.81427062 8.20502054,4.78554886 C8.20243119,4.78173562 8.19980685,4.77799235 8.19714752,4.77442399 C8.19189883,4.76735725 8.18661516,4.76046543 8.18101656,4.75430826 C8.17272365,4.74535239 8.16418579,4.7370962 8.15515806,4.73027434 C8.15172892,4.72765055 8.14808983,4.72583139 8.14455572,4.72352246 C8.13675268,4.71851976 8.12877468,4.71411179 8.12055174,4.71075334 C8.11701763,4.709319 8.11348352,4.70791965 8.10987942,4.70680017 C8.09822734,4.70319683 8.08633033,4.70060802 8.07404841,4.70060802 C8.0617665,4.70060802 8.04990447,4.70319683 8.03821741,4.70680017 C8.03461331,4.70791965 8.0310792,4.709319 8.02754509,4.71078833 C8.01932215,4.71411179 8.01134415,4.71851976 8.00350612,4.72355744 C8.00004199,4.72583139 7.99636791,4.72765055 7.99297376,4.73023936 C7.98394603,4.7370962 7.97537318,4.74535239 7.96708026,4.75430826 C7.96148167,4.76046543 7.95623299,4.76732226 7.95101929,4.77435402 C7.94828998,4.77799235 7.94566564,4.78173562 7.94307629,4.78558385 C7.92393609,4.81430561 7.90777015,4.84886967 7.89597811,4.88801662 C7.89545324,4.8895909 7.89492837,4.89109521 7.89447349,4.89270446 C7.8892598,4.91065119 7.88520081,4.92957746 7.88177168,4.94899351 C7.88075693,4.95497576 7.87939227,4.96064314 7.87855248,4.96673034 C7.87543826,4.98842034 7.87386366,5.01108989 7.87347876,5.03428419 C7.87340877,5.03750271 7.8729189,5.04054631 7.8729189,5.04379981 L7.8737237,5.04379981 C7.8737237,5.23421703 7.96382608,5.38860086 8.07499318,5.38860086 C8.09413337,5.38860086 8.11257374,5.38359816 8.13006935,5.37502711 C8.13286865,5.37362776 8.13566795,5.37219342 8.13843225,5.37058416 C8.14571043,5.36642108 8.15284863,5.36183819 8.15970691,5.35634572 C8.16348597,5.35330213 8.16702008,5.34959384 8.17065916,5.34616542 C8.17954693,5.33787424 8.18797982,5.32849856 8.19599281,5.31807337 C8.20152142,5.31079672 8.20701504,5.30348509 8.21208877,5.29529887 C8.21530796,5.29012125 8.2183172,5.28448885 8.22132645,5.2789614 C8.22692504,5.26857119 8.23224371,5.25772619 8.23707249,5.24625148 C8.23885705,5.24212338 8.24067659,5.23810024 8.24232118,5.2338322 C8.24844464,5.21784457 8.25383329,5.20098235 8.25834715,5.18328051 C8.26314095,5.1644242 8.26674505,5.14458834 8.26954434,5.12412278 L8.26954434,5.12412278 Z"/>
      <path fill="#FFFFFE" d="M8.17727984,4.74090944 C8.08258552,4.74090944 8.00578055,4.81768751 8.00578055,4.91237273 C8.00578055,5.00705796 8.08258552,5.08383603 8.17727984,5.08383603 C8.27205367,5.08383603 8.34877913,5.00705796 8.34877913,4.91237273 C8.34877913,4.81768751 8.27205367,4.74090944 8.17727984,4.74090944"/>
      <path fill="#8A8D88" d="M7.89597811,4.88801662 L7.89597811,4.88801662 C7.90777015,4.84886967 7.92393609,4.81430561 7.94307629,4.78558385 C7.94566564,4.78170064 7.94828998,4.77802733 7.95101929,4.77435402 C7.95623299,4.76732226 7.96148167,4.76046543 7.96708026,4.75430826 C7.97533819,4.74528242 7.98394603,4.73716617 7.99297376,4.73023936 C7.99636791,4.72765055 8.00004199,4.72583139 8.00350612,4.72355744 C8.01130916,4.71844979 8.01932215,4.71418176 8.02754509,4.71078833 C8.0310792,4.709319 8.03461331,4.70791965 8.03821741,4.70680017 C8.04986948,4.70312686 8.0617665,4.70060802 8.07404841,4.70060802 C8.08633033,4.70060802 8.09822734,4.70312686 8.10987942,4.70680017 C8.11348352,4.70791965 8.11701763,4.709319 8.12055174,4.71075334 C8.12877468,4.71418176 8.13675268,4.71844979 8.14455572,4.72352246 C8.14808983,4.72583139 8.15172892,4.72765055 8.15515806,4.73027434 C8.1641508,4.73716617 8.17275864,4.74528242 8.18101656,4.75430826 C8.18661516,4.76046543 8.19189883,4.76735725 8.19714752,4.77442399 C8.19980685,4.77802733 8.20243119,4.78170064 8.20502054,4.78554886 C8.22416074,4.81427062 8.24029169,4.84883469 8.25211872,4.88798164 L8.25215371,4.88805161 L8.2521887,4.88805161 L8.07404841,4.07254256 L7.89590813,4.88801662 L7.89597811,4.88801662"/>
      <path fill="#1A1919" d="M5.24308399,4.98261302 C5.14535352,4.98261302 5.06609841,4.90337454 5.06609841,4.8056296 C5.06609841,4.70788467 5.14535352,4.62868118 5.24308399,4.62868118 C5.34084945,4.62868118 5.42010455,4.70788467 5.42010455,4.8056296 C5.42010455,4.90337454 5.34084945,4.98261302 5.24308399,4.98261302 Z M5.7139258,5.03781757 C5.71368087,5.02141013 5.71263113,5.0052126 5.7107766,4.98925995 C5.7107416,4.98905005 5.71067162,4.98884014 5.71067162,4.98859526 C5.7087821,4.9728875 5.70615775,4.95738964 5.7027986,4.94220664 C5.70269362,4.94178684 5.70258865,4.94140201 5.70248368,4.94101719 C5.69912452,4.92597413 5.69506554,4.91121093 5.69027174,4.89676259 C5.69013178,4.89641275 5.68999181,4.8960979 5.68988684,4.89574806 C5.68505805,4.88126474 5.67959942,4.86706128 5.67340598,4.85324266 C5.673301,4.85296278 5.67312605,4.85268291 5.67298608,4.85240304 C5.66679264,4.83851444 5.65989937,4.82497569 5.65241124,4.81182175 C5.62952699,4.77173023 5.60093916,4.73534701 5.5677325,4.70372158 C5.52556808,4.66359508 5.47602052,4.63113005 5.42132925,4.60863542 C5.42090935,4.6084605 5.42041947,4.60832056 5.41996459,4.60814564 C5.39302135,4.59716071 5.36485342,4.58855468 5.33567075,4.58271237 C5.33493593,4.58257243 5.33420112,4.58253745 5.3334663,4.58239751 C5.30421364,4.57666016 5.27405121,4.57351161 5.24308399,4.57351161 C5.21271161,4.57351161 5.18307405,4.57662518 5.15431127,4.58215263 C5.15329652,4.58236253 5.15224679,4.5824325 5.15123204,4.58260742 C5.12260923,4.58830979 5.09496616,4.59667093 5.06847781,4.60730603 C5.06777799,4.6075859 5.06704317,4.60783079 5.06634335,4.60811066 C5.03947009,4.61906061 5.01378654,4.63238947 4.98967759,4.64788732 C4.98957262,4.64795729 4.98950263,4.64799228 4.98943265,4.64802726 C4.96507877,4.66370003 4.9422295,4.68154181 4.92119978,4.70127271 L4.92067491,4.70288197 L4.91892535,4.70330178 C4.88536877,4.73520707 4.85650102,4.77197512 4.83340681,4.81241648 C4.83312689,4.81290625 4.83284696,4.81336104 4.83256703,4.81385081 C4.82553379,4.82627009 4.81916539,4.83914415 4.81325187,4.85226311 C4.81265702,4.85366246 4.81188722,4.85499185 4.81129237,4.85642619 C4.80593871,4.86856559 4.80131987,4.8811248 4.79701595,4.89378896 C4.79621115,4.89627282 4.79512642,4.89861674 4.79435662,4.90110059 C4.79057757,4.91292514 4.78753333,4.92506455 4.78466405,4.93727392 C4.78389424,4.94073732 4.78277452,4.94409577 4.78203971,4.94759416 C4.77952034,4.95959363 4.77780577,4.97190795 4.77619617,4.98425726 C4.77574129,4.98803552 4.7749015,4.99167384 4.7745166,4.99548708 C4.77283702,5.01161465 4.77192725,5.0279871 4.77192725,5.04460444 C4.77192725,5.07577507 4.77511145,5.10617605 4.78091999,5.13563247 C4.78102496,5.1362272 4.78105995,5.13689189 4.78119992,5.13748662 C4.78711343,5.16690806 4.79579126,5.19527998 4.80691846,5.22242746 C4.80705843,5.22281228 4.8071634,5.22319711 4.80733836,5.22354694 C4.83001267,5.27847162 4.86279944,5.32821869 4.90331927,5.37044423 C4.93533623,5.40381884 4.97221697,5.43247063 5.01277179,5.45535008 C5.01298174,5.45545504 5.0131567,5.45559497 5.01336664,5.45569992 C5.02603347,5.46280165 5.03912018,5.46923868 5.05245183,5.47515096 C5.05353656,5.47564073 5.0545863,5.47623546 5.05570602,5.47672523 C5.06805792,5.48211275 5.08079472,5.4867656 5.09370648,5.4911036 C5.09587594,5.49183826 5.09797541,5.49278283 5.10017985,5.4934825 C5.11207687,5.49726076 5.12432379,5.50030436 5.13660571,5.50313805 C5.13992988,5.5039077 5.14311408,5.5049922 5.14647324,5.50569188 C5.15844023,5.50817573 5.17068716,5.50985496 5.18300407,5.51142923 C5.18671314,5.51188402 5.19038721,5.51272363 5.19416626,5.51314344 C5.21026222,5.51478768 5.22656813,5.51566228 5.24308399,5.51566228 C5.30816765,5.51566228 5.3701371,5.50250834 5.42650795,5.47864934 C5.45467588,5.46675483 5.48147915,5.45216655 5.50653286,5.43523436 C5.55667527,5.40136997 5.59992442,5.35809492 5.63383091,5.30799801 C5.65073167,5.28291458 5.665323,5.25615191 5.67725501,5.22795491 C5.70108403,5.17159589 5.71427572,5.10963946 5.71427572,5.04460444 C5.71427572,5.04348495 5.71413575,5.04243544 5.71413575,5.04135094 C5.71410076,5.04016149 5.7139608,5.03900702 5.7139258,5.03781757 L5.7139258,5.03781757 Z"/>
      <path fill="#FFFFFE" d="M5.24308399,4.62868118 C5.14535352,4.62868118 5.06609841,4.70788467 5.06609841,4.8056296 C5.06609841,4.90337454 5.14535352,4.98261302 5.24308399,4.98261302 C5.34084945,4.98261302 5.42010455,4.90337454 5.42010455,4.8056296 C5.42010455,4.70788467 5.34084945,4.62868118 5.24308399,4.62868118"/>
      <path fill="silver" d="M4.91892535,4.70330178 L4.91892535,4.70330178 L4.92067491,4.70288197 L4.92119978,4.70127271 L5.24570833,3.70902514 C5.24570833,3.70902514 5.24570833,3.6503222 5.24570833,3.59161926 C5.24570833,3.57507189 5.24570833,3.55866446 5.24570833,3.54344647 C5.24570833,3.53840879 5.24570833,3.53333613 5.24570833,3.52864829 C5.24570833,3.52123171 5.24570833,3.51447982 5.24570833,3.50821771 C5.24570833,3.50380974 5.24570833,3.49954171 5.24570833,3.49583342 C5.24570833,3.49090069 5.24570833,3.48687755 5.24570833,3.48348411 C5.24570833,3.48075537 5.24570833,3.47834148 5.24570833,3.47680219 C5.24570833,3.47508798 5.24567334,3.4741784 5.24567334,3.4741784 C5.0649437,3.43713048 4.87910534,3.41676987 4.68892808,3.41676987 C4.62541902,3.41676987 4.56246982,3.41946363 4.49987053,3.42369668 C4.49073782,3.42432639 4.48160512,3.42488613 4.47247241,3.4255858 C4.14673917,3.4503194 3.82597468,3.53519028 3.52896923,3.67075278 C3.27426816,3.78703917 3.03758757,3.94019857 2.82487596,4.12179985 L2.82487596,4.12183483 C2.82477098,4.12193979 2.82463102,4.12204474 2.82452604,4.12214969 C2.76738539,4.17067232 2.71265912,4.22188871 2.65919254,4.27436452 C2.64918505,4.28416 2.6390376,4.29381555 2.62917008,4.30375097 C2.57881772,4.3544426 2.53017992,4.40684844 2.48315173,4.46075859 C2.47293429,4.47251317 2.46292681,4.48447766 2.45284933,4.49637217 C2.40561119,4.55210148 2.35963273,4.60891529 2.31603368,4.66761823 C2.3123596,4.67251597 2.30896545,4.6776586 2.30536135,4.68259133 C2.2637568,4.73919523 2.22414674,4.79726846 2.18597132,4.85632124 C2.17851819,4.86783093 2.17085512,4.87923567 2.16354195,4.89085032 C2.1326797,4.93979276 2.10395191,4.99006458 2.07543407,5.04047634 L3.553778,5.04047634 L4.91892535,4.70330178"/>
      <path fill="#EBEBEB" d="M6.16695709,4.59163326 C6.16996634,4.55294109 6.17245071,4.51424893 6.17444521,4.47552178 C6.17713954,4.42308096 6.17895908,4.37060515 6.17997383,4.31812934 C6.18074363,4.27737313 6.18063866,4.23661692 6.1804637,4.19586071 C6.18042871,4.18410613 6.18070864,4.17235155 6.18060367,4.16056198 C6.17951894,4.0555404 6.17542497,3.95041386 6.16898658,3.84518237 C6.16870665,3.84500745 6.16842672,3.84479755 6.1681468,3.84462263 C6.16797184,3.84434276 6.16783187,3.84409787 6.1677269,3.84385298 C6.16730701,3.8436081 6.16580238,3.8427335 6.16440273,3.84196385 C6.16314305,3.84122919 6.16205832,3.84059948 6.15971391,3.8392701 C6.14039876,3.82818021 6.09295067,3.80103272 6.05036636,3.77682388 C6.04945659,3.77633411 6.04854681,3.77577437 6.04763704,3.77528459 C6.03685975,3.76916242 6.02646736,3.76328513 6.01705472,3.75796758 C6.01687976,3.75789761 6.01666982,3.75775767 6.01649486,3.75765272 C6.0083769,3.75310482 6.0015886,3.74929158 5.99529018,3.74579319 C5.9940305,3.74509351 5.99228094,3.74411396 5.99112623,3.74344927 C5.98419797,3.73960104 5.97884431,3.73669738 5.9756951,3.73505314 C5.90774216,3.69982438 5.83838956,3.66718443 5.76784727,3.63741315 C5.59974946,3.56643088 5.37328631,3.50422955 5.24570833,3.4741784 L5.24570833,3.59161926 C5.24570833,3.6503222 5.24570833,3.70902514 5.24570833,3.70902514 L5.56738259,4.70288197 L5.5677325,4.70372158 C5.60093916,4.73534701 5.62952699,4.77173023 5.65241124,4.81178677 L5.65241124,4.81182175 C5.65989937,4.82497569 5.66679264,4.83851444 5.67298608,4.85240304 C5.67316104,4.85268291 5.673301,4.85296278 5.67340598,4.85324266 C5.67959942,4.86706128 5.68505805,4.88126474 5.68988684,4.89574806 C5.68999181,4.8960979 5.69013178,4.89641275 5.69027174,4.89676259 C5.69506554,4.91121093 5.69912452,4.92597413 5.70248368,4.94101719 C5.70258865,4.94140201 5.70269362,4.94178684 5.7027986,4.94220664 C5.70615775,4.95738964 5.7087821,4.9728875 5.71067162,4.98859526 C5.71067162,4.98884014 5.7107416,4.98905005 5.7107766,4.98925995 C5.71263113,5.0052126 5.71368087,5.02141013 5.7139258,5.03781757 L5.71511551,5.04047634 L6.10897665,5.04047634 C6.13560496,4.89637777 6.15415031,4.75035509 6.16590736,4.60370269 C6.16618729,4.59967955 6.16664217,4.5956564 6.16695709,4.59163326"/>
      <path fill="#F1A948" d="M6.68570189,4.24022026 C6.68418327,4.24303996 6.6828816,4.24607656 6.68136298,4.24889626 C6.6828816,4.24607656 6.68440022,4.24325686 6.68570189,4.24043716 L6.68570189,4.24022026"/>
      <path fill="#BABABA" d="M5.71731995,6.45665848 C5.80661754,6.36779944 5.89101635,6.28261372 5.97149615,6.19921216 C6.01929416,6.14964002 6.06604242,6.10055764 6.11065623,6.05213996 C6.4398536,5.69491964 6.68150294,5.36061376 6.82685646,4.93055701 C6.8302856,4.92034172 6.83371474,4.90690792 6.8370389,4.89179488 C6.83756377,4.88945096 6.83808864,4.88724698 6.83857852,4.88479811 C6.84200766,4.86874051 6.84533182,4.85089874 6.848621,4.83078301 C6.84995066,4.8169294 6.85128033,4.8034606 6.85250502,4.7904466 C6.81604417,4.60317793 6.74504699,4.42119183 6.68251769,4.24147968 C6.68272764,4.24210939 6.68293758,4.24270411 6.68314753,4.24333382 C6.68279762,4.24301897 6.68160792,4.24182952 6.68136298,4.24161961 C6.66936099,4.23024985 6.65676415,4.21961476 6.6446222,4.20841992 C6.60760149,4.17427566 6.56995094,4.141006 6.53160057,4.1086809 C6.41661943,4.0117056 6.29575976,3.92323139 6.16898658,3.84518237 C6.17542497,3.95041386 6.17951894,4.0555404 6.18060367,4.16056198 C6.18074363,4.17235155 6.18042871,4.18410613 6.1804637,4.19586071 C6.18063866,4.23661692 6.18074363,4.27737313 6.17997383,4.31812934 C6.17895908,4.37060515 6.17713954,4.42308096 6.17444521,4.47552178 C6.17245071,4.51424893 6.16996634,4.55294109 6.16695709,4.59163326 C6.16664217,4.5956564 6.16618729,4.59967955 6.16590736,4.60370269 C6.15415031,4.75035509 6.13560496,4.89637777 6.10897665,5.04047634 L6.06271826,5.25919551 C5.96610751,5.65080498 5.76984177,6.0060662 5.60849727,6.37283712 C5.56570301,6.47012727 5.5251132,6.56846694 5.48952713,6.66866075 C5.48627295,6.67786151 5.48280881,6.68748207 5.47944966,6.6969627 C5.52983701,6.6440321 5.57445081,6.59823821 5.60839229,6.56465369 C5.64537801,6.52802558 5.68169889,6.49206216 5.71731995,6.45665848"/>
      <path fill="#8A8D88" d="M4.92119978,4.70127271 L4.92119978,4.70127271 C4.9422295,4.68154181 4.96507877,4.66370003 4.98943265,4.64802726 C4.98950263,4.64799228 4.98957262,4.64795729 4.98967759,4.64788732 C5.01378654,4.63238947 5.03947009,4.61906061 5.06634335,4.60811066 C5.06704317,4.60783079 5.06777799,4.60762089 5.06847781,4.60730603 C5.09496616,4.59667093 5.12260923,4.58830979 5.15123204,4.58260742 C5.15224679,4.5824325 5.15326153,4.58236253 5.15431127,4.58215263 C5.18307405,4.57662518 5.21271161,4.57351161 5.24308399,4.57351161 C5.27405121,4.57351161 5.30421364,4.57666016 5.3334663,4.58239751 C5.33420112,4.58253745 5.33493593,4.58257243 5.33567075,4.58271237 C5.36485342,4.58855468 5.39302135,4.59716071 5.41996459,4.60814564 C5.42041947,4.60832056 5.42087436,4.6084605 5.42132925,4.60863542 C5.47602052,4.63113005 5.52556808,4.66359508 5.5677325,4.70372158 L5.56738259,4.70288197 L5.24570833,3.70902514 L4.92119978,4.70127271"/>
      <path fill="#5D5D5D" d="M4.80691846,5.22242746 C4.79579126,5.19527998 4.78711343,5.16690806 4.78119992,5.13748662 C4.78105995,5.13689189 4.78102496,5.1362272 4.78091999,5.13563247 C4.77511145,5.10617605 4.77192725,5.07577507 4.77192725,5.04460444 C4.77192725,5.0279871 4.77283702,5.01161465 4.7745166,4.99548708 C4.7749015,4.99167384 4.77574129,4.98803552 4.77619617,4.98425726 C4.77780577,4.97190795 4.77952034,4.95959363 4.78203971,4.94759416 C4.78277452,4.94409577 4.78389424,4.94073732 4.78466405,4.93727392 C4.78753333,4.92506455 4.79057757,4.91292514 4.79435662,4.90110059 C4.79516141,4.89861674 4.79617616,4.89627282 4.79701595,4.89378896 C4.80131987,4.8811248 4.80593871,4.86856559 4.81129237,4.85642619 C4.81188722,4.85499185 4.81265702,4.85366246 4.81325187,4.85226311 C4.81916539,4.83914415 4.82553379,4.82627009 4.83256703,4.81385081 C4.83284696,4.81336104 4.83316188,4.81290625 4.83340681,4.81241648 C4.85650102,4.77197512 4.88536877,4.73520707 4.91892535,4.70330178 L3.553778,5.04047634 L3.55115366,5.04047634 L4.90331927,5.37044423 C4.86279944,5.32821869 4.83001267,5.27847162 4.80733836,5.22354694 C4.8071634,5.22319711 4.80705843,5.22281228 4.80691846,5.22242746"/>
      <path fill="#EBEBEB" d="M7.87855248,4.96673034 C7.87942726,4.96064314 7.88072194,4.95497576 7.88177168,4.94899351 C7.88520081,4.92957746 7.8892598,4.91065119 7.89447349,4.89270446 C7.89506834,4.8906754 7.89531328,4.88836646 7.89590813,4.88637238 L8.07404841,4.07089832 L8.07401342,3.60592767 C7.92848495,3.48575807 7.77263407,3.42005835 7.6103448,3.42005835 C7.40533126,3.42005835 7.21413925,3.53323118 7.07116514,3.67306172 C6.9147544,3.82604619 6.79385974,4.01856244 6.69609428,4.21282789 C6.6916154,4.22174877 6.68699656,4.23035481 6.68255268,4.23934566 C6.71268012,4.26540865 6.74249263,4.29189144 6.77192025,4.31879404 C6.83847354,4.37970096 6.9035922,4.44218215 6.96787106,4.50553795 C6.99782355,4.53509932 7.02718118,4.56525542 7.05664378,4.59527158 C7.08789094,4.6271069 7.11920808,4.65887226 7.15000035,4.69119736 C7.18957542,4.73279318 7.22880057,4.77477383 7.26764082,4.8171393 C7.28401671,4.83498107 7.30032262,4.85285783 7.31652355,4.87080456 C7.3633418,4.92265066 7.4099501,4.97474164 7.4557886,5.02749732 L7.45589357,5.02756729 C7.46355665,5.03561358 7.46898029,5.04138592 7.47104477,5.04379981 L7.87274394,5.04379981 C7.87274394,5.04051132 7.87340877,5.0375377 7.87347876,5.03428419 C7.87386366,5.01108989 7.87543826,4.98842034 7.87855248,4.96673034"/>
      <path fill="#E0DAD3" d="M6.68852218,4.24784674 C6.68743745,4.24524394 6.68656967,4.24264114 6.68570189,4.24025524 C6.68440022,4.24307494 6.6828816,4.24589464 6.68136298,4.24871434 C6.6828816,4.25001574 6.69025775,4.25739034 6.6924272,4.25934244 C6.69112553,4.25543824 6.68982385,4.25175094 6.68852218,4.24784674"/>
      <path fill="#434343" d="M1.83325985,5.55361978 C1.83441456,5.55061117 1.83567425,5.54767252 1.83682896,5.54466391 C1.86268747,5.47704008 1.89103035,5.41032584 1.92080788,5.34420632 C1.9290658,5.3258048 1.93763865,5.30757821 1.94624649,5.28928164 C1.97060038,5.23743554 1.99638891,5.18625414 2.0231222,5.13556251 C2.03400446,5.11492202 2.0446068,5.09421157 2.05587398,5.07378099 C2.06206742,5.06251618 2.06910066,5.05170616 2.07543407,5.04047634 C2.10395191,4.99006458 2.1326797,4.93979276 2.16354195,4.89085032 C2.17085512,4.87920069 2.17851819,4.86786591 2.18597132,4.85632124 C2.22414674,4.79726846 2.2637568,4.73919523 2.30536135,4.68259133 C2.30896545,4.6776586 2.3123596,4.67251597 2.31603368,4.66761823 C2.35963273,4.60891529 2.40561119,4.55210148 2.45284933,4.49637217 C2.46292681,4.48447766 2.4728993,4.47254816 2.48315173,4.46075859 C2.53017992,4.40684844 2.57881772,4.3544426 2.62917008,4.30375097 C2.63907259,4.29381555 2.64918505,4.28416 2.65919254,4.27436452 C2.71265912,4.22188871 2.76738539,4.17067232 2.82452604,4.12214969 C2.82463102,4.12204474 2.82477098,4.12193979 2.82487596,4.12179985 C3.04955456,3.36929675 3.73699202,2.8214843 4.55046783,2.8214843 C4.87791564,2.8214843 5.20350892,2.91580082 5.48256388,3.08648713 C5.76879203,3.26151144 6.00204349,3.51794323 6.15355546,3.81688042 C6.15432526,3.81838472 6.15509507,3.81988903 6.15582989,3.82135835 C6.15964393,3.82894985 6.16394785,3.8362265 6.1677269,3.84385298 C6.16783187,3.84409787 6.16797184,3.84434276 6.1681468,3.84462263 C6.16842672,3.84479755 6.16870665,3.84500745 6.16898658,3.84518237 C6.29575976,3.92323139 6.41665442,4.0117056 6.53160057,4.1086809 C6.56995094,4.141006 6.60760149,4.17427566 6.6446222,4.20841992 C6.65676415,4.21961476 6.66936099,4.23024985 6.68136298,4.24161961 C6.68160792,4.24116482 6.68181786,4.24067505 6.6820628,4.24022026 C6.68220277,4.2399054 6.68234273,4.23959055 6.68251769,4.23931068 C6.68664665,4.2308096 6.69070563,4.22220356 6.69490458,4.21384242 C6.80953581,3.49051587 7.1286907,2.96943109 7.50512621,2.96943109 C7.78880001,2.96943109 8.04014192,3.26525472 8.19592282,3.72053483 L8.19749743,3.72543258 C8.19763739,3.72560749 8.19777736,3.72578241 8.19791732,3.72595733 C8.24190128,3.7737453 8.28476552,3.82639603 8.32633509,3.88408444 L8.32626511,3.88404945 C8.32706991,3.88516894 8.32790969,3.88618347 8.32874948,3.88730295 L8.32871449,3.88726797 L8.32874948,3.88730295 C8.33098892,3.89391491 8.33287845,3.90066679 8.3350479,3.90731373 L8.3350479,3.90727874 L8.32913439,3.88355968 C7.86091691,2.49753364 6.54969103,1.49965366 5.00531867,1.49965366 C3.06820488,1.49965366 1.49786903,3.06965989 1.49786903,5.00636706 C1.49786903,5.38818105 1.55889372,5.75572161 1.67219528,6.09779392 C1.67233524,6.09712922 1.6725102,6.09646453 1.67265016,6.09579984 C1.69493957,5.99266738 1.72163787,5.89009467 1.75267508,5.78864144 C1.77692399,5.70957788 1.80383224,5.63114404 1.83325985,5.55361978"/>
      <path fill="#EFEFEF" d="M8.38158622,5.0451292 L8.25925693,5.18195112 L8.25925693,5.18191614 C8.25915195,5.18223099 8.25904698,5.18251086 8.258977,5.18282572 C8.25432316,5.20080743 8.2486196,5.21763467 8.24232118,5.2338322 C8.24067659,5.23810024 8.23885705,5.24212338 8.23707249,5.24625148 C8.23220872,5.25772619 8.22696003,5.26860617 8.22132645,5.2789614 C8.2183172,5.28448885 8.21530796,5.29012125 8.21208877,5.29529887 C8.20701504,5.30345011 8.20155641,5.31083171 8.19599281,5.31807337 C8.18797982,5.32849856 8.17954693,5.33787424 8.17065916,5.34616542 C8.16702008,5.34955885 8.16352096,5.35330213 8.15970691,5.35634572 C8.15284863,5.36183819 8.14571043,5.36642108 8.13843225,5.37058416 C8.13566795,5.37215843 8.13290364,5.37366274 8.13006935,5.37502711 C8.11257374,5.38359816 8.09413337,5.38860086 8.07499318,5.38860086 C7.96382608,5.38860086 7.8737237,5.23421703 7.8737237,5.04379981 L7.46982008,5.04379981 C7.46992505,5.04386978 7.46999503,5.04397473 7.47006501,5.0440447 C7.54505119,5.13062978 7.6187427,5.21836933 7.69145444,5.3069485 C7.69232923,5.308033 7.69320401,5.3091175 7.69407879,5.31016701 C7.76476104,5.39640226 7.83439357,5.48344213 7.90329127,5.57104175 C7.90668542,5.57534477 7.91004458,5.5796128 7.91343873,5.58391581 C7.97880232,5.66717743 8.04332613,5.75099879 8.10736005,5.83503005 C8.11358849,5.84318129 8.11985192,5.85129755 8.12604536,5.85944879 C8.19375337,5.94851773 8.26086652,6.03783156 8.32745481,6.12721535 C8.32790969,6.12788005 8.32836458,6.12847477 8.32885446,6.12910448 C8.44425549,5.78776684 8.5087793,5.42312994 8.51280329,5.04379981 L8.38277592,5.04379981 L8.38158622,5.0451292"/>
      <path fill="#060606" d="M4.47247241,3.4255858 C4.48160512,3.42488613 4.49073782,3.42432639 4.49987053,3.42369668 C4.56246982,3.41946363 4.62541902,3.41676987 4.68892808,3.41676987 C4.87910534,3.41676987 5.0649437,3.43713048 5.24567334,3.4741784 C5.24567334,3.4741784 5.24570833,3.47512297 5.24570833,3.47680219 C5.24570833,3.47834148 5.24570833,3.48075537 5.24570833,3.48348411 C5.24570833,3.48680758 5.24570833,3.49107561 5.24570833,3.49583342 C5.24570833,3.49954171 5.24570833,3.50380974 5.24570833,3.50821771 C5.24570833,3.51437487 5.24570833,3.52133666 5.24570833,3.52864829 C5.24570833,3.53333613 5.24570833,3.53840879 5.24570833,3.54344647 C5.24570833,3.54995347 5.24570833,3.55667037 5.24570833,3.56352721 L5.24570833,3.4741784 C5.37328631,3.50422955 5.59974946,3.56643088 5.76784727,3.63741315 C5.83838956,3.66718443 5.90774216,3.69982438 5.9756951,3.73505314 C5.97884431,3.73669738 5.98419797,3.73963603 5.99112623,3.74344927 C5.99228094,3.74411396 5.9940305,3.74509351 5.99529018,3.74579319 C6.0015886,3.74929158 6.00844688,3.75310482 6.01649486,3.75765272 C6.01666982,3.75775767 6.01687976,3.75789761 6.01705472,3.75796758 C6.02650235,3.76332011 6.03682476,3.76916242 6.04763704,3.77528459 C6.04854681,3.77577437 6.04945659,3.77633411 6.05036636,3.77682388 C6.09358051,3.80134758 6.14141351,3.82877493 6.15971391,3.8392701 C6.16205832,3.84059948 6.16314305,3.84122919 6.16440273,3.84196385 C6.16531251,3.84245363 6.16737699,3.84364308 6.1677269,3.84385298 C6.16394785,3.8362265 6.15964393,3.82894985 6.15582989,3.82135835 C6.15509507,3.81988903 6.15432526,3.81838472 6.15355546,3.81688042 C6.00204349,3.51794323 5.76879203,3.26151144 5.48256388,3.08648713 C5.20350892,2.91580082 4.87791564,2.8214843 4.55046783,2.8214843 C3.73699202,2.8214843 3.04955456,3.36929675 2.82487596,4.12179985 C3.03758757,3.94019857 3.27426816,3.78703917 3.52896923,3.67075278 C3.82597468,3.53519028 4.14673917,3.4503194 4.47247241,3.4255858"/>
      <line x1="5.246" x2="5.246" y1="3.564" y2="3.693"/>
      <path fill="#060606" d="M7.07116514,3.67306172 C7.21413925,3.53323118 7.40533126,3.42005835 7.6103448,3.42005835 C7.77263407,3.42005835 7.92848495,3.48575807 8.07401342,3.60592767 C8.07401342,3.60592767 8.07404841,3.60701217 8.07404841,3.60736201 L8.07404841,3.60757191 L8.07404841,3.60736201 C8.08710014,3.61806707 8.09987193,3.63010152 8.11271371,3.64178614 C8.12051675,3.64885288 8.12845976,3.6553249 8.13619282,3.66270649 C8.15662769,3.68229746 8.17678263,3.70297293 8.19676261,3.72462795 L8.19676261,3.72459296 C8.19714752,3.72504775 8.19753242,3.72553753 8.19791732,3.72595733 C8.19781235,3.7258174 8.19767238,3.72564248 8.19753242,3.72550254 L8.19749743,3.72546756 L8.19592282,3.72053483 C8.04014192,3.26525472 7.78880001,2.96943109 7.50512621,2.96943109 C7.1286907,2.96943109 6.80953581,3.49051587 6.69490458,4.21384242 L6.69609428,4.21282789 C6.79385974,4.01856244 6.9147544,3.82604619 7.07116514,3.67306172"/>
      <path fill="#EFEFEF" d="M3.74948388,8.27749907 C3.78150084,8.2898134 3.81411266,8.30090328 3.84658451,8.31227304 C4.20937345,8.43936945 4.59907063,8.50940716 5.00535366,8.50940716 C5.46860238,8.50940716 5.91047147,8.41872897 6.31531985,8.25559917 C6.33673448,8.24699314 6.35769422,8.23754749 6.3788989,8.22852165 C6.41326027,8.21386341 6.4474117,8.19882034 6.48121322,8.18314757 C6.51144563,8.16911904 6.54171303,8.15516047 6.57145556,8.14029233 C6.56428237,8.14120191 6.55707417,8.14256628 6.54990097,8.14337091 C6.42403757,8.15753937 6.29911892,8.158344 6.17710455,8.14081708 C5.45541069,8.0370899 5.29553582,7.68921027 5.31842008,7.32688231 C5.2665281,7.29693611 5.21358639,7.26321166 5.15983988,7.22423963 C4.60480919,6.82164522 4.27536688,6.39277793 4.27536688,6.39277793 C4.27536688,6.39277793 4.70351942,6.7232006 5.34305389,6.9705016 C5.35677045,6.97581915 5.36961223,6.98040203 5.38308385,6.98550968 C5.41296635,6.88223729 5.44834247,6.78403756 5.47944966,6.6969627 C5.48280881,6.68748207 5.48627295,6.67786151 5.48952713,6.66866075 C5.5251132,6.56846694 5.56570301,6.47012727 5.60849727,6.37283712 C5.76984177,6.0060662 5.96610751,5.65080498 6.06271826,5.25919551 L6.10897665,5.04047634 L5.71424073,5.04047634 C5.71424073,5.04075621 5.71427572,5.0410011 5.71427572,5.04128097 L5.71413575,5.04135094 C5.71413575,5.04243544 5.71427572,5.04348495 5.71427572,5.04460444 C5.71427572,5.10963946 5.70108403,5.17159589 5.67725501,5.22795491 C5.665323,5.25615191 5.65073167,5.28291458 5.63383091,5.30799801 C5.59992442,5.35809492 5.55667527,5.40136997 5.50653286,5.43523436 C5.48147915,5.45216655 5.45467588,5.46675483 5.42650795,5.47864934 C5.3701371,5.50250834 5.30816765,5.51566228 5.24308399,5.51566228 C5.22656813,5.51566228 5.21026222,5.51478768 5.19416626,5.51314344 C5.19038721,5.51272363 5.18674813,5.51191901 5.18300407,5.51142923 C5.17068716,5.50985496 5.15844023,5.50817573 5.14647324,5.50569188 C5.14311408,5.50495721 5.13992988,5.5039077 5.13660571,5.50313805 C5.12432379,5.50030436 5.11207687,5.49726076 5.10017985,5.4934825 C5.09797541,5.49274784 5.09587594,5.49183826 5.09370648,5.4911036 C5.08079472,5.4867656 5.06805792,5.48211275 5.05570602,5.47672523 C5.0545863,5.47623546 5.05353656,5.47567571 5.05245183,5.47515096 C5.03912018,5.46923868 5.02603347,5.46280165 5.01336664,5.45569992 C5.0131567,5.45559497 5.01298174,5.45545504 5.01277179,5.45535008 C4.97221697,5.43247063 4.93533623,5.40381884 4.90331927,5.37044423 L3.55115366,5.04047634 L2.07543407,5.04047634 C2.06910066,5.05170616 2.06206742,5.06251618 2.05587398,5.07378099 C2.0446068,5.09421157 2.03400446,5.114957 2.0231222,5.13556251 C1.99638891,5.18625414 1.97060038,5.23743554 1.94624649,5.28928164 C1.93763865,5.30754322 1.9291008,5.32583979 1.92080788,5.34420632 C1.89103035,5.41032584 1.86268747,5.47704008 1.83682896,5.54466391 C1.83567425,5.54767252 1.83441456,5.55061117 1.83325985,5.55361978 C1.80383224,5.63114404 1.77692399,5.70957788 1.75267508,5.78864144 C1.72163787,5.89009467 1.69493957,5.99266738 1.67265016,6.09579984 C1.90499185,6.80425824 2.3569734,7.41297762 2.94787008,7.84201983 C2.96505077,7.85447409 2.98317622,7.86559896 3.00060185,7.87777335 C3.10053677,7.94760116 3.20379585,8.01295103 3.31093895,8.07228368 C3.45160365,8.15019276 3.59779695,8.21928591 3.74948388,8.27749907"/>
      <path fill="#303030" d="M6.17112105,7.18831119 C6.16576739,7.22588387 6.16209331,7.26279185 6.16100859,7.2984754 C6.15894411,7.36330052 6.16342298,7.4249421 6.17283562,7.48315527 C6.17913404,7.52198736 6.18756692,7.55928017 6.19774936,7.59499871 C6.21300554,7.648594 6.23214573,7.69862094 6.25352537,7.74486962 C6.274905,7.79115328 6.29855906,7.83365868 6.32287796,7.87217593 C6.33096093,7.88498002 6.33911388,7.8973993 6.34730183,7.9093288 C6.35961874,7.92727553 6.37193564,7.94417274 6.3840776,7.96002043 C6.40020855,7.98111571 6.41577964,7.99969214 6.43086085,8.01704414 C6.4952097,8.09107002 6.54591198,8.1312315 6.54591198,8.1312315 C6.54591198,8.1312315 6.54626189,8.13238597 6.54696171,8.134485 C6.54762655,8.13658403 6.54864129,8.13962763 6.54990097,8.14337091 C6.55707417,8.14256628 6.56428237,8.14120191 6.57145556,8.14029233 C6.72786631,8.12070136 6.88539677,8.07833589 7.04086274,8.02246664 C7.12015284,7.99395479 7.19909303,7.96306403 7.27673854,7.92759038 C7.30042759,7.91678036 7.32362677,7.90474591 7.34710588,7.89341114 C8.15053921,7.5049852 8.82328036,6.8180069 8.82328036,6.8180069 C7.81385372,7.31390329 6.82724136,7.29417239 6.17112105,7.18831119"/>
      <path fill="#434343" d="M8.10736005,5.83503005 C8.04332613,5.75099879 7.97880232,5.66717743 7.91343873,5.58391581 C7.91007957,5.5796128 7.90665043,5.57534477 7.90329127,5.57104175 C7.83439357,5.48344213 7.76476104,5.39640226 7.69407879,5.31016701 C7.69320401,5.3091175 7.69232923,5.308033 7.69145444,5.3069485 C7.6187427,5.21836933 7.54505119,5.13062978 7.47006501,5.0440447 C7.46530621,5.03855223 7.46061739,5.03298979 7.4557886,5.02749732 C7.4099501,4.97474164 7.3633418,4.92265066 7.31652355,4.87080456 C7.30028763,4.85289282 7.28401671,4.83498107 7.26764082,4.8171393 C7.22880057,4.77477383 7.18957542,4.73279318 7.15000035,4.69119736 C7.11917309,4.65890724 7.08792593,4.62707192 7.05664378,4.59527158 C7.02718118,4.56525542 6.99782355,4.53509932 6.96787106,4.50553795 C6.90355721,4.44221714 6.83847354,4.37970096 6.77192025,4.31879404 C6.74249263,4.29189144 6.71264513,4.26537366 6.68251769,4.23931068 C6.68234273,4.23959055 6.68220277,4.2399054 6.6820628,4.24022026 C6.7454319,4.4223463 6.81775874,4.60671131 6.85397465,4.79663875 C6.86338729,4.84603598 6.87119033,4.89410382 6.87752374,4.94105217 C6.96580658,5.59836415 6.75515945,6.0275463 6.42057344,6.59211603 C6.39656946,6.63259237 6.37197064,6.67373341 6.34677696,6.71571406 C6.27028616,6.84326525 6.22126346,6.96402958 6.19285059,7.07741231 C6.18340297,7.1151949 6.17626476,7.15217285 6.17112105,7.18831119 C6.82724136,7.29417239 7.81385372,7.31390329 8.82328036,6.8180069 C8.82328036,6.8180069 8.62533504,6.527116 8.32745481,6.12721535 C8.26086652,6.03783156 8.19375337,5.94851773 8.12604536,5.85944879 C8.11988691,5.85129755 8.11358849,5.84318129 8.10736005,5.83503005"/>
      <path fill="#1A1919" d="M6.54591198,8.1312315 C6.54591198,8.1312315 6.4952097,8.09107002 6.43086085,8.01704414 C6.41577964,7.99969214 6.40024354,7.98115069 6.3840776,7.96002043 C6.37193564,7.94417274 6.35961874,7.92727553 6.34730183,7.9093288 C6.33911388,7.8973993 6.33096093,7.88498002 6.32287796,7.87217593 C6.29855906,7.83365868 6.274905,7.79115328 6.25352537,7.74486962 C6.23214573,7.69862094 6.21300554,7.648594 6.19774936,7.59499871 C6.18756692,7.55928017 6.17913404,7.52198736 6.17283562,7.48315527 C6.16342298,7.4249421 6.15894411,7.36330052 6.16100859,7.2984754 C6.16209331,7.26279185 6.16576739,7.22588387 6.17112105,7.18831119 C6.17626476,7.15217285 6.18340297,7.1151949 6.19285059,7.07741231 C6.22126346,6.96402958 6.27028616,6.84323027 6.34677696,6.71571406 C6.3470219,6.71536422 6.34719685,6.71501438 6.3474068,6.71466454 C6.37239053,6.67303373 6.39677941,6.63224254 6.42057344,6.59211603 C6.75515945,6.0275463 6.96580658,5.59836415 6.87752374,4.94105217 C6.87119033,4.89410382 6.86338729,4.84603598 6.85397465,4.79663875 C6.84897091,4.83078301 6.8438272,4.86013448 6.83857852,4.88479811 C6.83808864,4.88724698 6.83756377,4.88945096 6.8370389,4.89179488 C6.83371474,4.90680296 6.8302856,4.92034172 6.82685646,4.93055701 C6.68150294,5.36061376 6.4398536,5.69491964 6.11065623,6.05213996 C6.06604242,6.10055764 6.01929416,6.14964002 5.97149615,6.19921216 C5.89101635,6.28261372 5.80661754,6.36779944 5.71731995,6.45665848 C5.68169889,6.49206216 5.64537801,6.52802558 5.60839229,6.56465369 C5.57445081,6.59823821 5.52983701,6.6440321 5.47944966,6.6969627 C5.44834247,6.78403756 5.41296635,6.88223729 5.38308385,6.98550968 C5.36961223,6.98040203 5.35677045,6.97581915 5.34305389,6.9705016 C4.70351942,6.7232006 4.27536688,6.39277793 4.27536688,6.39277793 C4.27536688,6.39277793 4.60480919,6.82164522 5.15983988,7.22423963 C5.21358639,7.26321166 5.2665281,7.29693611 5.31842008,7.32688231 C5.29553582,7.68921027 5.45541069,8.0370899 6.17710455,8.14081708 C6.29911892,8.158344 6.42403757,8.15753937 6.54990097,8.14337091 C6.54864129,8.13962763 6.54762655,8.13658403 6.54696171,8.134485 C6.54626189,8.13238597 6.54591198,8.1312315 6.54591198,8.1312315"/>
    </g>
  </g>
</svg>
