<svg xmlns="http://www.w3.org/2000/svg" width="16" height="16" viewBox="0 0 16 16">
  <g fill="none" fill-rule="evenodd">
    <rect width="16" height="16" fill="#86868B" rx="4"/>
    <path fill="#F9F9F9" d="M5.5167246,10.8855032 C5.5167246,10.8855032 5.22169061,11.3302302 4.71861588,11.3302302 C4.01229895,11.3302302 3.88660766,10.5732256 3.88660766,10.3414771 L3.88660766,8.11360368 C3.88660766,7.56004117 4.19619211,7.13438687 4.73316635,7.13438687 C5.26998579,7.13438687 5.5167246,7.52219851 5.5167246,7.52219851 L5.5167246,10.8855032 Z M7.38878179,3 L7.38878179,12.9147783 L6.12629638,12.9147783 L5.90370516,12.4087462 C5.90370516,12.4087462 5.60867118,13 4.30253437,13 C3.93505762,13 3.1609417,12.839093 2.71591405,12.3802885 C2.2708864,11.921484 2,11.0837988 2,9.38602546 C2,8.07576102 2.10711622,7.21400784 2.35803442,6.62820338 C2.77287759,5.65958252 3.49854355,5.47400209 4.17684308,5.47400209 C5.26518723,5.47400209 5.51192604,6.04164207 5.51192604,6.04164207 L5.51192604,6.04164207 L5.51192604,3.54871865 L7.38878179,3 Z M13,3 L13,12.9147783 L11.7375146,12.9147783 L11.5149234,12.4087462 C11.5149234,12.4087462 11.2198894,13 9.91375259,13 C9.54612105,13 8.77215991,12.839093 8.32713226,12.3802885 C7.88210461,11.921484 7.61121821,11.0837988 7.61121821,9.38602546 C7.61121821,8.07576102 7.71833444,7.21400784 7.96925263,6.62820338 C8.38394101,5.65958252 9.10976176,5.47400209 9.7880613,5.47400209 C10.8764054,5.47400209 11.1231443,6.04164207 11.1231443,6.04164207 L11.1231443,6.04164207 L11.1231443,3.54871865 L13,3 Z M10.3443846,7.13438687 C9.80741033,7.13438687 9.49782587,7.56004117 9.49782587,8.11360368 L9.49782587,8.11360368 L9.49782587,10.3414771 C9.49782587,10.5732256 9.62351716,11.3302302 10.3298341,11.3302302 C10.8329088,11.3302302 11.1279428,10.8855032 11.1279428,10.8855032 L11.1279428,10.8855032 L11.1279428,7.52219851 C11.1279428,7.52219851 10.881204,7.13438687 10.3443846,7.13438687 Z"/>
  </g>
</svg>
