<svg xmlns="http://www.w3.org/2000/svg" width="16" height="16" viewBox="0 0 16 16">
  <g fill="none" fill-rule="evenodd">
    <rect width="16" height="16" fill="#86868B" rx="4"/>
    <path fill="#FFF" fill-rule="nonzero" d="M4.871875,8.98520085 C4.74882813,8.98520085 4.73789063,8.89006342 4.76796875,8.81712474 C4.79257813,8.75687104 4.95664063,8.36997886 4.98945313,8.29704017 C5.02773438,8.205074 5.01679688,8.10993658 4.828125,8.10993658 L3.76445313,8.10993658 L2.96328125,10 L5.07421875,10 C5.65117188,10 6.06953125,9.7589852 6.35664063,9.08350951 C6.3703125,9.05179704 6.38398438,9.01691332 6.39765625,8.98520085 L4.871875,8.98520085 L4.871875,8.98520085 Z M6.64101563,8.98520085 L6.21171875,10 L7.52148438,10 L7.95351563,8.98520085 L6.64101563,8.98520085 L6.64101563,8.98520085 Z M8.48398437,8.98520085 L8.0546875,10 L9.36445312,10 L9.79648437,8.98520085 L8.48398437,8.98520085 Z M9.8375,8.88689218 L10.6359375,7 L9.32617188,7 L8.89414063,8.0243129 L8.35820313,8.0243129 L8.79296875,7 L7.48046875,7 L6.68476563,8.88689218 L9.8375,8.88689218 L9.8375,8.88689218 Z M10.9695313,7 L12.2820313,7 L11.4808594,8.88689218 L10.1710938,8.88689218 L10.9695313,7 Z M10.1300781,8.98520085 L13.0640625,8.98520085 L12.6347656,10 L10.471875,10 C10.0207031,10 9.87578125,9.60042283 10.0371094,9.21353066 C10.0507812,9.16913319 10.1300781,8.98520085 10.1300781,8.98520085 Z M3.1875,8.98520085 L3.06171875,9.2832981 L1,9.2832981 L1,8.98520085 L3.1875,8.98520085 Z M3.03710937,9.34038055 L2.90859375,9.64164905 L1,9.64164905 L1,9.34038055 L3.03710937,9.34038055 Z M2.88398438,9.70190275 L2.75546875,10 L1,10 L1,9.70190275 L2.88398438,9.70190275 Z M15,9.2832981 L13.11875,9.2832981 L13.2445312,8.98520085 L15,8.98520085 L15,9.2832981 Z M15,9.64164905 L12.965625,9.64164905 L13.0914063,9.34038055 L15,9.34038055 L15,9.64164905 Z M15,9.70190275 L15,10 L12.8125,10 L12.9410156,9.70190275 L15,9.70190275 Z M6.05750324,7 C6.82312824,7 7.05281574,7.7230444 6.83133136,8.23995772 C6.82469074,8.25536092 6.81687824,8.27367649 6.80800547,8.29459933 L6.74293851,8.44898267 C6.69226886,8.56950856 6.62820636,8.72198732 6.55789386,8.88689218 L6.55789386,8.88689218 L5.51062824,8.88689218 C5.38758136,8.88689218 5.40672199,8.77272727 5.44500324,8.6807611 C5.47781574,8.60465116 5.59265949,8.33192389 5.64734699,8.20190275 C5.70203449,8.06871036 5.63640949,8.0243129 5.45320636,8.0243129 L5.45320636,8.0243129 L3.10711261,8.0243129 L3.54187824,7 Z"/>
  </g>
</svg>
