<svg xmlns="http://www.w3.org/2000/svg" width="16" height="16" viewBox="0 0 16 16">
  <defs>
    <linearGradient id="message@3x-a" x1="36.298%" x2="67.128%" y1="21.956%" y2="66.948%">
      <stop offset="0%" stop-color="#FFF"/>
      <stop offset="100%" stop-color="#CBCBCB"/>
    </linearGradient>
    <linearGradient id="message@3x-b" x1="52.294%" x2="45.649%" y1="-13.668%" y2="120.379%">
      <stop offset="0%" stop-color="#FFF"/>
      <stop offset="100%" stop-color="#E1E1E1"/>
    </linearGradient>
  </defs>
  <g fill="none" fill-rule="evenodd">
    <rect width="16" height="16" fill="#86868B" rx="4"/>
    <g fill-rule="nonzero" transform="translate(3.001 3)">
      <path fill="#D2D2D2" d="M5.66165192,6.87081273 L4.52492853,7.63357489 C4.42547288,7.70073873 4.29700927,7.70732716 4.19120433,7.6506904 C4.08539939,7.59405364 4.01964148,7.48349956 4.02037768,7.36349179 L4.02037768,6.10211466 C4.0192366,6.07170065 4.03424275,6.04294528 4.05984437,6.0264871 C4.08544598,6.01002892 4.1178361,6.00831526 4.14503142,6.02198012 L5.64978014,6.71647952 C5.6804141,6.72857631 5.70145879,6.75709428 5.70398486,6.78993314 C5.70651092,6.822772 5.69007539,6.85417306 5.66165192,6.87081273 Z"/>
      <path fill="url(#message@3x-a)" d="M4.07083277,6.19708894 L0.280765496,3.93551395 C0.0880274265,3.82127889 -0.020417062,3.60515956 0.0032035304,3.38235992 C0.0268241228,3.15956028 0.178173351,2.97098354 0.390579504,2.89970073 L8.81954666,0.0237608852 C9.00986061,-0.0366133566 9.21695117,0.0389595998 9.32364735,0.207720886 C9.43034354,0.376482172 9.40980092,0.595971973 9.27364242,0.742003861 L4.07083277,6.19708894 Z"/>
      <path fill="url(#message@3x-b)" d="M4.05896098,6.2327043 C4.05896098,6.2327043 5.91986324,8.42008063 6.94083673,9.59835527 C7.08842474,9.76625536 7.32020342,9.8329572 7.53446122,9.76919 C7.74871903,9.70542279 7.9063054,9.5228385 7.93806664,9.30156065 L9.39236027,0.552055305 C9.44229552,0.357270591 9.35453047,0.153318997 9.17875178,0.0556641679 C9.00297309,-0.0419906608 8.7834402,-0.00876014379 8.64443783,0.13654284 L4.07973661,5.58865998 C3.90593036,5.76507994 3.89688618,6.04544946 4.05896098,6.2327043 Z"/>
    </g>
  </g>
</svg>
