<svg xmlns="http://www.w3.org/2000/svg" width="16" height="16" viewBox="0 0 16 16">
  <g fill="none" fill-rule="evenodd">
    <rect width="16" height="16" fill="#86868B" rx="4"/>
    <g fill="#FFF" fill-rule="nonzero" transform="translate(2 6)">
      <path d="M1.55169249,1.0908844 C0.705299073,1.0908844 0,1.46429318 0,2.59085043 C0,3.48333179 0.474262571,4.04536293 1.5735473,4.04536293 C2.86745689,4.04536293 2.95040119,3.15901935 2.95040119,3.15901935 L2.32344094,3.15901935 C2.32344094,3.15901935 2.1890154,3.6362813 1.53530136,3.6362813 C1.00286913,3.6362813 0.619922997,3.26225795 0.619922997,2.73800981 L3.01596565,2.73800981 L3.01596565,2.40903636 C3.01596565,1.89039013 2.69935178,1.0908844 1.55169249,1.0908844 L1.55169249,1.0908844 Z M1.52983764,1.51132941 C2.03665799,1.51132941 2.38217577,1.83420575 2.38217577,2.3181293 L0.633789881,2.3181293 C0.633789881,1.80438526 1.08477862,1.51132941 1.52983764,1.51132941 L1.52983764,1.51132941 Z"/>
      <path d="M3.01552092,0 L3.01552092,3.4796103 C3.01552092,3.67712401 3.0019648,3.95445592 3.0019648,3.95445592 L3.59995277,3.95445592 C3.59995277,3.95445592 3.6214166,3.75527223 3.6214166,3.57323771 C3.6214166,3.57323771 3.91686128,4.05388545 4.72019727,4.05388545 C5.56614243,4.05388545 6.1407607,3.44314157 6.1407607,2.56812365 C6.1407607,1.75410709 5.61295523,1.09940692 4.72156298,1.09940692 C3.88683711,1.09940692 3.62745599,1.56814631 3.62745599,1.56814631 L3.62745599,0 L3.01552092,0 Z M4.56721328,1.52979489 C5.14167585,1.52979489 5.50697098,1.97315553 5.50697098,2.56812365 C5.50697098,3.20611897 5.08506731,3.62349748 4.57131122,3.62349748 C3.95818831,3.62349748 3.62745599,3.12567422 3.62745599,2.57380535 C3.62745599,2.05957111 3.9242318,1.52979489 4.56721328,1.52979489 Z"/>
      <path d="M7.62688864,1.0908844 C6.35355376,1.0908844 6.27188972,1.81591683 6.27188972,1.93177445 L6.90567944,1.93177445 C6.90567944,1.93177445 6.93891519,1.50848856 7.5831791,1.50848856 C8.0018322,1.50848856 8.32624327,1.70775791 8.32624327,2.09086174 L8.32624327,2.22722229 L7.5831791,2.22722229 C6.59670866,2.22722229 6.07519619,2.52731731 6.07519619,3.13629261 C6.07519619,3.73561177 6.55705703,4.06169779 7.20823234,4.06169779 C8.09568316,4.06169779 8.38156295,3.55176617 8.38156295,3.55176617 C8.38156295,3.75458906 8.39660017,3.95445592 8.39660017,3.95445592 L8.96003299,3.95445592 C8.96003299,3.95445592 8.93817802,3.7067147 8.93817802,3.5482151 L8.93817802,2.17821772 C8.93817802,1.27992921 8.24141311,1.0908844 7.62688864,1.0908844 L7.62688864,1.0908844 Z M8.32624327,2.63630392 L8.32624327,2.81811799 C8.32624327,3.0552531 8.18552826,3.64480382 7.35711839,3.64480382 C6.90348397,3.64480382 6.70898631,3.40937416 6.70898631,3.13629261 C6.70898631,2.6395034 7.36397416,2.63630392 8.32624327,2.63630392 L8.32624327,2.63630392 Z"/>
      <polygon points="8.597 1.205 9.31 1.205 10.333 3.336 11.354 1.205 12 1.205 10.14 5 9.463 5 10 3.942"/>
    </g>
  </g>
</svg>
