<svg xmlns="http://www.w3.org/2000/svg" width="16" height="16" viewBox="0 0 16 16">
  <g fill="none" fill-rule="evenodd">
    <rect width="16" height="16" fill="#86868B" fill-rule="nonzero" rx="4"/>
    <path fill="#FFF" d="M8,2 C11.3137085,2 14,4.6862915 14,8 C14,11.3137085 11.3137085,14 8,14 C4.6862915,14 2,11.3137085 2,8 C2,4.6862915 4.6862915,2 8,2 Z M8.59793814,4 L7.56701031,4 L7.56701031,4.94468085 C6.78350515,5.01843972 6.1838488,5.22411348 5.76804124,5.56170213 C5.35223368,5.89929078 5.1443299,6.3035461 5.1443299,6.77446809 C5.1443299,7.15460993 5.25773196,7.45957447 5.48453608,7.6893617 C5.71134021,7.91914894 5.99312715,8.09361702 6.32989691,8.21276596 C6.59931271,8.30808511 6.9171134,8.39614184 7.28329897,8.47693617 L7.56701031,8.53617021 L7.56701031,9.95744681 C7.19587629,9.92907801 6.83505155,9.86099291 6.48453608,9.75319149 C6.22164948,9.67234043 5.98389175,9.57712766 5.77126289,9.46755319 L5.56701031,9.35319149 L5,10.3914894 C5.28178694,10.5730496 5.65292096,10.7262411 6.11340206,10.8510638 C6.48178694,10.950922 6.86556701,11.0180993 7.26474227,11.0525957 L7.56701031,11.0723404 L7.56701031,12 L8.59793814,12 L8.59793814,11.0468085 C9.37457045,10.9673759 9.96907216,10.7617021 10.3814433,10.4297872 C10.7938144,10.0978723 11,9.69929078 11,9.23404255 C11,8.85957447 10.8865979,8.55744681 10.6597938,8.32765957 C10.4329897,8.09787234 10.152921,7.9248227 9.81958763,7.80851064 C9.55292096,7.71546099 9.23896907,7.63058156 8.87773196,7.55387234 L8.59793814,7.49787234 L8.59793814,6.05106383 C9.04467354,6.09361702 9.48424971,6.20315209 9.91666667,6.37966903 L10.1752577,6.49361702 L10.6907216,5.44680851 C10.209622,5.19361702 9.61538875,5.02947695 8.90802191,4.9543883 L8.59793814,4.92765957 L8.59793814,4 Z M8.59793814,8.74893617 C8.83848797,8.81702128 9.02233677,8.8964539 9.14948454,8.98723404 C9.2766323,9.07801418 9.34020619,9.19432624 9.34020619,9.33617021 C9.34020619,9.47801418 9.27835052,9.6 9.15463918,9.70212766 C9.03092784,9.80425532 8.84536082,9.87801418 8.59793814,9.92340426 L8.59793814,8.74893617 Z M7.56701031,6.07659574 L7.56701031,7.28510638 C7.31958763,7.22269504 7.13058419,7.14609929 7,7.05531915 C6.86941581,6.96453901 6.80412371,6.84822695 6.80412371,6.70638298 C6.80412371,6.55886525 6.86597938,6.42978723 6.98969072,6.31914894 C7.08865979,6.2306383 7.23161512,6.16119149 7.4185567,6.11080851 L7.56701031,6.07659574 Z"/>
  </g>
</svg>
