<svg xmlns="http://www.w3.org/2000/svg" width="16" height="16" viewBox="0 0 16 16">
  <g fill="none" fill-rule="evenodd">
    <rect width="16" height="16" fill="#86868B" rx="4"/>
    <g fill="#FFF" transform="translate(2 2)">
      <path d="M9.81141041,5.78761631 C10.0099491,5.78761631 10.1693015,5.83715918 10.2706275,5.8825979 L10.2706275,5.8825979 L10.2012161,6.37321049 L10.1551989,6.34732927 C10.0606304,6.30134612 9.939289,6.25733128 9.77167329,6.26038844 C9.57093108,6.26038844 9.4781989,6.36106558 9.47808872,6.45516772 C9.47684005,6.56137288 9.58675982,6.63089204 9.76583392,6.73579896 C10.0615853,6.89724254 10.1981311,7.09281751 10.1962949,7.3507922 C10.1921816,7.82042341 9.84229665,8.12383683 9.30382568,8.12383683 C9.07392333,8.12098906 8.85239442,8.0662532 8.73288927,8.00322529 L8.73288927,8.00322529 L8.80454094,7.49661491 L8.87046342,7.53263086 C9.03899727,7.6171427 9.14799889,7.65131597 9.35318491,7.65131597 C9.50052808,7.65131597 9.6585584,7.58188058 9.65991725,7.43027856 C9.66072521,7.33119283 9.59362751,7.26024979 9.39395034,7.14943793 C9.19963511,7.04130633 8.94189474,6.85984458 8.9451266,6.53457032 C8.94810137,6.09475696 9.30474382,5.78761631 9.81141041,5.78761631 Z M11.5852576,5.82935293 L12,8.0910707 L11.5243666,8.0910707 C11.5243666,8.0910707 11.477321,7.83100205 11.461933,7.75201824 L11.461933,7.75201824 L11.236936,7.75164722 C11.2016132,7.75157851 11.1646323,7.75150522 11.1277758,7.75143193 L10.8055728,7.75084563 C10.7856308,7.81207274 10.6978199,8.0910707 10.6978199,8.0910707 L10.6978199,8.0910707 L10.1595325,8.0910707 L10.9205974,6.01697089 C10.9744005,5.86938926 11.0663614,5.82935293 11.1892086,5.82935293 L11.1892086,5.82935293 L11.5852576,5.82935293 Z M8.73229431,5.82706215 L8.41171641,8.09028756 L7.89921045,8.09028756 L8.21982507,5.82706215 L8.73229431,5.82706215 Z M8.01234371,5.82895089 L7.20529832,8.08794652 L6.66293443,8.08832343 L6.20404787,6.10895395 C6.52951027,6.30519898 6.82048732,6.69689336 6.91395401,7.05826733 L6.91395401,7.05826733 L6.96768358,7.3719411 L7.46928204,5.82895089 L8.01234371,5.82895089 Z M11.2252731,6.4393207 C11.1994183,6.52416757 11.1541724,6.66123757 11.1571839,6.65529075 C11.1571839,6.65529075 10.995481,7.15779698 10.9530262,7.28787318 L10.9530262,7.28787318 L11.3784557,7.28787318 C11.3717104,7.25015415 11.3562857,7.16498621 11.3387172,7.06819296 L11.3026586,6.86972047 C11.2792961,6.74122441 11.2598687,6.63451876 11.2598687,6.63451876 L11.2598687,6.63451876 Z"/>
      <path d="M6.40814013 5.3581099L5.58170361 5.3581099 5.57487265 5.40501439C6.2179749 5.59246483 6.64344115 6.0450094 6.82005463 6.58897585L6.64046638 5.54907818C6.60946996 5.40564257 6.51941875 5.36313538 6.40814013 5.3581099M4.30568875 6.82683222L4.30568875 11-9.26607719e-14 11-9.26607719e-14 6.82683222 4.30568875 6.82683222zM3.50120983 8.91341611L1.1592239 8.91341611C1.06490552 8.91341611.988445375 8.99369853.988445375 9.09273191.988445375 9.1917653 1.06490552 9.27204772 1.1592239 9.27204772L3.50120983 9.27204772C3.5955282 9.27204772 3.67198835 9.1917653 3.67198835 9.09273191 3.67198835 8.99369853 3.5955282 8.91341611 3.50120983 8.91341611zM3.170003 8.35916726L.828017068 8.35916726C.733698696 8.35916726.657238548 8.43944968.657238548 8.53848307.657238548 8.63751645.733698696 8.71779887.828017068 8.71779887L3.170003 8.71779887C3.26432137 8.71779887 3.34078152 8.63751645 3.34078152 8.53848307 3.34078152 8.43944968 3.26432137 8.35916726 3.170003 8.35916726z"/>
      <path fill-opacity=".497" d="M3.96783069,2.08255974 C3.96783069,3.23273958 3.07985277,4.16502075 1.98440103,4.16502075 C0.888917952,4.16502075 0.000877344158,3.23273958 0.000877344158,2.08255974 C0.000877344158,0.932379899 0.888917952,2.5419129e-14 1.98440103,2.5419129e-14 C3.07985277,2.5419129e-14 3.96783069,0.932379899 3.96783069,2.08255974"/>
      <path d="M4.64732547,6.58204701e-06 C4.13470622,6.58204701e-06 3.66778825,0.204148777 3.31571906,0.539043339 C3.24412665,0.607299169 3.17723601,0.681018098 3.11554867,0.759509011 L3.5162656,0.759509011 C3.5709943,0.829476173 3.62146006,0.903030551 3.6674748,0.980073414 L2.96427678,0.980073414 C2.92221154,1.05089624 2.8839704,1.12441771 2.85002356,1.20063782 L3.78172802,1.20063782 C3.81354339,1.27202012 3.84159733,1.34554159 3.86570179,1.42110349 L2.76601845,1.42110349 C2.74310511,1.49294653 2.72379648,1.56650091 2.70837464,1.64153625 L3.92325156,1.64153625 C3.95233989,1.78374138 3.96782442,1.93121215 3.96782442,2.08256632 C3.96782442,2.31376073 3.93196552,2.53626684 3.86570179,2.74409498 L2.76601845,2.74409498 C2.7901229,2.81962397 2.81817685,2.89321126 2.84996087,2.96469229 L3.78172802,2.96469229 C3.74768714,3.04071494 3.70960273,3.11433514 3.66728673,3.18522378 L2.96427678,3.18522378 C3.01016614,3.26203628 3.06069459,3.33568938 3.11554867,3.40555782 L3.51614022,3.40555782 C3.45454691,3.48411455 3.38765628,3.55783348 3.3158131,3.62612222 C3.66785094,3.96098387 4.13470622,4.16502733 4.64732547,4.16502733 C5.74274586,4.16502733 6.63075512,3.23271326 6.63075512,2.08256632 C6.63075512,0.932485212 5.74274586,6.58204701e-06 4.64732547,6.58204701e-06"/>
      <polygon points="2.652 1.871 3.956 1.871 3.956 2.274 2.625 2.274"/>
      <polygon points="2.62 2.296 3.956 2.296 3.956 2.699 2.647 2.699"/>
    </g>
  </g>
</svg>
