<svg xmlns="http://www.w3.org/2000/svg" width="16" height="16" viewBox="0 0 16 16">
  <g fill="none" fill-rule="evenodd">
    <rect width="16" height="16" fill="#86868B" rx="4"/>
    <g fill="#FFF" fill-rule="nonzero" transform="translate(2 3)">
      <path d="M9.20662809 6.27372674C8.95646442 5.93733555 8.68812229 5.66365111 8.68812229 5.03768879L8.68812229 2.9597444C8.68812229 2.07906441 8.75308175 1.27058194 8.08538366.664691671 7.55981345.173353616 6.68675286 0 6.01905477 0 4.71317607 0 3.25641023.473506051 2.95091627 2.04256038 2.91857902 2.20922331 3.04309841 2.2964675 3.15597879 2.32099019L4.48569046 2.46089038C4.61020985 2.45474497 4.70012718 2.33575686 4.72423013 2.215914 4.83825041 1.67523582 5.30399071 1.41549277 5.82731111 1.41549277 6.10954206 1.41549277 6.43004974 1.51582359 6.5971055 1.76191999 6.78941911 2.0358697 6.76360631 2.41239027 6.76360631 2.72870941L6.76360631 2.90288831C5.9682991 2.98929248 4.92791277 3.04670859 4.18306125 3.36413301 3.32391948 3.72587218 2.72061089 4.46192135 2.72061089 5.54380825 2.72061089 6.93031296 3.61834438 7.62343268 4.77417587 7.62343268 5.74961773 7.62343268 6.28343724 7.39963365 7.0359231 6.65385793 7.28554683 7.00556107 7.36722987 7.17500933 7.82247107 7.54317392 7.92456736 7.59613939 8.05619614 7.59109927 8.14665344 7.51141526L8.14696841 7.51112052 8.15007314 7.51446586C8.42406979 7.2775802 8.92157739 6.8573049 9.20209848 6.62878996 9.31412393 6.53932046 9.29426562 6.3946749 9.20662809 6.27372674zM6.50693319 5.67452716C6.28912175 6.05076773 5.94220132 6.28096271 5.55673417 6.28096271 5.03114897 6.28096271 4.72253527 5.89078075 4.72253527 5.31359854 4.72253527 4.17736086 5.77144087 3.97112857 6.76333633 3.97112857L6.76333633 4.25901966 6.76362131 4.25901966C6.76362131 4.77878576 6.77640022 5.21158768 6.50693319 5.67452716zM10.8465825 8.54116841C9.53312187 9.49336991 7.62832768 10 5.98788356 10 3.68966524 10 1.61950643 9.1653304.0530557609 7.77576299-.0698163594 7.66649693.039853609 7.51728933.187472088 7.60211985 1.87777736 8.56856034 3.9677087 9.15030707 6.12622983 9.15030707 7.58251929 9.15030707 9.18304993 8.85364158 10.6557346 8.23949514 10.8778992 8.14718312 11.0640802 8.38369496 10.8465825 8.54116841L10.8465825 8.54116841z"/>
      <path d="M11.3931516,7.92780631 C11.2252693,7.71669536 10.2822672,7.82777146 9.85936853,7.87796989 C9.73072431,7.89263121 9.71095179,7.78294281 9.82651667,7.70245638 C10.5784867,7.18351802 11.810708,7.33369098 11.9540281,7.50715311 C12.0984535,7.68302862 11.9163252,8.89666019 11.2114531,9.47563152 C11.1030112,9.56498715 11.0000345,9.51792612 11.0479306,9.4000322 C11.2064793,9.01045134 11.5616479,8.13927928 11.3931516,7.92780631 Z"/>
    </g>
  </g>
</svg>
