<svg xmlns="http://www.w3.org/2000/svg" width="16" height="16" viewBox="0 0 16 16">
  <g fill="none" fill-rule="evenodd">
    <rect width="16" height="16" fill="#86868B" rx="4"/>
    <path fill="#FFF" fill-rule="nonzero" d="M8.08944611,2.18446602 L7.60291916,2.18446602 C7.40830838,0.922330097 6.3379491,0 5.02432635,0 C3.71070359,0 2.64034431,0.970873786 2.44573353,2.18446602 L1.95920659,2.18446602 C1.42402695,2.18446602 0.9375,2.62135922 0.9375,3.2038835 L0.9375,8.98058252 C0.9375,9.51456311 1.37537425,10 1.95920659,10 L8.04079341,10 C8.57597305,10 9.0625,9.5631068 9.0625,8.98058252 L9.0625,3.15533981 C9.0625,2.62135922 8.62462575,2.18446602 8.08944611,2.18446602 Z M5.02432635,0.533980583 C5.99738024,0.533980583 6.82447605,1.26213592 7.01908683,2.18446602 L3.02956587,2.18446602 C3.22417665,1.21359223 4.05127246,0.533980583 5.02432635,0.533980583 Z" transform="translate(3 3)"/>
  </g>
</svg>
