<svg xmlns="http://www.w3.org/2000/svg" width="16" height="16" viewBox="0 0 16 16">
  <g fill="none" fill-rule="evenodd">
    <rect width="16" height="16" fill="#86868B" rx="4"/>
    <g fill="#FFF" transform="translate(2 4)">
      <path d="M1.34598492,4.83507722 C1.29459171,4.82450939 1.22039905,4.78769617 1.16346343,4.74565711 C0.644114835,4.2878726 1.30605441,3.75123582 2.07078041,3.44093643 L2.07078041,2.5570709 C2.25330191,2.65705884 2.34462564,2.66751055 2.35596237,2.68330423 L2.93804092,2.14666744 L2.74405673,1.69422491 C4.45603023,1.14713643 5.14643762,0.936708846 6.53884105,0.720939284 L6.28779527,0.510511702 L6.69868907,0.289516289 C7.63459983,0.578912279 8.50752871,0.652538707 8.35926936,1.37335769 C8.39919987,0.889327801 7.74292866,0.699919752 6.72715688,0.436885274 L6.53884105,0.547324916 L6.90980434,0.831378925 C5.24355568,1.09975538 4.21632119,1.39437722 3.00089684,1.78364502 L3.16061889,2.18348066 L2.5557409,2.73591112 C2.65852733,2.76215651 3.719898,3.09359156 4.83266188,2.37823069 C4.83833025,2.3728887 4.85546132,2.36766285 4.85546132,2.35709502 C4.81553081,2.30448813 4.74700652,2.25710708 4.65580876,2.1782548 C4.97525286,2.19927434 5.18636813,2.46230881 5.14643762,2.73591112 L4.99817827,2.73591112 C5.01518338,2.65171686 4.9925099,2.55172892 4.95245342,2.48867033 C4.10219802,3.06734618 3.10355731,3.15154044 2.25330191,2.87793813 L2.25330191,3.56182777 C1.83673974,3.69340307 1.10060751,4.11425823 1.10627588,4.51931972 C1.13486966,4.71395362 1.24332446,4.78235419 1.34598492,4.83507722"/>
      <path d="M4.82119918 4.65612087C3.90241949 5.09276972 3.02369628 5.4347726 1.65409229 5.48215365-.109148468 5.45056628-.382993689 4.36684101.455799009 3.23573469 1.24332446 2.09406055 2.49867932 1.05760019 4.50162911.410523762 5.07224496.226457693 5.93396306.00546227981 6.74995632.000236429266 7.93124449-.0103314018 9.07827052.331671484 9.00407786 1.36801571 8.96414735 2.16768697 7.71446085 3.29890942 7.05818965 4.10903238 6.77288173 4.46148697 6.72715688 4.68770823 7.206449 4.67191455 8.94701628 4.56670076 10.5390723 4.00904444 12 3.43036859 11.0184904 4.04585766 5.87123311 6.3974904 5.84263934 4.79292203 5.84843367 4.59306227 5.9567625 4.37729271 6.12227889 4.15107145 6.28779527 3.92485019 6.51604161 3.68283524 6.74995632 3.43559444 7.09812016 3.06734618 7.96550663 2.18348066 8.25648293 1.65218585 8.74736371.652538707 7.64593657.599931811 6.69868907.289516289L6.28779527.510511702 6.53317268.720939284C5.14643762.936708846 4.45603023 1.14713643 2.74405673 1.69422491L2.93804092 2.14666744 2.35596237 2.68330423C2.34462564 2.66751055 2.25330191 2.65705884 2.07078041 2.5570709L2.07078041 3.44093643C1.30605441 3.75123582.644114835 4.2878726 1.16346343 4.74565711 1.22039905 4.78769617 1.29459171 4.82450939 1.34598492 4.83507722 1.34598492 4.83507722 1.34598492 4.83507722 1.34031655 4.83507722 2.28189568 5.32433296 4.82686755 4.65612087 4.82119918 4.65612087M2.8574815 7.13721208L3.18278292 7.13721208 3.18278292 6.93206841 2.8574815 6.93206841 2.8574815 7.13721208zM2.87177839 7.98153533L3.17421739 7.98153533 3.17421739 7.25032271 2.87177839 7.25032271 2.87177839 7.98153533zM9.67098741 7.33712989C9.83083543 7.33712989 9.96202669 7.45813736 9.96202669 7.60544828 9.96202669 7.75537213 9.83083543 7.87376668 9.67098741 7.87376668 9.50836819 7.87376668 9.38001112 7.75537213 9.38001112 7.60544828 9.38001112 7.45813736 9.50836819 7.33712989 9.67098741 7.33712989zM9.67098741 8C9.9049651 8 10.0961781 7.82377271 10.0961781 7.60544828 10.0961781 7.38973679 9.9049651 7.21350949 9.67098741 7.21350949 9.43423852 7.21350949 9.24302553 7.38973679 9.24302553 7.60544828 9.24302553 7.82377271 9.43423852 8 9.67098741 8zM8.11602774 7.99171953L8.25011616 7.99171953 8.25011616 7.86848276 8.11602774 7.86848276 8.11602774 7.99171953zM9.13463371 7.88688937C9.09180603 7.92108966 9.00337947 8 8.83786308 8 8.62101646 8 8.41273538 7.84217931 8.41273538 7.60544828 8.41273538 7.37133018 8.62101646 7.21350949 8.83786308 7.21350949 8.99481393 7.21350949 9.09180603 7.29241984 9.13463371 7.32662013 9.1089371 7.35814942 9.08613766 7.42393708 9.07467496 7.45285345 8.99481393 7.35292357 8.89782183 7.33712989 8.83786308 7.33712989 8.67807805 7.33712989 8.54682381 7.46075029 8.54682381 7.60544828 8.54682381 7.7527592 8.67807805 7.8763796 8.83786308 7.8763796 8.92635263 7.8763796 9.011945 7.83956639 9.07757212 7.76059798 9.0974744 7.82638563 9.12033682 7.86319885 9.13463371 7.88688937zM10.2873281 7.98159339L10.2873281 7.25032271 10.4071826 7.25032271 10.4071826 7.35292357C10.4328163 7.31611036 10.4670784 7.28713592 10.5070089 7.26611639 10.5470024 7.24509686 10.5954355 7.2319161 10.6496629 7.2319161 10.7067245 7.2319161 10.7552835 7.24509686 10.7923168 7.26611639 10.8294132 7.28974885 10.8580069 7.32133621 10.8722408 7.36082041 10.9350338 7.27662616 11.017792 7.2319161 11.1176182 7.2319161 11.1946451 7.2319161 11.257438 7.25293563 11.2973685 7.29241984 11.3401332 7.33451697 11.3629957 7.3950207 11.3629957 7.4791569L11.3629957 7.98159339 11.2289072 7.98159339 11.2289072 7.52125403C11.2289072 7.47126006 11.2231759 7.43444684 11.2146103 7.41342731 11.2060448 7.39240778 11.1918109 7.37394311 11.1689485 7.36082041 11.146149 7.34763966 11.1176182 7.33974282 11.0862533 7.33974282 11.0320259 7.33974282 10.986364 7.35814942 10.9492677 7.39240778 10.9121714 7.42655 10.8922061 7.48182789 10.8922061 7.55545431L10.8922061 7.98159339 10.7581177 7.98159339 10.7581177 7.50546034C10.7581177 7.45024052 10.7467179 7.40814339 10.7267527 7.38183995 10.7038903 7.3555365 10.6667939 7.33974282 10.6182979 7.33974282 10.5812016 7.33974282 10.5470024 7.35025258 10.5127403 7.36871725 10.4813753 7.38712386 10.4585129 7.41342731 10.444279 7.4476276 10.4299821 7.48444081 10.4214165 7.53443478 10.4214165 7.60283536L10.4214165 7.98159339 10.2873281 7.98159339zM11.3116654 7.0898891L11.3116654 6.95047502 11.2545409 6.95047502 11.2545409 6.93206841 11.3915265 6.93206841 11.3915265 6.95047502 11.3344649 6.95047502 11.3344649 7.0898891 11.3116654 7.0898891zM11.4114917 7.0898891L11.4114917 6.93206841 11.4457539 6.93206841 11.4885185 7.04512098C11.4914157 7.05568881 11.4942499 7.06352758 11.4970841 7.0688115 11.4970841 7.06352758 11.4999183 7.05301782 11.5056496 7.04250805L11.5455801 6.93206841 11.5770081 6.93206841 11.5770081 7.0898891 11.5541457 7.0898891 11.5541457 6.95837186 11.5056496 7.0898891 11.4828502 7.0898891 11.4343541 6.95570087 11.4343541 7.0898891 11.4114917 7.0898891zM7.54824608 7.87376668C7.51681812 7.91319282 7.46832207 7.94478018 7.40552913 7.96579971 7.39129523 7.97108363 7.37699834 7.97636754 7.36276444 7.97898047 7.30853704 7.99210316 7.24864127 7.99738707 7.18011698 7.99738707 7.0802907 7.99738707 7.00326386 7.97898047 6.94903646 7.93949626 6.89197487 7.90268305 6.86627826 7.84746323 6.86627826 7.77644973 6.86627826 7.73168161 6.87774097 7.69225547 6.89764324 7.65805518 6.9176085 7.62385489 6.94903646 7.59493852 6.98896697 7.571248 7.02033195 7.55284139 7.06605679 7.53966063 7.12305539 7.53176379 7.17444861 7.52647988 7.25430964 7.52125403 7.36276444 7.52125403 7.37132997 7.52125403 7.38272969 7.52125403 7.39412941 7.52125403L7.54251473 7.52125403C7.54251473 7.5186411 7.54251473 7.51335718 7.54251473 7.51074426 7.54251473 7.50546034 7.54251473 7.50284742 7.54251473 7.50023449 7.54251473 7.46075029 7.531115 7.43183392 7.5054184 7.41075632 7.47972179 7.38973679 7.44262546 7.37922702 7.39412941 7.37922702 7.38272969 7.37922702 7.37132997 7.37922702 7.36276444 7.37922702 7.32283392 7.38183995 7.29430313 7.38973679 7.27144071 7.40024655 7.2457441 7.41342731 7.22867601 7.43705977 7.22294466 7.4660342L6.9176085 7.4660342C6.92617403 7.38712386 6.97189888 7.32923305 7.04886274 7.28974885 7.12022121 7.25554856 7.22577884 7.23714195 7.36276444 7.23452903 7.37416416 7.2319161 7.38556388 7.2319161 7.39986076 7.2319161 7.54824608 7.2319161 7.65953506 7.25554856 7.72799637 7.30031668 7.79929186 7.34763966 7.83638818 7.41604023 7.83638818 7.51335718L7.83638818 7.88427644C7.83638818 7.90529598 7.83638818 7.92370258 7.83922237 7.93688334 7.84211954 7.95267702 7.84495372 7.9684707 7.85068507 7.98159339L7.56821133 7.98159339C7.56247998 7.9684707 7.55674863 7.95267702 7.55391445 7.93688334 7.55108026 7.92108966 7.54824608 7.90529598 7.54824608 7.88688937L7.54824608 7.87376668zM7.36276444 7.83956639C7.41409467 7.83428247 7.45692235 7.82115978 7.48828733 7.79485633 7.52254947 7.76849482 7.54251473 7.72645576 7.54251473 7.67123594L7.54251473 7.65544225 7.51681812 7.65544225C7.45692235 7.65544225 7.40552913 7.65544225 7.36276444 7.6606681 7.31710257 7.66328103 7.28000624 7.67123594 7.25430964 7.67907471 7.20581359 7.69486839 7.18295116 7.72117184 7.18295116 7.75798505 7.18295116 7.7842885 7.19441387 7.8053661 7.22011047 7.81848879 7.2457441 7.83166955 7.28284043 7.83956639 7.33423364 7.83956639 7.34279918 7.83956639 7.35136471 7.83956639 7.36276444 7.83956639zM6.4497161 7.59493852C6.4497161 7.52915087 6.42975084 7.47654397 6.38982033 7.43705977 6.34988982 7.39763363 6.2984966 7.37922702 6.23286948 7.37922702L6.2300353 7.37922702C6.15873981 7.37922702 6.10444942 7.39763363 6.06741608 7.43705977 6.03031975 7.47393105 6.01029151 7.53176379 6.01029151 7.60544828 6.01029151 7.67646179 6.03031975 7.73168161 6.06741608 7.77116581 6.10728361 7.81059195 6.15873981 7.82899856 6.22720111 7.82899856 6.2300353 7.82899856 6.2300353 7.82899856 6.2300353 7.82899856 6.2984966 7.82899856 6.352724 7.80797903 6.38982033 7.76849482 6.42975084 7.72645576 6.4497161 7.66856495 6.4497161 7.59493852zM6.2300353 7.24509686C6.26713162 7.23452903 6.30989632 7.2319161 6.352724 7.2319161 6.47824689 7.2319161 6.57813616 7.26611639 6.64943165 7.33451697 6.7236243 7.40024655 6.76072063 7.49233765 6.76072063 7.61067413 6.76072063 7.73168161 6.7236243 7.82638563 6.655163 7.89478621 6.58380452 7.96318679 6.48397824 7.99738707 6.35839237 7.99738707 6.31279349 7.99738707 6.26996581 7.99210316 6.2300353 7.98159339 6.20717287 7.97636754 6.18437343 7.9684707 6.16440818 7.95790287 6.10444942 7.93159942 6.05595338 7.89478621 6.01318868 7.8448503L6.01318868 7.86581177C6.01318868 7.88688937 6.01318868 7.90529598 6.01029151 7.92370258 6.01029151 7.94216725 6.00745733 7.96318679 6.00462314 7.98159339L5.69928698 7.98159339C5.70218415 7.95006409 5.70501833 7.92108966 5.7079155 7.89478621 5.7106867 7.86581177 5.7106867 7.83956639 5.7106867 7.81587587L5.7106867 6.93206841 6.01318868 6.93206841 6.01318868 7.3555365C6.05885054 7.31343937 6.11018078 7.28191007 6.16724236 7.2634454 6.18720762 7.25554856 6.20717287 7.24770978 6.2300353 7.24509686zM5.2170977 7.87376668C5.18289853 7.91319282 5.13723667 7.94478018 5.07160955 7.96579971 5.06020983 7.97108363 5.04591294 7.97636754 5.02878187 7.97898047 4.97745164 7.99210316 4.9146587 7.99738707 4.84903158 7.99738707 4.74914232 7.99738707 4.66934427 7.97898047 4.61511687 7.93949626 4.56088947 7.90268305 4.53235868 7.84746323 4.53235868 7.77644973 4.53235868 7.73168161 4.5437584 7.69225547 4.56655784 7.65805518 4.58658608 7.62385489 4.61795106 7.59493852 4.65788157 7.571248 4.68924655 7.55284139 4.73207423 7.53966063 4.78913581 7.53176379 4.84336321 7.52647988 4.92322424 7.52125403 5.02878187 7.52125403 5.04024457 7.52125403 5.05164429 7.52125403 5.06304401 7.52125403L5.20853216 7.52125403C5.20853216 7.5186411 5.20853216 7.51335718 5.21142933 7.51074426 5.21142933 7.50546034 5.21142933 7.50284742 5.21142933 7.50023449 5.21142933 7.46075029 5.19713244 7.43183392 5.174333 7.41075632 5.14863639 7.38973679 5.11154006 7.37922702 5.06304401 7.37922702 5.05164429 7.37922702 5.04024457 7.37922702 5.02878187 7.37922702 4.99174852 7.38183995 4.96032056 7.38973679 4.94035531 7.40024655 4.91182452 7.41342731 4.89752763 7.43705977 4.89185926 7.4660342L4.58368891 7.4660342C4.59508863 7.38712386 4.63791631 7.32923305 4.71777734 7.28974885 4.78913581 7.25554856 4.89185926 7.23714195 5.02878187 7.23452903 5.04307876 7.2319161 5.05447848 7.2319161 5.0658782 7.2319161 5.2170977 7.2319161 5.3255525 7.25554856 5.39684799 7.30031668 5.46820646 7.34763966 5.5024686 7.41604023 5.5024686 7.51335718L5.5024686 7.88427644C5.5024686 7.90529598 5.50530279 7.92370258 5.50530279 7.93688334 5.50813697 7.95267702 5.51386832 7.9684707 5.51959967 7.98159339L5.23706295 7.98159339C5.2285604 7.9684707 5.22566323 7.95267702 5.22282905 7.93688334 5.21999486 7.92108966 5.2170977 7.90529598 5.2170977 7.88688937L5.2170977 7.87376668zM5.02878187 7.83956639C5.08300927 7.83428247 5.12583695 7.82115978 5.15436774 7.79485633 5.19146407 7.76849482 5.20853216 7.72645576 5.20853216 7.67123594L5.20853216 7.65544225 5.18573272 7.65544225C5.12583695 7.65544225 5.07160955 7.65544225 5.02878187 7.6606681 4.98318299 7.66328103 4.94892084 7.67123594 4.92322424 7.67907471 4.87472819 7.69486839 4.84903158 7.72117184 4.84903158 7.75798505 4.84903158 7.7842885 4.86332847 7.8053661 4.88619089 7.81848879 4.91182452 7.83166955 4.94892084 7.83956639 5.00031406 7.83956639 5.0116508 7.83956639 5.02027932 7.83956639 5.02878187 7.83956639zM4.11579652 7.59493852C4.11579652 7.52915087 4.09866544 7.47654397 4.05867195 7.43705977 4.01880442 7.39763363 3.9674112 7.37922702 3.90178408 7.37922702 3.89888692 7.37922702 3.89888692 7.37922702 3.89605273 7.37922702 3.82759143 7.37922702 3.77336403 7.39763363 3.7362677 7.43705977 3.69633718 7.47393105 3.67920611 7.53176379 3.67920611 7.60544828 3.67920611 7.67646179 3.69633718 7.73168161 3.7362677 7.77116581 3.77336403 7.81059195 3.82759143 7.82899856 3.89605273 7.82899856 3.9674112 7.82899856 4.02157562 7.80797903 4.05867195 7.76849482 4.09866544 7.72645576 4.11579652 7.66856495 4.11579652 7.59493852zM3.89605273 7.24509686C3.93604623 7.23452903 3.97597674 7.2319161 4.02157562 7.2319161 4.14716149 7.2319161 4.24415359 7.26611639 4.31834625 7.33451697 4.38970472 7.40024655 4.42680105 7.49233765 4.42680105 7.61067413 4.42680105 7.73168161 4.3925389 7.82638563 4.32118043 7.89478621 4.24988494 7.96318679 4.15289284 7.99738707 4.02730697 7.99738707 3.98164511 7.99738707 3.93888041 7.99210316 3.89605273 7.98159339 3.87608747 7.97636754 3.85328803 7.9684707 3.83048859 7.95790287 3.77336403 7.93159942 3.72203379 7.89478621 3.68210328 7.8448503L3.68210328 7.86581177C3.68210328 7.88688937 3.67920611 7.90529598 3.67920611 7.92370258 3.67637193 7.94216725 3.67353774 7.96318679 3.67064058 7.98159339L3.3653674 7.98159339C3.37109875 7.95006409 3.37393293 7.92108966 3.37393293 7.89478621 3.37676712 7.86581177 3.37966428 7.83956639 3.37966428 7.81587587L3.37966428 6.93206841 3.68210328 6.93206841 3.68210328 7.3555365C3.72770216 7.31343937 3.77909538 7.28191007 3.83332278 7.2634454 3.85328803 7.25554856 3.87608747 7.24770978 3.89605273 7.24509686zM1.54210491 6.93206841L1.75901451 6.93206841 2.31533347 7.98159339 1.95016452 7.98159339 1.85033824 7.76849482 1.23116336 7.76849482 1.12560573 7.98159339.783236219 7.98159339 1.37381732 6.93206841 1.54210491 6.93206841zM1.54210491 7.56596408L1.74471762 7.56596408 1.55073343 7.16351552 1.54210491 7.18192213 1.33672099 7.56596408 1.54210491 7.56596408zM2.36678967 7.98159339L2.66916568 7.98159339 2.66916568 6.93206841 2.36678967 6.93206841 2.36678967 7.98159339z"/>
    </g>
  </g>
</svg>
