<?xml version="1.0" encoding="UTF-8" standalone="no"?>
<svg
   xmlns:svg="http://www.w3.org/2000/svg"
   xmlns="http://www.w3.org/2000/svg"
   xmlns:xlink="http://www.w3.org/1999/xlink"
   id="svg13"
   version="1.1"
   viewBox="0 0 673.24335 72.796425"
   height="72.796425"
   width="673.24335">
  <defs
     id="defs3">
    <path
       d="M 383.90063,75 V 28.004842 h 0.15358 L 403.71232,75 h 2.918 l 19.6581,-46.995158 H 426.442 V 75 h 5.52884 V 20.633052 H 423.524 L 405.17132,64.863789 386.81863,20.633052 h -8.44684 V 75 Z m 77.71095,0.921474 c 2.96919,0 5.74641,-0.58872 8.33166,-1.766158 2.58524,-1.177439 4.95292,-3.122772 7.10302,-5.836 v 0 L 473.13,65.094158 c -1.02386,1.638175 -2.52125,3.084377 -4.49218,4.338605 -1.97093,1.254228 -4.31301,1.881342 -7.02624,1.881342 -1.79176,0 -3.45553,-0.332754 -4.99132,-0.998263 -1.53579,-0.665509 -2.8924,-1.574184 -4.06984,-2.726026 -1.17744,-1.151842 -2.12451,-2.521255 -2.84121,-4.108237 -0.7167,-1.586983 -1.15184,-3.276351 -1.30542,-5.068105 v 0 h 29.94789 v -2.303685 c 0,-2.457263 -0.38394,-4.773745 -1.15184,-6.949447 -0.76789,-2.175702 -1.88134,-4.069842 -3.34034,-5.682421 -1.459,-1.612579 -3.26355,-2.905202 -5.41366,-3.877869 -2.1501,-0.972666 -4.58177,-1.459 -7.295,-1.459 -2.55965,0 -4.94012,0.473536 -7.14142,1.420606 -2.2013,0.94707 -4.12103,2.265289 -5.75921,3.954658 -1.63818,1.689368 -2.918,3.685894 -3.83947,5.989579 -0.92148,2.303684 -1.38221,4.81214 -1.38221,7.525368 0,2.713228 0.47353,5.221684 1.4206,7.525368 0.94707,2.303685 2.23969,4.300211 3.87787,5.989579 1.63818,1.689369 3.59631,3.007588 5.87439,3.954658 2.27809,0.947071 4.74815,1.420606 7.41019,1.420606 z m 11.21126,-21.654632 h -24.26547 c 0,-1.484596 0.34555,-2.918 1.03666,-4.300211 0.6911,-1.38221 1.61258,-2.610842 2.76442,-3.685894 1.15184,-1.075053 2.49566,-1.932535 4.03145,-2.572448 1.53578,-0.639912 3.12277,-0.959868 4.76094,-0.959868 3.6859,0 6.5527,1.062254 8.60042,3.186763 2.04772,2.124509 3.07158,4.901728 3.07158,8.331658 z m 25.5709,21.654632 c 1.74056,0 3.45552,-0.204772 5.14489,-0.614316 1.68937,-0.409544 3.18676,-1.062254 4.49219,-1.958132 1.30542,-0.895877 2.35487,-2.047719 3.14837,-3.455526 0.79349,-1.407807 1.19023,-3.084377 1.19023,-5.029711 0,-2.559649 -0.83188,-4.696956 -2.49566,-6.411921 -1.66377,-1.714965 -3.74988,-2.854008 -6.25834,-3.417131 v 0 l -5.14489,-1.228632 c -2.35488,-0.563123 -4.12104,-1.228631 -5.29848,-1.996526 -1.17744,-0.767895 -1.76616,-1.996527 -1.76616,-3.685895 0,-0.972667 0.21757,-1.791754 0.65272,-2.457263 0.43514,-0.665509 1.01106,-1.215833 1.72776,-1.650974 0.7167,-0.43514 1.52299,-0.755096 2.41887,-0.959868 0.89587,-0.204772 1.77895,-0.307158 2.64923,-0.307158 1.84295,0 3.40434,0.43514 4.68416,1.305421 1.27983,0.870281 2.30369,2.047719 3.07158,3.532316 v 0 l 4.53058,-2.99479 c -1.17744,-2.354877 -2.84121,-4.018649 -4.99132,-4.991316 -2.1501,-0.972666 -4.47938,-1.459 -6.98784,-1.459 -1.68937,0 -3.32754,0.217571 -4.91452,0.652711 -1.58699,0.43514 -3.00759,1.087851 -4.26182,1.958132 -1.25423,0.87028 -2.25249,1.996526 -2.99479,3.378736 -0.7423,1.382211 -1.11345,2.99479 -1.11345,4.837737 0,1.689369 0.35835,3.109974 1.07506,4.261816 0.7167,1.151842 1.57418,2.086114 2.57244,2.802816 0.99827,0.716702 2.02213,1.254228 3.07158,1.612579 1.04946,0.358351 1.88134,0.614316 2.49566,0.767895 v 0 l 4.91453,1.151842 c 1.89414,0.460737 3.50672,1.087851 4.83773,1.881342 1.33102,0.793491 1.99653,2.086114 1.99653,3.877868 0,1.02386 -0.24317,1.919737 -0.7295,2.687632 -0.48633,0.767895 -1.12625,1.395009 -1.91974,1.881342 -0.79349,0.486333 -1.70216,0.844684 -2.72602,1.075053 -1.02386,0.230368 -2.04772,0.345552 -3.07158,0.345552 -2.15011,0 -4.00585,-0.486333 -5.56724,-1.459 -1.56139,-0.972666 -2.85401,-2.278088 -3.87787,-3.916263 v 0 l -4.377,2.99479 c 1.68937,2.559649 3.72429,4.364201 6.10477,5.413658 2.38047,1.049456 4.95292,1.574184 7.71734,1.574184 z m 32.71231,0 c 1.74057,0 3.45553,-0.204772 5.1449,-0.614316 1.68937,-0.409544 3.18676,-1.062254 4.49218,-1.958132 1.30542,-0.895877 2.35488,-2.047719 3.14837,-3.455526 0.79349,-1.407807 1.19024,-3.084377 1.19024,-5.029711 0,-2.559649 -0.83189,-4.696956 -2.49566,-6.411921 -1.66377,-1.714965 -3.74989,-2.854008 -6.25834,-3.417131 v 0 l -5.1449,-1.228632 c -2.35487,-0.563123 -4.12103,-1.228631 -5.29847,-1.996526 -1.17744,-0.767895 -1.76616,-1.996527 -1.76616,-3.685895 0,-0.972667 0.21757,-1.791754 0.65271,-2.457263 0.43514,-0.665509 1.01106,-1.215833 1.72777,-1.650974 0.7167,-0.43514 1.52299,-0.755096 2.41886,-0.959868 0.89588,-0.204772 1.77896,-0.307158 2.64924,-0.307158 1.84295,0 3.40433,0.43514 4.68416,1.305421 1.27982,0.870281 2.30368,2.047719 3.07158,3.532316 v 0 l 4.53058,-2.99479 c -1.17744,-2.354877 -2.84122,-4.018649 -4.99132,-4.991316 -2.15011,-0.972666 -4.47939,-1.459 -6.98784,-1.459 -1.68937,0 -3.32755,0.217571 -4.91453,0.652711 -1.58698,0.43514 -3.00759,1.087851 -4.26181,1.958132 -1.25423,0.87028 -2.2525,1.996526 -2.99479,3.378736 -0.7423,1.382211 -1.11345,2.99479 -1.11345,4.837737 0,1.689369 0.35835,3.109974 1.07505,4.261816 0.7167,1.151842 1.57419,2.086114 2.57245,2.802816 0.99826,0.716702 2.02212,1.254228 3.07158,1.612579 1.04945,0.358351 1.88134,0.614316 2.49566,0.767895 v 0 l 4.91452,1.151842 c 1.89414,0.460737 3.50672,1.087851 4.83774,1.881342 1.33102,0.793491 1.99653,2.086114 1.99653,3.877868 0,1.02386 -0.24317,1.919737 -0.72951,2.687632 -0.48633,0.767895 -1.12624,1.395009 -1.91973,1.881342 -0.79349,0.486333 -1.70217,0.844684 -2.72603,1.075053 -1.02386,0.230368 -2.04772,0.345552 -3.07158,0.345552 -2.1501,0 -4.00585,-0.486333 -5.56723,-1.459 -1.56139,-0.972666 -2.85401,-2.278088 -3.87787,-3.916263 v 0 l -4.377,2.99479 c 1.68937,2.559649 3.72429,4.364201 6.10476,5.413658 2.38047,1.049456 4.95292,1.574184 7.71734,1.574184 z m 32.40516,0 c 2.918,0 5.38806,-0.524728 7.41019,-1.574184 2.02212,-1.049457 3.77548,-2.77722 5.26007,-5.18329 v 0 h 0.15358 c 0,0.972667 0.0384,1.97093 0.11519,2.994789 0.0768,1.02386 0.19197,1.97093 0.34555,2.841211 v 0 h 4.91453 c -0.15358,-0.972667 -0.29436,-2.214096 -0.42235,-3.724289 -0.12798,-1.510193 -0.19197,-2.956395 -0.19197,-4.338606 v 0 -16.049 c 0,-2.201298 -0.35835,-4.095438 -1.07505,-5.682421 -0.7167,-1.586982 -1.66377,-2.905202 -2.84121,-3.954658 -1.17744,-1.049456 -2.57245,-1.830149 -4.18503,-2.342079 -1.61258,-0.51193 -3.28915,-0.767895 -5.02971,-0.767895 -6.75747,0 -11.82558,1.740562 -15.20432,5.221685 v 0 l 3.07158,3.609105 c 3.12278,-2.815614 6.78307,-4.223421 10.9809,-4.223421 6.14316,0 9.21474,3.097175 9.21474,9.291526 v 0 0.921474 h -2.53406 c -2.1501,0 -4.51778,0.102386 -7.10302,0.307158 -2.58525,0.204772 -5.01692,0.716702 -7.295,1.535789 -2.27809,0.819088 -4.17223,2.060518 -5.68242,3.72429 -1.5102,1.663772 -2.26529,3.954658 -2.26529,6.872658 0,1.740561 0.34555,3.263552 1.03665,4.568974 0.69111,1.305421 1.61258,2.40607 2.76443,3.301947 1.15184,0.895877 2.47006,1.561386 3.95465,1.996526 1.4846,0.43514 3.02039,0.652711 4.60737,0.652711 z m 1.61258,-4.607369 c -1.02386,0 -2.03492,-0.115184 -3.03318,-0.345552 -0.99827,-0.230369 -1.90694,-0.614316 -2.72603,-1.151843 -0.81909,-0.537526 -1.4718,-1.228631 -1.95813,-2.073315 -0.48634,-0.844684 -0.7295,-1.855746 -0.7295,-3.033184 0,-1.791755 0.62711,-3.199562 1.88134,-4.223422 1.25423,-1.023859 2.76442,-1.778956 4.53058,-2.265289 1.76616,-0.486333 3.6091,-0.793491 5.52884,-0.921474 1.91974,-0.127982 3.51952,-0.191973 4.79934,-0.191973 v 0 h 2.61085 v 2.610842 c 0,1.586982 -0.21757,3.084377 -0.65272,4.492184 -0.43513,1.407807 -1.11344,2.636438 -2.03492,3.685895 -0.92147,1.049456 -2.06051,1.881342 -3.41713,2.495658 -1.35661,0.614315 -2.95639,0.921473 -4.79934,0.921473 z m 44.00037,22.115369 c 4.04424,0 7.32059,-0.614316 9.82905,-1.842948 2.50846,-1.228631 4.46659,-2.764421 5.8744,-4.607368 1.4078,-1.842947 2.35487,-3.86507 2.84121,-6.066368 0.48633,-2.201299 0.7295,-4.274615 0.7295,-6.219948 v 0 -35.630316 h -5.06811 v 5.989579 h -0.15358 c -1.02386,-1.38221 -2.12451,-2.521254 -3.30195,-3.417132 -1.17743,-0.895877 -2.36767,-1.59978 -3.5707,-2.11171 -1.20304,-0.51193 -2.40607,-0.870281 -3.60911,-1.075053 -1.20304,-0.204772 -2.34208,-0.307158 -3.41713,-0.307158 -2.66204,0 -5.1065,0.473536 -7.3334,1.420606 -2.22689,0.94707 -4.14663,2.265289 -5.75921,3.954658 -1.61258,1.689368 -2.8796,3.660298 -3.80108,5.912789 -0.92147,2.252491 -1.38221,4.684158 -1.38221,7.295 0,2.610842 0.48634,5.042509 1.459,7.295 0.97267,2.252491 2.30369,4.185027 3.99306,5.797605 1.68936,1.612579 3.67309,2.879606 5.95118,3.801079 C 604.68317,74.539263 607.12763,75 609.73847,75 c 2.61085,0 5.09371,-0.51193 7.44858,-1.53579 2.35488,-1.023859 4.35141,-2.764421 5.98958,-5.221684 v 0 h 0.15358 v 6.450316 c 0,1.945333 -0.24317,3.775483 -0.7295,5.490447 -0.48633,1.714965 -1.27982,3.21236 -2.38047,4.492185 -1.10065,1.279824 -2.54685,2.290886 -4.33861,3.033184 -1.79175,0.742298 -3.96745,1.113447 -6.5271,1.113447 -2.918,0 -5.56724,-0.601517 -7.94771,-1.804552 -2.38048,-1.203035 -4.31301,-2.802816 -5.79761,-4.799342 v 0 l -3.76268,3.993052 c 2.30368,2.457263 4.86333,4.274614 7.67895,5.452053 2.81561,1.177439 6.01517,1.766158 9.59868,1.766158 z m 0.76789,-23.036842 c -1.89414,0 -3.6475,-0.37115 -5.26008,-1.113448 -1.61257,-0.742298 -3.02038,-1.740561 -4.22342,-2.994789 -1.20303,-1.254228 -2.1501,-2.713228 -2.84121,-4.377 -0.6911,-1.663772 -1.03666,-3.442728 -1.03666,-5.336869 0,-1.89414 0.34556,-3.673096 1.03666,-5.336868 0.69111,-1.663772 1.63818,-3.122772 2.84121,-4.377 1.20304,-1.254228 2.61085,-2.252492 4.22342,-2.99479 1.61258,-0.742298 3.36594,-1.113447 5.26008,-1.113447 2.09892,0 3.99306,0.371149 5.68242,1.113447 1.68937,0.742298 3.12278,1.740562 4.30021,2.99479 1.17744,1.254228 2.07332,2.713228 2.68764,4.377 0.61431,1.663772 0.92147,3.442728 0.92147,5.336868 0.0512,2.098912 -0.26876,3.993053 -0.95987,5.682421 -0.6911,1.689369 -1.67657,3.135571 -2.95639,4.338606 -1.27983,1.203035 -2.75162,2.137307 -4.4154,2.802815 -1.66377,0.665509 -3.41713,0.998264 -5.26008,0.998264 z m 46.61121,5.528842 c 2.9692,0 5.74642,-0.58872 8.33166,-1.766158 2.58525,-1.177439 4.95292,-3.122772 7.10303,-5.836 v 0 l -3.91626,-3.225158 c -1.02386,1.638175 -2.52126,3.084377 -4.49219,4.338605 -1.97093,1.254228 -4.31301,1.881342 -7.02624,1.881342 -1.79175,0 -3.45552,-0.332754 -4.99131,-0.998263 -1.53579,-0.665509 -2.8924,-1.574184 -4.06984,-2.726026 -1.17744,-1.151842 -2.12451,-2.521255 -2.84121,-4.108237 -0.71671,-1.586983 -1.15185,-3.276351 -1.30543,-5.068105 v 0 h 29.9479 v -2.303685 c 0,-2.457263 -0.38395,-4.773745 -1.15184,-6.949447 -0.7679,-2.175702 -1.88134,-4.069842 -3.34035,-5.682421 -1.45899,-1.612579 -3.26355,-2.905202 -5.41365,-3.877869 -2.15011,-0.972666 -4.58177,-1.459 -7.295,-1.459 -2.55965,0 -4.94013,0.473536 -7.14142,1.420606 -2.2013,0.94707 -4.12104,2.265289 -5.75921,3.954658 -1.63818,1.689368 -2.918,3.685894 -3.83948,5.989579 -0.92147,2.303684 -1.38221,4.81214 -1.38221,7.525368 0,2.713228 0.47354,5.221684 1.42061,7.525368 0.94707,2.303685 2.23969,4.300211 3.87787,5.989579 1.63817,1.689369 3.5963,3.007588 5.87439,3.954658 2.27809,0.947071 4.74815,1.420606 7.41018,1.420606 z m 11.21127,-21.654632 h -24.26548 c 0,-1.484596 0.34556,-2.918 1.03666,-4.300211 0.69111,-1.38221 1.61258,-2.610842 2.76442,-3.685894 1.15184,-1.075053 2.49566,-1.932535 4.03145,-2.572448 1.53579,-0.639912 3.12277,-0.959868 4.76095,-0.959868 3.68589,0 6.5527,1.062254 8.60042,3.186763 2.04772,2.124509 3.07158,4.901728 3.07158,8.331658 z"
       id="payever-message@2x-a" />
  </defs>
  <g
     transform="translate(0,-20.633052)"
     style="fill:#ffffff;fill-rule:evenodd"
     id="g11">
    <path
       style="fill:#ffffff"
       id="path5"
       d="m 104.48807,38.232801 c -5.598681,0 -10.561203,3.081738 -13.642899,7.83688 v -5.050178 c 0,-1.591245 -1.289943,-2.881205 -2.881168,-2.881205 -1.591224,0 -2.881166,1.28996 -2.881166,2.881205 v 46.099291 c 0,1.591246 1.289942,2.881206 2.881166,2.881206 1.591225,0 2.881168,-1.28996 2.881168,-2.881206 V 68.748227 c 3.081696,4.743617 8.044218,7.825355 13.642899,7.825355 9.34881,0 16.92744,-8.583689 16.92744,-19.170391 0,-10.586702 -7.57863,-19.17039 -16.92744,-19.17039 z m 67.03758,-0.09126 0.43925,0.01274 c 1.03056,0.109066 1.9229,0.764881 2.33598,1.716799 v 0 L 185.9249,65.769902 197.54662,39.87108 c 0.65198,-1.451224 2.35451,-2.099066 3.8041,-1.447531 0.69625,0.313129 1.23973,0.890552 1.51079,1.605155 0.27106,0.714603 0.24747,1.507804 -0.0656,2.204986 v 0 l -20.45649,45.60646 c -0.31432,0.698634 -0.89336,1.243221 -1.60926,1.513516 -0.71591,0.270295 -1.50978,0.244065 -2.20634,-0.0729 v 0 l -0.39838,-0.218299 c -0.5042,-0.330649 -0.89537,-0.814204 -1.11224,-1.385588 -0.27108,-0.714231 -0.24756,-1.5071 0.0654,-2.203949 v 0 l 5.69119,-12.677423 -13.71593,-30.56181 c -0.43668,-0.941287 -0.33414,-2.045073 0.26845,-2.889502 0.60258,-0.84443 1.61206,-1.298972 2.64261,-1.189907 z m -11.13975,-0.0032 0.45356,0.03565 c 0.59632,0.09483 1.15204,0.376008 1.5844,0.809235 0.54046,0.541534 0.84382,1.276187 0.8432,2.042031 v 0 32.45811 c 6.2e-4,0.765844 -0.30274,1.500497 -0.8432,2.042031 -0.54045,0.541533 -1.27364,0.845492 -2.03796,0.844879 v 0 l -0.46734,-0.03778 c -1.36898,-0.223737 -2.41383,-1.414169 -2.41383,-2.849125 v 0 -4.692962 c -3.0817,4.75301 -8.04422,7.840849 -13.6429,7.840849 -9.34881,0 -16.92744,-8.600683 -16.92744,-19.208347 0,-10.607663 7.57863,-19.208346 16.92744,-19.208346 5.59868,0 10.5612,3.097077 13.6429,7.852396 v 0 -5.0417 c 0,-1.594396 1.28994,-2.886911 2.88117,-2.886911 z m 167.57992,-10e-7 c 0.65217,-6.11e-4 1.27783,0.260044 1.7392,0.724561 0.46137,0.464518 0.72059,1.094799 0.72059,1.752032 v 0 6.507983 c 2.7922,-5.320513 7.69804,-8.882923 13.61026,-8.882923 v 0 h 0.42639 c 1.40692,0.03619 2.53076,1.192297 2.53774,2.610586 0,1.356118 -1.16456,2.481211 -2.54003,2.511245 -0.52268,0.01848 -1.04077,0 -1.5772,0 -6.85671,0 -12.45716,5.895765 -12.45716,13.873069 v 0 16.689267 c 0,0.657233 -0.25922,1.287514 -0.72059,1.752032 -0.46137,0.464517 -1.08703,0.725172 -1.7392,0.724561 v 0 H 327.152 c -1.35724,0 -2.4575,-1.10881 -2.4575,-2.476593 v 0 -33.309227 c 0,-1.367784 1.10026,-2.476593 2.4575,-2.476593 v 0 z M 223.86511,37.907801 c 10.09986,0 18.28657,8.564384 18.27276,19.148538 v 0 0.261138 l 0.003,0.115547 v 0 l -0.003,0.115548 c -0.1258,1.181646 -1.11834,2.078322 -2.30223,2.079855 v 0 h -27.79476 c 1.11888,6.44062 6.33112,11.293616 12.59777,11.293616 3.53392,0 7.99333,-1.194761 10.31397,-3.697521 0.74135,-0.814214 1.98345,-0.915088 2.84555,-0.231095 v 0 l 0.18418,0.147901 c 0.53021,0.428099 0.85829,1.058965 0.90506,1.740378 0.0468,0.681413 -0.19201,1.351483 -0.65872,1.848529 -3.3129,3.57273 -9.22272,5.439978 -14.36358,5.439978 -10.09987,0 -18.28658,-8.566695 -18.28658,-19.132361 0,-10.565667 8.18671,-19.130051 18.28658,-19.130051 z m 75.65637,0 c 10.10076,0 18.28821,8.564384 18.27443,19.141605 v 0 0.499166 c -0.12584,1.181646 -1.11848,2.078322 -2.30247,2.079855 v 0 h -27.79725 c 1.11898,6.44062 6.33169,11.293616 12.5989,11.293616 3.53424,0 7.99405,-1.194761 10.3149,-3.697521 0.74141,-0.814214 1.98362,-0.915088 2.8458,-0.231095 v 0 l 0.1842,0.147901 c 0.53026,0.428099 0.85836,1.058965 0.90513,1.740378 0.0468,0.681413 -0.19202,1.351483 -0.65877,1.848529 -3.3132,3.57273 -9.22354,5.439978 -14.36487,5.439978 -10.10077,0 -18.28821,-8.566695 -18.28821,-19.132361 0,-10.565667 8.18744,-19.130051 18.28821,-19.130051 z m -52.4938,0.331678 c 0.5825,-0.158932 1.20438,-0.13102 1.77596,0.08649 0.71447,0.271889 1.29156,0.817657 1.60382,1.516772 v 0 L 262.036,65.769175 273.66454,39.842743 c 0.31229,-0.697943 0.8886,-1.24283 1.60197,-1.514631 0.71338,-0.271801 1.5053,-0.248217 2.20131,0.06556 v 0 l 0.41002,0.226639 c 1.15475,0.766837 1.61861,2.280634 1.03117,3.587565 v 0 l -14.15868,31.570439 c -0.50752,1.040557 -1.56217,1.700412 -2.71778,1.700412 -1.15561,0 -2.21026,-0.659855 -2.71778,-1.700412 v 0 L 245.15378,42.207872 c -0.31315,-0.697925 -0.33674,-1.491972 -0.0656,-2.207337 0.27116,-0.715365 0.81485,-1.293404 1.51138,-1.606867 v 0 z m -101.88662,4.760377 c -6.9632,0 -12.60337,6.464369 -12.60337,14.44148 0,7.97711 5.64247,14.443789 12.60337,14.443789 6.96321,0 12.60569,-6.468989 12.60569,-14.443789 0,-7.974801 -5.64248,-14.44148 -12.60569,-14.44148 z m -41.93223,-0.0096 c 6.96091,0 12.60569,6.453901 12.60569,14.412943 0,7.959043 -5.64478,14.415248 -12.60569,14.415248 -6.960895,0 -12.605677,-6.4539 -12.605677,-14.415248 0,-7.961347 5.644782,-14.412943 12.605677,-14.412943 z m 121.42982,0.168033 c -6.43472,0 -11.76207,5.128 -12.68296,11.813581 v 0 h 25.00447 c -0.92089,-6.685581 -5.88679,-11.813581 -12.32151,-11.813581 z m 75.65644,0 c -6.43529,0 -11.76312,5.128 -12.68409,11.813581 v 0 h 25.00671 C 311.69673,48.286281 306.73039,43.158281 300.29509,43.158281 Z M 32.59802,25.00136 c 17.733349,0.156111 32.025248,14.615873 32.018947,32.395013 -0.0063,17.779141 -14.308462,32.22871 -32.041917,32.372178 v 0 C 20.944875,89.857589 10.184192,83.698714 4.3609453,73.634675 -1.4623017,63.570636 -1.4530498,51.148326 4.3851814,41.093016 10.223413,31.037706 20.993258,24.894949 32.59802,25.00136 Z m -0.04824,3.748993 -1.075455,0.02075 C 16.12965,29.351055 3.8737676,42.011877 3.8867647,57.53464 3.9001056,73.418397 16.754563,86.283901 32.59802,86.270568 42.84694,86.261909 52.312735,80.772285 57.429733,71.869563 62.54673,62.966842 62.537536,52.003559 57.405614,43.109476 52.273692,34.215394 42.798703,28.741735 32.549783,28.750353 Z m 0.218607,8.926952 c 11.112489,0 20.120941,9.029718 20.120941,20.16844 0,11.138721 -9.008452,20.168439 -20.120941,20.168439 -11.112489,0 -20.120941,-9.029718 -20.120941,-20.168439 0,-11.138722 9.008452,-20.16844 20.120941,-20.16844 z" />
    <g
       style="fill-rule:nonzero;fill:#ffffff"
       id="g9">
      <use
         height="100%"
         width="100%"
         y="0"
         x="0"
         style="fill:#ffffff"
         id="use7"
         xlink:href="#payever-message@2x-a" />
    </g>
  </g>
</svg>
