<?xml version="1.0" encoding="UTF-8" standalone="no"?>
<svg
   xmlns:dc="http://purl.org/dc/elements/1.1/"
   xmlns:cc="http://creativecommons.org/ns#"
   xmlns:rdf="http://www.w3.org/1999/02/22-rdf-syntax-ns#"
   xmlns:svg="http://www.w3.org/2000/svg"
   xmlns="http://www.w3.org/2000/svg"
   id="svg4"
   version="1.1"
   viewBox="0 0 25.825001 25.899999"
   height="25.9"
   width="25.825001">
  <metadata
     id="metadata10">
    <rdf:RDF>
      <cc:Work
         rdf:about="">
        <dc:format>image/svg+xml</dc:format>
        <dc:type
           rdf:resource="http://purl.org/dc/dcmitype/StillImage" />
        <dc:title></dc:title>
      </cc:Work>
    </rdf:RDF>
  </metadata>
  <defs
     id="defs8" />
  <g
     transform="translate(-0.475,-0.5)"
     style="fill:#ffffff"
     id="Logos-_x2F_-Regular-_x2F_-White112x24">
    <path
       style="fill:#ffffff"
       d="m 13.5,0.5 c 7.1,0.1 12.8,5.8 12.8,13 0,7.1 -5.7,12.9 -12.8,12.9 v 0 0 c -4.7,0 -9,-2.4 -11.3,-6.5 -2.3,-4.1 -2.3,-9 0,-13 2.3,-4 6.7,-6.4 11.3,-6.4 z m 0,1.5 H 13.2 C 7,2.2 2,7.3 2,13.5 2,19.9 7.2,25 13.5,25 c 4.1,0 7.9,-2.2 10,-5.8 2.1,-3.6 2,-7.9 0,-11.5 C 21.5,4.1 17.6,2 13.5,2 Z m 0.1,3.6 c 4.5,0 8.1,3.6 8.1,8.1 0,4.5 -3.6,8.1 -8.1,8.1 -4.5,0 -8.1,-3.6 -8.1,-8.1 0,-4.5 3.6,-8.1 8.1,-8.1 z"
       class="st0"
       id="Glyph" />
  </g>
</svg>
