<svg xmlns="http://www.w3.org/2000/svg" width="16" height="16" viewBox="0 0 16 16">
    <g fill="none" fill-rule="evenodd">
        <g>
            <g>
                <g>
                    <g transform="translate(-32 -224) translate(16 88) translate(8 16) translate(8 120)">
                        <rect width="16" height="16" fill="#86868B" rx="4"/>
                        <path fill="#FFF" fill-rule="nonzero" d="M9.026 13.714v-1.361c.962-.114 1.698-.408 2.208-.882.51-.474.766-1.043.766-1.708 0-.535-.14-.967-.421-1.295-.281-.328-.628-.575-1.04-.742-.413-.166-.917-.314-1.513-.443V5.216c.664.073 1.315.283 1.953.632l.638-1.495c-.68-.414-1.544-.661-2.591-.742V2.286H7.75v1.35c-.97.105-1.713.398-2.228.88C5.008 5 4.75 5.577 4.75 6.25c0 .543.14.979.421 1.307.281.328.63.578 1.047.748.417.17.927.324 1.532.462v2.03c-.46-.04-.907-.137-1.34-.291-.435-.154-.813-.345-1.137-.572l-.702 1.483c.35.26.809.479 1.379.657.57.178 1.17.284 1.8.316v1.325h1.276zM7.75 6.98c-.307-.09-.54-.199-.702-.329-.162-.13-.243-.295-.243-.498 0-.21.077-.395.23-.553.153-.158.391-.274.715-.347V6.98zm1.276 3.769V9.07c.298.097.525.21.683.34.157.13.236.296.236.499 0 .202-.077.377-.23.523-.153.146-.383.25-.689.316z"/>
                    </g>
                </g>
            </g>
        </g>
    </g>
</svg>
