<svg xmlns="http://www.w3.org/2000/svg" width="16" height="16" viewBox="0 0 16 16">
    <g fill="none" fill-rule="evenodd">
        <g>
            <g>
                <g>
                    <g transform="translate(-32 -592) translate(16 88) translate(8 16) translate(8 488)">
                        <rect width="16" height="16" fill="#86868B" rx="4"/>
                        <g fill="#FFF" fill-rule="nonzero">
                            <path d="M.285 7.373c.354.32 3.719 3.717 4.14 4.201.466.501 1.228.569 1.773.157l5.652-5.773c.093-.095.144-.224.142-.358V1.656c0-.528.08-.88-.279-1.32-.359-.44-.75-.321-1.301-.321H6.21c-.135-.002-.265.052-.36.15-.836.869-5.069 5.258-5.49 5.66-.215.194-.345.467-.359.759-.014.29.089.576.284.789zM9.29 1.889c0-.427.342-.774.763-.774.42 0 .762.347.762.774 0 .427-.341.773-.762.773s-.763-.346-.763-.773z" transform="translate(2 2)"/>
                        </g>
                    </g>
                </g>
            </g>
        </g>
    </g>
</svg>
