<svg xmlns="http://www.w3.org/2000/svg" width="16" height="16" viewBox="0 0 16 16">
    <g fill="none" fill-rule="evenodd">
        <g>
            <g>
                <g>
                    <g transform="translate(-32 -256) translate(16 88) translate(8 16) translate(8 152)">
                        <rect width="16" height="16" fill="#86868B" rx="4"/>
                        <g fill="#FFF">
                            <g>
                                <path d="M2.145 11.642H.461c-.255 0-.461-.207-.461-.461V6.629c0-.254.206-.46.46-.46h1.685c.255 0 .461.206.461.46v4.552c0 .254-.206.46-.46.46M2.954 6.603v4.691s1.39.087 2.432.435c1.043.347 3.041.26 3.997-.087.955-.348 1.216-.609 1.13-.956-.088-.348-.088-.608.086-.782.174-.174.348-.434.348-.695 0-.26-.174-.608-.174-.695 0-.087.521-.521.521-.869 0-.347-.347-.695-.347-.869 0-.173.347-.608.347-1.042 0-.434-.612-.913-.869-.956-.521-.087-1.648-.122-2.606-.173-.885-.048-.869-.435-.434-1.043 0 0 .695-.956.695-1.564C8.08 1.39 7.906 0 7.037 0c-.521 0-.521 1.13-.608 1.65-.087.522-.434 1.043-.782 1.304-.347.26-1.13.956-1.216 1.65-.087.696-.869 1.912-1.477 1.999" transform="translate(2 2) translate(.375)"/>
                            </g>
                        </g>
                    </g>
                </g>
            </g>
        </g>
    </g>
</svg>
