<svg xmlns="http://www.w3.org/2000/svg" width="16" height="16" viewBox="0 0 16 16">
    <g fill="none" fill-rule="evenodd">
        <g>
            <g>
                <g transform="translate(-318 -384) translate(286 56) translate(32 328)">
                    <rect width="16" height="16" fill="#86868B" rx="4"/>
                    <path fill="#FFF" fill-rule="nonzero" d="M13.165 10.718c0 .745-.629 1.35-1.404 1.35H4.037c-.775 0-1.404-.605-1.404-1.35V4.642c0-.746.629-1.35 1.404-1.35h7.724c.775 0 1.404.604 1.404 1.35v6.076zm-.703-4.794H3.335v4.794c0 .346.271.631.62.67l.082.005h7.724c.36 0 .657-.26.697-.597l.005-.078-.001-4.794zM9.479 4.17c-.388 0-.702.302-.702.675 0 .373.314.675.702.675.388 0 .702-.302.702-.675 0-.373-.314-.675-.702-.675zm1.975 0c-.388 0-.703.302-.703.675 0 .373.315.675.703.675.387 0 .702-.302.702-.675 0-.373-.315-.675-.702-.675z"/>
                </g>
            </g>
        </g>
    </g>
</svg>
