<svg xmlns="http://www.w3.org/2000/svg" width="16" height="16" viewBox="0 0 16 16">
    <g fill="none" fill-rule="evenodd">
        <g>
            <g>
                <g transform="translate(-318 -512) translate(286 56) translate(32 456)">
                    <rect width="16" height="16" fill="#86868B" rx="4"/>
                    <path fill="#FFF" d="M6.677 2.872c.271.374.695.607 1.157.629-.006.059-.01.118-.01.177 0 .965.775 1.75 1.726 1.75.08 0 .16-.007.24-.018.124.857.863 1.508 1.748 1.493-.012.075-.018.151-.018.228 0 .792.628 1.438 1.406 1.453-.32 2.244-2.089 4.013-4.276 4.342-.069-.656-.617-1.168-1.282-1.168-.57 0-1.055.374-1.224.899-1.786-.678-3.096-2.35-3.272-4.349.084.02.169.034.256.034.633 0 1.149-.522 1.149-1.164 0-.62-.481-1.126-1.085-1.16.582-1.528 1.865-2.733 3.485-3.146zm1.641 4.565c-.525 0-.953.434-.953.967 0 .532.428.966.953.966.526 0 .954-.434.954-.966 0-.533-.428-.967-.954-.967z"/>
                </g>
            </g>
        </g>
    </g>
</svg>
