<svg xmlns="http://www.w3.org/2000/svg" width="16" height="16" viewBox="0 0 16 16">
    <g fill="none" fill-rule="evenodd">
        <g>
            <g>
                <g transform="translate(-318 -480) translate(286 56) translate(32 424)">
                    <rect width="16" height="16" fill="#86868B" rx="4"/>
                    <path stroke="#FFF" stroke-width=".658" d="M5.11 10.127c-.12.117-.69.703-.84.77-.164.072-.485-.2-.759-.14-.374.08-.645.43-.626.813.009.169.074.331.18.46.145.174.492.03.623.193.11.135-.073.337 0 .476.08.157.219.286.38.358.308.137.673.057.901-.19.113-.121.186-.278.204-.444.013-.114-.093-.377-.068-.45.046-.133.747-.649.854-.746"/>
                    <path fill="#FFF" d="M5.94 11.213c.621.462 1.007.06 1.494-.277.685-.475 1.375-.84 2.195-1.042.413-.102.842-.128 1.25-.242.55-.153 1.057-.445 1.468-.84.7-.674 1.086-1.639 1.05-2.61-.076-2.021-1.977-3.606-3.982-3.29-.946.15-1.872.743-2.369 1.567-.335.555-.531 1.175-.537 1.825-.005.591.058 1.099-.197 1.659-.325.712-.6.706-1.069 1.293-.519.65.143 1.544.697 1.957z"/>
                </g>
            </g>
        </g>
    </g>
</svg>
