<svg xmlns="http://www.w3.org/2000/svg" width="16" height="16" viewBox="0 0 16 16">
    <g fill="none" fill-rule="evenodd">
        <g>
            <g>
                <g transform="translate(-318 -576) translate(286 56) translate(32 520)">
                    <rect width="16" height="16" fill="#86868B" rx="4"/>
                    <path fill="#FFF" d="M12.385 7.926c-.017-.07-.12-.312-.12-.312s-.105-.138-.173-.173c-.07-.034-.122-.121-.243-.19-.121-.07-.173-.104-.276-.104-.105 0-.208-.139-.33-.208-.121-.069-.138-.034-.138-.034s.138.207.138.26c0 .051.156.138.312.103 0 0 .104.19.156.242.051.052-.018.104-.121.173-.104.07-.086.052-.14.104-.051.052-.224.139-.276.173-.052.034-.26.138-.363.034-.05-.05-.035-.155-.07-.224-.034-.07-.397-.606-.57-.848-.03-.043-.104-.174-.156-.208-.051-.035.122-.035.122-.035s0-.121-.018-.207c-.017-.087.018-.208.018-.208s-.173.104-.226.138c-.051.035-.104-.068-.172-.155-.069-.087-.139-.19-.156-.277-.017-.087.087-.121.087-.121l.155-.087s.19-.034.312-.017.311.035.311.035.053-.122-.017-.173c-.068-.052-.226-.139-.294-.121-.069.017.034-.087.12-.156l-.191-.035s-.174.087-.227.104c-.052.017-.141.052-.211.138-.069.087.027.208-.042.243-.069.034-.116.052-.168.069-.052.017-.216 0-.216 0-.179 0-.064.163-.018.22l-.138-.168-.103-.243s-.147-.104-.216-.138c-.07-.034-.283-.156-.283-.156l.015.156.2.203.018.005.123.138-.212.017v-.136c-.355-.053-.18-.107-.203-.123l-.181-.122s-.21.035-.261.052c-.052.018-.068.07-.172.104-.104.035-.153.087-.187.138-.034.052-.148.208-.216.277-.07.07-.2.052-.251.052-.053 0-.303-.07-.303-.07v-.293s.035-.164.017-.216l.152-.026.253-.052.075-.052.106-.138s-.12-.087-.033-.208c.042-.058.19-.07.26-.12.069-.053.173-.087.173-.087s.122-.104.243-.225c0 0 .086-.053.19-.087 0 0 .295.26.346.26.053 0 .243-.122.243-.122s.052-.155.035-.207c-.017-.052-.104-.225-.104-.225s-.052.086-.103.156c-.052.069-.088.155-.088.155s-.242-.016-.259-.068c-.018-.052-.052-.138-.07-.19-.016-.051-.155-.05-.258-.015-.105.035.017-.186.017-.186s.104-.131.173-.131c.068 0 .225-.089.293-.106.07-.017.278-.15.364-.15.086 0 .19-.017.243-.017h.26l.362.025s.312.142.207.211c0 0 .122.09.174.14.048.05.174-.037.246-.077 1.295.813 2.161 2.253 2.161 3.892 0 .088-.008.176-.013.263-.033-.083-.082-.187-.094-.233zm-1.263.657c-.035.052-.139.19-.19.26-.052.069-.12.173-.225.259-.104.087-.105.173-.156.243-.051.069-.121.224-.121.224s.035.347.052.416c.018.07-.121.26-.121.26l-.156.155-.209.277.017.259-.244.19c-.086.07-.072.122-.142.191-.068.069-.252.19-.321.208-.069.017-.363.069-.363.069v-.156l-.096-.173s-.096-.207-.148-.277c-.052-.069-.052-.173-.138-.26-.087-.086-.13-.155-.146-.207-.018-.052.012-.207.012-.207s.067-.191.102-.26c.035-.069-.001-.173-.037-.243-.034-.07-.051-.242-.051-.294 0-.051-.14-.139-.191-.19-.052-.052-.035-.122-.035-.19 0-.07-.052-.226-.036-.347.018-.12-.155-.035-.258 0-.104.035-.173-.035-.173-.139 0-.103-.19-.016-.312.052-.122.07-.26.07-.399.121-.137.052-.206-.052-.206-.052s-.122-.104-.208-.156c-.087-.051-.173-.155-.243-.242-.069-.086-.242-.346-.26-.45-.016-.104 0-.173 0-.294s0-.19.018-.277c.017-.087.07-.19.121-.277.052-.087.243-.19.294-.225.052-.035.173-.138.173-.208 0-.069.07-.103.104-.173.035-.069.156-.242.312-.173 0 0 .138-.017.19-.034.051-.017.19-.069.258-.104.07-.034.242-.05.242-.05s.136.054.188.054c.052 0 .22-.03.22-.03s.079.25.079.302c0 .053.052.104.14.139.085.034.484.12.657-.018.04-.032.172.052.172.052s.433.087.502.139c.07.052.19.087.225.139.036.051.156.207.173.259.018.052.105.243.122.312s.069.242.12.328c.053.087.347.467.45.64l.313-.05c-.001 0-.036.157-.071.208zm-.052 1.627c-.018.07-.052.19-.069.26-.017.069-.104.208-.156.242-.051.035-.138.139-.19.156-.051.017-.086-.122-.069-.19.018-.07.104-.26.104-.26s.017-.104.034-.173c.018-.069.226-.156.226-.156l.139-.26s.017.07.017.122c0 .051-.018.19-.036.26zM5.792 3.997c-.225.242-.173.173-.225.242-.052.07-.035.087-.156.174-.121.086-.173.19-.173.19l-.19.069-.156-.07s-.14.053-.121-.017c.004-.018.011-.037.02-.057.423-.391.92-.702 1.466-.913-.054.07-.119.14-.119.14s-.121 0-.346.242zm-.693 6.68l-.069.26.07.208s-.105.086-.173.086c-.064 0-.086.04-.155.022-.66-.617-1.14-1.423-1.347-2.333.023.005.054.022.1.062.064.056.103.085.19.12.086.036.12.087.225.139.104.052.07.017.207.173.139.155.122.155.156.242s.087.173.122.225c.034.053.138.087.19.122.052.034.138.069.19.069.052 0 .208.156.294.173.087.017.087.19.087.19l-.087.243zm-1.787-2.89c.024-.973.351-1.87.892-2.603.018.002.03.007.03.007 0 .07-.094.086 0 .26.121.225.018.329.018.329l-.346.242c-.052.034-.191.225-.104.173.086-.052.19-.104.104.035-.087.138-.243.363-.278.45-.034.087-.207.294-.207.398 0 .104-.069.312-.052.398.012.06-.027.238-.057.31zm3.62-3.115l.235.067v-.31l.092-.086.098.19.187.226-.076.104-.301.069v-.183l-.235.183-.068-.104.068-.156zm.967-1.8c-2.772 0-5.027 2.255-5.027 5.027 0 2.771 2.255 5.027 5.027 5.027 2.772 0 5.027-2.255 5.027-5.027 0-2.772-2.255-5.027-5.027-5.027z"/>
                </g>
            </g>
        </g>
    </g>
</svg>
