<svg xmlns="http://www.w3.org/2000/svg" width="16" height="16" viewBox="0 0 16 16">
    <g fill="none" fill-rule="evenodd">
        <g>
            <g>
                <g transform="translate(-318 -448) translate(286 56) translate(32 392)">
                    <rect width="16" height="16" fill="#86868B" rx="4"/>
                    <path fill="#FFF" d="M6.671 9.273v3.336c0 .175-.137.317-.305.317H4.522c-.17 0-.306-.142-.306-.317V8.162c0-.175-.137-.316-.306-.316H3.18c-.281 0-.413-.36-.203-.553l4.72-4.34c.116-.107.29-.107.406 0l4.72 4.34c.21.193.078.553-.203.553h-.731c-.17 0-.306.141-.306.316v4.447c0 .175-.137.317-.306.317H9.432c-.168 0-.305-.142-.305-.317V9.273c0-.174-.137-.316-.306-.316H6.977c-.169 0-.306.142-.306.316z"/>
                </g>
            </g>
        </g>
    </g>
</svg>
