<svg xmlns="http://www.w3.org/2000/svg" width="16" height="16" viewBox="0 0 16 16">
    <g fill="none" fill-rule="evenodd">
        <g>
            <g>
                <g transform="translate(-318 -352) translate(286 56) translate(32 296)">
                    <rect width="16" height="16" fill="#86868B" rx="4"/>
                    <path fill="#FFF" d="M11.654 6.739c-.454 0-.823-.387-.823-.86 0-.023.001-.045.003-.067h1.64c.002.022.004.044.004.066 0 .474-.37.86-.824.86zm-.14 5.025H9.472V8.37H6.326v3.394H4.233c-.021 0-.038-.018-.038-.04V7.455c.499-.018.938-.288 1.2-.694.272.42.732.695 1.252.695s.98-.275 1.252-.695c.272.42.731.695 1.252.695.52 0 .98-.275 1.251-.695.255.392.673.658 1.151.692v4.27c0 .023-.018.041-.039.041zm-4.477 0h1.725V9.113H7.037v2.651zM3.323 5.812h1.641l.003.066c0 .474-.37.86-.823.86-.454 0-.824-.386-.824-.86l.003-.066zm4.148.066c0 .474-.37.86-.824.86-.454 0-.823-.386-.823-.86 0-.022 0-.044.003-.066h1.64c.003.022.004.044.004.066zm2.503 0c0 .474-.369.86-.823.86-.454 0-.824-.386-.824-.86l.003-.066h1.641l.003.066zM3.32 4.065c0-.03.024-.056.053-.056h9.052c.03 0 .053.025.053.056v1.03H3.32v-1.03zm9.845 1.813c0-.022 0-.044-.002-.066h.002V4.065c0-.426-.332-.774-.74-.774H3.373c-.408 0-.74.348-.74.774v1.747h.002l-.002.066c0 .623.348 1.163.85 1.42v4.426c0 .431.337.783.75.783h7.281c.414 0 .75-.352.75-.783V7.322c.53-.245.901-.8.901-1.444z"/>
                </g>
            </g>
        </g>
    </g>
</svg>
