<svg xmlns="http://www.w3.org/2000/svg" width="16" height="16" viewBox="0 0 16 16">
    <g fill="none" fill-rule="evenodd">
        <g>
            <g>
                <g transform="translate(-318 -160) translate(286 56) translate(32 104)">
                    <rect width="16" height="16" fill="#86868B" rx="4"/>
                    <path fill="#FFF" d="M10.1 4.37v-.38c0-.182-.152-.33-.338-.33H6.529c-.187-.001-.339.145-.34.326v.385c0 .111-.092.202-.207.203H5.72c-.115 0-.208-.09-.208-.203v-.382C5.512 3.442 5.968 3 6.528 3H9.76c.56 0 1.016.442 1.018.99v.38c0 .113-.094.204-.209.204h-.26c-.115 0-.209-.09-.209-.203M2.857 7.968c3.5.522 7.064.522 10.564 0l.123-.02c.432-.063.748-.42.743-.835v-1.56c-.014-.328-.297-.586-.64-.586H2.64c-.348 0-.633.265-.64.596v1.56c-.006.416.31.773.742.837l.114.008z"/>
                    <path fill="#FFF" d="M13.5 8.458c-1.42.238-2.858.38-4.3.424-.122.005-.224.091-.243.206-.043.39-.403.676-.813.647-.411.041-.78-.243-.824-.634l-.001-.01c-.021-.118-.126-.205-.252-.21-1.439-.045-2.873-.187-4.292-.423l-.482-.072c-.143-.017-.273.08-.29.215L2 8.631v3.344c-.001.47.398.854.892.855H13.39c.493.001.894-.376.898-.844V8.642c0-.137-.117-.247-.26-.247-.011 0-.022 0-.032.002l-.495.061z"/>
                </g>
            </g>
        </g>
    </g>
</svg>
