<svg xmlns="http://www.w3.org/2000/svg" width="16" height="16" viewBox="0 0 16 16">
    <g fill="none" fill-rule="evenodd">
        <g>
            <g>
                <g transform="translate(-318 -416) translate(286 56) translate(32 360)">
                    <rect width="16" height="16" fill="#86868B" rx="4"/>
                    <path fill="#FFF" d="M8.25 5.955c-.094.088-.22.133-.348.125-.13.009-.258-.036-.353-.125-.087-.09-.132-.214-.124-.34-.01-.128.036-.254.124-.347.095-.088.221-.133.35-.125.237-.024.45.147.474.384.003.03.004.059 0 .088.008.126-.037.25-.124.34zm-.775 4.7h.845V6.67h-.845v3.984zM7.9 2.872c-2.776 0-5.027 2.25-5.027 5.027 0 2.776 2.25 5.027 5.027 5.027 2.776 0 5.027-2.25 5.027-5.027 0-2.776-2.25-5.027-5.027-5.027z"/>
                </g>
            </g>
        </g>
    </g>
</svg>
