<svg xmlns="http://www.w3.org/2000/svg" width="100" height="100" viewBox="0 0 100 100">
  <g fill="none" fill-rule="evenodd">
    <g fill="#000">
      <path d="M97.442 2.592c3.41 3.456 3.41 8.856 0 12.313L14.494 97.408C12.79 99.136 10.658 100 8.526 100c-2.131 0-4.263-.864-5.968-2.592-3.41-3.456-3.41-8.856 0-12.313L85.293 2.592c3.41-3.456 8.739-3.456 12.15 0zm-18.576 64.37c7.044 0 12.789 5.823 12.789 12.961s-5.745 12.96-12.789 12.96c-7.041-.002-12.79-5.822-12.79-12.96 0-7.138 5.746-12.96 12.79-12.96zM19.184 8.64c7.044 0 12.789 5.822 12.789 12.96 0 7.14-5.745 12.961-12.79 12.961-7.04-.002-12.788-5.822-12.788-12.96 0-7.139 5.745-12.96 12.789-12.96z"></path>
    </g>
  </g>
</svg>