<svg xmlns="http://www.w3.org/2000/svg" width="16" height="16" viewBox="0 0 16 16">
  <g fill="none" fill-rule="evenodd">
    <rect width="16" height="16" fill="#86868B" rx="4"/>
    <g transform="translate(3 4)">
      <path fill="#E0E0E0" fill-opacity=".85" d="M1,0 L2.53158401,0 C2.72742195,-2.09913886e-16 2.91430479,0.0820377803 3.04686026,0.226195844 L3.31488134,0.517676823 C3.40956383,0.620646869 3.54305157,0.679245283 3.68293581,0.679245283 L9,0.679245283 C9.55228475,0.679245283 10,1.12696053 10,1.67924528 L10,6.57888199 C10,6.92191599 9.72191599,7.2 9.37888199,7.2 L0.621118012,7.2 C0.278084006,7.2 3.88000349e-16,6.92191599 0,6.57888199 L0,1 C-6.76353751e-17,0.44771525 0.44771525,1.01453063e-16 1,0 Z"/>
      <path fill="#FFF" d="M0.5,2 L9.5,2 C9.77614237,2 10,2.22385763 10,2.5 L10,7 C10,7.55228475 9.55228475,8 9,8 L1,8 C0.44771525,8 -1.5440923e-16,7.55228475 0,7 L0,2.5 C-3.38176876e-17,2.22385763 0.223857625,2 0.5,2 Z"/>
    </g>
  </g>
</svg>