   <svg width="20px" height="20px" viewBox="0 0 20 20" version="1.1" xmlns="http://www.w3.org/2000/svg" xmlns:xlink="http://www.w3.org/1999/xlink">
        <g id="Page-1" stroke="none" stroke-width="1" fill="none" fill-rule="evenodd">
          <g id="0-Builder---Insert" transform="translate(-373.000000, -67.000000)">
            <g id="Group-2" transform="translate(179.000000, 47.000000)">
              <g id="Group-4" transform="translate(194.000000, 20.000000)">
                <path d="M9.75,0 C15.1347763,0 19.5,4.36522369 19.5,9.75 C19.5,15.1347763 15.1347763,19.5 9.75,19.5 C4.36522369,19.5 0,15.1347763 0,9.75 C0,4.36522369 4.36522369,0 9.75,0 Z M14.0525898,5.44741021 C13.7280774,5.12289783 13.2202686,5.09339671 12.8624295,5.35890683 L12.8624295,5.35890683 L12.7599102,5.44741021 L9.7496875,8.4566875 L6.74008979,5.44741021 L6.63757045,5.35890683 C6.27973144,5.09339671 5.77192258,5.12289783 5.44741021,5.44741021 C5.0904466,5.80437382 5.0904466,6.38312618 5.44741021,6.74008979 L5.44741021,6.74008979 L8.4566875,9.7496875 L5.44741021,12.7599102 L5.36560605,12.853515 C5.09292551,13.2117923 5.12019356,13.7253731 5.44741021,14.0525898 C5.77192258,14.3771022 6.27973144,14.4066033 6.63757045,14.1410932 L6.63757045,14.1410932 L6.74008979,14.0525898 L9.7496875,11.0416875 L12.7599102,14.0525898 L12.8624295,14.1410932 C13.2202686,14.4066033 13.7280774,14.3771022 14.0525898,14.0525898 C14.4095534,13.6956262 14.4095534,13.1168738 14.0525898,12.7599102 L14.0525898,12.7599102 L11.0416875,9.7496875 L14.0525898,6.74008979 L14.134394,6.64648499 C14.4070745,6.28820765 14.3798064,5.77462685 14.0525898,5.44741021 Z" id="close" fill="#636363"></path>
                <g id="Group" transform="translate(4.875000, 4.875000)"></g>
              </g>
            </g>
          </g>
        </g>
      </svg>