<svg width="20" height="20" viewBox="0 0 20 20" xmlns="http://www.w3.org/2000/svg">
    <g fill="none" fill-rule="evenodd">
        <rect fill="#86868B" width="20" height="20" rx="5"/>
        <path d="M5.114 3.571c-.852 0-1.543.691-1.543 1.543v9.772c0 .852.691 1.543 1.543 1.543h9.772c.852 0 1.543-.691 1.543-1.543V5.114c0-.852-.691-1.543-1.543-1.543zm0 .814h5.282v11.23H5.114a.73.73 0 0 1-.723-.63l-.006-.1v-9.77a.73.73 0 0 1 .73-.73zm6.668 7.537h2.852a.458.458 0 0 1 0 .917h-2.852a.458.458 0 0 1 0-.917zm0-2.38h2.852a.458.458 0 0 1 0 .916h-2.852a.458.458 0 0 1 0-.916zm0-2.381h2.852a.458.458 0 0 1 0 .917h-2.852a.458.458 0 0 1 0-.917z" fill="#FFF" fill-rule="nonzero"/>
    </g>
</svg>