<svg xmlns="http://www.w3.org/2000/svg" width="64" height="64" viewBox="0 0 64 64">
    <path fill="#C9C9C9" fill-rule="evenodd" d="M11.967 15.276c-2.386 0-4.325-1.935-4.325-4.324 0-2.388 1.94-4.324 4.325-4.324 2.388 0 4.324 1.936 4.324 4.324 0 2.389-1.936 4.324-4.324 4.324m18.51-14.083c-.763-.764-1.8-1.19-2.878-1.19L5.527 0C2.477 0 .003 2.473.003 5.523L0 27.597c0 1.077.43 2.114 1.196 2.878l32.315 32.309c.807.814 1.868 1.216 2.93 1.216 1.057 0 2.117-.402 2.925-1.216l23.423-23.421c1.615-1.618 1.615-4.24 0-5.855L30.477 1.193z"/>
</svg>
